<svg width="17" height="21" viewBox="0 0 17 21" fill="none" xmlns="http://www.w3.org/2000/svg">
<path d="M8.32008 11.2766C8.30008 11.2766 8.28008 11.2766 8.25608 11.2766C8.24808 11.2766 8.24009 11.2766 8.23209 11.2766C8.22009 11.2766 8.20409 11.2766 8.19209 11.2766C7.02021 11.2559 6.0723 10.8293 5.37237 10.0134C3.83252 8.21588 4.0885 5.1345 4.1165 4.84044C4.21649 2.63295 5.22439 1.57683 6.0563 1.08397C6.67624 0.715366 7.40017 0.516567 8.20809 0.5H8.23608C8.24009 0.5 8.24808 0.5 8.25208 0.5H8.27608C8.72004 0.5 9.59195 0.57455 10.4279 1.06741C11.2678 1.56026 12.2917 2.61638 12.3917 4.84044C12.4197 5.1345 12.6756 8.21588 11.1358 10.0134C10.4399 10.8293 9.49196 11.2559 8.32008 11.2766ZM11.3238 4.94398C11.3238 4.93156 11.3198 4.91914 11.3198 4.91085C11.1878 1.94129 9.15199 1.62239 8.28008 1.62239H8.26408C8.25608 1.62239 8.24409 1.62239 8.23209 1.62239C7.15219 1.64724 5.31638 2.10282 5.19239 4.91085C5.19239 4.92328 5.19239 4.9357 5.18839 4.94398C5.18439 4.97298 4.90442 7.7893 6.17629 9.272C6.68024 9.86012 7.35217 10.15 8.23608 10.1583C8.24408 10.1583 8.24808 10.1583 8.25608 10.1583C8.26408 10.1583 8.26808 10.1583 8.27608 10.1583C9.15599 10.15 9.83193 9.86012 10.3319 9.272C11.5998 7.79758 11.3278 4.96883 11.3238 4.94398Z" fill="#7E992D"/>
<path d="M0.0369034 16.3873C0.0369034 16.3832 0.0369034 16.3791 0.0369034 16.3749C0.0369034 16.3418 0.0409031 16.3087 0.0409031 16.2714C0.0648994 15.4513 0.116896 13.5338 1.85272 12.9208C1.86472 12.9166 1.88072 12.9125 1.89272 12.9084C3.69654 12.4321 5.19639 11.3552 5.21239 11.3428C5.45636 11.1647 5.79233 11.2269 5.96431 11.4795C6.1363 11.7321 6.0763 12.08 5.83233 12.2581C5.76433 12.3078 4.17249 13.4551 2.18069 13.9852C1.24878 14.3289 1.14479 15.3602 1.1168 16.3045C1.1168 16.3418 1.1168 16.3749 1.1128 16.4081C1.1088 16.7808 1.13279 17.3565 1.19679 17.6878C1.84472 18.0689 4.38447 19.3859 8.24809 19.3859C12.0957 19.3859 14.6514 18.0647 15.3034 17.6837C15.3674 17.3524 15.3954 16.7767 15.3874 16.4039C15.3874 16.3708 15.3834 16.3376 15.3834 16.3004C15.3554 15.3561 15.2514 14.3248 14.3195 13.9811C12.3277 13.4509 10.7358 12.2995 10.6678 12.254C10.4239 12.0759 10.3639 11.728 10.5359 11.4754C10.7078 11.2227 11.0438 11.1606 11.2878 11.3387C11.3038 11.3511 12.7956 12.4279 14.6075 12.9042C14.6235 12.9084 14.6354 12.9125 14.6474 12.9166C16.3833 13.5338 16.4353 15.4513 16.4593 16.2672C16.4593 16.3045 16.4593 16.3376 16.4633 16.3708C16.4633 16.3749 16.4633 16.3791 16.4633 16.3832C16.4673 16.5986 16.4713 17.7044 16.2593 18.2594C16.2193 18.3671 16.1473 18.4582 16.0513 18.5203C15.9313 18.6031 13.0556 20.5 8.24409 20.5C3.43256 20.5 0.556853 18.599 0.436865 18.5203C0.344875 18.4582 0.268881 18.3671 0.228884 18.2594C0.0289059 17.7085 0.0329056 16.6027 0.0369034 16.3873Z" fill="#7E992D"/>
</svg>
