<svg width="19" height="21" viewBox="0 0 19 21" fill="none" xmlns="http://www.w3.org/2000/svg">
<g clip-path="url(#clip0)">
<path d="M17.7326 15.6981C17.4209 16.4013 17.0424 17.0406 16.6083 17.6267C16.0183 18.4365 15.5285 18.9906 15.1611 19.2996C14.5822 19.811 13.9588 20.0668 13.302 20.0881C12.8233 20.0881 12.2556 19.9602 11.5877 19.6938C10.9197 19.4274 10.2963 19.2996 9.73972 19.2996C9.14972 19.2996 8.51518 19.4274 7.83612 19.6938C7.15705 19.9602 6.61158 20.0987 6.18855 20.1094C5.55402 20.1307 4.91948 19.8643 4.28495 19.2996C3.88419 18.9586 3.37211 18.3832 2.77097 17.5628C2.1253 16.689 1.59096 15.6768 1.16793 14.5153C0.722644 13.2793 0.5 12.0753 0.5 10.9032C0.5 9.56063 0.800569 8.40985 1.41284 7.44022C1.89152 6.66238 2.52606 6.04438 3.31645 5.59685C4.10683 5.14933 4.96401 4.91492 5.88798 4.90426C6.38893 4.90426 7.05686 5.05343 7.88065 5.35178C8.70443 5.65013 9.22764 5.79931 9.46142 5.79931C9.63953 5.79931 10.2184 5.62882 11.2092 5.2772C12.1443 4.95754 12.9347 4.81902 13.5915 4.87229C15.3504 5.01081 16.6751 5.67144 17.5545 6.86484C15.9849 7.78119 15.2056 9.04917 15.2168 10.6901C15.2279 11.9687 15.7177 13.0236 16.6639 13.876C17.0981 14.2703 17.5768 14.5686 18.1111 14.7817C17.9887 15.0907 17.8662 15.3997 17.7326 15.6981ZM13.7028 0.514276C13.7028 1.51587 13.3243 2.45354 12.5562 3.31662C11.6322 4.33953 10.5301 4.93623 9.3167 4.84033C9.30557 4.71246 9.30557 4.59526 9.30557 4.45674C9.30557 3.49776 9.73972 2.4642 10.519 1.63308C10.9086 1.20687 11.3984 0.855246 11.9996 0.567553C12.6007 0.290515 13.1573 0.130686 13.6917 0.109375C13.6917 0.247894 13.7028 0.375758 13.7028 0.514276Z" fill="white"/>
</g>
<defs>
<clipPath id="clip0">
<rect width="17.6" height="20" fill="white" transform="translate(0.5 0.109375)"/>
</clipPath>
</defs>
</svg>
