<svg width="36" height="30" viewBox="0 0 36 30" fill="none" xmlns="http://www.w3.org/2000/svg">
<path d="M31.6667 6.36678L31.0449 25.1782C17.9482 28.879 8.36091 25.796 8.36091 25.796L5.58731 10.5601C5.58731 10.5601 1.02968 4.05806 17.3069 2.17065C17.3069 2.17065 29.6938 0.704564 31.6504 6.36678L30.1659 8.42215" fill="#9E5F25"/>
<path d="M22.9062 26.741C25.6708 26.4529 28.3966 25.9294 31.0449 25.1781L31.6667 6.3667L24.101 8.8747C23.9057 14.8415 23.4792 20.797 22.9062 26.741Z" fill="#804712"/>
<path d="M10.0022 7.98952C9.14598 8.14324 8.23119 8.33113 7.63545 9.03998C7.0397 9.74882 7.02344 10.7025 7.81451 11.1608C8.15959 11.3601 9.03857 11.7928 9.41295 11.7302C10.5686 11.5679 10.025 11.528 11.0797 10.9843C9.95986 12.6924 13.3162 14.0674 15.0709 11.7558C15.4551 11.2491 14.4393 14.2553 16.6693 13.7485C18.7463 13.2874 19.2248 12.5159 19.3062 11.5053C19.5829 12.7465 20.7321 13.6745 21.8194 13.5379C22.9068 13.4012 23.7922 12.217 23.7499 10.9473C24.427 11.9181 25.3093 12.2227 26.3543 12.3707C27.3993 12.5187 28.5484 11.9323 28.9586 10.8221C29.3688 9.71182 28.9033 8.63858 27.8746 8.30267C27.9974 8.46689 28.1629 8.60338 28.3576 8.70098C28.5523 8.79859 28.7706 8.85453 28.9947 8.86424C29.2189 8.87396 29.4424 8.83717 29.6472 8.75689C29.8519 8.67661 30.0321 8.5551 30.1729 8.4023C30.7817 7.74185 30.8012 6.48927 30.2152 5.75481C29.5967 4.97479 28.5875 4.90078 27.6825 4.95772C26.6801 5.03487 25.6944 5.23121 24.7526 5.5413C24.7233 4.43106 23.9159 3.08738 22.9491 2.95928C20.8168 2.6746 19.2671 4.64457 18.2905 4.64742C17.7957 4.64742 19.5927 4.40544 19.1174 4.42537C18.7919 4.42537 18.5737 4.82107 18.2905 4.64742C16.5847 3.59696 12.3819 1.47327 13.1144 5.231C12.2387 4.63603 11.2425 4.14639 10.2528 4.27164C9.26318 4.3969 8.29957 5.33349 8.3777 6.48928C8.45583 7.64506 9.84591 8.52756 10.5393 7.72477" fill="#FFED9B"/>
<path d="M15.7832 10.2101C14.4549 10.1672 13.1735 9.76982 12.111 9.07137C11.9525 8.94113 11.8136 8.79383 11.6976 8.63298C10.9651 7.82734 11.8506 6.95623 12.2217 6.73703C13.9341 5.71504 15.9915 5.46453 17.9318 5.31365C20.0055 5.16562 22.1378 4.83539 24.0585 5.52715C24.7061 5.73242 25.2776 6.08762 25.7123 6.55483C25.9224 6.7897 26.055 7.07038 26.0958 7.36644C26.1365 7.66251 26.0838 7.96267 25.9434 8.23442C25.7752 8.47998 25.5541 8.69462 25.2923 8.86641C23.0135 10.5346 18.814 10.5403 15.7767 10.1987" fill="#F78850"/>
<path d="M16.2754 5.48975C15.9726 5.5296 15.6699 5.5723 15.3704 5.62923C14.244 6.54589 13.1697 7.58497 12.6879 8.49878C12.6493 8.82523 12.6904 9.15513 12.8083 9.46668C13.0923 9.60627 13.3884 9.7262 13.6938 9.82537C13.9282 8.10308 14.9732 6.70816 16.2754 5.48975Z" fill="#FCD290"/>
<path d="M20.0508 5.16016C19.6341 5.18578 19.2174 5.22278 18.8007 5.25695H18.7844C17.3292 6.68033 16.1182 8.19766 15.9424 10.216C16.3461 10.2587 16.7693 10.2957 17.2055 10.3213C17.0981 8.15496 18.4914 6.6177 20.0508 5.16016Z" fill="#FCD290"/>
<path d="M24.8331 6.77961C24.9784 6.58028 25.1394 6.39004 25.3149 6.21026C25.2191 6.13546 25.118 6.06605 25.0121 6.00244C23.8369 7.0045 22.5217 8.72395 23.3844 9.80288C23.6062 9.73145 23.8236 9.64973 24.0355 9.55806C23.3714 8.58162 23.9606 7.5824 24.8331 6.77961Z" fill="#FCD290"/>
<path d="M23.0305 5.28531L22.8872 5.25684C21.2237 6.5692 19.469 8.43383 20.1462 10.3582C20.5151 10.3355 20.8797 10.3013 21.24 10.2558C20.501 8.61602 21.712 6.66314 23.0305 5.28531Z" fill="#FCD290"/>
</svg>
