<svg width="21" height="21" viewBox="0 0 21 21" fill="none" xmlns="http://www.w3.org/2000/svg">
<path d="M15.8921 20.6347H4.82212C3.77995 20.6347 2.93216 19.8052 2.93216 18.7865L1.36446 11.583C0.772516 11.2958 0.382812 10.7089 0.382812 10.055C0.382812 9.09838 1.17807 8.32129 2.15477 8.32129H18.3443C19.321 8.32129 20.1173 9.09838 20.1173 10.055C20.1173 10.6148 19.8406 11.127 19.3796 11.4501L17.7692 18.9029C17.7821 19.8052 16.9343 20.6347 15.8921 20.6347ZM2.15477 9.45834C1.81862 9.45834 1.54496 9.72609 1.54496 10.055C1.54496 10.314 1.73635 10.5439 2.01097 10.6119C2.22512 10.6653 2.38977 10.8341 2.43439 11.0456L4.08143 18.6691C4.0943 19.1785 4.42056 19.4967 4.82116 19.4967H15.8912C16.2928 19.4967 16.618 19.1785 16.618 18.7856L18.2928 10.9738C18.3295 10.8021 18.4445 10.6566 18.6041 10.5799C18.8193 10.4781 18.9532 10.2753 18.9532 10.0541C18.9532 9.72521 18.6795 9.45746 18.3433 9.45746H2.15477V9.45834Z" fill="white"/>
<path d="M7.73388 17.2995C7.73388 17.5198 7.54944 17.7002 7.32534 17.7002H7.21131C6.98619 17.7002 6.80176 17.5198 6.80176 17.2995V12.6165C6.80176 12.3963 6.98619 12.2168 7.21131 12.2168H7.32438C7.5495 12.2168 7.73292 12.3972 7.73292 12.6165V17.2995H7.73388Z" fill="white"/>
<path d="M10.728 17.2995C10.728 17.5198 10.5436 17.7002 10.3195 17.7002H10.2064C9.9813 17.7002 9.79688 17.5198 9.79688 17.2995V12.6165C9.79688 12.3963 9.9813 12.2168 10.2064 12.2168H10.3195C10.5446 12.2168 10.728 12.3972 10.728 12.6165V17.2995Z" fill="white"/>
<path d="M13.7221 17.2995C13.7221 17.5198 13.5377 17.7002 13.3126 17.7002H13.1995C12.9744 17.7002 12.791 17.5198 12.791 17.2995V12.6165C12.791 12.3963 12.9754 12.2168 13.1995 12.2168H13.3126C13.5377 12.2168 13.7221 12.3972 13.7221 12.6165V17.2995Z" fill="white"/>
<path d="M10.2624 0.634766C6.50036 0.634766 3.45021 3.61899 3.45021 7.29982H4.68277C4.68277 4.28453 7.18059 1.84071 10.2624 1.84071C13.3442 1.84071 15.842 4.28458 15.842 7.29982H17.0745C17.0736 3.61899 14.0244 0.634766 10.2624 0.634766Z" fill="white"/>
<path d="M4.67511 7.2824C4.67511 7.61335 4.4009 7.88163 4.06265 7.88163C3.7244 7.88163 3.4502 7.61335 3.4502 7.2824C3.4502 6.95145 3.7244 6.68317 4.06265 6.68317C4.4009 6.68317 4.67511 6.95145 4.67511 7.2824Z" fill="white"/>
<path d="M17.0745 7.28241C17.0745 7.61336 16.8003 7.88164 16.4621 7.88164C16.1238 7.88164 15.8496 7.61336 15.8496 7.28241C15.8496 6.95147 16.1238 6.68318 16.4621 6.68318C16.8003 6.68318 17.0745 6.95147 17.0745 7.28241Z" fill="white"/>
</svg>
