<svg width="56" height="39" viewBox="0 0 56 39" fill="none" xmlns="http://www.w3.org/2000/svg">
<g filter="url(#filter0_d_1139_12)">
<rect x="4" y="2" width="48" height="31" rx="3" fill="white"/>
</g>
<path fill-rule="evenodd" clip-rule="evenodd" d="M9.85827 12.9473H16.2691C16.7751 12.9473 17.1889 13.3611 17.1889 13.8671V20.2779C17.1889 20.7839 16.7751 21.1979 16.2691 21.1979H9.85827C9.35227 21.1979 8.93848 20.7839 8.93848 20.2779V13.8671C8.93848 13.3611 9.35227 12.9473 9.85827 12.9473Z" fill="#024978"/>
<path fill-rule="evenodd" clip-rule="evenodd" d="M14.525 19.0814H13.5414C13.5131 19.0814 13.4897 19.0583 13.4897 19.0299V18.7864L12.7495 19.5266C12.7294 19.5467 12.6965 19.5467 12.6764 19.5266L11.9808 18.8312C11.9609 18.8111 11.9609 18.7782 11.9808 18.7581L12.1531 18.586H11.106C11.0777 18.586 11.0545 18.5627 11.0545 18.5343V17.5507C11.0545 17.5223 11.0777 17.499 11.106 17.499H11.3495L10.6093 16.7588C10.5892 16.7387 10.5892 16.7058 10.6093 16.6856L11.3049 15.9901C11.3248 15.9702 11.3577 15.9702 11.3778 15.9901L11.5501 16.1623V15.1155C11.5501 15.0869 11.5733 15.0638 11.6016 15.0638H12.5853C12.6136 15.0638 12.637 15.0869 12.637 15.1155V15.359L13.3771 14.6186C13.3973 14.5985 13.4302 14.5985 13.4503 14.6186L14.1459 15.3142C14.1658 15.3343 14.1658 15.367 14.1459 15.3871L13.9736 15.5594H15.0204C15.049 15.5594 15.0722 15.5826 15.0722 15.6111V16.5948C15.0722 16.6231 15.049 16.6463 15.0204 16.6463H14.7772L15.5173 17.3864C15.5375 17.4065 15.5375 17.4394 15.5173 17.4596L14.8218 18.1551C14.8018 18.1753 14.7689 18.1753 14.7488 18.1551L14.5766 17.9829V19.0299C14.5766 19.0583 14.5534 19.0814 14.525 19.0814ZM14.3984 16.3407L14.0141 16.6463H13.5414C13.5131 16.6463 13.4897 16.6231 13.4897 16.5948V15.6111L13.4341 16.0987L13.0999 16.4331C13.0798 16.4532 13.0469 16.4532 13.0268 16.4331L12.637 16.0433L12.3312 15.7375L12.637 16.1219V16.5945C12.637 16.6231 12.6136 16.6463 12.5853 16.6463H11.6016L12.0897 16.7019L12.4238 17.036C12.4439 17.0562 12.4439 17.0891 12.4238 17.1092L11.7282 17.8048L12.1126 17.499H12.5853C12.6136 17.499 12.637 17.5223 12.637 17.5507V18.5343L12.6926 18.0465L13.0268 17.7121C13.0469 17.692 13.0798 17.692 13.0999 17.7121L13.7955 18.4077L13.4897 18.0233V17.5507C13.4897 17.5223 13.5131 17.499 13.5414 17.499H14.5248H14.525L14.0372 17.4433L13.7029 17.1092C13.6827 17.0891 13.6827 17.0562 13.7029 17.036L14.0926 16.6463L14.3984 16.3407Z" fill="#FEFEFE"/>
<path d="M21.5945 16.2511C21.6064 16.6355 21.3027 16.9129 20.9186 16.9129H19.9086V15.6172H20.9255C21.2843 15.6172 21.5826 15.867 21.5945 16.2511ZM46.6301 13.8687V17.728C46.6301 17.7944 46.5712 17.8394 46.5046 17.8394H45.6964C45.6324 17.8394 45.5711 17.7927 45.5711 17.728V13.8687H44.3033C44.2386 13.8687 44.1919 13.8073 44.1919 13.7432V13.0814C44.1919 13.0147 44.2369 12.9561 44.3033 12.9561C45.5084 12.9561 46.7136 12.9561 47.9186 12.9561C47.9851 12.9561 48.0303 13.0147 48.0303 13.0814V13.7432C48.0303 13.8073 47.9834 13.8687 47.9186 13.8687H46.6301ZM26.3921 17.6793V17.038C26.3921 16.9904 26.3562 16.9199 26.2739 16.9199H24.3815C24.266 16.9199 24.0374 16.8398 24.0374 16.5463V15.6172H26.0491C26.1333 15.6172 26.169 15.5456 26.169 15.5034V14.8506C26.169 14.7823 26.1214 14.7325 26.0367 14.7325H24.0374V14.2118C24.0374 13.9904 24.2212 13.8687 24.3815 13.8687H26.2683C26.3566 13.8687 26.3921 13.8008 26.3921 13.7508V13.0743C26.3921 13.0074 26.3419 12.9565 26.2597 12.9561L24.295 12.9468C23.557 12.9433 22.9785 13.5614 22.9785 14.2449V16.5576C22.9785 17.2668 23.5775 17.8394 24.2673 17.8394H26.272C26.343 17.8394 26.3904 17.7873 26.3921 17.7215C26.3923 17.7096 26.3921 17.6933 26.3921 17.6793ZM34.4073 15.2411V15.2062C34.557 15.1158 34.6823 14.9972 34.781 14.8522C34.8808 14.7069 34.9542 14.5351 34.9994 14.3377L35.3197 13.0942C35.3316 13.039 35.2944 12.9561 35.2033 12.9561H34.4419C34.4163 12.955 34.3897 12.9596 34.3618 12.9712C34.3341 12.9816 34.3144 13.0096 34.3027 13.0537L33.9891 14.2263C33.9519 14.3691 33.9021 14.4829 33.8405 14.5665C33.779 14.6513 33.7106 14.7139 33.6351 14.7546C33.5608 14.7952 33.4842 14.8219 33.4076 14.8346C33.3297 14.8463 33.2565 14.8522 33.1882 14.8509H32.6378V13.0721C32.6378 12.9972 32.5746 12.9561 32.5216 12.9561H31.7044C31.6351 12.9561 31.5789 13.0061 31.5789 13.0676V17.728C31.5789 17.7927 31.6401 17.8394 31.7044 17.8394H32.5125C32.5792 17.8394 32.6378 17.7944 32.6378 17.728V15.659H33.202C33.3635 15.6566 33.5005 15.6718 33.6119 15.7042C33.7234 15.7356 33.8162 15.7936 33.8907 15.8784C33.9636 15.9633 34.0253 16.0851 34.0727 16.2442L34.5018 17.7557C34.5254 17.8178 34.5683 17.8394 34.6129 17.8394H35.4214C35.5236 17.8442 35.5536 17.7459 35.5426 17.7003L35.1108 16.084C35.084 15.9795 35.0539 15.8843 35.0225 15.7994C34.9901 15.7135 34.9494 15.6369 34.8994 15.5685C34.8507 15.4999 34.7856 15.4384 34.7068 15.3839C34.6278 15.3305 34.5278 15.2828 34.4073 15.2411ZM37.3393 15.9587L37.604 15.0762L37.8689 14.0824H37.9107L38.1684 15.0762L38.4331 15.9587H37.3393ZM38.6837 16.8222L38.9556 17.728C38.9787 17.8111 39.0233 17.8394 39.0757 17.8394H39.9569C40.0394 17.839 40.0931 17.77 40.0727 17.6875L38.6281 13.3381C38.5597 13.1262 38.4582 12.9561 38.2119 12.9561L37.5865 12.9576C37.462 12.9498 37.3532 12.992 37.2686 13.1035C37.2255 13.1602 37.1885 13.237 37.1582 13.3381L35.7147 17.6819C35.6824 17.7786 35.7636 17.8394 35.8278 17.8394H36.6751C36.7022 17.8394 36.76 17.8431 36.7959 17.7674C36.8037 17.7505 36.8119 17.7267 36.8169 17.707L37.0885 16.8222H38.6837ZM43.023 14.5083C43.0226 14.8489 42.7514 15.1482 42.3835 15.1478L41.4342 15.1467V13.8687H42.3397C42.7503 13.856 43.0234 14.1674 43.023 14.5083ZM41.4342 17.6931V16.0604H42.5919C43.3926 16.0604 44.1427 15.4056 44.1302 14.4817C44.1302 14.26 44.0741 14.0514 43.9928 13.8687C43.8008 13.4387 43.4502 13.1513 43.0362 13.0249C42.8667 12.9734 42.6819 12.9576 42.5001 12.9561H40.7326C40.5447 12.9561 40.3874 13.0857 40.3792 13.2907C40.3779 13.3193 40.3749 13.3493 40.3753 13.3809V17.7215C40.3753 17.789 40.4257 17.839 40.4952 17.8394H41.3176C41.3602 17.8394 41.4011 17.8139 41.4202 17.7767C41.4319 17.7535 41.4342 17.7267 41.4342 17.6931ZM19.1937 17.8394H21.0231C21.9276 17.871 22.6658 17.2438 22.695 16.3069C22.6963 16.2267 22.7008 16.131 22.6787 16.0258C22.5186 15.2593 21.9128 14.7325 21.1411 14.7325H19.9086V13.8618H22.0124C22.0918 13.8636 22.1396 13.8066 22.1377 13.7294V13.1093C22.1394 13.0245 22.1078 12.9542 22.0124 12.9561H19.219C18.9334 12.9561 18.8496 13.1654 18.8496 13.3V17.496C18.8496 17.6847 18.9985 17.8394 19.1937 17.8394ZM27.5471 13.4229L27.4844 14.4817C27.4634 14.8429 27.4402 15.1552 27.416 15.4222C27.3775 15.8629 27.3329 16.9199 26.762 16.9199C26.7553 16.9199 26.7475 16.9201 26.7395 16.9199C26.688 16.9194 26.6226 16.9631 26.6226 17.0339V17.6793C26.6226 17.6929 26.6226 17.7018 26.6226 17.7137C26.6226 17.7883 26.673 17.8394 26.7408 17.8394C26.7507 17.8394 26.7819 17.8394 26.7916 17.8394C27.2219 17.8377 27.5993 17.7922 27.9244 17.3008C28.0265 17.1464 28.1161 16.9733 28.18 16.777C28.2449 16.5809 28.296 16.3602 28.3332 16.1176C28.3704 15.875 28.4005 15.6079 28.4249 15.3153C28.4481 15.024 28.4713 14.7069 28.4944 14.3633L28.5223 13.8757H29.8808V17.7217C29.8808 17.7866 29.9369 17.8455 30.0061 17.8394H30.8136C30.8973 17.8394 30.9398 17.7816 30.9398 17.7141V13.3002C30.9404 13.1171 30.7872 12.9561 30.5712 12.9561H27.8986C27.6932 12.9561 27.5714 13.1357 27.5625 13.2846C27.5601 13.327 27.55 13.3725 27.5471 13.4229Z" fill="#024978"/>
<path fill-rule="evenodd" clip-rule="evenodd" d="M20.3926 19.4993L20.0766 20.0316L19.4765 21.0045C19.4553 21.0376 19.4362 21.0642 19.4198 21.0843C19.4031 21.1044 19.3854 21.1205 19.3666 21.1324C19.3475 21.1441 19.3256 21.1518 19.3008 21.1553C19.2759 21.159 19.2458 21.1607 19.2103 21.1607H19.0683C18.9759 21.1607 18.9144 21.1389 18.8837 21.0949C18.853 21.0512 18.8374 20.9915 18.8374 20.9157V18.7394C18.8374 18.6944 18.8623 18.6719 18.9121 18.6719H19.2919C19.325 18.6719 19.3458 18.6766 19.354 18.6862C19.3624 18.6957 19.3666 18.7134 19.3666 18.7394V20.337H19.3878L19.6897 19.8399L20.3037 18.8318C20.3251 18.7985 20.3439 18.7714 20.3606 18.75C20.3772 18.7288 20.3948 18.7121 20.4138 18.7004C20.4326 18.6885 20.4541 18.6807 20.4777 18.6773C20.5015 18.6738 20.5309 18.6719 20.5664 18.6719H20.712C20.7997 18.6719 20.8601 18.6903 20.8932 18.7271C20.9263 18.7636 20.9427 18.8281 20.9427 18.9205V21.0932C20.9427 21.1382 20.9179 21.1607 20.8683 21.1607H20.4885C20.4552 21.1607 20.4339 21.156 20.4244 21.1464C20.4151 21.1369 20.4104 21.1194 20.4104 21.0932V19.4993H20.3926ZM21.9545 21.0897C21.9545 21.1205 21.9493 21.1399 21.9387 21.1482C21.9279 21.1566 21.906 21.1607 21.8729 21.1607H21.518C21.4658 21.1607 21.4399 21.1369 21.4399 21.0897V19.3642C21.4399 19.3192 21.4658 19.2969 21.518 19.2969H21.8729C21.906 19.2969 21.9279 19.301 21.9387 19.3092C21.9493 19.3175 21.9545 19.3359 21.9545 19.3642V19.9713H22.6185V19.3642C22.6185 19.3192 22.6445 19.2969 22.6973 19.2969H23.0546C23.0877 19.2969 23.1096 19.301 23.1191 19.3092C23.1286 19.3175 23.1334 19.3359 23.1334 19.3642V21.0897C23.1334 21.1205 23.1286 21.1399 23.1191 21.1482C23.1096 21.1566 23.0877 21.1607 23.0546 21.1607H22.6973C22.6445 21.1607 22.6185 21.1369 22.6185 21.0897V20.3762H21.9545V21.0897ZM24.486 19.7157V21.0897C24.486 21.1205 24.4806 21.1399 24.47 21.1482C24.4594 21.1566 24.4375 21.1607 24.4044 21.1607H24.0529C23.9984 21.1607 23.9711 21.1369 23.9711 21.0897V19.7157H23.4671C23.4197 19.7157 23.3961 19.6897 23.3961 19.6375V19.3785C23.3961 19.3454 23.4002 19.3235 23.4084 19.3127C23.4167 19.3021 23.4364 19.2969 23.4671 19.2969H25.0006C25.0292 19.2969 25.048 19.3021 25.0576 19.3127C25.0671 19.3235 25.0718 19.3454 25.0718 19.3785V19.6375C25.0718 19.6897 25.048 19.7157 25.0006 19.7157H24.486ZM26.041 19.2506C26.3178 19.2506 26.5255 19.3198 26.6641 19.4583C26.8026 19.5969 26.8718 19.7951 26.8718 20.0531C26.8718 20.176 26.848 20.2602 26.8006 20.305C26.7534 20.35 26.6883 20.3725 26.6054 20.3725H25.6967C25.699 20.4483 25.7114 20.511 25.7339 20.5608C25.7564 20.6104 25.7865 20.6506 25.8243 20.6813C25.8622 20.7121 25.9066 20.7335 25.9574 20.7454C26.0083 20.7571 26.0635 20.7632 26.1226 20.7632C26.1912 20.7632 26.2611 20.7547 26.3321 20.7383C26.4031 20.7216 26.4693 20.7004 26.531 20.6742C26.5593 20.6649 26.5788 20.6619 26.5894 20.6653C26.6 20.669 26.6102 20.6803 26.6197 20.6991L26.7333 20.9547C26.7428 20.9761 26.7446 20.9926 26.7385 21.0045C26.7327 21.0164 26.7203 21.0281 26.7013 21.04C26.6138 21.0969 26.5119 21.1376 26.3959 21.1624C26.2801 21.1873 26.1723 21.1997 26.073 21.1997C25.7629 21.1997 25.5333 21.1228 25.3841 20.969C25.235 20.8151 25.1606 20.5714 25.1606 20.2377C25.1606 20.0814 25.1811 19.9423 25.2227 19.8204C25.264 19.6986 25.3233 19.5949 25.4002 19.5099C25.477 19.4246 25.5694 19.3601 25.677 19.3164C25.7847 19.2727 25.9061 19.2506 26.041 19.2506ZM26.0516 19.6767C25.9546 19.6767 25.8752 19.7109 25.8137 19.7797C25.7523 19.8483 25.7168 19.9358 25.7073 20.0423H26.3712C26.3712 19.9903 26.3658 19.9418 26.3552 19.8968C26.3444 19.8518 26.3273 19.8133 26.3037 19.7815C26.2801 19.7494 26.2481 19.7241 26.2078 19.7051C26.1676 19.6862 26.1154 19.6767 26.0516 19.6767ZM27.7628 21.8245C27.7628 21.8507 27.7587 21.8671 27.7505 21.8743C27.7421 21.8814 27.7215 21.8849 27.6888 21.8849H27.322C27.296 21.8849 27.2776 21.8814 27.2657 21.8743C27.254 21.8671 27.248 21.8507 27.248 21.8245V19.5099C27.248 19.4839 27.2521 19.4631 27.2605 19.4477C27.2687 19.4324 27.2882 19.4164 27.3192 19.3997C27.4326 19.3478 27.5598 19.311 27.7007 19.2898C27.8416 19.2683 27.9758 19.2577 28.1037 19.2577C28.2716 19.2577 28.4132 19.2833 28.5279 19.3341C28.6428 19.385 28.735 19.4536 28.8049 19.5399C28.8746 19.6265 28.925 19.7287 28.9557 19.847C28.9865 19.9654 29.0018 20.092 29.0018 20.2269C29.0018 20.3595 28.9854 20.4844 28.9521 20.6015C28.9189 20.7188 28.8674 20.8209 28.7988 20.9086C28.7302 20.9962 28.6428 21.0655 28.5374 21.1164C28.4314 21.1672 28.3078 21.1927 28.1652 21.1927C28.0942 21.1927 28.0279 21.1897 27.9676 21.1837C27.9072 21.1778 27.8386 21.1666 27.7628 21.1501V21.8245ZM28.4623 20.2163C28.4623 20.1193 28.4528 20.0377 28.4337 19.9713C28.4149 19.905 28.3866 19.8518 28.3498 19.8115C28.3132 19.7713 28.2675 19.7429 28.2143 19.7265C28.1604 19.7098 28.1007 19.7016 28.0338 19.7016C28.0007 19.7016 27.9576 19.7051 27.9037 19.7122C27.8505 19.7194 27.8031 19.7287 27.7628 19.7406V20.7097C27.8249 20.7264 27.8799 20.737 27.9286 20.7417C27.9777 20.7465 28.0208 20.7489 28.0593 20.7489C28.1781 20.7489 28.2747 20.7086 28.3498 20.6281C28.4249 20.5476 28.4623 20.4104 28.4623 20.2163ZM29.9071 21.0897C29.9071 21.1205 29.9019 21.1399 29.8911 21.1482C29.8805 21.1566 29.8586 21.1607 29.8255 21.1607H29.4706C29.4184 21.1607 29.3925 21.1369 29.3925 21.0897V19.3642C29.3925 19.3192 29.4184 19.2969 29.4706 19.2969H29.8255C29.8586 19.2969 29.8805 19.301 29.8911 19.3092C29.9019 19.3175 29.9071 19.3359 29.9071 19.3642V19.9713H30.5711V19.3642C30.5711 19.3192 30.5971 19.2969 30.6499 19.2969H31.0072C31.0403 19.2969 31.0622 19.301 31.0717 19.3092C31.0812 19.3175 31.086 19.3359 31.086 19.3642V21.0897C31.086 21.1205 31.0812 21.1399 31.0717 21.1482C31.0622 21.1566 31.0403 21.1607 31.0072 21.1607H30.6499C30.5971 21.1607 30.5711 21.1369 30.5711 21.0897V20.3762H29.9071V21.0897ZM32.3533 19.2506C32.6304 19.2506 32.8379 19.3198 32.9764 19.4583C33.1149 19.5969 33.1842 19.7951 33.1842 20.0531C33.1842 20.176 33.1604 20.2602 33.1132 20.305C33.0658 20.35 33.0007 20.3725 32.9178 20.3725H32.009C32.0114 20.4483 32.0237 20.511 32.0462 20.5608C32.0687 20.6104 32.0988 20.6506 32.1367 20.6813C32.1746 20.7121 32.2189 20.7335 32.2698 20.7454C32.3209 20.7571 32.3758 20.7632 32.4349 20.7632C32.5035 20.7632 32.5734 20.7547 32.6444 20.7383C32.7154 20.7216 32.7816 20.7004 32.8433 20.6742C32.8717 20.6649 32.8911 20.6619 32.9017 20.6653C32.9126 20.669 32.9225 20.6803 32.932 20.6991L33.0457 20.9547C33.0552 20.9761 33.0569 20.9926 33.0511 21.0045C33.045 21.0164 33.0327 21.0281 33.0136 21.04C32.9262 21.0969 32.8243 21.1376 32.7083 21.1624C32.5925 21.1873 32.4847 21.1997 32.3854 21.1997C32.0752 21.1997 31.8456 21.1228 31.6965 20.969C31.5474 20.8151 31.4729 20.5714 31.4729 20.2377C31.4729 20.0814 31.4935 19.9423 31.535 19.8204C31.5764 19.6986 31.6357 19.5949 31.7125 19.5099C31.7893 19.4246 31.8818 19.3601 31.9895 19.3164C32.0971 19.2727 32.2185 19.2506 32.3533 19.2506ZM32.3639 19.6767C32.267 19.6767 32.1878 19.7109 32.1261 19.7797C32.0646 19.8483 32.0291 19.9358 32.0196 20.0423H32.6836C32.6836 19.9903 32.6782 19.9418 32.6676 19.8968C32.6568 19.8518 32.6397 19.8133 32.6161 19.7815C32.5925 19.7494 32.5605 19.7241 32.5202 19.7051C32.4799 19.6862 32.4278 19.6767 32.3639 19.6767ZM34.455 19.7157V21.0897C34.455 21.1205 34.4498 21.1399 34.4392 21.1482C34.4284 21.1566 34.4065 21.1607 34.3734 21.1607H34.0219C33.9674 21.1607 33.9404 21.1369 33.9404 21.0897V19.7157H33.4361C33.3889 19.7157 33.3651 19.6897 33.3651 19.6375V19.3785C33.3651 19.3454 33.3692 19.3235 33.3777 19.3127C33.3859 19.3021 33.4054 19.2969 33.4361 19.2969H34.9699C34.9982 19.2969 35.0173 19.3021 35.0268 19.3127C35.0361 19.3235 35.0409 19.3454 35.0409 19.3785V19.6375C35.0409 19.6897 35.0173 19.7157 34.9699 19.7157H34.455ZM37.384 21.0932C37.384 21.1194 37.3793 21.1369 37.3698 21.1464C37.3605 21.156 37.339 21.1607 37.3059 21.1607H36.919C36.8692 21.1607 36.8445 21.1382 36.8445 21.0932V19.1441H35.8858V21.0932C35.8858 21.1194 35.881 21.1369 35.8717 21.1464C35.8622 21.156 35.841 21.1607 35.8076 21.1607H35.4172C35.3674 21.1607 35.3428 21.1382 35.3428 21.0932V18.9134C35.3428 18.8305 35.3599 18.7695 35.3941 18.7305C35.4285 18.6916 35.4871 18.6719 35.5698 18.6719H37.1568C37.2421 18.6719 37.3012 18.6916 37.3343 18.7305C37.3676 18.7695 37.384 18.8305 37.384 18.9134V21.0932ZM39.461 20.9298C39.461 20.9607 39.4567 20.9867 39.4485 21.0081C39.4403 21.0294 39.4195 21.0495 39.3864 21.0683C39.3321 21.0945 39.2741 21.1157 39.2113 21.1324C39.1485 21.1488 39.0847 21.1618 39.0202 21.1713C38.955 21.1808 38.8893 21.188 38.823 21.1927C38.7575 21.1973 38.6947 21.1997 38.6354 21.1997C38.4752 21.1997 38.3419 21.1843 38.2367 21.1536C38.132 21.1228 38.0474 21.0809 37.9835 21.0276C37.9201 20.9744 37.8751 20.9116 37.8491 20.8393C37.8232 20.7673 37.8102 20.6896 37.8102 20.6069C37.8102 20.5145 37.8255 20.4299 37.8563 20.353C37.887 20.276 37.9331 20.2093 37.9948 20.1524C38.0562 20.0955 38.1337 20.0511 38.2272 20.0193C38.3207 19.9873 38.4313 19.9713 38.5592 19.9713H38.9496V19.9146C38.9496 19.8815 38.9462 19.8494 38.939 19.8187C38.9319 19.788 38.9172 19.7613 38.8947 19.7388C38.8722 19.7163 38.8408 19.6979 38.8005 19.6839C38.7605 19.6696 38.707 19.6624 38.6408 19.6624C38.6053 19.6624 38.5651 19.6642 38.52 19.6678C38.4752 19.6713 38.4302 19.6761 38.3852 19.6819C38.3402 19.688 38.2965 19.6949 38.2538 19.7033C38.2112 19.7116 38.1733 19.7204 38.1402 19.73C38.1095 19.7371 38.0881 19.7371 38.0764 19.73C38.0645 19.7228 38.0562 19.7075 38.0515 19.6839L37.9948 19.4352C37.9876 19.4092 37.987 19.3908 37.9928 19.3802C37.9989 19.3696 38.0112 19.3607 38.0303 19.3536C38.1368 19.3157 38.2486 19.2885 38.3657 19.272C38.4828 19.2553 38.5995 19.2471 38.7155 19.2471C38.9728 19.2471 39.1615 19.3021 39.281 19.4123C39.4011 19.5222 39.461 19.6849 39.461 19.9003V20.9298ZM38.9462 20.3158H38.6657C38.6326 20.3158 38.5971 20.3182 38.5592 20.3227C38.5213 20.3275 38.4865 20.3388 38.4545 20.3565C38.4224 20.3742 38.3958 20.3998 38.3746 20.4329C38.3532 20.466 38.3426 20.511 38.3426 20.5677C38.3426 20.6506 38.3705 20.7086 38.4261 20.7417C38.4817 20.7748 38.5568 20.7915 38.6514 20.7915C38.6657 20.7915 38.6845 20.7909 38.7083 20.7898C38.7319 20.7885 38.7575 20.7861 38.7847 20.7826C38.8118 20.779 38.8397 20.7742 38.868 20.7683C38.8964 20.7625 38.9226 20.7547 38.9462 20.7454V20.3158ZM40.4408 21.8245C40.4408 21.8507 40.4367 21.8671 40.4284 21.8743C40.42 21.8814 40.3994 21.8849 40.3668 21.8849H39.9999C39.974 21.8849 39.9556 21.8814 39.9439 21.8743C39.932 21.8671 39.9261 21.8507 39.9261 21.8245V19.5099C39.9261 19.4839 39.9302 19.4631 39.9385 19.4477C39.9467 19.4324 39.9662 19.4164 39.9971 19.3997C40.1105 19.3478 40.2378 19.311 40.3787 19.2898C40.5196 19.2683 40.6537 19.2577 40.7816 19.2577C40.9496 19.2577 41.0911 19.2833 41.2058 19.3341C41.3207 19.385 41.4129 19.4536 41.4828 19.5399C41.5525 19.6265 41.603 19.7287 41.6337 19.847C41.6644 19.9654 41.6798 20.092 41.6798 20.2269C41.6798 20.3595 41.6633 20.4844 41.6302 20.6015C41.5971 20.7188 41.5456 20.8209 41.477 20.9086C41.4082 20.9962 41.3207 21.0655 41.2154 21.1164C41.1095 21.1672 40.9857 21.1927 40.8431 21.1927C40.7721 21.1927 40.7059 21.1897 40.6455 21.1837C40.5851 21.1778 40.5165 21.1666 40.4408 21.1501V21.8245ZM41.1403 20.2163C41.1403 20.1193 41.1307 20.0377 41.1119 19.9713C41.0929 19.905 41.0645 19.8518 41.0277 19.8115C40.9911 19.7713 40.9455 19.7429 40.8922 19.7265C40.8383 19.7098 40.7786 19.7016 40.7117 19.7016C40.6786 19.7016 40.6356 19.7051 40.5817 19.7122C40.5284 19.7194 40.481 19.7287 40.4408 19.7406V20.7097C40.5029 20.7264 40.5579 20.737 40.6066 20.7417C40.6557 20.7465 40.6988 20.7489 40.7373 20.7489C40.8563 20.7489 40.9526 20.7086 41.0277 20.6281C41.103 20.5476 41.1403 20.4104 41.1403 20.2163ZM43.7923 20.2199C43.7923 20.5322 43.7176 20.7738 43.5685 20.9441C43.4196 21.1146 43.1924 21.1997 42.887 21.1997C42.5792 21.1997 42.3544 21.1146 42.2124 20.9441C42.0704 20.7738 41.9994 20.5346 41.9994 20.2269C41.9994 20.0756 42.02 19.9388 42.0616 19.817C42.1029 19.6949 42.1622 19.5927 42.239 19.5099C42.3159 19.427 42.4093 19.3631 42.5195 19.3181C42.6297 19.2731 42.7543 19.2506 42.8941 19.2506C43.1924 19.2506 43.4166 19.3365 43.5668 19.5081C43.7172 19.6795 43.7923 19.9169 43.7923 20.2199ZM43.2562 20.2305C43.2562 20.15 43.2504 20.0767 43.2385 20.0104C43.2266 19.9442 43.2064 19.8873 43.1781 19.8399C43.1497 19.7927 43.1129 19.7553 43.0679 19.7282C43.0231 19.701 42.9675 19.6873 42.9011 19.6873C42.7757 19.6873 42.6829 19.7354 42.6225 19.831C42.5621 19.9269 42.5318 20.0565 42.5318 20.2199C42.5318 20.3974 42.5598 20.5322 42.6154 20.6246C42.671 20.7168 42.7628 20.7632 42.8905 20.7632C42.9567 20.7632 43.0129 20.7495 43.059 20.7222C43.1054 20.695 43.1432 20.6571 43.1727 20.6086C43.2023 20.5601 43.2237 20.5039 43.2367 20.44C43.2497 20.3762 43.2562 20.3063 43.2562 20.2305ZM45.6243 19.2969C45.707 19.2969 45.7632 19.314 45.7929 19.3482C45.8225 19.3826 45.8372 19.4376 45.8372 19.5133V21.0932C45.8372 21.1215 45.8318 21.1399 45.8212 21.1482C45.8106 21.1566 45.7888 21.1607 45.7557 21.1607H45.397C45.3639 21.1607 45.3419 21.1553 45.3312 21.1447C45.3206 21.1341 45.3152 21.1157 45.3152 21.0897V19.7157H44.8787L44.8679 19.9003C44.8562 20.1063 44.8408 20.2838 44.8218 20.4329C44.803 20.582 44.7709 20.7093 44.7259 20.8147C44.6811 20.9198 44.6171 21.0058 44.5344 21.072C44.4515 21.1382 44.3413 21.1927 44.2041 21.2352C44.171 21.2471 44.1472 21.2488 44.1331 21.2406C44.1189 21.2324 44.107 21.2163 44.0976 21.1927L44.0018 20.9512C43.9899 20.9205 43.9858 20.8986 43.9892 20.8854C43.9929 20.8724 44.01 20.8577 44.0407 20.8413C44.1046 20.8127 44.1561 20.7809 44.1953 20.7454C44.2342 20.7097 44.2662 20.6588 44.2911 20.5926C44.316 20.5264 44.3355 20.4383 44.3496 20.3281C44.3638 20.2182 44.3768 20.0732 44.3887 19.8931L44.4136 19.5062C44.4184 19.4283 44.4366 19.3737 44.4686 19.343C44.5006 19.3123 44.5556 19.2969 44.6337 19.2969H45.6243ZM46.5224 21.1607C46.4302 21.1607 46.3699 21.1423 46.3413 21.1057C46.3129 21.069 46.2989 21.0187 46.2989 20.9547V19.3642C46.2989 19.3192 46.3248 19.2969 46.3768 19.2969H46.7319C46.765 19.2969 46.7869 19.301 46.7975 19.3092C46.8083 19.3175 46.8135 19.3359 46.8135 19.3642V19.8791H47.2537C47.4266 19.8791 47.5632 19.9033 47.6638 19.9518C47.7645 20.0003 47.8407 20.0589 47.8928 20.1275C47.945 20.1961 47.9774 20.2667 47.9904 20.3388C48.0034 20.411 48.0099 20.4708 48.0099 20.5182C48.0099 20.6104 47.9921 20.6956 47.9567 20.7738C47.9212 20.8519 47.872 20.9192 47.8095 20.9761C47.7467 21.0328 47.6727 21.0778 47.5874 21.1109C47.5024 21.1441 47.41 21.1607 47.3106 21.1607H46.5224ZM47.481 20.511C47.481 20.4448 47.4604 20.3885 47.4188 20.3424C47.3775 20.2961 47.3154 20.2732 47.2325 20.2732H46.8135V20.756H47.2288C47.2786 20.756 47.3199 20.7476 47.3533 20.7311C47.3864 20.7145 47.4124 20.6939 47.4312 20.669C47.4502 20.6441 47.4632 20.6175 47.4704 20.5892C47.4775 20.5608 47.481 20.5346 47.481 20.511Z" fill="#024978"/>
<defs>
<filter id="filter0_d_1139_12" x="0" y="0" width="56" height="39" filterUnits="userSpaceOnUse" color-interpolation-filters="sRGB">
<feFlood flood-opacity="0" result="BackgroundImageFix"/>
<feColorMatrix in="SourceAlpha" type="matrix" values="0 0 0 0 0 0 0 0 0 0 0 0 0 0 0 0 0 0 127 0" result="hardAlpha"/>
<feOffset dy="2"/>
<feGaussianBlur stdDeviation="2"/>
<feComposite in2="hardAlpha" operator="out"/>
<feColorMatrix type="matrix" values="0 0 0 0 0 0 0 0 0 0 0 0 0 0 0 0 0 0 0.1 0"/>
<feBlend mode="normal" in2="BackgroundImageFix" result="effect1_dropShadow_1139_12"/>
<feBlend mode="normal" in="SourceGraphic" in2="effect1_dropShadow_1139_12" result="shape"/>
</filter>
</defs>
</svg>
