<svg width="56" height="39" viewBox="0 0 56 39" fill="none" xmlns="http://www.w3.org/2000/svg">
<g filter="url(#filter0_d_1139_7)">
<rect x="4" y="2" width="48" height="31" rx="3" fill="white"/>
</g>
<path d="M19.2733 27.5696C19.2147 27.5483 19.1893 27.5235 19.1678 27.4667C19.1518 27.4244 19.1502 27.2657 19.153 26.0162L19.1562 24.6132L19.1848 24.5632C19.2024 24.5324 19.2334 24.5015 19.2653 24.4827L19.3172 24.4522L20.2685 24.4491C21.2102 24.446 21.2202 24.4462 21.2432 24.4692C21.2651 24.4911 21.2664 24.5068 21.2664 24.7498C21.2664 24.9751 21.2641 25.0091 21.2474 25.0229C21.2319 25.0358 21.0998 25.0398 20.5373 25.0444L19.8462 25.0502V25.3147V25.5792L20.3004 25.5864C20.7778 25.5939 20.8291 25.5989 21.0016 25.6553C21.2441 25.7345 21.4432 25.9072 21.5373 26.12C21.5993 26.2602 21.6163 26.3575 21.6167 26.5739C21.6171 26.8033 21.6055 26.8629 21.5306 27.0167C21.4325 27.2183 21.2897 27.3596 21.0767 27.4658C20.842 27.5827 20.8754 27.579 20.0417 27.5825C19.4471 27.585 19.3093 27.5827 19.2733 27.5696ZM20.6405 26.9524C20.7051 26.9324 20.7297 26.917 20.7844 26.8624C20.839 26.8077 20.8544 26.7831 20.8744 26.7185C20.9277 26.5457 20.8969 26.3869 20.789 26.279C20.7401 26.2301 20.7145 26.2146 20.6499 26.195C20.5757 26.1725 20.5478 26.1712 20.2084 26.1741L19.8462 26.1772L19.8431 26.5624C19.8415 26.7742 19.8426 26.954 19.8457 26.962C19.85 26.9732 19.9319 26.9764 20.2069 26.9764C20.5353 26.9764 20.5685 26.9746 20.6405 26.9524ZM22.3819 27.5685C22.146 27.5203 21.9788 27.4005 21.8876 27.2141C21.7873 27.0091 21.7809 26.927 21.7872 25.9213C21.7925 25.0748 21.7924 25.0766 21.8534 24.9136C21.8866 24.8249 21.9798 24.6878 22.0461 24.6305C22.0758 24.6047 22.1416 24.5631 22.1922 24.5381C22.3703 24.4501 22.3326 24.4535 23.1835 24.4492C23.9378 24.4454 23.9451 24.4456 23.9684 24.4689C23.9907 24.4912 23.9919 24.5059 23.9919 24.7454C23.9919 24.9831 23.9905 24.9998 23.9689 25.0214C23.9465 25.0438 23.9306 25.0444 23.35 25.0444C22.9706 25.0444 22.7294 25.049 22.6859 25.0569C22.5977 25.0731 22.5483 25.1042 22.517 25.1635C22.4942 25.2065 22.4913 25.2319 22.4875 25.4226C22.4841 25.5909 22.4863 25.6359 22.4987 25.6438C22.5072 25.6492 22.804 25.6537 23.1582 25.6539C23.5124 25.6541 23.8083 25.6582 23.8158 25.663C23.8457 25.6819 23.8539 25.7426 23.8539 25.9428C23.8539 26.1665 23.845 26.2079 23.794 26.2216C23.7795 26.2255 23.4792 26.2287 23.1266 26.2288L22.4854 26.2289L22.4857 26.5021C22.4859 26.6523 22.4907 26.7955 22.4964 26.8203C22.5112 26.8841 22.5413 26.9203 22.6068 26.9534L22.6637 26.9822L23.3305 26.9858C23.9216 26.9889 23.9997 26.9914 24.0177 27.0077C24.0359 27.0241 24.0379 27.0521 24.0379 27.283C24.0379 27.5246 24.0366 27.5413 24.0149 27.5629C23.9924 27.5855 23.9773 27.5859 23.2243 27.5849C22.6348 27.584 22.4393 27.5802 22.3819 27.5685H22.3819ZM24.1461 27.5618C24.1266 27.5402 24.1238 27.5148 24.1203 27.3295C24.1162 27.1048 24.1223 27.0317 24.1473 27.0067C24.1561 26.9979 24.1932 26.987 24.2299 26.9824C24.3507 26.9673 24.4198 26.9129 24.4869 26.78C24.5849 26.586 24.6226 26.2885 24.6875 25.1997C24.7034 24.934 24.7195 24.696 24.7235 24.6707C24.7411 24.5581 24.8001 24.4819 24.8881 24.4582C24.919 24.4498 25.2233 24.4469 25.8342 24.449L26.7347 24.4522L26.7866 24.4827C26.8185 24.5015 26.8494 24.5324 26.8671 24.5632L26.8957 24.6132L26.8988 26.0794L26.902 27.5457L26.8774 27.5658C26.8555 27.5838 26.8218 27.5859 26.5574 27.5859C26.3203 27.5859 26.2574 27.5827 26.2395 27.5696C26.2177 27.5537 26.217 27.524 26.2114 26.3075L26.2057 25.0617L25.7838 25.0587L25.3619 25.0557L25.3558 25.1047C25.3525 25.1316 25.3467 25.2132 25.343 25.2859C25.3296 25.5522 25.2788 26.1656 25.2562 26.3358C25.1987 26.7686 25.1216 27.0157 24.9753 27.2354C24.8104 27.4833 24.6102 27.5859 24.2917 27.5859C24.1806 27.5859 24.1658 27.5835 24.1461 27.5618ZM27.3103 27.5604C27.2943 27.5376 27.2924 27.3734 27.2926 26.028C27.2927 24.8366 27.2958 24.5152 27.3073 24.4924L27.3218 24.4637L27.6435 24.4606C27.9357 24.4578 27.9665 24.4594 27.9796 24.4772C27.9906 24.4923 27.9939 24.6309 27.9939 25.0763V25.6559L28.2498 25.652C28.5036 25.6482 28.5063 25.6479 28.5772 25.6151C28.6648 25.5747 28.7545 25.4837 28.7933 25.396C28.8085 25.3616 28.8655 25.1662 28.9198 24.9618C28.9742 24.7574 29.0266 24.5656 29.0362 24.5356C29.0649 24.4464 29.0646 24.4464 29.3813 24.4464C29.5343 24.4464 29.6679 24.4496 29.6781 24.4535C29.7266 24.4722 29.724 24.4892 29.5978 24.9784C29.5173 25.2908 29.4623 25.4811 29.4366 25.5369C29.3695 25.682 29.2952 25.7734 29.1559 25.8821L29.1275 25.9042L29.2241 25.9528C29.3824 26.0324 29.4824 26.1512 29.5387 26.3267C29.5719 26.4303 29.8569 27.505 29.8569 27.5267C29.8569 27.5383 29.8475 27.5564 29.8359 27.5669C29.8175 27.5836 29.778 27.5859 29.5159 27.5859C29.2205 27.5859 29.2167 27.5856 29.1926 27.56C29.1752 27.5415 29.1265 27.3866 29.0235 27.0224C28.9439 26.7409 28.8636 26.4796 28.8451 26.4417C28.7962 26.3416 28.7502 26.2921 28.6691 26.2528C28.572 26.2056 28.4875 26.1946 28.2211 26.1945L27.9939 26.1944V26.8646C27.9939 27.4526 27.9917 27.538 27.976 27.5604C27.9583 27.5857 27.9556 27.5859 27.6432 27.5859C27.3308 27.5859 27.3281 27.5857 27.3103 27.5604ZM29.9555 27.5679C29.9456 27.5579 29.9374 27.539 29.9374 27.5257C29.9374 27.4946 30.8755 24.6627 30.906 24.6017C30.9365 24.5407 30.9685 24.5069 31.0242 24.4769C31.0677 24.4535 31.0854 24.4522 31.3519 24.4522C31.6294 24.4522 31.6344 24.4526 31.6826 24.4802C31.7095 24.4956 31.747 24.5318 31.7659 24.5607C31.8052 24.6205 32.7549 27.467 32.7549 27.5248C32.7549 27.5433 32.7487 27.5646 32.7411 27.5721C32.7311 27.5822 32.64 27.5859 32.4032 27.5859C32.1105 27.5859 32.0765 27.584 32.0539 27.5656C32.0352 27.5505 32.0061 27.4695 31.939 27.2465L31.8492 26.9477L31.3481 26.9447C30.8795 26.9419 30.8462 26.943 30.8363 26.9619C30.8305 26.9731 30.7913 27.096 30.7492 27.2352C30.6576 27.5379 30.6539 27.5477 30.6233 27.5692C30.5863 27.5951 29.9815 27.5939 29.9555 27.5679ZM31.6739 26.355C31.6739 26.3484 31.6377 26.2225 31.5934 26.0753C31.5491 25.928 31.4776 25.6707 31.4344 25.5036C31.3912 25.3364 31.3511 25.2007 31.3454 25.2018C31.3396 25.203 31.2956 25.3505 31.2476 25.5296C31.1995 25.7087 31.1283 25.9614 31.0893 26.0912C31.0503 26.2211 31.0184 26.3362 31.0184 26.3471C31.0184 26.3654 31.0435 26.3669 31.3462 26.3669C31.5653 26.3669 31.6739 26.363 31.6739 26.355ZM32.9513 27.5556C32.9274 27.5254 32.9274 27.5246 32.9274 26.0945C32.9274 25.0481 32.931 24.6494 32.9408 24.6107C32.9585 24.5403 33.0213 24.4775 33.0917 24.4598C33.1286 24.4505 33.3369 24.4464 33.7815 24.4464C34.4897 24.4464 34.549 24.451 34.735 24.5204C34.8823 24.5753 34.9563 24.6238 35.0785 24.7454C35.1723 24.8388 35.1961 24.8706 35.2421 24.9639C35.331 25.1446 35.3669 25.3529 35.3432 25.551C35.2854 26.033 35.0116 26.3278 34.5256 26.4314C34.46 26.4454 34.3436 26.4511 34.0343 26.4556L33.6289 26.4613V26.9826C33.6289 27.4961 33.6251 27.5551 33.5908 27.5769C33.5833 27.5817 33.4417 27.5857 33.2761 27.5858L32.9751 27.5859L32.9513 27.5556V27.5556ZM34.2595 25.8842C34.4893 25.8578 34.6127 25.7321 34.6266 25.5105C34.6348 25.3785 34.604 25.2768 34.5312 25.1958C34.4548 25.1109 34.3821 25.0792 34.2364 25.0675C34.1055 25.0569 33.6809 25.0538 33.6491 25.0631C33.6304 25.0686 33.6289 25.0983 33.6289 25.4755C33.6289 25.79 33.6322 25.8833 33.6433 25.8878C33.6694 25.8983 34.1617 25.8955 34.2595 25.8842ZM36.2812 27.5713C36.2702 27.5632 36.2564 27.536 36.2506 27.5109C36.2445 27.4846 36.2399 26.9509 36.2397 26.2548L36.2394 25.0444H35.8376H35.4357L35.4034 25.0167L35.3712 24.9889V24.7419C35.3712 24.5151 35.373 24.4929 35.3931 24.4706L35.415 24.4464H36.6084H37.8018L37.8256 24.4767C37.8479 24.5051 37.8494 24.5218 37.8494 24.735C37.8494 24.9774 37.8436 25.0099 37.7959 25.0317C37.777 25.0403 37.6345 25.0444 37.3603 25.0444H36.9527L36.9497 26.2989C36.9467 27.5255 36.9462 27.5537 36.9244 27.5696C36.8934 27.5922 36.312 27.5937 36.2812 27.5713ZM27.14 23.5217C27.1101 23.5109 27.0166 23.4284 26.8353 23.2527C26.3533 22.7857 24.6964 21.1176 24.6775 21.0804C24.6673 21.0601 24.6589 21.0185 24.6589 20.9878C24.6589 20.9289 24.685 20.8789 24.7643 20.7862C24.8004 20.744 24.8011 20.7412 24.7878 20.6916C24.7607 20.5901 24.7033 20.4884 24.6371 20.4245C24.5214 20.313 24.6851 20.3246 23.1122 20.3169C21.6431 20.3097 21.6833 20.3113 21.6247 20.2568C21.5549 20.1918 21.56 20.324 21.5566 18.48C21.5545 17.3358 21.5573 16.783 21.5655 16.7527C21.5797 16.7001 21.6239 16.644 21.67 16.6201C21.688 16.6108 21.7472 16.5987 21.8014 16.5932C21.8556 16.5877 21.9014 16.5813 21.9032 16.5789C21.9487 16.5177 22.0089 16.361 22.0186 16.2784C22.0264 16.2121 22.0021 16.1112 21.9661 16.0597C21.9518 16.0394 21.5136 15.5934 20.9924 15.0687C20.4711 14.544 20.0317 14.0952 20.0159 14.0714C19.9804 14.0176 19.9766 13.9362 20.0069 13.8779C20.0324 13.829 22.3712 11.4857 22.4279 11.4523C22.472 11.4263 22.5453 11.4212 22.5963 11.4405C22.6138 11.4472 22.6542 11.4748 22.6862 11.5019C22.7988 11.5976 22.7918 11.5959 22.8988 11.5526C22.9503 11.5318 23.0168 11.4965 23.0466 11.4743C23.1152 11.423 23.1956 11.3026 23.2033 11.2397C23.2065 11.2139 23.2112 10.5869 23.2138 9.84648C23.2183 8.52969 23.2189 8.49913 23.2415 8.44817C23.2542 8.41952 23.282 8.38361 23.3034 8.36838C23.3409 8.34164 23.3518 8.34038 23.6239 8.33169C23.7789 8.32674 24.5526 8.32416 25.3432 8.32594C26.6754 8.32895 26.7833 8.33064 26.8167 8.3489C26.8923 8.3903 26.9356 8.47076 26.936 8.57069C26.9361 8.59599 26.9394 8.6364 26.9434 8.66048C26.9503 8.70202 26.9555 8.70658 27.0445 8.74928C27.1744 8.81156 27.2377 8.8247 27.3322 8.80903C27.3882 8.79975 27.4206 8.78663 27.4566 8.75862C27.4833 8.73779 27.9341 8.29443 28.4583 7.77336C29.1388 7.09694 29.425 6.81982 29.4588 6.80446C29.5168 6.77813 29.557 6.777 29.6129 6.80013C29.6663 6.82219 32.0205 9.16963 32.0542 9.23436C32.0815 9.28667 32.0828 9.35878 32.0574 9.40789C32.047 9.42813 32.0107 9.47733 31.9769 9.51722C31.9431 9.55711 31.9154 9.5971 31.9154 9.60608C31.9154 9.63534 31.969 9.76542 32.003 9.81885C32.0409 9.87845 32.1097 9.94333 32.1684 9.975C32.2071 9.99583 32.2649 9.99692 33.6174 10.0024C34.9197 10.0078 35.0289 10.0097 35.0622 10.0279C35.1129 10.0556 35.156 10.1107 35.1664 10.1609C35.1713 10.1844 35.1753 10.9592 35.1755 11.8827L35.1757 13.5617L35.1502 13.6094C35.1115 13.6818 35.0611 13.7069 34.9302 13.7191C34.8691 13.7248 34.8133 13.7314 34.8061 13.7338C34.7886 13.7397 34.7272 13.8545 34.7036 13.9256C34.6745 14.0133 34.6786 14.1549 34.7119 14.2091C34.7262 14.2325 35.1797 14.6958 35.7196 15.2386C36.7118 16.2361 36.7449 16.272 36.7449 16.3504C36.7449 16.4323 36.7232 16.4555 35.5121 17.6677C34.6766 18.504 34.312 18.8616 34.2819 18.8741C34.1942 18.9107 34.132 18.893 34.0257 18.8015C33.9877 18.7688 33.9442 18.7388 33.929 18.7348C33.8482 18.7136 33.6166 18.8426 33.5542 18.9435L33.5197 18.9994L33.5125 20.4041C33.5085 21.1766 33.5015 21.8213 33.4968 21.8367C33.4837 21.8798 33.4362 21.9373 33.3955 21.9596C33.3609 21.9785 33.255 21.9797 31.6443 21.9797H29.93L29.8838 21.9491C29.8278 21.9121 29.7994 21.8563 29.7922 21.769C29.7799 21.6215 29.7871 21.6325 29.6654 21.5749C29.4937 21.4936 29.374 21.487 29.2816 21.5539C29.2597 21.5698 28.9648 21.8586 28.6264 22.1958C27.6749 23.1441 27.3242 23.487 27.2867 23.5061C27.2326 23.5337 27.1868 23.5385 27.14 23.5217H27.14ZM27.0167 19.3791C27.0541 19.0954 27.0977 18.7726 27.1135 18.6619L27.1422 18.4607L27.2835 18.3243C27.4575 18.1562 27.5568 18.0748 27.6317 18.0388C27.6633 18.0235 27.7273 17.988 27.7739 17.9599C27.9244 17.8689 28.0206 17.8206 28.1204 17.7857C28.2025 17.7571 28.2357 17.7516 28.3274 17.7517C28.5395 17.752 28.6269 17.7857 28.9423 17.9893C28.9991 18.0259 29.1129 18.0885 29.1953 18.1283L29.3452 18.2008L29.5637 18.4065C29.6839 18.5196 29.9881 18.8155 30.2397 19.0641C30.4913 19.3127 30.6997 19.5135 30.7028 19.5104C30.7089 19.5043 30.6824 19.4691 30.293 18.9667C30.1509 18.7833 29.986 18.5696 29.9267 18.492L29.8188 18.3508L29.8265 18.0578C29.834 17.7736 29.8354 17.7604 29.8738 17.6125C29.9557 17.2969 30.0091 17.186 30.1438 17.0514C30.2884 16.9068 30.4379 16.8336 30.6802 16.7884C30.838 16.759 30.9884 16.7176 31.1073 16.671C31.188 16.6393 31.1997 16.6381 31.5098 16.6268C31.6855 16.6204 32.0905 16.6146 32.4099 16.6137C32.7293 16.6129 33.0062 16.6087 33.0252 16.6043C33.0584 16.5967 33.0578 16.5961 33.0079 16.5883C32.9795 16.5838 32.8139 16.5646 32.6399 16.5456C32.1727 16.4946 31.7283 16.4423 31.7065 16.4358C31.677 16.4269 31.2603 15.9786 31.2069 15.8983C31.0761 15.7013 30.9909 15.5398 30.9576 15.4252C30.9277 15.3225 30.9264 15.1474 30.9545 15.0394C30.9788 14.9463 31.0764 14.7609 31.1846 14.6024C31.2299 14.536 31.296 14.4222 31.3315 14.3494C31.394 14.2216 31.4028 14.2101 31.5964 14.0044C31.7066 13.8874 32.002 13.5838 32.2528 13.3297C32.5037 13.0757 32.7089 12.8648 32.7089 12.8611C32.7089 12.8475 32.6952 12.8572 32.5342 12.9845C32.4437 13.0561 32.2049 13.245 32.0034 13.4043L31.6372 13.6939L31.5549 13.6937C31.5097 13.6936 31.3398 13.6885 31.1774 13.6824C30.8959 13.6718 30.8746 13.6693 30.7189 13.6302C30.4204 13.5551 30.2455 13.4567 30.1281 13.2979C30.0554 13.1996 30.0471 13.1848 30.0103 13.0861C29.9686 12.9745 29.9642 12.9585 29.9191 12.7572C29.8965 12.6562 29.868 12.5476 29.8556 12.5157C29.8254 12.4372 29.8145 12.1608 29.8039 11.1984C29.7994 10.7842 29.7916 10.4607 29.7866 10.4797C29.7817 10.4987 29.7514 10.7497 29.7194 11.0374C29.6873 11.3252 29.6539 11.6202 29.645 11.6929L29.6289 11.8252L29.4813 11.9675C29.2278 12.2119 29.1216 12.3018 29.0354 12.3452C28.9907 12.3676 28.9257 12.4043 28.8909 12.4267C28.6341 12.5919 28.4105 12.6417 28.1837 12.5843C28.1113 12.5659 27.9111 12.4689 27.8474 12.4213C27.8268 12.4059 27.7415 12.3525 27.6576 12.3026C27.5738 12.2527 27.4813 12.1931 27.4522 12.1703C27.3914 12.1227 26.9413 11.6902 26.4066 11.1654C26.2044 10.967 26.0389 10.8094 26.0389 10.8152C26.0389 10.821 26.1203 10.929 26.2197 11.0552C26.3191 11.1814 26.5131 11.4293 26.6509 11.606L26.9014 11.9272L26.9012 12.1062C26.9007 12.4182 26.8876 12.5249 26.8213 12.757C26.7257 13.0917 26.6851 13.1778 26.5575 13.3171C26.4321 13.4538 26.2608 13.5327 25.9496 13.597C25.8398 13.6197 25.7323 13.6456 25.7108 13.6546C25.6634 13.6744 25.2267 13.6935 24.8142 13.6938C24.3346 13.6941 23.6845 13.7092 23.7274 13.7189C23.7496 13.724 23.9773 13.749 24.2334 13.7746C24.4896 13.8002 24.7665 13.829 24.8487 13.8385L24.9982 13.8558L25.0484 13.9043C25.0761 13.9309 25.1702 14.0298 25.2577 14.124C25.382 14.2579 25.4255 14.3135 25.4575 14.3791C25.48 14.4253 25.4984 14.4657 25.4984 14.4691C25.4984 14.4724 25.5285 14.5258 25.5654 14.5877C25.7341 14.8715 25.761 14.9411 25.7708 15.1199C25.7758 15.2116 25.7729 15.2587 25.7585 15.3154C25.7327 15.4175 25.6429 15.5979 25.5522 15.7294C25.5108 15.7895 25.4494 15.8896 25.4158 15.9518C25.3275 16.1152 25.1874 16.2679 24.3692 17.0926C24.1807 17.2826 24.0264 17.4421 24.0264 17.447C24.0264 17.4607 24.0532 17.4399 24.5783 17.0185L25.0669 16.6264L25.1993 16.6269C25.4587 16.6277 25.6948 16.6465 25.7687 16.6723C25.8066 16.6856 25.8972 16.7121 25.9699 16.7313C26.3721 16.8373 26.5223 16.9393 26.6624 17.2014C26.7157 17.3012 26.7324 17.3559 26.7798 17.5867C26.8019 17.6942 26.8382 17.8361 26.8605 17.9019L26.9011 18.0216L26.9126 18.3389C26.919 18.5134 26.9243 18.9175 26.9244 19.2369C26.9247 19.7594 26.9292 19.9145 26.9438 19.8999C26.9465 19.8972 26.9793 19.6629 27.0167 19.3791Z" fill="#6CC5EE"/>
<path d="M19.3227 27.5623C19.2566 27.5488 19.2193 27.5212 19.1905 27.4645C19.1679 27.42 19.1675 27.3965 19.1675 26.0392C19.1675 24.9325 19.1705 24.6509 19.1825 24.6168C19.2042 24.5557 19.2395 24.5156 19.2931 24.4913C19.3375 24.4711 19.39 24.47 20.2862 24.4698C21.1767 24.4695 21.2329 24.4707 21.2407 24.4896C21.2453 24.5007 21.249 24.6158 21.249 24.7455C21.249 24.8752 21.2453 24.9903 21.2407 25.0014C21.233 25.0202 21.1885 25.0215 20.5361 25.0215H19.8397L19.8284 25.051C19.8167 25.082 19.8129 25.5273 19.824 25.5689C19.8304 25.5928 19.8362 25.5932 20.2523 25.6001C20.4842 25.6039 20.7102 25.6125 20.7545 25.6192C21.0336 25.6613 21.2535 25.7679 21.395 25.9297C21.6193 26.1862 21.6734 26.6944 21.5106 27.0167C21.4012 27.2334 21.2016 27.4091 20.9681 27.4944C20.771 27.5663 20.7706 27.5663 20.0415 27.5697C19.6687 27.5714 19.3517 27.5681 19.3227 27.5623ZM20.6807 26.9578C20.7767 26.9124 20.8341 26.855 20.8796 26.759C20.9128 26.6888 20.9154 26.6744 20.915 26.5625C20.9146 26.4572 20.9107 26.4337 20.8848 26.3785C20.847 26.2983 20.7737 26.2276 20.6855 26.1865L20.6165 26.1542L20.2317 26.1505C19.8748 26.1471 19.8458 26.1483 19.8321 26.1671C19.8127 26.1936 19.8104 26.9423 19.8296 26.9781C19.8416 27.0006 19.8514 27.001 20.2234 26.9974L20.605 26.9937L20.6807 26.9578ZM22.4837 27.5621C22.1467 27.5264 21.9222 27.3497 21.847 27.061C21.8089 26.9146 21.8055 26.8145 21.8094 25.9587C21.8133 25.1156 21.8135 25.1069 21.8392 25.0174C21.878 24.8823 21.9349 24.7794 22.0213 24.6878C22.0831 24.6223 22.1177 24.597 22.2023 24.5557C22.378 24.47 22.3838 24.4695 23.2136 24.4695C23.8187 24.4695 23.9452 24.4722 23.9561 24.4853C23.9652 24.4964 23.9683 24.5768 23.9661 24.7524L23.963 25.0036L23.9342 25.0181C23.9121 25.0293 23.7627 25.0327 23.2891 25.0328C22.6375 25.033 22.6288 25.0337 22.5557 25.088C22.4857 25.14 22.4698 25.1968 22.4644 25.4151C22.4617 25.5209 22.4629 25.6205 22.4669 25.6365L22.4742 25.6655H23.1294C23.7694 25.6655 23.7853 25.666 23.8077 25.6885C23.8292 25.71 23.8307 25.7268 23.8307 25.9397C23.8307 26.1462 23.8287 26.1697 23.8097 26.187C23.7907 26.2042 23.7273 26.206 23.1384 26.206C22.5824 26.206 22.486 26.2084 22.4741 26.2228C22.4638 26.2352 22.4612 26.3148 22.4641 26.5307C22.4679 26.8167 22.4685 26.823 22.4974 26.8791C22.5185 26.9202 22.5411 26.9443 22.5779 26.965L22.629 26.9937L23.3098 26.9995C23.8464 27.004 23.9938 27.0084 24.0055 27.0202C24.0166 27.0312 24.0214 27.0976 24.024 27.2759L24.0275 27.5168L23.9986 27.5456L23.9698 27.5745L23.2706 27.573C22.8861 27.5721 22.532 27.5673 22.4837 27.5621ZM24.1837 27.567C24.1479 27.5568 24.1412 27.5108 24.1412 27.2747C24.1412 27.0608 24.1428 27.044 24.1642 27.0225C24.1799 27.0068 24.2028 26.9994 24.2361 26.9992C24.3036 26.9989 24.3682 26.9665 24.4251 26.9045C24.5902 26.7248 24.6318 26.4702 24.7106 25.1583C24.7453 24.5794 24.7543 24.5389 24.858 24.4918C24.9038 24.471 24.9473 24.47 25.8087 24.47C26.6604 24.47 26.7141 24.4712 26.7575 24.4911C26.8122 24.5163 26.8358 24.541 26.8634 24.6022C26.8828 24.645 26.8842 24.7327 26.8872 26.0751C26.8892 27.008 26.8863 27.5129 26.8788 27.5327L26.8673 27.563H26.5637C26.2953 27.563 26.2582 27.5608 26.2443 27.544C26.2312 27.5282 26.2275 27.3123 26.2227 26.2819L26.217 25.0387H25.78H25.343L25.3344 25.1422C25.3297 25.1992 25.3126 25.432 25.2963 25.6597C25.2513 26.2909 25.2191 26.536 25.1467 26.8004C25.0806 27.0414 24.9723 27.2416 24.8355 27.3759C24.7099 27.4991 24.5617 27.5552 24.331 27.5666C24.2614 27.5701 24.1951 27.5702 24.1837 27.567V27.567ZM27.3333 27.5564C27.3171 27.5402 27.3152 27.3855 27.3154 26.0241C27.3155 25.0911 27.3198 24.5031 27.3265 24.4925C27.3356 24.4781 27.3851 24.4747 27.6308 24.4718C27.825 24.4696 27.932 24.4726 27.9474 24.4808C27.9701 24.4929 27.9706 24.5051 27.9735 25.0822L27.9765 25.6712L28.2352 25.6709C28.4779 25.6705 28.4981 25.6688 28.5605 25.644C28.703 25.5873 28.7874 25.4875 28.8439 25.309C28.8629 25.2489 28.9204 25.042 28.9717 24.8491C29.023 24.6563 29.0704 24.492 29.077 24.484C29.0861 24.473 29.1595 24.4695 29.3795 24.4695C29.6262 24.4695 29.6721 24.4721 29.6845 24.4871C29.6966 24.5017 29.6796 24.5808 29.5865 24.9442C29.5245 25.186 29.4595 25.4235 29.4421 25.472C29.388 25.6228 29.2695 25.781 29.1525 25.8584C29.1078 25.888 29.1006 25.914 29.1322 25.9311C29.1417 25.9362 29.1854 25.9575 29.2292 25.9783C29.3723 26.0464 29.4603 26.1565 29.5214 26.344C29.5612 26.4661 29.8337 27.4963 29.8337 27.5246C29.8337 27.5715 29.8039 27.5758 29.5061 27.5722C29.2701 27.5693 29.2221 27.5659 29.2071 27.5508C29.1973 27.541 29.1251 27.3081 29.0467 27.0333C28.9683 26.7586 28.8935 26.5066 28.8804 26.4735C28.8204 26.3212 28.7333 26.2396 28.586 26.1975C28.524 26.1798 28.0541 26.1625 28.0004 26.176L27.9707 26.1834V26.8671C27.9707 27.5312 27.9701 27.551 27.9485 27.5626C27.9349 27.5699 27.815 27.5745 27.6388 27.5745C27.3928 27.5745 27.3488 27.5719 27.3333 27.5564V27.5564ZM29.9804 27.5625C29.9691 27.5557 29.9603 27.5367 29.9603 27.5193C29.9605 27.4678 30.9081 24.6358 30.9451 24.5762C31.0031 24.4829 31.029 24.4758 31.3252 24.4718C31.4832 24.4696 31.5981 24.473 31.6266 24.4807C31.684 24.4962 31.7373 24.5401 31.7647 24.5946C31.8064 24.6777 32.7449 27.5166 32.7379 27.5386C32.7341 27.5507 32.7195 27.5636 32.7055 27.5674C32.6596 27.5796 32.1276 27.5752 32.0904 27.5622C32.071 27.5554 32.0516 27.5412 32.0473 27.5306C32.043 27.5199 32.0017 27.3855 31.9554 27.2319C31.9091 27.0782 31.865 26.945 31.8573 26.9358C31.8455 26.9215 31.7667 26.919 31.3392 26.919C30.869 26.919 30.8343 26.9204 30.8242 26.9393C30.8182 26.9505 30.7743 27.0859 30.7266 27.2403C30.6706 27.4217 30.6315 27.5294 30.616 27.5448C30.5932 27.5677 30.5786 27.5689 30.2963 27.5717C30.1044 27.5736 29.9934 27.5703 29.9804 27.5625ZM31.6847 26.3791C31.6987 26.3702 31.6873 26.3211 31.613 26.0716C31.5644 25.9083 31.4899 25.6409 31.4474 25.4774C31.3739 25.1943 31.3564 25.1502 31.3285 25.1782C31.3228 25.1838 31.2795 25.3333 31.232 25.5103C31.1846 25.6874 31.112 25.9448 31.0705 26.0823C30.9964 26.3284 30.9877 26.3671 31.0029 26.3823C31.0147 26.3942 31.6658 26.3911 31.6847 26.3791ZM32.9879 27.5631C32.9739 27.5572 32.9595 27.5406 32.956 27.5261C32.9524 27.5116 32.951 26.8477 32.9528 26.0507C32.9559 24.6251 32.9564 24.6011 32.979 24.5636C32.9916 24.5426 33.0201 24.5141 33.0422 24.5003C33.0823 24.4754 33.0864 24.4752 33.7632 24.472C34.4159 24.4689 34.4488 24.4698 34.5622 24.4929C34.9412 24.5701 35.2022 24.8086 35.2982 25.1652C35.3307 25.2859 35.334 25.5605 35.3044 25.6797C35.2067 26.0733 34.9666 26.3074 34.5625 26.4036C34.4739 26.4246 34.4167 26.4279 34.06 26.432C33.8386 26.4346 33.6458 26.4392 33.6316 26.4423L33.6057 26.4479V26.986C33.6057 27.4323 33.6029 27.5279 33.5894 27.5464C33.5741 27.5673 33.5555 27.5689 33.2933 27.5712C33.1394 27.5725 33.002 27.5689 32.9879 27.5631ZM34.3505 25.8906C34.4783 25.8566 34.5747 25.7722 34.6179 25.6565C34.6941 25.4529 34.6296 25.2165 34.4702 25.1151C34.367 25.0494 34.3244 25.0438 33.9501 25.0472L33.6115 25.0502L33.6085 25.4642C33.6068 25.6919 33.6079 25.8846 33.611 25.8926C33.6194 25.9144 34.2675 25.9127 34.3505 25.8906ZM36.3119 27.5632C36.298 27.5575 36.2812 27.5425 36.2745 27.5299C36.266 27.5141 36.2622 27.1236 36.2622 26.2712C36.2622 25.155 36.2605 25.0348 36.244 25.0285C36.234 25.0246 36.0454 25.0215 35.8249 25.0215H35.424L35.4061 24.9959C35.3914 24.9749 35.3882 24.9301 35.3882 24.7422C35.3882 24.6069 35.3931 24.5049 35.4001 24.4917C35.4118 24.47 35.4373 24.4695 36.6053 24.4695C37.5181 24.4695 37.8019 24.4727 37.8124 24.4833C37.8223 24.4932 37.8262 24.5665 37.8262 24.7403C37.8262 24.9612 37.8243 24.9852 37.8052 25.0025C37.7865 25.0194 37.7393 25.0215 37.3705 25.0215C37.0641 25.0215 36.9533 25.0251 36.943 25.0353C36.9325 25.0459 36.9292 25.3409 36.9292 26.2931C36.9292 27.4356 36.9277 27.5385 36.9102 27.553C36.8955 27.5652 36.8293 27.5693 36.6141 27.5712C36.4617 27.5725 36.3257 27.5689 36.3119 27.5632ZM27.1247 23.4932C27.0909 23.4779 26.8108 23.2013 26.1159 22.4972C25.5867 21.9611 25.1216 21.4835 25.0821 21.4358L25.0105 21.3492L25.0502 21.3572C25.0721 21.3616 25.1417 21.3707 25.205 21.3776C25.2682 21.3844 25.3292 21.3949 25.3405 21.4009C25.3518 21.4069 25.371 21.4086 25.3831 21.4048C25.3952 21.4009 25.4273 21.4042 25.4545 21.4119C25.4817 21.4197 25.5081 21.4251 25.513 21.4239C25.518 21.4227 25.5827 21.4326 25.6568 21.4459C25.7309 21.4591 25.8329 21.4749 25.8835 21.481C25.9341 21.487 26.0246 21.4995 26.0847 21.5088C26.1448 21.5181 26.2501 21.5335 26.3186 21.543C26.3871 21.5525 26.4526 21.5653 26.464 21.5714C26.4755 21.5775 26.5591 21.5908 26.6499 21.601C26.8122 21.6192 26.9826 21.6453 27.3177 21.7032C27.4108 21.7193 27.5065 21.7326 27.5304 21.7327C27.5544 21.7328 27.6283 21.7432 27.6947 21.7559C27.7611 21.7685 27.8336 21.7807 27.8557 21.783C27.9646 21.7941 28.0367 21.8056 28.0627 21.816C28.0785 21.8223 28.107 21.829 28.126 21.8309C28.4118 21.8599 28.4358 21.8631 28.632 21.8985C28.6889 21.9088 28.7529 21.921 28.7741 21.9256L28.8127 21.934L28.635 22.1236C28.5372 22.2279 28.199 22.5741 27.8834 22.8929C27.3178 23.4642 27.2621 23.5145 27.1945 23.5145C27.1818 23.5145 27.1504 23.5049 27.1247 23.4932ZM31.1877 21.9507C30.7464 21.9465 30.382 21.9396 30.3778 21.9354C30.3674 21.925 30.43 21.8611 30.4596 21.8517C30.4727 21.8476 30.5061 21.8243 30.5338 21.8C30.5614 21.7757 30.6106 21.7375 30.643 21.715C30.6755 21.6925 30.7353 21.651 30.7761 21.6228C30.8168 21.5945 30.853 21.5672 30.8566 21.5621C30.8601 21.5569 30.8879 21.535 30.9184 21.5132C30.9489 21.4915 31.0033 21.4518 31.0392 21.425C31.0751 21.3982 31.1215 21.3683 31.1424 21.3585C31.1632 21.3488 31.1832 21.3329 31.1869 21.3233C31.1929 21.3076 31.2266 21.2822 31.35 21.2003C31.3711 21.1863 31.4074 21.1588 31.4305 21.1392C31.4536 21.1197 31.5113 21.0768 31.5587 21.0441C31.6062 21.0113 31.6666 20.9678 31.6929 20.9474C31.7882 20.8737 31.8965 20.7948 31.9314 20.7737C31.951 20.7619 31.9889 20.7321 32.0156 20.7076C32.0423 20.6831 32.0693 20.663 32.0756 20.663C32.0818 20.663 32.1132 20.6397 32.1452 20.6112C32.1773 20.5828 32.2088 20.5595 32.2154 20.5595C32.2219 20.5595 32.255 20.5375 32.2889 20.5106C32.3228 20.4837 32.3793 20.4414 32.4146 20.4166C32.4499 20.3918 32.4787 20.3673 32.4787 20.3622C32.4787 20.3571 32.5007 20.3418 32.5276 20.3282C32.5545 20.3146 32.5984 20.2835 32.6251 20.259C32.6518 20.2345 32.6787 20.2145 32.6847 20.2145C32.6908 20.2145 32.7348 20.1834 32.7826 20.1455C32.8303 20.1075 32.8746 20.0765 32.881 20.0765C32.8875 20.0765 32.9138 20.056 32.9396 20.031C32.9654 20.006 32.9977 19.9819 33.0114 19.9776C33.0339 19.9705 33.0579 19.9517 33.1242 19.8896C33.1361 19.8786 33.1506 19.8695 33.1566 19.8695C33.1625 19.8695 33.2001 19.8418 33.24 19.8079C33.2799 19.7741 33.3344 19.7352 33.361 19.7217C33.3876 19.7081 33.4191 19.6865 33.4311 19.6736C33.4526 19.6505 33.4529 19.6513 33.4604 19.7398C33.4645 19.789 33.4709 20.2795 33.4746 20.8297C33.4812 21.8008 33.4807 21.8314 33.4593 21.8705C33.446 21.8949 33.4174 21.9209 33.3868 21.9366L33.3364 21.9625L32.6632 21.9605C32.2929 21.9594 31.6289 21.955 31.1877 21.9507ZM29.8184 21.7593C29.8142 21.7551 29.8106 21.684 29.8105 21.6012C29.8102 21.4309 29.7932 21.1386 29.7818 21.1093C29.7776 21.0985 29.7609 21.0853 29.7445 21.0798C29.7159 21.0703 29.7225 21.0622 29.9324 20.8513C30.3973 20.3843 30.7997 19.9922 30.8069 19.9993C30.8148 20.0072 30.7921 20.0495 30.4261 20.709C30.3016 20.9335 30.1188 21.2634 30.0201 21.4421C29.9213 21.6208 29.8373 21.767 29.8333 21.767C29.8293 21.767 29.8226 21.7635 29.8184 21.7593ZM24.7507 20.859C24.7507 20.8515 24.8253 20.7659 24.9164 20.6689C25.0076 20.5718 25.1037 20.4652 25.13 20.4319C25.1755 20.3744 25.1785 20.3623 25.1591 20.3151C25.1512 20.2961 25.1918 20.295 25.9177 20.295C26.4835 20.295 26.6835 20.2984 26.6803 20.308C26.6779 20.3152 26.627 20.3353 26.5672 20.3528C26.2586 20.4431 24.7989 20.8624 24.7766 20.8672C24.7612 20.8704 24.7507 20.8672 24.7507 20.859ZM21.6593 20.261C21.6361 20.2463 21.6119 20.2158 21.5974 20.1832C21.5737 20.1297 21.5737 20.1249 21.581 18.9616C21.585 18.3193 21.5916 17.6212 21.5955 17.4102L21.6028 17.0267L21.6298 17.0595C21.6447 17.0775 21.6732 17.1207 21.6931 17.1555C21.7131 17.1903 21.7419 17.2343 21.7571 17.2532C21.7849 17.2878 21.8744 17.4202 21.939 17.5222C21.958 17.5522 21.9901 17.5976 22.0105 17.6232C22.0309 17.6488 22.053 17.6821 22.0597 17.6972C22.0664 17.7124 22.103 17.7687 22.1411 17.8225C22.1791 17.8763 22.2303 17.9513 22.2549 17.9892C22.2795 18.0272 22.312 18.0738 22.3271 18.0927C22.3423 18.1117 22.3713 18.1566 22.3916 18.1926C22.4119 18.2285 22.4438 18.2743 22.4626 18.2944C22.4814 18.3145 22.4967 18.3377 22.4967 18.3459C22.4967 18.3585 22.5223 18.3942 22.5895 18.4754C22.5962 18.4834 22.6092 18.5067 22.6185 18.5271C22.6278 18.5475 22.6563 18.5927 22.6819 18.6275C22.7075 18.6623 22.7423 18.7114 22.7592 18.7367C22.7761 18.762 22.8068 18.8051 22.8274 18.8325C22.8479 18.8599 22.8647 18.8875 22.8647 18.8939C22.8647 18.9054 22.8872 18.9373 22.9466 19.0103C22.9631 19.0306 22.9803 19.059 22.9848 19.0734C22.9893 19.0878 23.0133 19.1231 23.0381 19.1518C23.0629 19.1804 23.0832 19.209 23.0832 19.2152C23.0832 19.2214 23.1078 19.2594 23.1379 19.2997C23.1679 19.3399 23.2015 19.3875 23.2125 19.4055C23.2235 19.4235 23.2554 19.4719 23.2834 19.513C23.3114 19.5541 23.3619 19.6284 23.3956 19.678C23.4294 19.7277 23.4803 19.8014 23.5087 19.842C23.5678 19.926 23.664 20.0711 23.6994 20.1295C23.7126 20.1512 23.7372 20.1834 23.7541 20.201C23.7941 20.2428 23.7927 20.2563 23.7474 20.2654C23.7268 20.2695 23.2572 20.2756 22.7037 20.279L21.6975 20.285L21.6593 20.261ZM33.8645 18.6146C33.6158 18.3795 33.5577 18.3341 33.527 18.3506C33.5145 18.3573 33.502 18.3693 33.4993 18.3772C33.4965 18.3852 33.4904 18.3331 33.4857 18.2614C33.4744 18.0894 33.4909 16.8406 33.5043 16.854C33.5148 16.8645 34.0651 18.7118 34.0746 18.7684C34.0775 18.7858 34.0754 18.7999 34.0699 18.7997C34.0644 18.7996 33.972 18.7163 33.8645 18.6146ZM34.5752 18.4951C34.5792 18.4762 34.5882 18.4116 34.5951 18.3515C34.6021 18.2914 34.6154 18.1957 34.6248 18.1387C34.6342 18.0818 34.6495 17.9861 34.6588 17.926C34.6682 17.8659 34.686 17.7634 34.6985 17.6983C34.711 17.6331 34.7212 17.552 34.7212 17.5179C34.7212 17.4838 34.7287 17.4233 34.7378 17.3833C34.7469 17.3434 34.7603 17.2567 34.7674 17.1906C34.7745 17.1245 34.7856 17.0606 34.792 17.0487C34.7984 17.0368 34.8056 17.0081 34.808 16.9849C34.8104 16.9617 34.8177 16.9091 34.8243 16.868C34.8308 16.8269 34.8409 16.7544 34.8467 16.707C34.8601 16.5981 34.886 16.433 34.9288 16.1837C34.9473 16.0762 34.9649 15.9517 34.9678 15.9069C34.9708 15.8622 34.979 15.8027 34.9862 15.7747C34.9933 15.7467 35.0058 15.6772 35.0141 15.6202C35.0223 15.5633 35.0395 15.4546 35.0524 15.3787C35.0733 15.2553 35.0826 15.1874 35.095 15.07C35.0983 15.0386 35.1171 14.9241 35.1417 14.7862L35.1489 14.7457L35.1902 14.7805C35.3709 14.9328 36.673 16.2186 36.6999 16.2712C36.7313 16.333 36.7282 16.3828 36.6891 16.4431C36.6708 16.4712 36.5013 16.6469 36.3124 16.8335C34.9085 18.2204 34.7525 18.3729 34.6417 18.4669C34.5691 18.5286 34.5681 18.529 34.5752 18.4951ZM22.7555 17.1839C22.3444 16.9597 21.9549 16.7475 21.8901 16.7123C21.8253 16.6771 21.7722 16.6436 21.7722 16.6379C21.7722 16.6215 21.83 16.6166 22.1 16.6101C22.4155 16.6026 22.4373 16.5992 22.4561 16.5544L22.4705 16.5203L22.5325 16.5773C22.6337 16.6704 23.5317 17.5754 23.5317 17.5843C23.5317 17.5888 23.5253 17.5923 23.5174 17.592C23.5094 17.5917 23.1666 17.4081 22.7555 17.1839ZM21.4027 15.4161C21.312 15.3323 20.9625 14.9895 20.6259 14.6542C20.055 14.0856 20.0135 14.0416 20.0069 13.9978C19.9918 13.8972 19.9691 13.9223 20.9889 12.9152C21.5115 12.3992 21.9856 11.9361 22.0425 11.8862L22.146 11.7955L22.1496 11.8307C22.1516 11.8501 22.1394 11.95 22.1225 12.0526C22.1056 12.1553 22.0903 12.2522 22.0886 12.268C22.0869 12.2838 22.0826 12.3045 22.079 12.314C22.0755 12.3235 22.0643 12.3959 22.0543 12.475C22.0276 12.6847 22.0037 12.8449 21.9795 12.9752C21.9678 13.0385 21.9523 13.1316 21.9451 13.1822C21.9307 13.2831 21.9014 13.4924 21.8927 13.556C21.8897 13.5781 21.8795 13.6402 21.87 13.694C21.8276 13.9336 21.8147 14.0193 21.8007 14.154C21.7924 14.2331 21.7802 14.3225 21.7735 14.3528C21.7668 14.383 21.756 14.4451 21.7496 14.4908C21.7431 14.5364 21.7277 14.6281 21.7152 14.6945C21.7027 14.7609 21.6924 14.8332 21.6921 14.8552C21.6919 14.8772 21.6842 14.9342 21.675 14.9817C21.6658 15.0293 21.6523 15.1148 21.645 15.1717C21.6377 15.2287 21.6275 15.2908 21.6223 15.3097C21.6172 15.3287 21.6103 15.3675 21.6072 15.396C21.5937 15.5182 21.5847 15.5685 21.5764 15.5685C21.5715 15.5685 21.4933 15.4999 21.4027 15.4161ZM33.8431 13.395C33.4179 12.974 33.1845 12.7314 33.1948 12.7211C33.2002 12.7157 33.4889 12.8709 34.7422 13.553C34.8644 13.6195 34.9601 13.6779 34.9549 13.6826C34.9497 13.6874 34.8032 13.6967 34.6292 13.7033C34.4553 13.7098 34.2991 13.7205 34.2822 13.727C34.2636 13.7341 34.25 13.7492 34.2476 13.7653C34.2443 13.7876 34.1815 13.7301 33.8431 13.395ZM23.0894 13.0414C23.0211 12.8089 22.8934 12.3764 22.8057 12.0802C22.718 11.7839 22.6462 11.5368 22.6462 11.531C22.6462 11.5105 22.6771 11.5209 22.7046 11.5507C22.7561 11.6065 23.059 11.887 23.1189 11.9343C23.1742 11.978 23.1799 11.9801 23.2038 11.9644C23.2294 11.9476 23.2294 11.9476 23.2368 12.0417C23.2464 12.1653 23.2464 13.1449 23.2367 13.3242C23.2326 13.4011 23.2257 13.464 23.2214 13.464C23.2172 13.464 23.1578 13.2738 23.0894 13.0414H23.0894ZM35.1091 13.142C35.094 13.1118 35.0627 13.068 34.9742 12.9532C34.9268 12.8916 34.8776 12.826 34.865 12.8075C34.8523 12.7889 34.8109 12.733 34.773 12.6832C34.735 12.6334 34.672 12.5467 34.6329 12.4907C34.5938 12.4346 34.5512 12.3774 34.5382 12.3635C34.5252 12.3497 34.5 12.3153 34.4821 12.2871C34.4643 12.259 34.4355 12.2186 34.4182 12.1974C34.3675 12.135 34.2816 12.0204 34.2382 11.9572C34.2161 11.9249 34.1761 11.8696 34.1493 11.8343C34.1226 11.799 34.0977 11.7605 34.0939 11.7488C34.0902 11.7371 34.0823 11.7275 34.0763 11.7275C34.0703 11.7275 34.048 11.7003 34.0267 11.6671C34.0054 11.6339 33.9766 11.5965 33.9627 11.584C33.9487 11.5715 33.9303 11.5444 33.9217 11.5238C33.9131 11.5033 33.8835 11.4618 33.856 11.4316C33.8284 11.4014 33.7962 11.3612 33.7845 11.3422C33.7728 11.3233 33.7482 11.2896 33.7298 11.2675C33.7114 11.2454 33.6384 11.1481 33.5677 11.0514C33.4969 10.9548 33.4235 10.8547 33.4045 10.8291C33.3605 10.7697 33.2316 10.5901 33.2122 10.5614C33.2041 10.5493 33.1729 10.5094 33.1429 10.4727C33.1128 10.436 33.0882 10.401 33.0882 10.3949C33.0882 10.3889 33.0693 10.3628 33.0461 10.3369C33.0023 10.2882 32.9932 10.2758 32.9284 10.1771C32.9069 10.1443 32.885 10.1175 32.8798 10.1175C32.8746 10.1175 32.8626 10.1025 32.8531 10.0843L32.836 10.051L33.103 10.0436C33.2498 10.0394 33.7426 10.035 34.198 10.0337C34.976 10.0314 35.0283 10.0325 35.0639 10.0519C35.0847 10.0633 35.1123 10.0892 35.1251 10.1094C35.1483 10.1461 35.1484 10.153 35.1418 11.5952C35.1356 12.9548 35.1307 13.1853 35.1091 13.142ZM23.2631 10.5804C23.2591 10.5377 23.2526 10.0473 23.2486 9.49075L23.2415 8.47875L23.2687 8.43955C23.2837 8.418 23.3098 8.39014 23.3267 8.37764C23.3567 8.35536 23.3787 8.35494 24.4537 8.35627C25.6653 8.35777 26.3862 8.3677 26.3769 8.38276C26.3715 8.39144 26.279 8.45858 26.205 8.5075C26.1907 8.51698 26.1642 8.53672 26.1462 8.55136C26.0378 8.63952 25.9663 8.6915 25.9535 8.6915C25.9454 8.6915 25.9289 8.70246 25.9169 8.71587C25.9048 8.72927 25.8613 8.76255 25.8202 8.78981C25.7791 8.81707 25.7251 8.85785 25.7003 8.88044C25.6754 8.90302 25.651 8.9215 25.6461 8.9215C25.6412 8.9215 25.6093 8.94414 25.5754 8.97181C25.5414 8.99949 25.5024 9.02814 25.4886 9.03548C25.4631 9.04912 25.2877 9.17803 25.205 9.24389C25.1797 9.26404 25.115 9.31147 25.0612 9.34931C25.0075 9.38714 24.9428 9.43467 24.9175 9.45494C24.8922 9.4752 24.8417 9.51123 24.8054 9.535C24.769 9.55878 24.7392 9.58201 24.7392 9.58663C24.7392 9.59126 24.7224 9.6047 24.7019 9.6165C24.6813 9.62831 24.6429 9.6553 24.6165 9.67648C24.5902 9.69766 24.5646 9.715 24.5597 9.715C24.5548 9.715 24.5375 9.72753 24.5214 9.74285C24.4838 9.77845 24.3887 9.84635 24.3367 9.87464C24.3146 9.88669 24.2861 9.90812 24.2735 9.92227C24.2608 9.93641 24.2298 9.96111 24.2046 9.97715C24.1793 9.9932 24.1286 10.0313 24.0918 10.0619C24.0551 10.0925 24.0208 10.1175 24.0156 10.1175C24.0104 10.1175 23.9738 10.1434 23.9342 10.175C23.8947 10.2066 23.8577 10.2325 23.852 10.2325C23.8463 10.2325 23.8198 10.2524 23.7931 10.2768C23.7664 10.3012 23.7309 10.3284 23.7142 10.3372C23.6841 10.3532 23.4956 10.4925 23.4627 10.5231C23.4532 10.532 23.4162 10.5583 23.3804 10.5817C23.3446 10.6052 23.3091 10.6319 23.3014 10.6412C23.2771 10.6704 23.2706 10.6601 23.2631 10.5804ZM25.8777 10.3714C25.8777 10.3649 25.952 10.2262 26.0427 10.0631C26.1334 9.90012 26.3592 9.49247 26.5445 9.15725C26.7298 8.82202 26.8836 8.54531 26.8862 8.54233C26.902 8.52448 26.9124 8.58773 26.9127 8.703C26.9131 8.86149 26.9324 9.21 26.9422 9.2355C26.946 9.24549 26.9604 9.25525 26.9741 9.2572C26.9942 9.26006 26.8953 9.36583 26.46 9.80686C26.1636 10.1072 25.9113 10.3598 25.8994 10.3681C25.8866 10.3771 25.8777 10.3784 25.8777 10.3714ZM30.0539 10.0153C30.0453 10.0098 30.0427 10.0028 30.0481 9.99959C30.0535 9.99641 30.1615 9.96438 30.288 9.92841C30.6046 9.83841 31.9522 9.45083 31.9699 9.4447C32.0125 9.42993 31.9684 9.49029 31.8356 9.62826C31.6165 9.85601 31.5331 9.95683 31.5389 9.98708C31.5424 10.0052 31.537 10.014 31.5196 10.0187C31.4801 10.0293 30.0708 10.026 30.0539 10.0153ZM31.6162 8.9445C31.6004 8.93943 31.566 8.93477 31.5396 8.93414C31.5133 8.93351 31.34 8.90737 31.1544 8.87604C30.9688 8.84471 30.7808 8.81607 30.7365 8.81239C30.6922 8.80871 30.6301 8.80093 30.5985 8.79511C30.3511 8.74956 30.2242 8.72989 29.9372 8.69262C29.8455 8.68071 29.711 8.65989 29.6382 8.64636C29.3797 8.59826 29.3212 8.58837 29.2587 8.58218C29.2239 8.57873 29.1618 8.57086 29.1207 8.56468C29.0796 8.55851 28.992 8.54545 28.9261 8.53567C28.8602 8.52589 28.8015 8.51495 28.7957 8.51137C28.7899 8.50779 28.7636 8.50325 28.7373 8.5013C28.711 8.49934 28.6403 8.48937 28.5802 8.47914C28.5201 8.4689 28.4503 8.45874 28.425 8.45654C28.3178 8.44723 27.9511 8.38824 27.9417 8.37879C27.9289 8.36597 28.1787 8.10368 28.7812 7.49737C29.1417 7.13462 29.4507 6.83054 29.4678 6.82166C29.5081 6.80085 29.5734 6.80101 29.6129 6.822C29.6616 6.84788 31.4586 8.65874 31.6515 8.87633L31.7221 8.956L31.6835 8.95485C31.6623 8.95422 31.632 8.94956 31.6162 8.9445Z" fill="#0164A0"/>
<defs>
<filter id="filter0_d_1139_7" x="0" y="0" width="56" height="39" filterUnits="userSpaceOnUse" color-interpolation-filters="sRGB">
<feFlood flood-opacity="0" result="BackgroundImageFix"/>
<feColorMatrix in="SourceAlpha" type="matrix" values="0 0 0 0 0 0 0 0 0 0 0 0 0 0 0 0 0 0 127 0" result="hardAlpha"/>
<feOffset dy="2"/>
<feGaussianBlur stdDeviation="2"/>
<feComposite in2="hardAlpha" operator="out"/>
<feColorMatrix type="matrix" values="0 0 0 0 0 0 0 0 0 0 0 0 0 0 0 0 0 0 0.1 0"/>
<feBlend mode="normal" in2="BackgroundImageFix" result="effect1_dropShadow_1139_7"/>
<feBlend mode="normal" in="SourceGraphic" in2="effect1_dropShadow_1139_7" result="shape"/>
</filter>
</defs>
</svg>
