<svg width="30" height="30" viewBox="0 0 30 30" fill="none" xmlns="http://www.w3.org/2000/svg">
<g clip-path="url(#clip0_1040_62)">
<path d="M25.6045 4.39131C19.7458 -1.46566 10.2483 -1.46426 4.39131 4.39453C-1.46566 10.2533 -1.46426 19.7508 4.39453 25.6078C10.2533 31.4647 19.7508 31.4633 25.6078 25.6045C28.4206 22.7908 30.0004 18.9749 29.9995 14.9963C29.9987 11.0184 28.4178 7.20369 25.6045 4.39131ZM22.7165 20.8944C22.7159 20.895 22.7152 20.8957 22.7145 20.8964V20.8914L21.9545 21.6463C20.9716 22.6417 19.5401 23.0512 18.1795 22.7263C16.8087 22.3594 15.5055 21.7754 14.3195 20.9964C13.2176 20.2921 12.1964 19.4689 11.2745 18.5413C10.4262 17.6993 9.66416 16.7747 8.99948 15.7813C8.27244 14.7125 7.69699 13.5481 7.28948 12.3213C6.82231 10.8802 7.20944 9.29877 8.28949 8.23635L9.17948 7.34637C9.42692 7.09781 9.82899 7.09694 10.0775 7.34438C10.0781 7.34502 10.0788 7.34567 10.0795 7.34637L12.8895 10.1564C13.138 10.4038 13.1389 10.8059 12.8914 11.0544C12.8908 11.055 12.8902 11.0556 12.8895 11.0564L11.2395 12.7064C10.766 13.1746 10.7065 13.9188 11.0995 14.4564C11.6963 15.2754 12.3567 16.0461 13.0745 16.7614C13.8748 17.5652 14.7449 18.2964 15.6745 18.9464C16.2116 19.3211 16.9398 19.2579 17.4045 18.7964L18.9994 17.1764C19.2469 16.9279 19.6489 16.927 19.8974 17.1744C19.8981 17.1751 19.8987 17.1757 19.8994 17.1764L22.7145 19.9964C22.9631 20.2438 22.9639 20.6458 22.7165 20.8944Z" fill="#7E992D"/>
</g>
<defs>
<clipPath id="clip0_1040_62">
<rect width="30" height="30" fill="white"/>
</clipPath>
</defs>
</svg>
