<svg width="30" height="24" viewBox="0 0 30 24" fill="none" xmlns="http://www.w3.org/2000/svg">
<path d="M16.036 21.8893C14.7525 23.0161 14.3247 23.6525 12.3712 23.6525C10.902 23.6525 9.19067 21.7325 8.33496 20.8769L1.48956 13.1758C-0.11911 11.3917 -0.457268 9.88031 0.633838 8.89742C2.05866 7.61391 3.18292 7.95978 4.79159 9.74471L11.9527 17.6922C12.0588 17.8103 12.2129 17.8736 12.3712 17.8659C12.5303 17.8582 12.6758 17.7786 12.7708 17.652L25.0206 1.35313C25.8762 0.340669 27.7408 -0.789554 29.2989 0.768502C30.1546 1.62416 30.5824 2.90767 28.4433 5.6315L16.036 21.8893Z" fill="#8A8A8A"/>
</svg>
