<svg width="27" height="20" viewBox="0 0 27 20" fill="none" xmlns="http://www.w3.org/2000/svg">
<path d="M8.8632 14.1734C8.81501 14.1793 8.76616 14.1793 8.71797 14.1734C7.39776 14.1734 6.07754 14.1435 4.75733 14.0538C3.71436 13.976 2.26212 13.9042 1.41058 13.312C1.36454 13.285 1.32241 13.2528 1.28516 13.2163C1.80546 13.1002 2.34556 13.0758 2.87602 13.1446L6.67823 13.5872C7.44873 13.6165 8.1993 13.8179 8.8632 14.1734Z" fill="#FF7844"/>
<path d="M3.12724 13.2036C3.05037 13.1978 2.97308 13.1978 2.8962 13.2036C2.80388 13.2074 2.71267 13.2235 2.62555 13.2515C2.52654 13.2515 2.40772 13.3232 2.41433 13.413C2.42093 13.5027 2.51334 13.5386 2.59916 13.5685C3.161 13.7425 3.75836 13.8017 4.34844 13.7419H4.40785C4.46726 13.706 4.40785 13.6223 4.40785 13.5745C4.02928 13.3417 3.58461 13.213 3.12724 13.2036Z" fill="#FF8454"/>
<path d="M5.84759 13.5813C5.73624 13.5634 5.62228 13.5634 5.51093 13.5813C5.4555 13.5885 5.4027 13.6074 5.35683 13.6364C5.31095 13.6655 5.27329 13.704 5.24688 13.7488C5.23864 13.7647 5.23437 13.782 5.23438 13.7996C5.23437 13.8172 5.23864 13.8345 5.24688 13.8505L5.2931 13.8864C5.49868 13.9755 5.7256 14.0166 5.9532 14.006C6.18714 14.0241 6.42273 14.012 6.65292 13.9701C6.71648 13.9578 6.77554 13.931 6.82454 13.8923C7.12159 13.6232 5.9598 13.5873 5.84759 13.5813Z" fill="#FF8454"/>
<path d="M4.65908 14.8979C4.43512 14.9173 4.21393 14.9574 3.99897 15.0175C3.82734 15.0713 3.63591 15.179 3.65571 15.3345C3.67053 15.3851 3.6987 15.4317 3.73779 15.4703C3.77689 15.5088 3.82575 15.5382 3.88016 15.5558C4.15087 15.6658 4.44197 15.7287 4.7383 15.7413C5.47755 15.8091 6.22348 15.7869 6.95625 15.6755C7.02984 15.6732 7.10191 15.6559 7.16707 15.6248C7.23222 15.5937 7.28878 15.5497 7.33252 15.496C7.41173 15.3525 7.27971 15.2149 7.16089 15.1192C6.79185 14.9021 6.34966 14.8109 5.91329 14.862C5.49481 14.8512 5.07598 14.8632 4.65908 14.8979Z" fill="#FF8454"/>
<path d="M9.27316 15.2261C9.25108 15.4991 9.14637 15.7614 8.97053 15.9841C8.79468 16.2067 8.5545 16.3811 8.27639 16.4882C7.69169 16.522 7.10521 16.522 6.52051 16.4882C6.94298 16.4403 7.37204 16.3745 7.79451 16.2968C8.02609 16.2649 8.24959 16.196 8.45462 16.0934C8.81768 15.896 8.9563 15.4893 9.27316 15.2261Z" fill="#DE5018"/>
<path d="M11.5244 13.7434C11.4899 13.7555 11.4585 13.7738 11.432 13.7972C11.4158 13.8227 11.4072 13.8515 11.4072 13.8809C11.4072 13.9103 11.4158 13.9392 11.432 13.9647C11.4907 14.0395 11.5711 14.0981 11.6643 14.134C11.7575 14.1699 11.8599 14.1817 11.9601 14.168C12.1911 14.168 13.2803 14.0245 12.8512 13.6716C12.5542 13.4323 11.8281 13.6118 11.5244 13.7434Z" fill="#F5EDDD"/>
<path d="M7.64834 12.6543C7.61344 12.6483 7.57762 12.6483 7.54273 12.6543C7.51766 12.674 7.49847 12.6991 7.48693 12.7274C7.4754 12.7556 7.47189 12.786 7.47671 12.8158C7.47671 12.9892 7.72095 13.0909 7.91898 13.1388C8.11701 13.1866 9.23919 13.3242 8.93554 12.8816C8.73751 12.6184 7.97839 12.6064 7.64834 12.6543Z" fill="#F5EDDD"/>
<path d="M12.1504 14.633C12.1244 14.6276 12.0973 14.6276 12.0712 14.633C12.0502 14.6473 12.0341 14.6666 12.0247 14.6889C12.0154 14.7111 12.0132 14.7353 12.0184 14.7586C12.0184 14.8902 12.1966 14.974 12.3419 15.0158C12.4871 15.0577 13.3518 15.1893 13.134 14.8424C12.9888 14.627 12.4079 14.6031 12.1504 14.633Z" fill="#F5EDDD"/>
<path d="M10.6796 15.6457C10.6585 15.6628 10.6407 15.683 10.6268 15.7055C10.6208 15.7282 10.622 15.752 10.6302 15.7742C10.6383 15.7964 10.6532 15.8161 10.673 15.8311C10.7364 15.8724 10.8109 15.8976 10.8887 15.9039C10.9665 15.9102 11.0448 15.8975 11.1153 15.867C11.2803 15.8131 12.0328 15.4662 11.617 15.3107C11.3397 15.203 10.8578 15.4901 10.6796 15.6457Z" fill="#F5EDDD"/>
<path d="M13.7092 15.8539C13.7297 15.8432 13.7477 15.829 13.762 15.812C13.7718 15.7955 13.777 15.777 13.777 15.7582C13.777 15.7394 13.7718 15.7209 13.762 15.7044C13.719 15.6607 13.6638 15.6283 13.6023 15.6104C13.5408 15.5926 13.4752 15.5899 13.4122 15.6027C13.2669 15.6027 12.5804 15.7642 12.8775 15.9616C13.1745 16.1589 13.5244 15.9436 13.7092 15.8539Z" fill="#F5EDDD"/>
<path d="M4.7717 17.1281L4.82451 17.0923C4.83433 17.0757 4.83948 17.0572 4.83948 17.0384C4.83948 17.0196 4.83433 17.0011 4.82451 16.9846C4.78309 16.9388 4.72837 16.9045 4.66654 16.8855C4.60472 16.8665 4.53825 16.8635 4.47465 16.8769C4.32943 16.8769 3.64292 17.0384 3.93997 17.2418C4.23702 17.4452 4.58687 17.2238 4.7717 17.1281Z" fill="#F5EDDD"/>
<path d="M6.68542 13.0603C6.70698 13.0659 6.72987 13.0659 6.75143 13.0603C6.76918 13.0504 6.78352 13.0361 6.79284 13.0192C6.80217 13.0023 6.80612 12.9834 6.80424 12.9646C6.80424 12.8509 6.67222 12.7732 6.5468 12.7313C6.42137 12.6894 5.72826 12.5459 5.88669 12.839C5.9857 13.0304 6.46759 13.0723 6.68542 13.0603Z" fill="#F5EDDD"/>
<path d="M21.1341 17.2358C21.0572 17.23 20.9799 17.23 20.903 17.2358C20.8107 17.2396 20.7195 17.2557 20.6324 17.2837C20.5334 17.2837 20.4146 17.3614 20.4212 17.4452C20.4278 17.5289 20.5202 17.5708 20.606 17.6007C21.1679 17.7743 21.7652 17.8335 22.3553 17.7742C22.375 17.7767 22.395 17.7767 22.4147 17.7742C22.4741 17.7383 22.4147 17.6545 22.4147 17.6067C22.0648 17.2897 21.5499 17.3315 21.1341 17.2358Z" fill="#FF8454"/>
<path d="M23.8544 17.6125C23.7431 17.5946 23.6291 17.5946 23.5178 17.6125C23.4623 17.6197 23.4095 17.6386 23.3637 17.6677C23.3178 17.6968 23.2801 17.7353 23.2537 17.78C23.2455 17.7959 23.2412 17.8133 23.2412 17.8309C23.2412 17.8484 23.2455 17.8658 23.2537 17.8817L23.2999 17.9176C23.5055 18.0067 23.7324 18.0479 23.96 18.0372C24.194 18.0555 24.4296 18.0434 24.6598 18.0013C24.7238 17.9904 24.7833 17.9635 24.8314 17.9236C25.1284 17.6544 23.9996 17.6245 23.8544 17.6125Z" fill="#FF8454"/>
<path d="M25.6561 16.6859C25.6193 16.6903 25.5836 16.7004 25.5505 16.7158C25.5255 16.7355 25.5063 16.7607 25.4947 16.7889C25.4832 16.8171 25.4797 16.8475 25.4845 16.8773C25.4845 17.0507 25.7288 17.1524 25.9268 17.2003C26.1248 17.2481 27.247 17.3857 26.9434 16.9431C26.7453 16.65 25.9796 16.638 25.6561 16.6859Z" fill="#F5EDDD"/>
<path d="M14.7054 17.1699C14.7054 17.1699 14.6327 17.1998 14.6129 17.2297C14.5953 17.2547 14.5859 17.2838 14.5859 17.3135C14.5859 17.3431 14.5953 17.3722 14.6129 17.3972C14.6988 17.5587 14.9364 17.6006 15.141 17.6006C15.3457 17.6006 16.4612 17.451 16.0388 17.0981C15.7351 16.8649 15.0024 17.0443 14.7054 17.1699Z" fill="#F5EDDD"/>
<path d="M13.7017 19.4316C13.6735 19.4419 13.6486 19.4583 13.6291 19.4794C13.6143 19.4999 13.6064 19.5238 13.6064 19.5482C13.6064 19.5727 13.6143 19.5966 13.6291 19.617C13.676 19.6769 13.7403 19.7237 13.815 19.7522C13.8896 19.7807 13.9715 19.7898 14.0515 19.7785C14.243 19.7785 15.1275 19.6589 14.7777 19.3778C14.54 19.1864 13.9459 19.3299 13.7017 19.4316Z" fill="#F5EDDD"/>
<path d="M24.6923 17.0925C24.7138 17.0982 24.7367 17.0982 24.7583 17.0925C24.776 17.0826 24.7904 17.0684 24.7997 17.0515C24.809 17.0346 24.813 17.0156 24.8111 16.9968C24.8111 16.8832 24.6791 16.8054 24.5536 16.7635C24.4282 16.7217 23.7351 16.5781 23.8935 16.8712C23.9991 17.0626 24.481 17.1045 24.6923 17.0925Z" fill="#F5EDDD"/>
<path d="M15.7876 18.1931L15.847 18.1572C15.8568 18.1406 15.8619 18.1221 15.8619 18.1034C15.8619 18.0846 15.8568 18.0661 15.847 18.0495C15.8056 18.0038 15.7508 17.9695 15.689 17.9504C15.6272 17.9314 15.5607 17.9284 15.4971 17.9419C15.3519 17.9419 14.6654 18.1034 14.9624 18.3067C15.1539 18.4383 15.6093 18.2888 15.7876 18.1931Z" fill="#F5EDDD"/>
<path d="M17.3195 17.3731H17.3855C17.4045 17.3625 17.42 17.3475 17.4305 17.3296C17.4409 17.3117 17.4459 17.2916 17.4449 17.2714C17.4449 17.1638 17.3129 17.08 17.1941 17.0382C17.0753 16.9963 16.3755 16.8348 16.534 17.1339C16.6264 17.3313 17.1083 17.3791 17.3195 17.3731Z" fill="#F5EDDD"/>
<path d="M26.7723 4.04102V15.9082C26.7723 17.9838 20.9964 19.6706 13.8804 19.6706C7.93945 19.6706 2.89623 18.4743 1.43079 16.8772C1.16254 16.6117 1.00799 16.268 0.995117 15.9082V4.04102H26.7723Z" fill="#57493D"/>
<path d="M13.1741 7.09156C12.5395 7.92635 11.802 8.69292 10.976 9.37648C10.0958 10.2099 9.16945 11.0074 8.19689 11.7691C6.92925 12.8423 5.47228 13.7157 3.88639 14.3531C2.95205 14.67 1.98267 14.8946 0.995117 15.023V4.04102H9.4775C10.4017 4.47766 11.306 4.94422 12.2236 5.35096C13.1411 5.7577 13.722 6.23023 13.1741 7.09156Z" fill="#5C4D40"/>
<path d="M26.7732 4.04102V15.9082C26.7732 17.9838 20.9972 19.6706 13.8813 19.6706C7.9403 19.6706 2.89708 18.4743 1.43164 16.8772C4.86445 16.8817 8.28719 16.5407 11.6369 15.8604C15.6438 14.9572 19.5186 13.1807 22.0336 10.3215C23.0302 9.15823 23.8454 7.87613 24.4562 6.51136C24.8061 5.76368 24.9315 4.78272 25.2813 4.04102H26.7732Z" fill="#42372E"/>
<path d="M26.7723 4.0407C26.7723 4.19662 26.7387 4.35105 26.6733 4.49528C25.9076 6.35552 20.4683 7.80304 13.8804 7.80304C6.75786 7.80304 0.995117 6.11626 0.995117 4.0407C0.995117 2.53337 4.03162 1.23539 8.42793 0.637243C10.2332 0.397178 12.0558 0.279219 13.8804 0.284339C20.9964 0.284339 26.7723 1.96513 26.7723 4.0407Z" fill="#E8E0D1"/>
<path d="M18.9368 3.34111C18.905 3.45015 18.8445 3.55061 18.7606 3.63393C18.6767 3.71724 18.5719 3.78095 18.4549 3.81962C18.122 3.91447 17.7687 3.93499 17.4251 3.87943C15.037 3.78857 12.6554 3.58894 10.2894 3.28129C10.2498 3.1334 10.2527 2.97881 10.2978 2.83222C10.3429 2.68564 10.4286 2.55194 10.5468 2.44389C10.7353 2.28742 10.9612 2.17275 11.2069 2.10893C11.7359 1.98012 12.2874 1.94559 12.8308 2.00724L16.6264 2.45585C17.3962 2.48752 18.1451 2.69314 18.8048 3.054L18.9104 3.13175C18.9387 3.19835 18.9478 3.27042 18.9368 3.34111Z" fill="#F17140"/>
<path d="M18.8249 3.03557C18.7767 3.04148 18.7278 3.04148 18.6796 3.03557C17.3594 3.03557 16.0392 3.03556 14.719 2.91593C13.676 2.83818 12.2172 2.77238 11.3657 2.18022L11.2402 2.08451C11.7692 1.95571 12.3207 1.92117 12.8641 1.98283L16.6597 2.43144C17.4256 2.46689 18.1697 2.67452 18.8249 3.03557Z" fill="#FF7844"/>
<path d="M18.9369 3.34058C18.9298 3.37998 18.9165 3.41825 18.8973 3.45423C18.8071 3.62279 18.6487 3.75343 18.4551 3.8191C18.1216 3.91102 17.769 3.93149 17.4253 3.87891C15.0371 3.78831 12.6555 3.58867 10.2895 3.28076C10.2524 3.12907 10.2524 2.97188 10.2895 2.82019C10.3306 2.67505 10.4179 2.54402 10.5404 2.44336C11.3853 2.64075 12.1708 2.95178 13.0554 3.07739C14.8724 3.28164 16.7042 3.35764 18.5343 3.30469C18.6697 3.29874 18.8054 3.31083 18.9369 3.34058Z" fill="#E85D27"/>
<path d="M13.0823 2.07222C13.0059 2.05991 12.9277 2.05991 12.8513 2.07222C12.7593 2.07448 12.6682 2.08857 12.5806 2.11408C12.4816 2.11408 12.3628 2.19184 12.3694 2.28156C12.376 2.37129 12.475 2.40717 12.5608 2.4311C13.1189 2.61092 13.7156 2.67032 14.3035 2.60457H14.3629C14.4289 2.56868 14.3629 2.47896 14.3299 2.43709C14.0131 2.12007 13.5048 2.13801 13.0823 2.07222Z" fill="#FF8454"/>
<path d="M15.8076 2.44385C15.6938 2.42887 15.5782 2.42887 15.4643 2.44385C15.4102 2.45231 15.359 2.47178 15.3144 2.50079C15.2698 2.5298 15.233 2.56759 15.2069 2.61133C15.1955 2.62628 15.1895 2.64402 15.1895 2.66217C15.1895 2.68033 15.1955 2.69805 15.2069 2.71301C15.2069 2.71301 15.2069 2.71301 15.2531 2.7489C15.4574 2.84185 15.6849 2.88514 15.9132 2.87451C16.1343 2.88783 16.3564 2.87374 16.5733 2.83264C16.6397 2.82279 16.7016 2.7958 16.7515 2.75488C17.0816 2.4917 15.9198 2.45581 15.8076 2.44385Z" fill="#FF8454"/>
<path d="M18.8973 3.45483C18.8071 3.62339 18.6487 3.75404 18.4551 3.8197C18.1216 3.91163 17.769 3.9321 17.4253 3.87951C15.0371 3.78891 12.6555 3.58928 10.2895 3.28137C10.2524 3.12968 10.2524 2.97249 10.2895 2.8208C10.4128 2.87136 10.541 2.91141 10.6724 2.94043C10.9694 3.00622 11.2731 3.07202 11.5767 3.11389C11.8804 3.15576 12.0916 3.16773 12.3491 3.18567L16.8246 3.4967C17.5146 3.56467 18.2114 3.5506 18.8973 3.45483Z" fill="#DE5018"/>
<path d="M9.6021 4.9021C10.1368 4.94995 10.6649 5.02173 11.1996 5.10547C10.1533 5.06076 9.11435 4.92455 8.09706 4.69873C7.70759 4.54322 7.767 4.30396 8.01124 4.05273C8.03614 4.14207 8.06701 4.22997 8.10365 4.31592C8.20206 4.48313 8.35708 4.61731 8.54593 4.69873C8.88262 4.82055 9.23983 4.88933 9.6021 4.9021Z" fill="#DE5018"/>
<path d="M18.2307 5.36865C17.5178 5.50025 9.22687 5.14734 8.09809 4.71069C7.5436 4.49536 7.89346 4.11255 8.38854 3.75366C8.68862 3.55048 9.00404 3.3666 9.33249 3.20337L9.51732 3.11963C9.51732 3.11963 18.2175 3.71777 18.9305 3.77758C18.9746 3.78126 19.0173 3.79328 19.056 3.81286C19.0946 3.83243 19.1283 3.85913 19.1549 3.89123C19.4387 4.23218 18.838 5.23706 18.2307 5.36865Z" fill="#F17140"/>
<path d="M18.9764 3.86157C19.016 4.047 18.818 4.20252 18.6266 4.3042C18.2819 4.47766 17.9102 4.6027 17.5242 4.67505C17.2452 4.72297 16.9629 4.75296 16.6792 4.76478C14.3433 4.91905 11.995 4.77812 9.7019 4.34607C9.50703 4.32699 9.32415 4.25148 9.18041 4.13073C9.11924 4.05504 9.07995 3.96667 9.06611 3.87369C9.05228 3.78071 9.06433 3.68606 9.1012 3.59839C9.15557 3.45319 9.23344 3.31612 9.33224 3.19165L9.51707 3.10791C9.51707 3.10791 18.2173 3.70606 18.9302 3.76587C18.9525 3.79466 18.9682 3.82719 18.9764 3.86157Z" fill="#FF7844"/>
<path d="M19.2282 4.09436C19.2069 4.36761 19.1024 4.63018 18.9265 4.85295C18.7506 5.07572 18.51 5.24999 18.2314 5.35645C17.6468 5.39235 17.0602 5.39235 16.4755 5.35645C15.0233 5.32056 12.944 5.22486 11.1947 5.09326C10.1485 5.04855 9.10947 4.91234 8.09217 4.68653C7.70271 4.53101 7.76212 4.29175 8.00636 4.04053C8.12098 3.92661 8.24693 3.82249 8.38262 3.72949C8.35132 3.80397 8.33566 3.88308 8.33642 3.96277C8.37197 4.09877 8.44428 4.22464 8.54683 4.32905C8.64938 4.43346 8.77896 4.51313 8.92391 4.56091C9.17734 4.64296 9.44134 4.69523 9.70944 4.71644C11.893 5.02235 14.1013 5.16042 16.3105 5.12916C16.8574 5.13251 17.4013 5.05575 17.9212 4.90186C18.177 4.82644 18.4123 4.70266 18.6114 4.53871C18.8106 4.37476 18.969 4.17438 19.0764 3.95081L19.1226 3.85511C19.1813 3.92461 19.2178 4.00736 19.2282 4.09436Z" fill="#E85D27"/>
<path d="M10.6654 3.34644C10.4715 3.33272 10.2765 3.35303 10.0911 3.40626C9.99237 3.42379 9.90304 3.47083 9.83738 3.53986C9.77172 3.60889 9.73355 3.6959 9.72898 3.78694C9.72441 3.87798 9.75372 3.96777 9.8122 4.04191C9.87067 4.11605 9.95493 4.17024 10.0515 4.19581C10.2439 4.26814 10.4504 4.30475 10.6588 4.30348L11.8073 4.38124C12.0882 4.41867 12.3748 4.39822 12.6457 4.32143C12.7551 4.29851 12.8517 4.24079 12.9181 4.15875C12.9845 4.07671 13.0162 3.9758 13.0074 3.87439C12.9986 3.77297 12.9499 3.67779 12.8702 3.60615C12.7905 3.53451 12.6851 3.49118 12.5731 3.48402C11.9417 3.39641 11.3041 3.35042 10.6654 3.34644Z" fill="#FF8454"/>
<path d="M14.6125 3.7589C14.3884 3.78076 14.1673 3.82284 13.9524 3.88451C13.7808 3.93237 13.5893 4.04003 13.6157 4.19554C13.6306 4.24682 13.6587 4.29417 13.6977 4.33368C13.7368 4.3732 13.7856 4.40376 13.8402 4.42284C14.1109 4.52654 14.3986 4.58918 14.6917 4.60827C15.4312 4.67416 16.1772 4.65002 16.9097 4.53649C17.0549 4.53649 17.2265 4.47668 17.2859 4.36303C17.3453 4.24938 17.2331 4.07592 17.1143 3.9862C16.7479 3.76349 16.3034 3.67185 15.8667 3.72899C15.4483 3.71623 15.0295 3.72622 14.6125 3.7589Z" fill="#FF8454"/>
<path d="M19.2273 4.09424C19.2059 4.36749 19.1015 4.63006 18.9256 4.85283C18.7496 5.0756 18.509 5.24987 18.2305 5.35633C17.6459 5.39223 17.0592 5.39223 16.4746 5.35633C16.9037 5.30847 17.3327 5.24867 17.7486 5.16492C17.9802 5.13304 18.2037 5.06419 18.4087 4.96156C18.752 4.77015 18.917 4.35144 19.2273 4.09424Z" fill="#DE5018"/>
<path d="M25.4464 4.59742C24.4563 6.2184 19.5979 7.45057 13.7493 7.45057C12.3042 7.45244 10.8603 7.37453 9.42561 7.2173C8.41115 7.10708 7.40567 6.93725 6.41552 6.70888C3.66288 6.07484 1.90039 5.0879 1.90039 3.98731C1.90039 2.71326 4.27678 1.59473 7.84136 0.996582C7.08671 1.41189 6.41678 1.94204 5.86104 2.56372C5.30655 3.23364 4.93028 4.2804 5.74221 4.9264C6.82479 5.78174 9.04275 5.94923 10.4026 6.12269C13.1521 6.4985 15.9495 6.48235 18.6935 6.07484C20.1199 5.86384 21.5308 5.5742 22.9182 5.20753C23.7472 4.95987 24.5913 4.75616 25.4464 4.59742Z" fill="#F5EDDD"/>
<path d="M21.4847 2.59911C21.4516 2.59911 21.412 2.59912 21.3922 2.65893C21.3746 2.68394 21.3652 2.713 21.3652 2.74267C21.3652 2.77235 21.3746 2.80141 21.3922 2.82641C21.4781 2.98791 21.7157 3.02978 21.9203 3.02978C22.125 3.02978 23.2405 2.88025 22.8181 2.52734C22.5144 2.29406 21.7817 2.4735 21.4847 2.59911Z" fill="#F5EDDD"/>
<path d="M17.6102 1.51669C17.5718 1.51839 17.5348 1.53094 17.5046 1.55258C17.4771 1.56906 17.456 1.5929 17.4442 1.62078C17.4323 1.64865 17.4304 1.67918 17.4386 1.7081C17.4386 1.88157 17.6762 1.98922 17.8743 2.03708C18.0723 2.08493 19.1945 2.22251 18.8974 1.77988C18.7192 1.4808 17.9337 1.47482 17.6102 1.51669Z" fill="#F5EDDD"/>
<path d="M6.65165 2.00732C6.61719 2.0195 6.58576 2.0378 6.55923 2.06115C6.5416 2.08616 6.53223 2.11522 6.53223 2.14489C6.53223 2.17457 6.5416 2.20363 6.55923 2.22864C6.63844 2.39013 6.88269 2.43798 7.08732 2.432C7.29195 2.42602 8.40753 2.28246 7.97846 1.93554C7.68141 1.70226 6.94869 1.88171 6.65165 2.00732Z" fill="#F5EDDD"/>
<path d="M5.64896 4.26842C5.62244 4.27878 5.59793 4.29291 5.57634 4.31029C5.56158 4.33074 5.55371 4.35464 5.55371 4.37908C5.55371 4.40351 5.56158 4.42742 5.57634 4.44787C5.64235 4.57946 5.84039 4.61535 6.00542 4.61535C6.17045 4.61535 7.07479 4.49572 6.72493 4.20861C6.4873 4.0172 5.8932 4.17272 5.64896 4.26842Z" fill="#F5EDDD"/>
<path d="M22.112 3.49594H22.0262C22.0063 3.5097 21.9909 3.52809 21.9816 3.54915C21.9723 3.57022 21.9695 3.59318 21.9734 3.61558C21.9734 3.75315 22.1516 3.83689 22.3035 3.87278C22.4553 3.90867 23.3068 4.04624 23.0956 3.69932C22.9504 3.48997 22.3629 3.47202 22.112 3.49594Z" fill="#F5EDDD"/>
<path d="M20.6335 4.51358C20.6124 4.52938 20.5965 4.55004 20.5873 4.57339C20.5803 4.59465 20.5803 4.61731 20.5873 4.63857C20.5944 4.65983 20.6081 4.67876 20.6269 4.69301C20.6897 4.7356 20.7643 4.76152 20.8424 4.76786C20.9205 4.77419 20.999 4.76071 21.0692 4.7289C21.2342 4.67507 21.9867 4.33413 21.5708 4.17263C21.2936 4.06496 20.8183 4.35806 20.6335 4.51358Z" fill="#F5EDDD"/>
<path d="M23.6638 4.71657C23.6843 4.70592 23.7023 4.69168 23.7166 4.67469C23.7277 4.65855 23.7336 4.6399 23.7336 4.62086C23.7336 4.60183 23.7277 4.58318 23.7166 4.56703C23.6732 4.52392 23.618 4.49185 23.5566 4.47401C23.4953 4.45617 23.4298 4.45319 23.3668 4.46535C23.2149 4.46535 22.535 4.62685 22.8321 4.83022C23.1291 5.03359 23.4856 4.81227 23.6638 4.71657Z" fill="#F5EDDD"/>
<path d="M14.7586 5.99758C14.7596 5.98763 14.7596 5.97762 14.7586 5.96767C14.7697 5.95152 14.7756 5.93287 14.7756 5.91384C14.7756 5.8948 14.7697 5.87615 14.7586 5.86001C14.7151 5.81689 14.66 5.78482 14.5986 5.76698C14.5372 5.74915 14.4718 5.74616 14.4088 5.75831C14.2569 5.75831 13.577 5.91982 13.8741 6.11721C14.1711 6.31459 14.5474 6.0873 14.7586 5.99758Z" fill="#F5EDDD"/>
<path d="M16.6393 1.92857H16.7119C16.7287 1.91777 16.7423 1.9034 16.7515 1.88671C16.7607 1.87002 16.7652 1.85152 16.7647 1.83287C16.7647 1.71922 16.626 1.64146 16.5072 1.59959C16.3884 1.55772 15.6821 1.41417 15.8471 1.71324C15.9461 1.89268 16.428 1.94053 16.6393 1.92857Z" fill="#F5EDDD"/>
<path d="M7.74045 3.02967C7.76094 3.01902 7.77889 3.00479 7.79326 2.9878C7.80438 2.97165 7.81028 2.95299 7.81028 2.93396C7.81028 2.91493 7.80438 2.89628 7.79326 2.88013C7.7502 2.83652 7.69508 2.80411 7.63358 2.78623C7.57208 2.76836 7.50643 2.76567 7.4434 2.77845C7.29818 2.77845 6.61167 2.93995 6.90872 3.13734C7.20577 3.33473 7.55562 3.11939 7.74045 3.02967Z" fill="#F5EDDD"/>
<path d="M9.26675 2.20455C9.29056 2.21012 9.31555 2.21012 9.33936 2.20455C9.35616 2.19375 9.36977 2.17937 9.37898 2.16267C9.38819 2.14598 9.39272 2.1275 9.39217 2.10884C9.39217 1.9952 9.26016 1.91744 9.14134 1.87557C9.02252 1.8337 8.32281 1.6722 8.48123 1.97127C8.57365 2.1567 9.05552 2.21053 9.26675 2.20455Z" fill="#F5EDDD"/>
<path opacity="0.06" d="M1.76744 9.93867C1.82752 10.4981 1.94689 11.0509 2.1239 11.5895C2.34209 12.6847 2.85952 13.7129 3.62894 14.5803C4.41727 15.2634 5.35189 15.7927 6.37499 16.1355C11.4908 18.1333 17.4912 18.9408 22.9635 17.6906C23.5485 17.597 24.0954 17.3637 24.5478 17.0147C24.9297 16.6009 25.1212 16.0697 25.0824 15.5313C25.0366 14.4998 24.8413 13.4782 24.5015 12.4928C24.3813 11.745 23.9776 11.0584 23.3597 10.5509C22.7418 10.0434 21.9483 9.74654 21.1152 9.71137C18.2107 9.11322 15.1742 9.59773 12.1377 9.53193C9.38955 9.46994 6.68014 8.92978 4.15703 7.94086C3.45071 7.65973 2.69159 7.16327 2.17671 7.7973C1.70803 8.31769 1.71463 9.33454 1.76744 9.93867Z" fill="white"/>
</svg>
