<svg width="40" height="40" viewBox="0 0 40 40" fill="none" xmlns="http://www.w3.org/2000/svg">
<circle cx="20" cy="20" r="19.5" stroke="#F5A31A"/>
<path d="M19.487 16.3317C19.487 16.0524 19.6012 15.7983 19.7842 15.6153C19.9677 15.4318 20.2218 15.3182 20.5011 15.3182C20.7805 15.3182 21.034 15.4318 21.2176 15.6153C21.4005 15.7983 21.5147 16.0524 21.5147 16.3317V19.4928L22.8184 19.4951V19.4916C23.0978 19.4916 23.3507 19.6052 23.5343 19.7888C23.7173 19.974 23.8314 20.2275 23.8314 20.5046C23.8314 20.7839 23.7178 21.0369 23.5343 21.2204C23.3507 21.404 23.0978 21.5175 22.8184 21.5175V21.5141L20.5011 21.5112V21.5147C20.223 21.5147 19.9712 21.4005 19.7876 21.2176H19.7847C19.6012 21.034 19.4876 20.7799 19.4876 20.5006V16.3317H19.487ZM26.9735 20.504C26.9735 20.2247 27.0871 19.9717 27.2706 19.7882C27.4542 19.6046 27.7071 19.4911 27.9865 19.4911C28.2658 19.4911 28.5188 19.6046 28.7023 19.7882C28.8859 19.9717 28.9994 20.2247 28.9994 20.504H28.996C28.9954 21.6569 28.7665 22.7548 28.3524 23.7534C27.9222 24.791 27.2901 25.7271 26.5055 26.5118C25.7237 27.293 24.7876 27.9234 23.7465 28.3547C22.7427 28.77 21.646 29 20.5006 29C19.3545 29 18.2567 28.77 17.2523 28.3541C16.2119 27.9228 15.2746 27.2913 14.4917 26.5083C13.7099 25.7294 13.0789 24.7922 12.6459 23.7477C12.23 22.7433 12 21.6455 12 20.5C12 19.354 12.2294 18.2567 12.6459 17.2523C13.0783 16.2078 13.7093 15.2706 14.4899 14.4899C15.2746 13.7087 16.2113 13.0772 17.2518 12.6459C18.2561 12.23 19.354 12 20.5 12C20.7793 12 21.0329 12.1136 21.2164 12.2971C21.3994 12.4801 21.5135 12.7342 21.5135 13.0135C21.5135 13.2923 21.4 13.5464 21.2164 13.7305C21.0334 13.9135 20.7793 14.0276 20.5 14.0276C19.6184 14.0276 18.7815 14.2014 18.0221 14.5158C17.2317 14.8433 16.5193 15.3239 15.9233 15.9199L15.9205 15.9228C15.3245 16.5187 14.8433 17.2311 14.5163 18.021C14.202 18.7804 14.0282 19.6172 14.0282 20.4989C14.0282 21.3805 14.202 22.2179 14.5163 22.9768C14.8421 23.7637 15.3239 24.4761 15.9233 25.0755C17.094 26.2462 18.7127 26.9706 20.5 26.9706C21.3816 26.9706 22.2185 26.7974 22.9779 26.4831C23.7683 26.1562 24.4813 25.6749 25.079 25.0767C25.6738 24.4818 26.155 23.7689 26.4837 22.9756C26.8003 22.2116 26.9758 21.3753 26.9758 20.5023H26.9724L26.9735 20.504Z" fill="#F5A31A"/>
</svg>
