<svg width="30" height="30" viewBox="0 0 30 30" fill="none" xmlns="http://www.w3.org/2000/svg">
<path d="M22.6208 15.0002C22.6208 14.5148 23.0143 14.1213 23.4997 14.1213H25.3505C24.9272 9.09312 20.9073 5.07318 15.8791 4.6499V6.50076C15.8791 6.98615 15.4856 7.37967 15.0002 7.37967C14.5148 7.37967 14.1213 6.98615 14.1213 6.50076V4.6499C9.09312 5.07318 5.07318 9.09312 4.6499 14.1213H6.5007C6.98609 14.1213 7.37961 14.5148 7.37961 15.0002C7.37961 15.4856 6.98609 15.8791 6.5007 15.8791H4.6499C5.07318 20.9073 9.09312 24.9272 14.1213 25.3505V23.4996C14.1213 23.0142 14.5148 22.6207 15.0002 22.6207C15.4856 22.6207 15.8791 23.0142 15.8791 23.4996V25.3505C20.9073 24.9272 24.9272 20.9073 25.3505 15.8791H23.4997C23.0143 15.8791 22.6208 15.4856 22.6208 15.0002ZM20.3083 10.8032L15.6303 15.613C15.3046 15.9478 14.7737 15.9696 14.4218 15.6619L10.9297 12.6091C10.5642 12.2896 10.527 11.7344 10.8465 11.369C11.1659 11.0035 11.7212 10.9661 12.0867 11.2857L14.9513 13.7899L19.0482 9.57758C19.3866 9.22965 19.9431 9.22197 20.291 9.56029C20.639 9.89885 20.6467 10.4553 20.3083 10.8032V10.8032Z" fill="#7E992D"/>
<path d="M15 0C6.72897 0 0 6.72897 0 15C0 23.271 6.72897 30 15 30C23.271 30 30 23.271 30 15C30 6.72897 23.271 0 15 0ZM15 27.1457C8.30285 27.1457 2.85434 21.6971 2.85434 15C2.85434 8.30285 8.30285 2.85434 15 2.85434C21.6971 2.85434 27.1457 8.30285 27.1457 15C27.1457 21.6971 21.6971 27.1457 15 27.1457Z" fill="#7E992D"/>
</svg>
