<svg width="36" height="30" viewBox="0 0 36 30" fill="none" xmlns="http://www.w3.org/2000/svg">
<g clip-path="url(#clip0_941:8)">
<path d="M24.2263 10.0698V10.1211V10.143L24.1604 10.6507L24.0774 11.2755L24.0579 11.4195L21.8199 28.5035C21.8003 29.3284 19.8015 29.9996 17.3365 29.9996C15.8038 29.9996 14.4518 29.7409 13.6439 29.3455C13.5397 29.2956 13.4387 29.2393 13.3413 29.1771C13.262 29.1255 13.1877 29.0667 13.1192 29.0014C13.044 28.9424 12.9816 28.8687 12.9359 28.7847C12.8901 28.7008 12.862 28.6084 12.8532 28.5133L12.1552 23.2099L10.5932 11.2926L10.4346 10.0893L24.2263 10.0698Z" fill="#DE4352"/>
<path d="M24.2259 10.0698V10.1211V10.143L24.16 10.6507L24.077 11.2755L24.0575 11.4195L21.8195 28.5035C21.8 29.3284 19.8011 29.9996 17.3361 29.9996C15.8035 29.9996 14.4514 29.7409 13.6436 29.3455C13.7558 29.282 13.8656 29.2113 13.973 29.1381C15.34 28.2077 16.4891 26.992 17.341 25.5748C18.4491 23.8054 19.2007 21.7846 19.767 19.7174C20.102 18.537 20.3467 17.3327 20.4991 16.1151C20.6101 15.2035 20.6395 14.2839 20.587 13.367C20.5748 13.1718 20.5626 12.9766 20.5406 12.7813C20.5406 12.6861 20.5162 12.5909 20.5016 12.4933C20.4503 12.1394 20.3771 11.7782 20.321 11.417C20.299 11.2828 20.2819 11.151 20.2697 11.0168C20.2697 10.9655 20.2697 10.9191 20.2575 10.8679C20.2453 10.8166 20.2575 10.7678 20.2575 10.7166C20.2575 10.5897 20.2575 10.4725 20.2575 10.3334C20.2623 10.2515 20.2721 10.17 20.2868 10.0893L24.2259 10.0698Z" fill="#D6414F"/>
<path d="M18.2562 10.4437C18.2562 10.5755 18.2562 10.7097 18.2562 10.8415C18.2562 10.8757 18.2562 10.9123 18.2562 10.9464C18.2562 11.0392 18.2562 11.1344 18.2562 11.2296C18.2562 11.3247 18.2562 11.4736 18.2391 11.6005C18.2221 11.969 18.1977 12.3327 18.1708 12.7012C18.1513 12.9843 18.1244 13.2674 18.0976 13.5505C17.953 15.0304 17.7306 16.5017 17.4313 17.9582C17.2312 18.9345 16.9953 19.9001 16.7236 20.8552C16.4551 21.8168 16.1476 22.771 15.8083 23.7082C15.391 24.8553 14.9249 25.9828 14.4099 27.0787C14.1007 27.7409 13.7753 28.3917 13.4337 29.0311L13.358 29.1751C13.2787 29.1235 13.2044 29.0647 13.1359 28.9994C13.0607 28.9404 12.9983 28.8667 12.9526 28.7828C12.9068 28.6988 12.8787 28.6065 12.8699 28.5113L12.1719 23.2079C12.1865 21.8241 12.2329 20.4427 12.2817 19.0589C12.3525 16.8624 12.4574 14.5878 12.8772 12.423L12.9138 12.2424C12.9675 11.9715 13.0285 11.7006 13.0944 11.4297C13.116 11.347 13.142 11.2655 13.1725 11.1856C13.2173 11.0505 13.2728 10.9191 13.3385 10.7927C13.3851 10.6904 13.4407 10.5924 13.5044 10.4998C13.5034 10.4958 13.5034 10.4916 13.5044 10.4876C13.539 10.4283 13.5773 10.3712 13.6191 10.3168C13.6735 10.2395 13.7321 10.1653 13.7949 10.0947C13.9863 9.85933 14.2014 9.64425 14.4367 9.45281C14.6586 9.2847 14.9057 9.1529 15.1689 9.06232C16.006 8.77433 16.8553 9.02571 17.7242 9.43573C17.8752 9.49387 18.0094 9.58864 18.1147 9.71151C18.1854 9.81725 18.229 9.9388 18.2416 10.0654C18.2564 10.1909 18.2613 10.3174 18.2562 10.4437Z" fill="#E84656"/>
<path d="M24.0673 10.8113C24.062 10.9834 24.0133 11.1513 23.9258 11.2995C23.8696 11.4033 23.8034 11.5014 23.7281 11.5923C23.7138 11.6134 23.6974 11.633 23.6793 11.6509C23.3333 12.0644 22.9209 12.4174 22.459 12.6955C21.967 12.9972 21.4345 13.2273 20.8775 13.3788C20.6725 13.4374 20.4675 13.4838 20.2576 13.5253C19.4293 13.6691 18.5893 13.7353 17.7487 13.723H17.6559C16.8571 13.7389 16.0585 13.685 15.269 13.5619C14.3049 13.3925 13.3759 13.0625 12.521 12.5856C12.3208 12.4783 12.128 12.3611 11.9377 12.2366C11.7473 12.1122 11.6009 12.0072 11.4495 11.8852C10.6881 11.3141 10.8052 10.9919 11.247 10.8162C11.5336 10.7224 11.8316 10.6674 12.1329 10.6527C12.4742 10.6294 12.8167 10.6294 13.1579 10.6527H13.2312C13.2922 10.6527 13.3459 10.6527 13.3947 10.6673C14.0618 10.7503 14.7297 10.8187 15.3984 10.8724C15.6644 10.8943 15.9329 10.9138 16.1989 10.9309C16.7781 10.97 17.3566 10.9976 17.9342 11.0139C18.2685 11.0139 18.6053 11.0286 18.9421 11.031C19.2789 11.0334 19.606 11.031 19.9379 11.031C20.199 11.031 20.4577 11.031 20.7189 11.0139C21.3436 10.9976 21.9676 10.9675 22.5908 10.9236H22.6567C23.052 10.8968 23.445 10.8675 23.8379 10.8284L24.0673 10.8113Z" fill="#B53742"/>
<path opacity="0.06" d="M13.2627 20.2646C13.3142 20.9027 13.4899 21.5245 13.7801 22.0951C14.0974 22.6344 14.6758 23.0298 15.2445 22.898C15.8571 22.7516 16.2207 22.0755 16.4892 21.4337C17.1725 19.7253 17.4825 17.8387 17.6606 15.9692C17.721 15.6012 17.7035 15.2245 17.6094 14.8636C17.4481 14.4498 17.1407 14.1094 16.7454 13.9069C15.8473 13.3944 13.0333 12.4646 12.7966 14.151C12.5232 16.0351 13.0016 18.4 13.2627 20.2646Z" fill="white"/>
<path opacity="0.06" d="M14.3733 27.0665C14.4072 27.1287 14.4543 27.1827 14.5112 27.2248C14.5681 27.267 14.6334 27.2962 14.7028 27.3106C14.7692 27.3032 14.8332 27.2812 14.8902 27.2461C14.9471 27.2111 14.9956 27.164 15.0323 27.108C15.4886 26.5564 15.6644 25.7901 15.8206 25.0579C15.9145 24.7232 15.9459 24.3741 15.9133 24.028C15.9015 23.9117 15.8576 23.801 15.7864 23.7083C15.7268 23.6496 15.6564 23.6032 15.5789 23.5716C15.1479 23.3645 14.6953 23.2057 14.2293 23.0981C13.3141 22.8907 13.6265 24.028 13.6875 24.6943C13.7632 25.529 13.9047 26.388 14.3733 27.0665Z" fill="white"/>
<path d="M24.6728 10.3244C24.6728 10.6076 24.1237 11.33 24.048 11.4203L21.81 28.5043C21.7905 29.3292 19.7917 30.0004 17.3267 30.0004C15.794 30.0004 14.4419 29.7417 13.6341 29.3463C13.5299 29.2964 13.4288 29.2401 13.3315 29.1779C13.2522 29.1263 13.1778 29.0675 13.1094 29.0022C13.2092 29.0067 13.3086 29.0173 13.4071 29.0339L13.5023 29.0534C13.6561 29.0852 13.8098 29.1145 13.9636 29.1389C15.2522 29.3488 16.5945 29.3365 17.788 28.8338C19.4305 28.1407 20.5897 26.5958 21.217 24.9289C21.8442 23.2619 22.0102 21.4608 22.1712 19.6865L22.469 16.3014C22.5569 15.2935 22.6496 14.2831 22.7399 13.2751C22.7619 13.031 22.7716 12.787 22.7814 12.5234C22.7814 12.3208 22.7936 12.1183 22.8009 11.9157C22.8106 11.62 22.8367 11.325 22.879 11.0322C22.8958 10.9325 22.9262 10.8356 22.9693 10.7442L22.984 10.7149C23.0906 10.5296 23.2448 10.3761 23.4305 10.2701C23.6163 10.1642 23.8269 10.1096 24.0407 10.1121C24.0772 10.1085 24.114 10.1085 24.1505 10.1121H24.2189C24.3741 10.1278 24.5253 10.1708 24.6655 10.239C24.6728 10.2756 24.6728 10.3 24.6728 10.3244Z" fill="#B53742"/>
<path d="M24.6874 10.4431C24.6774 10.5999 24.6341 10.7529 24.5605 10.8917C24.4869 11.0306 24.3845 11.1522 24.2603 11.2485C24.2042 11.2997 24.1456 11.3485 24.0821 11.3973C23.7867 11.6053 23.4671 11.7765 23.1303 11.9074H23.1181C23.0254 11.9465 22.9253 11.9855 22.8252 12.0221H22.7959C22.0573 12.276 21.2966 12.4606 20.5238 12.5737H20.4823C20.3358 12.5957 20.187 12.6176 20.0357 12.6323C19.4475 12.7104 18.8154 12.7616 18.1735 12.7836H17.9978C17.7879 12.7836 17.5707 12.7836 17.3535 12.7836C15.8579 12.7976 14.366 12.6338 12.9092 12.2955L12.692 12.2393L12.2917 12.1246C11.6899 11.9591 11.1199 11.6943 10.6053 11.3412C10.2172 11.0508 10 10.7286 10 10.3894C9.99984 10.2925 10.0181 10.1964 10.0537 10.1063L10.205 9.30089L10.4662 9.54495C10.6738 9.37228 10.9007 9.22406 11.1422 9.1032C11.3402 9.00203 11.544 8.9124 11.7523 8.83474C12.2659 8.6426 12.7939 8.49162 13.3314 8.38323C14.156 8.20979 14.992 8.09561 15.833 8.04155C16.3211 8.00738 16.8312 7.9903 17.3535 7.9903C18.3735 7.98777 19.3924 8.06037 20.4017 8.20751L20.6702 8.24656C20.8947 8.28561 21.1168 8.3271 21.3267 8.37347C21.9089 8.48797 22.4804 8.65125 23.0351 8.86158L23.2914 8.97141L23.4622 9.04707L23.5135 9.07391H23.5257C23.616 9.12029 23.7038 9.16666 23.7868 9.21791C23.9205 9.29274 24.0479 9.37845 24.1676 9.47417C24.2237 9.52054 24.2774 9.56691 24.3213 9.61084L24.5825 9.28136L24.685 10.199C24.685 10.2332 24.6972 10.2674 24.702 10.3015C24.7021 10.3491 24.6972 10.3965 24.6874 10.4431Z" fill="#F0E4C9"/>
<path d="M22.003 9.01105C22.003 9.31124 21.4075 9.55529 20.6753 9.55529C19.9432 9.55529 19.3477 9.31124 19.3477 9.01105C19.3477 8.71085 19.9432 8.46436 20.6753 8.46436C21.4075 8.46436 22.003 8.70841 22.003 9.01105Z" fill="#DED3BA"/>
<path d="M24.6869 10.443C24.6769 10.5998 24.6336 10.7528 24.56 10.8916C24.4863 11.0305 24.384 11.1521 24.2598 11.2484C24.2036 11.2996 24.1451 11.3484 24.0816 11.3972C23.6925 11.669 23.2669 11.8843 22.8174 12.0367C22.8345 11.756 22.8491 11.4778 22.8638 11.1995C22.8857 11.0272 22.8955 10.8535 22.893 10.6797C22.8808 10.5504 22.8149 10.4478 22.8711 10.3185C22.9108 10.2325 22.9663 10.1547 23.0346 10.0891L23.5227 9.52531C23.5995 9.43953 23.681 9.35806 23.7668 9.28125C23.9005 9.35608 24.0278 9.44179 24.1475 9.53751C24.2036 9.58388 24.2573 9.63025 24.3013 9.67418L24.5624 9.3447L24.6649 10.2624C24.6649 10.2965 24.6771 10.3307 24.682 10.3649C24.6851 10.3908 24.6867 10.4169 24.6869 10.443Z" fill="#C9BFA8"/>
<path d="M23.2035 10.9438C23.2035 11.1659 23.1889 11.3905 23.1718 11.6101C23.1657 11.7135 23.1518 11.8163 23.1303 11.9176H23.1181C23.0254 11.9567 22.9253 11.9957 22.8252 12.0323H22.796C22.0573 12.2862 21.2966 12.4708 20.5238 12.5839H20.4823V12.5571C20.4721 12.198 20.4826 11.8386 20.514 11.4808C20.5555 11.2147 20.8142 11.1391 21.0021 11.0415C21.5434 10.7603 22.1258 10.5667 22.7276 10.4679C22.7988 10.4437 22.8754 10.4402 22.9484 10.4579C23.0215 10.4756 23.088 10.5138 23.1401 10.568C23.2027 10.6826 23.2251 10.815 23.2035 10.9438Z" fill="#E3D7BF"/>
<path d="M18.1713 11.6978C18.1224 12.0737 18.0639 12.452 17.9882 12.8254C17.7783 12.8254 17.5611 12.8254 17.3439 12.8254C15.8484 12.8394 14.3565 12.6756 12.8996 12.3372L12.6824 12.2811C12.6288 12.0553 12.5977 11.8248 12.5897 11.5929C12.5508 11.3438 12.5508 11.0902 12.5897 10.8412C12.6751 10.6288 12.9899 10.6313 13.1803 10.641L15.4573 10.7704C16.2035 10.7861 16.9461 10.8785 17.6734 11.0462C17.876 11.1023 18.1029 11.1902 18.1615 11.3879C18.1898 11.4889 18.1932 11.5952 18.1713 11.6978Z" fill="#FFF1D6"/>
<path d="M17.3823 11.7376C21.3532 11.7376 24.5723 10.669 24.5723 9.35075C24.5723 8.03251 21.3532 6.96387 17.3823 6.96387C13.4114 6.96387 10.1924 8.03251 10.1924 9.35075C10.1924 10.669 13.4114 11.7376 17.3823 11.7376Z" fill="#F2EADA"/>
<path d="M17.3216 11.3736C20.7493 11.3736 23.528 10.4503 23.528 9.31131C23.528 8.17234 20.7493 7.24902 17.3216 7.24902C13.8939 7.24902 11.1152 8.17234 11.1152 9.31131C11.1152 10.4503 13.8939 11.3736 17.3216 11.3736Z" fill="#FFFAF0"/>
<path d="M17.376 11.0876C20.5274 11.0876 23.0821 10.2386 23.0821 9.19125C23.0821 8.14394 20.5274 7.29492 17.376 7.29492C14.2246 7.29492 11.6699 8.14394 11.6699 9.19125C11.6699 10.2386 14.2246 11.0876 17.376 11.0876Z" fill="#F2EADA"/>
<path d="M21.7048 8.97935C21.7048 9.2112 21.2167 9.39913 20.6017 9.39913C19.9867 9.39913 19.501 9.2112 19.501 8.97935C19.501 8.74749 19.9891 8.55713 20.6017 8.55713C21.2143 8.55713 21.7048 8.73529 21.7048 8.97935Z" fill="#FFF7E6"/>
<path d="M21.1834 8.9082L24.4855 9.02535C24.5266 9.06976 24.5525 9.12607 24.5596 9.18616C24.5666 9.24626 24.5543 9.30703 24.5246 9.35971C24.4318 9.57204 20.6807 9.22304 20.6807 9.22304L21.1834 8.9082Z" fill="#D4C9B2"/>
<path opacity="0.43" d="M21.3202 9.26913C21.3714 9.25941 21.4193 9.23673 21.4593 9.20323C21.4804 9.1848 21.4963 9.16108 21.5053 9.1345C21.5143 9.10791 21.5161 9.07942 21.5105 9.05192C21.4904 9.00077 21.4509 8.95959 21.4007 8.93721C21.1835 8.81762 20.3391 8.57356 20.1999 8.93721C20.0315 9.37651 21.142 9.31794 21.3202 9.26913Z" fill="#C4BBA5"/>
<path d="M27.2432 1.37161L22.3523 2.86768L21.2101 8.88859L21.2028 8.92763L20.6 8.92031L20.2607 8.91299L20.2705 8.8593L21.4884 1.96955L27.1261 0L27.1871 0.734614L27.2432 1.37161Z" fill="#C4C300"/>
<path d="M21.2103 8.88857C21.2103 9.06917 21.0102 9.22781 20.7466 9.24245C20.702 9.24737 20.657 9.24737 20.6124 9.24245C20.4123 9.21561 20.261 9.09846 20.2561 8.94714C20.2547 8.91795 20.2597 8.88881 20.2707 8.86172C20.3027 8.79242 20.3516 8.73234 20.4131 8.68709C20.4746 8.64185 20.5465 8.61293 20.6222 8.60302C20.6543 8.59576 20.6869 8.59087 20.7198 8.58838C20.9858 8.5713 21.203 8.70553 21.2103 8.88857Z" fill="#C4C300"/>
<path d="M27.2423 1.37185L22.3612 2.86793L21.219 8.88883C21.219 9.06944 21.0188 9.22807 20.7553 9.24272C20.7106 9.24763 20.6656 9.24763 20.621 9.24272C20.6059 9.13604 20.6018 9.02808 20.6088 8.92056V8.79365L20.6235 8.60329C20.7517 6.94858 21.056 5.31227 21.5314 3.72213C21.6173 3.36248 21.7669 3.02112 21.9731 2.71417C22.3441 2.22606 22.9322 2.02349 23.4863 1.85265L25.3289 1.27667C25.8048 1.1278 26.2807 0.978922 26.7615 0.856893C26.8933 0.822725 27.0397 0.778795 27.1886 0.737305L27.2423 1.37185Z" fill="#A3A200"/>
<path d="M27.4402 0.681151C27.4573 1.06676 27.3426 1.38648 27.1962 1.39624C27.0497 1.406 26.8838 1.10337 26.8838 0.71776C26.8838 0.332148 26.9814 0.00999199 27.1278 0.000229677C27.2743 -0.00953263 27.4232 0.293099 27.4402 0.681151Z" fill="#F0EE00"/>
<path d="M27.3724 0.681222C27.3846 1.00338 27.2894 1.27184 27.1576 1.2816C27.0258 1.29137 26.9136 1.03755 26.8965 0.712949C26.8794 0.388353 26.977 0.12233 27.1088 0.112567C27.2406 0.102805 27.3724 0.366388 27.3724 0.681222Z" fill="#949300"/>
<path opacity="0.29" d="M24.2338 1.16871C24.0898 1.24437 23.9287 1.36152 23.9238 1.53968C24.7445 1.40505 25.5486 1.18418 26.3229 0.880722C26.567 0.78798 26.667 0.504873 26.3424 0.475586C26.161 0.477514 25.9818 0.515684 25.8153 0.587853C25.2712 0.731764 24.7417 0.926229 24.2338 1.16871Z" fill="#F0EE00"/>
<path opacity="0.29" d="M20.9482 5.4651C20.9482 5.54808 20.9482 5.66523 21.0239 5.67011C21.0996 5.67499 21.102 5.62862 21.1288 5.58713C21.2285 5.41534 21.3103 5.23379 21.3729 5.04532C21.5739 4.46076 21.7442 3.86607 21.883 3.2637C21.9424 3.03117 21.9848 2.79462 22.0099 2.55593C22.0196 2.50596 22.0196 2.45458 22.0099 2.40461C21.9367 2.17276 21.6048 2.24842 21.5218 2.4217C21.4225 2.71223 21.3594 3.01388 21.3339 3.31983C21.1825 4.02923 21.054 4.74431 20.9482 5.4651Z" fill="#F0EE00"/>
<path opacity="0.28" d="M13.2904 8.32482C12.9585 8.50542 12.6022 8.77145 12.5583 9.18146C12.5491 9.33681 12.5784 9.492 12.6436 9.63333C12.7087 9.77466 12.8077 9.89775 12.9317 9.99173C13.1706 10.1575 13.4417 10.2714 13.7273 10.3261C14.4971 10.5183 15.2791 10.6578 16.0678 10.7434C16.334 10.7955 16.6097 10.7657 16.8586 10.658C16.9854 10.5894 17.0846 10.479 17.1394 10.3455C17.1941 10.2121 17.2009 10.0638 17.1588 9.92584C17.0965 9.81945 17.0098 9.72943 16.9058 9.66322C16.8018 9.59701 16.6836 9.55652 16.5608 9.54511L15.8287 9.36207C15.6007 9.32431 15.3849 9.23315 15.199 9.09604C15.1038 9.01692 15.0336 8.91177 14.9972 8.79344C14.9608 8.67511 14.9597 8.54873 14.994 8.42976C15.2325 8.27227 15.4994 8.16284 15.7798 8.10761C16.1923 7.02643 13.5467 8.18327 13.2904 8.32482Z" fill="white"/>
</g>
<defs>
<clipPath id="clip0_941:8">
<rect width="36" height="30" fill="white"/>
</clipPath>
</defs>
</svg>
