<svg width="34" height="25" viewBox="0 0 34 25" fill="none" xmlns="http://www.w3.org/2000/svg">
<path d="M33.7094 11.7409L23.51 0.377272C23.2924 0.136363 22.9887 0 22.6668 0H15.8672C15.4207 0 15.015 0.263636 14.8314 0.672727C14.6501 1.08409 14.7249 1.56364 15.0241 1.89545L24.5413 12.5L15.0241 23.1023C14.7249 23.4364 14.6478 23.9159 14.8314 24.325C15.015 24.7364 15.4207 25 15.8672 25H22.6668C22.9887 25 23.2924 24.8614 23.51 24.625L33.7094 13.2614C34.097 12.8295 34.097 12.1705 33.7094 11.7409Z" fill="#4FD975"/>
<path d="M18.9768 11.7409L8.77733 0.377272C8.55974 0.136363 8.25603 0 7.93418 0H1.13455C0.688037 0 0.282326 0.263636 0.0987358 0.672727C-0.0825877 1.08409 -0.00779176 1.56364 0.291392 1.89545L9.80861 12.5L0.291392 23.1023C-0.00779176 23.4364 -0.0848543 23.9159 0.0987358 24.325C0.282326 24.7364 0.688037 25 1.13455 25H7.93418C8.25603 25 8.55974 24.8614 8.77733 24.625L18.9768 13.2614C19.3644 12.8295 19.3644 12.1705 18.9768 11.7409Z" fill="#4FD975"/>
</svg>
