<svg width="12" height="20" viewBox="0 0 12 20" fill="none" xmlns="http://www.w3.org/2000/svg">
<path d="M10.6247 0.801698L8.03842 0.797852C5.13282 0.797852 3.2551 2.58337 3.2551 5.34694V7.44438H0.654714C0.43001 7.44438 0.248047 7.61322 0.248047 7.82148V10.8604C0.248047 11.0687 0.430217 11.2373 0.654714 11.2373H3.2551V18.9056C3.2551 19.1138 3.43706 19.2825 3.66177 19.2825H7.05453C7.27924 19.2825 7.4612 19.1136 7.4612 18.9056V11.2373H10.5017C10.7264 11.2373 10.9083 11.0687 10.9083 10.8604L10.9096 7.82148C10.9096 7.72148 10.8666 7.62572 10.7905 7.55495C10.7143 7.48418 10.6106 7.44438 10.5027 7.44438H7.4612V5.66635C7.4612 4.81176 7.68092 4.37793 8.88204 4.37793L10.6243 4.37736C10.8488 4.37736 11.0307 4.20851 11.0307 4.00044V1.17861C11.0307 0.970731 10.849 0.802082 10.6247 0.801698Z" fill="#7E992D"/>
</svg>
