<svg width="36" height="30" viewBox="0 0 36 30" fill="none" xmlns="http://www.w3.org/2000/svg">
<path d="M0 13.3257L5.84635 23.1849C5.84635 23.1849 9.6777 25.6451 16.572 25.9933C22.3264 26.2865 27.2977 25.2923 29.2538 23.5377L34.9604 14.7597L0 13.3257Z" fill="#D3D4D4"/>
<path d="M0 12.8164C0 12.8164 0.558894 4.20794 14.0165 3.16796C29.5737 1.96763 35.7326 7.41035 35.3134 12.8164C34.9163 17.911 27.18 20.9576 20.9733 20.9576C6.60013 20.9576 0.827312 17.6178 0 12.8164Z" fill="#F3F3F3"/>
<path d="M4.00796 13.4213C4.00796 13.4213 1.89372 7.0485 15.9213 5.63284C25.849 4.62951 32.508 9.65074 31.5924 12.6561C31.5924 12.6561 32.2726 17.8057 18.1201 17.517C5.50447 17.2605 4.00796 13.4213 4.00796 13.4213Z" fill="#4C3026"/>
<path d="M31.1363 11.2954C28.9522 13.0363 26.143 13.5861 23.4845 13.6457C21.938 14.2742 20.3298 14.6365 18.7045 14.7223C13.9466 14.8735 8.61867 14.8368 4.09971 12.8164C4.0603 13.0149 4.03444 13.2173 4.02246 13.4212C4.02246 13.4212 5.51898 17.2604 18.1346 17.517C32.2871 17.8056 31.6069 12.6561 31.6069 12.6561C31.5074 12.175 31.3486 11.716 31.1363 11.2954V11.2954Z" fill="#35190D"/>
<path d="M22.8896 8.33133C25.4193 8.81696 27.9049 9.61871 30.4163 10.1639C28.3278 7.47919 23.6066 5.38091 15.9145 5.63747C10.5241 5.81615 7.57512 7.47003 5.96094 9.19723C9.2849 7.93734 15.6423 6.94774 22.8896 8.33133Z" fill="#6E584B"/>
</svg>
