<svg width="13" height="13" viewBox="0 0 13 13" fill="none" xmlns="http://www.w3.org/2000/svg">
<g clip-path="url(#clip0_998:406)">
<path d="M12.9309 6.26028C12.9309 5.88331 12.8955 5.50599 12.8255 5.13966C12.7939 4.97384 12.6487 4.854 12.4801 4.854H6.95435C6.76003 4.854 6.60278 5.01125 6.60278 5.20557V7.31494C6.60278 7.50926 6.76003 7.6665 6.95435 7.6665H9.78951C9.61286 8.02411 9.36942 8.3344 9.08355 8.59545L11.0706 10.5825C12.2139 9.49322 12.9309 7.96041 12.9309 6.26028Z" fill="#7E992D"/>
<path d="M6.93075 3.07275C7.62049 3.07275 8.27658 3.2918 8.82795 3.70653C8.96733 3.81125 9.16406 3.79854 9.28765 3.6739L10.788 2.17357C10.8577 2.10387 10.8951 2.00808 10.8906 1.90955C10.8862 1.81102 10.8409 1.719 10.7653 1.65549C9.69176 0.755676 8.32978 0.260254 6.93075 0.260254C4.87179 0.260254 3.05283 1.30683 1.97754 2.89585L4.04116 4.95947C4.53349 3.8505 5.6412 3.07275 6.93075 3.07275Z" fill="#7E992D"/>
<path d="M6.93075 12.2603C8.27285 12.2603 9.50871 11.8103 10.5074 11.0606L8.48304 9.03624C8.02034 9.29677 7.49149 9.44775 6.93075 9.44775C5.6412 9.44775 4.53349 8.67 4.04116 7.56104L1.97754 9.62466C3.05283 11.2137 4.87179 12.2603 6.93075 12.2603Z" fill="#7E992D"/>
<path d="M3.7946 6.76662C3.76767 6.6007 3.74341 6.43362 3.74341 6.26025C3.74341 6.08688 3.76767 5.9198 3.7946 5.75388L1.58856 3.54785C1.17119 4.36301 0.930908 5.28328 0.930908 6.26025C0.930908 7.23722 1.17119 8.15749 1.58859 8.97262L3.7946 6.76662Z" fill="#7E992D"/>
</g>
<defs>
<clipPath id="clip0_998:406">
<rect width="12" height="12" fill="white" transform="translate(0.930908 0.260254)"/>
</clipPath>
</defs>
</svg>
