<svg width="18" height="31" viewBox="0 0 18 31" fill="none" xmlns="http://www.w3.org/2000/svg">
<path d="M14.2263 10.9805V11.0317V11.0537L14.1604 11.5613L14.0774 12.1861L14.0579 12.3301L11.8199 29.4142C11.8003 30.2391 9.80151 30.9102 7.33652 30.9102C5.80384 30.9102 4.45176 30.6515 3.64393 30.2561C3.53973 30.2062 3.43867 30.15 3.3413 30.0877C3.262 30.0362 3.18766 29.9773 3.11921 29.912C3.04401 29.853 2.98163 29.7793 2.93589 29.6954C2.89015 29.6115 2.86201 29.5191 2.85318 29.4239L2.15517 24.1205L0.593206 12.2032L0.43457 11L14.2263 10.9805Z" fill="#DE4352"/>
<path d="M14.2259 10.9805V11.0317V11.0537L14.16 11.5613L14.077 12.1861L14.0575 12.3301L11.8195 29.4142C11.8 30.2391 9.80113 30.9102 7.33615 30.9102C5.80347 30.9102 4.45139 30.6515 3.64355 30.2561C3.75582 30.1927 3.86565 30.1219 3.97303 30.0487C5.34005 29.1183 6.4891 27.9027 7.34103 26.4855C8.44905 24.716 9.20075 22.6952 9.76696 20.6281C10.102 19.4476 10.3467 18.2434 10.4991 17.0258C10.6101 16.1142 10.6395 15.1945 10.587 14.2777C10.5748 14.0824 10.5626 13.8872 10.5406 13.692C10.5406 13.5968 10.5162 13.5016 10.5016 13.404C10.4503 13.0501 10.3771 12.6889 10.321 12.3277C10.299 12.1934 10.2819 12.0616 10.2697 11.9274C10.2697 11.8762 10.2697 11.8298 10.2575 11.7785C10.2453 11.7273 10.2575 11.6785 10.2575 11.6272C10.2575 11.5003 10.2575 11.3832 10.2575 11.2441C10.2623 11.1622 10.2721 11.0807 10.2868 11L14.2259 10.9805Z" fill="#D6414F"/>
<path d="M8.25623 11.3543C8.25623 11.4861 8.25623 11.6204 8.25623 11.7521C8.25623 11.7863 8.25623 11.8229 8.25623 11.8571C8.25623 11.9498 8.25623 12.045 8.25623 12.1402C8.25623 12.2354 8.25623 12.3843 8.23915 12.5112C8.22206 12.8797 8.19766 13.2433 8.17081 13.6119C8.15129 13.895 8.12444 14.1781 8.0976 14.4612C7.95298 15.9411 7.73058 17.4123 7.43132 18.8689C7.23119 19.8451 6.99527 20.8108 6.72355 21.7658C6.45509 22.7274 6.14757 23.6817 5.80833 24.6189C5.391 25.7659 4.92485 26.8935 4.40989 27.9893C4.10075 28.6515 3.77534 29.3023 3.43366 29.9418L3.35799 30.0858C3.2787 30.0342 3.20436 29.9753 3.13591 29.91C3.06071 29.851 2.99833 29.7773 2.95259 29.6934C2.90685 29.6095 2.8787 29.5171 2.86988 29.4219L2.17188 24.1186C2.18652 22.7347 2.23289 21.3534 2.2817 19.9696C2.35248 17.7731 2.45742 15.4984 2.8772 13.3336L2.91381 13.153C2.96751 12.8821 3.02852 12.6112 3.09441 12.3403C3.11597 12.2576 3.14204 12.1761 3.17251 12.0963C3.21732 11.9611 3.27282 11.8297 3.33847 11.7033C3.38512 11.601 3.44065 11.503 3.50443 11.4105C3.5034 11.4065 3.5034 11.4023 3.50443 11.3983C3.53897 11.3389 3.57729 11.2819 3.61914 11.2274C3.67347 11.1501 3.73214 11.076 3.79486 11.0053C3.9863 10.77 4.20138 10.5549 4.43673 10.3635C4.65857 10.1953 4.90571 10.0635 5.1689 9.97296C6.00602 9.68498 6.85534 9.93636 7.72419 10.3464C7.8752 10.4045 8.00939 10.4993 8.11468 10.6222C8.18544 10.7279 8.22903 10.8494 8.24159 10.976C8.25642 11.1016 8.26131 11.228 8.25623 11.3543Z" fill="#E84656"/>
<path d="M14.0673 11.722C14.062 11.894 14.0133 12.0619 13.9258 12.2101C13.8696 12.3139 13.8034 12.412 13.7281 12.503C13.7138 12.5241 13.6974 12.5437 13.6793 12.5615C13.3333 12.9751 12.9209 13.3281 12.459 13.6061C11.967 13.9079 11.4345 14.138 10.8775 14.2895C10.6725 14.348 10.4675 14.3944 10.2576 14.4359C9.42926 14.5798 8.58931 14.6459 7.74867 14.6336H7.65593C6.85713 14.6495 6.05847 14.5956 5.26905 14.4725C4.30485 14.3031 3.37592 13.9731 2.52095 13.4963C2.32083 13.3889 2.12802 13.2718 1.93766 13.1473C1.74729 13.0228 1.60086 12.9179 1.44954 12.7958C0.688084 12.2247 0.805227 11.9026 1.24697 11.7269C1.53365 11.633 1.83161 11.578 2.1329 11.5634C2.47419 11.5401 2.81666 11.5401 3.15795 11.5634H3.23116C3.29218 11.5634 3.34587 11.5634 3.39468 11.578C4.06178 11.661 4.72968 11.7293 5.3984 11.783C5.66442 11.805 5.93288 11.8245 6.19891 11.8416C6.77814 11.8806 7.35655 11.9083 7.93415 11.9246C8.26851 11.9246 8.60531 11.9392 8.94211 11.9416C9.27891 11.9441 9.60596 11.9416 9.93787 11.9416C10.199 11.9416 10.4577 11.9416 10.7189 11.9246C11.3436 11.9083 11.9676 11.8782 12.5908 11.8343H12.6567C13.052 11.8074 13.445 11.7781 13.8379 11.7391L14.0673 11.722Z" fill="#B53742"/>
<path opacity="0.06" d="M3.26321 21.1753C3.31467 21.8133 3.49043 22.4351 3.78062 23.0057C4.09789 23.5451 4.67631 23.9405 5.24496 23.8087C5.85755 23.6622 6.22119 22.9862 6.48966 22.3443C7.17302 20.6359 7.48297 18.7493 7.66113 16.8799C7.72146 16.5118 7.704 16.1352 7.60988 15.7743C7.4486 15.3604 7.14122 15.0201 6.74592 14.8176C5.84778 14.3051 3.0338 13.3752 2.79706 15.0616C2.52372 16.9458 3.00207 19.3107 3.26321 21.1753Z" fill="white"/>
<path opacity="0.06" d="M4.3733 27.9772C4.40723 28.0393 4.45428 28.0933 4.51117 28.1355C4.56807 28.1776 4.63345 28.2069 4.70278 28.2212C4.76923 28.2138 4.83322 28.1918 4.89017 28.1568C4.94713 28.1218 4.99565 28.0746 5.03226 28.0187C5.48865 27.4671 5.66437 26.7008 5.82057 25.9686C5.91451 25.6339 5.94594 25.2847 5.91331 24.9387C5.9015 24.8224 5.85756 24.7117 5.7864 24.6189C5.72685 24.5603 5.65637 24.5138 5.57895 24.4823C5.14793 24.2751 4.69529 24.1163 4.22931 24.0088C3.31409 23.8013 3.62649 24.9387 3.6875 25.6049C3.76316 26.4396 3.90471 27.2987 4.3733 27.9772Z" fill="white"/>
<path d="M14.6728 11.2351C14.6728 11.5182 14.1237 12.2406 14.048 12.3309L11.81 29.415C11.7905 30.2399 9.79168 30.911 7.32669 30.911C5.79401 30.911 4.44193 30.6523 3.6341 30.257C3.5299 30.207 3.42884 30.1508 3.33147 30.0886C3.25217 30.037 3.17782 29.9781 3.10938 29.9128C3.20918 29.9174 3.30861 29.928 3.40713 29.9446L3.50231 29.9641C3.65607 29.9958 3.80982 30.0251 3.96358 30.0495C5.2522 30.2594 6.59452 30.2472 7.78797 29.7444C9.43048 29.0513 10.5897 27.5064 11.217 25.8395C11.8442 24.1726 12.0102 22.3714 12.1712 20.5971L12.469 17.2121C12.5569 16.2041 12.6496 15.1937 12.7399 14.1857C12.7619 13.9417 12.7716 13.6976 12.7814 13.4341C12.7814 13.2315 12.7936 13.0289 12.8009 12.8263C12.8106 12.5306 12.8367 12.2357 12.879 11.9429C12.8958 11.8432 12.9262 11.7463 12.9693 11.6549L12.984 11.6256C13.0906 11.4403 13.2448 11.2867 13.4305 11.1808C13.6163 11.0748 13.8269 11.0203 14.0407 11.0228C14.0772 11.0191 14.114 11.0191 14.1505 11.0228H14.2189C14.3741 11.0385 14.5253 11.0814 14.6655 11.1497C14.6728 11.1863 14.6728 11.2107 14.6728 11.2351Z" fill="#B53742"/>
<path d="M14.6874 11.3537C14.6774 11.5106 14.6341 11.6635 14.5605 11.8024C14.4869 11.9412 14.3845 12.0628 14.2603 12.1591C14.2042 12.2104 14.1456 12.2592 14.0821 12.308C13.7867 12.5159 13.4671 12.6872 13.1303 12.8181H13.1181C13.0254 12.8571 12.9253 12.8962 12.8252 12.9328H12.7959C12.0573 13.1866 11.2966 13.3713 10.5238 13.4843H10.4823C10.3358 13.5063 10.187 13.5283 10.0357 13.5429C9.44748 13.621 8.81537 13.6723 8.17349 13.6942H7.99777C7.78788 13.6942 7.57067 13.6942 7.35346 13.6942C5.85792 13.7083 4.36601 13.5444 2.90917 13.2061L2.69196 13.15L2.2917 13.0353C1.68991 12.8697 1.11994 12.6049 0.60526 12.2519C0.217208 11.9614 1.11063e-06 11.6393 1.11063e-06 11.3C-0.000163883 11.2031 0.018056 11.107 0.0536941 11.0169L0.205009 10.2115L0.466152 10.4556C0.673828 10.2829 0.900661 10.1347 1.14219 10.0138C1.34023 9.91268 1.54395 9.82304 1.75233 9.74538C2.26588 9.55324 2.7939 9.40227 3.33139 9.29388C4.15603 9.12044 4.99203 9.00625 5.83298 8.95219C6.3211 8.91803 6.83118 8.90094 7.35346 8.90094C8.37351 8.89841 9.39236 8.97101 10.4017 9.11815L10.6702 9.1572C10.8947 9.19625 11.1168 9.23774 11.3267 9.28411C11.9089 9.39862 12.4804 9.5619 13.0351 9.77223L13.2914 9.88206L13.4622 9.95771L13.5135 9.98456H13.5257C13.616 10.0309 13.7038 10.0773 13.7868 10.1286C13.9205 10.2034 14.0479 10.2891 14.1676 10.3848C14.2237 10.4312 14.2774 10.4776 14.3213 10.5215L14.5825 10.192L14.685 11.1097C14.685 11.1438 14.6972 11.178 14.702 11.2122C14.7021 11.2597 14.6972 11.3072 14.6874 11.3537Z" fill="#F0E4C9"/>
<path d="M12.003 9.92169C12.003 10.2219 11.4075 10.4659 10.6753 10.4659C9.94316 10.4659 9.34766 10.2219 9.34766 9.92169C9.34766 9.6215 9.94316 9.375 10.6753 9.375C11.4075 9.375 12.003 9.61906 12.003 9.92169Z" fill="#DED3BA"/>
<path d="M14.6874 11.3536C14.6774 11.5105 14.6341 11.6634 14.5605 11.8023C14.4868 11.9411 14.3845 12.0627 14.2603 12.159C14.2041 12.2103 14.1455 12.2591 14.0821 12.3079C13.693 12.5797 13.2674 12.795 12.8179 12.9473C12.835 12.6666 12.8496 12.3884 12.8642 12.1102C12.8862 11.9378 12.8959 11.7641 12.8935 11.5903C12.8813 11.461 12.8154 11.3585 12.8716 11.2291C12.9113 11.1431 12.9667 11.0653 13.0351 10.9997L13.5232 10.436C13.6 10.3502 13.6815 10.2687 13.7673 10.1919C13.901 10.2667 14.0283 10.3524 14.148 10.4482C14.2041 10.4945 14.2578 10.5409 14.3017 10.5848L14.5629 10.2553L14.6654 11.173C14.6654 11.2072 14.6776 11.2413 14.6825 11.2755C14.6856 11.3014 14.6872 11.3275 14.6874 11.3536Z" fill="#C9BFA8"/>
<path d="M13.2035 11.8545C13.2035 12.0766 13.1889 12.3011 13.1718 12.5208C13.1657 12.6242 13.1518 12.7269 13.1303 12.8283H13.1181C13.0254 12.8673 12.9253 12.9064 12.8252 12.943H12.796C12.0573 13.1968 11.2966 13.3815 10.5238 13.4946H10.4823V13.4677C10.4721 13.1086 10.4826 12.7493 10.514 12.3914C10.5555 12.1254 10.8142 12.0497 11.0021 11.9521C11.5434 11.6709 12.1258 11.4773 12.7276 11.3786C12.7988 11.3543 12.8754 11.3508 12.9484 11.3686C13.0215 11.3863 13.088 11.4245 13.1401 11.4786C13.2027 11.5933 13.2251 11.7256 13.2035 11.8545Z" fill="#E3D7BF"/>
<path d="M8.17126 12.6085C8.12245 12.9843 8.06388 13.3626 7.98822 13.736C7.77833 13.736 7.56112 13.736 7.34391 13.736C5.84837 13.7501 4.35646 13.5862 2.89962 13.2479L2.6824 13.1918C2.6288 12.966 2.59773 12.7354 2.58966 12.5035C2.55084 12.2545 2.55084 12.0009 2.58966 11.7518C2.67508 11.5395 2.98992 11.5419 3.18028 11.5517L5.45734 11.681C6.20352 11.6967 6.94612 11.7891 7.67339 11.9568C7.87596 12.013 8.10293 12.1008 8.1615 12.2985C8.18985 12.3995 8.19319 12.5059 8.17126 12.6085Z" fill="#FFF1D6"/>
<path d="M7.38282 12.6483C11.3537 12.6483 14.5728 11.5796 14.5728 10.2614C14.5728 8.94316 11.3537 7.87451 7.38282 7.87451C3.41192 7.87451 0.192871 8.94316 0.192871 10.2614C0.192871 11.5796 3.41192 12.6483 7.38282 12.6483Z" fill="#F2EADA"/>
<path d="M7.32162 12.2842C10.7493 12.2842 13.528 11.3609 13.528 10.222C13.528 9.08299 10.7493 8.15967 7.32162 8.15967C3.89393 8.15967 1.11523 9.08299 1.11523 10.222C1.11523 11.3609 3.89393 12.2842 7.32162 12.2842Z" fill="#FFFAF0"/>
<path d="M7.37551 11.9982C10.5269 11.9982 13.0816 11.1492 13.0816 10.1019C13.0816 9.05458 10.5269 8.20557 7.37551 8.20557C4.22413 8.20557 1.66943 9.05458 1.66943 10.1019C1.66943 11.1492 4.22413 11.9982 7.37551 11.9982Z" fill="#F2EADA"/>
<path d="M11.7048 9.88999C11.7048 10.1218 11.2167 10.3098 10.6017 10.3098C9.98665 10.3098 9.50098 10.1218 9.50098 9.88999C9.50098 9.65814 9.98909 9.46777 10.6017 9.46777C11.2143 9.46777 11.7048 9.64594 11.7048 9.88999Z" fill="#FFF7E6"/>
<path d="M11.1829 9.81885L14.485 9.936C14.5261 9.9804 14.5521 10.0367 14.5591 10.0968C14.5661 10.1569 14.5538 10.2177 14.5241 10.2704C14.4313 10.4827 10.6802 10.1337 10.6802 10.1337L11.1829 9.81885Z" fill="#D4C9B2"/>
<path opacity="0.43" d="M11.3197 10.1798C11.3709 10.1701 11.4188 10.1474 11.4588 10.1139C11.48 10.0954 11.4959 10.0717 11.5049 10.0451C11.5139 10.0186 11.5157 9.99006 11.51 9.96256C11.4899 9.91142 11.4504 9.87023 11.4002 9.84785C11.183 9.72827 10.3386 9.48421 10.1995 9.84785C10.0311 10.2872 11.1415 10.2286 11.3197 10.1798Z" fill="#C4BBA5"/>
<path d="M17.2428 2.28225L12.3518 3.77832L11.2096 9.79923L11.2023 9.83828L10.5995 9.83096L10.2603 9.82364L10.27 9.76994L11.4879 2.88019L17.1256 0.910645L17.1866 1.64526L17.2428 2.28225Z" fill="#C4C300"/>
<path d="M11.2099 9.79922C11.2099 9.97982 11.0097 10.1385 10.7461 10.1531C10.7015 10.158 10.6565 10.158 10.6119 10.1531C10.4118 10.1263 10.2605 10.0091 10.2556 9.85779C10.2542 9.82859 10.2592 9.79945 10.2702 9.77237C10.3022 9.70306 10.3512 9.64298 10.4126 9.59774C10.4741 9.5525 10.546 9.52357 10.6217 9.51367C10.6538 9.5064 10.6864 9.50151 10.7193 9.49902C10.9853 9.48194 11.2025 9.61617 11.2099 9.79922Z" fill="#C4C300"/>
<path d="M17.2428 2.2825L12.3616 3.77857L11.2195 9.79948C11.2195 9.98008 11.0193 10.1387 10.7557 10.1534C10.7111 10.1583 10.6661 10.1583 10.6215 10.1534C10.6063 10.0467 10.6023 9.93872 10.6093 9.83121V9.7043L10.624 9.51393C10.7522 7.85923 11.0565 6.22292 11.5318 4.63278C11.6178 4.27313 11.7674 3.93176 11.9736 3.62482C12.3446 3.1367 12.9327 2.93413 13.4867 2.76329L15.3294 2.18732C15.8053 2.03844 16.2812 1.88957 16.762 1.76754C16.8938 1.73337 17.0402 1.68944 17.1891 1.64795L17.2428 2.2825Z" fill="#A3A200"/>
<path d="M17.4402 1.5918C17.4573 1.97741 17.3426 2.29712 17.1962 2.30689C17.0497 2.31665 16.8838 2.01402 16.8838 1.6284C16.8838 1.24279 16.9814 0.920637 17.1278 0.910874C17.2743 0.901112 17.4232 1.20374 17.4402 1.5918Z" fill="#F0EE00"/>
<path d="M17.3719 1.59187C17.3841 1.91402 17.2889 2.18249 17.1571 2.19225C17.0253 2.20201 16.9131 1.94819 16.896 1.62359C16.8789 1.299 16.9765 1.03297 17.1083 1.02321C17.2401 1.01345 17.3719 1.27703 17.3719 1.59187Z" fill="#949300"/>
<path opacity="0.29" d="M14.2333 2.07935C14.0893 2.15501 13.9282 2.27216 13.9233 2.45032C14.744 2.3157 15.5482 2.09482 16.3224 1.79137C16.5665 1.69862 16.6666 1.41552 16.342 1.38623C16.1605 1.38816 15.9813 1.42633 15.8148 1.4985C15.2707 1.64241 14.7412 1.83687 14.2333 2.07935Z" fill="#F0EE00"/>
<path opacity="0.29" d="M10.9478 6.37574C10.9478 6.45872 10.9478 6.57587 11.0234 6.58075C11.0991 6.58563 11.1015 6.53926 11.1284 6.49777C11.228 6.32599 11.3098 6.14444 11.3724 5.95596C11.5734 5.3714 11.7437 4.77671 11.8825 4.17434C11.9419 3.94181 11.9843 3.70527 12.0094 3.46657C12.0191 3.41661 12.0191 3.36523 12.0094 3.31526C11.9362 3.0834 11.6043 3.15906 11.5213 3.33234C11.422 3.62288 11.3589 3.92452 11.3334 4.23048C11.1821 4.93987 11.0535 5.65496 10.9478 6.37574Z" fill="#F0EE00"/>
<path opacity="0.28" d="M3.28996 9.23546C2.95804 9.41607 2.60171 9.68209 2.55778 10.0921C2.54866 10.2475 2.57796 10.4026 2.64308 10.544C2.70821 10.6853 2.80716 10.8084 2.93119 10.9024C3.17013 11.0682 3.44117 11.1821 3.72682 11.2367C4.49658 11.429 5.27857 11.5684 6.06733 11.6541C6.33349 11.7061 6.60919 11.6764 6.85809 11.5687C6.98495 11.5 7.08415 11.3896 7.13887 11.2562C7.19359 11.1227 7.20044 10.9744 7.15827 10.8365C7.096 10.7301 7.00929 10.6401 6.90531 10.5739C6.80133 10.5077 6.68308 10.4672 6.56034 10.4558L5.82816 10.2727C5.60023 10.235 5.38445 10.1438 5.19849 10.0067C5.10327 9.92757 5.03316 9.82241 4.99675 9.70408C4.96034 9.58575 4.95921 9.45938 4.99348 9.34041C5.23198 9.18292 5.49893 9.07349 5.77935 9.01825C6.19181 7.93708 3.54622 9.09391 3.28996 9.23546Z" fill="white"/>
</svg>
