<svg width="28" height="24" viewBox="0 0 28 24" fill="none" xmlns="http://www.w3.org/2000/svg">
<path d="M14.1884 11.9726V20.3066C14.1884 20.7486 14.2149 21.1654 13.9855 21.5655C13.724 22.0215 13.2861 22.3586 12.8385 22.6202C12.2076 22.9752 11.5307 23.2416 10.8271 23.4119C9.17705 23.8242 7.46774 23.9454 5.77605 23.77C4.93693 23.6954 4.10718 23.5385 3.2988 23.3014C2.56024 23.079 1.81469 22.7755 1.20062 22.2999C0.734823 21.9376 0.337564 21.448 0.327773 20.8339C0.327773 20.7164 0.327773 20.5975 0.327773 20.48V12.1405C0.327773 12.1083 0.310987 12.0202 0.327773 11.9922C0.369736 11.9223 0.773987 11.9726 0.862111 11.9726H14.187H14.1884Z" fill="#FF8F00"/>
<path d="M12.1841 18.9529C12.1836 20.1851 12.4781 21.3995 13.0429 22.4946C13.2208 22.3808 13.3884 22.2516 13.5437 22.1086C12.9668 20.9384 12.7219 19.6323 12.8356 18.3326C12.9493 17.0329 13.4172 15.7892 14.1885 14.737V13.7578C12.8985 15.1806 12.184 17.0324 12.1841 18.9529Z" fill="#FFAA4D"/>
<path d="M9.72461 18.9528C9.72327 20.5204 10.1989 22.0514 11.0884 23.3422C11.2982 23.2821 11.5081 23.2163 11.7095 23.1422C11.1074 22.3122 10.6912 21.3622 10.4894 20.3568C10.2877 19.3515 10.305 18.3145 10.5402 17.3164C10.7755 16.3184 11.2231 15.3828 11.8526 14.5734C12.4821 13.764 13.2787 13.0998 14.1881 12.6261V11.9771H14.0902C12.7828 12.6149 11.6805 13.6068 10.9088 14.84C10.137 16.0731 9.72677 17.4981 9.72461 18.9528Z" fill="#FFAA4D"/>
<path d="M7.88954 18.9526C7.8918 17.3221 8.45091 15.7412 9.47429 14.4719C10.4977 13.2025 11.9239 12.3208 13.5169 11.9727H11.6313C10.5883 12.48 9.67238 13.2148 8.95087 14.1228C8.22937 15.0309 7.72066 16.0892 7.46219 17.2199C7.20371 18.3506 7.20205 19.5248 7.45732 20.6562C7.71259 21.7876 8.2183 22.8473 8.93723 23.7574C9.18062 23.7304 9.42261 23.6968 9.66321 23.6567C8.51918 22.3568 7.88855 20.6843 7.88954 18.9526Z" fill="#FFAA4D"/>
<path d="M5.43042 18.9526C5.43303 17.3211 5.99314 15.7395 7.0179 14.47C8.04266 13.2005 9.47051 12.3194 11.0647 11.9727H9.17218C8.12264 12.4831 7.20181 13.2238 6.47827 14.1396C5.75474 15.0553 5.24715 16.1225 4.99332 17.2617C4.73948 18.4009 4.74595 19.5826 5.01224 20.7189C5.27852 21.8552 5.79775 22.9168 6.53127 23.8246C6.81102 23.8386 7.09078 23.8446 7.37054 23.8428C6.1231 22.5203 5.42894 20.7706 5.43042 18.9526Z" fill="#FFAA4D"/>
<path d="M14.1884 11.9936V11.9727H14.0933L14.1884 11.9936Z" fill="#FFAA4D"/>
<path d="M4.72392 23.633C3.90884 22.6976 3.35178 21.5659 3.10774 20.3494C2.8637 19.133 2.94112 17.874 3.33235 16.6966C3.72358 15.5193 4.41509 14.4643 5.33862 13.6359C6.26216 12.8074 7.38578 12.2342 8.59856 11.9727H6.71439C5.70157 12.4646 4.80802 13.1712 4.09585 14.0434C3.38368 14.9155 2.86997 15.9323 2.59044 17.023C2.3109 18.1137 2.27224 19.2522 2.47714 20.3594C2.68203 21.4666 3.12558 22.5159 3.77694 23.4343C4.09027 23.5127 4.4064 23.5784 4.72392 23.633Z" fill="#FFAA4D"/>
<path d="M0.513743 18.9526C0.515928 17.3223 1.07484 15.7416 2.09795 14.4722C3.12105 13.2029 4.54699 12.321 6.13967 11.9727H4.2555C2.41882 12.8722 1.00882 14.457 0.329102 16.3858V20.4815C0.329102 20.599 0.329102 20.7179 0.329102 20.8354C0.338893 21.4494 0.736147 21.939 1.20194 22.3013C1.28167 22.3629 1.3628 22.4216 1.44673 22.4776C0.834066 21.4039 0.512458 20.1888 0.513743 18.9526Z" fill="#FFAA4D"/>
<path style="mix-blend-mode:multiply" d="M6.43761 23.8162C6.5621 23.8162 6.68659 23.8008 6.80968 23.7882C4.2513 23.5336 2.31119 22.3111 2.31119 20.841V11.9727H0.329102V20.8438C0.329102 22.3782 2.99799 23.6441 6.43761 23.8162Z" fill="url(#paint0_linear)"/>
<path d="M7.25967 14.9703C11.0868 14.9703 14.1893 13.6282 14.1893 11.9727C14.1893 10.3172 11.0868 8.9751 7.25967 8.9751C3.43256 8.9751 0.330078 10.3172 0.330078 11.9727C0.330078 13.6282 3.43256 14.9703 7.25967 14.9703Z" fill="#FFAA4D"/>
<path d="M7.25871 14.2681C10.5489 14.2681 13.2161 13.2404 13.2161 11.9727C13.2161 10.7049 10.5489 9.67725 7.25871 9.67725C3.9685 9.67725 1.30127 10.7049 1.30127 11.9727C1.30127 13.2404 3.9685 14.2681 7.25871 14.2681Z" fill="white"/>
<path d="M11.5278 11.9728C11.5278 12.4386 10.6885 12.8471 9.44502 13.0695C9.27297 13.1003 9.09252 13.1282 8.90369 13.1506C8.56518 13.194 8.20429 13.2247 7.82382 13.2387C7.68394 13.2387 7.54406 13.2471 7.39579 13.2485H7.25591C6.99294 13.2485 6.73556 13.2485 6.48658 13.2275C6.36209 13.2275 6.2404 13.2136 6.1173 13.2024C5.88371 13.1828 5.6557 13.159 5.43749 13.1268C3.98835 12.924 2.98682 12.482 2.98682 11.9714C2.98682 11.272 4.89616 10.6943 7.25591 10.6943C7.89445 10.6944 8.53213 10.7412 9.16386 10.8342C9.38207 10.8664 9.5835 10.9042 9.78352 10.9475C9.88424 10.9699 9.98355 10.9937 10.0773 11.0175C10.286 11.0716 10.4911 11.1388 10.6913 11.2189C10.772 11.2506 10.8509 11.2866 10.9277 11.3266C11.0914 11.4028 11.2405 11.5069 11.3684 11.6343C11.419 11.6857 11.4598 11.7459 11.4886 11.812C11.5127 11.8623 11.526 11.9171 11.5278 11.9728Z" fill="white"/>
<path d="M11.4914 11.9727H7.25871L5.57178 12.1125V13.142C5.74942 13.1658 5.93126 13.1854 6.1201 13.2008C6.24319 13.212 6.36489 13.2204 6.48938 13.226C6.73837 13.24 6.99574 13.247 7.25871 13.247H7.39859C7.53847 13.247 7.68534 13.247 7.82662 13.2372C8.20429 13.2232 8.56798 13.1924 8.90649 13.149C9.09532 13.1267 9.27576 13.0987 9.44782 13.0679C10.5445 12.8721 11.3222 12.5336 11.4942 12.1377L11.4914 11.9727Z" fill="#D4DF56"/>
<path d="M7.93306 11.9728C7.93306 12.4386 7.44908 12.8471 6.72731 13.0695C6.62799 13.1003 6.52308 13.1282 6.41398 13.1506C6.20811 13.1959 5.99908 13.2254 5.78872 13.2387C5.70759 13.2387 5.62506 13.2471 5.54114 13.2485H5.46141C5.3094 13.2485 5.16113 13.2415 5.01659 13.2275C4.94386 13.2219 4.87252 13.2136 4.80258 13.2024C4.66985 13.1842 4.53818 13.159 4.40812 13.1268C3.56885 12.924 2.98975 12.482 2.98975 11.9714C2.98975 11.272 4.09479 10.6943 5.46141 10.6943C5.83414 10.6948 6.20536 10.7418 6.56645 10.8342C6.68795 10.8648 6.80752 10.9027 6.92454 10.9475C6.98329 10.9699 7.04064 10.9937 7.09519 11.0175C7.21948 11.0737 7.3384 11.1411 7.45048 11.2189C7.49944 11.2516 7.54617 11.2876 7.59036 11.3266C7.69299 11.4131 7.77922 11.5173 7.84494 11.6343C7.87636 11.69 7.8999 11.7498 7.91488 11.812C7.9276 11.8646 7.93371 11.9187 7.93306 11.9728Z" fill="#FFCCBC"/>
<path d="M7.91173 11.8076C7.89613 11.7456 7.87262 11.6859 7.84179 11.6299C7.77607 11.5129 7.68984 11.4087 7.58722 11.3222C7.54303 11.2832 7.4963 11.2473 7.44734 11.2145C7.33526 11.1367 7.21634 11.0693 7.09204 11.0131C7.03749 10.9893 6.98014 10.9655 6.92139 10.9431C6.80438 10.8983 6.68481 10.8605 6.5633 10.8298C6.20222 10.7374 5.831 10.6904 5.45826 10.6899C5.29425 10.6902 5.13036 10.699 4.96729 10.7165C5.18051 10.736 5.39189 10.772 5.59954 10.8242C5.72098 10.8551 5.84054 10.8929 5.95762 10.9375C6.01637 10.9599 6.07372 10.9837 6.12828 11.0075C6.25257 11.0637 6.37149 11.1311 6.48357 11.2089C6.53253 11.2417 6.57926 11.2776 6.62345 11.3166C6.72608 11.4031 6.81231 11.5073 6.87803 11.6243C6.90886 11.6803 6.93237 11.74 6.94797 11.802C6.96198 11.8559 6.96904 11.9113 6.96895 11.967C6.96895 12.4328 6.48497 12.8413 5.7632 13.0637C5.66388 13.0945 5.55897 13.1224 5.44986 13.1448C5.29149 13.1784 5.13129 13.2027 4.97008 13.2176H5.01624C5.16078 13.2315 5.30906 13.2385 5.46106 13.2385H5.54079C5.62472 13.2385 5.70724 13.2385 5.78837 13.2287C5.99874 13.2154 6.20777 13.1859 6.41363 13.1406C6.52274 13.1182 6.62764 13.0903 6.72696 13.0595C7.44873 12.8371 7.93271 12.4286 7.93271 11.9628C7.93199 11.9104 7.92494 11.8583 7.91173 11.8076Z" fill="#FF7043"/>
<path d="M7.25886 13.4918C5.05996 13.4918 2.72119 12.9589 2.72119 11.9728C2.72119 10.9866 5.05996 10.4551 7.25886 10.4551C9.45775 10.4551 11.7951 10.9866 11.7951 11.9728C11.7951 12.9589 9.45775 13.4918 7.25886 13.4918ZM7.25886 10.8439C4.68929 10.8439 3.11145 11.5014 3.11145 11.9728C3.11145 12.4442 4.68929 13.1016 7.25886 13.1016C9.82843 13.1016 11.4063 12.4442 11.4063 11.9728C11.4063 11.5014 9.82843 10.8439 7.25886 10.8439Z" fill="#143D32"/>
<path d="M2.16149 11.8316C2.32295 11.8316 2.45383 11.7414 2.45383 11.6301C2.45383 11.5189 2.32295 11.4287 2.16149 11.4287C2.00003 11.4287 1.86914 11.5189 1.86914 11.6301C1.86914 11.7414 2.00003 11.8316 2.16149 11.8316Z" fill="#DAE9EF"/>
<path d="M12.4021 11.367C12.4021 11.4775 12.2706 11.5684 12.1097 11.5684C11.9489 11.5684 11.8174 11.4775 11.8174 11.367C11.8174 11.2564 11.9489 11.1655 12.1097 11.1655C12.2706 11.1655 12.4021 11.2481 12.4021 11.367Z" fill="#DAE9EF"/>
<path d="M8.01103 13.8377C8.01103 13.9496 7.88094 14.0391 7.71868 14.0391C7.55642 14.0391 7.42773 13.9496 7.42773 13.8377C7.42773 13.7258 7.55782 13.6362 7.71868 13.6362C7.87954 13.6362 8.01103 13.7272 8.01103 13.8377Z" fill="#DAE9EF"/>
<path d="M2.62178 12.4188C2.62178 12.4832 2.54624 12.5349 2.45252 12.5349C2.3588 12.5349 2.28467 12.4832 2.28467 12.4188C2.28467 12.3545 2.3602 12.3027 2.45252 12.3027C2.54484 12.3027 2.62178 12.3545 2.62178 12.4188Z" fill="#DAE9EF"/>
<path d="M9.68825 10.2636C9.68825 10.3265 9.61271 10.3797 9.52039 10.3797C9.42807 10.3797 9.35254 10.3265 9.35254 10.2636C9.35254 10.2006 9.42807 10.1475 9.52039 10.1475C9.61271 10.1475 9.68825 10.1992 9.68825 10.2636Z" fill="#DAE9EF"/>
<path d="M4.02332 13.636C4.11603 13.636 4.19118 13.584 4.19118 13.5199C4.19118 13.4558 4.11603 13.4038 4.02332 13.4038C3.93062 13.4038 3.85547 13.4558 3.85547 13.5199C3.85547 13.584 3.93062 13.636 4.02332 13.636Z" fill="#DAE9EF"/>
<path d="M12.5168 12.2313C12.5168 12.2957 12.4413 12.3474 12.3475 12.3474C12.2538 12.3474 12.1797 12.2957 12.1797 12.2313C12.1797 12.167 12.2552 12.1152 12.3475 12.1152C12.4399 12.1152 12.5168 12.167 12.5168 12.2313Z" fill="#DAE9EF"/>
<path d="M11.0998 13.4037C11.0998 13.468 11.0243 13.5198 10.9306 13.5198C10.8368 13.5198 10.7627 13.468 10.7627 13.4037C10.7627 13.3394 10.8382 13.2876 10.9306 13.2876C11.0229 13.2876 11.0998 13.3407 11.0998 13.4037Z" fill="#DAE9EF"/>
<path d="M3.32546 10.7655C3.32546 10.8299 3.25132 10.8816 3.1576 10.8816C3.06388 10.8816 2.98975 10.8299 2.98975 10.7655C2.98975 10.7012 3.06528 10.6494 3.1576 10.6494C3.24992 10.6494 3.32546 10.7012 3.32546 10.7655Z" fill="#DAE9EF"/>
<path d="M27.6971 11.9731V20.3071C27.6971 20.7491 27.7237 21.1659 27.4943 21.566C27.2328 22.022 26.7949 22.3591 26.3473 22.6207C25.7164 22.9757 25.0395 23.2421 24.3359 23.4124C22.6858 23.8247 20.9765 23.9458 19.2848 23.7705C18.4457 23.6959 17.616 23.539 16.8076 23.3019C16.069 23.0795 15.3235 22.7759 14.7094 22.3004C14.2436 21.9381 13.8464 21.4485 13.8366 20.8344C13.8366 20.7169 13.8366 20.598 13.8366 20.4805V12.141C13.8366 12.1088 13.8198 12.0207 13.8366 11.9927C13.8785 11.9227 14.2828 11.9731 14.3709 11.9731H27.6958H27.6971Z" fill="#FF8F00"/>
<path d="M25.6929 18.9534C25.6923 20.1856 25.9868 21.4 26.5517 22.4951C26.7296 22.3813 26.8972 22.2521 27.0525 22.1091C26.4756 20.9388 26.2307 19.6328 26.3444 18.3331C26.4581 17.0334 26.926 15.7897 27.6973 14.7375V13.7583C26.4073 15.1811 25.6928 17.0329 25.6929 18.9534Z" fill="#FFAA4D"/>
<path d="M23.2334 18.9533C23.2321 20.5209 23.7077 22.0518 24.5972 23.3427C24.807 23.2825 25.0169 23.2168 25.2183 23.1427C24.6161 22.3127 24.2 21.3627 23.9982 20.3573C23.7965 19.352 23.8138 18.315 24.049 17.3169C24.2843 16.3189 24.7319 15.3833 25.3614 14.5739C25.9909 13.7645 26.7875 13.1003 27.6969 12.6266V11.9775H27.599C26.2916 12.6154 25.1893 13.6073 24.4176 14.8404C23.6458 16.0736 23.2356 17.4986 23.2334 18.9533Z" fill="#FFAA4D"/>
<path d="M21.3983 18.9531C21.4006 17.3226 21.9597 15.7417 22.9831 14.4724C24.0065 13.203 25.4327 12.3212 27.0257 11.9731H25.1401C24.0971 12.4805 23.1812 13.2152 22.4597 14.1233C21.7382 15.0314 21.2294 16.0897 20.971 17.2204C20.7125 18.3511 20.7108 19.5253 20.9661 20.6567C21.2214 21.7881 21.7271 22.8478 22.446 23.7579C22.6894 23.7309 22.9314 23.6973 23.172 23.6572C22.028 22.3573 21.3973 20.6847 21.3983 18.9531Z" fill="#FFAA4D"/>
<path d="M18.9392 18.9531C18.9418 17.3216 19.5019 15.74 20.5267 14.4705C21.5514 13.201 22.9793 12.3199 24.5735 11.9731H22.681C21.6314 12.4836 20.7106 13.2243 19.9871 14.1401C19.2635 15.0558 18.7559 16.123 18.5021 17.2622C18.2483 18.4013 18.2547 19.5831 18.521 20.7194C18.7873 21.8557 19.3065 22.9173 20.0401 23.8251C20.3198 23.8391 20.5996 23.8451 20.8793 23.8433C19.6319 22.5208 18.9377 20.7711 18.9392 18.9531Z" fill="#FFAA4D"/>
<path d="M27.6972 11.9941V11.9731H27.6021L27.6972 11.9941Z" fill="#FFAA4D"/>
<path d="M18.2327 23.6334C17.4176 22.6981 16.8606 21.5663 16.6165 20.3499C16.3725 19.1335 16.4499 17.8745 16.8411 16.6971C17.2324 15.5198 17.9239 14.4648 18.8474 13.6364C19.7709 12.8079 20.8946 12.2346 22.1073 11.9731H20.2232C19.2104 12.4651 18.3168 13.1717 17.6046 14.0438C16.8925 14.916 16.3788 15.9328 16.0992 17.0235C15.8197 18.1142 15.781 19.2527 15.9859 20.3599C16.1908 21.4671 16.6344 22.5164 17.2857 23.4348C17.5991 23.5131 17.9152 23.5789 18.2327 23.6334Z" fill="#FFAA4D"/>
<path d="M14.0225 18.9531C14.0247 17.3228 14.5836 15.7421 15.6067 14.4727C16.6298 13.2034 18.0558 12.3215 19.6485 11.9731H17.7643C15.9276 12.8727 14.5176 14.4575 13.8379 16.3863V20.482C13.8379 20.5995 13.8379 20.7184 13.8379 20.8359C13.8477 21.4499 14.2449 21.9395 14.7107 22.3018C14.7905 22.3633 14.8716 22.4221 14.9555 22.478C14.3429 21.4044 14.0212 20.1893 14.0225 18.9531Z" fill="#FFAA4D"/>
<path style="mix-blend-mode:multiply" d="M19.9464 23.8167C20.0709 23.8167 20.1954 23.8013 20.3185 23.7887C17.7601 23.5341 15.82 22.3116 15.82 20.8415V11.9731H13.8379V20.8443C13.8379 22.3787 16.5068 23.6446 19.9464 23.8167Z" fill="url(#paint1_linear)"/>
<path d="M20.7685 14.9708C24.5956 14.9708 27.6981 13.6287 27.6981 11.9732C27.6981 10.3177 24.5956 8.97559 20.7685 8.97559C16.9414 8.97559 13.8389 10.3177 13.8389 11.9732C13.8389 13.6287 16.9414 14.9708 20.7685 14.9708Z" fill="#FFAA4D"/>
<path d="M20.7675 14.2686C24.0577 14.2686 26.7249 13.2409 26.7249 11.9731C26.7249 10.7054 24.0577 9.67773 20.7675 9.67773C17.4773 9.67773 14.8101 10.7054 14.8101 11.9731C14.8101 13.2409 17.4773 14.2686 20.7675 14.2686Z" fill="white"/>
<path d="M25.0366 11.9733C25.0366 12.4391 24.1973 12.8476 22.9538 13.07C22.7818 13.1007 22.6013 13.1287 22.4125 13.1511C22.074 13.1945 21.7131 13.2252 21.3326 13.2392C21.1927 13.2392 21.0529 13.2476 20.9046 13.249H20.7647C20.5017 13.249 20.2444 13.249 19.9954 13.228C19.8709 13.228 19.7492 13.214 19.6261 13.2028C19.3925 13.1833 19.1645 13.1595 18.9463 13.1273C17.4971 12.9245 16.4956 12.4825 16.4956 11.9719C16.4956 11.2725 18.4049 10.6948 20.7647 10.6948C21.4032 10.6949 22.0409 10.7417 22.6727 10.8347C22.8909 10.8669 23.0923 10.9046 23.2923 10.948C23.393 10.9704 23.4923 10.9942 23.5861 11.0179C23.7948 11.0721 23.9999 11.1393 24.2001 11.2194C24.2807 11.2511 24.3597 11.2871 24.4365 11.3271C24.6002 11.4033 24.7493 11.5074 24.8771 11.6348C24.9278 11.6861 24.9686 11.7464 24.9974 11.8125C25.0214 11.8628 25.0348 11.9176 25.0366 11.9733Z" fill="white"/>
<path d="M25.0002 11.9731H20.7675L19.0806 12.113V13.1425C19.2582 13.1663 19.4401 13.1859 19.6289 13.2013C19.752 13.2125 19.8737 13.2209 19.9982 13.2265C20.2472 13.2404 20.5045 13.2474 20.7675 13.2474H20.9074C21.0473 13.2474 21.1941 13.2474 21.3354 13.2376C21.7131 13.2237 22.0768 13.1929 22.4153 13.1495C22.6041 13.1271 22.7846 13.0992 22.9566 13.0684C24.0533 12.8726 24.831 12.5341 25.003 12.1382L25.0002 11.9731Z" fill="#D4DF56"/>
<path d="M21.4418 11.9733C21.4418 12.4391 20.9579 12.8476 20.2361 13.07C20.1368 13.1007 20.0319 13.1287 19.9228 13.1511C19.7169 13.1964 19.5079 13.2258 19.2975 13.2392C19.2164 13.2392 19.1339 13.2476 19.0499 13.249H18.9702C18.8182 13.249 18.6699 13.242 18.5254 13.228C18.4526 13.2224 18.3813 13.214 18.3114 13.2028C18.1786 13.1847 18.047 13.1595 17.9169 13.1273C17.0776 12.9245 16.4985 12.4825 16.4985 11.9719C16.4985 11.2725 17.6036 10.6948 18.9702 10.6948C19.3429 10.6953 19.7141 10.7422 20.0752 10.8347C20.1967 10.8653 20.3163 10.9032 20.4333 10.948C20.4921 10.9704 20.5494 10.9942 20.604 11.0179C20.7283 11.0742 20.8472 11.1416 20.9593 11.2194C21.0082 11.2521 21.055 11.2881 21.0991 11.3271C21.2018 11.4136 21.288 11.5178 21.3537 11.6348C21.3852 11.6905 21.4087 11.7503 21.4237 11.8125C21.4364 11.8651 21.4425 11.9191 21.4418 11.9733Z" fill="#FFCCBC"/>
<path d="M21.4205 11.8081C21.4049 11.7461 21.3814 11.6864 21.3506 11.6304C21.2849 11.5134 21.1986 11.4092 21.096 11.3227C21.0518 11.2837 21.0051 11.2477 20.9561 11.215C20.844 11.1372 20.7251 11.0698 20.6008 11.0135C20.5463 10.9898 20.4889 10.966 20.4302 10.9436C20.3132 10.8988 20.1936 10.8609 20.0721 10.8303C19.711 10.7379 19.3398 10.6909 18.967 10.6904C18.803 10.6906 18.6392 10.6995 18.4761 10.717C18.6893 10.7365 18.9007 10.7725 19.1083 10.8247C19.2298 10.8555 19.3493 10.8934 19.4664 10.938C19.5252 10.9604 19.5825 10.9842 19.6371 11.008C19.7614 11.0642 19.8803 11.1316 19.9924 11.2094C20.0413 11.2421 20.088 11.2781 20.1322 11.3171C20.2349 11.4036 20.3211 11.5078 20.3868 11.6248C20.4176 11.6808 20.4412 11.7405 20.4568 11.8025C20.4708 11.8564 20.4778 11.9118 20.4777 11.9675C20.4777 12.4333 19.9938 12.8418 19.272 13.0642C19.1727 13.0949 19.0678 13.1229 18.9587 13.1453C18.8003 13.1789 18.6401 13.2032 18.4789 13.218H18.525C18.6696 13.232 18.8178 13.239 18.9698 13.239H19.0496C19.1335 13.239 19.216 13.239 19.2972 13.2292C19.5075 13.2159 19.7166 13.1864 19.9224 13.1411C20.0315 13.1187 20.1364 13.0907 20.2357 13.06C20.9575 12.8376 21.4415 12.4291 21.4415 11.9633C21.4408 11.9109 21.4337 11.8588 21.4205 11.8081Z" fill="#FF7043"/>
<path d="M20.7676 13.4923C18.5688 13.4923 16.23 12.9594 16.23 11.9732C16.23 10.9871 18.5688 10.4556 20.7676 10.4556C22.9665 10.4556 25.3039 10.9871 25.3039 11.9732C25.3039 12.9594 22.9665 13.4923 20.7676 13.4923ZM20.7676 10.8444C18.1981 10.8444 16.6202 11.5019 16.6202 11.9732C16.6202 12.4446 18.1981 13.1021 20.7676 13.1021C23.3372 13.1021 24.9151 12.4446 24.9151 11.9732C24.9151 11.5019 23.3372 10.8444 20.7676 10.8444Z" fill="#143D32"/>
<path d="M15.6703 11.8321C15.8317 11.8321 15.9626 11.7419 15.9626 11.6306C15.9626 11.5194 15.8317 11.4292 15.6703 11.4292C15.5088 11.4292 15.3779 11.5194 15.3779 11.6306C15.3779 11.7419 15.5088 11.8321 15.6703 11.8321Z" fill="#DAE9EF"/>
<path d="M25.9109 11.3674C25.9109 11.4779 25.7794 11.5689 25.6185 11.5689C25.4577 11.5689 25.3262 11.4779 25.3262 11.3674C25.3262 11.2569 25.4577 11.166 25.6185 11.166C25.7794 11.166 25.9109 11.2485 25.9109 11.3674Z" fill="#DAE9EF"/>
<path d="M21.5198 13.8381C21.5198 13.95 21.3897 14.0396 21.2275 14.0396C21.0652 14.0396 20.9365 13.95 20.9365 13.8381C20.9365 13.7262 21.0666 13.6367 21.2275 13.6367C21.3883 13.6367 21.5198 13.7276 21.5198 13.8381Z" fill="#DAE9EF"/>
<path d="M16.1306 12.4193C16.1306 12.4837 16.055 12.5354 15.9613 12.5354C15.8676 12.5354 15.7935 12.4837 15.7935 12.4193C15.7935 12.355 15.869 12.3032 15.9613 12.3032C16.0536 12.3032 16.1306 12.355 16.1306 12.4193Z" fill="#DAE9EF"/>
<path d="M23.197 10.264C23.197 10.327 23.1215 10.3801 23.0292 10.3801C22.9369 10.3801 22.8613 10.327 22.8613 10.264C22.8613 10.2011 22.9369 10.1479 23.0292 10.1479C23.1215 10.1479 23.197 10.1997 23.197 10.264Z" fill="#DAE9EF"/>
<path d="M17.5321 13.6365C17.6248 13.6365 17.7 13.5845 17.7 13.5204C17.7 13.4563 17.6248 13.4043 17.5321 13.4043C17.4394 13.4043 17.3643 13.4563 17.3643 13.5204C17.3643 13.5845 17.4394 13.6365 17.5321 13.6365Z" fill="#DAE9EF"/>
<path d="M26.0256 12.2318C26.0256 12.2962 25.9501 12.3479 25.8563 12.3479C25.7626 12.3479 25.6885 12.2962 25.6885 12.2318C25.6885 12.1675 25.764 12.1157 25.8563 12.1157C25.9487 12.1157 26.0256 12.1675 26.0256 12.2318Z" fill="#DAE9EF"/>
<path d="M24.6086 13.4042C24.6086 13.4685 24.5331 13.5203 24.4393 13.5203C24.3456 13.5203 24.2715 13.4685 24.2715 13.4042C24.2715 13.3398 24.347 13.2881 24.4393 13.2881C24.5317 13.2881 24.6086 13.3412 24.6086 13.4042Z" fill="#DAE9EF"/>
<path d="M16.8342 10.766C16.8342 10.8303 16.7601 10.8821 16.6664 10.8821C16.5727 10.8821 16.4985 10.8303 16.4985 10.766C16.4985 10.7017 16.5741 10.6499 16.6664 10.6499C16.7587 10.6499 16.8342 10.7017 16.8342 10.766Z" fill="#DAE9EF"/>
<path d="M20.9379 3.41158V11.7456C20.9379 12.1876 20.9644 12.6044 20.735 13.0045C20.4735 13.4605 20.0357 13.7976 19.588 14.0592C18.9571 14.4141 18.2802 14.6805 17.5766 14.8509C15.9266 15.2631 14.2172 15.3843 12.5256 15.209C11.6864 15.1344 10.8567 14.9774 10.0483 14.7404C9.30975 14.518 8.5642 14.2144 7.95013 13.7388C7.48433 13.3765 7.08708 12.887 7.07728 12.2729C7.07728 12.1554 7.07728 12.0365 7.07728 11.919V3.57944C7.07728 3.54726 7.0605 3.45914 7.07728 3.43117C7.11925 3.36123 7.5235 3.41158 7.61162 3.41158H20.9365H20.9379Z" fill="#FF8F00"/>
<path d="M18.9336 10.3919C18.9331 11.6241 19.2276 12.8385 19.7925 13.9336C19.9703 13.8198 20.1379 13.6906 20.2932 13.5475C19.7163 12.3773 19.4714 11.0713 19.5851 9.77159C19.6988 8.47187 20.1668 7.22821 20.9381 6.17593V5.19678C19.648 6.61953 18.9335 8.47137 18.9336 10.3919Z" fill="#FFAA4D"/>
<path d="M16.4741 10.3918C16.4728 11.9594 16.9484 13.4903 17.8379 14.7812C18.0478 14.721 18.2576 14.6553 18.459 14.5811C17.8569 13.7512 17.4407 12.8011 17.239 11.7958C17.0372 10.7905 17.0545 9.75343 17.2897 8.75539C17.525 7.75735 17.9726 6.82175 18.6021 6.01234C19.2316 5.20294 20.0282 4.53876 20.9377 4.06506V3.41602H20.8397C19.5323 4.05387 18.43 5.04576 17.6583 6.27892C16.8866 7.51208 16.4763 8.93703 16.4741 10.3918Z" fill="#FFAA4D"/>
<path d="M14.6391 10.3916C14.6413 8.76105 15.2004 7.18021 16.2238 5.91084C17.2472 4.64147 18.6734 3.75972 20.2664 3.41162H18.3808C17.3378 3.91897 16.4219 4.65372 15.7004 5.56181C14.9789 6.4699 14.4702 7.52821 14.2117 8.65887C13.9532 9.78953 13.9516 10.9638 14.2068 12.0951C14.4621 13.2265 14.9678 14.2863 15.6867 15.1964C15.9301 15.1694 16.1721 15.1358 16.4127 15.0957C15.2687 13.7958 14.6381 12.1232 14.6391 10.3916Z" fill="#FFAA4D"/>
<path d="M12.1799 10.3916C12.1825 8.76009 12.7426 7.17848 13.7674 5.90898C14.7922 4.63948 16.22 3.75833 17.8142 3.41162H15.9217C14.8722 3.92209 13.9513 4.6628 13.2278 5.57855C12.5043 6.4943 11.9967 7.56151 11.7428 8.70066C11.489 9.83982 11.4955 11.0216 11.7617 12.1579C12.028 13.2942 12.5473 14.3558 13.2808 15.2635C13.5605 15.2775 13.8403 15.2836 14.1201 15.2817C12.8726 13.9592 12.1785 12.2096 12.1799 10.3916Z" fill="#FFAA4D"/>
<path d="M20.9379 3.43261V3.41162H20.8428L20.9379 3.43261Z" fill="#FFAA4D"/>
<path d="M11.4734 15.0719C10.6584 14.1366 10.1013 13.0048 9.85726 11.7884C9.61322 10.572 9.69063 9.31295 10.0819 8.1356C10.4731 6.95824 11.1646 5.90327 12.0881 5.07483C13.0117 4.24639 14.1353 3.67312 15.3481 3.41162H13.4639C12.4511 3.90357 11.5575 4.61017 10.8454 5.48232C10.1332 6.35446 9.61949 7.37123 9.33995 8.46196C9.06041 9.55268 9.02175 10.6912 9.22665 11.7984C9.43155 12.9056 9.87509 13.9548 10.5265 14.8733C10.8398 14.9516 11.1559 15.0174 11.4734 15.0719Z" fill="#FFAA4D"/>
<path d="M7.26325 10.3916C7.26544 8.76124 7.82435 7.18055 8.84746 5.91121C9.87057 4.64186 11.2965 3.76 12.8892 3.41162H11.005C9.16833 4.31114 7.75834 5.89594 7.07861 7.8248V11.9204C7.07861 12.0379 7.07861 12.1568 7.07861 12.2743C7.0884 12.8884 7.48566 13.378 7.95146 13.7403C8.03119 13.8018 8.11232 13.8606 8.19624 13.9165C7.58358 12.8428 7.26197 11.6278 7.26325 10.3916Z" fill="#FFAA4D"/>
<path style="mix-blend-mode:multiply" d="M13.1871 15.2552C13.3116 15.2552 13.4361 15.2398 13.5592 15.2272C11.0008 14.9726 9.0607 13.7501 9.0607 12.2799V3.41162H7.07861V12.2827C7.07861 13.8172 9.7475 15.0831 13.1871 15.2552Z" fill="url(#paint2_linear)"/>
<path d="M14.0092 6.40927C17.8363 6.40927 20.9388 5.06719 20.9388 3.41166C20.9388 1.75613 17.8363 0.414062 14.0092 0.414062C10.1821 0.414062 7.07959 1.75613 7.07959 3.41166C7.07959 5.06719 10.1821 6.40927 14.0092 6.40927Z" fill="#FFAA4D"/>
<path d="M14.0082 5.70703C17.2984 5.70703 19.9657 4.67934 19.9657 3.41162C19.9657 2.1439 17.2984 1.11621 14.0082 1.11621C10.718 1.11621 8.05078 2.1439 8.05078 3.41162C8.05078 4.67934 10.718 5.70703 14.0082 5.70703Z" fill="white"/>
<path d="M18.2773 3.41179C18.2773 3.87759 17.4381 4.28604 16.1945 4.50844C16.0225 4.53922 15.842 4.56719 15.6532 4.58957C15.3147 4.63293 14.9538 4.66371 14.5733 4.6777C14.4335 4.6777 14.2936 4.68609 14.1453 4.68749H14.0054C13.7425 4.68749 13.4851 4.68748 13.2361 4.6665C13.1116 4.6665 12.9899 4.65252 12.8668 4.64133C12.6332 4.62174 12.4052 4.59796 12.187 4.56579C10.7379 4.36297 9.73633 3.92095 9.73633 3.41039C9.73633 2.711 11.6457 2.1333 14.0054 2.1333C14.644 2.1334 15.2816 2.18015 15.9134 2.27318C16.1316 2.30535 16.333 2.34312 16.533 2.38648C16.6337 2.40886 16.7331 2.43264 16.8268 2.45642C17.0355 2.51053 17.2406 2.57781 17.4408 2.65785C17.5215 2.68961 17.6004 2.72556 17.6772 2.76555C17.8409 2.84176 17.99 2.9459 18.1179 3.07329C18.1685 3.12462 18.2093 3.18483 18.2382 3.25093C18.2622 3.30127 18.2755 3.35604 18.2773 3.41179Z" fill="white"/>
<path d="M18.241 3.41162H14.0082L12.3213 3.5515V4.58101C12.4989 4.60479 12.6808 4.62437 12.8696 4.63976C12.9927 4.65095 13.1144 4.65934 13.2389 4.66494C13.4879 4.67893 13.7453 4.68592 14.0082 4.68592H14.1481C14.288 4.68592 14.4349 4.68592 14.5761 4.67613C14.9538 4.66214 15.3175 4.63136 15.656 4.588C15.8448 4.56562 16.0253 4.53765 16.1973 4.50687C17.294 4.31104 18.0717 3.97254 18.2438 3.57668L18.241 3.41162Z" fill="#D4DF56"/>
<path d="M14.6826 3.41179C14.6826 3.87759 14.1986 4.28604 13.4768 4.50844C13.3775 4.53922 13.2726 4.56719 13.1635 4.58957C12.9576 4.63486 12.7486 4.66432 12.5382 4.6777C12.4571 4.6777 12.3746 4.68609 12.2906 4.68749H12.2109C12.0589 4.68749 11.9106 4.68049 11.7661 4.6665C11.6934 4.66091 11.622 4.65252 11.5521 4.64133C11.4194 4.62314 11.2877 4.59793 11.1576 4.56579C10.3184 4.36297 9.73926 3.92095 9.73926 3.41039C9.73926 2.711 10.8443 2.1333 12.2109 2.1333C12.5837 2.13374 12.9549 2.18073 13.316 2.27318C13.4375 2.30381 13.557 2.34165 13.674 2.38648C13.7328 2.40886 13.7901 2.43264 13.8447 2.45642C13.969 2.51265 14.0879 2.58007 14.2 2.65785C14.249 2.69061 14.2957 2.72659 14.3399 2.76555C14.4425 2.85203 14.5287 2.95627 14.5945 3.07329C14.6259 3.12898 14.6494 3.18876 14.6644 3.25093C14.6771 3.30359 14.6832 3.35762 14.6826 3.41179Z" fill="#FFCCBC"/>
<path d="M14.6612 3.24654C14.6456 3.18457 14.6221 3.12486 14.5913 3.06889C14.5256 2.95188 14.4394 2.84764 14.3367 2.76116C14.2925 2.7222 14.2458 2.68622 14.1968 2.65345C14.0848 2.57567 13.9658 2.50825 13.8416 2.45203C13.787 2.42825 13.7297 2.40447 13.6709 2.38209C13.5539 2.33725 13.4343 2.29942 13.3128 2.26878C12.9517 2.17633 12.5805 2.12934 12.2078 2.12891C12.0438 2.12913 11.8799 2.138 11.7168 2.15548C11.93 2.17497 12.1414 2.21098 12.349 2.26319C12.4705 2.29403 12.5901 2.33186 12.7071 2.37649C12.7659 2.39887 12.8232 2.42265 12.8778 2.44643C13.0021 2.50266 13.121 2.57008 13.2331 2.64786C13.282 2.68062 13.3288 2.7166 13.373 2.75556C13.4756 2.84205 13.5618 2.94628 13.6275 3.0633C13.6584 3.11927 13.6819 3.17897 13.6975 3.24094C13.7115 3.29484 13.7185 3.35031 13.7185 3.406C13.7185 3.8718 13.2345 4.28024 12.5127 4.50265C12.4134 4.53342 12.3085 4.5614 12.1994 4.58378C12.041 4.61735 11.8808 4.64164 11.7196 4.65652H11.7658C11.9103 4.6705 12.0586 4.6775 12.2106 4.6775H12.2903C12.3742 4.6775 12.4568 4.6775 12.5379 4.6677C12.7482 4.65433 12.9573 4.62487 13.1631 4.57958C13.2722 4.5572 13.3772 4.52923 13.4765 4.49845C14.1982 4.27605 14.6822 3.8676 14.6822 3.4018C14.6815 3.34939 14.6745 3.29726 14.6612 3.24654Z" fill="#FF7043"/>
<path d="M14.0084 4.93081C11.8095 4.93081 9.4707 4.39787 9.4707 3.41172C9.4707 2.42558 11.8095 1.89404 14.0084 1.89404C16.2073 1.89404 18.5446 2.42558 18.5446 3.41172C18.5446 4.39787 16.2073 4.93081 14.0084 4.93081ZM14.0084 2.28291C11.4388 2.28291 9.86097 2.94033 9.86097 3.41172C9.86097 3.88312 11.4388 4.54055 14.0084 4.54055C16.5779 4.54055 18.1558 3.88312 18.1558 3.41172C18.1558 2.94033 16.5779 2.28291 14.0084 2.28291Z" fill="#143D32"/>
<path d="M8.911 3.27053C9.07246 3.27053 9.20334 3.18035 9.20334 3.0691C9.20334 2.95786 9.07246 2.86768 8.911 2.86768C8.74954 2.86768 8.61865 2.95786 8.61865 3.0691C8.61865 3.18035 8.74954 3.27053 8.911 3.27053Z" fill="#DAE9EF"/>
<path d="M19.1516 2.80592C19.1516 2.91642 19.0201 3.00734 18.8592 3.00734C18.6984 3.00734 18.5669 2.91642 18.5669 2.80592C18.5669 2.69541 18.6984 2.60449 18.8592 2.60449C19.0201 2.60449 19.1516 2.68702 19.1516 2.80592Z" fill="#DAE9EF"/>
<path d="M14.7605 5.27662C14.7605 5.38852 14.6305 5.47805 14.4682 5.47805C14.3059 5.47805 14.1772 5.38852 14.1772 5.27662C14.1772 5.16472 14.3073 5.0752 14.4682 5.0752C14.6291 5.0752 14.7605 5.16612 14.7605 5.27662Z" fill="#DAE9EF"/>
<path d="M9.37129 3.8578C9.37129 3.92214 9.29575 3.9739 9.20203 3.9739C9.10831 3.9739 9.03418 3.92214 9.03418 3.8578C9.03418 3.79345 9.10971 3.7417 9.20203 3.7417C9.29435 3.7417 9.37129 3.79345 9.37129 3.8578Z" fill="#DAE9EF"/>
<path d="M16.4378 1.70252C16.4378 1.76547 16.3622 1.81863 16.2699 1.81863C16.1776 1.81863 16.1021 1.76547 16.1021 1.70252C16.1021 1.63958 16.1776 1.58643 16.2699 1.58643C16.3622 1.58643 16.4378 1.63818 16.4378 1.70252Z" fill="#DAE9EF"/>
<path d="M10.7728 5.07497C10.8655 5.07497 10.9407 5.023 10.9407 4.95888C10.9407 4.89476 10.8655 4.84277 10.7728 4.84277C10.6801 4.84277 10.605 4.89476 10.605 4.95888C10.605 5.023 10.6801 5.07497 10.7728 5.07497Z" fill="#DAE9EF"/>
<path d="M19.2663 3.6703C19.2663 3.73464 19.1908 3.7864 19.0971 3.7864C19.0033 3.7864 18.9292 3.73464 18.9292 3.6703C18.9292 3.60595 19.0047 3.5542 19.0971 3.5542C19.1894 3.5542 19.2663 3.60595 19.2663 3.6703Z" fill="#DAE9EF"/>
<path d="M17.8493 4.84266C17.8493 4.907 17.7738 4.95876 17.6801 4.95876C17.5863 4.95876 17.5122 4.907 17.5122 4.84266C17.5122 4.77832 17.5877 4.72656 17.6801 4.72656C17.7724 4.72656 17.8493 4.77971 17.8493 4.84266Z" fill="#DAE9EF"/>
<path d="M10.075 2.20448C10.075 2.26882 10.0008 2.32058 9.90711 2.32058C9.8134 2.32058 9.73926 2.26882 9.73926 2.20448C9.73926 2.14014 9.81479 2.08838 9.90711 2.08838C9.99943 2.08838 10.075 2.14014 10.075 2.20448Z" fill="#DAE9EF"/>
<defs>
<linearGradient id="paint0_linear" x1="2662.68" y1="4950.02" x2="2031.51" y2="4675.19" gradientUnits="userSpaceOnUse">
<stop stop-color="white" stop-opacity="0"/>
<stop offset="1" stop-color="#FF8F00"/>
</linearGradient>
<linearGradient id="paint1_linear" x1="2676.19" y1="4950.02" x2="2045.01" y2="4675.19" gradientUnits="userSpaceOnUse">
<stop stop-color="white" stop-opacity="0"/>
<stop offset="1" stop-color="#FF8F00"/>
</linearGradient>
<linearGradient id="paint2_linear" x1="2669.43" y1="4941.46" x2="2038.26" y2="4666.63" gradientUnits="userSpaceOnUse">
<stop stop-color="white" stop-opacity="0"/>
<stop offset="1" stop-color="#FF8F00"/>
</linearGradient>
</defs>
</svg>
