<svg width="19" height="18" viewBox="0 0 19 18" fill="none" xmlns="http://www.w3.org/2000/svg">
<path d="M13.6526 0.290527H5.62674C3.01466 0.290527 0.889648 2.41554 0.889648 5.02762V13.0536C0.889648 15.6655 3.01466 17.7905 5.62674 17.7905H13.6527C16.2646 17.7905 18.3896 15.6655 18.3896 13.0536V5.02762C18.3896 2.41554 16.2646 0.290527 13.6526 0.290527V0.290527ZM9.63965 13.8256C7.00114 13.8256 4.85463 11.679 4.85463 9.04053C4.85463 6.40202 7.00114 4.2555 9.63965 4.2555C12.2782 4.2555 14.4247 6.40202 14.4247 9.04053C14.4247 11.679 12.2782 13.8256 9.63965 13.8256ZM14.5391 5.38397C13.7594 5.38397 13.1252 4.74977 13.1252 3.97005C13.1252 3.19033 13.7594 2.556 14.5391 2.556C15.3188 2.556 15.9531 3.19033 15.9531 3.97005C15.9531 4.74977 15.3188 5.38397 14.5391 5.38397Z" fill="#7E992D"/>
<path d="M9.63996 5.28223C7.56728 5.28223 5.88086 6.96851 5.88086 9.04132C5.88086 11.114 7.56728 12.8004 9.63996 12.8004C11.7128 12.8004 13.3991 11.114 13.3991 9.04132C13.3991 6.96851 11.7128 5.28223 9.63996 5.28223Z" fill="#7E992D"/>
<path d="M14.5394 3.58154C14.3255 3.58154 14.1514 3.75565 14.1514 3.96954C14.1514 4.18343 14.3255 4.35753 14.5394 4.35753C14.7534 4.35753 14.9275 4.18356 14.9275 3.96954C14.9275 3.75551 14.7534 3.58154 14.5394 3.58154Z" fill="#7E992D"/>
</svg>
