<svg width="50" height="50" viewBox="0 0 50 50" fill="none" xmlns="http://www.w3.org/2000/svg">
<path d="M45.4977 26.3081H44.5088C44.1043 26.3081 43.7764 26.636 43.7764 27.0405C43.7764 27.445 44.1043 27.7729 44.5088 27.7729H45.4977C45.9021 27.7729 46.2301 27.445 46.2301 27.0405C46.2301 26.636 45.9021 26.3081 45.4977 26.3081Z" fill="#7B7B7B"/>
<path d="M39.9199 27.7729H40.9088C41.3133 27.7729 41.6412 27.445 41.6412 27.0405C41.6412 26.636 41.3133 26.3081 40.9088 26.3081H39.9199C39.5154 26.3081 39.1875 26.636 39.1875 27.0405C39.1875 27.445 39.5154 27.7729 39.9199 27.7729Z" fill="#7B7B7B"/>
<path d="M35.3315 27.7729H36.3204C36.7249 27.7729 37.0528 27.445 37.0528 27.0405C37.0528 26.636 36.7249 26.3081 36.3204 26.3081H35.3315C34.9271 26.3081 34.5991 26.636 34.5991 27.0405C34.5991 27.445 34.9271 27.7729 35.3315 27.7729Z" fill="#7B7B7B"/>
<path d="M31.7315 26.3081H30.7427C30.3382 26.3081 30.0103 26.636 30.0103 27.0405C30.0103 27.445 30.3382 27.7729 30.7427 27.7729H31.7315C32.136 27.7729 32.464 27.445 32.464 27.0405C32.464 26.636 32.136 26.3081 31.7315 26.3081Z" fill="#7B7B7B"/>
<path d="M42.2804 30.7341C41.431 30.7341 40.6217 31.0212 39.9701 31.538C39.3353 31.0353 38.534 30.7341 37.6633 30.7341C35.6104 30.7341 33.9402 32.4043 33.9402 34.4573C33.9402 36.5102 35.6104 38.1804 37.6633 38.1804C38.534 38.1804 39.3353 37.8792 39.9701 37.3765C40.6217 37.8934 41.4311 38.1804 42.2804 38.1804C44.3333 38.1804 46.0036 36.5102 46.0036 34.4573C46.0037 32.4043 44.3334 30.7341 42.2804 30.7341ZM35.4049 34.4574C35.4049 33.2122 36.418 32.1991 37.6632 32.1991C38.9084 32.1991 39.9215 33.2122 39.9215 34.4574C39.9215 35.7026 38.9084 36.7157 37.6632 36.7157C36.418 36.7157 35.4049 35.7026 35.4049 34.4574ZM42.2804 36.7157C41.7829 36.7157 41.308 36.5531 40.9199 36.2594C41.2167 35.725 41.3865 35.1108 41.3865 34.4574C41.3865 33.804 41.2167 33.1897 40.9199 32.6553C41.3081 32.3617 41.783 32.1991 42.2804 32.1991C43.5256 32.1991 44.5387 33.2122 44.5387 34.4574C44.5388 35.7026 43.5257 36.7157 42.2804 36.7157Z" fill="#7B7B7B"/>
<path d="M47.5214 7.87158H37.5388C37.1343 7.87158 36.8063 8.19951 36.8063 8.604C36.8063 9.0085 37.1343 9.33643 37.5388 9.33643H47.5214C48.0804 9.33643 48.5352 9.79121 48.5352 10.3502V17.0394H25.9197C25.5461 15.1075 23.4628 13.9953 21.636 14.8015L18.372 16.2413V9.33643H34.1134C34.5179 9.33643 34.8458 9.0085 34.8458 8.604C34.8458 8.19951 34.5179 7.87158 34.1134 7.87158H2.47861C1.11191 7.87158 0 8.98359 0 10.3503V39.6499C0 41.0166 1.11191 42.1285 2.47861 42.1285H47.5213C48.888 42.1285 49.9999 41.0166 49.9999 39.6499V10.3503C50 8.98359 48.8881 7.87158 47.5214 7.87158V7.87158ZM48.5352 21.2395H25.9766V18.5042H48.5352V21.2395ZM22.2271 16.1417C23.3018 15.6681 24.5117 16.449 24.5117 17.631C24.5102 22.0957 24.5149 21.8139 24.5084 21.9311C24.5082 21.9337 24.5085 21.9363 24.5084 21.939C24.4398 23.0502 23.2785 23.7854 22.2271 23.3218L18.8045 21.812C18.8239 21.6675 18.835 21.5203 18.835 21.3705V18.2466C18.835 18.0469 18.8161 17.8516 18.7819 17.6615L22.2271 16.1417ZM16.6118 24.4859C17.3033 24.2473 17.8912 23.785 18.2884 23.1853L18.4647 23.2631L20.7463 27.4925L20.0626 27.3655C19.5816 27.2767 19.1083 27.544 18.9368 28.0021L18.7615 28.4706C17.9363 26.9413 17.1757 25.5312 16.6118 24.4859V24.4859ZM12.3175 28.4708L12.1421 28.0021C11.9707 27.5441 11.4976 27.2767 11.0163 27.3656L10.3326 27.4926L12.6142 23.2632L12.7905 23.1854C13.1877 23.7851 13.7756 24.2473 14.4671 24.486C13.9032 25.5312 13.1434 26.9398 12.3175 28.4708ZM1.46484 21.2395V18.5042H5.10234V21.2395H1.46484ZM6.57051 21.9391C6.57041 21.9361 6.57061 21.9332 6.57051 21.9303C6.56406 21.8161 6.56875 22.1168 6.56719 17.631C6.56719 16.4625 7.76611 15.6628 8.85186 16.1417L12.2971 17.6615C12.2629 17.8516 12.244 18.0469 12.244 18.2467V21.3706C12.244 21.5204 12.255 21.6676 12.2745 21.8121L8.85195 23.3219C7.80039 23.7855 6.63906 23.0499 6.57051 21.9391V21.9391ZM17.3701 18.2466V21.3705C17.3701 22.3798 16.5491 23.2009 15.54 23.2012L15.5374 23.2011C14.5289 23.1999 13.7088 22.3792 13.7088 21.3705V18.2466C13.7088 17.2372 14.5301 16.4159 15.5395 16.4159C16.5488 16.4159 17.3701 17.2372 17.3701 18.2466V18.2466ZM16.907 15.2494C16.4901 15.0584 16.0271 14.9511 15.5395 14.9511C15.0518 14.9511 14.5888 15.0584 14.1719 15.2494V9.33643H16.9071V15.2494H16.907ZM2.47861 9.33643H12.707V16.2413L9.44297 14.8015C7.61367 13.9944 5.53232 15.1099 5.15918 17.0394H1.46484V10.3502C1.46484 9.79131 1.91963 9.33643 2.47861 9.33643V9.33643ZM1.46484 39.6499V22.7043H5.22822C5.74707 24.4778 7.71885 25.4227 9.44297 24.662L10.4301 24.2266L8.58809 27.6411C8.40254 27.9853 8.43027 28.3953 8.66055 28.7112C8.89082 29.0272 9.27246 29.1788 9.65713 29.1078L10.9052 28.8761L11.2997 29.9301C11.507 30.4841 12.1568 30.7546 12.7071 30.4665V33.1605C12.7071 33.565 13.0351 33.893 13.4396 33.893C13.844 33.893 14.172 33.565 14.172 33.1605V28.1186L15.5396 25.5834L16.9071 28.1186V40.6637H14.1719V36.5856C14.1719 36.1812 13.8439 35.8532 13.4395 35.8532C13.035 35.8532 12.707 36.1812 12.707 36.5856V40.6637H2.47861C1.91963 40.6638 1.46484 40.2089 1.46484 39.6499V39.6499ZM47.5214 40.6638H18.372V30.4666C18.9181 30.7525 19.5703 30.4887 19.7794 29.9301L20.1738 28.8761L21.4219 29.1078C21.8063 29.1791 22.1882 29.0272 22.4186 28.7112C22.6489 28.3952 22.6766 27.9852 22.4909 27.6411L20.6489 24.2266L21.6361 24.662C23.3613 25.4231 25.3323 24.4767 25.8509 22.7043H48.5352V39.6499C48.5352 40.2089 48.0804 40.6638 47.5214 40.6638V40.6638Z" fill="#7B7B7B"/>
</svg>
