<svg width="36" height="30" viewBox="0 0 36 30" fill="none" xmlns="http://www.w3.org/2000/svg">
<path d="M12.8681 18.8892C12.8199 18.8951 12.771 18.8951 12.7229 18.8892C11.4026 18.8892 10.0824 18.8593 8.76221 18.7696C7.71924 18.6918 6.267 18.62 5.41546 18.0279C5.36943 18.0008 5.32729 17.9687 5.29004 17.9322C5.81034 17.816 6.35044 17.7917 6.8809 17.8604L10.6831 18.303C11.4536 18.3323 12.2042 18.5337 12.8681 18.8892V18.8892Z" fill="#FF7844"/>
<path d="M7.13213 17.9194C7.05525 17.9136 6.97796 17.9136 6.90108 17.9194C6.80876 17.9232 6.71756 17.9393 6.63044 17.9673C6.53142 17.9673 6.41261 18.0391 6.41921 18.1288C6.42581 18.2185 6.51822 18.2544 6.60404 18.2843C7.16589 18.4583 7.76324 18.5175 8.35332 18.4578H8.41274C8.47215 18.4219 8.41274 18.3381 8.41274 18.2903C8.03416 18.0575 7.58949 17.9288 7.13213 17.9194V17.9194Z" fill="#FF8454"/>
<path d="M9.85247 18.2971C9.74112 18.2792 9.62717 18.2792 9.51582 18.2971C9.46038 18.3043 9.40758 18.3232 9.36171 18.3523C9.31583 18.3814 9.27817 18.4198 9.25177 18.4646C9.24352 18.4805 9.23926 18.4979 9.23926 18.5154C9.23926 18.533 9.24352 18.5504 9.25177 18.5663L9.29798 18.6022C9.50356 18.6913 9.73049 18.7324 9.95809 18.7218C10.192 18.7399 10.4276 18.7278 10.6578 18.6859C10.7214 18.6736 10.7804 18.6469 10.8294 18.6082C11.1265 18.339 9.96469 18.3031 9.85247 18.2971Z" fill="#FF8454"/>
<path d="M8.66396 19.6137C8.44 19.6331 8.21882 19.6732 8.00386 19.7333C7.83223 19.7872 7.64079 19.8948 7.6606 20.0503C7.67541 20.101 7.70358 20.1475 7.74268 20.1861C7.78178 20.2247 7.83064 20.254 7.88504 20.2717C8.15576 20.3816 8.44685 20.4445 8.74318 20.4571C9.48243 20.5249 10.2284 20.5027 10.9611 20.3913C11.0347 20.389 11.1068 20.3717 11.172 20.3406C11.2371 20.3095 11.2937 20.2655 11.3374 20.2118C11.4166 20.0683 11.2846 19.9307 11.1658 19.835C10.7967 19.6179 10.3545 19.5267 9.91817 19.5778C9.49969 19.567 9.08086 19.579 8.66396 19.6137V19.6137Z" fill="#FF8454"/>
<path d="M13.278 19.9419C13.256 20.215 13.1513 20.4772 12.9754 20.6999C12.7996 20.9225 12.5594 21.097 12.2813 21.204C11.6966 21.2378 11.1101 21.2378 10.5254 21.204C10.9479 21.1561 11.3769 21.0903 11.7994 21.0126C12.031 20.9807 12.2545 20.9118 12.4595 20.8092C12.8226 20.6118 12.9612 20.2051 13.278 19.9419Z" fill="#DE5018"/>
<path d="M15.5293 18.4592C15.4948 18.4714 15.4634 18.4897 15.4369 18.513C15.4207 18.5385 15.4121 18.5674 15.4121 18.5968C15.4121 18.6261 15.4207 18.655 15.4369 18.6805C15.4956 18.7553 15.576 18.8139 15.6692 18.8498C15.7624 18.8857 15.8648 18.8975 15.965 18.8839C16.196 18.8839 17.2852 18.7403 16.8561 18.3874C16.5591 18.1481 15.8329 18.3276 15.5293 18.4592Z" fill="#F5EDDD"/>
<path d="M11.6532 17.3701C11.6183 17.3641 11.5825 17.3641 11.5476 17.3701C11.5225 17.3898 11.5034 17.415 11.4918 17.4432C11.4803 17.4714 11.4768 17.5018 11.4816 17.5316C11.4816 17.705 11.7258 17.8067 11.9239 17.8546C12.1219 17.9024 13.2441 18.04 12.9404 17.5974C12.7424 17.3342 11.9833 17.3222 11.6532 17.3701Z" fill="#F5EDDD"/>
<path d="M16.1553 19.3488C16.1292 19.3435 16.1022 19.3435 16.0761 19.3488C16.0551 19.3631 16.0389 19.3825 16.0296 19.4047C16.0202 19.4269 16.0181 19.4511 16.0233 19.4744C16.0233 19.606 16.2015 19.6898 16.3467 19.7317C16.492 19.7735 17.3567 19.9051 17.1389 19.5582C16.9936 19.3429 16.4128 19.3189 16.1553 19.3488Z" fill="#F5EDDD"/>
<path d="M14.6845 20.3615C14.6634 20.3786 14.6455 20.3989 14.6317 20.4213C14.6257 20.444 14.6269 20.4679 14.635 20.4901C14.6432 20.5123 14.658 20.5319 14.6779 20.5469C14.7413 20.5883 14.8158 20.6134 14.8936 20.6197C14.9714 20.6261 15.0497 20.6133 15.1202 20.5828C15.2852 20.529 16.0377 20.182 15.6218 20.0265C15.3446 19.9188 14.8627 20.206 14.6845 20.3615Z" fill="#F5EDDD"/>
<path d="M17.7141 20.5697C17.7346 20.5591 17.7525 20.5448 17.7669 20.5278C17.7767 20.5113 17.7819 20.4928 17.7819 20.474C17.7819 20.4552 17.7767 20.4367 17.7669 20.4202C17.7238 20.3766 17.6687 20.3441 17.6072 20.3263C17.5457 20.3084 17.4801 20.3057 17.417 20.3185C17.2718 20.3185 16.5853 20.48 16.8824 20.6774C17.1794 20.8748 17.5293 20.6594 17.7141 20.5697Z" fill="#F5EDDD"/>
<path d="M8.77658 21.844L8.82939 21.8081C8.83922 21.7915 8.84436 21.773 8.84436 21.7542C8.84436 21.7354 8.83922 21.717 8.82939 21.7004C8.78798 21.6547 8.73326 21.6203 8.67143 21.6013C8.6096 21.5823 8.54313 21.5793 8.47954 21.5927C8.33431 21.5927 7.6478 21.7542 7.94485 21.9576C8.2419 22.161 8.59175 21.9397 8.77658 21.844Z" fill="#F5EDDD"/>
<path d="M10.6903 17.7761C10.7119 17.7818 10.7347 17.7818 10.7563 17.7761C10.7741 17.7662 10.7884 17.752 10.7977 17.7351C10.8071 17.7181 10.811 17.6992 10.8091 17.6804C10.8091 17.5668 10.6771 17.489 10.5517 17.4471C10.4263 17.4053 9.73314 17.2617 9.89157 17.5548C9.99059 17.7462 10.4725 17.7881 10.6903 17.7761Z" fill="#F5EDDD"/>
<path d="M25.139 21.9517C25.0621 21.9458 24.9848 21.9458 24.9079 21.9517C24.8156 21.9554 24.7244 21.9716 24.6373 21.9995C24.5383 21.9995 24.4194 22.0773 24.426 22.161C24.4326 22.2448 24.5251 22.2866 24.6109 22.3165C25.1728 22.4901 25.7701 22.5493 26.3602 22.49C26.3799 22.4925 26.3999 22.4925 26.4196 22.49C26.479 22.4541 26.4196 22.3704 26.4196 22.3225C26.0697 22.0055 25.5548 22.0474 25.139 21.9517Z" fill="#FF8454"/>
<path d="M27.8593 22.3284C27.748 22.3105 27.634 22.3105 27.5227 22.3284C27.4672 22.3355 27.4144 22.3544 27.3685 22.3835C27.3227 22.4126 27.285 22.4511 27.2586 22.4958C27.2504 22.5118 27.2461 22.5291 27.2461 22.5467C27.2461 22.5643 27.2504 22.5816 27.2586 22.5975L27.3048 22.6334C27.5104 22.7226 27.7373 22.7637 27.9649 22.753C28.1989 22.7713 28.4345 22.7592 28.6646 22.7172C28.7287 22.7062 28.7882 22.6793 28.8363 22.6394C29.1333 22.3702 28.0045 22.3403 27.8593 22.3284Z" fill="#FF8454"/>
<path d="M29.661 21.4017C29.6242 21.4061 29.5885 21.4162 29.5554 21.4316C29.5304 21.4513 29.5112 21.4765 29.4996 21.5047C29.4881 21.5329 29.4846 21.5633 29.4894 21.5931C29.4894 21.7666 29.7336 21.8682 29.9317 21.9161C30.1297 21.964 31.2519 22.1015 30.9482 21.6589C30.7502 21.3658 29.9845 21.3538 29.661 21.4017Z" fill="#F5EDDD"/>
<path d="M18.7102 21.8857C18.7102 21.8857 18.6376 21.9156 18.6178 21.9456C18.6002 21.9706 18.5908 21.9996 18.5908 22.0293C18.5908 22.059 18.6002 22.088 18.6178 22.113C18.7036 22.2745 18.9413 22.3164 19.1459 22.3164C19.3505 22.3164 20.4661 22.1669 20.0437 21.814C19.74 21.5807 19.0073 21.7601 18.7102 21.8857Z" fill="#F5EDDD"/>
<path d="M17.7066 24.1474C17.6784 24.1577 17.6535 24.1742 17.634 24.1953C17.6192 24.2157 17.6113 24.2396 17.6113 24.2641C17.6113 24.2885 17.6192 24.3124 17.634 24.3328C17.6809 24.3927 17.7452 24.4395 17.8199 24.468C17.8945 24.4966 17.9764 24.5057 18.0564 24.4943C18.2479 24.4943 19.1324 24.3747 18.7826 24.0936C18.5449 23.9022 17.9508 24.0457 17.7066 24.1474Z" fill="#F5EDDD"/>
<path d="M28.6971 21.8083C28.7187 21.814 28.7416 21.814 28.7631 21.8083C28.7809 21.7984 28.7952 21.7842 28.8046 21.7673C28.8139 21.7504 28.8178 21.7315 28.816 21.7126C28.816 21.599 28.6839 21.5212 28.5585 21.4794C28.4331 21.4375 27.74 21.2939 27.8984 21.587C28.004 21.7784 28.4859 21.8203 28.6971 21.8083Z" fill="#F5EDDD"/>
<path d="M19.7924 22.9089L19.8519 22.873C19.8617 22.8565 19.8668 22.838 19.8668 22.8192C19.8668 22.8004 19.8617 22.7819 19.8519 22.7653C19.8104 22.7196 19.7557 22.6853 19.6939 22.6663C19.6321 22.6472 19.5656 22.6443 19.502 22.6577C19.3568 22.6577 18.6703 22.8192 18.9673 23.0226C19.1587 23.1541 19.6142 23.0046 19.7924 22.9089Z" fill="#F5EDDD"/>
<path d="M21.3244 22.089H21.3904C21.4094 22.0783 21.4249 22.0633 21.4353 22.0454C21.4458 22.0276 21.4508 22.0075 21.4498 21.9873C21.4498 21.8796 21.3178 21.7959 21.199 21.754C21.0801 21.7121 20.3804 21.5506 20.5388 21.8497C20.6313 22.0471 21.1131 22.0949 21.3244 22.089Z" fill="#F5EDDD"/>
<path d="M30.7772 8.75684V20.624C30.7772 22.6996 25.0013 24.3864 17.8853 24.3864C11.9443 24.3864 6.90111 23.1901 5.43567 21.5931C5.16742 21.3276 5.01288 20.9838 5 20.624V8.75684H30.7772Z" fill="#57493D"/>
<path d="M17.179 11.8074C16.5444 12.6422 15.8069 13.4087 14.9808 14.0923C14.1007 14.9257 13.1743 15.7232 12.2018 16.4849C10.9341 17.5581 9.47716 18.4315 7.89127 19.0689C6.95693 19.3858 5.98755 19.6104 5 19.7388V8.75684H13.4824C14.4065 9.19348 15.3109 9.66004 16.2284 10.0668C17.146 10.4735 17.7269 10.9461 17.179 11.8074Z" fill="#5C4D40"/>
<path d="M30.7781 8.75684V20.624C30.7781 22.6996 25.0021 24.3864 17.8862 24.3864C11.9452 24.3864 6.90196 23.1901 5.43652 21.5931C8.86933 21.5975 12.2921 21.2565 15.6418 20.5762C19.6486 19.673 23.5235 17.8965 26.0385 15.0374C27.0351 13.874 27.8503 12.592 28.4611 11.2272C28.8109 10.4795 28.9364 9.49854 29.2862 8.75684H30.7781Z" fill="#42372E"/>
<path d="M30.7772 8.75652C30.7772 8.91245 30.7436 9.06687 30.6782 9.2111C29.9125 11.0713 24.4732 12.5189 17.8853 12.5189C10.7627 12.5189 5 10.8321 5 8.75652C5 7.24919 8.0365 5.95121 12.4328 5.35306C14.2381 5.113 16.0607 4.99504 17.8853 5.00016C25.0013 5.00016 30.7772 6.68095 30.7772 8.75652Z" fill="#E8E0D1"/>
<path d="M22.9417 8.05693C22.9099 8.16597 22.8494 8.26643 22.7655 8.34975C22.6816 8.43306 22.5767 8.49677 22.4598 8.53544C22.1269 8.63029 21.7736 8.65081 21.43 8.59525C19.0419 8.50439 16.6603 8.30476 14.2943 7.99711C14.2547 7.84922 14.2576 7.69463 14.3027 7.54804C14.3477 7.40146 14.4335 7.26776 14.5517 7.15971C14.7402 7.00324 14.9661 6.88857 15.2118 6.82475C15.7407 6.69594 16.2922 6.66141 16.8357 6.72306L20.6313 7.17167C21.4011 7.20334 22.1499 7.40897 22.8097 7.76982L22.9153 7.84757C22.9436 7.91417 22.9527 7.98624 22.9417 8.05693Z" fill="#F17140"/>
<path d="M22.8298 7.75139C22.7816 7.7573 22.7327 7.7573 22.6845 7.75139C21.3643 7.75139 20.0441 7.75138 18.7239 7.63175C17.6809 7.554 16.2221 7.4882 15.3705 6.89604L15.2451 6.80033C15.774 6.67153 16.3255 6.63699 16.869 6.69865L20.6646 7.14726C21.4305 7.18271 22.1745 7.39034 22.8298 7.75139V7.75139Z" fill="#FF7844"/>
<path d="M22.9418 8.0564C22.9347 8.0958 22.9213 8.13407 22.9022 8.17005C22.812 8.33861 22.6536 8.46925 22.46 8.53492C22.1264 8.62684 21.7739 8.64731 21.4302 8.59473C19.042 8.50413 16.6604 8.30449 14.2944 7.99658C14.2573 7.8449 14.2573 7.6877 14.2944 7.53601C14.3355 7.39087 14.4227 7.25984 14.5453 7.15918V7.15918C15.3902 7.35657 16.1757 7.6676 17.0603 7.79321C18.8773 7.99746 20.7091 8.07346 22.5392 8.02051C22.6746 8.01456 22.8103 8.02665 22.9418 8.0564V8.0564Z" fill="#E85D27"/>
<path d="M17.0872 6.78804C17.0108 6.77573 16.9326 6.77573 16.8562 6.78804C16.7642 6.7903 16.6731 6.80439 16.5855 6.8299C16.4865 6.8299 16.3677 6.90766 16.3743 6.99738C16.3809 7.08711 16.4799 7.123 16.5657 7.14692C17.1238 7.32674 17.7205 7.38614 18.3084 7.32039H18.3678C18.4338 7.2845 18.3678 7.19478 18.3348 7.15291C18.018 6.83589 17.5097 6.85383 17.0872 6.78804Z" fill="#FF8454"/>
<path d="M19.8125 7.15967C19.6986 7.14469 19.583 7.14469 19.4692 7.15967C19.4151 7.16813 19.3638 7.1876 19.3193 7.21661C19.2747 7.24562 19.2379 7.28341 19.2118 7.32715C19.2004 7.3421 19.1943 7.35984 19.1943 7.37799C19.1943 7.39615 19.2004 7.41387 19.2118 7.42883C19.2118 7.42883 19.2118 7.42883 19.258 7.46472C19.4623 7.55767 19.6898 7.60096 19.9181 7.59033C20.1392 7.60365 20.3613 7.58956 20.5782 7.54846C20.6446 7.53861 20.7065 7.51162 20.7564 7.4707C21.0865 7.20752 19.9247 7.17163 19.8125 7.15967Z" fill="#FF8454"/>
<path d="M22.9022 8.17065C22.812 8.33921 22.6536 8.46986 22.46 8.53552C22.1264 8.62745 21.7739 8.64792 21.4302 8.59533C19.042 8.50473 16.6604 8.3051 14.2944 7.99719C14.2573 7.8455 14.2573 7.68831 14.2944 7.53662C14.4177 7.58718 14.5458 7.62723 14.6773 7.65625C14.9743 7.72204 15.278 7.78784 15.5816 7.82971C15.8853 7.87158 16.0965 7.88355 16.354 7.90149L20.8295 8.21252C21.5195 8.28049 22.2163 8.26642 22.9022 8.17065V8.17065Z" fill="#DE5018"/>
<path d="M13.607 9.61792C14.1417 9.66577 14.6698 9.73755 15.2044 9.82129C14.1582 9.77658 13.1192 9.64037 12.1019 9.41455C11.7125 9.25904 11.7719 9.01978 12.0161 8.76855C12.041 8.8579 12.0719 8.94579 12.1085 9.03174C12.2069 9.19895 12.362 9.33313 12.5508 9.41455C12.8875 9.53637 13.2447 9.60515 13.607 9.61792V9.61792Z" fill="#DE5018"/>
<path d="M22.2356 10.0845C21.5227 10.2161 13.2318 9.86316 12.103 9.42651C11.5485 9.21118 11.8983 8.82837 12.3934 8.46948C12.6935 8.2663 13.0089 8.08242 13.3374 7.91919L13.5222 7.83545C13.5222 7.83545 22.2224 8.43359 22.9353 8.4934C22.9794 8.49708 23.0222 8.50911 23.0608 8.52868C23.0995 8.54825 23.1332 8.57495 23.1598 8.60705V8.60705C23.4436 8.948 22.8429 9.95288 22.2356 10.0845Z" fill="#F17140"/>
<path d="M22.9813 8.57739C23.0209 8.76282 22.8229 8.91834 22.6314 9.02002C22.2868 9.19348 21.9151 9.31852 21.5291 9.39087C21.2501 9.43879 20.9677 9.46878 20.6841 9.4806C18.3482 9.63487 15.9999 9.49394 13.7068 9.06189C13.5119 9.04282 13.329 8.9673 13.1853 8.84655C13.1241 8.77086 13.0848 8.68249 13.071 8.58951C13.0572 8.49653 13.0692 8.40188 13.1061 8.31421C13.1605 8.16901 13.2383 8.03194 13.3371 7.90747L13.5219 7.82373C13.5219 7.82373 22.2222 8.42188 22.9351 8.48169C22.9574 8.51048 22.9731 8.54301 22.9813 8.57739V8.57739Z" fill="#FF7844"/>
<path d="M23.2331 8.81018C23.2117 9.08344 23.1073 9.346 22.9314 9.56877C22.7554 9.79154 22.5149 9.96581 22.2363 10.0723C21.6517 10.1082 21.0651 10.1082 20.4804 10.0723V10.0723C19.0282 10.0364 16.9489 9.94068 15.1996 9.80908C14.1534 9.76437 13.1143 9.62817 12.0971 9.40235C11.7076 9.24683 11.767 9.00757 12.0112 8.75635C12.1259 8.64243 12.2518 8.53831 12.3875 8.44531C12.3562 8.51979 12.3405 8.5989 12.3413 8.67859C12.3769 8.81459 12.4492 8.94047 12.5517 9.04487C12.6543 9.14928 12.7838 9.22895 12.9288 9.27674C13.1822 9.35878 13.4462 9.41105 13.7143 9.43226C15.8979 9.73817 18.1061 9.87624 20.3154 9.84498C20.8623 9.84833 21.4062 9.77157 21.9261 9.61768C22.1819 9.54226 22.4172 9.41848 22.6163 9.25453C22.8155 9.09058 22.9739 8.8902 23.0812 8.66663L23.1275 8.57093C23.1861 8.64043 23.2227 8.72318 23.2331 8.81018V8.81018Z" fill="#E85D27"/>
<path d="M14.6702 8.06226C14.4764 8.04854 14.2813 8.06885 14.0959 8.12208C13.9973 8.13961 13.9079 8.18665 13.8423 8.25568C13.7766 8.32471 13.7384 8.41172 13.7339 8.50276C13.7293 8.5938 13.7586 8.68359 13.8171 8.75773C13.8756 8.83187 13.9598 8.88606 14.0563 8.91163C14.2488 8.98396 14.4553 9.02057 14.6636 9.0193L15.8122 9.09706C16.0931 9.13449 16.3796 9.11404 16.6506 9.03725C16.7599 9.01433 16.8566 8.95661 16.923 8.87457C16.9894 8.79253 17.021 8.69162 17.0122 8.59021C17.0034 8.48879 16.9548 8.39361 16.8751 8.32197C16.7954 8.25033 16.6899 8.207 16.578 8.19984C15.9466 8.11223 15.309 8.06624 14.6702 8.06226V8.06226Z" fill="#FF8454"/>
<path d="M18.6174 8.47472C18.3933 8.49658 18.1721 8.53866 17.9573 8.60033C17.7856 8.64819 17.5942 8.75585 17.6206 8.91136C17.6355 8.96264 17.6636 9.00999 17.7026 9.0495C17.7416 9.08902 17.7905 9.11958 17.8451 9.13866C18.1158 9.24236 18.4034 9.305 18.6966 9.32409C19.4361 9.38998 20.1821 9.36584 20.9146 9.25231C21.0598 9.25231 21.2314 9.1925 21.2908 9.07885C21.3502 8.96521 21.238 8.79174 21.1192 8.70202C20.7528 8.47931 20.3082 8.38767 19.8716 8.44481C19.4532 8.43205 19.0344 8.44204 18.6174 8.47472V8.47472Z" fill="#FF8454"/>
<path d="M23.2321 8.81006C23.2108 9.08331 23.1064 9.34588 22.9304 9.56865C22.7545 9.79142 22.5139 9.96569 22.2354 10.0721C21.6507 10.108 21.0641 10.108 20.4795 10.0721C20.9086 10.0243 21.3376 9.96449 21.7535 9.88074C21.9851 9.84886 22.2086 9.78001 22.4136 9.67738C22.7569 9.48597 22.9219 9.06726 23.2321 8.81006Z" fill="#DE5018"/>
<path d="M29.4513 9.31324C28.4611 10.9342 23.6028 12.1664 17.7542 12.1664C16.3091 12.1683 14.8652 12.0904 13.4305 11.9331V11.9331C12.416 11.8229 11.4106 11.6531 10.4204 11.4247V11.4247C7.66776 10.7907 5.90527 9.80372 5.90527 8.70313C5.90527 7.42908 8.28166 6.31055 11.8462 5.7124C11.0916 6.12771 10.4217 6.65786 9.86592 7.27954C9.31143 7.94947 8.93516 8.99622 9.74709 9.64222C10.8297 10.4976 13.0476 10.665 14.4075 10.8385C17.157 11.2143 19.9544 11.1982 22.6984 10.7907C24.1248 10.5797 25.5356 10.29 26.9231 9.92335C27.7521 9.67569 28.5962 9.47199 29.4513 9.31324V9.31324Z" fill="#F5EDDD"/>
<path d="M25.4895 7.31493C25.4565 7.31493 25.4169 7.31494 25.3971 7.37475C25.3795 7.39976 25.3701 7.42882 25.3701 7.45849C25.3701 7.48817 25.3795 7.51723 25.3971 7.54223C25.4829 7.70373 25.7206 7.7456 25.9252 7.7456C26.1298 7.7456 27.2454 7.59607 26.823 7.24316C26.5193 7.00988 25.7866 7.18932 25.4895 7.31493Z" fill="#F5EDDD"/>
<path d="M21.6151 6.23251C21.5766 6.23421 21.5397 6.24676 21.5095 6.2684C21.482 6.28488 21.4609 6.30872 21.449 6.3366C21.4372 6.36447 21.4353 6.395 21.4435 6.42392C21.4435 6.59739 21.6811 6.70504 21.8792 6.7529C22.0772 6.80075 23.1994 6.93833 22.9023 6.4957C22.7241 6.19662 21.9386 6.19064 21.6151 6.23251Z" fill="#F5EDDD"/>
<path d="M10.6565 6.72314C10.6221 6.73532 10.5906 6.75362 10.5641 6.77698C10.5465 6.80198 10.5371 6.83104 10.5371 6.86072C10.5371 6.89039 10.5465 6.91945 10.5641 6.94446C10.6433 7.10595 10.8876 7.1538 11.0922 7.14782C11.2968 7.14184 12.4124 6.99829 11.9833 6.65136C11.6863 6.41808 10.9536 6.59753 10.6565 6.72314Z" fill="#F5EDDD"/>
<path d="M9.65384 8.98424C9.62733 8.9946 9.60281 9.00873 9.58123 9.02611C9.56646 9.04656 9.55859 9.07046 9.55859 9.0949C9.55859 9.11934 9.56646 9.14324 9.58123 9.16369C9.64724 9.29528 9.84528 9.33117 10.0103 9.33117C10.1753 9.33117 11.0797 9.21154 10.7298 8.92443C10.4922 8.73302 9.89808 8.88854 9.65384 8.98424Z" fill="#F5EDDD"/>
<path d="M26.1169 8.21176H26.0311C26.0112 8.22552 25.9958 8.24391 25.9865 8.26497C25.9772 8.28604 25.9743 8.309 25.9783 8.3314C25.9783 8.46897 26.1565 8.55271 26.3083 8.5886C26.4602 8.62449 27.3117 8.76206 27.1005 8.41514C26.9553 8.20579 26.3678 8.18784 26.1169 8.21176Z" fill="#F5EDDD"/>
<path d="M24.6384 9.2294C24.6173 9.2452 24.6013 9.26586 24.5922 9.28921C24.5852 9.31047 24.5852 9.33313 24.5922 9.35439C24.5992 9.37565 24.613 9.39458 24.6318 9.40883C24.6945 9.45142 24.7692 9.47734 24.8473 9.48368C24.9254 9.49001 25.0039 9.47653 25.074 9.44472C25.2391 9.39089 25.9916 9.04995 25.5757 8.88845C25.2985 8.78078 24.8232 9.07388 24.6384 9.2294Z" fill="#F5EDDD"/>
<path d="M27.6687 9.43239C27.6892 9.42174 27.7071 9.4075 27.7215 9.39051C27.7326 9.37437 27.7385 9.35572 27.7385 9.33668C27.7385 9.31765 27.7326 9.299 27.7215 9.28285C27.678 9.23974 27.6229 9.20767 27.5615 9.18983C27.5001 9.17199 27.4347 9.16901 27.3716 9.18117C27.2198 9.18117 26.5399 9.34267 26.837 9.54604C27.134 9.74941 27.4905 9.52809 27.6687 9.43239Z" fill="#F5EDDD"/>
<path d="M18.7635 10.7134C18.7645 10.7035 18.7645 10.6934 18.7635 10.6835C18.7746 10.6673 18.7805 10.6487 18.7805 10.6297C18.7805 10.6106 18.7746 10.592 18.7635 10.5758C18.72 10.5327 18.6649 10.5006 18.6035 10.4828C18.5421 10.465 18.4767 10.462 18.4136 10.4741C18.2618 10.4741 17.5819 10.6356 17.8789 10.833C18.176 11.0304 18.5523 10.8031 18.7635 10.7134Z" fill="#F5EDDD"/>
<path d="M20.6441 6.64439H20.7168C20.7336 6.63359 20.7471 6.61922 20.7564 6.60253C20.7656 6.58584 20.7701 6.56734 20.7696 6.54869C20.7696 6.43504 20.6309 6.35728 20.5121 6.31541C20.3933 6.27354 19.687 6.12999 19.852 6.42906C19.951 6.6085 20.4329 6.65636 20.6441 6.64439Z" fill="#F5EDDD"/>
<path d="M11.7453 7.74549C11.7658 7.73484 11.7838 7.72061 11.7981 7.70362C11.8093 7.68747 11.8152 7.66881 11.8152 7.64978C11.8152 7.63075 11.8093 7.6121 11.7981 7.59595C11.7551 7.55234 11.7 7.51993 11.6385 7.50205C11.577 7.48418 11.5113 7.48149 11.4483 7.49427C11.3031 7.49427 10.6166 7.65577 10.9136 7.85316C11.2107 8.05055 11.5605 7.83521 11.7453 7.74549Z" fill="#F5EDDD"/>
<path d="M13.2716 6.92037C13.2954 6.92594 13.3204 6.92594 13.3442 6.92037C13.361 6.90957 13.3747 6.89519 13.3839 6.87849C13.3931 6.8618 13.3976 6.84332 13.3971 6.82466C13.3971 6.71102 13.265 6.63326 13.1462 6.59139C13.0274 6.54952 12.3277 6.38802 12.4861 6.68709C12.5785 6.87252 13.0604 6.92635 13.2716 6.92037Z" fill="#F5EDDD"/>
<path opacity="0.06" d="M5.77233 14.6545C5.8324 15.2139 5.95177 15.7667 6.12878 16.3054C6.34698 17.4005 6.8644 18.4287 7.63382 19.2961C8.42215 19.9792 9.35677 20.5085 10.3799 20.8513C15.4957 22.8491 21.4961 23.6566 26.9684 22.4065C27.5534 22.3128 28.1003 22.0795 28.5526 21.7306C28.9346 21.3167 29.126 20.7855 29.0873 20.2472C29.0415 19.2156 28.8462 18.194 28.5064 17.2086C28.3862 16.4608 27.9825 15.7742 27.3646 15.2667C26.7467 14.7592 25.9531 14.4624 25.1201 14.4272C22.2156 13.829 19.1791 14.3135 16.1426 14.2478C13.3944 14.1858 10.685 13.6456 8.16191 12.6567C7.4556 12.3756 6.69647 11.8791 6.18159 12.5131C5.71291 13.0335 5.71952 14.0504 5.77233 14.6545Z" fill="white"/>
</svg>
