<svg width="40" height="40" viewBox="0 0 40 40" fill="none" xmlns="http://www.w3.org/2000/svg">
<circle cx="20" cy="20" r="19.5" stroke="#F5A31A"/>
<g clip-path="url(#clip0_246_1355)">
<path d="M13 16.7131C13 21.2187 18.2248 28.3113 19.4246 29.8816C19.5284 30.0174 19.7185 30.0418 19.8534 29.9408C19.8741 29.9234 19.8949 29.906 19.9122 29.8816C21.112 28.3113 26.3368 21.2187 26.3368 16.7131C26.3333 13.0049 23.3458 10 19.6667 10C15.9841 10 13 13.0049 13 16.7131ZM19.6667 13.2486C21.5685 13.2486 23.1072 14.7981 23.1072 16.7131C23.1072 18.6281 21.5685 20.1776 19.6667 20.1776C17.7649 20.1776 16.2261 18.6281 16.2261 16.7131C16.2261 14.7981 17.7649 13.2486 19.6667 13.2486Z" fill="#F5A31A"/>
</g>
<defs>
<clipPath id="clip0_246_1355">
<rect width="13.3333" height="20" fill="white" transform="translate(13 10)"/>
</clipPath>
</defs>
</svg>
