<svg width="16" height="16" viewBox="0 0 16 16" fill="none" xmlns="http://www.w3.org/2000/svg">
<g clip-path="url(#clip0_710:3210)">
<path d="M4.81258 6.95426C4.44313 6.8479 4.07369 6.79393 3.71431 6.79393C3.15936 6.79393 2.69629 6.92075 2.33723 7.07605C2.68339 5.80879 3.51496 3.62217 5.17148 3.37592C5.32489 3.35311 5.45061 3.24218 5.49247 3.09286L5.85452 1.79791C5.88504 1.6884 5.86695 1.57118 5.80448 1.47614C5.74202 1.3811 5.64163 1.31769 5.52913 1.30227C5.40687 1.2856 5.28226 1.2771 5.15874 1.2771C3.17037 1.2771 1.2012 3.35248 0.370263 6.32409C-0.117506 8.06747 -0.260532 10.6885 0.940953 12.3383C1.61329 13.2614 2.59418 13.7544 3.8564 13.8036C3.86159 13.8038 3.86662 13.804 3.87182 13.804C5.42922 13.804 6.81023 12.7551 7.23034 11.2536C7.48131 10.3559 7.36786 9.41451 6.91062 8.60213C6.45825 7.79889 5.71322 7.21341 4.81258 6.95426Z" fill="#7E992D"/>
<path d="M14.5616 8.60229C14.1092 7.79889 13.3642 7.21341 12.4636 6.95426C12.0941 6.84789 11.7247 6.79392 11.3655 6.79392C10.8105 6.79392 10.3473 6.92075 9.98821 7.07605C10.3344 5.80879 11.1659 3.62217 12.8226 3.37592C12.976 3.35311 13.1016 3.24218 13.1436 3.09286L13.5057 1.79791C13.5362 1.6884 13.5181 1.57118 13.4556 1.47614C13.3933 1.3811 13.2929 1.31769 13.1803 1.30227C13.0582 1.2856 12.9335 1.2771 12.8099 1.2771C10.8215 1.2771 8.85234 3.35248 8.02124 6.32409C7.53363 8.06747 7.39061 10.6885 8.59225 12.3386C9.26443 13.2616 10.2455 13.7547 11.5075 13.8038C11.5127 13.804 11.5178 13.8041 11.5231 13.8041C13.0804 13.8041 14.4615 12.7552 14.8816 11.2537C15.1323 10.3561 15.0187 9.4145 14.5616 8.60229Z" fill="#7E992D"/>
</g>
<defs>
<clipPath id="clip0_710:3210">
<rect width="15.0002" height="15" fill="white" transform="translate(0.0117188 0.0405273)"/>
</clipPath>
</defs>
</svg>
