<svg width="56" height="39" viewBox="0 0 56 39" fill="none" xmlns="http://www.w3.org/2000/svg">
<g filter="url(#filter0_d_1139_10)">
<rect x="4" y="2" width="48" height="31" rx="3" fill="white"/>
</g>
<path fill-rule="evenodd" clip-rule="evenodd" d="M42.0577 15.3308C42.0577 19.9317 38.335 23.6615 33.7427 23.6615C29.1505 23.6615 25.4277 19.9317 25.4277 15.3308C25.4277 10.7298 29.1505 7 33.7427 7C38.335 7 42.0577 10.7298 42.0577 15.3308Z" fill="#F79F1A"/>
<path fill-rule="evenodd" clip-rule="evenodd" d="M31.7999 15.3308C31.7999 19.9317 28.0772 23.6615 23.4849 23.6615C18.8927 23.6615 15.1699 19.9317 15.1699 15.3308C15.1699 10.7298 18.8927 7 23.4849 7C28.0772 7 31.7999 10.7298 31.7999 15.3308Z" fill="#EA001B"/>
<path fill-rule="evenodd" clip-rule="evenodd" d="M28.6142 8.77295C26.6741 10.298 25.4287 12.6679 25.4287 15.3302C25.4287 17.9925 26.6741 20.3642 28.6142 21.8893C30.5543 20.3642 31.7996 17.9925 31.7996 15.3302C31.7996 12.6679 30.5543 10.298 28.6142 8.77295Z" fill="#FF5F01"/>
<path d="M20.7488 26.1446C20.9851 26.1446 21.1723 26.2137 21.3104 26.3517C21.4484 26.4874 21.5175 26.6922 21.5175 26.966V28.04H21.0787V27.0221C21.0787 26.8583 21.0424 26.7355 20.9699 26.6536C20.8974 26.5693 20.7932 26.5272 20.6575 26.5272C20.5101 26.5272 20.3919 26.5764 20.303 26.6746C20.2141 26.7706 20.1696 26.9086 20.1696 27.0888V28.04H19.7309V27.0221C19.7309 26.8583 19.6946 26.7355 19.6221 26.6536C19.5495 26.5693 19.4454 26.5272 19.3097 26.5272C19.1599 26.5272 19.0406 26.5752 18.9517 26.6711C18.8651 26.7671 18.8218 26.9063 18.8218 27.0888V28.04H18.383V26.1657H18.8007V26.4044C18.8709 26.3201 18.9587 26.2558 19.064 26.2113C19.1693 26.1669 19.2863 26.1446 19.415 26.1446C19.5554 26.1446 19.6794 26.1715 19.787 26.2254C19.897 26.2768 19.9836 26.3541 20.0468 26.457C20.124 26.3587 20.2234 26.2827 20.3451 26.2289C20.4668 26.1727 20.6014 26.1446 20.7488 26.1446ZM22.8293 26.1446C23.1054 26.1446 23.316 26.2113 23.4611 26.3447C23.6085 26.4757 23.6822 26.6746 23.6822 26.9414V28.04H23.268V27.8119C23.2142 27.8938 23.137 27.957 23.0364 28.0014C22.9381 28.0435 22.8187 28.0646 22.6783 28.0646C22.5379 28.0646 22.4151 28.0412 22.3098 27.9944C22.2045 27.9453 22.1226 27.8786 22.0641 27.7943C22.0079 27.7078 21.9799 27.6106 21.9799 27.503C21.9799 27.3345 22.0419 27.2 22.1659 27.0994C22.2922 26.9964 22.49 26.9449 22.7591 26.9449H23.2435V26.9168C23.2435 26.7858 23.2037 26.6852 23.1241 26.615C23.0469 26.5448 22.9311 26.5097 22.7766 26.5097C22.6713 26.5097 22.5672 26.5261 22.4642 26.5588C22.3636 26.5916 22.2782 26.6372 22.208 26.6957L22.036 26.3763C22.1343 26.3014 22.2525 26.2441 22.3905 26.2043C22.5286 26.1645 22.6748 26.1446 22.8293 26.1446ZM22.7696 27.7452C22.8796 27.7452 22.9767 27.7206 23.0609 27.6715C23.1475 27.62 23.2084 27.5475 23.2435 27.4539V27.2362H22.7907C22.5379 27.2362 22.4116 27.3193 22.4116 27.4855C22.4116 27.565 22.4432 27.6282 22.5064 27.675C22.5695 27.7218 22.6573 27.7452 22.7696 27.7452ZM24.8595 28.0646C24.7074 28.0646 24.5588 28.0447 24.4138 28.0049C24.2687 27.9652 24.1529 27.9148 24.0663 27.854L24.2348 27.5206C24.319 27.5767 24.4196 27.6223 24.5366 27.6574C24.656 27.6902 24.773 27.7066 24.8876 27.7066C25.1497 27.7066 25.2807 27.6376 25.2807 27.4995C25.2807 27.434 25.2468 27.3883 25.1789 27.3626C25.1134 27.3369 25.007 27.3123 24.8595 27.2889C24.7051 27.2655 24.5787 27.2386 24.4805 27.2082C24.3845 27.1777 24.3003 27.1251 24.2277 27.0502C24.1575 26.973 24.1224 26.8665 24.1224 26.7308C24.1224 26.553 24.1961 26.4114 24.3436 26.3061C24.4933 26.1985 24.6946 26.1446 24.9473 26.1446C25.076 26.1446 25.2047 26.1598 25.3334 26.1903C25.4621 26.2183 25.5674 26.257 25.6493 26.3061L25.4808 26.6395C25.3217 26.5459 25.1427 26.4991 24.9438 26.4991C24.8151 26.4991 24.7168 26.519 24.6489 26.5588C24.5834 26.5963 24.5507 26.6466 24.5507 26.7097C24.5507 26.7799 24.5858 26.8303 24.656 26.8607C24.7285 26.8888 24.8396 26.9157 24.9894 26.9414C25.1392 26.9648 25.262 26.9917 25.358 27.0221C25.4539 27.0526 25.5358 27.104 25.6037 27.1766C25.6739 27.2491 25.709 27.3521 25.709 27.4855C25.709 27.661 25.6329 27.8014 25.4808 27.9067C25.3287 28.012 25.1216 28.0646 24.8595 28.0646ZM27.2486 27.9382C27.1971 27.9804 27.1339 28.012 27.0591 28.033C26.9865 28.0541 26.9093 28.0646 26.8274 28.0646C26.6215 28.0646 26.4624 28.0108 26.35 27.9031C26.2377 27.7955 26.1816 27.6387 26.1816 27.4328V26.5307H25.8727V26.1797H26.1816V25.7515H26.6203V26.1797H27.1222V26.5307H26.6203V27.4223C26.6203 27.5135 26.6425 27.5837 26.687 27.6329C26.7315 27.6797 26.7958 27.7031 26.8801 27.7031C26.9783 27.7031 27.0602 27.6773 27.1258 27.6259L27.2486 27.9382ZM29.345 27.1134C29.345 27.1438 29.3426 27.1871 29.3379 27.2433H27.8672C27.893 27.3813 27.9597 27.4913 28.0673 27.5732C28.1773 27.6528 28.313 27.6925 28.4745 27.6925C28.6804 27.6925 28.85 27.6247 28.9834 27.489L29.2186 27.7592C29.1344 27.8599 29.0279 27.9359 28.8992 27.9874C28.7705 28.0389 28.6254 28.0646 28.4639 28.0646C28.258 28.0646 28.0767 28.0237 27.9199 27.9418C27.7631 27.8599 27.6414 27.7464 27.5549 27.6013C27.4706 27.4539 27.4285 27.2877 27.4285 27.1029C27.4285 26.9203 27.4694 26.7565 27.5513 26.6115C27.6356 26.464 27.7514 26.3494 27.8988 26.2675C28.0463 26.1856 28.2124 26.1446 28.3973 26.1446C28.5798 26.1446 28.7424 26.1856 28.8851 26.2675C29.0302 26.347 29.1425 26.4605 29.2221 26.608C29.304 26.753 29.345 26.9215 29.345 27.1134ZM28.3973 26.4956C28.2569 26.4956 28.1375 26.5378 28.0392 26.622C27.9433 26.7039 27.8848 26.8139 27.8637 26.9519H28.9273C28.9085 26.8162 28.8512 26.7062 28.7553 26.622C28.6593 26.5378 28.54 26.4956 28.3973 26.4956ZM30.2192 26.4395C30.3456 26.2429 30.5679 26.1446 30.8861 26.1446V26.5623C30.8487 26.5553 30.8147 26.5518 30.7843 26.5518C30.6135 26.5518 30.4801 26.6021 30.3842 26.7027C30.2882 26.801 30.2403 26.9437 30.2403 27.1309V28.04H29.8015V26.1657H30.2192V26.4395ZM32.1362 28.0646C31.942 28.0646 31.7677 28.0237 31.6132 27.9418C31.4588 27.8599 31.3383 27.7464 31.2517 27.6013C31.1651 27.4539 31.1218 27.2877 31.1218 27.1029C31.1218 26.918 31.1651 26.753 31.2517 26.608C31.3383 26.4629 31.4576 26.3494 31.6097 26.2675C31.7641 26.1856 31.9396 26.1446 32.1362 26.1446C32.3211 26.1446 32.4825 26.1821 32.6206 26.257C32.761 26.3318 32.8663 26.4395 32.9365 26.5799L32.5995 26.7764C32.5457 26.6899 32.4778 26.6255 32.3959 26.5834C32.3164 26.5389 32.2286 26.5167 32.1327 26.5167C31.9689 26.5167 31.8332 26.5705 31.7255 26.6782C31.6179 26.7835 31.5641 26.925 31.5641 27.1029C31.5641 27.2807 31.6167 27.4234 31.722 27.5311C31.8297 27.6364 31.9666 27.689 32.1327 27.689C32.2286 27.689 32.3164 27.668 32.3959 27.6259C32.4778 27.5814 32.5457 27.5159 32.5995 27.4293L32.9365 27.6259C32.8639 27.7663 32.7575 27.8751 32.6171 27.9523C32.479 28.0272 32.3187 28.0646 32.1362 28.0646ZM34.0669 26.1446C34.343 26.1446 34.5536 26.2113 34.6987 26.3447C34.8461 26.4757 34.9198 26.6746 34.9198 26.9414V28.04H34.5056V27.8119C34.4518 27.8938 34.3746 27.957 34.274 28.0014C34.1757 28.0435 34.0564 28.0646 33.916 28.0646C33.7756 28.0646 33.6527 28.0412 33.5474 27.9944C33.4421 27.9453 33.3602 27.8786 33.3017 27.7943C33.2456 27.7078 33.2175 27.6106 33.2175 27.503C33.2175 27.3345 33.2795 27.2 33.4035 27.0994C33.5299 26.9964 33.7276 26.9449 33.9967 26.9449H34.4811V26.9168C34.4811 26.7858 34.4413 26.6852 34.3617 26.615C34.2845 26.5448 34.1687 26.5097 34.0142 26.5097C33.9089 26.5097 33.8048 26.5261 33.7019 26.5588C33.6012 26.5916 33.5158 26.6372 33.4456 26.6957L33.2736 26.3763C33.3719 26.3014 33.4901 26.2441 33.6281 26.2043C33.7662 26.1645 33.9125 26.1446 34.0669 26.1446ZM34.0072 27.7452C34.1172 27.7452 34.2143 27.7206 34.2986 27.6715C34.3851 27.62 34.446 27.5475 34.4811 27.4539V27.2362H34.0283C33.7756 27.2362 33.6492 27.3193 33.6492 27.4855C33.6492 27.565 33.6808 27.6282 33.744 27.675C33.8072 27.7218 33.8949 27.7452 34.0072 27.7452ZM35.9357 26.4395C36.0621 26.2429 36.2844 26.1446 36.6026 26.1446V26.5623C36.5652 26.5553 36.5312 26.5518 36.5008 26.5518C36.33 26.5518 36.1966 26.6021 36.1007 26.7027C36.0047 26.801 35.9568 26.9437 35.9568 27.1309V28.04H35.518V26.1657H35.9357V26.4395ZM38.8285 25.4356V28.04H38.4073V27.7978C38.3347 27.8868 38.2447 27.9535 38.137 27.9979C38.0317 28.0424 37.9147 28.0646 37.786 28.0646C37.6058 28.0646 37.4432 28.0248 37.2981 27.9453C37.1554 27.8657 37.0431 27.7534 36.9612 27.6083C36.8793 27.4609 36.8383 27.2924 36.8383 27.1029C36.8383 26.9133 36.8793 26.746 36.9612 26.6009C37.0431 26.4559 37.1554 26.3435 37.2981 26.264C37.4432 26.1844 37.6058 26.1446 37.786 26.1446C37.91 26.1446 38.0235 26.1657 38.1265 26.2078C38.2294 26.2499 38.3172 26.3131 38.3897 26.3974V25.4356H38.8285ZM37.8387 27.689C37.944 27.689 38.0387 27.6656 38.123 27.6188C38.2072 27.5697 38.2739 27.5007 38.323 27.4117C38.3722 27.3228 38.3968 27.2199 38.3968 27.1029C38.3968 26.9859 38.3722 26.8829 38.323 26.794C38.2739 26.7051 38.2072 26.6372 38.123 26.5904C38.0387 26.5413 37.944 26.5167 37.8387 26.5167C37.7334 26.5167 37.6386 26.5413 37.5544 26.5904C37.4701 26.6372 37.4034 26.7051 37.3543 26.794C37.3051 26.8829 37.2806 26.9859 37.2806 27.1029C37.2806 27.2199 37.3051 27.3228 37.3543 27.4117C37.4034 27.5007 37.4701 27.5697 37.5544 27.6188C37.6386 27.6656 37.7334 27.689 37.8387 27.689Z" fill="black"/>
<defs>
<filter id="filter0_d_1139_10" x="0" y="0" width="56" height="39" filterUnits="userSpaceOnUse" color-interpolation-filters="sRGB">
<feFlood flood-opacity="0" result="BackgroundImageFix"/>
<feColorMatrix in="SourceAlpha" type="matrix" values="0 0 0 0 0 0 0 0 0 0 0 0 0 0 0 0 0 0 127 0" result="hardAlpha"/>
<feOffset dy="2"/>
<feGaussianBlur stdDeviation="2"/>
<feComposite in2="hardAlpha" operator="out"/>
<feColorMatrix type="matrix" values="0 0 0 0 0 0 0 0 0 0 0 0 0 0 0 0 0 0 0.1 0"/>
<feBlend mode="normal" in2="BackgroundImageFix" result="effect1_dropShadow_1139_10"/>
<feBlend mode="normal" in="SourceGraphic" in2="effect1_dropShadow_1139_10" result="shape"/>
</filter>
</defs>
</svg>
