<svg width="56" height="39" viewBox="0 0 56 39" fill="none" xmlns="http://www.w3.org/2000/svg">
<g filter="url(#filter0_d_1139_9)">
<rect x="4" y="2" width="48" height="31" rx="3" fill="white"/>
</g>
<path d="M37.0099 27.8462H36.9727V27.9471H36.9541V27.8462H36.9169V27.8274H37.0116L37.0099 27.8462ZM37.1554 27.9471H37.1368V27.8497L37.103 27.9352H37.0827L37.0488 27.8497V27.9471H37.0302V27.8274H37.059L37.0928 27.9129L37.1267 27.8274H37.1554V27.9471ZM19.3387 27.9471H19.0799V24.9541H19.3387V27.9471ZM21.306 24.9541C21.5323 24.9507 21.7577 24.986 21.9724 25.0584C22.1604 25.1212 22.3333 25.2232 22.4799 25.3577C22.6195 25.4894 22.7286 25.6506 22.7996 25.8298C22.9489 26.2299 22.9489 26.6713 22.7996 27.0715C22.7287 27.2507 22.6195 27.4119 22.4799 27.5435C22.3333 27.6781 22.1604 27.78 21.9724 27.8428C21.7577 27.9153 21.5323 27.9506 21.306 27.9471H20.2251V24.9541H21.306ZM20.4839 25.2021V27.6991H21.306C21.5002 27.7026 21.6935 27.6726 21.8777 27.6102C22.0324 27.5571 22.1742 27.4714 22.2938 27.3588C22.4073 27.2489 22.4947 27.1144 22.5492 26.9654C22.6638 26.6332 22.6638 26.2715 22.5492 25.9392C22.4946 25.7898 22.4073 25.6548 22.2938 25.5442C22.1745 25.4312 22.0326 25.3454 21.8777 25.2928C21.6939 25.2316 21.5012 25.2021 21.3077 25.2055L20.4839 25.2021ZM26.0659 24.9199C26.19 24.9196 26.3138 24.9339 26.4346 24.9627C26.5519 24.9898 26.6655 25.0312 26.7729 25.0858C26.8743 25.1378 26.9687 25.2028 27.0537 25.2791C27.137 25.3538 27.2093 25.4402 27.2685 25.5356L27.0537 25.681C27.0029 25.6025 26.9421 25.5312 26.8727 25.4689C26.803 25.4059 26.7257 25.3519 26.6427 25.3081C26.5569 25.2635 26.466 25.2296 26.372 25.2072C26.274 25.1833 26.1735 25.1713 26.0726 25.1713C25.9042 25.1699 25.7371 25.2012 25.5804 25.2637C25.4324 25.3223 25.2977 25.4107 25.1846 25.5236C25.0708 25.639 24.9811 25.7762 24.9207 25.9273C24.7922 26.2629 24.7922 26.6349 24.9207 26.9706C24.9811 27.1216 25.0708 27.2589 25.1846 27.3742C25.2977 27.4871 25.4324 27.5756 25.5804 27.6342C25.7371 27.6966 25.9042 27.7279 26.0726 27.7265C26.1729 27.7268 26.2728 27.7153 26.3703 27.6923C26.5586 27.6505 26.7332 27.5611 26.8778 27.4323C26.9476 27.3698 27.0085 27.2979 27.0588 27.2186L27.2702 27.3742C27.2087 27.4673 27.1354 27.5519 27.052 27.6256C26.9672 27.7004 26.8734 27.7641 26.7729 27.8154C26.6688 27.8692 26.5586 27.91 26.4448 27.9369C26.1229 28.011 25.7866 27.986 25.4789 27.865C25.2997 27.7934 25.1364 27.6864 24.9985 27.5504C24.8613 27.4124 24.7531 27.2478 24.6805 27.0663C24.527 26.6688 24.527 26.2274 24.6805 25.8298C24.7531 25.6484 24.8613 25.4837 24.9985 25.3458C25.1364 25.2097 25.2997 25.1027 25.4789 25.0311C25.668 24.9561 25.8695 24.9184 26.0726 24.9199H26.0659ZM28.1397 26.2882C28.1776 26.2247 28.2243 26.1671 28.2784 26.1171C28.3291 26.07 28.386 26.0303 28.4475 25.9991C28.5094 25.9686 28.5747 25.9456 28.642 25.9307C28.7087 25.916 28.7768 25.9085 28.845 25.9085C28.9602 25.9073 29.0747 25.9264 29.1833 25.9649C29.2817 25.9997 29.3721 26.0544 29.4489 26.1257C29.5231 26.197 29.5809 26.284 29.618 26.3805C29.6604 26.4894 29.681 26.6056 29.6789 26.7226V27.9557H29.4371V26.7978C29.4384 26.7048 29.4241 26.6123 29.3948 26.5242C29.369 26.4465 29.3262 26.3758 29.2696 26.3172C29.2128 26.2594 29.1441 26.215 29.0683 26.1872C28.9815 26.1561 28.8898 26.141 28.7977 26.1428C28.7086 26.1421 28.6203 26.1583 28.5372 26.1907C28.4583 26.2214 28.3863 26.2679 28.3257 26.3275C28.2648 26.3879 28.2165 26.46 28.1836 26.5396C28.1482 26.6251 28.1304 26.7171 28.1312 26.8098V27.9557H27.891V24.8772H28.1312L28.1397 26.2882ZM31.2588 25.9085C31.3856 25.9072 31.5112 25.9328 31.6276 25.9837C31.7392 26.033 31.8394 26.1052 31.9219 26.1958C32.0072 26.2905 32.0738 26.4008 32.1181 26.5207C32.1674 26.6531 32.1926 26.7933 32.1925 26.9346C32.1925 26.9535 32.1925 26.9706 32.1925 26.9877C32.1925 27.0048 32.1925 27.0202 32.1925 27.0356H30.5247C30.5312 27.1433 30.5576 27.2489 30.6025 27.3468C30.6432 27.4349 30.7007 27.5139 30.7717 27.5794C30.8411 27.6426 30.9221 27.6914 31.0102 27.7231C31.1019 27.7563 31.1986 27.7731 31.296 27.7727C31.4247 27.7749 31.5523 27.7486 31.6698 27.6957C31.7804 27.6437 31.8812 27.5725 31.9676 27.4854L32.0961 27.6564C32.0376 27.7167 31.973 27.7706 31.9033 27.8172C31.84 27.8586 31.7726 27.893 31.702 27.9198C31.6347 27.9449 31.565 27.9627 31.4939 27.9728C31.4233 27.9828 31.3521 27.988 31.2808 27.9882C31.1436 27.9898 31.0074 27.9643 30.8799 27.9129C30.7612 27.8649 30.6536 27.7927 30.5636 27.7009C30.4735 27.6073 30.4033 27.4962 30.3572 27.3742C30.3064 27.2399 30.2812 27.0972 30.2828 26.9535C30.2812 26.8108 30.3065 26.6692 30.3572 26.5361C30.4016 26.412 30.4701 26.298 30.5585 26.2009C30.6472 26.1083 30.7537 26.0349 30.8715 25.9854C30.9959 25.9312 31.13 25.9033 31.2656 25.9033L31.2588 25.9085ZM31.2588 26.124C31.1638 26.1231 31.0695 26.1411 30.9814 26.177C30.8991 26.2107 30.8239 26.2601 30.7598 26.3224C30.6952 26.3858 30.6425 26.4605 30.6042 26.543C30.5628 26.632 30.5365 26.7274 30.5264 26.8252H31.9489C31.942 26.7267 31.9185 26.6301 31.8796 26.5396C31.8441 26.4573 31.7936 26.3824 31.7307 26.3189C31.6687 26.2566 31.595 26.2072 31.514 26.1738C31.433 26.1403 31.3463 26.1234 31.2588 26.124ZM33.6675 25.9085C33.8085 25.9072 33.9482 25.9345 34.0786 25.9888C34.2023 26.0406 34.3128 26.1201 34.4016 26.2214L34.246 26.3925C34.171 26.3158 34.0827 26.2538 33.9855 26.2095C33.8836 26.1649 33.7735 26.1428 33.6624 26.1445C33.5584 26.144 33.4554 26.1649 33.3597 26.2061C33.268 26.246 33.1851 26.3042 33.1161 26.3771C33.0432 26.4502 32.9856 26.5375 32.9469 26.6336C32.8693 26.8426 32.8693 27.0729 32.9469 27.2818C32.9829 27.3763 33.0374 27.4625 33.1071 27.5351C33.1769 27.6077 33.2605 27.6653 33.3529 27.7043C33.4486 27.7456 33.5516 27.7665 33.6557 27.7658C33.7681 27.7671 33.8795 27.7438 33.9821 27.6974C34.08 27.6532 34.1693 27.5918 34.246 27.5161L34.3966 27.6872C34.3073 27.788 34.1969 27.8675 34.0735 27.9198C33.9438 27.9741 33.8045 28.0014 33.6641 28.0002C33.5233 28.0019 33.3836 27.9751 33.2531 27.9215C33.1323 27.8719 33.0228 27.7979 32.9312 27.7041C32.8396 27.6103 32.7678 27.4986 32.7203 27.3759C32.6203 27.1104 32.6203 26.817 32.7203 26.5515C32.7676 26.4284 32.8392 26.3164 32.9308 26.2223C33.0224 26.1282 33.1321 26.054 33.2531 26.0042C33.3841 25.942 33.5263 25.9077 33.6709 25.9033L33.6675 25.9085ZM35.2119 26.7893H35.535L36.3807 25.9341H36.6852L35.7379 26.8833L36.7021 27.9454H36.3959L35.5502 27.0031H35.2271V27.9454H34.9734V24.8669H35.2136L35.2119 26.7893ZM21.5834 23.4166V22.3904C21.5893 22.3041 21.5769 22.2175 21.5472 22.1364C21.5174 22.0553 21.4709 21.9815 21.4107 21.92C21.3505 21.8585 21.2781 21.8107 21.1982 21.7798C21.1183 21.7488 21.0328 21.7354 20.9474 21.7405C20.8356 21.7331 20.7238 21.7561 20.6239 21.8073C20.5239 21.8584 20.4393 21.9358 20.379 22.0312C20.324 21.9386 20.2454 21.8627 20.1513 21.8116C20.0572 21.7604 19.9512 21.7358 19.8445 21.7405C19.7515 21.7357 19.6588 21.7556 19.5757 21.7982C19.4927 21.8408 19.422 21.9046 19.3709 21.9833V21.7815H19.019V23.4166H19.3743V22.5101C19.3667 22.4542 19.3715 22.3973 19.3882 22.3434C19.4049 22.2896 19.4332 22.2402 19.471 22.1987C19.5088 22.1572 19.5552 22.1246 19.6069 22.1034C19.6586 22.0821 19.7143 22.0726 19.7701 22.0757C20.0035 22.0757 20.1219 22.2296 20.1219 22.5067V23.4166H20.4771V22.5101C20.4699 22.4542 20.4748 22.3975 20.4917 22.3438C20.5085 22.2901 20.5368 22.2407 20.5746 22.1993C20.6123 22.1579 20.6586 22.1253 20.7102 22.104C20.7617 22.0826 20.8173 22.073 20.8729 22.0757C21.1131 22.0757 21.2282 22.2296 21.2282 22.5067V23.4166H21.5834ZM26.8372 21.7764H26.2621V21.2804H25.9069V21.7764H25.5787V22.0962H25.9069V22.8419C25.9069 23.2216 26.0523 23.4473 26.4685 23.4473C26.6239 23.4479 26.7764 23.404 26.9082 23.3208L26.8068 23.0163C26.7147 23.0775 26.6088 23.114 26.4989 23.1224C26.3297 23.1224 26.2655 23.0129 26.2655 22.8487V22.0962H26.8372V21.7764ZM29.8379 21.7353C29.7522 21.7328 29.6673 21.7537 29.5923 21.7958C29.5172 21.838 29.4549 21.8998 29.4117 21.9748V21.7764H29.0632V23.4114H29.4151V22.4947C29.4151 22.2245 29.5301 22.074 29.7534 22.074C29.8286 22.0729 29.9033 22.0869 29.9733 22.115L30.0815 21.773C30.0012 21.7439 29.9165 21.7289 29.8312 21.7285L29.8379 21.7353ZM25.3013 21.9064C25.1022 21.7866 24.8732 21.7273 24.6416 21.7353C24.2323 21.7353 23.965 21.9337 23.965 22.2587C23.965 22.5255 24.1612 22.6897 24.5232 22.741L24.6924 22.7649C24.8852 22.7923 24.9765 22.8436 24.9765 22.936C24.9765 23.0625 24.848 23.1344 24.6078 23.1344C24.4146 23.14 24.2251 23.0798 24.0699 22.9633L23.9007 23.2404C24.1057 23.3851 24.3512 23.4594 24.601 23.4525C25.0679 23.4525 25.3385 23.2301 25.3385 22.9189C25.3385 22.6076 25.1254 22.481 24.7736 22.4297L24.6044 22.4058C24.4522 22.3852 24.3304 22.3545 24.3304 22.245C24.3304 22.1355 24.4454 22.0535 24.6382 22.0535C24.8165 22.0555 24.9912 22.1038 25.1457 22.1937L25.3013 21.9064ZM34.7247 21.7353C34.6389 21.7328 34.5541 21.7537 34.479 21.7958C34.404 21.838 34.3416 21.8998 34.2985 21.9748V21.7764H33.95V23.4114H34.3018V22.4947C34.3018 22.2245 34.4169 22.074 34.6401 22.074C34.7154 22.0729 34.7901 22.0869 34.86 22.115L34.9683 21.773C34.8879 21.7439 34.8033 21.7289 34.7179 21.7285L34.7247 21.7353ZM30.1915 22.5905C30.1873 22.7054 30.2069 22.8199 30.249 22.9267C30.2911 23.0335 30.3548 23.1303 30.436 23.2108C30.5172 23.2913 30.6141 23.3537 30.7205 23.3942C30.827 23.4346 30.9406 23.4521 31.0541 23.4456C31.2654 23.4565 31.473 23.3869 31.636 23.2507L31.4669 22.9633C31.3452 23.0571 31.1969 23.1087 31.044 23.1104C30.9139 23.0998 30.7926 23.04 30.7042 22.9431C30.6157 22.8461 30.5666 22.719 30.5666 22.5871C30.5666 22.4551 30.6157 22.328 30.7042 22.2311C30.7926 22.1341 30.9139 22.0744 31.044 22.0637C31.1969 22.0654 31.3452 22.117 31.4669 22.2108L31.636 21.9235C31.473 21.7872 31.2654 21.7176 31.0541 21.7285C30.9406 21.722 30.827 21.7395 30.7205 21.78C30.6141 21.8204 30.5172 21.8829 30.436 21.9634C30.3548 22.0439 30.2911 22.1406 30.249 22.2474C30.2069 22.3542 30.1873 22.4687 30.1915 22.5836V22.5905ZM33.4865 22.5905V21.773H33.1347V21.9714C33.0749 21.8936 32.9978 21.8314 32.9095 21.7897C32.8213 21.7481 32.7245 21.7283 32.6272 21.7319C32.4029 21.7319 32.1878 21.822 32.0292 21.9824C31.8706 22.1428 31.7815 22.3603 31.7815 22.5871C31.7815 22.8139 31.8706 23.0314 32.0292 23.1917C32.1878 23.3521 32.4029 23.4422 32.6272 23.4422C32.7245 23.4458 32.8213 23.426 32.9095 23.3844C32.9978 23.3428 33.0749 23.2805 33.1347 23.2028V23.4012H33.4865V22.5905ZM32.1773 22.5905C32.1829 22.4942 32.2162 22.4018 32.2732 22.3244C32.3301 22.2471 32.4082 22.1883 32.4977 22.1552C32.5873 22.1222 32.6845 22.1164 32.7773 22.1384C32.8701 22.1605 32.9545 22.2096 33.0201 22.2796C33.0857 22.3495 33.1296 22.4374 33.1465 22.5323C33.1633 22.6272 33.1523 22.725 33.1149 22.8136C33.0774 22.9023 33.0152 22.978 32.9357 23.0313C32.8563 23.0847 32.7632 23.1133 32.6678 23.1138C32.6009 23.1147 32.5344 23.1015 32.4727 23.0752C32.411 23.0488 32.3554 23.0098 32.3093 22.9607C32.2633 22.9115 32.2277 22.8532 32.205 22.7895C32.1823 22.7258 32.1729 22.6581 32.1773 22.5905ZM27.9316 21.7353C27.7073 21.7385 27.4934 21.8317 27.337 21.9943C27.1806 22.1569 27.0946 22.3757 27.0977 22.6025C27.1008 22.8293 27.193 23.0455 27.3538 23.2036C27.5146 23.3618 27.731 23.4488 27.9553 23.4456C28.1967 23.4542 28.4327 23.3726 28.6184 23.2165L28.4492 22.9531C28.3156 23.0614 28.1502 23.1216 27.979 23.1241C27.8627 23.1342 27.7471 23.0981 27.6567 23.0233C27.5664 22.9486 27.5084 22.8412 27.4952 22.7239H28.6979C28.6979 22.6794 28.6979 22.635 28.6979 22.5871C28.6979 22.074 28.3832 21.7319 27.9299 21.7319L27.9316 21.7353ZM27.9316 22.0535C27.9843 22.0523 28.0366 22.0617 28.0857 22.081C28.1348 22.1003 28.1796 22.1292 28.2176 22.1661C28.2556 22.2029 28.2861 22.247 28.3072 22.2958C28.3284 22.3445 28.3399 22.397 28.341 22.4502H27.4952C27.5013 22.3405 27.5497 22.2374 27.63 22.1633C27.7103 22.0891 27.8161 22.0497 27.9248 22.0535H27.9316ZM36.7562 22.5939V21.1196H36.4044V21.9748C36.3446 21.897 36.2675 21.8348 36.1792 21.7932C36.091 21.7515 35.9942 21.7317 35.8969 21.7353C35.6726 21.7353 35.4575 21.8254 35.2989 21.9858C35.1403 22.1462 35.0512 22.3637 35.0512 22.5905C35.0512 22.8173 35.1403 23.0348 35.2989 23.1952C35.4575 23.3555 35.6726 23.4456 35.8969 23.4456C35.9942 23.4493 36.091 23.4294 36.1792 23.3878C36.2675 23.3462 36.3446 23.2839 36.4044 23.2062V23.4046H36.7562V22.5939ZM35.447 22.5939C35.4526 22.4977 35.4859 22.4052 35.5429 22.3278C35.5998 22.2505 35.6779 22.1917 35.7674 22.1587C35.857 22.1256 35.9542 22.1198 36.047 22.1419C36.1398 22.164 36.2242 22.213 36.2898 22.283C36.3554 22.353 36.3993 22.4408 36.4162 22.5357C36.433 22.6306 36.422 22.7284 36.3846 22.8171C36.3471 22.9057 36.2849 22.9814 36.2054 23.0347C36.126 23.0881 36.0329 23.1168 35.9375 23.1173C35.8706 23.1181 35.8041 23.1049 35.7424 23.0786C35.6807 23.0522 35.6251 23.0132 35.579 22.9641C35.5329 22.9149 35.4974 22.8567 35.4747 22.793C35.452 22.7293 35.4425 22.6615 35.447 22.5939ZM23.5675 22.5939V21.7764H23.2157V21.9748C23.1559 21.897 23.0788 21.8348 22.9905 21.7932C22.9023 21.7515 22.8055 21.7317 22.7082 21.7353C22.4839 21.7353 22.2688 21.8254 22.1102 21.9858C21.9516 22.1462 21.8625 22.3637 21.8625 22.5905C21.8625 22.8173 21.9516 23.0348 22.1102 23.1952C22.2688 23.3555 22.4839 23.4456 22.7082 23.4456C22.8055 23.4493 22.9023 23.4294 22.9905 23.3878C23.0788 23.3462 23.1559 23.2839 23.2157 23.2062V23.4046H23.5675V22.5939ZM22.2583 22.5939C22.2639 22.4977 22.2972 22.4052 22.3542 22.3278C22.4111 22.2505 22.4892 22.1917 22.5787 22.1587C22.6683 22.1256 22.7655 22.1198 22.8583 22.1419C22.9511 22.164 23.0355 22.213 23.1011 22.283C23.1667 22.353 23.2106 22.4408 23.2274 22.5357C23.2443 22.6306 23.2333 22.7284 23.1959 22.8171C23.1584 22.9057 23.0962 22.9814 23.0167 23.0347C22.9373 23.0881 22.8442 23.1168 22.7488 23.1173C22.6818 23.1181 22.6154 23.1049 22.5537 23.0786C22.492 23.0522 22.4364 23.0132 22.3903 22.9641C22.3442 22.9149 22.3087 22.8567 22.286 22.793C22.2633 22.7293 22.2538 22.6615 22.2583 22.5939ZM37.3415 23.1737C37.3635 23.1734 37.3853 23.1775 37.4058 23.1857C37.4252 23.1937 37.443 23.2053 37.4582 23.2199C37.4731 23.2346 37.4851 23.252 37.4937 23.2712C37.5023 23.2912 37.5067 23.3127 37.5067 23.3345C37.5067 23.3562 37.5023 23.3778 37.4937 23.3977C37.4851 23.4169 37.4731 23.4343 37.4582 23.4491C37.443 23.4636 37.4252 23.4752 37.4058 23.4833C37.3855 23.4923 37.3636 23.497 37.3415 23.4969C37.3094 23.4967 37.2781 23.4872 37.2511 23.4697C37.2242 23.4521 37.2027 23.4272 37.1892 23.3977C37.1808 23.3777 37.1764 23.3562 37.1764 23.3345C37.1764 23.3127 37.1808 23.2912 37.1892 23.2712C37.1979 23.252 37.2099 23.2346 37.2248 23.2199C37.24 23.2053 37.2578 23.1937 37.2772 23.1857C37.2977 23.1775 37.3195 23.1734 37.3415 23.1737ZM37.3415 23.4627C37.3584 23.4628 37.3751 23.4593 37.3905 23.4525C37.4051 23.4459 37.4183 23.4366 37.4294 23.4251C37.4506 23.4018 37.4623 23.3713 37.4623 23.3396C37.4623 23.3079 37.4506 23.2774 37.4294 23.2541C37.4183 23.2425 37.4051 23.2332 37.3905 23.2267C37.3751 23.2199 37.3584 23.2164 37.3415 23.2165C37.3246 23.2165 37.3079 23.22 37.2924 23.2267C37.2772 23.233 37.2634 23.2423 37.2518 23.2541C37.2307 23.2774 37.2189 23.3079 37.2189 23.3396C37.2189 23.3713 37.2307 23.4018 37.2518 23.4251C37.2635 23.4368 37.2773 23.4461 37.2924 23.4525C37.3078 23.4598 37.3245 23.4639 37.3415 23.4644V23.4627ZM37.3516 23.2592C37.3674 23.2584 37.383 23.2633 37.3956 23.2729C37.4008 23.2772 37.4049 23.2827 37.4075 23.289C37.4102 23.2952 37.4113 23.302 37.4108 23.3088C37.4111 23.3145 37.4101 23.3202 37.4081 23.3255C37.4061 23.3308 37.403 23.3356 37.399 23.3396C37.3892 23.3486 37.3767 23.354 37.3635 23.355L37.4125 23.4114H37.3736L37.3279 23.355H37.3127V23.4114H37.2806V23.2609L37.3516 23.2592ZM37.3144 23.2883V23.3293H37.3516C37.3583 23.3313 37.3653 23.3313 37.3719 23.3293C37.3731 23.3269 37.3737 23.3243 37.3737 23.3216C37.3737 23.319 37.3731 23.3163 37.3719 23.3139C37.3731 23.3116 37.3737 23.3089 37.3737 23.3062C37.3737 23.3036 37.3731 23.3009 37.3719 23.2985C37.3653 23.2966 37.3583 23.2966 37.3516 23.2985L37.3144 23.2883Z" fill="black"/>
<path d="M30.5162 9.31689H25.188V18.9989H30.5162V9.31689Z" fill="#FF5F00"/>
<path d="M25.5263 14.1584C25.5253 13.2258 25.7342 12.3053 26.1372 11.4664C26.5402 10.6275 27.1266 9.89236 27.8522 9.31657C26.9538 8.60273 25.875 8.15883 24.7389 8.03561C23.6029 7.9124 22.4555 8.11483 21.4278 8.61978C20.4002 9.12473 19.5338 9.91181 18.9276 10.8911C18.3215 11.8704 18 13.0023 18 14.1576C18 15.3128 18.3215 16.4448 18.9276 17.424C19.5338 18.4033 20.4002 19.1904 21.4278 19.6954C22.4555 20.2003 23.6029 20.4027 24.7389 20.2795C25.875 20.1563 26.9538 19.7124 27.8522 18.9986C27.1268 18.423 26.5405 17.6881 26.1376 16.8495C25.7346 16.011 25.5256 15.0907 25.5263 14.1584Z" fill="#EB001B"/>
<path d="M37.7051 14.1586C37.7051 15.314 37.3835 16.446 36.7773 17.4253C36.171 18.4046 35.3045 19.1917 34.2767 19.6966C33.2489 20.2014 32.1014 20.4038 30.9653 20.2804C29.8292 20.157 28.7503 19.7129 27.8521 18.9988C28.5771 18.4227 29.1632 17.6876 29.5663 16.849C29.9693 16.0104 30.1788 15.0902 30.1788 14.1578C30.1788 13.2254 29.9693 12.3052 29.5663 11.4666C29.1632 10.628 28.5771 9.89291 27.8521 9.31679C28.7503 8.60272 29.8292 8.15861 30.9653 8.03522C32.1014 7.91183 33.2489 8.11413 34.2767 8.619C35.3045 9.12388 36.171 9.91096 36.7773 10.8903C37.3835 11.8696 37.7051 13.0016 37.7051 14.1569V14.1586Z" fill="#F79E1B"/>
<defs>
<filter id="filter0_d_1139_9" x="0" y="0" width="56" height="39" filterUnits="userSpaceOnUse" color-interpolation-filters="sRGB">
<feFlood flood-opacity="0" result="BackgroundImageFix"/>
<feColorMatrix in="SourceAlpha" type="matrix" values="0 0 0 0 0 0 0 0 0 0 0 0 0 0 0 0 0 0 127 0" result="hardAlpha"/>
<feOffset dy="2"/>
<feGaussianBlur stdDeviation="2"/>
<feComposite in2="hardAlpha" operator="out"/>
<feColorMatrix type="matrix" values="0 0 0 0 0 0 0 0 0 0 0 0 0 0 0 0 0 0 0.1 0"/>
<feBlend mode="normal" in2="BackgroundImageFix" result="effect1_dropShadow_1139_9"/>
<feBlend mode="normal" in="SourceGraphic" in2="effect1_dropShadow_1139_9" result="shape"/>
</filter>
</defs>
</svg>
