<svg width="36" height="30" viewBox="0 0 36 30" fill="none" xmlns="http://www.w3.org/2000/svg">
<rect width="36" height="30" fill="white"/>
<path d="M34.8397 7.03236L34.4631 20.0613C26.531 22.6245 20.7264 20.4892 20.7264 20.4892L19.0445 9.92877C19.0445 9.92877 17.0117 5.29135 26.1426 4.11819C26.1426 4.11819 33.635 3.10277 34.8299 7.02447L33.9308 8.44803" fill="#294240"/>
<path d="M29.5459 21.1436C31.2203 20.9441 32.8712 20.5815 34.4751 20.0612L34.8517 7.03223L30.2695 8.76929C30.1374 12.902 29.8811 17.0267 29.5459 21.1436Z" fill="#0E2C2C"/>
<path d="M24.7185 6.39581C24.7185 7.07407 24.0737 7.6222 23.2811 7.6222C22.4885 7.6222 21.8438 7.07407 21.8438 6.39581C21.8438 5.71754 22.4865 5.17139 23.2811 5.17139C24.0757 5.17139 24.7185 5.71952 24.7185 6.39581Z" fill="#E54029"/>
<path d="M22.9735 6.73661C22.7516 6.64764 22.5566 6.50255 22.4077 6.31556C22.2587 6.12857 22.1609 5.90609 22.1237 5.66992C21.9455 5.86982 21.846 6.12769 21.8438 6.3955C21.8438 7.07377 22.4865 7.6219 23.2811 7.6219C23.5447 7.63006 23.8056 7.56674 24.0361 7.43865C24.2665 7.31056 24.4581 7.12247 24.5903 6.89434C24.0477 7.0027 23.485 6.94781 22.9735 6.73661V6.73661Z" fill="#A01F1C"/>
<path d="M26.9493 6.10764C26.9946 6.48978 26.8899 6.87461 26.657 7.181C26.4242 7.4874 26.0815 7.69143 25.7012 7.75007C25.5158 7.77892 25.3265 7.77005 25.1446 7.724C24.9628 7.67795 24.7921 7.59567 24.6428 7.48208C24.4935 7.36849 24.3686 7.22593 24.2757 7.06294C24.1828 6.89995 24.1238 6.71988 24.1021 6.53353C24.0568 6.15162 24.1616 5.76704 24.3945 5.46096C24.6274 5.15488 24.97 4.95126 25.3502 4.89308C25.5354 4.86422 25.7246 4.87302 25.9063 4.91895C26.0881 4.96488 26.2587 5.04699 26.408 5.16037C26.5573 5.27376 26.6821 5.4161 26.7751 5.57886C26.8681 5.74162 26.9274 5.92147 26.9493 6.10764V6.10764Z" fill="#E54029"/>
<path d="M25.2699 6.7742C25.0245 6.68622 24.8055 6.53756 24.6331 6.34208C24.4607 6.1466 24.3406 5.91066 24.284 5.65625C24.1336 5.92613 24.0728 6.23684 24.1105 6.54351C24.1321 6.72986 24.1912 6.90993 24.2841 7.07292C24.377 7.23591 24.5018 7.37847 24.6511 7.49206C24.8004 7.60566 24.9711 7.68794 25.153 7.73399C25.3349 7.78004 25.5242 7.7889 25.7095 7.76005C25.9849 7.7151 26.242 7.59338 26.4512 7.40888C26.6605 7.22437 26.8135 6.98457 26.8926 6.71702C26.3747 6.92407 25.801 6.94429 25.2699 6.7742V6.7742Z" fill="#A01F1C"/>
<path d="M27.87 7.40064C28.6638 7.40064 29.3074 6.75623 29.3074 5.96131C29.3074 5.16638 28.6638 4.52197 27.87 4.52197C27.0762 4.52197 26.4326 5.16638 26.4326 5.96131C26.4326 6.75623 27.0762 7.40064 27.87 7.40064Z" fill="#E54029"/>
<path d="M27.5625 6.36189C27.3288 6.2393 27.1289 6.06088 26.9806 5.84246C26.8324 5.62404 26.7404 5.37239 26.7128 5.10986C26.5937 5.27211 26.5101 5.45757 26.4673 5.65423C26.4246 5.85088 26.4237 6.05433 26.4646 6.25135C26.5056 6.44838 26.5876 6.63459 26.7052 6.7979C26.8228 6.96121 26.9734 7.09796 27.1473 7.19929C27.3211 7.30061 27.5144 7.36424 27.7144 7.38605C27.9145 7.40785 28.1169 7.38735 28.3085 7.32586C28.5002 7.26437 28.6767 7.16327 28.8267 7.02913C28.9767 6.89499 29.0969 6.73081 29.1793 6.54723C28.6351 6.67318 28.0641 6.60773 27.5625 6.36189V6.36189Z" fill="#A01F1C"/>
<path d="M30.3368 7.28278C31.1306 7.28278 31.7742 6.71252 31.7742 6.00906C31.7742 5.30561 31.1306 4.73535 30.3368 4.73535C29.543 4.73535 28.8994 5.30561 28.8994 6.00906C28.8994 6.71252 29.543 7.28278 30.3368 7.28278Z" fill="#E54029"/>
<path d="M30.0292 6.36446C29.8043 6.26767 29.6081 6.11476 29.4593 5.92039C29.3105 5.72602 29.2142 5.4967 29.1794 5.25439C29.0006 5.46562 28.9015 5.73283 28.8994 6.00955C28.8994 6.71344 29.5442 7.28326 30.3368 7.28326C30.6034 7.29025 30.8668 7.22343 31.0978 7.09017C31.3288 6.95691 31.5185 6.76239 31.646 6.52811C31.103 6.64054 30.5386 6.58342 30.0292 6.36446V6.36446Z" fill="#A01F1C"/>
<path d="M21.4676 9.24883C22.2615 9.24883 22.905 8.60354 22.905 7.80752C22.905 7.01151 22.2615 6.36621 21.4676 6.36621C20.6738 6.36621 20.0303 7.01151 20.0303 7.80752C20.0303 8.60354 20.6738 9.24883 21.4676 9.24883Z" fill="#BE2925"/>
<path d="M21.4738 8.18789C20.9631 7.91974 20.3874 7.48203 20.3105 6.95361C20.1903 7.11596 20.1057 7.30182 20.0621 7.49908C20.0186 7.69633 20.0171 7.90055 20.0578 8.09841C20.0985 8.29627 20.1804 8.48334 20.2982 8.6474C20.4161 8.81147 20.5672 8.94886 20.7417 9.05061C20.9162 9.15236 21.1102 9.21618 21.311 9.23792C21.5119 9.25966 21.715 9.23882 21.9072 9.17677C22.0995 9.11471 22.2765 9.01284 22.4267 8.87778C22.5769 8.74273 22.697 8.57752 22.7791 8.39295C22.227 8.5073 21.9707 8.44619 21.4738 8.18789Z" fill="#7A1111"/>
<path d="M26.8289 9.72979C27.6228 9.72979 28.2663 9.08449 28.2663 8.28847C28.2663 7.49246 27.6228 6.84717 26.8289 6.84717C26.0351 6.84717 25.3916 7.49246 25.3916 8.28847C25.3916 9.08449 26.0351 9.72979 26.8289 9.72979Z" fill="#BE2925"/>
<path d="M26.553 8.45639C26.0423 8.18824 25.7485 7.96544 25.6736 7.43506C25.5153 7.64919 25.4195 7.90304 25.3968 8.16838C25.3742 8.43372 25.4256 8.70013 25.5453 8.93799C25.6651 9.17585 25.8485 9.37583 26.0751 9.51568C26.3017 9.65552 26.5627 9.72975 26.829 9.73011C27.4205 9.73011 27.9608 9.1386 28.1855 8.63188C27.6374 8.76317 27.0607 8.70118 26.553 8.45639V8.45639Z" fill="#7A1111"/>
<path d="M24.1395 9.95244C24.9333 9.95244 25.5769 9.30714 25.5769 8.51113C25.5769 7.71512 24.9333 7.06982 24.1395 7.06982C23.3457 7.06982 22.7021 7.71512 22.7021 8.51113C22.7021 9.30714 23.3457 9.95244 24.1395 9.95244Z" fill="#BE2925"/>
<path d="M23.828 8.91368C23.5943 8.79021 23.3947 8.61099 23.2468 8.39191C23.0989 8.17282 23.0073 7.92065 22.9802 7.65771C22.8593 7.8199 22.774 8.00576 22.7299 8.20317C22.6858 8.40057 22.6838 8.60506 22.7242 8.80327C22.7645 9.00149 22.8462 9.18895 22.964 9.35342C23.0817 9.51789 23.2329 9.65565 23.4075 9.7577C23.5821 9.85975 23.7764 9.92379 23.9774 9.94563C24.1785 9.96748 24.382 9.94663 24.5745 9.88446C24.7669 9.82229 24.9441 9.72019 25.0945 9.58484C25.2448 9.4495 25.3648 9.28395 25.4468 9.09902C24.9019 9.22495 24.3303 9.15951 23.828 8.91368V8.91368Z" fill="#7A1111"/>
<path d="M33.3298 7.07999C33.3286 7.36402 33.2433 7.64134 33.0847 7.87693C32.926 8.11253 32.7012 8.29583 32.4384 8.40372C32.1757 8.5116 31.8868 8.53923 31.6084 8.4831C31.33 8.42698 31.0744 8.28961 30.874 8.08836C30.6736 7.88711 30.5372 7.63099 30.4823 7.35233C30.4273 7.07367 30.4561 6.78497 30.5651 6.52267C30.674 6.26037 30.8583 6.03623 31.0945 5.87855C31.3307 5.72087 31.6084 5.63672 31.8924 5.63672C32.0816 5.63698 32.2689 5.67453 32.4436 5.74722C32.6182 5.81992 32.7768 5.92633 32.9103 6.06038C33.0438 6.19443 33.1496 6.35347 33.2216 6.52843C33.2935 6.70338 33.3303 6.89081 33.3298 7.07999V7.07999Z" fill="#BE2925"/>
<path d="M31.585 7.47958C31.3509 7.35695 31.1508 7.17826 31.0025 6.95945C30.8542 6.74063 30.7624 6.48851 30.7353 6.22559C30.6138 6.38777 30.5279 6.57381 30.4834 6.7715C30.4388 6.96919 30.4366 7.17405 30.4768 7.37267C30.5171 7.57128 30.5988 7.75914 30.7168 7.92393C30.8347 8.08872 30.9862 8.22671 31.1612 8.32884C31.3362 8.43098 31.5309 8.49494 31.7323 8.51655C31.9338 8.53816 32.1376 8.51692 32.3303 8.45423C32.523 8.39153 32.7003 8.2888 32.8505 8.15277C33.0007 8.01674 33.1204 7.85049 33.2019 7.66492C32.6578 7.79285 32.0861 7.72732 31.585 7.47958V7.47958Z" fill="#7A1111"/>
<path d="M30.863 8.08975C30.8622 8.37386 30.7773 8.65137 30.6188 8.88722C30.4604 9.12308 30.2357 9.3067 29.973 9.41488C29.7102 9.52307 29.4214 9.55097 29.1428 9.49507C28.8643 9.43916 28.6085 9.30195 28.4079 9.10078C28.2073 8.8996 28.0708 8.64349 28.0156 8.36477C27.9605 8.08606 27.9892 7.79726 28.0981 7.53484C28.207 7.27243 28.3912 7.04818 28.6275 6.89041C28.8638 6.73264 29.1415 6.64844 29.4256 6.64844C29.6147 6.6487 29.8018 6.68618 29.9763 6.75876C30.1508 6.83133 30.3094 6.93757 30.4428 7.07141C30.5763 7.20524 30.6821 7.36406 30.7542 7.53879C30.8263 7.71351 30.8633 7.90073 30.863 8.08975Z" fill="#BE2925"/>
<path d="M29.4298 8.46963C28.9191 8.20148 28.3454 7.76574 28.2685 7.23535C28.147 7.39753 28.0611 7.58357 28.0166 7.78126C27.9721 7.97895 27.9698 8.18383 28.01 8.38244C28.0503 8.58105 28.132 8.76891 28.25 8.9337C28.3679 9.09849 28.5194 9.23648 28.6944 9.33861C28.8694 9.44074 29.0641 9.50471 29.2656 9.52632C29.467 9.54793 29.6708 9.52669 29.8635 9.46399C30.0562 9.4013 30.2335 9.29857 30.3837 9.16254C30.5339 9.02651 30.6536 8.86026 30.7351 8.67469C30.185 8.78905 29.9267 8.7299 29.4298 8.46963Z" fill="#7A1111"/>
<path d="M23.1706 9.4378C23.1706 10.1161 22.5279 10.6642 21.7333 10.6642C20.9387 10.6642 20.2959 10.1161 20.2959 9.4378C20.2959 8.75954 20.9406 8.21338 21.7333 8.21338C22.5259 8.21338 23.1706 8.76151 23.1706 9.4378Z" fill="#E54029"/>
<path d="M21.4257 9.7786C21.2038 9.68963 21.0088 9.54455 20.8598 9.35756C20.7109 9.17057 20.613 8.94809 20.5759 8.71191C20.398 8.912 20.2985 9.16976 20.2959 9.4375C20.2959 10.1158 20.9406 10.6639 21.7333 10.6639C21.9969 10.6701 22.2573 10.6051 22.487 10.4756C22.7168 10.3462 22.9073 10.1572 23.0385 9.92845C22.4979 10.0383 21.9368 9.98614 21.4257 9.7786V9.7786Z" fill="#A01F1C"/>
<path d="M23.4491 11.5574C24.2429 11.5574 24.8864 10.9121 24.8864 10.1161C24.8864 9.3201 24.2429 8.6748 23.4491 8.6748C22.6552 8.6748 22.0117 9.3201 22.0117 10.1161C22.0117 10.9121 22.6552 11.5574 23.4491 11.5574Z" fill="#E54029"/>
<path d="M23.1417 10.5201C22.9074 10.3976 22.7072 10.219 22.5589 10.0001C22.4106 9.78128 22.3188 9.52909 22.2919 9.26611C22.1704 9.42829 22.0846 9.61433 22.04 9.81202C21.9955 10.0097 21.9933 10.2146 22.0335 10.4132C22.0737 10.6118 22.1555 10.7997 22.2734 10.9645C22.3913 11.1292 22.5428 11.2672 22.7178 11.3694C22.8928 11.4715 23.0875 11.5355 23.289 11.5571C23.4905 11.5787 23.6942 11.5574 23.8869 11.4947C24.0796 11.4321 24.2569 11.3293 24.4071 11.1933C24.5573 11.0573 24.677 10.891 24.7585 10.7054C24.2144 10.8334 23.6427 10.7678 23.1417 10.5201V10.5201Z" fill="#A01F1C"/>
<path d="M28.4295 11.4729C29.2234 11.4729 29.8669 10.8285 29.8669 10.0336C29.8669 9.23865 29.2234 8.59424 28.4295 8.59424C27.6357 8.59424 26.9922 9.23865 26.9922 10.0336C26.9922 10.8285 27.6357 11.4729 28.4295 11.4729Z" fill="#E54029"/>
<path d="M28.1222 10.4337C27.888 10.3116 27.6877 10.1334 27.5394 9.91483C27.3911 9.69631 27.2993 9.44437 27.2724 9.18164C27.1562 9.3442 27.0753 9.52923 27.0348 9.72487C26.9942 9.92051 26.9949 10.1225 27.0369 10.3178C27.0789 10.5131 27.1612 10.6976 27.2786 10.8593C27.3959 11.021 27.5458 11.1564 27.7184 11.2569C27.8911 11.3573 28.0829 11.4207 28.2815 11.4428C28.4801 11.4649 28.6811 11.4453 28.8716 11.3852C29.0622 11.3252 29.2381 11.226 29.3882 11.0941C29.5382 10.9621 29.659 10.8003 29.7429 10.619C29.1976 10.7479 28.6244 10.6823 28.1222 10.4337Z" fill="#A01F1C"/>
<path d="M34.2126 8.09505C34.2126 8.77134 33.5679 9.32144 32.7753 9.32144C31.9826 9.32144 31.3379 8.77134 31.3379 8.09505C31.3379 7.41875 31.9807 6.86865 32.7753 6.86865C33.5699 6.86865 34.2126 7.41875 34.2126 8.09505Z" fill="#E54029"/>
<path d="M32.4677 8.43583C32.2458 8.34686 32.0508 8.20177 31.9018 8.01478C31.7528 7.8278 31.655 7.60531 31.6179 7.36914C31.4396 7.56904 31.3401 7.82692 31.3379 8.09473C31.3379 8.77102 31.9807 9.32112 32.7753 9.32112C33.0389 9.3295 33.2998 9.26626 33.5303 9.13815C33.7609 9.01004 33.9524 8.82184 34.0845 8.59357C33.5418 8.70192 32.9792 8.64703 32.4677 8.43583V8.43583Z" fill="#A01F1C"/>
<path d="M31.2137 11.1829C32.0075 11.1829 32.6511 10.5376 32.6511 9.7416C32.6511 8.94559 32.0075 8.30029 31.2137 8.30029C30.4199 8.30029 29.7764 8.94559 29.7764 9.7416C29.7764 10.5376 30.4199 11.1829 31.2137 11.1829Z" fill="#E54029"/>
<path d="M30.9063 10.1422C30.6726 10.019 30.4728 9.84015 30.3246 9.62145C30.1764 9.40274 30.0843 9.15091 30.0565 8.88818C29.935 9.05036 29.8492 9.2364 29.8047 9.43409C29.7601 9.63178 29.7579 9.83665 29.7981 10.0353C29.8383 10.2339 29.9201 10.4217 30.038 10.5865C30.156 10.7513 30.3074 10.8893 30.4825 10.9914C30.6575 11.0936 30.8521 11.1575 31.0536 11.1792C31.2551 11.2008 31.4589 11.1795 31.6516 11.1168C31.8443 11.0541 32.0216 10.9514 32.1718 10.8154C32.322 10.6793 32.4417 10.5131 32.5231 10.3275C31.979 10.4555 31.4074 10.3899 30.9063 10.1422V10.1422Z" fill="#A01F1C"/>
<path d="M27.2605 10.2874C27.2605 10.9913 26.6177 11.5611 25.8251 11.5611C25.0324 11.5611 24.3877 10.9913 24.3877 10.2874C24.3877 9.5835 25.0305 9.01367 25.8251 9.01367C26.6197 9.01367 27.2605 9.5835 27.2605 10.2874Z" fill="#E54029"/>
<path d="M25.5175 10.6428C25.2924 10.5463 25.096 10.3935 24.9472 10.1991C24.7983 10.0046 24.7021 9.77515 24.6677 9.53271C24.4889 9.74394 24.3898 10.0112 24.3877 10.2879C24.3877 10.9918 25.0305 11.5616 25.8251 11.5616C26.0915 11.5677 26.3545 11.5005 26.5854 11.3673C26.8163 11.2342 27.0061 11.0401 27.1343 10.8064C26.5913 10.9189 26.0269 10.8617 25.5175 10.6428V10.6428Z" fill="#A01F1C"/>
<path d="M4.10201 20.9837C3.53005 21.2073 2.93571 21.6563 2.91174 22.2969C2.89098 22.8897 3.40222 23.3785 3.94862 23.5095C4.49501 23.6405 5.06698 23.5015 5.61657 23.3626C4.97751 23.861 5.29704 25.0433 6.01279 25.3676C6.72854 25.6919 7.58328 25.3676 8.21275 24.8723C7.8421 25.5753 8.70164 26.4125 9.45413 26.2815C10.2066 26.1505 10.7498 25.4715 11.2227 24.8436C11.4369 25.2007 11.742 25.4946 12.1069 25.6953C12.4718 25.896 12.8834 25.9963 13.2997 25.9859C13.7188 25.9581 14.1237 25.8222 14.4748 25.5915C14.8259 25.3608 15.1112 25.0431 15.3031 24.6694C15.5385 24.9749 15.8526 25.2107 16.2117 25.3514C16.5708 25.4921 16.9614 25.5325 17.3417 25.4683C17.7267 25.3859 18.0835 25.2048 18.3771 24.9425C18.6707 24.6803 18.891 24.3461 19.0161 23.9729C19.0912 24.8052 19.9012 25.4731 20.6872 25.3532C21.4732 25.2334 22.0835 24.3499 21.9493 23.5255C22.1522 24.4058 23.237 24.7925 24.0439 24.4665C24.8507 24.1406 24.6558 23.7891 24.9833 22.9456C25.4083 23.3402 26.2982 23.337 26.7679 22.9456C27.2376 22.5541 27.4804 21.9438 27.1848 21.4038C26.8893 20.8638 27.0043 20.5219 26.4228 20.3973C26.9388 20.3781 26.9883 20.1832 27.4293 19.8989C27.8702 19.6145 28.1562 18.9802 27.9086 18.5105C27.589 17.9274 26.779 18.0104 26.1511 18.1718C26.7806 17.7884 27.5124 17.1477 27.2807 16.4272C27.1867 16.1895 27.0305 15.9815 26.8286 15.8248C26.1299 15.2115 25.2688 14.8131 24.349 14.6777C24.8459 14.2432 24.7165 13.3453 24.2436 12.8916C23.7707 12.4378 23.0917 12.3276 22.451 12.2877C20.7643 12.1869 19.0756 12.4484 17.4983 13.0545C17.2654 13.1668 17.0107 13.2268 16.7522 13.2303C16.5053 13.1903 16.268 13.1046 16.0524 12.9778C14.8542 12.4187 13.4578 12.4714 12.1877 12.8452C10.9176 13.2191 9.74649 13.8949 8.5882 14.5627C7.13274 15.4031 5.5191 16.4639 5.22194 18.1814" fill="white"/>
<path d="M27.9007 18.5134C27.8197 18.3773 27.7049 18.2644 27.5675 18.1858C27.43 18.1071 27.2746 18.0653 27.1162 18.0645C27.4613 18.2929 27.6434 18.7834 27.276 19.1828C26.9168 19.5879 26.4317 19.8603 25.8988 19.9561C25.977 20.0294 26.0497 20.1084 26.1161 20.1925C26.5954 20.8236 26.4356 21.8221 25.6608 22.1097C25.1671 22.2918 24.6463 22.1241 24.1622 21.8125C24.1622 21.8429 24.1622 21.8717 24.1622 21.902C24.0979 22.2291 23.9314 22.5274 23.6868 22.7539C23.4422 22.9804 23.132 23.1235 22.801 23.1625C22.5899 23.1966 22.3738 23.1779 22.1717 23.1082C21.9696 23.0385 21.7879 22.92 21.6427 22.7631C21.4916 23.0278 21.2821 23.2544 21.0301 23.4258C20.7782 23.5972 20.4904 23.7088 20.1888 23.7521C19.3149 23.8543 18.6774 23.3798 18.1806 22.7376C18.0464 23.5172 17.5511 24.1547 16.6245 24.2362C16.2905 24.2644 15.9545 24.2137 15.6437 24.0883C15.3329 23.9629 15.0559 23.7662 14.8351 23.514C13.7918 24.7314 12.3747 24.4119 11.5711 23.121C10.4192 23.9374 8.48922 23.4246 8.35981 21.124C8.30709 20.1829 7.04654 21.2645 7.40122 20.6447C7.16074 20.5246 6.95102 20.351 6.78816 20.1372C6.6253 19.9233 6.51364 19.675 6.4618 19.4113C5.89021 19.4523 5.31616 19.4442 4.74593 19.3873L4.10687 20.985C3.53491 21.2086 2.94059 21.6576 2.91663 22.2982C2.89586 22.891 3.4071 23.3798 3.9535 23.5108C4.4999 23.6418 5.07185 23.5028 5.62144 23.3639C4.98238 23.8623 5.30192 25.0446 6.01767 25.3689C6.73342 25.6932 7.58814 25.3689 8.21762 24.8736C7.84696 25.5766 8.7065 26.4138 9.45899 26.2828C10.2115 26.1518 10.7547 25.4728 11.2276 24.8449C11.4418 25.202 11.7469 25.4959 12.1118 25.6966C12.4766 25.8973 12.8882 25.9976 13.3045 25.9872C13.7237 25.9594 14.1285 25.8235 14.4796 25.5928C14.8307 25.3621 15.1161 25.0444 15.308 24.6707C15.5434 24.9762 15.8575 25.212 16.2166 25.3527C16.5757 25.4934 16.9663 25.5338 17.3466 25.4696C17.7315 25.3872 18.0884 25.2061 18.382 24.9438C18.6756 24.6816 18.8958 24.3474 19.0209 23.9742C19.096 24.8065 19.906 25.4744 20.6921 25.3545C21.4781 25.2347 22.0884 24.3512 21.9542 23.5268C22.1571 24.4071 23.2419 24.7937 24.0487 24.4678C24.8556 24.1419 24.6606 23.7904 24.9882 22.9469C25.4131 23.3415 26.303 23.3383 26.7727 22.9469C27.2424 22.5554 27.4853 21.9451 27.1897 21.4051C26.8941 20.8651 27.0092 20.5232 26.4276 20.3986C26.9437 20.3794 26.9932 20.1845 27.4341 19.9002C27.8751 19.6158 28.1579 18.9831 27.9007 18.5134Z" fill="#EDE6E4"/>
<path d="M19.8502 9.30483C17.0447 8.82554 11.4034 9.68667 7.38853 11.7988C6.16153 12.4458 2.24569 14.4541 2.0332 18.298C3.06528 19.9596 5.9746 21.2792 7.86302 21.1482C8.98138 21.0715 10.1253 20.8814 11.1478 20.3749C12.354 19.7774 13.3334 18.7773 14.3926 17.9257C17.0271 15.8025 18.0081 15.2944 21.3057 15.0995C21.8153 15.0692 24.6032 14.3007 25.0729 14.085C25.5426 13.8693 26.9182 14.5036 27.0588 13.9828C27.0588 13.9828 25.8589 10.567 19.8438 9.30483" fill="#F78850"/>
<path d="M2.04406 18.298C2.04406 18.298 1.6686 21.0268 3.10968 21.5588C4.35425 22.0189 7.39618 22.6404 10.1857 22.4375C10.1857 22.4375 12.5518 22.7171 15.1192 18.9227C17.6866 15.1283 24.4958 15.2002 26.651 15.4957C26.651 15.4957 27.5857 15.8696 27.2757 14.5116C27.2072 14.209 27.04 13.9378 26.8006 13.7406C26.5611 13.5434 26.2629 13.4313 25.9529 13.422C23.3599 13.3469 15.7902 13.4923 12.9017 17.5072C10.2352 21.2169 2.04406 18.298 2.04406 18.298Z" fill="#DD643E"/>
<path d="M3.43848 14.8472C3.43848 14.8472 8.39118 15.2306 12.9956 16.3841C12.9956 16.3841 14.507 16.3841 14.4846 19.5666L14.3073 20.0044L15.1189 18.9276C15.1189 18.9276 14.9272 16.6685 13.2672 15.8329C11.6073 14.9973 9.69008 14.9254 3.81552 14.395" fill="#FCD290"/>
<path d="M17.2682 17.0233C17.4024 16.9354 17.5382 16.8539 17.6804 16.7788L17.698 16.7693C17.698 16.7693 18.1964 13.8839 16.054 13.4014C14.2726 13.002 12.1845 12.8486 6.77483 12.0322C6.60389 12.1536 6.42814 12.2687 6.2524 12.3821L6.22363 12.4157C6.22363 12.4157 16.9806 13.7593 16.6211 14.5278C16.6211 14.5278 17.2538 13.9542 17.2682 17.0233Z" fill="#FCD290"/>
<path d="M20.6049 13.7081C19.4259 11.0783 13.5753 11.1614 10.38 10.5L9.63867 10.8195C10.9008 10.9505 18.5072 11.8085 19.9946 13.6474C19.9946 13.6474 20.5682 14.8792 20.3142 15.8521C20.4468 15.7643 20.7679 15.777 20.9101 15.7035C20.9837 15.0232 20.8785 14.3354 20.6049 13.7081Z" fill="#FCD290"/>
<path d="M13.0838 21.3349C13.2692 21.1549 13.4582 20.9781 13.651 20.8045C13.6622 20.7917 13.675 20.7821 13.6862 20.7693C13.5759 20.1446 13.1813 18.6077 11.8744 17.9511C10.216 17.1155 8.29728 17.042 2.42432 16.5132L2.34922 16.6011C2.2949 16.7257 2.24218 16.8519 2.18945 16.9765C3.03141 17.0484 7.46171 17.4638 11.6044 18.5007C11.6044 18.5007 12.996 18.507 13.0838 21.3349Z" fill="#FCD290"/>
<path d="M24.6148 13.3116C23.4357 10.6819 18.4271 10.0892 15.227 9.42773C14.9794 9.53318 14.2812 9.61946 14.0352 9.7265C15.2973 9.85751 23.0779 11.0877 24.0061 13.2493C24.0061 13.2493 24.5796 14.4827 24.3256 15.4557C24.4582 15.3678 24.7794 15.3806 24.9215 15.3055C24.9946 14.6255 24.8888 13.9382 24.6148 13.3116V13.3116Z" fill="#FCD290"/>
<path d="M23.5064 16.7674C23.2332 17.4272 22.2602 17.8858 21.7138 17.4752C21.7138 17.4752 21.2025 17.5247 21.5636 17.7947C22.4775 18.4849 23.6981 18.1142 24.1502 17.0262C24.1728 16.9834 24.1861 16.9364 24.1893 16.8881C24.1926 16.8398 24.1857 16.7914 24.1691 16.746C24.1526 16.7005 24.1267 16.6591 24.0931 16.6242C24.0595 16.5894 24.019 16.562 23.9742 16.5437C23.9294 16.5254 23.8813 16.5168 23.833 16.5182C23.7846 16.5197 23.7371 16.5312 23.6935 16.5522C23.6499 16.5731 23.6111 16.6029 23.5797 16.6397C23.5483 16.6765 23.525 16.7195 23.5112 16.7658L23.5064 16.7674Z" fill="#EDE6E4"/>
<path d="M21.7677 20.0733C21.4274 20.7331 20.3777 21.1214 19.8505 20.6405C19.8505 20.6405 19.3169 20.6405 19.6668 20.96C20.5583 21.7588 21.8571 21.4952 22.4195 20.404C22.4487 20.3616 22.4686 20.3135 22.4778 20.2629C22.487 20.2122 22.4853 20.1602 22.4728 20.1102C22.4604 20.0603 22.4374 20.0136 22.4055 19.9732C22.3735 19.9328 22.3334 19.8997 22.2877 19.876C22.2419 19.8524 22.1917 19.8387 22.1403 19.836C22.0889 19.8332 22.0375 19.8415 21.9895 19.8601C21.9415 19.8788 21.8981 19.9074 21.862 19.9442C21.826 19.981 21.7982 20.025 21.7805 20.0733H21.7677Z" fill="#EDE6E4"/>
<path d="M18.8445 19.3283C18.5058 19.9882 17.4546 20.3764 16.9273 19.8955C16.9273 19.8955 16.3921 19.8955 16.7436 20.215C17.6335 21.0138 18.934 20.7486 19.4964 19.6574C19.5256 19.6151 19.5455 19.5669 19.5547 19.5163C19.5638 19.4656 19.5621 19.4136 19.5497 19.3637C19.5372 19.3137 19.5142 19.267 19.4823 19.2266C19.4504 19.1862 19.4102 19.1531 19.3645 19.1294C19.3188 19.1058 19.2685 19.0921 19.2171 19.0894C19.1657 19.0866 19.1143 19.0949 19.0663 19.1135C19.0183 19.1322 18.9749 19.1609 18.9389 19.1976C18.9028 19.2344 18.875 19.2784 18.8573 19.3267L18.8445 19.3283Z" fill="#EDE6E4"/>
</svg>
