<svg width="51" height="51" viewBox="0 0 51 51" fill="none" xmlns="http://www.w3.org/2000/svg">
<g clip-path="url(#clip0_748_5907)">
<path d="M27.3247 32.9548H40.6539C41.1537 32.9548 41.4869 32.6216 41.4869 32.1217V24.6241C41.4869 24.1242 41.1537 23.791 40.6539 23.791H27.3247C26.8249 23.791 26.4917 24.1242 26.4917 24.6241V32.1217C26.4916 32.6215 26.8249 32.9548 27.3247 32.9548ZM28.1578 25.4571H39.8208V31.2886H28.1578V25.4571Z" fill="#7B7B7B"/>
<path d="M4.83206 22.1248H11.4967C11.9965 22.1248 12.3297 21.7916 12.3297 21.2918C12.3297 20.7919 11.9965 20.4587 11.4967 20.4587H4.83206C4.33222 20.4587 3.99902 20.7919 3.99902 21.2918C3.99902 21.7916 4.33222 22.1248 4.83206 22.1248Z" fill="#7B7B7B"/>
<path d="M14.8286 22.1248H21.4933C21.9931 22.1248 22.3263 21.7916 22.3263 21.2918C22.3263 20.7919 21.9931 20.4587 21.4933 20.4587H14.8286C14.3288 20.4587 13.9956 20.7919 13.9956 21.2918C13.9956 21.7916 14.3288 22.1248 14.8286 22.1248Z" fill="#7B7B7B"/>
<path d="M4.83206 25.4571H15.662C16.1618 25.4571 16.495 25.1239 16.495 24.6241C16.495 24.1242 16.1618 23.791 15.662 23.791H4.83206C4.33222 23.791 3.99902 24.1242 3.99902 24.6241C3.99902 25.1239 4.33222 25.4571 4.83206 25.4571Z" fill="#7B7B7B"/>
<path d="M21.4929 23.791H18.9937C18.4938 23.791 18.1606 24.1242 18.1606 24.6241C18.1606 25.1239 18.4938 25.4571 18.9937 25.4571H21.4929C21.9927 25.4571 22.3259 25.1239 22.3259 24.6241C22.3259 24.1242 21.9927 23.791 21.4929 23.791Z" fill="#7B7B7B"/>
<path d="M49.9011 13.4609C49.318 12.7111 48.5682 12.2946 47.6518 12.2113L45.6524 11.969V9.62871V7.96263C45.6524 6.1299 44.1529 4.63037 42.3202 4.63037H3.99876C2.16604 4.63027 0.666504 6.12981 0.666504 7.96263V9.62881V16.2934V34.621C0.666504 36.1257 1.67761 37.4051 3.05375 37.8151C3.01177 39.5003 4.28686 40.9634 5.99824 41.119L44.4862 45.4509C44.5695 45.4509 44.7361 45.4509 44.8194 45.4509C46.4856 45.4509 47.9851 44.2013 48.1517 42.6185L50.6509 15.8769C50.7342 15.0437 50.4842 14.1273 49.9011 13.4609ZM2.33268 10.4619H43.9864V12.6279V15.4603H2.33268V10.4619ZM3.99876 6.29645H42.3201C43.2365 6.29645 43.9863 7.04622 43.9863 7.96263V8.79567H2.33268V7.96263C2.33268 7.04622 3.08245 6.29645 3.99876 6.29645ZM2.33268 34.6209V17.1264H43.9864V34.6209C43.9864 35.5373 43.2366 36.2871 42.3202 36.2871H4.08214H3.99886C3.08245 36.2871 2.33268 35.5373 2.33268 34.6209ZM48.9847 15.5436L46.4855 42.2852C46.4022 43.2016 45.5691 43.868 44.6528 43.7847L6.24806 39.4528C5.41502 39.3695 4.8318 38.703 4.74853 37.9533H42.3201C44.1528 37.9533 45.6524 36.4537 45.6524 34.621V16.2933V13.5442L47.5685 13.7108C47.985 13.7108 48.4015 13.9608 48.6514 14.294C48.9014 14.6271 49.0681 15.127 48.9847 15.5436Z" fill="#7B7B7B"/>
</g>
<defs>
<clipPath id="clip0_748_5907">
<rect width="50" height="50" fill="white" transform="translate(0.666504 0.0405273)"/>
</clipPath>
</defs>
</svg>
