<svg width="51" height="51" viewBox="0 0 51 51" fill="none" xmlns="http://www.w3.org/2000/svg">
<path d="M27.9665 44.0182C28.887 44.0182 29.6331 43.272 29.6331 42.3515C29.6331 41.431 28.887 40.6848 27.9665 40.6848C27.046 40.6848 26.2998 41.431 26.2998 42.3515C26.2998 43.272 27.046 44.0182 27.9665 44.0182Z" fill="#7E992D"/>
<path d="M21.3003 14.0186C21.8526 14.0186 22.3003 13.5708 22.3003 13.0186C22.3003 12.4663 21.8526 12.0186 21.3003 12.0186C20.748 12.0186 20.3003 12.4663 20.3003 13.0186C20.3003 13.5708 20.748 14.0186 21.3003 14.0186Z" fill="#7E992D"/>
<path d="M23.9668 14.0186C24.5191 14.0186 24.9668 13.5708 24.9668 13.0186C24.9668 12.4663 24.5191 12.0186 23.9668 12.0186C23.4145 12.0186 22.9668 12.4663 22.9668 13.0186C22.9668 13.5708 23.4145 14.0186 23.9668 14.0186Z" fill="#7E992D"/>
<path d="M26.6333 14.0186C27.1856 14.0186 27.6333 13.5708 27.6333 13.0186C27.6333 12.4663 27.1856 12.0186 26.6333 12.0186C26.081 12.0186 25.6333 12.4663 25.6333 13.0186C25.6333 13.5708 26.081 14.0186 26.6333 14.0186Z" fill="#7E992D"/>
<path d="M15.6335 28.0186H11.6335C11.2653 28.0186 10.9668 28.3167 10.9668 28.6852C10.9668 29.0537 11.2653 29.3519 11.6335 29.3519H15.6335C16.0016 29.3519 16.3001 29.0537 16.3001 28.6852C16.3001 28.3167 16.0016 28.0186 15.6335 28.0186Z" fill="#7E992D"/>
<path d="M19.6335 28.0186H17.6335C17.2653 28.0186 16.9668 28.3167 16.9668 28.6852C16.9668 29.0537 17.2653 29.3519 17.6335 29.3519H19.6335C20.0016 29.3519 20.3001 29.0537 20.3001 28.6852C20.3001 28.3167 20.0016 28.0186 19.6335 28.0186Z" fill="#7E992D"/>
<path d="M44.967 10.0186C44.967 6.70989 42.2756 4.01855 38.967 4.01855C36.1171 4.01855 33.73 6.01722 33.1215 8.68522H19.7153C18.2 8.68522 16.967 9.91822 16.967 11.4339V19.3519H9.75829C8.95429 19.3519 8.30029 20.0056 8.30029 20.8096V30.5609C8.30029 31.3649 8.95429 32.0186 9.75829 32.0186H27.5093C28.3133 32.0186 28.967 31.3649 28.967 30.5609V20.8096C28.967 20.0056 28.3133 19.3519 27.5093 19.3519H18.3003V11.4339C18.3003 10.6532 18.9351 10.0186 19.7153 10.0186H32.967C32.967 13.1016 35.3046 15.6464 38.3003 15.9792V38.6812H18.3003V34.0596C18.3003 33.6911 18.0018 33.3929 17.6336 33.3929C17.2655 33.3929 16.967 33.6911 16.967 34.0596V39.3479V43.2697C16.967 44.7854 18.2 46.0184 19.7153 46.0184H36.885C38.4006 46.0184 39.6336 44.7854 39.6336 43.2697V39.3479V15.9792C42.6293 15.6464 44.967 13.1016 44.967 10.0186ZM9.63363 24.0186H27.6336V25.3519H9.63363V24.0186ZM27.5093 30.6852H9.75829C9.68963 30.6852 9.63363 30.6292 9.63363 30.5609V26.6852H27.6336V30.5609C27.6336 30.6292 27.5776 30.6852 27.5093 30.6852ZM27.6336 20.8096V22.6852H9.63363V20.8096C9.63363 20.7412 9.68963 20.6852 9.75829 20.6852H27.5093C27.5776 20.6852 27.6336 20.7412 27.6336 20.8096ZM38.3003 43.2699C38.3003 44.0506 37.6655 44.6852 36.885 44.6852H19.7153C18.935 44.6852 18.3003 44.0504 18.3003 43.2699V40.0147H38.3003V43.2699ZM38.967 14.6852C36.394 14.6852 34.3003 12.5916 34.3003 10.0186C34.3003 7.44556 36.394 5.35189 38.967 5.35189C41.54 5.35189 43.6336 7.44556 43.6336 10.0186C43.6336 12.5916 41.54 14.6852 38.967 14.6852Z" fill="#7E992D"/>
<path d="M40.4122 7.64869L38.1967 10.9722L37.4382 10.2137C37.1779 9.95336 36.7559 9.95336 36.4955 10.2137C36.2352 10.474 36.2352 10.896 36.4955 11.1564L37.8289 12.4897C37.9545 12.6155 38.1244 12.6852 38.3002 12.6852C38.3217 12.6852 38.3439 12.6839 38.366 12.6819C38.5645 12.6624 38.7444 12.5542 38.855 12.3882L41.5217 8.38819C41.7262 8.08153 41.6434 7.66819 41.3369 7.46369C41.0287 7.25936 40.616 7.34203 40.4122 7.64869Z" fill="#7E992D"/>
<path d="M14.3005 13.352C14.6686 13.352 14.9671 13.0538 14.9671 12.6853V9.35197C14.9671 8.98347 14.6686 8.6853 14.3005 8.6853C13.9323 8.6853 13.6338 8.98347 13.6338 9.35197V12.6853C13.6338 13.0538 13.9323 13.352 14.3005 13.352Z" fill="#7E992D"/>
<path d="M11.6335 16.0187C11.6335 15.6502 11.335 15.3521 10.9668 15.3521H7.63346C7.2653 15.3521 6.9668 15.6502 6.9668 16.0187C6.9668 16.3872 7.2653 16.6854 7.63346 16.6854H10.9668C11.335 16.6854 11.6335 16.3872 11.6335 16.0187Z" fill="#7E992D"/>
<path d="M11.2057 13.7722C11.3359 13.9023 11.5065 13.9675 11.677 13.9675C11.8475 13.9675 12.0182 13.9023 12.1484 13.7722C12.4087 13.5118 12.4087 13.0898 12.1484 12.8295L9.77854 10.4597C9.51821 10.1993 9.09621 10.1993 8.83587 10.4597C8.57554 10.72 8.57554 11.142 8.83587 11.4023L11.2057 13.7722Z" fill="#7E992D"/>
</svg>
