<svg width="45" height="45" viewBox="0 0 45 45" fill="none" xmlns="http://www.w3.org/2000/svg">
<g clip-path="url(#clip0_748_5937)">
<path d="M42.1023 26.1911H41.4438V20.2601C41.4438 19.3211 40.9765 18.4898 40.2628 17.9846V17.1771C40.2628 16.0057 39.3098 15.0527 38.1384 15.0527H37.6467L39.5278 12.2924C40.1584 11.3672 39.9186 10.1014 38.9934 9.47081L26.229 0.772212C25.7808 0.466705 25.2406 0.353955 24.7075 0.455103C24.1746 0.55608 23.7128 0.858494 23.4074 1.30674L12.3901 17.4736H9.32432L10.064 9.98583C10.0723 9.90144 10.1272 9.82831 10.2036 9.79952C11.1566 9.44021 11.9825 8.76921 12.529 7.91018C12.5721 7.84255 12.6533 7.80388 12.7373 7.81238L17.546 8.28745C17.8907 8.32088 18.1975 8.06977 18.2315 7.72516C18.2655 7.38055 18.0138 7.07367 17.6692 7.03963L12.8606 6.56457C12.3024 6.50992 11.7701 6.76713 11.471 7.23703C11.0692 7.86867 10.462 8.36195 9.76132 8.62613C9.23392 8.82499 8.87178 9.29867 8.81609 9.86251L8.06431 17.4735H7.26483L8.43461 5.63095C8.47672 5.2047 8.85717 4.89154 9.28393 4.93425L19.0012 5.89417C19.3458 5.92743 19.6527 5.67649 19.6868 5.33188C19.7208 4.98727 19.4691 4.68039 19.1245 4.64636L9.40717 3.68644C8.29307 3.57652 7.2968 4.39336 7.18671 5.50763L6.24381 15.0527H4.63807C3.46674 15.0527 2.51369 16.0057 2.51369 17.1771V17.7279C1.5554 18.1691 0.888184 19.1378 0.888184 20.2601V41.6323C0.888184 43.1689 2.13823 44.4189 3.67488 44.4189H38.6572C40.1938 44.4189 41.4438 43.1689 41.4438 41.6323V35.7014H42.1023C42.8795 35.7014 43.5117 35.0692 43.5117 34.292V27.6005C43.5118 26.8233 42.8795 26.1911 42.1023 26.1911ZM38.1384 16.3067C38.6184 16.3066 39.0089 16.6971 39.0089 17.1772V17.4966C38.8935 17.482 38.7764 17.4736 38.6572 17.4736H35.997L36.7922 16.3067H38.1384ZM24.4436 2.01281C24.5604 1.84136 24.737 1.72569 24.9409 1.68702C24.9896 1.67782 25.0385 1.67318 25.0871 1.67318C25.2415 1.67318 25.3924 1.71942 25.5229 1.80827L38.2872 10.5069C38.6411 10.7481 38.7329 11.2323 38.4918 11.5862L34.4797 17.4734H33.5168L35.4839 14.587C35.8029 14.1189 35.8292 13.5232 35.5523 13.0322C35.1843 12.38 35.0351 11.6119 35.1322 10.8695C35.2044 10.3172 34.9614 9.77803 34.498 9.4623L27.881 4.95299C27.4175 4.63717 26.8268 4.6082 26.3392 4.87745C25.6839 5.23924 24.9145 5.3813 24.1729 5.27749C23.6229 5.20031 23.065 5.44867 22.7508 5.90973L14.8704 17.4735H13.9075L24.4436 2.01281ZM24.7197 12.6597C21.9894 12.6597 19.7481 14.7886 19.5655 17.4735H16.3876L23.7867 6.61588C23.7868 6.61588 23.7868 6.61588 23.7868 6.61588C23.8289 6.55409 23.8985 6.51731 23.9701 6.51731C23.9797 6.51731 23.9892 6.51799 23.9988 6.51928C25.0075 6.66039 26.0538 6.46738 26.9451 5.97521C27.0152 5.93637 27.1053 5.94195 27.1747 5.98922L33.7918 10.4986C33.8611 10.5459 33.8992 10.6277 33.8889 10.7071C33.7568 11.7168 33.9598 12.7613 34.4602 13.6483C34.5003 13.7196 34.4954 13.8108 34.4478 13.8809L31.9996 17.4734H29.8741C29.6913 14.7886 27.4502 12.6597 24.7197 12.6597ZM28.6168 17.4736H20.8227C21.0023 15.4808 22.681 13.9137 24.7197 13.9137C26.7585 13.9136 28.4373 15.4808 28.6168 17.4736ZM3.76761 17.1771C3.76761 16.697 4.15802 16.3065 4.63807 16.3065H6.11997L6.00473 17.4735H3.76761V17.1771ZM2.1421 20.2601C2.1421 19.415 2.82968 18.7274 3.67488 18.7274H38.6572C39.5024 18.7274 40.1899 19.415 40.1899 20.2601V21.9998H2.1421V20.2601ZM40.1899 41.6323C40.1899 42.4774 39.5024 43.165 38.6572 43.165H3.67488C2.82968 43.165 2.1421 42.4774 2.1421 41.6323V39.8926H5.52305C5.86938 39.8926 6.14996 39.6119 6.14996 39.2657C6.14996 38.9194 5.86929 38.6388 5.52305 38.6388H2.1421V23.2537H40.1899V26.1911H34.2288H34.2287C32.3504 26.1911 30.7234 27.2859 29.9513 28.8707C29.9487 28.876 29.9458 28.8812 29.9431 28.8865C29.9366 28.9 29.9309 28.914 29.9246 28.9276C29.8326 29.1229 29.7527 29.3251 29.6876 29.5338C29.6875 29.5344 29.6873 29.5349 29.6871 29.5355C29.5483 29.9814 29.4735 30.4552 29.4735 30.9462C29.4735 33.5683 31.6066 35.7014 34.2286 35.7014H34.2287H40.1898V38.6388H9.53753C9.19121 38.6388 8.91062 38.9194 8.91062 39.2657C8.91062 39.6119 9.19129 39.8926 9.53753 39.8926H40.1899V41.6323ZM42.2579 34.292C42.2579 34.3777 42.1881 34.4475 42.1023 34.4475H34.2288C32.9015 34.4475 31.7443 33.7051 31.1507 32.6138C31.1237 32.5642 31.098 32.5138 31.0733 32.4629C31.0241 32.3609 30.9796 32.2561 30.9404 32.1489C30.8027 31.7736 30.7276 31.3685 30.7276 30.9462C30.7276 30.5239 30.8028 30.1188 30.9404 29.7436C30.9797 29.6365 31.0241 29.5317 31.0733 29.4296C31.098 29.3787 31.1237 29.3283 31.1507 29.2787C31.7443 28.1874 32.9015 27.445 34.2288 27.445H42.1023C42.188 27.445 42.2579 27.5148 42.2579 27.6005V34.292Z" fill="#7B7B7B"/>
<path d="M34.3758 28.4026C32.9731 28.4026 31.832 29.5438 31.832 30.9463C31.832 32.3489 32.9731 33.49 34.3758 33.49C35.7785 33.49 36.9195 32.3489 36.9195 30.9463C36.9195 29.5438 35.7785 28.4026 34.3758 28.4026ZM34.3758 32.2361C33.6646 32.2361 33.0859 31.6575 33.0859 30.9463C33.0859 30.2352 33.6646 29.6565 34.3758 29.6565C35.087 29.6565 35.6656 30.2351 35.6656 30.9463C35.6656 31.6576 35.087 32.2361 34.3758 32.2361Z" fill="#7B7B7B"/>
</g>
<defs>
<clipPath id="clip0_748_5937">
<rect width="44" height="44" fill="white" transform="translate(0.200195 0.418945)"/>
</clipPath>
</defs>
</svg>
