<svg width="56" height="39" viewBox="0 0 56 39" fill="none" xmlns="http://www.w3.org/2000/svg">
<g filter="url(#filter0_d_1139_13)">
<rect x="4" y="2" width="48" height="31" rx="3" fill="white"/>
</g>
<path d="M17.3952 12.8049C16.985 13.2778 16.3286 13.6508 15.6723 13.5975C15.5903 12.9581 15.9116 12.2788 16.2876 11.8592C16.6978 11.373 17.4157 11.0266 17.9968 11C18.0652 11.666 17.7985 12.3187 17.3952 12.8049ZM17.99 13.7241C17.0397 13.6708 16.2261 14.2502 15.7749 14.2502C15.3168 14.2502 14.6263 13.7507 13.8742 13.764C12.8966 13.7774 11.9873 14.3168 11.4882 15.176C10.4627 16.8944 11.2216 19.4386 12.2129 20.8373C12.6983 21.53 13.2795 22.2892 14.0452 22.2626C14.7699 22.236 15.057 21.803 15.9321 21.803C16.814 21.803 17.067 22.2626 17.8327 22.2493C18.6258 22.236 19.1249 21.5566 19.6103 20.8639C20.164 20.078 20.3896 19.3121 20.4033 19.2721C20.3896 19.2588 18.8719 18.6927 18.8582 16.9876C18.8445 15.5623 20.0546 14.883 20.1093 14.843C19.4257 13.8573 18.3591 13.7507 17.99 13.7241ZM23.4798 11.7926V22.176H25.1343V18.6261H27.4246C29.5167 18.6261 30.9866 17.2274 30.9866 15.2027C30.9866 13.1779 29.544 11.7926 27.4793 11.7926H23.4798ZM25.1343 13.1513H27.0418C28.4775 13.1513 29.2979 13.8972 29.2979 15.2093C29.2979 16.5214 28.4775 17.274 27.0349 17.274H25.1343V13.1513ZM34.0084 22.2559C35.0476 22.2559 36.0115 21.7431 36.4491 20.9305H36.4833V22.176H38.0147V17.0076C38.0147 15.509 36.7841 14.5433 34.8903 14.5433C33.1333 14.5433 31.8343 15.5224 31.7865 16.8677H33.2769C33.3999 16.2284 34.0084 15.8088 34.8425 15.8088C35.8543 15.8088 36.4218 16.2683 36.4218 17.1142V17.687L34.3571 17.8069C32.4359 17.9201 31.3968 18.686 31.3968 20.0181C31.3968 21.3635 32.4701 22.2559 34.0084 22.2559ZM34.4528 21.0238C33.5708 21.0238 33.0102 20.6108 33.0102 19.9781C33.0102 19.3254 33.5503 18.9458 34.5827 18.8858L36.4218 18.7726V19.3587C36.4218 20.3311 35.574 21.0238 34.4528 21.0238ZM40.0589 25C41.6724 25 42.4312 24.4006 43.0944 22.5823L46 14.6432H44.3182L42.3697 20.7774H42.3355L40.3871 14.6432H38.6574L41.4604 22.2027L41.31 22.6622C41.0571 23.4415 40.6468 23.7412 39.9153 23.7412C39.7854 23.7412 39.5325 23.7279 39.4299 23.7146V24.96C39.5256 24.9867 39.9358 25 40.0589 25Z" fill="black"/>
<defs>
<filter id="filter0_d_1139_13" x="0" y="0" width="56" height="39" filterUnits="userSpaceOnUse" color-interpolation-filters="sRGB">
<feFlood flood-opacity="0" result="BackgroundImageFix"/>
<feColorMatrix in="SourceAlpha" type="matrix" values="0 0 0 0 0 0 0 0 0 0 0 0 0 0 0 0 0 0 127 0" result="hardAlpha"/>
<feOffset dy="2"/>
<feGaussianBlur stdDeviation="2"/>
<feComposite in2="hardAlpha" operator="out"/>
<feColorMatrix type="matrix" values="0 0 0 0 0 0 0 0 0 0 0 0 0 0 0 0 0 0 0.1 0"/>
<feBlend mode="normal" in2="BackgroundImageFix" result="effect1_dropShadow_1139_13"/>
<feBlend mode="normal" in="SourceGraphic" in2="effect1_dropShadow_1139_13" result="shape"/>
</filter>
</defs>
</svg>
