<svg width="56" height="39" viewBox="0 0 56 39" fill="none" xmlns="http://www.w3.org/2000/svg">
<g filter="url(#filter0_d_1139_14)">
<rect x="4" y="2" width="48" height="31" rx="3" fill="white"/>
</g>
<path d="M35.9595 7H19.3501C18.0522 7 17 8.05219 17 9.35013V25.9595C17 27.2575 18.0522 28.3097 19.3501 28.3097H35.9595C37.2575 28.3097 38.3097 27.2575 38.3097 25.9595V9.35013C38.3097 8.05219 37.2575 7 35.9595 7Z" fill="#1428A0"/>
<path d="M24.678 18.1532C24.5463 18.153 24.4154 18.1738 24.2903 18.2149C24.1423 18.2628 24.0136 18.357 23.9232 18.4835V18.2149H23.3306V21.8803H23.9143V20.6081C24.01 20.7308 24.1414 20.8208 24.2903 20.8659C24.424 20.9104 24.564 20.9331 24.7048 20.933C24.8807 20.9355 25.0551 20.9001 25.216 20.8292C25.3814 20.7581 25.5307 20.6543 25.6547 20.5239C25.779 20.3957 25.8756 20.2433 25.9385 20.0762C26.0422 19.821 26.0693 19.5411 26.0163 19.2708C25.9634 19.0005 25.8327 18.7515 25.6404 18.5543C25.5161 18.4247 25.3666 18.322 25.2011 18.2526C25.0355 18.1831 24.8575 18.1484 24.678 18.1505V18.1532ZM25.2152 20.1738C25.1441 20.2476 25.0589 20.3062 24.9645 20.3461C24.8702 20.3859 24.7687 20.4062 24.6663 20.4057C24.561 20.4119 24.4556 20.3953 24.3574 20.3569C24.2591 20.3186 24.1703 20.2595 24.0969 20.1837C23.9455 19.9997 23.8691 19.7653 23.883 19.5274C23.8716 19.2963 23.9503 19.0698 24.1023 18.8954C24.2522 18.7497 24.4532 18.6687 24.6622 18.6698C24.8713 18.671 25.0714 18.7543 25.2196 18.9016C25.3783 19.0811 25.4614 19.315 25.4515 19.5543C25.4549 19.668 25.4358 19.7813 25.3952 19.8877C25.3546 19.994 25.2934 20.0913 25.2152 20.1738Z" fill="white"/>
<path d="M30.9028 20.0966L30.0863 18.2129H29.4614L30.6101 20.7224L30.1087 21.8782H30.7229L32.2834 18.2129H31.6558L30.9028 20.0966Z" fill="white"/>
<path d="M28.5088 18.4817C28.4191 18.3549 28.2906 18.2606 28.1426 18.2132C28.0177 18.1714 27.8867 18.1502 27.755 18.1505C27.5753 18.1484 27.3972 18.1831 27.2315 18.2526C27.0658 18.322 26.9161 18.4247 26.7917 18.5543C26.5995 18.7516 26.469 19.0006 26.4161 19.2709C26.3632 19.5412 26.3901 19.821 26.4935 20.0762C26.5569 20.2433 26.6538 20.3956 26.7782 20.5239C26.902 20.6544 27.0509 20.7586 27.216 20.8301C27.3772 20.9003 27.5515 20.9354 27.7272 20.933C27.8682 20.9335 28.0082 20.9109 28.1418 20.8659C28.2911 20.8211 28.4226 20.7306 28.5178 20.6072V20.8838H29.1015V18.2123H28.5088V18.4817ZM28.3378 20.1828C28.2646 20.2586 28.176 20.3176 28.0778 20.3559C27.9797 20.3943 27.8745 20.4109 27.7693 20.4048C27.6668 20.4054 27.5651 20.3852 27.4706 20.3454C27.3761 20.3055 27.2907 20.2468 27.2196 20.1729C27.0621 20.0058 26.9774 19.783 26.9841 19.5534C26.9744 19.3142 27.0571 19.0805 27.2151 18.9007C27.2871 18.8257 27.3738 18.7664 27.4698 18.7265C27.5658 18.6866 27.669 18.667 27.7729 18.6689C27.8767 18.6654 27.9802 18.6836 28.0765 18.7225C28.1729 18.7613 28.2601 18.8199 28.3324 18.8945C28.4845 19.0689 28.5631 19.2954 28.5518 19.5265C28.5655 19.7644 28.4891 19.9987 28.3378 20.1828Z" fill="white"/>
<path d="M32.8754 16.494H32.8638L32.34 14.7178H31.4976V16.9578H32.0553L32.024 15.1198H32.0383L32.5988 16.9578H33.4081V14.7178H32.845L32.8754 16.494Z" fill="white"/>
<path d="M23.1605 14.7178H22.1488L21.728 16.9793H22.3413L22.652 14.9264H22.6654L22.968 16.9793H23.5804L23.1605 14.7178Z" fill="white"/>
<path d="M24.6137 14.9472H24.6262L25.0076 16.9813H25.5833L25.962 14.9472H25.9736L25.9888 16.9813H26.5582L26.5072 14.7207H25.5815L25.3004 16.4495H25.2878L25.0094 14.7207H24.0828L24.0317 16.9813H24.5994L24.6137 14.9472Z" fill="white"/>
<path d="M30.8591 16.4887C30.8591 16.4663 30.8662 16.3812 30.8662 16.3382V14.7178H30.2897V16.3902C30.2904 16.4201 30.2886 16.4501 30.2843 16.4797C30.2701 16.5266 30.2412 16.5676 30.2018 16.5968C30.1625 16.6259 30.1148 16.6417 30.0659 16.6417C30.0169 16.6417 29.9692 16.6259 29.9299 16.5968C29.8905 16.5676 29.8616 16.5266 29.8474 16.4797C29.8444 16.4499 29.8444 16.4199 29.8474 16.3902V14.7178H29.269V16.3382C29.269 16.3812 29.269 16.4663 29.2744 16.4887C29.3138 16.9103 29.6478 17.0464 30.0667 17.0464C30.4857 17.0464 30.8206 16.9103 30.8591 16.4887Z" fill="white"/>
<path d="M20.322 15.2997C20.3132 15.2608 20.3132 15.2204 20.322 15.1815C20.3304 15.1342 20.3566 15.092 20.3953 15.0635C20.4339 15.035 20.4821 15.0224 20.5297 15.0284C20.5575 15.0258 20.5855 15.0292 20.6119 15.0384C20.6382 15.0477 20.6623 15.0625 20.6823 15.0819C20.7024 15.1013 20.7181 15.1248 20.7282 15.1508C20.7383 15.1768 20.7427 15.2047 20.741 15.2326V15.374H21.3077V15.2182C21.3077 14.7258 20.8601 14.6479 20.5405 14.6479C20.1376 14.6479 19.8081 14.7822 19.7472 15.1511C19.7298 15.2517 19.7316 15.3547 19.7526 15.4546C19.8502 15.9184 20.6595 16.0518 20.775 16.3436C20.7927 16.3978 20.7946 16.4559 20.7804 16.511C20.7696 16.5599 20.7407 16.6027 20.6994 16.631C20.6582 16.6593 20.6078 16.6708 20.5584 16.6632C20.5295 16.6669 20.5003 16.6642 20.4726 16.6555C20.4449 16.6468 20.4193 16.6322 20.3978 16.6128C20.3762 16.5933 20.3591 16.5694 20.3475 16.5428C20.336 16.5161 20.3304 16.4873 20.331 16.4582V16.2389H19.7222V16.4126C19.7222 16.9184 20.1206 17.0697 20.5467 17.0697C20.9595 17.0697 21.297 16.9309 21.3525 16.554C21.3733 16.431 21.3733 16.3054 21.3525 16.1825C21.2558 15.7071 20.3936 15.5683 20.3292 15.3033" fill="white"/>
<path d="M27.9332 17.0546C28.3397 17.0546 28.6745 16.9167 28.7282 16.5425C28.7494 16.4207 28.7494 16.2962 28.7282 16.1745C28.6333 15.7063 27.7801 15.5675 27.7174 15.3043C27.7096 15.2659 27.7096 15.2263 27.7174 15.1879C27.7262 15.1415 27.7522 15.1002 27.7903 15.0722C27.8283 15.0443 27.8756 15.0319 27.9225 15.0375C27.95 15.0346 27.9779 15.0377 28.0042 15.0467C28.0304 15.0556 28.0544 15.0702 28.0744 15.0894C28.0944 15.1086 28.11 15.1319 28.1201 15.1577C28.1302 15.1835 28.1346 15.2112 28.1329 15.2389V15.3777H28.6924V15.2183C28.6924 14.7304 28.2528 14.6543 27.9359 14.6543C27.5357 14.6543 27.208 14.7841 27.1489 15.1512C27.1293 15.251 27.1311 15.3538 27.1543 15.4529C27.2519 15.9113 28.0496 16.042 28.166 16.3339C28.1837 16.3871 28.1856 16.4443 28.1713 16.4986C28.1534 16.5729 28.1015 16.6472 27.952 16.6472C27.9235 16.6511 27.8945 16.6488 27.867 16.6404C27.8395 16.632 27.8142 16.6177 27.7927 16.5985C27.7713 16.5794 27.7542 16.5558 27.7428 16.5294C27.7313 16.5031 27.7257 16.4745 27.7264 16.4458V16.2282H27.1221V16.401C27.1221 16.9015 27.5169 17.051 27.9395 17.051" fill="white"/>
<path d="M34.811 15.7081V16.0403H35.0429V16.3671C35.0441 16.397 35.0423 16.427 35.0375 16.4566C35.0265 16.5079 34.9967 16.5531 34.9539 16.5835C34.9112 16.6138 34.8586 16.627 34.8066 16.6204C34.7543 16.6267 34.7015 16.6134 34.6584 16.5832C34.6153 16.5529 34.5849 16.5079 34.5729 16.4566C34.5698 16.4269 34.5683 16.397 34.5684 16.3671V15.3321C34.5676 15.2964 34.5706 15.2607 34.5774 15.2256C34.589 15.1758 34.6183 15.1319 34.6597 15.1019C34.7012 15.072 34.752 15.058 34.803 15.0626C34.8544 15.0566 34.9062 15.0699 34.9482 15.1001C34.9903 15.1302 35.0196 15.175 35.0304 15.2256C35.0354 15.2551 35.0378 15.2851 35.0375 15.3151V15.4422H35.6105V15.3679C35.6124 15.3183 35.6109 15.2687 35.6061 15.2193C35.5658 14.7931 35.2112 14.6606 34.8083 14.6606C34.4055 14.6606 34.0626 14.7949 34.0133 15.2193C34.0072 15.2686 34.0039 15.3182 34.0035 15.3679V16.3196C34.003 16.3693 34.0056 16.4189 34.0115 16.4682C34.0491 16.8783 34.4064 17.0269 34.8083 17.0269C35.2103 17.0269 35.5702 16.8783 35.6087 16.4682C35.6141 16.393 35.6159 16.3617 35.6159 16.3196V15.7117L34.811 15.7081Z" fill="white"/>
<defs>
<filter id="filter0_d_1139_14" x="0" y="0" width="56" height="39" filterUnits="userSpaceOnUse" color-interpolation-filters="sRGB">
<feFlood flood-opacity="0" result="BackgroundImageFix"/>
<feColorMatrix in="SourceAlpha" type="matrix" values="0 0 0 0 0 0 0 0 0 0 0 0 0 0 0 0 0 0 127 0" result="hardAlpha"/>
<feOffset dy="2"/>
<feGaussianBlur stdDeviation="2"/>
<feComposite in2="hardAlpha" operator="out"/>
<feColorMatrix type="matrix" values="0 0 0 0 0 0 0 0 0 0 0 0 0 0 0 0 0 0 0.1 0"/>
<feBlend mode="normal" in2="BackgroundImageFix" result="effect1_dropShadow_1139_14"/>
<feBlend mode="normal" in="SourceGraphic" in2="effect1_dropShadow_1139_14" result="shape"/>
</filter>
</defs>
</svg>
