<svg width="36" height="30" viewBox="0 0 36 30" fill="none" xmlns="http://www.w3.org/2000/svg">
<g clip-path="url(#clip0_941:8)">
<rect width="36" height="30" fill="white"/>
<path opacity="0.78" d="M35.4295 16.534C35.4759 11.0509 27.6597 6.39196 17.9716 6.12792C8.28349 5.86388 0.392115 10.0948 0.345721 15.5778C0.299328 21.0609 8.11549 25.7199 17.8036 25.9839C27.4917 26.248 35.3831 22.0171 35.4295 16.534Z" fill="#B8B8B9"/>
<path d="M32.9106 20.0819L32.5484 16.8623L24.7393 18.0461L32.9106 20.0819Z" fill="#544425"/>
<path d="M35.5745 12.1727C36.7743 16.6801 35.0486 20.508 35.0486 20.508C33.4293 24.5906 28.9098 25.8943 28.9098 25.8943C15.0806 30.0785 6.14322 24.6371 6.14322 24.6371C2.84807 23.5354 0.876162 19.7196 0.876162 19.7196C0.876162 19.7196 -1.92448 13.0174 2.48861 7.80001C6.04432 3.59869 14.5615 2.34393 21.8134 3.30612C22.6258 3.41507 29.4528 3.43588 32.7766 7.26627C33.9082 8.57735 35.0022 10.0243 35.5745 12.1727Z" fill="#EE9F52"/>
<path d="M34.3895 19.731C33.0683 22.0275 30.7697 22.336 29.0359 23.3031C25.2919 25.3842 21.4456 24.9888 17.5727 25.2116C14.4918 25.3891 11.4265 25.4037 8.42939 24.0719C2.9045 21.6162 -0.000498618 19.2536 0.0588428 13.6665C-0.258327 16.9913 0.877345 19.7151 0.877345 19.7151C0.877345 19.7151 2.63371 23.9029 5.92887 25.0071C5.92887 25.0071 15.0818 30.0739 28.911 25.8897C28.911 25.8897 33.4312 24.5799 35.0498 20.5034C35.0498 20.5034 36.1902 17.9731 35.972 14.6054C35.7451 16.5616 35.1934 18.3485 34.3895 19.731Z" fill="#D67A28"/>
<path d="M2.3385 14.0125C1.81943 11.4136 4.11192 8.7107 6.00061 7.48899C7.52166 6.50966 9.44377 6.21341 11.061 6.17302C12.2096 6.14486 15.5955 5.80577 16.7441 5.84494C18.5353 5.89758 19.085 6.00898 21.1559 6.3897C22.4252 6.74715 25.7258 5.38833 29.8913 7.81951C31.1484 8.16105 31.8632 9.16609 32.7956 11.257C33.4313 12.6831 33.3522 12.8324 33.4286 14.6515C33.4525 15.2159 33.4081 15.8378 33.1851 16.243C33.0419 16.4988 32.8441 16.6298 32.6524 16.7326C31.4928 17.3447 30.2651 17.2137 29.0544 17.1892C22.2704 17.0509 8.85036 14.6393 2.08203 13.8167" fill="#D67A28"/>
<path d="M3.44922 16.2581C4.22952 18.262 5.57869 19.2585 6.88147 19.9758C8.94887 21.1167 9.85604 20.9907 12.0155 21.222C13.6212 21.3946 15.7186 22.2589 17.3269 22.1756C18.5963 22.1095 20.6159 21.921 21.8853 21.8549C23.0448 21.7949 24.2044 21.7325 25.3591 21.4877C26.265 21.2967 27.1619 20.998 28.0582 20.6871L30.751 19.7702C31.5061 19.5131 32.2891 19.2352 32.9071 18.4163C33.5251 17.5973 33.922 16.0683 33.6117 14.8074C33.5884 14.7617 33.5596 14.7262 33.5274 14.7037C33.4952 14.6812 33.4606 14.6724 33.4262 14.6778C33.3919 14.6833 33.3586 14.7029 33.3292 14.7351C33.2997 14.7674 33.2748 14.8114 33.2563 14.8637" fill="#D67A28"/>
<path d="M17.6436 6.03091C17.6436 6.03091 21.0703 5.96235 21.0649 6.60871L20.1338 8.24786L17.6436 6.03091Z" fill="#D67A28"/>
<path d="M9.40513 7.14934C10.6056 6.83228 12.5127 6.98775 13.7125 6.65967C14.5726 6.42463 15.4047 5.92518 16.2696 5.74768C17.9748 5.40614 18.5614 6.51155 20.251 6.91063C20.251 6.91063 21.7195 7.12241 24.5167 6.89104C26.6878 6.71231 29.2913 8.33188 29.603 8.43838C30.7897 8.83975 31.8932 9.81304 32.7952 11.2539C33.4629 12.3312 34.0229 13.9679 33.6819 15.4345C33.4479 16.4419 32.8586 17.0406 32.2952 17.5155C26.7335 22.1796 20.2503 21.603 14.0795 20.926C12.907 20.8036 11.7324 20.6677 10.5742 20.3237C9.48288 20.0018 8.41951 19.4901 7.35546 18.9772L5.15983 17.9256C4.41772 17.5706 3.64424 17.1911 3.07879 16.2767C0.623283 12.3337 4.61689 9.26346 5.61 8.96599C5.61 8.96966 6.60858 7.88873 9.40513 7.14934Z" fill="#FFD423"/>
<path d="M16.9038 8.41943C12.8741 8.62754 8.82315 8.88952 5.06486 11.5019C4.72382 11.7369 3.78118 12.622 3.87804 13.2463C4.01446 14.1191 5.40727 13.6135 6.03547 13.9514C7.59335 14.2562 8.52985 14.0738 10.0939 13.9012C13.6134 13.5132 7.46034 15.3396 8.80678 16.7743C8.9432 16.9163 13.6107 15.9896 13.565 16.2553C13.535 16.4279 13.434 16.5234 13.3686 16.6593C13.196 17.0179 13.3004 17.6141 13.5159 17.892C13.7314 18.1699 14.0063 18.2164 14.2662 18.2531C16.6535 18.5898 18.9644 17.7561 21.2998 16.7951C23.1463 16.0362 22.9716 16.2724 23.6871 16.2124C26.5744 15.9676 23.8393 18.5102 24.7464 18.826C26.1065 19.2985 28.8635 16.7205 30.094 15.5795C30.5817 15.1266 31.5038 14.1485 31.3763 13.1912C31.6539 11.9132 29.3928 11.7381 27.4638 12.513C23.917 13.9379 20.2494 14.1204 16.6187 14.4852C10.986 14.4105 16.2367 11.5006 17.2401 10.5434C19.9609 8.67896 17.0948 8.64958 16.899 8.41943" fill="#FFED98"/>
<path d="M4.87503 11.6641L4.48487 11.8661L4.44531 12.7132C4.44531 12.7132 4.95074 14.2115 6.37561 14.0389C7.80049 13.8663 8.12925 13.2812 8.32569 12.9886L8.30182 12.3496L4.87503 11.6641Z" fill="#B63526"/>
<path d="M5.7542 13.4877C5.12054 13.331 4.66286 12.8757 4.51826 12.1485C4.37366 11.4214 4.61852 10.6306 5.04619 10.1446C5.47386 9.65857 6.05704 9.44923 6.62658 9.44434C7.07539 9.44434 7.55558 9.57532 7.8707 9.99888C8.22334 10.4726 8.29019 11.1851 8.32497 11.8437C8.34181 12.0149 8.33407 12.191 8.30246 12.3554C8.23722 12.5632 8.14017 12.7331 8.02281 12.8451C7.41507 13.5355 6.53177 13.7864 5.7542 13.4877" fill="#DF4926"/>
<path opacity="0.39" d="M6.41787 12.8531C6.42232 12.7936 6.41588 12.7332 6.39952 12.6808C6.38316 12.6285 6.35776 12.5871 6.32715 12.563C6.18732 12.574 5.99975 12.6291 6.13412 12.9596C6.17806 12.9878 6.22559 12.9928 6.27106 12.9739C6.31653 12.955 6.35801 12.9131 6.39058 12.8531" fill="#FBBC81"/>
<path opacity="0.39" d="M6.706 10.1673C6.66235 10.0767 6.51707 10.0608 6.45227 10.1367C6.38747 10.2126 6.41612 10.3424 6.50411 10.395C6.54869 10.4196 6.59566 10.4271 6.64196 10.417C6.68827 10.4069 6.73286 10.3794 6.77285 10.3363C6.82332 10.2689 6.79331 10.1355 6.70464 10.1453" fill="#FBBC81"/>
<path opacity="0.39" d="M6.51119 11.0089C6.43616 10.9195 6.29633 10.9759 6.267 11.1032C6.23767 11.2305 6.31543 11.3762 6.4157 11.3945C6.4606 11.4063 6.50643 11.3923 6.54662 11.3545C6.58681 11.3167 6.6193 11.257 6.63942 11.184C6.64204 11.1523 6.64007 11.12 6.63371 11.0902C6.62734 11.0603 6.6168 11.0339 6.60309 11.0134C6.58938 10.993 6.57296 10.9793 6.55543 10.9735C6.5379 10.9678 6.51985 10.9703 6.50301 10.9808" fill="#FBBC81"/>
<path opacity="0.39" d="M5.47001 10.8003C5.42704 10.6779 5.28176 10.6607 5.21628 10.7611C5.1508 10.8615 5.18013 11.0365 5.26743 11.1051C5.31217 11.1366 5.36082 11.1459 5.40825 11.1319C5.45567 11.1179 5.50011 11.0811 5.53686 11.0255C5.54948 11.0038 5.55796 10.9754 5.56109 10.9445C5.56421 10.9136 5.56183 10.8817 5.55427 10.8533C5.54672 10.825 5.53438 10.8017 5.519 10.7866C5.50363 10.7716 5.48601 10.7657 5.46865 10.7697" fill="#FBBC81"/>
<path opacity="0.39" d="M5.50126 12.1557C5.45829 12.0333 5.31301 12.0162 5.24753 12.1166C5.18205 12.2169 5.21138 12.392 5.29868 12.4606C5.34387 12.4933 5.39319 12.5032 5.44129 12.4892C5.48939 12.4751 5.53443 12.4377 5.57152 12.381C5.58414 12.3592 5.59262 12.3309 5.59575 12.3C5.59888 12.269 5.59649 12.2372 5.58894 12.2088C5.58138 12.1805 5.56904 12.1571 5.55367 12.1421C5.5383 12.1271 5.52067 12.1211 5.50331 12.1251" fill="#FBBC81"/>
<path opacity="0.39" d="M6.88203 11.8961C6.85267 11.8651 6.8179 11.8549 6.78458 11.8676C6.75126 11.8803 6.72179 11.9149 6.70196 11.9646C6.68013 12.0577 6.73743 12.1666 6.81177 12.1801C6.84482 12.1888 6.87855 12.1784 6.9081 12.1505C6.93764 12.1225 6.96148 12.0785 6.97616 12.0246C6.97817 12.0015 6.97681 11.9778 6.97221 11.9558C6.96761 11.9339 6.95992 11.9144 6.9499 11.8994C6.93987 11.8844 6.92786 11.8742 6.91501 11.87C6.90216 11.8658 6.88892 11.8676 6.87657 11.8753" fill="#FBBC81"/>
<path opacity="0.39" d="M7.76883 11.7198C7.67402 11.6072 7.49599 11.6782 7.46052 11.8422C7.42506 12.0063 7.52191 12.1862 7.6481 12.2095C7.77428 12.2327 7.90183 12.1066 7.93048 11.9438C7.93381 11.9041 7.93137 11.8635 7.92341 11.8259C7.91544 11.7884 7.90222 11.7551 7.88501 11.7294C7.86781 11.7037 7.8472 11.6864 7.82517 11.6791C7.80315 11.6719 7.78045 11.6749 7.75928 11.688" fill="#FBBC81"/>
<path opacity="0.39" d="M7.46815 10.7942C7.44738 10.7727 7.42291 10.7658 7.39947 10.7749C7.37604 10.7839 7.3553 10.8082 7.34128 10.8431C7.32559 10.9092 7.36652 10.9864 7.41904 10.9962C7.44238 11.0022 7.46619 10.9948 7.48704 10.975C7.50788 10.9552 7.52468 10.924 7.535 10.886C7.53625 10.87 7.53527 10.8537 7.53213 10.8386C7.52899 10.8235 7.52379 10.8101 7.51701 10.7995C7.51023 10.7889 7.50209 10.7815 7.49331 10.778C7.48454 10.7745 7.47542 10.775 7.46679 10.7795" fill="#FBBC81"/>
<path d="M20.0532 16.5723L19.6624 16.8514L19.6201 18.0094C19.6201 18.0094 20.1208 20.0526 21.5463 19.8016C22.9719 19.5506 23.3027 18.7476 23.4998 18.3473L23.478 17.4732L20.0532 16.5723Z" fill="#B63526"/>
<path d="M20.9249 19.0468C20.292 18.8399 19.8336 18.2168 19.6938 17.2289C19.5539 16.241 19.7981 15.1552 20.2279 14.4855C20.6576 13.8159 21.2407 13.5258 21.8103 13.5136C22.2591 13.5038 22.7386 13.6825 23.053 14.2578C23.4043 14.9018 23.4684 15.8762 23.5012 16.7735C23.5179 17.0075 23.5098 17.2451 23.4773 17.4737C23.419 17.7393 23.3219 17.9719 23.1963 18.147C22.8873 18.6182 22.5188 18.9465 22.1229 19.1033C21.727 19.2602 21.3157 19.2407 20.9249 19.0468" fill="#DF4926"/>
<path opacity="0.39" d="M21.5906 18.1801C21.5968 18.1057 21.5917 18.0297 21.5759 17.9601C21.56 17.8905 21.534 17.8299 21.5005 17.7847C21.3641 17.8006 21.1738 17.8789 21.3068 18.3294C21.3523 18.3646 21.4034 18.369 21.4506 18.3418C21.4977 18.3146 21.5378 18.2575 21.5633 18.1813" fill="#FBBC81"/>
<path opacity="0.39" d="M21.8877 14.5066C21.8447 14.3842 21.6987 14.3634 21.6333 14.4662C21.5678 14.569 21.5971 14.749 21.6844 14.8188C21.7296 14.8525 21.7791 14.8628 21.8273 14.8485C21.8755 14.8342 21.9205 14.7959 21.9573 14.738C21.97 14.7158 21.9785 14.6871 21.9817 14.6558C21.9849 14.6245 21.9826 14.5922 21.9751 14.5634C21.9676 14.5346 21.9553 14.5107 21.9399 14.495C21.9244 14.4794 21.9067 14.4727 21.889 14.476" fill="#FBBC81"/>
<path opacity="0.39" d="M21.691 15.6582C21.6711 15.632 21.648 15.6143 21.6236 15.6068C21.5992 15.5992 21.5742 15.6018 21.5505 15.6145C21.5267 15.6272 21.505 15.6496 21.4869 15.6799C21.4688 15.7102 21.4548 15.7476 21.4461 15.7892C21.4405 15.8329 21.4399 15.8782 21.4444 15.9223C21.4488 15.9664 21.4583 16.0083 21.4722 16.0456C21.486 16.0829 21.504 16.1147 21.525 16.139C21.546 16.1633 21.5695 16.1797 21.5942 16.1871C21.6448 16.1943 21.6951 16.1689 21.7363 16.1156C21.7774 16.0622 21.8066 15.9842 21.8186 15.8957C21.8377 15.7451 21.7585 15.5419 21.6821 15.6203" fill="#FBBC81"/>
<path opacity="0.39" d="M20.6503 15.3833C20.6377 15.345 20.6203 15.3126 20.5995 15.2885C20.5787 15.2644 20.5551 15.2493 20.5305 15.2444C20.5058 15.2395 20.4809 15.245 20.4577 15.2604C20.4345 15.2758 20.4136 15.3007 20.3966 15.3331C20.3818 15.3692 20.3713 15.4103 20.3658 15.454C20.3603 15.4977 20.3599 15.543 20.3645 15.587C20.3692 15.631 20.3789 15.6728 20.393 15.7098C20.4071 15.7468 20.4252 15.7781 20.4464 15.8019C20.4917 15.8459 20.5443 15.8589 20.5945 15.8384C20.6447 15.8179 20.689 15.7654 20.7192 15.6905C20.7704 15.5681 20.7411 15.3233 20.6551 15.3429" fill="#FBBC81"/>
<path opacity="0.39" d="M20.6774 17.2356C20.6649 17.1972 20.6475 17.1647 20.6267 17.1405C20.606 17.1162 20.5823 17.101 20.5577 17.096C20.5331 17.0911 20.5082 17.0964 20.4849 17.1117C20.4616 17.127 20.4407 17.1518 20.4237 17.1842C20.409 17.2204 20.3986 17.2617 20.3931 17.3054C20.3876 17.3492 20.3872 17.3945 20.3919 17.4385C20.3966 17.4826 20.4062 17.5245 20.4202 17.5616C20.4343 17.5987 20.4524 17.6302 20.4735 17.6542C20.5188 17.698 20.5714 17.7108 20.6215 17.6903C20.6717 17.6698 20.716 17.6175 20.7463 17.5428C20.7975 17.4204 20.7681 17.1756 20.6822 17.1952" fill="#FBBC81"/>
<path opacity="0.39" d="M22.0598 16.8735C22.0451 16.854 22.028 16.8409 22.01 16.8352C21.992 16.8295 21.9735 16.8315 21.956 16.8409C21.9384 16.8502 21.9224 16.8668 21.909 16.8892C21.8957 16.9117 21.8854 16.9394 21.879 16.9702C21.8752 17.0023 21.875 17.0355 21.8784 17.0677C21.8818 17.1 21.8889 17.1307 21.899 17.158C21.9092 17.1853 21.9224 17.2086 21.9377 17.2266C21.953 17.2446 21.9702 17.2569 21.9882 17.2628C22.0254 17.2681 22.0625 17.2495 22.0927 17.2103C22.123 17.171 22.1444 17.1136 22.1532 17.0485C22.1676 16.9371 22.1089 16.7878 22.0543 16.8453" fill="#FBBC81"/>
<path opacity="0.39" d="M22.9479 16.6177C22.9226 16.5854 22.8936 16.5638 22.863 16.5546C22.8323 16.5454 22.801 16.5489 22.7712 16.5647C22.7414 16.5805 22.714 16.6082 22.6911 16.6458C22.6682 16.6834 22.6504 16.7299 22.6389 16.7817C22.6317 16.8368 22.6309 16.894 22.6365 16.9498C22.6421 17.0055 22.654 17.0586 22.6716 17.1056C22.6891 17.1527 22.7118 17.1928 22.7384 17.2234C22.7649 17.2541 22.7947 17.2746 22.8258 17.2836C22.8896 17.2927 22.953 17.2607 23.0047 17.1934C23.0565 17.1261 23.0932 17.0279 23.1082 16.9164C23.1335 16.7266 23.0325 16.4708 22.9384 16.5699" fill="#FBBC81"/>
<path opacity="0.39" d="M22.6486 15.3618C22.6382 15.348 22.6262 15.3387 22.6135 15.3347C22.6007 15.3308 22.5877 15.3321 22.5753 15.3388C22.5629 15.3454 22.5516 15.3572 22.5422 15.3731C22.5328 15.3889 22.5255 15.4085 22.5211 15.4303C22.5181 15.453 22.5178 15.4766 22.5201 15.4996C22.5224 15.5225 22.5273 15.5444 22.5346 15.5638C22.5418 15.5832 22.5512 15.5998 22.5621 15.6124C22.573 15.625 22.5853 15.6334 22.5981 15.6372C22.6246 15.6409 22.6508 15.6277 22.6723 15.5999C22.6938 15.5721 22.7091 15.5315 22.7155 15.4854C22.7257 15.407 22.6841 15.3005 22.6473 15.3422" fill="#FBBC81"/>
<path d="M14.8876 7.79223C14.7355 7.41764 14.5214 7.34052 14.2997 7.35276C14.0763 7.38126 13.867 7.55904 13.7131 7.85099C13.5951 8.06033 13.5951 8.39085 13.6108 8.68587C13.634 9.13147 13.8543 9.37507 14.0957 9.48892C14.2688 9.58501 14.454 9.58501 14.6271 9.48892C14.7237 9.44339 14.8121 9.3539 14.8838 9.22909C14.9555 9.10427 15.008 8.94837 15.0363 8.77646C15.0786 8.43125 15.0159 7.93546 14.8876 7.79223ZM14.4968 8.90622C14.429 8.94883 14.3572 8.96753 14.2854 8.96131C14.219 8.9409 14.1546 8.90294 14.0944 8.84868C14.0537 8.82476 14.0176 8.7809 13.9901 8.72206C13.9626 8.66321 13.9449 8.59173 13.9389 8.51571C13.9332 8.43833 13.9406 8.35971 13.9601 8.28992C13.9795 8.22012 14.0101 8.16234 14.048 8.12398C14.1389 8.04343 14.2355 7.98576 14.3352 7.9526C14.3823 7.93441 14.4315 7.94274 14.4759 7.97647C14.5203 8.01021 14.5579 8.0677 14.5834 8.14112C14.6031 8.18941 14.617 8.2444 14.6244 8.30271C14.643 8.35564 14.6545 8.41561 14.658 8.47788C14.6614 8.54016 14.6568 8.60304 14.6445 8.66156C14.6321 8.72008 14.6123 8.77264 14.5867 8.8151C14.5611 8.85756 14.5303 8.88875 14.4968 8.90622V8.90622Z" fill="#322D59"/>
<path d="M27.5435 17.4158C27.3914 17.0412 27.1779 16.9641 26.9562 16.9763C26.7328 17.0044 26.5234 17.1823 26.3696 17.4745C26.2516 17.6839 26.2516 18.0144 26.2666 18.3094C26.2898 18.755 26.5108 18.9986 26.7523 19.1112C26.925 19.2079 27.1101 19.2079 27.2829 19.1112C27.3795 19.0658 27.4678 18.9765 27.5395 18.8519C27.6112 18.7273 27.6638 18.5717 27.6922 18.4C27.7351 18.0548 27.6724 17.559 27.5435 17.4158ZM27.1526 18.5298C27.0848 18.5724 27.013 18.5911 26.9412 18.5848C26.875 18.5646 26.8108 18.5267 26.7509 18.4722C26.71 18.4488 26.6735 18.4052 26.6458 18.3463C26.618 18.2874 26.6001 18.2156 26.594 18.1392C26.5884 18.062 26.5958 17.9835 26.6151 17.9138C26.6344 17.8441 26.6648 17.7862 26.7025 17.7475C26.7936 17.667 26.8904 17.6093 26.9903 17.5761C27.0374 17.5579 27.0864 17.5662 27.1308 17.5999C27.1751 17.6337 27.2125 17.6912 27.2379 17.7647C27.2578 17.8129 27.2719 17.8679 27.2795 17.9262C27.298 17.9792 27.3094 18.039 27.3129 18.1012C27.3163 18.1633 27.3117 18.226 27.2994 18.2844C27.2872 18.3429 27.2675 18.3954 27.2421 18.438C27.2166 18.4805 27.186 18.5119 27.1526 18.5298Z" fill="#322D59"/>
<path d="M8.83295 16.4588C8.68085 16.083 8.46667 16.0071 8.245 16.0181C8.02154 16.047 7.81224 16.2252 7.6584 16.5175C7.5404 16.7257 7.5404 17.0562 7.55609 17.3524C7.57928 17.798 7.79959 18.0416 8.04105 18.1542C8.21389 18.2503 8.39888 18.2503 8.57172 18.1542C8.66838 18.1089 8.75687 18.0195 8.82858 17.8947C8.90029 17.7698 8.95279 17.6138 8.98097 17.4418C9.02394 17.0966 8.96118 16.6008 8.83295 16.4588ZM8.44144 17.5728C8.37344 17.6143 8.30176 17.633 8.22999 17.6279C8.16381 17.6073 8.09969 17.5694 8.03969 17.5152C7.99902 17.491 7.96293 17.4469 7.93546 17.3878C7.90799 17.3288 7.89023 17.2572 7.88417 17.181C7.87856 17.1037 7.88595 17.025 7.90539 16.9552C7.92483 16.8855 7.95545 16.8277 7.99331 16.7893C8.0843 16.7093 8.18089 16.6517 8.28047 16.6179C8.3277 16.5999 8.37689 16.6084 8.42132 16.6423C8.46576 16.6763 8.50327 16.734 8.52875 16.8077C8.54825 16.8556 8.56217 16.9102 8.56967 16.968C8.58812 17.0212 8.59948 17.0813 8.60285 17.1437C8.60622 17.206 8.60151 17.2689 8.5891 17.3275C8.57668 17.386 8.5569 17.4386 8.53128 17.4812C8.50567 17.5237 8.47492 17.5551 8.44144 17.5728V17.5728Z" fill="#322D59"/>
<path d="M16.0448 15.8636C15.8927 15.4878 15.6785 15.4119 15.4568 15.4229C15.2334 15.4521 15.0241 15.6302 14.8702 15.9223C14.7529 16.1317 14.7522 16.461 14.7679 16.7572C14.7911 17.2028 15.0114 17.4464 15.2535 17.559C15.4264 17.6551 15.6114 17.6551 15.7842 17.559C15.8808 17.5134 15.9692 17.4239 16.0409 17.2991C16.1125 17.1743 16.1651 17.0184 16.1935 16.8466C16.2357 16.5014 16.173 16.0068 16.0448 15.8636ZM15.6539 16.9776C15.586 17.0196 15.5143 17.0383 15.4425 17.0326C15.3761 17.0122 15.3117 16.9743 15.2515 16.92C15.2107 16.896 15.1746 16.852 15.1471 16.7929C15.1196 16.7338 15.1019 16.6621 15.096 16.5858C15.0904 16.5084 15.0977 16.4298 15.1172 16.36C15.1366 16.2902 15.1673 16.2325 15.2051 16.1941C15.296 16.1139 15.3926 16.0567 15.4923 16.0239C15.5561 16.0066 15.6211 16.0328 15.6747 16.0974C15.7282 16.162 15.7663 16.2603 15.7815 16.3728C15.8001 16.4259 15.8116 16.4859 15.8151 16.5483C15.8186 16.6106 15.8139 16.6736 15.8016 16.7322C15.7892 16.7908 15.7694 16.8434 15.7438 16.886C15.7182 16.9286 15.6874 16.9599 15.6539 16.9776V16.9776Z" fill="#322D59"/>
<path d="M7.79754 11.0555C7.79754 11.0555 7.47764 8.82757 9.44818 9.31478C9.44818 9.31478 9.14329 12.254 7.79754 11.0555Z" fill="#3CB44A"/>
<path d="M7.79785 11.0552C8.3658 10.5309 8.91688 9.94973 9.4485 9.31445C9.4485 9.31445 9.14361 12.2537 7.79785 11.0552Z" fill="#318C43"/>
<path d="M16.0488 19.8897C16.0488 19.8897 15.634 17.7119 17.6175 17.931C17.6196 17.9249 17.4416 20.8984 16.0488 19.8897Z" fill="#3CB44A"/>
<path d="M16.0488 19.8898C16.5917 19.2898 17.1154 18.6359 17.6176 17.9312C17.6176 17.9312 17.4416 20.8985 16.0488 19.8898Z" fill="#318C43"/>
<path d="M30.4453 15.4027C30.4453 15.4027 30.9869 13.3217 32.3381 15.934C32.3381 15.9352 31.0606 17.8584 30.4453 15.4027Z" fill="#3CB44A"/>
<path d="M30.4453 15.4033C31.0702 15.6437 31.7021 15.8211 32.3381 15.9346C32.3381 15.9346 31.0606 17.859 30.4453 15.4033Z" fill="#318C43"/>
<path d="M24.5284 18.8409C24.5284 18.8409 23.7781 20.7102 22.7236 17.6915C22.7236 17.6915 24.1772 16.2237 24.5284 18.8409Z" fill="#3CB44A"/>
<path d="M24.5284 18.8409C23.9394 18.3971 23.3368 18.0134 22.7236 17.6915C22.7236 17.6915 24.1772 16.2237 24.5284 18.8409Z" fill="#318C43"/>
<path d="M11.1833 14.5894L10.7836 14.6383L10.7502 15.8086C10.7502 15.8086 10.6254 17.4392 11.948 17.8248C13.2705 18.2104 13.9942 17.6669 14.3353 16.6949L14.3905 15.1133L11.1833 14.5894Z" fill="#B63526"/>
<path d="M11.5282 16.756C10.9969 16.3508 10.6975 15.7094 10.7452 14.9198C10.7929 14.1302 11.2056 13.4324 11.709 13.1105C12.2124 12.7885 12.7874 12.8081 13.2996 13.0272C13.7041 13.1986 14.1024 13.523 14.2825 14.0727C14.483 14.6847 14.3691 15.4315 14.2395 16.1072C14.2114 16.2925 14.1619 16.4652 14.0942 16.614C13.9892 16.7926 13.862 16.9239 13.7232 16.9972C13.0084 17.4538 12.1544 17.3583 11.5282 16.7523" fill="#DF4926"/>
<path opacity="0.39" d="M12.2775 16.3842C12.2962 16.3358 12.3055 16.2779 12.3042 16.2191C12.3028 16.1604 12.2908 16.104 12.27 16.0586C12.1418 16.0145 11.9597 15.9974 11.9972 16.383C12.0353 16.428 12.0801 16.4514 12.1257 16.4501C12.1713 16.4488 12.2157 16.4228 12.253 16.3756" fill="#FBBC81"/>
<path opacity="0.39" d="M13.1939 13.7947C13.1768 13.6858 13.0499 13.6135 12.9729 13.6637C12.9564 13.6715 12.9416 13.688 12.9304 13.7113C12.9193 13.7345 12.9124 13.7633 12.9106 13.7937C12.9088 13.8242 12.9123 13.8549 12.9205 13.8817C12.9287 13.9086 12.9412 13.9303 12.9565 13.9441C12.9943 13.9866 13.037 14.0129 13.0814 14.021C13.1257 14.0291 13.1705 14.0186 13.2123 13.9906C13.2744 13.9416 13.2805 13.7959 13.2 13.7727" fill="#FBBC81"/>
<path opacity="0.39" d="M12.8151 14.5645C12.7694 14.4421 12.6302 14.4421 12.5729 14.5645C12.5603 14.593 12.5517 14.6268 12.548 14.6627C12.5443 14.6986 12.5455 14.7356 12.5517 14.7704C12.5578 14.8052 12.5686 14.8368 12.5831 14.8624C12.5977 14.888 12.6155 14.9067 12.635 14.917C12.6791 14.9434 12.7266 14.9458 12.7715 14.924C12.8163 14.9023 12.8567 14.8572 12.8874 14.7946C12.9317 14.6918 12.8962 14.5094 12.8151 14.5375" fill="#FBBC81"/>
<path opacity="0.39" d="M11.9297 13.9452C11.9208 13.8069 11.7933 13.731 11.7114 13.8069C11.6925 13.8215 11.676 13.8443 11.6631 13.8731C11.6503 13.902 11.6416 13.936 11.6379 13.9723C11.6341 14.0086 11.6353 14.0459 11.6415 14.0811C11.6477 14.1163 11.6586 14.1483 11.6732 14.1741C11.7105 14.224 11.7552 14.2531 11.8017 14.2577C11.8481 14.2622 11.8943 14.2421 11.9344 14.1999C12.0026 14.1276 12.019 13.9379 11.9385 13.9183" fill="#FBBC81"/>
<path opacity="0.39" d="M11.6264 15.3237C11.6176 15.1853 11.49 15.1082 11.4082 15.1841C11.3894 15.199 11.373 15.2218 11.3602 15.2507C11.3475 15.2795 11.3389 15.3135 11.3352 15.3497C11.3314 15.3858 11.3326 15.4231 11.3387 15.4583C11.3447 15.4934 11.3555 15.5253 11.37 15.5514C11.4073 15.6013 11.452 15.6303 11.4984 15.6349C11.5449 15.6395 11.5911 15.6194 11.6312 15.5771C11.6994 15.5048 11.7158 15.3151 11.6353 15.2955" fill="#FBBC81"/>
<path opacity="0.39" d="M12.9289 15.6076C12.905 15.5658 12.873 15.5425 12.8396 15.5425C12.8062 15.5425 12.7742 15.5658 12.7502 15.6076C12.7409 15.6287 12.7346 15.6536 12.7319 15.6801C12.7293 15.7066 12.7303 15.7339 12.7348 15.7595C12.7394 15.7852 12.7475 15.8084 12.7582 15.8272C12.769 15.8459 12.7822 15.8596 12.7966 15.8671C12.8291 15.8862 12.8641 15.8877 12.8971 15.8714C12.9301 15.8551 12.9597 15.8216 12.9821 15.7753C13.0149 15.6994 12.989 15.5659 12.9289 15.5855" fill="#FBBC81"/>
<path opacity="0.39" d="M13.7705 15.7741C13.7125 15.6223 13.5372 15.626 13.4649 15.7741C13.4489 15.8101 13.438 15.8526 13.4333 15.8979C13.4286 15.9433 13.4302 15.99 13.438 16.0339C13.4457 16.0778 13.4594 16.1177 13.4778 16.1499C13.4962 16.1821 13.5187 16.2056 13.5433 16.2185C13.5991 16.2513 13.6591 16.2539 13.7157 16.2261C13.7724 16.1982 13.8232 16.1411 13.8619 16.0618C13.9178 15.9308 13.8728 15.7019 13.7705 15.7374" fill="#FBBC81"/>
<path opacity="0.39" d="M13.7246 14.729C13.7076 14.6996 13.6848 14.6831 13.6612 14.6831C13.6375 14.6831 13.6148 14.6996 13.5977 14.729C13.5919 14.7444 13.5881 14.762 13.5866 14.7803C13.5852 14.7987 13.586 14.8175 13.5892 14.8352C13.5923 14.8529 13.5977 14.869 13.6049 14.8825C13.612 14.8959 13.6208 14.9062 13.6305 14.9127C13.6535 14.9265 13.6783 14.9276 13.7018 14.9161C13.7252 14.9045 13.7462 14.8808 13.7621 14.8478C13.7853 14.7939 13.7669 14.6997 13.7246 14.7131" fill="#FBBC81"/>
<path d="M11.5277 18.3305C11.5277 18.3305 10.6614 20.0272 9.81152 16.8052C9.81425 16.8052 11.3524 15.657 11.5277 18.3305Z" fill="#3CB44A"/>
<path d="M11.5278 18.3305C10.9731 17.7648 10.4011 17.2555 9.81445 16.8052C9.81445 16.8052 11.3526 15.657 11.5278 18.3305Z" fill="#318C43"/>
<path d="M11.5201 10.6414C11.3679 10.2656 11.1538 10.1897 10.9328 10.2007C10.7091 10.2296 10.4996 10.4078 10.3455 10.7002C10.2282 10.9083 10.2282 11.2388 10.2432 11.535C10.2664 11.9806 10.4867 12.2242 10.7288 12.3369C10.9017 12.4329 11.0867 12.4329 11.2595 12.3369C11.3561 12.2912 11.4445 12.2017 11.5161 12.0769C11.5878 11.9521 11.6404 11.7963 11.6688 11.6244C11.7104 11.2841 11.6476 10.7834 11.5201 10.6414ZM11.1292 11.7554C11.0612 11.797 10.9895 11.8153 10.9178 11.8092C10.8513 11.7898 10.7869 11.7522 10.7268 11.6979C10.6861 11.6736 10.65 11.6295 10.6226 11.5704C10.5951 11.5114 10.5773 11.4398 10.5713 11.3637C10.5658 11.2863 10.5733 11.2078 10.5927 11.1381C10.6122 11.0684 10.6427 11.0105 10.6804 10.9719C10.7714 10.8919 10.868 10.8343 10.9676 10.8005C11.0148 10.7825 11.064 10.791 11.1084 10.8249C11.1529 10.8589 11.1904 10.9166 11.2158 10.9903C11.2358 11.0378 11.2497 11.0925 11.2568 11.1506C11.2754 11.2038 11.2868 11.2639 11.2903 11.3263C11.2937 11.3887 11.2891 11.4517 11.2766 11.5104C11.2642 11.569 11.2443 11.6216 11.2186 11.6642C11.1929 11.7067 11.1621 11.7379 11.1285 11.7554H11.1292Z" fill="#322D59"/>
<path d="M14.3848 10.9294C14.3848 10.9294 14.8841 9.06873 15.9958 11.2465C15.9931 11.2465 14.867 13.024 14.3848 10.9294Z" fill="#3CB44A"/>
<path d="M14.3848 10.9292C14.9179 11.0913 15.4558 11.1972 15.9958 11.2463C15.9958 11.2463 14.867 13.0237 14.3848 10.9292Z" fill="#318C43"/>
<path d="M18.2939 16.0931C18.2939 16.0931 18.5347 16.7052 18.56 17.048L18.8028 16.9023L18.5675 15.1016L18.2939 16.0931Z" fill="#A28D72"/>
<path d="M18.1083 16.9157L17.71 17.0382C17.71 17.0382 17.0279 16.4102 17.4167 14.902C17.8054 13.3938 18.6355 13.7121 18.7269 13.7121C18.905 13.7121 19.2958 14.241 19.2296 14.924C19.1635 15.6071 18.1499 15.2497 18.1499 15.2497L18.1083 16.9157Z" fill="#9A8266"/>
<path d="M17.9525 14.4807C17.8484 14.6381 17.7629 14.8313 17.7009 15.0489C17.639 15.2664 17.6018 15.504 17.5917 15.7477C17.582 15.914 17.5909 16.0821 17.618 16.2421C17.645 16.4021 17.6897 16.5507 17.7493 16.6792C17.8111 16.8046 17.8937 16.8909 17.985 16.9253C18.0763 16.9597 18.1714 16.9404 18.256 16.8702C18.4191 16.7111 18.4791 16.2581 18.3488 16.0231C18.3488 15.9141 18.4225 15.8456 18.4811 15.8725C18.5398 15.8995 18.447 15.7832 18.4811 15.8725C18.5759 16.1174 18.7758 16.607 18.8038 16.902C18.98 16.7098 19.1349 16.4608 19.2608 16.1675L18.8822 15.4845C18.9177 15.362 19.0111 15.3804 19.0827 15.3449C19.2635 15.2555 19.3037 14.7732 19.1823 14.5162C19.0609 14.2591 18.7649 13.9286 18.5794 13.9775C18.3938 14.0265 18.136 14.0999 17.9525 14.4782" fill="#D7CBB5"/>
<path d="M11.708 9.59814C11.708 9.59814 11.4611 10.198 11.2852 10.3498L11.4379 10.717L12.3192 9.75239L11.708 9.59814Z" fill="#A28D72"/>
<path d="M11.214 9.5387L11.0244 8.8997C11.0244 8.8997 11.1438 7.54332 12.0653 7.73184C12.9868 7.92036 13.0775 9.43343 13.1055 9.5889C13.1607 9.89249 13.0038 10.7237 12.6212 10.8241C12.2385 10.9245 12.111 9.08821 12.111 9.08821L11.214 9.5387Z" fill="#9A8266"/>
<path d="M12.4566 8.5114C12.3405 8.38314 12.2113 8.2978 12.0766 8.26038C11.9419 8.22296 11.8044 8.23422 11.6722 8.29351C11.581 8.32887 11.4947 8.39657 11.4183 8.49264C11.342 8.58872 11.2771 8.71122 11.2274 8.85295C11.1367 9.1443 11.1483 9.54827 11.2847 9.77596C11.4212 10.0037 11.6776 9.96448 11.7622 9.66824C11.8195 9.63396 11.8795 9.73802 11.8836 9.84574C11.8877 9.95347 11.9198 9.76005 11.8836 9.84574C11.7827 10.0906 11.5862 10.5802 11.4382 10.7186C11.5953 10.9575 11.7754 11.1429 11.9695 11.2658L12.2137 10.4089C12.2867 10.4321 12.3092 10.5961 12.3502 10.7075C12.4545 10.9867 12.7226 10.9034 12.8208 10.617C12.919 10.3305 13.0015 9.72332 12.9176 9.42218C12.8338 9.12104 12.7171 8.70482 12.4559 8.51263" fill="#D7CBB5"/>
<path d="M31.2744 13.0885C31.2744 13.0885 31.5152 13.7006 31.5411 14.0433L31.7839 13.8964L31.5486 12.0957L31.2744 13.0885Z" fill="#A28D72"/>
<path d="M31.0894 13.9082L30.6917 14.0306C30.6917 14.0306 30.0096 13.4039 30.3977 11.8945C30.7858 10.3851 31.6166 10.7046 31.708 10.7058C31.886 10.7058 32.2776 11.2334 32.2114 11.9165C32.1452 12.5996 31.1317 12.2421 31.1317 12.2421L31.0894 13.9082Z" fill="#9A8266"/>
<path d="M30.9324 11.4748C30.8285 11.6324 30.7431 11.8256 30.6812 12.0432C30.6194 12.2607 30.5824 12.4982 30.5723 12.7418C30.5624 12.908 30.5712 13.0761 30.5981 13.2361C30.6251 13.3961 30.6696 13.5448 30.7292 13.6734C30.8554 13.9182 31.0702 14.0247 31.236 13.8656C31.4017 13.7064 31.459 13.2535 31.3294 13.0172C31.3294 12.9095 31.4031 12.8397 31.4611 12.8667C31.519 12.8936 31.427 12.7773 31.4611 12.8667C31.5565 13.1115 31.7557 13.6012 31.7844 13.8962C31.9603 13.7036 32.1149 13.4546 32.2407 13.1617L31.8621 12.4786C31.8976 12.3562 31.991 12.3745 32.0627 12.339C32.2441 12.2497 32.2837 11.7674 32.1629 11.5103C32.0422 11.2532 31.7455 10.9227 31.5593 10.9717C31.3731 11.0206 31.1159 11.088 30.9324 11.4723" fill="#D7CBB5"/>
<path d="M6.13644 15.7851C6.13644 15.7851 5.88543 16.3788 5.85406 16.7252L5.61328 16.5661L5.87929 14.7788L6.13644 15.7851Z" fill="#A28D72"/>
<path d="M6.30814 16.6169L6.70375 16.7601C6.70375 16.7601 7.39538 16.1701 7.03387 14.6411C6.67237 13.1121 5.83545 13.3851 5.74405 13.3815C5.56603 13.3717 5.16633 13.8785 5.22089 14.564C5.27546 15.2495 6.29449 14.9484 6.29449 14.9484L6.30814 16.6169Z" fill="#9A8266"/>
<path d="M6.50603 14.1911C6.60777 14.3539 6.69035 14.5517 6.74892 14.7726C6.80748 14.9935 6.84086 15.2333 6.84708 15.4777C6.8542 15.6442 6.8426 15.8117 6.81296 15.97C6.78331 16.1284 6.73623 16.2744 6.67451 16.3995C6.54423 16.6443 6.3246 16.7324 6.16431 16.5635C6.00402 16.3946 5.9515 15.9429 6.08587 15.7066C6.08587 15.5989 6.01766 15.5254 5.95627 15.5487C5.89488 15.5719 5.99242 15.4618 5.95627 15.5487C5.85737 15.7935 5.64933 16.2673 5.61523 16.5611C5.44274 16.3595 5.29245 16.1027 5.17188 15.8033L5.56135 15.141C5.52792 15.0186 5.43448 15.0309 5.36286 14.9917C5.18415 14.8913 5.15209 14.4078 5.2776 14.1568C5.4031 13.9058 5.70458 13.5925 5.89147 13.6512C6.07836 13.71 6.33278 13.792 6.51013 14.1862" fill="#D7CBB5"/>
<path d="M30.8516 6.55318C31.5194 6.99388 32.595 7.30604 33.1079 8.17397C33.6359 9.06761 34.483 10.02 35.0048 10.5439C34.4182 9.19737 33.6325 8.12133 32.7751 7.27299C32.2192 6.72334 31.7363 5.8297 29.2344 4.83936C29.5427 4.97156 30.5494 6.35119 30.8516 6.55318Z" fill="#D67A28"/>
<path d="M2.74268 7.85612C3.22491 7.2575 3.68532 6.92576 4.24736 6.64175C4.99765 6.26471 5.67155 5.74811 6.39797 5.27436C7.63187 4.47009 9.18838 4.56068 10.4905 4.40154C11.3179 4.30116 12.1275 4.26933 12.9371 3.91188C13.5155 3.65481 14.0755 3.31082 14.6785 3.2998C15.5652 3.29245 16.2473 3.62053 17.1285 3.74049C17.827 3.83475 17.947 3.62542 18.6475 3.54218C19.3201 3.46261 20.762 3.51647 21.41 3.26429C14.2481 2.40004 5.97781 3.68295 2.48758 7.80715C2.03558 8.33246 1.61841 8.94852 1.24414 9.64339C1.71751 8.99703 2.24408 8.4682 2.74268 7.85612Z" fill="#D67A28"/>
<g opacity="0.4">
<path opacity="0.4" d="M12.652 23.0077C12.6609 22.9379 12.6909 23.0212 12.652 23.0077C12.6193 23.2317 12.4733 23.1106 12.5586 23.5366C12.5702 23.5929 12.5695 23.659 12.5995 23.6908C12.6398 23.7251 12.6834 23.6516 12.7032 23.5794C12.7275 23.4919 12.7404 23.3957 12.741 23.2979C12.7416 23.2002 12.7298 23.1035 12.7066 23.0151" fill="#FDF39D"/>
<path opacity="0.4" d="M13.8635 23.073C13.824 23.0632 13.8669 23.002 13.8635 23.073C13.9911 23.111 13.9372 23.3815 14.1657 23.1954C14.1964 23.1697 14.2339 23.1648 14.2482 23.1085C14.2625 23.0522 14.2182 22.9628 14.18 22.9334C14.1289 22.899 14.0743 22.8853 14.0199 22.8934C13.9655 22.9014 13.9128 22.931 13.8656 22.98" fill="#FDF39D"/>
<path opacity="0.4" d="M15.5451 24.275C15.5308 24.2077 15.5812 24.2469 15.5451 24.275C15.5874 24.4942 15.4285 24.537 15.631 24.8076C15.6583 24.8431 15.6795 24.9043 15.7129 24.8957C15.7572 24.8835 15.7702 24.7733 15.7647 24.6998C15.7577 24.6028 15.7386 24.5098 15.7089 24.4278C15.6791 24.3458 15.6395 24.2769 15.5928 24.2261" fill="#FDF39D"/>
<path opacity="0.4" d="M16.1589 24.0583C16.1344 24.0203 16.1794 24.013 16.1589 24.0583C16.2374 24.1807 16.1323 24.3301 16.3376 24.3815C16.3649 24.3888 16.3936 24.4182 16.4154 24.3888C16.4372 24.3594 16.4317 24.2664 16.4106 24.2101C16.3841 24.1454 16.3499 24.0921 16.3105 24.054C16.2711 24.0159 16.2275 23.994 16.1828 23.9897" fill="#FDF39D"/>
<path opacity="0.4" d="M17.5443 23.0356C17.5532 22.9658 17.5832 23.049 17.5443 23.0356C17.5116 23.2596 17.3656 23.1384 17.4515 23.5644C17.4624 23.6207 17.4618 23.6868 17.4918 23.7186C17.532 23.7529 17.5757 23.6795 17.5954 23.6085C17.6196 23.5207 17.6326 23.4244 17.6333 23.3265C17.634 23.2286 17.6225 23.1317 17.5995 23.0429" fill="#FDF39D"/>
<path opacity="0.4" d="M18.7325 23.9326C18.693 23.9228 18.7366 23.8616 18.7325 23.9326C18.8601 23.9694 18.8062 24.2411 19.0354 24.0489C19.0654 24.0232 19.1036 24.0183 19.1172 23.962C19.1322 23.8873 19.0872 23.8163 19.0456 23.787C18.9945 23.7525 18.9398 23.7388 18.8855 23.7469C18.8311 23.7549 18.7784 23.7845 18.7312 23.8335" fill="#FDF39D"/>
<path opacity="0.4" d="M20.6403 23.9325C20.626 23.8664 20.6765 23.9056 20.6403 23.9325C20.6819 24.1516 20.523 24.1957 20.7263 24.465C20.7535 24.5005 20.7747 24.563 20.8081 24.5532C20.8525 24.5421 20.8654 24.4381 20.86 24.3585C20.8528 24.2615 20.8336 24.1687 20.8039 24.0867C20.7742 24.0047 20.7346 23.9357 20.6881 23.8848" fill="#FDF39D"/>
<path opacity="0.4" d="M20.9734 23.2614C20.9488 23.2235 20.9938 23.2161 20.9734 23.2614C21.0518 23.3838 20.9468 23.5332 21.1521 23.5846C21.1794 23.5919 21.2087 23.6213 21.2305 23.5919C21.2523 23.5626 21.2462 23.4695 21.2251 23.4132C21.1986 23.3484 21.1644 23.2951 21.125 23.2569C21.0856 23.2188 21.0419 23.1969 20.9972 23.1929" fill="#FDF39D"/>
<path opacity="0.4" d="M7.04429 22.0487C7.05316 21.979 7.08317 22.0622 7.04429 22.0487C7.01155 22.2728 6.86559 22.1516 6.95153 22.5776C6.96313 22.6339 6.96176 22.7 6.99177 22.7318C7.0327 22.7661 7.07567 22.6926 7.09613 22.6204C7.11953 22.5323 7.13166 22.4359 7.13166 22.3382C7.13166 22.2406 7.11953 22.1442 7.09613 22.0561" fill="#FDF39D"/>
<path opacity="0.4" d="M8.23223 22.9451C8.19335 22.9353 8.23632 22.8741 8.23223 22.9451C8.35978 22.9818 8.30657 23.2536 8.53507 23.0675C8.56508 23.0418 8.60328 23.0369 8.61692 22.9806C8.63193 22.9047 8.58759 22.8349 8.54871 22.8055C8.4978 22.7707 8.44319 22.7569 8.3889 22.7649C8.3346 22.773 8.282 22.8027 8.23496 22.852" fill="#FDF39D"/>
<path opacity="0.4" d="M9.11884 22.506C9.10451 22.4399 9.15499 22.4791 9.11884 22.506C9.16044 22.7251 9.00152 22.7692 9.20478 23.0385C9.23138 23.074 9.25321 23.1352 9.28595 23.1266C9.33096 23.1156 9.34392 23.0116 9.33847 22.9308C9.33121 22.8339 9.31202 22.7411 9.28229 22.6591C9.25256 22.5772 9.21303 22.5081 9.16658 22.457" fill="#FDF39D"/>
<path opacity="0.4" d="M10.4724 22.2727C10.4478 22.2347 10.4929 22.2274 10.4724 22.2727C10.5508 22.4012 10.4458 22.5444 10.6511 22.5958C10.6784 22.6019 10.7077 22.6313 10.7295 22.602C10.7514 22.5726 10.7459 22.4795 10.7241 22.4244C10.6977 22.3595 10.6635 22.306 10.6241 22.2678C10.5847 22.2297 10.541 22.2079 10.4963 22.2041" fill="#FDF39D"/>
<path opacity="0.4" d="M22.6892 24.0951C22.6728 24.0302 22.7246 24.0645 22.6892 24.0951C22.7383 24.3093 22.5814 24.3706 22.7928 24.6178C22.8208 24.6509 22.844 24.7097 22.8767 24.6974C22.9211 24.6815 22.9306 24.575 22.9224 24.4966C22.912 24.4008 22.8899 24.3103 22.8575 24.2317C22.8252 24.1532 22.7835 24.0885 22.7355 24.0425" fill="#FDF39D"/>
<path opacity="0.4" d="M23.2954 23.8169C23.2695 23.7814 23.3145 23.7691 23.2954 23.8169C23.3779 23.9393 23.2776 24.0911 23.4843 24.1204C23.5116 24.1204 23.5416 24.1511 23.5628 24.1204C23.5839 24.0898 23.575 23.998 23.5518 23.9429C23.5232 23.8812 23.4873 23.8316 23.4468 23.7978C23.4062 23.7639 23.3619 23.7466 23.3172 23.7471" fill="#FDF39D"/>
<path opacity="0.4" d="M24.6463 22.651C24.6531 22.5812 24.6858 22.6608 24.6463 22.651C24.621 22.8775 24.4717 22.7734 24.5706 23.1884C24.5835 23.2435 24.5849 23.3108 24.6163 23.3378C24.6477 23.3647 24.6988 23.29 24.7165 23.2154C24.7376 23.1252 24.7472 23.0278 24.7446 22.9301C24.742 22.8325 24.7273 22.7371 24.7015 22.651" fill="#FDF39D"/>
<path opacity="0.4" d="M25.8623 23.421C25.8227 23.421 25.8623 23.35 25.8623 23.421C25.9905 23.4455 25.9462 23.7221 26.1679 23.5054C26.1972 23.4773 26.2361 23.4675 26.247 23.4112C26.26 23.3341 26.2129 23.2679 26.1699 23.2435C26.1178 23.2142 26.0628 23.2061 26.0087 23.2199C25.9547 23.2337 25.903 23.2689 25.8575 23.323" fill="#FDF39D"/>
<path opacity="0.4" d="M27.7663 23.2223C27.7499 23.1574 27.8018 23.1905 27.7663 23.2223C27.8154 23.4365 27.6585 23.4965 27.87 23.745C27.8979 23.7769 27.9211 23.8368 27.9539 23.8246C27.9975 23.8075 28.0078 23.7022 27.9996 23.6238C27.9893 23.5278 27.9671 23.437 27.9348 23.3582C27.9025 23.2794 27.8608 23.2146 27.8127 23.1685" fill="#FDF39D"/>
<path opacity="0.4" d="M28.0766 22.5161C28.0507 22.4806 28.0957 22.4683 28.0766 22.5161C28.1592 22.6385 28.0589 22.7903 28.2656 22.8197C28.2929 22.8197 28.3229 22.8503 28.344 22.8197C28.3652 22.7891 28.3563 22.6972 28.3331 22.6422C28.3045 22.5804 28.2686 22.5309 28.228 22.497C28.1874 22.4631 28.1432 22.4458 28.0985 22.4463" fill="#FDF39D"/>
<path opacity="0.4" d="M0.7221 15.1603C0.730967 15.0917 0.760979 15.175 0.7221 15.1603C0.688678 15.3843 0.543393 15.2606 0.627289 15.6879C0.638203 15.7442 0.63684 15.8176 0.666851 15.8434C0.707094 15.8776 0.750746 15.8054 0.771208 15.7332C0.795754 15.646 0.809054 15.55 0.810117 15.4523C0.811179 15.3546 0.799979 15.2577 0.777349 15.1688" fill="#FDF39D"/>
<path opacity="0.4" d="M1.34339 15.1107C1.3352 15.0544 1.37476 15.0936 1.34339 15.1107C1.36862 15.2955 1.2363 15.309 1.39045 15.5587C1.41091 15.5906 1.42592 15.6444 1.4532 15.642C1.48049 15.6395 1.50572 15.5551 1.50436 15.489C1.50284 15.4087 1.49133 15.3302 1.47067 15.259C1.45002 15.1878 1.42074 15.1259 1.38499 15.0776" fill="#FDF39D"/>
<path opacity="0.4" d="M2.68893 17.0565C2.71826 17.0075 2.7169 17.1067 2.68893 17.0565C2.59207 17.2095 2.50886 16.9622 2.44679 17.4017C2.4386 17.4592 2.41473 17.518 2.43178 17.5694C2.44883 17.6208 2.51363 17.6208 2.55251 17.5817C2.59981 17.5331 2.6405 17.4663 2.67164 17.386C2.70278 17.3058 2.7236 17.2141 2.73258 17.1177" fill="#FDF39D"/>
<path opacity="0.4" d="M2.64662 19.2673C2.61729 19.2196 2.67185 19.2122 2.64662 19.2673C2.74074 19.4265 2.61114 19.5966 2.86079 19.6664C2.89421 19.6762 2.929 19.7129 2.95628 19.6774C2.98356 19.6419 2.97743 19.5268 2.95151 19.4607C2.9203 19.3812 2.87963 19.3151 2.83244 19.2673C2.78525 19.2194 2.73273 19.191 2.67867 19.1841" fill="#FDF39D"/>
<path opacity="0.4" d="M4.97308 20.9057C4.98263 20.8359 5.01196 20.9191 4.97308 20.9057C4.93965 21.1285 4.79437 21.0061 4.87827 21.4333C4.88918 21.4896 4.88782 21.5618 4.91783 21.5875C4.95875 21.623 5.0024 21.5496 5.02218 21.4786C5.04669 21.3911 5.05997 21.2949 5.06103 21.1971C5.06209 21.0992 5.05092 21.0021 5.02833 20.913" fill="#FDF39D"/>
<path opacity="0.4" d="M5.45881 20.6839C5.44994 20.6276 5.4895 20.6668 5.45881 20.6839C5.48336 20.8688 5.35172 20.8822 5.50587 21.1307C5.52633 21.1638 5.54134 21.2177 5.56862 21.2152C5.5959 21.2128 5.62046 21.1283 5.61978 21.0622C5.61818 20.9819 5.60656 20.9033 5.58578 20.8321C5.56501 20.7609 5.5356 20.699 5.49973 20.6509" fill="#FDF39D"/>
<path opacity="0.4" d="M35.1935 15.8526C35.1853 15.7841 35.1546 15.8649 35.1935 15.8526C35.2235 16.0791 35.3708 15.964 35.2794 16.3864C35.2671 16.4414 35.2671 16.5088 35.2371 16.5382C35.1962 16.5712 35.1532 16.4953 35.1341 16.4231C35.1114 16.3342 35.0999 16.2373 35.1006 16.1395C35.1013 16.0416 35.1142 15.9453 35.1382 15.8575" fill="#FDF39D"/>
<path opacity="0.4" d="M34.5745 15.7713C34.584 15.715 34.5438 15.7518 34.5745 15.7713C34.5465 15.955 34.6781 15.9745 34.5199 16.2157C34.4987 16.2475 34.4831 16.299 34.4558 16.2953C34.4285 16.2916 34.4053 16.2059 34.4074 16.1398C34.4102 16.0598 34.423 15.982 34.4449 15.9121C34.4667 15.8422 34.497 15.782 34.5335 15.7358" fill="#FDF39D"/>
<path opacity="0.4" d="M33.5648 17.7998C33.5369 17.7496 33.5362 17.8487 33.5648 17.7998C33.6596 17.9577 33.7463 17.7153 33.8015 18.1572C33.8083 18.216 33.8309 18.2797 33.8131 18.3262C33.7892 18.3947 33.7306 18.3739 33.6924 18.3323C33.6459 18.2813 33.6063 18.2123 33.5766 18.1303C33.5468 18.0484 33.5277 17.9555 33.5205 17.8585" fill="#FDF39D"/>
<path opacity="0.4" d="M33.2003 19.8525C33.2303 19.8072 33.1757 19.7962 33.2003 19.8525C33.1034 20.0068 33.2296 20.1843 32.9793 20.2406C32.9459 20.2479 32.9111 20.2834 32.8838 20.2467C32.8565 20.21 32.8654 20.0949 32.892 20.03C32.9248 19.9519 32.967 19.8878 33.0154 19.8425C33.0637 19.7972 33.1171 19.7718 33.1716 19.7681" fill="#FDF39D"/>
<path opacity="0.4" d="M30.8464 21.3642C30.8389 21.2944 30.8075 21.3752 30.8464 21.3642C30.8764 21.5894 31.0237 21.4743 30.9323 21.8967C30.9207 21.9518 30.9207 22.0191 30.89 22.0497C30.8593 22.0803 30.8068 22.0068 30.7877 21.9273C30.7648 21.8387 30.7532 21.742 30.7539 21.6443C30.7546 21.5466 30.7676 21.4504 30.7918 21.3629" fill="#FDF39D"/>
<path opacity="0.4" d="M30.3652 21.1153C30.3747 21.0602 30.3345 21.097 30.3652 21.1153C30.3372 21.299 30.4689 21.3198 30.3106 21.5597C30.2895 21.5915 30.2738 21.6442 30.2465 21.6405C30.2192 21.6368 30.1953 21.5511 30.1974 21.485C30.2004 21.405 30.2133 21.3271 30.2353 21.2572C30.2573 21.1873 30.2877 21.1271 30.3243 21.0811" fill="#FDF39D"/>
<path opacity="0.4" d="M17.977 4.60073C17.9825 4.53096 18.0159 4.60808 17.977 4.60073C17.9552 4.82965 17.8038 4.73172 17.9088 5.14304C17.9231 5.1969 17.9252 5.26545 17.9565 5.28993C17.9988 5.31809 18.0384 5.23852 18.0548 5.16752C18.0746 5.07625 18.0828 4.97815 18.0786 4.88047C18.0745 4.78279 18.0582 4.68803 18.0309 4.60318" fill="#FDF39D"/>
<path opacity="0.4" d="M19.1865 4.48015C19.147 4.48015 19.1865 4.40914 19.1865 4.48015C19.3154 4.49851 19.2745 4.77639 19.4935 4.54992C19.5221 4.51932 19.5617 4.5083 19.5705 4.45077C19.5821 4.37364 19.5344 4.30999 19.4914 4.28673C19.4389 4.2603 19.3837 4.25516 19.3299 4.27167C19.2761 4.28818 19.2251 4.32594 19.1804 4.38221" fill="#FDF39D"/>
<path opacity="0.4" d="M20.8725 5.01969C20.8548 4.95604 20.9073 4.98664 20.8725 5.01969C20.925 5.23147 20.7688 5.30002 20.9837 5.53751C21.0124 5.56811 21.0369 5.62565 21.069 5.61218C21.1126 5.59382 21.1215 5.48977 21.1119 5.40897C21.1 5.31347 21.0763 5.22395 21.0427 5.14688C21.0091 5.06981 20.9663 5.00712 20.9175 4.96338" fill="#FDF39D"/>
<path opacity="0.4" d="M21.4726 4.70984C21.446 4.67556 21.4903 4.66087 21.4726 4.70984C21.5565 4.82491 21.459 4.98405 21.6663 5.00364C21.6936 5.00364 21.7243 5.03057 21.7441 5.00364C21.7639 4.97671 21.7543 4.88122 21.7304 4.82736C21.7011 4.76652 21.6646 4.7183 21.6235 4.6863C21.5824 4.6543 21.5378 4.63933 21.4931 4.64251" fill="#FDF39D"/>
<path opacity="0.4" d="M12.1342 4.43423C12.1397 4.36445 12.1738 4.44157 12.1342 4.43423C12.1124 4.66315 11.961 4.56521 12.066 4.97653C12.0797 5.03039 12.0824 5.09895 12.1138 5.12343C12.1451 5.14791 12.1949 5.07202 12.212 5.00101C12.2315 4.90963 12.2395 4.81162 12.2353 4.71404C12.2312 4.61646 12.2151 4.52174 12.1881 4.43668" fill="#FDF39D"/>
<path opacity="0.4" d="M13.9238 5.10369C13.8843 5.10369 13.9238 5.03269 13.9238 5.10369C14.0527 5.12205 14.0118 5.39994 14.2308 5.17347C14.2594 5.14286 14.299 5.13185 14.3078 5.07431C14.3194 4.99596 14.2717 4.93353 14.2287 4.91027C14.1762 4.88384 14.121 4.87869 14.0672 4.89521C14.0134 4.91172 13.9624 4.94947 13.9177 5.00575" fill="#FDF39D"/>
<path opacity="0.4" d="M14.7855 4.53092C14.7684 4.46727 14.821 4.49787 14.7855 4.53092C14.838 4.7427 14.6818 4.81125 14.8974 5.04874C14.926 5.07934 14.9499 5.13688 14.9826 5.12341C15.0263 5.10505 15.0345 5.001 15.0249 4.92021C15.0132 4.82469 14.9897 4.73508 14.9562 4.65797C14.9227 4.58086 14.88 4.51821 14.8312 4.47461" fill="#FDF39D"/>
<path opacity="0.4" d="M16.124 4.08788C16.0974 4.05483 16.1417 4.04014 16.124 4.08788C16.2079 4.20418 16.1103 4.36332 16.3177 4.38291C16.345 4.38291 16.3757 4.40984 16.3954 4.38291C16.4152 4.35598 16.4057 4.26049 16.3818 4.20663C16.3523 4.1462 16.3157 4.09826 16.2747 4.0663C16.2336 4.03433 16.1892 4.01913 16.1444 4.02178" fill="#FDF39D"/>
<path opacity="0.4" d="M31.997 8.15111C32.0365 8.15111 31.997 8.22211 31.997 8.15111C31.8674 8.15111 31.894 7.87078 31.6873 8.13153C31.66 8.16703 31.6191 8.18416 31.615 8.24292C31.6075 8.32249 31.6587 8.37758 31.703 8.3935C31.7566 8.41118 31.8118 8.40728 31.8645 8.38209C31.9173 8.3569 31.9662 8.31105 32.0079 8.24782" fill="#FDF39D"/>
<path opacity="0.4" d="M32.5143 9.66672C32.4877 9.61285 32.543 9.61775 32.5143 9.66672C32.5962 9.84544 32.4563 9.98622 32.6991 10.1111C32.7312 10.127 32.7633 10.1711 32.7926 10.1429C32.8219 10.1148 32.824 9.99724 32.8035 9.92624C32.7778 9.83996 32.7417 9.76509 32.6978 9.70706C32.6539 9.64903 32.6033 9.60931 32.5498 9.59082" fill="#FDF39D"/>
<path opacity="0.4" d="M33.4715 9.79366C33.4852 9.72633 33.509 9.81569 33.4715 9.79366C33.4224 10.0079 33.2867 9.85364 33.3406 10.2956C33.3481 10.3543 33.3406 10.4253 33.3692 10.4584C33.4074 10.5012 33.4558 10.4388 33.4811 10.3727C33.5112 10.2913 33.5308 10.1988 33.5385 10.102C33.5462 10.0052 33.5417 9.90653 33.5254 9.81324" fill="#FDF39D"/>
<path opacity="0.4" d="M34.3372 11.274C34.3324 11.2164 34.3693 11.2642 34.3372 11.274C34.3488 11.4637 34.2172 11.4478 34.3529 11.7281C34.3706 11.7661 34.3822 11.8224 34.4095 11.8261C34.4368 11.8298 34.4675 11.7514 34.4709 11.6853C34.4747 11.6053 34.4686 11.5248 34.4529 11.4496C34.4372 11.3745 34.4123 11.3065 34.3802 11.2507" fill="#FDF39D"/>
<path opacity="0.4" d="M34.5922 14.356C34.5602 14.3683 34.5841 14.2985 34.5922 14.356C34.6959 14.3193 34.6973 14.5568 34.8433 14.2924C34.863 14.2569 34.893 14.2336 34.893 14.1847C34.893 14.1357 34.8473 14.0867 34.8105 14.0855C34.7657 14.0844 34.7213 14.1013 34.6806 14.135C34.6399 14.1687 34.6039 14.2183 34.5752 14.2801" fill="#FDF39D"/>
<path opacity="0.4" d="M3.31163 8.29691C3.27207 8.30793 3.31572 8.36791 3.31163 8.29691C3.4385 8.25651 3.37984 7.98597 3.61311 8.1745C3.64313 8.19898 3.68132 8.20388 3.69564 8.25896C3.71133 8.33486 3.667 8.40586 3.62744 8.43647C3.57664 8.47256 3.522 8.48788 3.46749 8.48132C3.41298 8.47476 3.35997 8.44647 3.31231 8.39852" fill="#FDF39D"/>
<path opacity="0.4" d="M2.65946 10.0312C2.68333 9.98591 2.6349 9.98713 2.65946 10.0312C2.58511 10.1842 2.70584 10.314 2.49098 10.4119C2.46233 10.4254 2.43368 10.4621 2.40845 10.4352C2.38321 10.4082 2.38321 10.3066 2.40231 10.2454C2.42605 10.171 2.45878 10.1071 2.49808 10.0584C2.53739 10.0097 2.58227 9.97739 2.62944 9.96387" fill="#FDF39D"/>
<path opacity="0.4" d="M1.83033 10.5175C1.81806 10.4502 1.79214 10.5383 1.83033 10.5175C1.87535 10.7354 2.01381 10.5885 1.95243 11.028C1.94424 11.0855 1.95243 11.1577 1.92105 11.1883C1.88968 11.2189 1.83511 11.1639 1.81123 11.0965C1.78244 11.0135 1.76433 10.92 1.75819 10.8228C1.75206 10.7256 1.75806 10.6272 1.77577 10.5346" fill="#FDF39D"/>
<path opacity="0.4" d="M0.939923 11.9504C0.94538 11.8929 0.907865 11.9381 0.939923 11.9504C0.924917 12.1389 1.05656 12.1303 0.916048 12.4033C0.897631 12.4401 0.885356 12.4951 0.858072 12.4976C0.830789 12.5 0.80146 12.4192 0.799414 12.3544C0.796606 12.2742 0.80392 12.1939 0.820808 12.1195C0.837697 12.0451 0.863724 11.9785 0.896951 11.9247" fill="#FDF39D"/>
<path opacity="0.4" d="M8.54034 5.71034C8.51919 5.75563 8.51442 5.67361 8.54034 5.71034C8.61332 5.56833 8.69449 5.75808 8.72382 5.38471C8.72382 5.33575 8.7436 5.28189 8.72382 5.24271C8.70404 5.20354 8.65561 5.21333 8.62287 5.2525C8.58614 5.30059 8.55587 5.36282 8.53427 5.43462C8.51267 5.50643 8.5003 5.58599 8.49805 5.66749" fill="#FDF39D"/>
<path opacity="0.4" d="M7.13736 6.37211C7.17692 6.35987 7.14554 6.44189 7.13736 6.37211C7.00981 6.40516 7.01595 6.11626 6.82974 6.4223C6.80518 6.46269 6.76699 6.48962 6.76562 6.54471C6.76562 6.62428 6.81815 6.66713 6.86316 6.66713C6.91754 6.67309 6.97197 6.65718 7.02248 6.62053C7.07299 6.58389 7.1183 6.52746 7.15509 6.45535" fill="#FDF39D"/>
<path opacity="0.4" d="M5.96087 6.89154C5.98543 6.94663 5.93086 6.93683 5.96087 6.89154C5.88448 6.70424 6.02908 6.57816 5.79035 6.42881C5.75898 6.40922 5.7276 6.36148 5.69759 6.38841C5.66758 6.41534 5.66212 6.52919 5.68054 6.60264C5.70378 6.6921 5.738 6.77096 5.78065 6.83329C5.82329 6.89562 5.87325 6.93981 5.92677 6.96254" fill="#FDF39D"/>
<path opacity="0.4" d="M5.45369 7.25219C5.4837 7.23138 5.46665 7.30606 5.45369 7.25219C5.3541 7.31707 5.33159 7.08448 5.21086 7.38562C5.19518 7.42602 5.16721 7.45785 5.1713 7.50804C5.1754 7.55823 5.22519 7.59129 5.26202 7.58272C5.30631 7.57074 5.34857 7.54124 5.38573 7.49636C5.42289 7.45147 5.45402 7.39233 5.47688 7.3232" fill="#FDF39D"/>
<path opacity="0.4" d="M11.4159 5.45639C11.452 5.48577 11.4009 5.52127 11.4159 5.45639C11.2999 5.35356 11.3954 5.12219 11.1431 5.18707C11.1103 5.19564 11.0708 5.17973 11.0503 5.22747C11.0298 5.27522 11.0551 5.38172 11.0905 5.43191C11.1336 5.49221 11.1836 5.53449 11.237 5.55567C11.2903 5.57685 11.3456 5.57639 11.3988 5.55432" fill="#FDF39D"/>
<path opacity="0.4" d="M9.42339 5.96909C9.44044 6.01806 9.3961 6.00214 9.42339 5.96909C9.36882 5.80628 9.49159 5.72426 9.30334 5.56756C9.27878 5.54675 9.25559 5.50391 9.22968 5.52105C9.20376 5.53818 9.1942 5.63122 9.20648 5.69366C9.22127 5.7696 9.24538 5.83861 9.27702 5.89561C9.30866 5.9526 9.34702 5.99612 9.38928 6.02296" fill="#FDF39D"/>
</g>
<g opacity="0.4">
<path opacity="0.4" d="M30.9306 7.76188C30.8999 7.74107 30.9408 7.70189 30.9306 7.76188C31.0308 7.83288 30.9599 8.04956 31.1652 7.9553C31.1925 7.94306 31.2259 7.95529 31.2402 7.90633C31.2546 7.85736 31.2307 7.77167 31.2 7.73372C31.1621 7.68829 31.1188 7.65942 31.0735 7.64943C31.0283 7.63944 30.9824 7.6486 30.9394 7.67619" fill="#FDF39D"/>
<path opacity="0.4" d="M29.1112 5.81953C29.0785 5.81953 29.1112 5.7571 29.1112 5.81953C29.2183 5.83667 29.1794 6.08028 29.3656 5.88442C29.3902 5.85871 29.4236 5.84891 29.4339 5.79872C29.4441 5.74853 29.4045 5.67631 29.3691 5.65427C29.3253 5.63043 29.2791 5.6251 29.234 5.63869C29.1889 5.65228 29.1462 5.68443 29.1092 5.73262" fill="#FDF39D"/>
<path opacity="0.4" d="M29.8059 7.02479C29.7923 6.96848 29.8353 6.99664 29.8059 7.02479C29.8462 7.21209 29.7145 7.26962 29.8898 7.4814C29.913 7.50956 29.9328 7.56097 29.958 7.54996C29.9833 7.53894 30.0031 7.44223 29.9963 7.37368C29.9887 7.29108 29.971 7.21257 29.9443 7.14392C29.9176 7.07528 29.8827 7.01826 29.8421 6.97705" fill="#FDF39D"/>
<path opacity="0.4" d="M22.3651 5.19569C22.3521 5.13938 22.3951 5.16754 22.3651 5.19569C22.4053 5.38299 22.2744 5.44052 22.4497 5.6523C22.4729 5.68046 22.492 5.73187 22.5179 5.72086C22.5438 5.70984 22.5629 5.61313 22.5568 5.54458C22.5491 5.46207 22.5313 5.38366 22.5046 5.31505C22.478 5.24645 22.4431 5.18936 22.4026 5.14795" fill="#FDF39D"/>
<path opacity="0.4" d="M23.4896 4.57686C23.4603 4.60747 23.4725 4.52422 23.4896 4.57686C23.5851 4.48015 23.626 4.72131 23.7235 4.36753C23.7372 4.32101 23.7624 4.27939 23.7542 4.2292C23.746 4.17901 23.6942 4.15575 23.6581 4.17656C23.6136 4.2026 23.5728 4.24594 23.5388 4.3035C23.5047 4.36106 23.4781 4.43141 23.4609 4.50953" fill="#FDF39D"/>
<path opacity="0.4" d="M24.4236 5.71155C24.3956 5.6785 24.4399 5.65646 24.4236 5.71155C24.5122 5.82295 24.4181 6.00535 24.6282 5.99923C24.6561 5.99923 24.6875 6.02004 24.7073 5.98209C24.7271 5.94414 24.7134 5.84621 24.6882 5.79602C24.6571 5.73622 24.6186 5.69018 24.5759 5.66151C24.5332 5.63283 24.4873 5.62231 24.442 5.63076" fill="#FDF39D"/>
<path opacity="0.4" d="M27.1056 5.69813C27.079 5.69813 27.1056 5.64794 27.1056 5.69813C27.1936 5.71894 27.1588 5.91726 27.3102 5.76791C27.3307 5.74832 27.3579 5.74221 27.3655 5.70181C27.373 5.66141 27.3436 5.59776 27.315 5.57939C27.2796 5.55726 27.2418 5.55016 27.2047 5.55866C27.1675 5.56716 27.132 5.59101 27.1008 5.62835" fill="#FDF39D"/>
<path opacity="0.4" d="M24.2569 4.95041C24.2303 4.95041 24.2569 4.899 24.2569 4.95041C24.3449 4.96388 24.3142 5.16464 24.4663 5.00305C24.4861 4.98224 24.5134 4.97489 24.5202 4.93327C24.527 4.89165 24.4964 4.83167 24.467 4.81086C24.4312 4.7912 24.3933 4.78683 24.3563 4.79809C24.3194 4.80936 24.2844 4.83595 24.2542 4.87574" fill="#FDF39D"/>
<path opacity="0.4" d="M26.0521 4.48839C26.0412 4.44187 26.0767 4.46636 26.0521 4.48839C26.0849 4.64264 25.9778 4.68793 26.1203 4.86421C26.1387 4.88625 26.1551 4.92909 26.1776 4.92052C26.2001 4.91196 26.2145 4.83116 26.209 4.77485C26.2027 4.70721 26.1881 4.64292 26.1663 4.58662C26.1445 4.53031 26.1159 4.48338 26.0828 4.44922" fill="#FDF39D"/>
<path opacity="0.4" d="M27.6601 6.24526C27.6431 6.24526 27.6547 6.19875 27.6601 6.24526C27.7174 6.24526 27.7236 6.43011 27.7965 6.25995C27.8068 6.23669 27.8231 6.22567 27.8218 6.18773C27.8198 6.16463 27.8142 6.14302 27.8056 6.12545C27.7971 6.10788 27.7859 6.09508 27.7734 6.08857C27.7495 6.07596 27.7239 6.07831 27.7008 6.09521C27.6778 6.11212 27.6586 6.14258 27.6465 6.18161" fill="#FDF39D"/>
<path opacity="0.4" d="M30.8225 6.91716C30.8 6.91716 30.8225 6.87554 30.8225 6.91716C30.8962 6.90614 30.8859 7.07874 30.9998 6.90736C31.0149 6.8841 31.0367 6.87063 31.0394 6.83513C31.0421 6.79963 31.0121 6.75801 30.9869 6.75189C30.9555 6.74482 30.9237 6.75087 30.8939 6.76956C30.8641 6.78824 30.8371 6.81907 30.815 6.85962" fill="#FDF39D"/>
</g>
<path d="M17.8379 8.1927C19.7362 8.04825 20.5403 7.99071 21.9986 8.17556C22.1739 8.19759 22.766 8.06539 23.1104 8.78764C23.2844 9.15489 23.1186 9.73147 22.9058 10.0265C22.693 10.3215 22.4284 10.5039 22.2722 10.8907C23.8907 11.5383 25.6955 9.72657 27.1832 11.0376C27.3196 11.1601 27.4669 11.3559 27.4601 11.6289C27.4512 11.9962 27.1927 12.1345 26.9901 12.1724C24.7165 12.6066 22.4374 12.9249 20.1529 13.1273C19.9135 13.1481 19.5841 13.0183 19.595 12.5887C19.6011 12.3438 19.7266 12.1761 19.8412 12.0464C20.2332 11.6043 20.6436 11.2175 21.069 10.8895C21.028 10.6129 20.8282 10.5504 20.6693 10.5455C19.6671 10.5139 18.6651 10.6261 17.6729 10.881" fill="#FFED98"/>
<path d="M26.5561 13.5903L26.1659 13.818L26.125 14.768C26.125 14.768 26.6291 16.4451 28.0539 16.2468C29.4788 16.0484 29.8089 15.3898 30.0054 15.0642L29.9822 14.3469L26.5561 13.5903Z" fill="#B63526"/>
<path d="M27.4319 15.6246C26.7982 15.452 26.3405 14.9379 26.1973 14.1275C26.054 13.3171 26.2989 12.4259 26.7279 11.8799C27.157 11.3339 27.7395 11.0977 28.3083 11.0903C28.7578 11.0903 29.2373 11.2336 29.5525 11.7024C29.9044 12.2312 29.9706 13.0306 30.0047 13.7676C30.0213 13.9596 30.0134 14.156 29.9815 14.3417C29.919 14.5689 29.8221 14.7598 29.7018 14.8926C29.0927 15.6687 28.2094 15.9515 27.4319 15.6197" fill="#DF4926"/>
<path opacity="0.39" d="M28.0949 14.9174C28.0999 14.853 28.094 14.7874 28.0777 14.7293C28.0615 14.6711 28.0359 14.6232 28.0042 14.5918C27.8677 14.6053 27.6774 14.6677 27.8111 15.0374C27.8556 15.0682 27.9044 15.0729 27.9504 15.0509C27.9965 15.029 28.0375 14.9814 28.0676 14.915" fill="#FBBC81"/>
<path opacity="0.39" d="M28.3877 11.9057C28.3447 11.8041 28.1987 11.7833 28.1339 11.8714C28.0691 11.9596 28.0978 12.104 28.1851 12.1615C28.2303 12.1897 28.2785 12.1984 28.3259 12.1869C28.3733 12.1754 28.4185 12.1441 28.4579 12.0954C28.5084 12.0183 28.4784 11.869 28.3897 11.8812" fill="#FBBC81"/>
<path opacity="0.39" d="M28.1928 12.8494C28.1729 12.8268 28.1508 12.8115 28.1276 12.8046C28.1044 12.7976 28.0807 12.7991 28.0579 12.8089C28.0351 12.8188 28.0136 12.8367 27.9947 12.8618C27.9758 12.8868 27.9598 12.9184 27.9479 12.9547C27.9179 13.0967 27.9963 13.2607 28.0966 13.2815C28.1433 13.2923 28.1907 13.2748 28.2312 13.2317C28.2717 13.1887 28.3031 13.1227 28.3203 13.044C28.3401 12.9216 28.2603 12.7539 28.1839 12.8175" fill="#FBBC81"/>
<path opacity="0.39" d="M27.1515 12.6195C27.1085 12.4836 26.9632 12.4628 26.8977 12.5767C26.8838 12.606 26.874 12.6408 26.869 12.6782C26.864 12.7157 26.864 12.7547 26.869 12.7922C26.874 12.8296 26.8838 12.8644 26.8977 12.8938C26.9116 12.9231 26.9291 12.9462 26.9489 12.9611C26.994 12.9979 27.0443 13.0091 27.0931 12.9932C27.1419 12.9772 27.1868 12.9348 27.2217 12.8717C27.2722 12.7689 27.2429 12.5693 27.1535 12.5852" fill="#FBBC81"/>
<path opacity="0.39" d="M27.1819 14.1377C27.1389 14.003 26.9929 13.9822 26.9275 14.0948C26.9134 14.1242 26.9035 14.159 26.8984 14.1966C26.8933 14.2342 26.8933 14.2734 26.8982 14.311C26.9032 14.3486 26.9131 14.3836 26.9271 14.4131C26.9411 14.4425 26.9587 14.4656 26.9786 14.4804C27.0233 14.5158 27.0729 14.5261 27.121 14.5102C27.169 14.4943 27.2133 14.4527 27.248 14.3911C27.2985 14.2882 27.2692 14.0887 27.1832 14.1046" fill="#FBBC81"/>
<path opacity="0.39" d="M28.5627 13.8545C28.5481 13.8379 28.5318 13.8267 28.5148 13.8215C28.4978 13.8164 28.4803 13.8175 28.4635 13.8247C28.4467 13.8319 28.4309 13.8451 28.417 13.8634C28.4031 13.8818 28.3914 13.905 28.3826 13.9317C28.3608 14.0369 28.4187 14.1581 28.4924 14.1765C28.5267 14.1843 28.5616 14.1713 28.5913 14.1396C28.6211 14.1079 28.6442 14.0593 28.6568 14.0014C28.6711 13.9108 28.6125 13.7872 28.5572 13.8349" fill="#FBBC81"/>
<path opacity="0.39" d="M29.4505 13.6425C29.3557 13.5201 29.1777 13.5972 29.1422 13.776C29.1067 13.9547 29.2029 14.1616 29.3298 14.1873C29.3886 14.2009 29.4482 14.179 29.4992 14.1249C29.5503 14.0708 29.5898 13.9876 29.6115 13.8886C29.636 13.7319 29.5351 13.5213 29.441 13.6021" fill="#FBBC81"/>
<path opacity="0.39" d="M29.1495 12.6114C29.1392 12.5997 29.1276 12.5918 29.1155 12.5882C29.1035 12.5846 29.0911 12.5854 29.0792 12.5905C29.0673 12.5957 29.0561 12.605 29.0463 12.6181C29.0365 12.6311 29.0282 12.6476 29.0219 12.6665C29.0063 12.7399 29.0472 12.8256 29.0997 12.8367C29.124 12.8423 29.1486 12.8333 29.1697 12.8112C29.1908 12.789 29.2072 12.7549 29.2163 12.7142C29.2259 12.6494 29.1843 12.5624 29.1481 12.5918" fill="#FBBC81"/>
<path d="M24.915 13.6101C24.7629 13.2355 24.5487 13.1584 24.327 13.1706C24.1036 13.1991 23.8943 13.3769 23.7404 13.6689C23.6224 13.8782 23.6224 14.2075 23.6381 14.5037C23.6613 14.9493 23.8816 15.1929 24.1231 15.3056C24.2959 15.4022 24.481 15.4022 24.6537 15.3056C24.7503 15.2604 24.8388 15.1711 24.9105 15.0465C24.9822 14.9219 25.0347 14.7661 25.063 14.5943C25.106 14.2503 25.0432 13.7546 24.915 13.6101ZM24.5235 14.7241C24.4556 14.7667 24.3838 14.7854 24.312 14.7792C24.2458 14.7587 24.1817 14.7207 24.1217 14.6666C24.0811 14.6426 24.045 14.5988 24.0175 14.5399C23.99 14.4811 23.9722 14.4096 23.9662 14.3336C23.9606 14.2562 23.968 14.1776 23.9874 14.1078C24.0069 14.038 24.0375 13.9802 24.0753 13.9419C24.1662 13.8611 24.2628 13.8034 24.3625 13.7705C24.4097 13.7523 24.4588 13.7606 24.5032 13.7944C24.5477 13.8281 24.5852 13.8856 24.6108 13.959C24.6303 14.007 24.6442 14.0615 24.6517 14.1194C24.6703 14.1726 24.6818 14.2328 24.6852 14.2953C24.6886 14.3578 24.684 14.4209 24.6715 14.4796C24.6591 14.5383 24.6393 14.591 24.6136 14.6337C24.5879 14.6763 24.5571 14.7077 24.5235 14.7253V14.7241Z" fill="#322D59"/>
<path d="M27.8544 9.44825C27.8714 9.06264 27.7527 8.80924 27.6006 8.6048C27.4394 8.40836 27.2445 8.32155 27.0509 8.35997C26.9063 8.38201 26.8019 8.59256 26.718 8.79577C26.5932 9.10304 26.6634 9.47028 26.7862 9.7751C26.8732 10.0047 26.9969 10.1818 27.1409 10.2831C27.2204 10.3455 27.3072 10.3721 27.3937 10.3606C27.4803 10.3491 27.5639 10.2998 27.6375 10.217C27.78 10.042 27.8946 9.66493 27.8544 9.44825ZM27.2405 9.78612C27.1823 9.74851 27.1287 9.69162 27.0822 9.61841C27.0442 9.54331 27.0131 9.45776 26.9902 9.36501C26.9697 9.31078 26.9588 9.24683 26.9588 9.18139C26.9588 9.11594 26.9697 9.05199 26.9902 8.99776C27.0116 8.94211 27.0416 8.89869 27.0764 8.87265C27.1112 8.84661 27.1494 8.83905 27.1866 8.85086C27.2726 8.88667 27.3556 8.94264 27.4335 9.01734C27.4701 9.04877 27.5002 9.10046 27.5192 9.16481C27.5382 9.22915 27.5452 9.30276 27.5392 9.3748C27.5373 9.42458 27.5294 9.473 27.516 9.5168C27.5085 9.74572 27.3564 9.87304 27.2405 9.78857V9.78612Z" fill="#322D59"/>
<path d="M21.5696 10.4834C21.3745 10.3194 21.2006 10.4296 21.0403 10.6132C20.8813 10.8156 20.7681 11.1135 20.7211 11.453C20.6815 11.6978 20.7545 11.9524 20.8316 12.1642C20.9482 12.4825 21.1637 12.4935 21.3663 12.3882C21.5169 12.3231 21.6529 12.1775 21.7565 11.9708C21.8162 11.8585 21.8598 11.7218 21.8835 11.5725C21.9073 11.4232 21.9105 11.2659 21.8929 11.1139C21.852 10.8152 21.6958 10.4896 21.5696 10.4834ZM21.5307 11.6329C21.4909 11.7177 21.4425 11.7883 21.3882 11.841C21.3353 11.8776 21.2796 11.8995 21.2231 11.9059C21.1881 11.9201 21.1516 11.9155 21.1182 11.8926C21.0847 11.8697 21.0557 11.8297 21.0348 11.7774C21.0133 11.7217 21.0012 11.6561 20.9999 11.5884C20.9985 11.5207 21.0081 11.4537 21.0273 11.3954C21.0757 11.2634 21.1337 11.1435 21.1999 11.0392C21.2202 11.0073 21.2439 10.9829 21.2695 10.9674C21.2951 10.952 21.3222 10.9458 21.3491 10.9492C21.3761 10.9526 21.4024 10.9655 21.4265 10.9873C21.4506 11.0091 21.4722 11.0392 21.4898 11.0759C21.6023 11.1677 21.6153 11.4677 21.5307 11.6329Z" fill="#322D59"/>
<path d="M17.0025 9.81494L16.6471 9.99611L16.5332 10.9534C16.5332 10.9534 16.8272 12.7199 18.072 12.6991C19.3168 12.6783 19.6558 12.0564 19.8529 11.7491L19.8925 11.0146L17.0025 9.81494Z" fill="#B63526"/>
<path d="M17.59 11.991C17.058 11.7351 16.7033 11.1573 16.6508 10.3163C16.5983 9.47531 16.8807 8.60248 17.2954 8.10425C17.7101 7.60601 18.2326 7.44075 18.7243 7.50563C19.1118 7.55705 19.5128 7.76883 19.7475 8.2891C20.0067 8.8718 19.9971 9.69075 19.9651 10.4424C19.9629 10.6414 19.9398 10.8379 19.8968 11.0214C19.8278 11.2368 19.7289 11.4164 19.6097 11.5429C19.316 11.8936 18.9808 12.1167 18.6307 12.1945C18.2806 12.2723 17.9252 12.2026 17.5928 11.991" fill="#DF4926"/>
<path opacity="0.39" d="M18.2205 11.3574C18.2312 11.2979 18.232 11.2341 18.223 11.1737C18.2139 11.1133 18.1953 11.0589 18.1694 11.0171C18.0486 11.0171 17.8815 11.0514 17.9647 11.4443C18.003 11.4797 18.0469 11.4902 18.0889 11.4739C18.131 11.4576 18.1686 11.4155 18.1953 11.355" fill="#FBBC81"/>
<path opacity="0.39" d="M18.7235 8.34597C18.6942 8.23702 18.5701 8.20152 18.5073 8.27865C18.4932 8.2965 18.482 8.3209 18.475 8.34925C18.468 8.37759 18.4654 8.40882 18.4675 8.4396C18.4696 8.47038 18.4763 8.49957 18.4869 8.52404C18.4975 8.54851 18.5117 8.56736 18.5278 8.57857C18.5654 8.61149 18.6071 8.62588 18.6489 8.62029C18.6906 8.6147 18.7307 8.58932 18.7651 8.54674C18.778 8.5325 18.7879 8.511 18.7932 8.48563C18.7985 8.46025 18.7989 8.43243 18.7945 8.40652C18.7901 8.38061 18.7809 8.35808 18.7686 8.34247C18.7562 8.32686 18.7413 8.31905 18.7263 8.32026" fill="#FBBC81"/>
<path opacity="0.39" d="M18.478 9.27404C18.4622 9.25028 18.4436 9.23324 18.4236 9.22421C18.4036 9.21518 18.3828 9.21439 18.3626 9.2219C18.3424 9.22942 18.3235 9.24505 18.3071 9.2676C18.2908 9.29016 18.2775 9.31906 18.2683 9.35214C18.2591 9.38522 18.2542 9.42162 18.2539 9.4586C18.2537 9.49558 18.2581 9.53218 18.2668 9.56566C18.2756 9.59914 18.2885 9.62862 18.3045 9.6519C18.3205 9.67517 18.3392 9.69164 18.3593 9.70005C18.4029 9.7128 18.4476 9.69884 18.4862 9.66042C18.5248 9.622 18.5551 9.56135 18.5721 9.48827C18.5994 9.36585 18.5441 9.1859 18.4746 9.24344" fill="#FBBC81"/>
<path opacity="0.39" d="M17.5982 8.90833C17.589 8.87365 17.5755 8.8433 17.5586 8.81973C17.5418 8.79616 17.5221 8.78003 17.5011 8.77265C17.4801 8.76526 17.4585 8.76682 17.4379 8.77721C17.4173 8.78759 17.3984 8.80651 17.3826 8.83243C17.3675 8.85859 17.3558 8.89026 17.3481 8.92529C17.3404 8.96032 17.337 8.99789 17.3381 9.03549C17.3392 9.07308 17.3448 9.10981 17.3545 9.14321C17.3641 9.1766 17.3777 9.20588 17.3942 9.22906C17.4319 9.2698 17.4761 9.28642 17.5198 9.27619C17.5634 9.26596 17.6038 9.2295 17.6343 9.17275C17.6862 9.07482 17.6773 8.86916 17.6023 8.87405" fill="#FBBC81"/>
<path opacity="0.39" d="M17.4963 10.452C17.4871 10.4175 17.4736 10.3874 17.4568 10.3639C17.44 10.3405 17.4204 10.3245 17.3995 10.3171C17.3786 10.3097 17.3571 10.3112 17.3366 10.3215C17.3161 10.3317 17.2972 10.3504 17.2814 10.3761C17.2662 10.4021 17.2544 10.4338 17.2466 10.4688C17.2389 10.5039 17.2354 10.5415 17.2365 10.5792C17.2376 10.6168 17.2432 10.6536 17.253 10.687C17.2627 10.7204 17.2764 10.7497 17.293 10.7727C17.3305 10.8136 17.3747 10.8303 17.4182 10.82C17.4618 10.8098 17.502 10.7732 17.5324 10.7164C17.585 10.6185 17.5761 10.4128 17.5004 10.4189" fill="#FBBC81"/>
<path opacity="0.39" d="M18.7116 10.3336C18.7 10.3144 18.6861 10.3003 18.671 10.2924C18.6558 10.2845 18.6399 10.283 18.6244 10.2881C18.6089 10.2932 18.5942 10.3047 18.5816 10.3217C18.569 10.3387 18.5588 10.3607 18.5517 10.386C18.5447 10.4113 18.541 10.4392 18.541 10.4675C18.541 10.4958 18.5447 10.5237 18.5517 10.549C18.5587 10.5743 18.569 10.5963 18.5816 10.6133C18.5942 10.6303 18.6088 10.6419 18.6243 10.647C18.6563 10.6562 18.6891 10.6459 18.7174 10.6177C18.7457 10.5895 18.7679 10.5451 18.7805 10.4915C18.8003 10.3997 18.76 10.2687 18.7123 10.3091" fill="#FBBC81"/>
<path opacity="0.39" d="M19.4939 10.2383C19.4222 10.0975 19.264 10.1575 19.2169 10.3338C19.2068 10.3775 19.2022 10.4246 19.2033 10.4719C19.2044 10.5192 19.2112 10.5655 19.2233 10.6076C19.2353 10.6496 19.2524 10.6864 19.2732 10.7155C19.294 10.7445 19.3181 10.7651 19.3438 10.7757C19.3988 10.7916 19.4551 10.7738 19.5038 10.7252C19.5524 10.6765 19.5905 10.5999 19.6119 10.5076C19.646 10.3522 19.5771 10.1269 19.4891 10.1967" fill="#FBBC81"/>
<path opacity="0.39" d="M19.3207 9.15427C19.3125 9.14056 19.3026 9.13048 19.2918 9.12483C19.281 9.11918 19.2697 9.11812 19.2586 9.12172C19.2476 9.12532 19.2371 9.13348 19.2281 9.14557C19.2192 9.15765 19.2119 9.17334 19.2069 9.19136C19.2018 9.20938 19.1992 9.22926 19.1992 9.24941C19.1992 9.26956 19.2018 9.28943 19.2069 9.30746C19.2119 9.32548 19.2192 9.34115 19.2282 9.35323C19.2372 9.36532 19.2476 9.37348 19.2586 9.37707C19.2814 9.38356 19.3048 9.3761 19.325 9.3559C19.3451 9.3357 19.3609 9.30392 19.3698 9.26567C19.3834 9.20202 19.3548 9.10776 19.3187 9.14326" fill="#FBBC81"/>
<path d="M23.3665 9.75723C23.3665 9.75723 22.6892 11.3596 21.8359 8.81585C21.8359 8.81585 23.1155 7.54027 23.3665 9.75723Z" fill="#3CB44A"/>
<path d="M23.3665 9.75723C22.8669 9.39053 22.3559 9.07621 21.8359 8.81585C21.8359 8.81585 23.1155 7.54027 23.3665 9.75723Z" fill="#318C43"/>
<path d="M24.7628 10.4902C24.7628 10.4902 24.6488 11.0765 24.5254 11.2761L24.7089 11.5013L25.2948 10.3457L24.7628 10.4902Z" fill="#A28D72"/>
<path d="M24.3429 10.6611L24.0878 10.2351C24.0878 10.2351 23.9807 9.1015 24.7754 8.84565C25.57 8.5898 25.8756 9.75642 25.9233 9.86782C26.0154 10.0857 26.0113 10.8165 25.7085 11.0651C25.4056 11.3136 25.0196 9.90699 25.0196 9.90699L24.3429 10.6611Z" fill="#9A8266"/>
<path d="M25.2195 9.29476C24.9882 9.19253 24.7439 9.25435 24.5374 9.46736C24.4679 9.53338 24.4068 9.62444 24.3579 9.73482C24.3089 9.84519 24.2732 9.97252 24.253 10.1088C24.2366 10.2477 24.246 10.3924 24.2799 10.5207C24.3138 10.649 24.3702 10.7538 24.4406 10.8188C24.5886 10.9413 24.7966 10.7968 24.8225 10.5226C24.834 10.5125 24.8466 10.5068 24.8594 10.5058C24.8722 10.5049 24.885 10.5086 24.897 10.5169C24.9089 10.5252 24.9198 10.5378 24.929 10.5539C24.9381 10.57 24.9453 10.5894 24.9501 10.6107C24.9699 10.6952 24.9671 10.5263 24.9501 10.6107C24.903 10.8458 24.8137 11.3256 24.7127 11.5019C24.8799 11.6236 25.0576 11.6923 25.2379 11.7051C25.2618 11.4407 25.2863 11.1775 25.3102 10.9143C25.3743 10.8996 25.418 11.0208 25.4691 11.0906C25.598 11.2681 25.8102 11.0833 25.8463 10.8115C25.8825 10.5397 25.8607 10.0195 25.7447 9.81747C25.6287 9.61549 25.4719 9.32781 25.2229 9.29476" fill="#D7CBB5"/>
</g>
<defs>
<clipPath id="clip0_941:8">
<rect width="36" height="30" fill="white"/>
</clipPath>
</defs>
</svg>
