<svg width="16" height="18" viewBox="0 0 16 18" fill="none" xmlns="http://www.w3.org/2000/svg">
<path d="M15.784 13.5C15.5149 13.9684 15.0261 14.2273 14.5228 14.2273C14.2763 14.2273 14.026 14.1648 13.7969 14.0324L9.44604 11.5195V16.5453C9.44604 17.3483 8.79435 18 7.99138 18C7.18841 18 6.53672 17.3483 6.53672 16.5453V11.5187L2.18364 14.0324C1.95453 14.1648 1.70433 14.2273 1.45776 14.2273C0.955175 14.2273 0.465681 13.9684 0.196569 13.5C-0.204918 12.8039 0.032919 11.9144 0.728975 11.5144L5.0806 9.00073L0.727521 6.48707C0.0314644 6.08486 -0.206373 5.19678 0.195114 4.50073C0.596601 3.80467 1.48685 3.56611 2.18218 3.96832L6.53454 6.48125V1.45466C6.53454 0.651689 7.18622 0 7.9892 0C8.79217 0 9.44386 0.651689 9.44386 1.45466V6.48052L13.7948 3.96759C14.4901 3.56538 15.3825 3.80394 15.7818 4.5C16.1833 5.19606 15.9455 6.08558 15.2494 6.48634L10.8993 9L15.2501 11.5129C15.9462 11.9144 16.1855 12.8039 15.784 13.5Z" fill="#FF4E4E"/>
</svg>
