<svg width="30" height="31" viewBox="0 0 30 31" fill="none" xmlns="http://www.w3.org/2000/svg">
<g clip-path="url(#clip0_998:471)">
<path d="M3.45977 23.8988C2.45732 23.8988 1.47796 23.643 0.590379 23.1446C0.133706 22.9094 -0.0431717 22.321 0.229644 21.8783C1.13608 20.4299 1.4634 18.6594 1.04839 16.9942C0.618224 15.268 -0.00418742 13.8142 0.000267927 11.9867C0.0157131 5.57541 5.3521 0.377808 11.7569 0.502187C17.9431 0.626788 23.0415 5.82707 23.0415 12.0149C23.0416 20.0964 14.5721 25.7703 7.09511 22.6496C6.06451 23.4585 4.76912 23.8988 3.45977 23.8988ZM2.24168 21.9256C3.65016 22.3631 5.23426 22.0136 6.3204 20.9636C6.58802 20.7048 6.98833 20.6397 7.32412 20.8003C13.7255 23.8609 21.2594 19.0637 21.2593 12.0149C21.2593 6.75512 16.9804 2.38984 11.721 2.28395C6.30094 2.17628 1.79548 6.56599 1.78241 11.991C1.77817 13.7268 2.45539 15.1139 2.82548 16.7582C3.21539 18.4909 3.01 20.3233 2.24168 21.9256Z" fill="#7E992D"/>
<path d="M26.5399 30.5C25.2307 30.5 23.9352 30.0597 22.9048 29.2509C18.9284 30.9104 14.1984 30.1546 10.9381 27.339C10.5656 27.0173 10.5245 26.4547 10.8461 26.0822C11.1677 25.7098 11.7304 25.6685 12.1028 25.9902C14.9945 28.4874 19.2294 29.0492 22.6757 27.4016C23.0114 27.2409 23.4116 27.3061 23.6794 27.5649C24.7655 28.6149 26.3496 28.9645 27.7581 28.5269C26.8517 26.6364 26.7262 24.4706 27.4286 22.4655C27.4349 22.4475 27.4418 22.4297 27.4492 22.4121C27.9622 21.2028 28.2206 19.9176 28.2175 18.5923C28.2118 16.2556 27.4345 14.0941 25.9694 12.3413C25.6538 11.9636 25.7041 11.4017 26.0817 11.0861C26.4592 10.7705 27.0213 10.8208 27.3369 11.1984C29.0474 13.245 29.9931 15.8692 29.9996 18.588C30.0034 20.1452 29.7012 21.6564 29.1016 23.0804C28.4718 24.9036 28.7615 26.8557 29.7701 28.4794C30.0431 28.9221 29.8661 29.5106 29.4093 29.7459C28.5218 30.2441 27.5422 30.4999 26.5399 30.5Z" fill="#7E992D"/>
<path d="M11.5208 13.4686C12.2995 13.4686 12.9308 12.8376 12.9308 12.0593C12.9308 11.281 12.2995 10.6501 11.5208 10.6501C10.7421 10.6501 10.1108 11.281 10.1108 12.0593C10.1108 12.8376 10.7421 13.4686 11.5208 13.4686Z" fill="#7E992D"/>
<path d="M6.32623 13.4686C7.10493 13.4686 7.7362 12.8376 7.7362 12.0593C7.7362 11.281 7.10493 10.6501 6.32623 10.6501C5.54752 10.6501 4.91626 11.281 4.91626 12.0593C4.91626 12.8376 5.54752 13.4686 6.32623 13.4686Z" fill="#7E992D"/>
<path d="M16.7156 13.4686C17.4943 13.4686 18.1256 12.8376 18.1256 12.0593C18.1256 11.281 17.4943 10.6501 16.7156 10.6501C15.9369 10.6501 15.3057 11.281 15.3057 12.0593C15.3057 12.8376 15.9369 13.4686 16.7156 13.4686Z" fill="#7E992D"/>
</g>
<defs>
<clipPath id="clip0_998:471">
<rect width="30" height="30" fill="white" transform="translate(0 0.5)"/>
</clipPath>
</defs>
</svg>
