<svg width="36" height="30" viewBox="0 0 36 30" fill="none" xmlns="http://www.w3.org/2000/svg">
<path d="M17.868 14.5586V22.8925C17.868 23.3345 17.8946 23.7514 17.6652 24.1514C17.4037 24.6074 16.9658 24.9446 16.5182 25.2061C15.8872 25.5611 15.2104 25.8275 14.5068 25.9978C12.8567 26.4101 11.1474 26.5313 9.45574 26.3559C8.61662 26.2814 7.78687 26.1244 6.97849 25.8873C6.23993 25.6649 5.49437 25.3614 4.88031 24.8858C4.41451 24.5235 4.01725 24.0339 4.00746 23.4199C4.00746 23.3024 4.00746 23.1835 4.00746 23.066V14.7264C4.00746 14.6942 3.99067 14.6061 4.00746 14.5781C4.04942 14.5082 4.45367 14.5586 4.5418 14.5586H17.8666H17.868Z" fill="#FF8F00"/>
<path d="M15.8633 21.5388C15.8628 22.7711 16.1573 23.9855 16.7221 25.0806C16.9 24.9668 17.0676 24.8376 17.2229 24.6945C16.646 23.5243 16.4011 22.2183 16.5148 20.9186C16.6285 19.6188 17.0964 18.3752 17.8677 17.3229V16.3438C16.5777 17.7665 15.8632 19.6183 15.8633 21.5388V21.5388Z" fill="#FFAA4D"/>
<path d="M13.4043 21.5387C13.403 23.1064 13.8786 24.6373 14.7681 25.9281C14.9779 25.868 15.1877 25.8022 15.3892 25.7281C14.787 24.8981 14.3709 23.9481 14.1691 22.9428C13.9674 21.9374 13.9847 20.9004 14.2199 19.9024C14.4552 18.9043 14.9028 17.9687 15.5323 17.1593C16.1618 16.3499 16.9584 15.6857 17.8678 15.212V14.563H17.7699C16.4625 15.2008 15.3602 16.1927 14.5885 17.4259C13.8167 18.6591 13.4065 20.084 13.4043 21.5387V21.5387Z" fill="#FFAA4D"/>
<path d="M11.5697 21.5385C11.572 19.908 12.1311 18.3272 13.1545 17.0578C14.1778 15.7884 15.6041 14.9067 17.197 14.5586H15.3115C14.2685 15.0659 13.3526 15.8007 12.631 16.7088C11.9095 17.6169 11.4008 18.6752 11.1424 19.8058C10.8839 20.9365 10.8822 22.1107 11.1375 23.2421C11.3928 24.3735 11.8985 25.4333 12.6174 26.3434C12.8608 26.3163 13.1028 26.2828 13.3434 26.2427C12.1994 24.9427 11.5687 23.2702 11.5697 21.5385V21.5385Z" fill="#FFAA4D"/>
<path d="M9.11011 21.5385C9.11271 19.9071 9.67282 18.3255 10.6976 17.056C11.7223 15.7865 13.1502 14.9053 14.7444 14.5586H12.8519C11.8023 15.0691 10.8815 15.8098 10.158 16.7255C9.43443 17.6413 8.92684 18.7085 8.673 19.8476C8.41917 20.9868 8.42564 22.1685 8.69192 23.3048C8.95821 24.4412 9.47744 25.5027 10.211 26.4105C10.4907 26.4245 10.7705 26.4306 11.0502 26.4287C9.80279 25.1062 9.10863 23.3565 9.11011 21.5385V21.5385Z" fill="#FFAA4D"/>
<path d="M17.8676 14.5796V14.5586H17.7725L17.8676 14.5796Z" fill="#FFAA4D"/>
<path d="M8.40361 26.2189C7.58853 25.2835 7.03147 24.1518 6.78743 22.9354C6.54339 21.719 6.62081 20.4599 7.01204 19.2826C7.40326 18.1052 8.09478 17.0502 9.01831 16.2218C9.94184 15.3934 11.0655 14.8201 12.2782 14.5586H10.3941C9.38126 15.0505 8.48771 15.7571 7.77554 16.6293C7.06337 17.5014 6.54966 18.5182 6.27013 19.6089C5.99059 20.6997 5.95193 21.8382 6.15682 22.9454C6.36172 24.0525 6.80526 25.1018 7.45663 26.0203C7.76996 26.0986 8.08608 26.1643 8.40361 26.2189Z" fill="#FFAA4D"/>
<path d="M4.19343 21.5385C4.19562 19.9082 4.75453 18.3275 5.77764 17.0582C6.80074 15.7888 8.22668 14.907 9.81935 14.5586H7.93519C6.09851 15.4581 4.68851 17.0429 4.00879 18.9718V23.0674C4.00879 23.1849 4.00879 23.3038 4.00879 23.4213C4.01858 24.0354 4.41583 24.525 4.88163 24.8872C4.96136 24.9488 5.04249 25.0075 5.12642 25.0635C4.51375 23.9898 4.19215 22.7747 4.19343 21.5385V21.5385Z" fill="#FFAA4D"/>
<path style="mix-blend-mode:multiply" d="M10.1173 26.4021C10.2418 26.4021 10.3663 26.3867 10.4894 26.3742C7.93099 26.1196 5.99087 24.897 5.99087 23.4269V14.5586H4.00879V23.4297C4.00879 24.9642 6.67768 26.2301 10.1173 26.4021Z" fill="url(#paint0_linear_941:8)"/>
<path d="M10.9394 17.5562C14.7665 17.5562 17.8689 16.2142 17.8689 14.5586C17.8689 12.9031 14.7665 11.561 10.9394 11.561C7.11225 11.561 4.00977 12.9031 4.00977 14.5586C4.00977 16.2142 7.11225 17.5562 10.9394 17.5562Z" fill="#FFAA4D"/>
<path d="M10.9379 16.854C14.2281 16.854 16.8953 15.8263 16.8953 14.5586C16.8953 13.2909 14.2281 12.2632 10.9379 12.2632C7.6477 12.2632 4.98047 13.2909 4.98047 14.5586C4.98047 15.8263 7.6477 16.854 10.9379 16.854Z" fill="white"/>
<path d="M15.208 14.5588C15.208 15.0246 14.3687 15.433 13.1252 15.6554C12.9531 15.6862 12.7727 15.7142 12.5839 15.7365C12.2454 15.7799 11.8845 15.8107 11.504 15.8247C11.3641 15.8247 11.2242 15.8331 11.076 15.8345H10.9361C10.6731 15.8345 10.4157 15.8345 10.1668 15.8135C10.0423 15.8135 9.92057 15.7995 9.79748 15.7883C9.56388 15.7687 9.33588 15.7449 9.11767 15.7128C7.66852 15.5099 6.66699 15.0679 6.66699 14.5574C6.66699 13.858 8.57634 13.2803 10.9361 13.2803C11.5746 13.2804 12.2123 13.3271 12.844 13.4202C13.0622 13.4523 13.2637 13.4901 13.4637 13.5335C13.5644 13.5558 13.6637 13.5796 13.7574 13.6034C13.9662 13.6575 14.1713 13.7248 14.3715 13.8048C14.4521 13.8366 14.531 13.8725 14.6079 13.9125C14.7715 13.9887 14.9206 14.0929 15.0485 14.2203C15.0992 14.2716 15.14 14.3318 15.1688 14.3979C15.1928 14.4482 15.2062 14.503 15.208 14.5588Z" fill="white"/>
<path d="M15.1706 14.5586H10.9379L9.25098 14.6985V15.728C9.42862 15.7518 9.61046 15.7713 9.7993 15.7867C9.92239 15.7979 10.0441 15.8063 10.1686 15.8119C10.4176 15.8259 10.6749 15.8329 10.9379 15.8329H11.0778C11.2177 15.8329 11.3645 15.8329 11.5058 15.8231C11.8835 15.8091 12.2472 15.7783 12.5857 15.735C12.7745 15.7126 12.955 15.6846 13.127 15.6538C14.2237 15.458 15.0014 15.1195 15.1734 14.7237L15.1706 14.5586Z" fill="#D4DF56"/>
<path d="M11.6123 14.5588C11.6123 15.0246 11.1283 15.433 10.4065 15.6554C10.3072 15.6862 10.2023 15.7142 10.0932 15.7365C9.88731 15.7818 9.67828 15.8113 9.46792 15.8247C9.38679 15.8247 9.30426 15.8331 9.22034 15.8345H9.1406C8.9886 15.8345 8.84033 15.8275 8.69579 15.8135C8.62305 15.8079 8.55172 15.7995 8.48178 15.7883C8.34905 15.7701 8.21738 15.7449 8.08732 15.7128C7.24805 15.5099 6.66895 15.0679 6.66895 14.5574C6.66895 13.858 7.77399 13.2803 9.1406 13.2803C9.51334 13.2807 9.88456 13.3277 10.2456 13.4202C10.3672 13.4508 10.4867 13.4886 10.6037 13.5335C10.6625 13.5558 10.7198 13.5796 10.7744 13.6034C10.8987 13.6596 11.0176 13.727 11.1297 13.8048C11.1786 13.8376 11.2254 13.8736 11.2696 13.9125C11.3722 13.999 11.4584 14.1032 11.5241 14.2203C11.5556 14.276 11.5791 14.3357 11.5941 14.3979C11.6068 14.4506 11.6129 14.5046 11.6123 14.5588V14.5588Z" fill="#FFCCBC"/>
<path d="M11.5919 14.3935C11.5763 14.3315 11.5528 14.2718 11.522 14.2159C11.4562 14.0989 11.37 13.9946 11.2674 13.9081C11.2232 13.8692 11.1765 13.8332 11.1275 13.8004C11.0154 13.7226 10.8965 13.6552 10.7722 13.599C10.7177 13.5752 10.6603 13.5514 10.6016 13.5291C10.4846 13.4842 10.365 13.4464 10.2435 13.4158C9.88239 13.3233 9.51117 13.2763 9.13844 13.2759C8.97443 13.2761 8.81054 13.285 8.64746 13.3025C8.86068 13.3219 9.07207 13.3579 9.27971 13.4102C9.40116 13.441 9.52072 13.4788 9.6378 13.5235C9.69655 13.5458 9.7539 13.5696 9.80845 13.5934C9.93275 13.6496 10.0517 13.7171 10.1637 13.7948C10.2127 13.8276 10.2594 13.8636 10.3036 13.9025C10.4063 13.989 10.4925 14.0933 10.5582 14.2103C10.589 14.2662 10.6125 14.3259 10.6281 14.3879C10.6422 14.4418 10.6492 14.4973 10.6491 14.553C10.6491 15.0188 10.1651 15.4272 9.44337 15.6496C9.34406 15.6804 9.23915 15.7084 9.13004 15.7307C8.97167 15.7643 8.81147 15.7886 8.65026 15.8035H8.69642C8.84096 15.8175 8.98923 15.8245 9.14123 15.8245H9.22096C9.30489 15.8245 9.38742 15.8245 9.46855 15.8147C9.67891 15.8013 9.88794 15.7718 10.0938 15.7266C10.2029 15.7042 10.3078 15.6762 10.4071 15.6454C11.1289 15.423 11.6129 15.0146 11.6129 14.5488C11.6122 14.4964 11.6051 14.4442 11.5919 14.3935V14.3935Z" fill="#FF7043"/>
<path d="M10.9381 16.0778C8.73916 16.0778 6.40039 15.5448 6.40039 14.5587C6.40039 13.5726 8.73916 13.041 10.9381 13.041C13.137 13.041 15.4743 13.5726 15.4743 14.5587C15.4743 15.5448 13.137 16.0778 10.9381 16.0778ZM10.9381 13.4299C8.36848 13.4299 6.79065 14.0873 6.79065 14.5587C6.79065 15.0301 8.36848 15.6875 10.9381 15.6875C13.5076 15.6875 15.0855 15.0301 15.0855 14.5587C15.0855 14.0873 13.5076 13.4299 10.9381 13.4299Z" fill="#143D32"/>
<path d="M5.84117 14.4175C6.00263 14.4175 6.13352 14.3273 6.13352 14.2161C6.13352 14.1048 6.00263 14.0146 5.84117 14.0146C5.67972 14.0146 5.54883 14.1048 5.54883 14.2161C5.54883 14.3273 5.67972 14.4175 5.84117 14.4175Z" fill="#DAE9EF"/>
<path d="M16.0818 13.9529C16.0818 14.0634 15.9503 14.1543 15.7894 14.1543C15.6286 14.1543 15.4971 14.0634 15.4971 13.9529C15.4971 13.8424 15.6286 13.7515 15.7894 13.7515C15.9503 13.7515 16.0818 13.834 16.0818 13.9529Z" fill="#DAE9EF"/>
<path d="M11.6907 16.4236C11.6907 16.5355 11.5606 16.625 11.3984 16.625C11.2361 16.625 11.1074 16.5355 11.1074 16.4236C11.1074 16.3117 11.2375 16.2222 11.3984 16.2222C11.5592 16.2222 11.6907 16.3131 11.6907 16.4236Z" fill="#DAE9EF"/>
<path d="M6.30195 15.0048C6.30195 15.0691 6.22641 15.1209 6.1327 15.1209C6.03898 15.1209 5.96484 15.0691 5.96484 15.0048C5.96484 14.9404 6.04038 14.8887 6.1327 14.8887C6.22502 14.8887 6.30195 14.9404 6.30195 15.0048Z" fill="#DAE9EF"/>
<path d="M13.3679 12.8495C13.3679 12.9124 13.2924 12.9656 13.2001 12.9656C13.1078 12.9656 13.0322 12.9124 13.0322 12.8495C13.0322 12.7866 13.1078 12.7334 13.2001 12.7334C13.2924 12.7334 13.3679 12.7852 13.3679 12.8495Z" fill="#DAE9EF"/>
<path d="M7.70301 16.2219C7.79572 16.2219 7.87086 16.17 7.87086 16.1058C7.87086 16.0417 7.79572 15.9897 7.70301 15.9897C7.61031 15.9897 7.53516 16.0417 7.53516 16.1058C7.53516 16.17 7.61031 16.2219 7.70301 16.2219Z" fill="#DAE9EF"/>
<path d="M16.1965 14.8173C16.1965 14.8816 16.1209 14.9334 16.0272 14.9334C15.9335 14.9334 15.8594 14.8816 15.8594 14.8173C15.8594 14.7529 15.9349 14.7012 16.0272 14.7012C16.1196 14.7012 16.1965 14.7529 16.1965 14.8173Z" fill="#DAE9EF"/>
<path d="M14.7795 15.9896C14.7795 16.054 14.704 16.1057 14.6102 16.1057C14.5165 16.1057 14.4424 16.054 14.4424 15.9896C14.4424 15.9253 14.5179 15.8735 14.6102 15.8735C14.7026 15.8735 14.7795 15.9267 14.7795 15.9896Z" fill="#DAE9EF"/>
<path d="M7.00466 13.3515C7.00466 13.4158 6.93052 13.4676 6.8368 13.4676C6.74308 13.4676 6.66895 13.4158 6.66895 13.3515C6.66895 13.2871 6.74448 13.2354 6.8368 13.2354C6.92912 13.2354 7.00466 13.2871 7.00466 13.3515Z" fill="#DAE9EF"/>
<path d="M31.3768 14.559V22.893C31.3768 23.335 31.4034 23.7519 31.174 24.1519C30.9124 24.6079 30.4746 24.945 30.027 25.2066C29.396 25.5616 28.7192 25.828 28.0155 25.9983C26.3655 26.4106 24.6562 26.5318 22.9645 26.3564C22.1254 26.2819 21.2957 26.1249 20.4873 25.8878C19.7487 25.6654 19.0032 25.3619 18.3891 24.8863C17.9233 24.524 17.526 24.0344 17.5162 23.4204C17.5162 23.3029 17.5162 23.184 17.5162 23.0665V14.7269C17.5162 14.6947 17.4995 14.6066 17.5162 14.5786C17.5582 14.5087 17.9625 14.559 18.0506 14.559H31.3754H31.3768Z" fill="#FFEFEF"/>
<path d="M31.3764 14.5801V14.5591H31.2812L31.3764 14.5801Z" fill="#FFAA4D"/>
<path d="M17.7022 21.539C17.7044 19.9087 18.2633 18.328 19.2864 17.0587C20.3095 15.7893 21.7355 14.9075 23.3281 14.5591H21.444C19.6073 15.4586 18.1973 17.0434 17.5176 18.9723V23.0679C17.5176 23.1854 17.5176 23.3043 17.5176 23.4218C17.5274 24.0359 17.9246 24.5254 18.3904 24.8877C18.4702 24.9493 18.5513 25.008 18.6352 25.064C18.0225 23.9903 17.7009 22.7752 17.7022 21.539V21.539Z" fill="#FFAA4D"/>
<g style="mix-blend-mode:multiply">
<path d="M23.6261 26.4026C23.7506 26.4026 23.8751 26.3872 23.9982 26.3746C21.4398 26.1201 19.4997 24.8975 19.4997 23.4274V14.5591H17.5176V23.4302C17.5176 24.9647 20.1865 26.2306 23.6261 26.4026Z" fill="#FFE7E7"/>
</g>
<path d="M24.4481 17.5567C28.2753 17.5567 31.3777 16.2147 31.3777 14.5591C31.3777 12.9036 28.2753 11.5615 24.4481 11.5615C20.621 11.5615 17.5186 12.9036 17.5186 14.5591C17.5186 16.2147 20.621 17.5567 24.4481 17.5567Z" fill="#FFACAC"/>
<path d="M24.4467 16.8545C27.7369 16.8545 30.4041 15.8268 30.4041 14.5591C30.4041 13.2914 27.7369 12.2637 24.4467 12.2637C21.1565 12.2637 18.4893 13.2914 18.4893 14.5591C18.4893 15.8268 21.1565 16.8545 24.4467 16.8545Z" fill="white"/>
<path d="M28.7168 14.5593C28.7168 15.025 27.8775 15.4335 26.634 15.6559C26.4619 15.6867 26.2815 15.7147 26.0927 15.737C25.7541 15.7804 25.3933 15.8112 25.0128 15.8252C24.8729 15.8252 24.733 15.8336 24.5848 15.8349H24.4449C24.1819 15.8349 23.9245 15.8349 23.6755 15.814C23.5511 15.814 23.4294 15.8 23.3063 15.7888C23.0727 15.7692 22.8447 15.7454 22.6265 15.7133C21.1773 15.5104 20.1758 15.0684 20.1758 14.5579C20.1758 13.8585 22.0851 13.2808 24.4449 13.2808C25.0834 13.2809 25.7211 13.3276 26.3528 13.4206C26.571 13.4528 26.7725 13.4906 26.9725 13.5339C27.0732 13.5563 27.1725 13.5801 27.2662 13.6039C27.475 13.658 27.6801 13.7253 27.8803 13.8053C27.9609 13.8371 28.0398 13.873 28.1167 13.913C28.2803 13.9892 28.4294 14.0934 28.5573 14.2207C28.608 14.2721 28.6488 14.3323 28.6776 14.3984C28.7016 14.4487 28.715 14.5035 28.7168 14.5593Z" fill="white"/>
<path d="M28.6794 14.5591H24.4467L22.7598 14.699V15.7285C22.9374 15.7522 23.1193 15.7718 23.3081 15.7872C23.4312 15.7984 23.5529 15.8068 23.6774 15.8124C23.9264 15.8264 24.1837 15.8334 24.4467 15.8334H24.5866C24.7265 15.8334 24.8733 15.8334 25.0146 15.8236C25.3923 15.8096 25.756 15.7788 26.0945 15.7355C26.2833 15.7131 26.4638 15.6851 26.6358 15.6543C27.7325 15.4585 28.5102 15.12 28.6822 14.7241L28.6794 14.5591Z" fill="#0A7508"/>
<path d="M25.121 14.5593C25.121 15.025 24.6371 15.4335 23.9153 15.6559C23.816 15.6867 23.7111 15.7147 23.602 15.737C23.3961 15.7823 23.1871 15.8118 22.9767 15.8252C22.8956 15.8252 22.8131 15.8336 22.7291 15.8349H22.6494C22.4974 15.8349 22.3491 15.828 22.2046 15.814C22.1318 15.8084 22.0605 15.8 21.9906 15.7888C21.8578 15.7706 21.7262 15.7454 21.5961 15.7133C20.7568 15.5104 20.1777 15.0684 20.1777 14.5579C20.1777 13.8585 21.2828 13.2808 22.6494 13.2808C23.0221 13.2812 23.3933 13.3282 23.7544 13.4206C23.8759 13.4513 23.9955 13.4891 24.1125 13.5339C24.1713 13.5563 24.2286 13.5801 24.2832 13.6039C24.4075 13.6601 24.5264 13.7275 24.6385 13.8053C24.6874 13.8381 24.7342 13.8741 24.7783 13.913C24.881 13.9995 24.9672 14.1037 25.0329 14.2207C25.0643 14.2764 25.0879 14.3362 25.1029 14.3984C25.1156 14.451 25.1217 14.5051 25.121 14.5593V14.5593Z" fill="#FFCCBC"/>
<path d="M25.1007 14.394C25.0851 14.332 25.0616 14.2723 25.0308 14.2164C24.965 14.0993 24.8788 13.9951 24.7762 13.9086C24.732 13.8697 24.6853 13.8337 24.6363 13.8009C24.5242 13.7231 24.4053 13.6557 24.281 13.5995C24.2265 13.5757 24.1691 13.5519 24.1104 13.5295C23.9933 13.4847 23.8738 13.4469 23.7523 13.4162C23.3912 13.3238 23.02 13.2768 22.6472 13.2764C22.4832 13.2766 22.3193 13.2855 22.1562 13.3029C22.3695 13.3224 22.5809 13.3584 22.7885 13.4106C22.9099 13.4415 23.0295 13.4793 23.1466 13.524C23.2053 13.5463 23.2627 13.5701 23.3172 13.5939C23.4415 13.6501 23.5605 13.7175 23.6725 13.7953C23.7215 13.8281 23.7682 13.8641 23.8124 13.903C23.915 13.9895 24.0013 14.0937 24.067 14.2108C24.0978 14.2667 24.1213 14.3264 24.1369 14.3884C24.1509 14.4423 24.158 14.4978 24.1579 14.5535C24.1579 15.0193 23.6739 15.4277 22.9522 15.6501C22.8528 15.6809 22.7479 15.7089 22.6388 15.7312C22.4805 15.7648 22.3203 15.7891 22.159 15.804H22.2052C22.3497 15.818 22.498 15.825 22.65 15.825H22.7298C22.8137 15.825 22.8962 15.825 22.9773 15.8152C23.1877 15.8018 23.3967 15.7723 23.6026 15.727C23.7117 15.7047 23.8166 15.6767 23.9159 15.6459C24.6377 15.4235 25.1217 15.0151 25.1217 14.5493C25.121 14.4969 25.1139 14.4447 25.1007 14.394V14.394Z" fill="#1DA41A"/>
<path d="M24.4468 16.0783C22.248 16.0783 19.9092 15.5453 19.9092 14.5592C19.9092 13.573 22.248 13.0415 24.4468 13.0415C26.6457 13.0415 28.9831 13.573 28.9831 14.5592C28.9831 15.5453 26.6457 16.0783 24.4468 16.0783ZM24.4468 13.4304C21.8773 13.4304 20.2994 14.0878 20.2994 14.5592C20.2994 15.0306 21.8773 15.688 24.4468 15.688C27.0164 15.688 28.5943 15.0306 28.5943 14.5592C28.5943 14.0878 27.0164 13.4304 24.4468 13.4304Z" fill="#1DA41A"/>
<path d="M19.35 14.418C19.5114 14.418 19.6423 14.3278 19.6423 14.2166C19.6423 14.1053 19.5114 14.0151 19.35 14.0151C19.1885 14.0151 19.0576 14.1053 19.0576 14.2166C19.0576 14.3278 19.1885 14.418 19.35 14.418Z" fill="#DAE9EF"/>
<path d="M29.5906 13.9534C29.5906 14.0639 29.4591 14.1548 29.2982 14.1548C29.1373 14.1548 29.0059 14.0639 29.0059 13.9534C29.0059 13.8429 29.1373 13.752 29.2982 13.752C29.4591 13.752 29.5906 13.8345 29.5906 13.9534Z" fill="#DAE9EF"/>
<path d="M25.1995 16.4241C25.1995 16.536 25.0694 16.6255 24.9072 16.6255C24.7449 16.6255 24.6162 16.536 24.6162 16.4241C24.6162 16.3122 24.7463 16.2227 24.9072 16.2227C25.068 16.2227 25.1995 16.3136 25.1995 16.4241Z" fill="#DAE9EF"/>
<path d="M19.8107 15.0053C19.8107 15.0696 19.7352 15.1214 19.6415 15.1214C19.5478 15.1214 19.4736 15.0696 19.4736 15.0053C19.4736 14.9409 19.5492 14.8892 19.6415 14.8892C19.7338 14.8892 19.8107 14.9409 19.8107 15.0053Z" fill="#DAE9EF"/>
<path d="M26.8767 12.85C26.8767 12.9129 26.8012 12.9661 26.7089 12.9661C26.6165 12.9661 26.541 12.9129 26.541 12.85C26.541 12.787 26.6165 12.7339 26.7089 12.7339C26.8012 12.7339 26.8767 12.7856 26.8767 12.85Z" fill="#DAE9EF"/>
<path d="M21.2118 16.2224C21.3045 16.2224 21.3797 16.1705 21.3797 16.1063C21.3797 16.0422 21.3045 15.9902 21.2118 15.9902C21.1191 15.9902 21.0439 16.0422 21.0439 16.1063C21.0439 16.1705 21.1191 16.2224 21.2118 16.2224Z" fill="#DAE9EF"/>
<path d="M29.7053 14.8178C29.7053 14.8821 29.6297 14.9339 29.536 14.9339C29.4423 14.9339 29.3682 14.8821 29.3682 14.8178C29.3682 14.7534 29.4437 14.7017 29.536 14.7017C29.6283 14.7017 29.7053 14.7534 29.7053 14.8178Z" fill="#DAE9EF"/>
<path d="M28.2883 15.9901C28.2883 16.0545 28.2127 16.1062 28.119 16.1062C28.0253 16.1062 27.9512 16.0545 27.9512 15.9901C27.9512 15.9258 28.0267 15.874 28.119 15.874C28.2113 15.874 28.2883 15.9272 28.2883 15.9901Z" fill="#DAE9EF"/>
<path d="M20.5134 13.3519C20.5134 13.4163 20.4393 13.468 20.3456 13.468C20.2519 13.468 20.1777 13.4163 20.1777 13.3519C20.1777 13.2876 20.2533 13.2358 20.3456 13.2358C20.4379 13.2358 20.5134 13.2876 20.5134 13.3519Z" fill="#DAE9EF"/>
<path d="M24.618 5.99752V14.3315C24.618 14.7735 24.6446 15.1904 24.4152 15.5904C24.1537 16.0464 23.7158 16.3835 23.2682 16.6451C22.6372 17.0001 21.9604 17.2665 21.2568 17.4368C19.6067 17.8491 17.8974 17.9703 16.2057 17.7949C15.3666 17.7203 14.5369 17.5634 13.7285 17.3263C12.9899 17.1039 12.2444 16.8004 11.6303 16.3248C11.1645 15.9625 10.7673 15.4729 10.7575 14.8588C10.7575 14.7413 10.7575 14.6224 10.7575 14.5049V6.16537C10.7575 6.1332 10.7407 6.04508 10.7575 6.0171C10.7994 5.94716 11.2037 5.99752 11.2918 5.99752H24.6166H24.618Z" fill="#73AD38"/>
<path d="M24.6176 6.01854V5.99756H24.5225L24.6176 6.01854Z" fill="#FFAA4D"/>
<g style="mix-blend-mode:multiply">
<path d="M16.8673 17.8411C16.9918 17.8411 17.1163 17.8257 17.2394 17.8131C14.681 17.5585 12.7409 16.336 12.7409 14.8659V5.99756H10.7588V14.8687C10.7588 16.4031 13.4277 17.669 16.8673 17.8411Z" fill="#5E9328"/>
</g>
<path d="M17.6894 8.99521C21.5165 8.99521 24.6189 7.65313 24.6189 5.9976C24.6189 4.34207 21.5165 3 17.6894 3C13.8623 3 10.7598 4.34207 10.7598 5.9976C10.7598 7.65313 13.8623 8.99521 17.6894 8.99521Z" fill="#84C444"/>
<path d="M17.6879 8.29297C20.9781 8.29297 23.6453 7.26528 23.6453 5.99756C23.6453 4.72983 20.9781 3.70215 17.6879 3.70215C14.3977 3.70215 11.7305 4.72983 11.7305 5.99756C11.7305 7.26528 14.3977 8.29297 17.6879 8.29297Z" fill="white"/>
<path d="M21.958 5.99773C21.958 6.46352 21.1187 6.87197 19.8752 7.09438C19.7031 7.12515 19.5227 7.15313 19.3339 7.17551C18.9954 7.21887 18.6345 7.24965 18.254 7.26363C18.1141 7.26363 17.9742 7.27203 17.826 7.27343H17.6861C17.4231 7.27343 17.1657 7.27342 16.9168 7.25244C16.7923 7.25244 16.6706 7.23845 16.5475 7.22726C16.3139 7.20768 16.0859 7.1839 15.8677 7.15173C14.4185 6.9489 13.417 6.50689 13.417 5.99633C13.417 5.29694 15.3263 4.71924 17.6861 4.71924C18.3246 4.71934 18.9623 4.76609 19.594 4.85912C19.8122 4.89129 20.0137 4.92906 20.2137 4.97242C20.3144 4.9948 20.4137 5.01858 20.5074 5.04236C20.7162 5.09647 20.9213 5.16374 21.1215 5.24378C21.2021 5.27555 21.281 5.3115 21.3579 5.35149C21.5215 5.4277 21.6706 5.53183 21.7985 5.65922C21.8492 5.71055 21.89 5.77077 21.9188 5.83687C21.9428 5.88721 21.9562 5.94198 21.958 5.99773Z" fill="white"/>
<path d="M21.9206 5.99756H17.6879L16.001 6.13744V7.16695C16.1786 7.19073 16.3605 7.21031 16.5493 7.22569C16.6724 7.23688 16.7941 7.24528 16.9186 7.25088C17.1676 7.26486 17.4249 7.27186 17.6879 7.27186H17.8278C17.9677 7.27186 18.1145 7.27186 18.2558 7.26206C18.6335 7.24808 18.9972 7.2173 19.3357 7.17394C19.5245 7.15156 19.705 7.12358 19.877 7.09281C20.9737 6.89698 21.7514 6.55848 21.9234 6.16262L21.9206 5.99756Z" fill="#D4DF56"/>
<path d="M18.3623 5.99773C18.3623 6.46352 17.8783 6.87197 17.1565 7.09438C17.0572 7.12515 16.9523 7.15313 16.8432 7.17551C16.6373 7.22079 16.4283 7.25026 16.2179 7.26363C16.1368 7.26363 16.0543 7.27203 15.9703 7.27343H15.8906C15.7386 7.27343 15.5903 7.26643 15.4458 7.25244C15.3731 7.24685 15.3017 7.23845 15.2318 7.22726C15.099 7.20908 14.9674 7.18387 14.8373 7.15173C13.998 6.9489 13.4189 6.50689 13.4189 5.99633C13.4189 5.29694 14.524 4.71924 15.8906 4.71924C16.2633 4.71967 16.6346 4.76666 16.9956 4.85912C17.1172 4.88975 17.2367 4.92758 17.3537 4.97242C17.4125 4.9948 17.4698 5.01858 17.5244 5.04236C17.6487 5.09859 17.7676 5.16601 17.8797 5.24378C17.9286 5.27655 17.9754 5.31253 18.0196 5.35149C18.1222 5.43797 18.2084 5.54221 18.2741 5.65922C18.3056 5.71492 18.3291 5.7747 18.3441 5.83687C18.3568 5.88952 18.3629 5.94356 18.3623 5.99773V5.99773Z" fill="#73AD38"/>
<path d="M18.3419 5.83247C18.3263 5.77051 18.3028 5.7108 18.272 5.65483C18.2062 5.53782 18.12 5.43358 18.0174 5.34709C17.9732 5.30813 17.9265 5.27215 17.8775 5.23939C17.7654 5.16161 17.6465 5.09419 17.5222 5.03796C17.4677 5.01418 17.4103 4.9904 17.3516 4.96802C17.2346 4.92319 17.115 4.88536 16.9935 4.85472C16.6324 4.76227 16.2612 4.71528 15.8884 4.71484C15.7244 4.71506 15.5605 4.72393 15.3975 4.74142C15.6107 4.76091 15.8221 4.79691 16.0297 4.84913C16.1512 4.87996 16.2707 4.91779 16.3878 4.96243C16.4465 4.98481 16.5039 5.00859 16.5585 5.03237C16.6827 5.0886 16.8017 5.15602 16.9137 5.23379C16.9627 5.26656 17.0094 5.30254 17.0536 5.3415C17.1563 5.42798 17.2425 5.53222 17.3082 5.64923C17.339 5.70521 17.3625 5.76491 17.3781 5.82688C17.3922 5.88077 17.3992 5.93625 17.3991 5.99194C17.3991 6.45773 16.9151 6.86618 16.1934 7.08859C16.0941 7.11936 15.9891 7.14733 15.88 7.16971C15.7217 7.20329 15.5615 7.22758 15.4003 7.24245H15.4464C15.591 7.25644 15.7392 7.26343 15.8912 7.26343H15.971C16.0549 7.26343 16.1374 7.26343 16.2185 7.25364C16.4289 7.24026 16.6379 7.2108 16.8438 7.16552C16.9529 7.14314 17.0578 7.11516 17.1571 7.08439C17.8789 6.86198 18.3629 6.45354 18.3629 5.98774C18.3622 5.93533 18.3551 5.8832 18.3419 5.83247V5.83247Z" fill="#84C344"/>
<path d="M17.6881 7.51675C15.4892 7.51675 13.1504 6.98381 13.1504 5.99766C13.1504 5.01152 15.4892 4.47998 17.6881 4.47998C19.887 4.47998 22.2243 5.01152 22.2243 5.99766C22.2243 6.98381 19.887 7.51675 17.6881 7.51675ZM17.6881 4.86884C15.1185 4.86884 13.5407 5.52627 13.5407 5.99766C13.5407 6.46905 15.1185 7.12648 17.6881 7.12648C20.2576 7.12648 21.8355 6.46905 21.8355 5.99766C21.8355 5.52627 20.2576 4.86884 17.6881 4.86884Z" fill="#D4DF56"/>
<path d="M12.5912 5.85646C12.7526 5.85646 12.8835 5.76628 12.8835 5.65504C12.8835 5.54379 12.7526 5.45361 12.5912 5.45361C12.4297 5.45361 12.2988 5.54379 12.2988 5.65504C12.2988 5.76628 12.4297 5.85646 12.5912 5.85646Z" fill="#DAE9EF"/>
<path d="M22.8318 5.39186C22.8318 5.50236 22.7003 5.59328 22.5394 5.59328C22.3786 5.59328 22.2471 5.50236 22.2471 5.39186C22.2471 5.28135 22.3786 5.19043 22.5394 5.19043C22.7003 5.19043 22.8318 5.27296 22.8318 5.39186Z" fill="#DAE9EF"/>
<path d="M18.4407 7.86256C18.4407 7.97446 18.3106 8.06398 18.1484 8.06398C17.9861 8.06398 17.8574 7.97446 17.8574 7.86256C17.8574 7.75066 17.9875 7.66113 18.1484 7.66113C18.3092 7.66113 18.4407 7.75205 18.4407 7.86256Z" fill="#DAE9EF"/>
<path d="M13.052 6.44373C13.052 6.50808 12.9764 6.55984 12.8827 6.55984C12.789 6.55984 12.7148 6.50808 12.7148 6.44373C12.7148 6.37939 12.7904 6.32764 12.8827 6.32764C12.975 6.32764 13.052 6.37939 13.052 6.44373Z" fill="#DAE9EF"/>
<path d="M20.1179 4.28846C20.1179 4.35141 20.0424 4.40456 19.9501 4.40456C19.8578 4.40456 19.7822 4.35141 19.7822 4.28846C19.7822 4.22552 19.8578 4.17236 19.9501 4.17236C20.0424 4.17236 20.1179 4.22412 20.1179 4.28846Z" fill="#DAE9EF"/>
<path d="M14.453 7.66091C14.5457 7.66091 14.6209 7.60893 14.6209 7.54481C14.6209 7.48069 14.5457 7.42871 14.453 7.42871C14.3603 7.42871 14.2852 7.48069 14.2852 7.54481C14.2852 7.60893 14.3603 7.66091 14.453 7.66091Z" fill="#DAE9EF"/>
<path d="M22.9465 6.25623C22.9465 6.32058 22.8709 6.37234 22.7772 6.37234C22.6835 6.37234 22.6094 6.32058 22.6094 6.25623C22.6094 6.19189 22.6849 6.14014 22.7772 6.14014C22.8696 6.14014 22.9465 6.19189 22.9465 6.25623Z" fill="#DAE9EF"/>
<path d="M21.5295 7.4286C21.5295 7.49294 21.454 7.5447 21.3602 7.5447C21.2665 7.5447 21.1924 7.49294 21.1924 7.4286C21.1924 7.36425 21.2679 7.3125 21.3602 7.3125C21.4526 7.3125 21.5295 7.36565 21.5295 7.4286Z" fill="#DAE9EF"/>
<path d="M13.7547 4.79042C13.7547 4.85476 13.6805 4.90652 13.5868 4.90652C13.4931 4.90652 13.4189 4.85476 13.4189 4.79042C13.4189 4.72607 13.4945 4.67432 13.5868 4.67432C13.6791 4.67432 13.7547 4.72607 13.7547 4.79042Z" fill="#DAE9EF"/>
<circle cx="19.0527" cy="18.1699" r="0.296875" fill="#FF4848"/>
<circle cx="20.998" cy="18.1699" r="0.296875" fill="#FF4848"/>
<circle cx="21.3086" cy="17.6548" r="0.296875" fill="#FF4848"/>
<circle cx="23.6504" cy="18.1699" r="0.296875" fill="#FF4848"/>
<circle cx="25.9873" cy="18.1699" r="0.296875" fill="#FF4848"/>
<circle cx="28.5449" cy="18.1699" r="0.296875" fill="#FF4848"/>
<circle cx="27.8057" cy="16.8579" r="0.296875" fill="#FF4848"/>
<circle cx="24.0996" cy="17.2168" r="0.296875" fill="#FF4848"/>
<circle cx="24.5371" cy="20.0757" r="0.296875" fill="#FF4848"/>
<circle cx="24.5371" cy="21.9282" r="0.296875" fill="#FF4848"/>
<circle cx="21.4727" cy="22.6748" r="0.296875" fill="#FF4848"/>
<circle cx="23.6495" cy="20.1151" r="0.296875" transform="rotate(75 23.6495 20.1151)" fill="#FF4848"/>
<circle cx="23.6495" cy="21.7103" r="0.296875" transform="rotate(75 23.6495 21.7103)" fill="#FF4848"/>
<circle cx="29.7647" cy="21.7103" r="0.296875" transform="rotate(75 29.7647 21.7103)" fill="#FF4848"/>
<circle cx="28.6182" cy="23.2557" r="0.296875" transform="rotate(75 28.6182 23.2557)" fill="#FF4848"/>
<circle cx="25.2647" cy="23.7449" r="0.296875" transform="rotate(75 25.2647 23.7449)" fill="#FF4848"/>
<circle cx="19.0527" cy="21.1694" r="0.296875" fill="#FF4848"/>
<circle cx="20.998" cy="21.1694" r="0.296875" fill="#FF4848"/>
<circle cx="23.6504" cy="21.1694" r="0.296875" fill="#FF4848"/>
<circle cx="25.9873" cy="21.1694" r="0.296875" fill="#FF4848"/>
<circle cx="28.5449" cy="21.1694" r="0.296875" fill="#FF4848"/>
<circle cx="20.752" cy="20.8914" r="0.296875" transform="rotate(75 20.752 20.8914)" fill="#FF4848"/>
<circle cx="20.752" cy="22.4866" r="0.296875" transform="rotate(75 20.752 22.4866)" fill="#FF4848"/>
<circle cx="26.8672" cy="22.4866" r="0.296875" transform="rotate(75 26.8672 22.4866)" fill="#FF4848"/>
<circle cx="25.7207" cy="24.0321" r="0.296875" transform="rotate(75 25.7207 24.0321)" fill="#FF4848"/>
<circle cx="22.3672" cy="24.5213" r="0.296875" transform="rotate(75 22.3672 24.5213)" fill="#FF4848"/>
<circle cx="19.0527" cy="21.9536" r="0.296875" fill="#FF4848"/>
<circle cx="20.998" cy="21.9536" r="0.296875" fill="#FF4848"/>
<circle cx="23.6504" cy="21.9536" r="0.296875" fill="#FF4848"/>
<circle cx="25.9873" cy="21.9536" r="0.296875" fill="#FF4848"/>
<circle cx="28.5449" cy="21.9536" r="0.296875" fill="#FF4848"/>
<circle cx="19.9942" cy="21.0946" r="0.296875" transform="rotate(75 19.9942 21.0946)" fill="#FF4848"/>
<circle cx="19.9942" cy="22.6898" r="0.296875" transform="rotate(75 19.9942 22.6898)" fill="#FF4848"/>
<circle cx="26.1094" cy="22.6898" r="0.296875" transform="rotate(75 26.1094 22.6898)" fill="#FF4848"/>
<circle cx="24.9629" cy="24.2352" r="0.296875" transform="rotate(75 24.9629 24.2352)" fill="#FF4848"/>
<circle cx="21.6094" cy="24.7244" r="0.296875" transform="rotate(75 21.6094 24.7244)" fill="#FF4848"/>
<circle cx="19.0527" cy="18.8574" r="0.296875" fill="#FF4848"/>
<circle cx="20.998" cy="18.8574" r="0.296875" fill="#FF4848"/>
<circle cx="23.6504" cy="18.8574" r="0.296875" fill="#FF4848"/>
<circle cx="25.9873" cy="18.8574" r="0.296875" fill="#FF4848"/>
<circle cx="28.5449" cy="18.8574" r="0.296875" fill="#FF4848"/>
<circle cx="27.8057" cy="17.5454" r="0.296875" fill="#FF4848"/>
<circle cx="24.0996" cy="17.9043" r="0.296875" fill="#FF4848"/>
<circle cx="24.5371" cy="20.7632" r="0.296875" fill="#FF4848"/>
<circle cx="24.5371" cy="22.6157" r="0.296875" fill="#FF4848"/>
<circle cx="21.4727" cy="23.3623" r="0.296875" fill="#FF4848"/>
<circle cx="22.9854" cy="20.2933" r="0.296875" transform="rotate(75 22.9854 20.2933)" fill="#FF4848"/>
<circle cx="22.9854" cy="21.888" r="0.296875" transform="rotate(75 22.9854 21.888)" fill="#FF4848"/>
<circle cx="29.1006" cy="21.888" r="0.296875" transform="rotate(75 29.1006 21.888)" fill="#FF4848"/>
<circle cx="27.9541" cy="23.4334" r="0.296875" transform="rotate(75 27.9541 23.4334)" fill="#FF4848"/>
<circle cx="24.6006" cy="23.9227" r="0.296875" transform="rotate(75 24.6006 23.9227)" fill="#FF4848"/>
<circle cx="19.5137" cy="18.5605" r="0.296875" fill="#FF4848"/>
<circle cx="19.8242" cy="18.0454" r="0.296875" fill="#FF4848"/>
<circle cx="21.459" cy="18.5605" r="0.296875" fill="#FF4848"/>
<circle cx="24.1113" cy="18.5605" r="0.296875" fill="#FF4848"/>
<circle cx="26.4482" cy="18.5605" r="0.296875" fill="#FF4848"/>
<circle cx="26.9658" cy="20.2788" r="0.296875" fill="#FF4848"/>
<circle cx="26.9658" cy="21.5249" r="0.296875" fill="#FF4848"/>
<circle cx="26.9658" cy="25.3711" r="0.296875" fill="#FF4848"/>
<circle cx="26.0352" cy="25.7285" r="0.296875" fill="#FF4848"/>
<circle cx="23.8164" cy="25.7285" r="0.296875" fill="#FF4848"/>
<circle cx="22.4512" cy="25.7285" r="0.296875" fill="#FF4848"/>
<circle cx="21.1816" cy="25.7285" r="0.296875" fill="#FF4848"/>
<circle cx="20.7217" cy="24.1685" r="0.296875" fill="#FF4848"/>
<circle cx="19.8311" cy="22.3555" r="0.296875" fill="#FF4848"/>
<circle cx="19.4941" cy="23.6802" r="0.296875" fill="#FF4848"/>
<circle cx="20.0723" cy="24.9775" r="0.296875" fill="#FF4848"/>
<circle cx="18.8721" cy="24.4316" r="0.296875" fill="#FF4848"/>
<circle cx="18.499" cy="22.9282" r="0.296875" fill="#FF4848"/>
<circle cx="18.499" cy="21.3345" r="0.296875" fill="#FF4848"/>
<circle cx="18.499" cy="19.6851" r="0.296875" fill="#FF4848"/>
<circle cx="22.8477" cy="18.2847" r="0.296875" fill="#FF4848"/>
<circle cx="24.1631" cy="18.2847" r="0.296875" fill="#FF4848"/>
<circle cx="27.2178" cy="18.0137" r="0.296875" fill="#FF4848"/>
<circle cx="30.6455" cy="18.0137" r="0.296875" fill="#FF4848"/>
<circle cx="30.6455" cy="20.3726" r="0.296875" fill="#FF4848"/>
<circle cx="30.4551" cy="20.3726" r="0.296875" fill="#FF4848"/>
<circle cx="30.5889" cy="22.0757" r="0.296875" fill="#FF4848"/>
<circle cx="30.5889" cy="23.5752" r="0.296875" fill="#FF4848"/>
<circle cx="29.668" cy="24.5542" r="0.296875" fill="#FF4848"/>
<circle cx="30.3213" cy="24.5542" r="0.296875" fill="#FF4848"/>
<circle cx="28.0811" cy="24.8677" r="0.296875" transform="rotate(90 28.0811 24.8677)" fill="#FF4848"/>
<circle cx="26.501" cy="25.4263" r="0.296875" transform="rotate(90 26.501 25.4263)" fill="#FF4848"/>
<circle cx="24.125" cy="25.4263" r="0.296875" transform="rotate(90 24.125 25.4263)" fill="#FF4848"/>
<circle cx="21.7637" cy="25.4263" r="0.296875" transform="rotate(90 21.7637 25.4263)" fill="#FF4848"/>
<circle cx="19.3906" cy="24.9697" r="0.296875" transform="rotate(90 19.3906 24.9697)" fill="#FF4848"/>
<circle cx="28.4688" cy="17.1147" r="0.296875" transform="rotate(90 28.4688 17.1147)" fill="#FF4848"/>
<circle cx="29.6816" cy="16.2314" r="0.296875" transform="rotate(90 29.6816 16.2314)" fill="#FF4848"/>
<circle cx="29.834" cy="15.1748" r="0.296875" transform="rotate(90 29.834 15.1748)" fill="#FF4848"/>
<circle cx="29.8122" cy="13.7302" r="0.296875" transform="rotate(120 29.8122 13.7302)" fill="#FF4848"/>
<circle cx="28.8152" cy="12.9876" r="0.296875" transform="rotate(120 28.8152 12.9876)" fill="#FF4848"/>
<circle cx="27.7976" cy="12.4407" r="0.296875" transform="rotate(120 27.7976 12.4407)" fill="#FF4848"/>
<circle cx="26.6842" cy="12.1343" r="0.296875" transform="rotate(108.989 26.6842 12.1343)" fill="#FF4848"/>
<circle cx="25.8592" cy="12.2013" r="0.296875" transform="rotate(83.2463 25.8592 12.2013)" fill="#FF4848"/>
<circle cx="24.8153" cy="12.2013" r="0.296875" transform="rotate(83.2463 24.8153 12.2013)" fill="#FF4848"/>
<circle cx="30.5321" cy="16.2311" r="0.296875" transform="rotate(83.2463 30.5321 16.2311)" fill="#FF4848"/>
<circle cx="30.5321" cy="17.2614" r="0.296875" transform="rotate(83.2463 30.5321 17.2614)" fill="#FF4848"/>
<circle cx="30.5321" cy="18.319" r="0.296875" transform="rotate(83.2463 30.5321 18.319)" fill="#FF4848"/>
<circle cx="30.5321" cy="19.3219" r="0.296875" transform="rotate(83.2463 30.5321 19.3219)" fill="#FF4848"/>
<circle cx="30.4727" cy="19.9214" r="0.296875" transform="rotate(128.246 30.4727 19.9214)" fill="#FF4848"/>
<circle cx="30.4727" cy="21.1236" r="0.296875" transform="rotate(128.246 30.4727 21.1236)" fill="#FF4848"/>
<circle cx="30.4727" cy="22.3414" r="0.296875" transform="rotate(128.246 30.4727 22.3414)" fill="#FF4848"/>
<circle cx="30.4727" cy="23.5762" r="0.296875" transform="rotate(128.246 30.4727 23.5762)" fill="#FF4848"/>
<circle cx="29.7999" cy="24.3599" r="0.296875" transform="rotate(128.246 29.7999 24.3599)" fill="#FF4848"/>
<circle cx="29.3384" cy="25.6332" r="0.296875" transform="rotate(38.2463 29.3384 25.6332)" fill="#FF4848"/>
<circle cx="28.3404" cy="26.1323" r="0.296875" transform="rotate(38.2463 28.3404 26.1323)" fill="#FF4848"/>
<circle cx="27.2632" cy="26.4311" r="0.296875" transform="rotate(38.2463 27.2632 26.4311)" fill="#FF4848"/>
<circle cx="25.6835" cy="26.2355" r="0.296875" transform="rotate(83.2463 25.6835 26.2355)" fill="#FF4848"/>
<circle cx="24.3846" cy="26.2355" r="0.296875" transform="rotate(83.2463 24.3846 26.2355)" fill="#FF4848"/>
<circle cx="23.0409" cy="26.2355" r="0.296875" transform="rotate(83.2463 23.0409 26.2355)" fill="#FF4848"/>
<circle cx="21.786" cy="26.2355" r="0.296875" transform="rotate(83.2463 21.786 26.2355)" fill="#FF4848"/>
<circle cx="20.5155" cy="26.0309" r="0.296875" transform="rotate(83.2463 20.5155 26.0309)" fill="#FF4848"/>
<circle cx="19.3876" cy="25.5153" r="0.296875" transform="rotate(83.2463 19.3876 25.5153)" fill="#FF4848"/>
<circle cx="18.4501" cy="24.8883" r="0.296875" transform="rotate(83.2463 18.4501 24.8883)" fill="#FF4848"/>
<circle cx="17.8104" cy="24.2619" r="0.296875" transform="rotate(83.2463 17.8104 24.2619)" fill="#FF4848"/>
<circle cx="17.5272" cy="23.1857" r="0.296875" transform="rotate(83.2463 17.5272 23.1857)" fill="#FF4848"/>
<circle cx="17.5272" cy="21.8707" r="0.296875" transform="rotate(83.2463 17.5272 21.8707)" fill="#FF4848"/>
<circle cx="17.5272" cy="20.3078" r="0.296875" transform="rotate(83.2463 17.5272 20.3078)" fill="#FF4848"/>
<circle cx="17.5272" cy="18.8029" r="0.296875" transform="rotate(83.2463 17.5272 18.8029)" fill="#FF4848"/>
<circle cx="30.6053" cy="15.2799" r="0.296875" transform="rotate(83.2463 30.6053 15.2799)" fill="#FF4848"/>
<circle cx="30.2928" cy="14.2111" r="0.296875" transform="rotate(83.2463 30.2928 14.2111)" fill="#FF4848"/>
<circle cx="29.0059" cy="18.5605" r="0.296875" fill="#FF4848"/>
<circle cx="30.0713" cy="17.7847" r="0.296875" fill="#FF4848"/>
<circle cx="29.4619" cy="19.8872" r="0.296875" fill="#FF4848"/>
<circle cx="28.2666" cy="17.2485" r="0.296875" fill="#FF4848"/>
<circle cx="29.332" cy="16.4727" r="0.296875" fill="#FF4848"/>
<circle cx="24.5605" cy="17.6074" r="0.296875" fill="#FF4848"/>
<circle cx="24.998" cy="20.4663" r="0.296875" fill="#FF4848"/>
<circle cx="24.998" cy="22.3188" r="0.296875" fill="#FF4848"/>
<circle cx="21.9336" cy="23.0654" r="0.296875" fill="#FF4848"/>
<circle cx="23.3907" cy="20.6614" r="0.296875" transform="rotate(75 23.3907 20.6614)" fill="#FF4848"/>
<circle cx="23.3907" cy="22.2562" r="0.296875" transform="rotate(75 23.3907 22.2562)" fill="#FF4848"/>
<circle cx="29.5059" cy="22.2562" r="0.296875" transform="rotate(75 29.5059 22.2562)" fill="#FF4848"/>
<circle cx="28.3594" cy="23.8016" r="0.296875" transform="rotate(75 28.3594 23.8016)" fill="#FF4848"/>
<circle cx="25.0059" cy="24.2908" r="0.296875" transform="rotate(75 25.0059 24.2908)" fill="#FF4848"/>
<circle cx="19.5137" cy="17.9668" r="0.296875" fill="#FF4848"/>
<circle cx="21.459" cy="17.9668" r="0.296875" fill="#FF4848"/>
<circle cx="21.7695" cy="17.4517" r="0.296875" fill="#FF4848"/>
<circle cx="24.1113" cy="17.9668" r="0.296875" fill="#FF4848"/>
<circle cx="26.4482" cy="17.9668" r="0.296875" fill="#FF4848"/>
<circle cx="29.0059" cy="17.9668" r="0.296875" fill="#FF4848"/>
<circle cx="28.2666" cy="16.6548" r="0.296875" fill="#FF4848"/>
<circle cx="24.5605" cy="17.0137" r="0.296875" fill="#FF4848"/>
<circle cx="24.998" cy="19.8726" r="0.296875" fill="#FF4848"/>
<circle cx="24.998" cy="21.7251" r="0.296875" fill="#FF4848"/>
<circle cx="21.9336" cy="22.4717" r="0.296875" fill="#FF4848"/>
<circle cx="23.9649" cy="20.5081" r="0.296875" transform="rotate(75 23.9649 20.5081)" fill="#FF4848"/>
<circle cx="23.9649" cy="22.1029" r="0.296875" transform="rotate(75 23.9649 22.1029)" fill="#FF4848"/>
<circle cx="30.0801" cy="22.1029" r="0.296875" transform="rotate(75 30.0801 22.1029)" fill="#FF4848"/>
<circle cx="28.9336" cy="23.6483" r="0.296875" transform="rotate(75 28.9336 23.6483)" fill="#FF4848"/>
<circle cx="25.5801" cy="24.1375" r="0.296875" transform="rotate(75 25.5801 24.1375)" fill="#FF4848"/>
<circle cx="19.5137" cy="19.2788" r="0.296875" fill="#FF4848"/>
<circle cx="21.459" cy="19.2788" r="0.296875" fill="#FF4848"/>
<circle cx="24.1113" cy="19.2788" r="0.296875" fill="#FF4848"/>
<circle cx="26.4482" cy="19.2788" r="0.296875" fill="#FF4848"/>
<circle cx="26.4482" cy="20.5249" r="0.296875" fill="#FF4848"/>
<circle cx="26.4482" cy="24.3711" r="0.296875" fill="#FF4848"/>
<circle cx="25.5176" cy="24.7285" r="0.296875" fill="#FF4848"/>
<circle cx="23.2988" cy="24.7285" r="0.296875" fill="#FF4848"/>
<circle cx="21.9336" cy="24.7285" r="0.296875" fill="#FF4848"/>
<circle cx="20.6641" cy="24.7285" r="0.296875" fill="#FF4848"/>
<circle cx="20.2041" cy="23.1685" r="0.296875" fill="#FF4848"/>
<circle cx="19.3135" cy="21.3555" r="0.296875" fill="#FF4848"/>
<circle cx="18.9766" cy="22.6802" r="0.296875" fill="#FF4848"/>
<circle cx="19.5547" cy="23.9775" r="0.296875" fill="#FF4848"/>
<circle cx="18.3545" cy="23.4316" r="0.296875" fill="#FF4848"/>
<circle cx="17.9814" cy="21.9282" r="0.296875" fill="#FF4848"/>
<circle cx="17.9814" cy="20.3345" r="0.296875" fill="#FF4848"/>
<circle cx="17.9814" cy="18.6851" r="0.296875" fill="#FF4848"/>
<circle cx="22.3301" cy="17.2847" r="0.296875" fill="#FF4848"/>
<circle cx="23.6455" cy="17.2847" r="0.296875" fill="#FF4848"/>
<circle cx="26.7002" cy="17.0137" r="0.296875" fill="#FF4848"/>
<circle cx="30.1279" cy="19.3726" r="0.296875" fill="#FF4848"/>
<circle cx="30.1279" cy="17.0137" r="0.296875" fill="#FF4848"/>
<circle cx="29.9375" cy="19.3726" r="0.296875" fill="#FF4848"/>
<circle cx="30.0713" cy="21.0757" r="0.296875" fill="#FF4848"/>
<circle cx="30.0713" cy="22.5752" r="0.296875" fill="#FF4848"/>
<circle cx="29.1504" cy="23.5542" r="0.296875" fill="#FF4848"/>
<circle cx="29.8037" cy="23.5542" r="0.296875" fill="#FF4848"/>
<circle cx="29.0811" cy="24.3501" r="0.296875" transform="rotate(90 29.0811 24.3501)" fill="#FF4848"/>
<circle cx="27.501" cy="24.9087" r="0.296875" transform="rotate(90 27.501 24.9087)" fill="#FF4848"/>
<circle cx="25.125" cy="24.9087" r="0.296875" transform="rotate(90 25.125 24.9087)" fill="#FF4848"/>
<circle cx="22.7637" cy="24.9087" r="0.296875" transform="rotate(90 22.7637 24.9087)" fill="#FF4848"/>
<circle cx="20.3906" cy="24.4521" r="0.296875" transform="rotate(90 20.3906 24.4521)" fill="#FF4848"/>
<circle cx="29.4688" cy="16.5972" r="0.296875" transform="rotate(90 29.4688 16.5972)" fill="#FF4848"/>
<circle cx="30.6816" cy="15.7139" r="0.296875" transform="rotate(90 30.6816 15.7139)" fill="#FF4848"/>
<circle cx="30.834" cy="14.6572" r="0.296875" transform="rotate(90 30.834 14.6572)" fill="#FF4848"/>
<circle cx="30.9372" cy="13.782" r="0.296875" transform="rotate(120 30.9372 13.782)" fill="#FF4848"/>
<circle cx="29.9402" cy="13.0393" r="0.296875" transform="rotate(120 29.9402 13.0393)" fill="#FF4848"/>
<circle cx="28.9226" cy="12.4925" r="0.296875" transform="rotate(120 28.9226 12.4925)" fill="#FF4848"/>
<circle cx="27.7975" cy="11.9703" r="0.296875" transform="rotate(108.989 27.7975 11.9703)" fill="#FF4848"/>
<circle cx="26.7909" cy="11.57" r="0.296875" transform="rotate(83.2463 26.7909 11.57)" fill="#FF4848"/>
<circle cx="25.7469" cy="11.57" r="0.296875" transform="rotate(83.2463 25.7469 11.57)" fill="#FF4848"/>
<circle cx="31.4637" cy="15.5997" r="0.296875" transform="rotate(83.2463 31.4637 15.5997)" fill="#FF4848"/>
<circle cx="31.4637" cy="16.63" r="0.296875" transform="rotate(83.2463 31.4637 16.63)" fill="#FF4848"/>
<circle cx="31.4637" cy="17.6876" r="0.296875" transform="rotate(83.2463 31.4637 17.6876)" fill="#FF4848"/>
<circle cx="31.4637" cy="18.6906" r="0.296875" transform="rotate(83.2463 31.4637 18.6906)" fill="#FF4848"/>
<circle cx="31.5782" cy="20.1343" r="0.296875" transform="rotate(128.246 31.5782 20.1343)" fill="#FF4848"/>
<circle cx="31.5782" cy="21.3365" r="0.296875" transform="rotate(128.246 31.5782 21.3365)" fill="#FF4848"/>
<circle cx="31.5782" cy="22.5543" r="0.296875" transform="rotate(128.246 31.5782 22.5543)" fill="#FF4848"/>
<circle cx="31.5782" cy="23.7891" r="0.296875" transform="rotate(128.246 31.5782 23.7891)" fill="#FF4848"/>
<circle cx="30.9053" cy="24.5728" r="0.296875" transform="rotate(128.246 30.9053 24.5728)" fill="#FF4848"/>
<circle cx="29.5513" cy="24.5278" r="0.296875" transform="rotate(38.2463 29.5513 24.5278)" fill="#FF4848"/>
<circle cx="28.5533" cy="25.0268" r="0.296875" transform="rotate(38.2463 28.5533 25.0268)" fill="#FF4848"/>
<circle cx="27.4761" cy="25.3256" r="0.296875" transform="rotate(38.2463 27.4761 25.3256)" fill="#FF4848"/>
<circle cx="26.6171" cy="25.6041" r="0.296875" transform="rotate(83.2463 26.6171 25.6041)" fill="#FF4848"/>
<circle cx="25.3182" cy="25.6041" r="0.296875" transform="rotate(83.2463 25.3182 25.6041)" fill="#FF4848"/>
<circle cx="23.9745" cy="25.6041" r="0.296875" transform="rotate(83.2463 23.9745 25.6041)" fill="#FF4848"/>
<circle cx="22.7196" cy="25.6041" r="0.296875" transform="rotate(83.2463 22.7196 25.6041)" fill="#FF4848"/>
<circle cx="21.4491" cy="25.3996" r="0.296875" transform="rotate(83.2463 21.4491 25.3996)" fill="#FF4848"/>
<circle cx="20.3212" cy="24.8839" r="0.296875" transform="rotate(83.2463 20.3212 24.8839)" fill="#FF4848"/>
<circle cx="19.3837" cy="24.257" r="0.296875" transform="rotate(83.2463 19.3837 24.257)" fill="#FF4848"/>
<circle cx="18.744" cy="23.631" r="0.296875" transform="rotate(83.2463 18.744 23.631)" fill="#FF4848"/>
<circle cx="18.4608" cy="22.5548" r="0.296875" transform="rotate(83.2463 18.4608 22.5548)" fill="#FF4848"/>
<circle cx="18.4608" cy="21.2399" r="0.296875" transform="rotate(83.2463 18.4608 21.2399)" fill="#FF4848"/>
<circle cx="18.4608" cy="19.6769" r="0.296875" transform="rotate(83.2463 18.4608 19.6769)" fill="#FF4848"/>
<circle cx="18.4608" cy="18.172" r="0.296875" transform="rotate(83.2463 18.4608 18.172)" fill="#FF4848"/>
<circle cx="31.5389" cy="14.6491" r="0.296875" transform="rotate(83.2463 31.5389 14.6491)" fill="#FF4848"/>
<circle cx="31.2264" cy="13.5802" r="0.296875" transform="rotate(83.2463 31.2264 13.5802)" fill="#FF4848"/>
<circle cx="29.0059" cy="19.2788" r="0.296875" fill="#FF4848"/>
<circle cx="29.4619" cy="20.6055" r="0.296875" fill="#FF4848"/>
<circle cx="28.2666" cy="17.9668" r="0.296875" fill="#FF4848"/>
<circle cx="29.332" cy="17.1909" r="0.296875" fill="#FF4848"/>
<circle cx="24.5605" cy="18.3262" r="0.296875" fill="#FF4848"/>
<circle cx="24.998" cy="21.1851" r="0.296875" fill="#FF4848"/>
<circle cx="24.998" cy="23.0376" r="0.296875" fill="#FF4848"/>
<circle cx="21.9336" cy="23.7842" r="0.296875" fill="#FF4848"/>
<circle cx="22.6973" cy="20.8475" r="0.296875" transform="rotate(75 22.6973 20.8475)" fill="#FF4848"/>
<circle cx="22.6973" cy="22.4427" r="0.296875" transform="rotate(75 22.6973 22.4427)" fill="#FF4848"/>
<circle cx="28.8125" cy="22.4427" r="0.296875" transform="rotate(75 28.8125 22.4427)" fill="#FF4848"/>
<circle cx="27.6661" cy="23.9881" r="0.296875" transform="rotate(75 27.6661 23.9881)" fill="#FF4848"/>
<circle cx="24.3125" cy="24.4774" r="0.296875" transform="rotate(75 24.3125 24.4774)" fill="#FF4848"/>
<circle cx="20.1074" cy="19.2788" r="0.296875" fill="#FF4848"/>
<circle cx="22.0527" cy="19.2788" r="0.296875" fill="#FF4848"/>
<circle cx="24.7051" cy="19.2788" r="0.296875" fill="#FF4848"/>
<circle cx="27.042" cy="19.2788" r="0.296875" fill="#FF4848"/>
<circle cx="27.042" cy="20.5249" r="0.296875" fill="#FF4848"/>
<circle cx="27.042" cy="24.3711" r="0.296875" fill="#FF4848"/>
<circle cx="26.1113" cy="24.7285" r="0.296875" fill="#FF4848"/>
<circle cx="23.8926" cy="24.7285" r="0.296875" fill="#FF4848"/>
<circle cx="22.5273" cy="24.7285" r="0.296875" fill="#FF4848"/>
<circle cx="21.2578" cy="24.7285" r="0.296875" fill="#FF4848"/>
<circle cx="20.7979" cy="23.1685" r="0.296875" fill="#FF4848"/>
<circle cx="19.9072" cy="21.3555" r="0.296875" fill="#FF4848"/>
<circle cx="19.5703" cy="22.6802" r="0.296875" fill="#FF4848"/>
<circle cx="20.1484" cy="23.9775" r="0.296875" fill="#FF4848"/>
<circle cx="18.9482" cy="23.4316" r="0.296875" fill="#FF4848"/>
<circle cx="18.5752" cy="21.9282" r="0.296875" fill="#FF4848"/>
<circle cx="18.5752" cy="20.3345" r="0.296875" fill="#FF4848"/>
<circle cx="18.5752" cy="18.6851" r="0.296875" fill="#FF4848"/>
<circle cx="22.9238" cy="17.2847" r="0.296875" fill="#FF4848"/>
<circle cx="24.2393" cy="17.2847" r="0.296875" fill="#FF4848"/>
<circle cx="30.7217" cy="19.3726" r="0.296875" fill="#FF4848"/>
<circle cx="27.2939" cy="17.0137" r="0.296875" fill="#FF4848"/>
<circle cx="30.7217" cy="17.0137" r="0.296875" fill="#FF4848"/>
<circle cx="30.5312" cy="19.3726" r="0.296875" fill="#FF4848"/>
<circle cx="30.665" cy="21.0757" r="0.296875" fill="#FF4848"/>
<circle cx="30.665" cy="22.5752" r="0.296875" fill="#FF4848"/>
<circle cx="29.7441" cy="23.5542" r="0.296875" fill="#FF4848"/>
<circle cx="30.3975" cy="23.5542" r="0.296875" fill="#FF4848"/>
<circle cx="29.0811" cy="24.9438" r="0.296875" transform="rotate(90 29.0811 24.9438)" fill="#FF4848"/>
<circle cx="27.501" cy="25.5024" r="0.296875" transform="rotate(90 27.501 25.5024)" fill="#FF4848"/>
<circle cx="25.125" cy="25.5024" r="0.296875" transform="rotate(90 25.125 25.5024)" fill="#FF4848"/>
<circle cx="22.7637" cy="25.5024" r="0.296875" transform="rotate(90 22.7637 25.5024)" fill="#FF4848"/>
<circle cx="20.3906" cy="25.0459" r="0.296875" transform="rotate(90 20.3906 25.0459)" fill="#FF4848"/>
<circle cx="29.4688" cy="17.1909" r="0.296875" transform="rotate(90 29.4688 17.1909)" fill="#FF4848"/>
<circle cx="30.6816" cy="16.3076" r="0.296875" transform="rotate(90 30.6816 16.3076)" fill="#FF4848"/>
<circle cx="30.834" cy="15.251" r="0.296875" transform="rotate(90 30.834 15.251)" fill="#FF4848"/>
<circle cx="30.6404" cy="14.2962" r="0.296875" transform="rotate(120 30.6404 14.2962)" fill="#FF4848"/>
<circle cx="29.6433" cy="13.5535" r="0.296875" transform="rotate(120 29.6433 13.5535)" fill="#FF4848"/>
<circle cx="28.6257" cy="13.0061" r="0.296875" transform="rotate(120 28.6257 13.0061)" fill="#FF4848"/>
<circle cx="27.6051" cy="12.5313" r="0.296875" transform="rotate(108.989 27.6051 12.5313)" fill="#FF4848"/>
<circle cx="26.8631" cy="12.1588" r="0.296875" transform="rotate(83.2463 26.8631 12.1588)" fill="#FF4848"/>
<circle cx="25.8192" cy="12.1588" r="0.296875" transform="rotate(83.2463 25.8192 12.1588)" fill="#FF4848"/>
<circle cx="31.536" cy="16.1886" r="0.296875" transform="rotate(83.2463 31.536 16.1886)" fill="#FF4848"/>
<circle cx="31.536" cy="17.2189" r="0.296875" transform="rotate(83.2463 31.536 17.2189)" fill="#FF4848"/>
<circle cx="31.536" cy="18.2765" r="0.296875" transform="rotate(83.2463 31.536 18.2765)" fill="#FF4848"/>
<circle cx="31.536" cy="19.2794" r="0.296875" transform="rotate(83.2463 31.536 19.2794)" fill="#FF4848"/>
<circle cx="31.213" cy="20.6011" r="0.296875" transform="rotate(128.246 31.213 20.6011)" fill="#FF4848"/>
<circle cx="31.213" cy="21.8033" r="0.296875" transform="rotate(128.246 31.213 21.8033)" fill="#FF4848"/>
<circle cx="31.213" cy="23.0211" r="0.296875" transform="rotate(128.246 31.213 23.0211)" fill="#FF4848"/>
<circle cx="31.213" cy="24.2559" r="0.296875" transform="rotate(128.246 31.213 24.2559)" fill="#FF4848"/>
<circle cx="30.5401" cy="25.0396" r="0.296875" transform="rotate(128.246 30.5401 25.0396)" fill="#FF4848"/>
<circle cx="30.0181" cy="24.893" r="0.296875" transform="rotate(38.2463 30.0181 24.893)" fill="#FF4848"/>
<circle cx="29.0201" cy="25.392" r="0.296875" transform="rotate(38.2463 29.0201 25.392)" fill="#FF4848"/>
<circle cx="27.9429" cy="25.6909" r="0.296875" transform="rotate(38.2463 27.9429 25.6909)" fill="#FF4848"/>
<circle cx="26.6893" cy="26.1925" r="0.296875" transform="rotate(83.2463 26.6893 26.1925)" fill="#FF4848"/>
<circle cx="25.3905" cy="26.1925" r="0.296875" transform="rotate(83.2463 25.3905 26.1925)" fill="#FF4848"/>
<circle cx="24.0467" cy="26.1925" r="0.296875" transform="rotate(83.2463 24.0467 26.1925)" fill="#FF4848"/>
<circle cx="22.7919" cy="26.1925" r="0.296875" transform="rotate(83.2463 22.7919 26.1925)" fill="#FF4848"/>
<circle cx="21.5213" cy="25.9879" r="0.296875" transform="rotate(83.2463 21.5213 25.9879)" fill="#FF4848"/>
<circle cx="20.3934" cy="25.4723" r="0.296875" transform="rotate(83.2463 20.3934 25.4723)" fill="#FF4848"/>
<circle cx="19.4559" cy="24.8454" r="0.296875" transform="rotate(83.2463 19.4559 24.8454)" fill="#FF4848"/>
<circle cx="18.8163" cy="24.2189" r="0.296875" transform="rotate(83.2463 18.8163 24.2189)" fill="#FF4848"/>
<circle cx="18.5331" cy="23.1427" r="0.296875" transform="rotate(83.2463 18.5331 23.1427)" fill="#FF4848"/>
<circle cx="18.5331" cy="21.8278" r="0.296875" transform="rotate(83.2463 18.5331 21.8278)" fill="#FF4848"/>
<circle cx="18.5331" cy="20.2648" r="0.296875" transform="rotate(83.2463 18.5331 20.2648)" fill="#FF4848"/>
<circle cx="18.5331" cy="18.7599" r="0.296875" transform="rotate(83.2463 18.5331 18.7599)" fill="#FF4848"/>
<circle cx="31.6112" cy="15.237" r="0.296875" transform="rotate(83.2463 31.6112 15.237)" fill="#FF4848"/>
<circle cx="31.2987" cy="14.1681" r="0.296875" transform="rotate(83.2463 31.2987 14.1681)" fill="#FF4848"/>
<circle cx="27.5596" cy="20.9976" r="0.296875" fill="#FF4848"/>
<circle cx="26.3027" cy="17.9668" r="0.296875" fill="#FF4848"/>
<circle cx="26.8203" cy="19.6851" r="0.296875" fill="#FF4848"/>
<circle cx="26.8203" cy="20.9312" r="0.296875" fill="#FF4848"/>
<circle cx="26.8203" cy="24.7773" r="0.296875" fill="#FF4848"/>
<circle cx="25.8896" cy="25.1348" r="0.296875" fill="#FF4848"/>
<circle cx="23.6709" cy="25.1348" r="0.296875" fill="#FF4848"/>
<circle cx="22.3057" cy="25.1348" r="0.296875" fill="#FF4848"/>
<circle cx="21.0361" cy="25.1348" r="0.296875" fill="#FF4848"/>
<circle cx="20.5762" cy="23.5747" r="0.296875" fill="#FF4848"/>
<circle cx="19.6855" cy="21.7617" r="0.296875" fill="#FF4848"/>
<circle cx="19.3486" cy="23.0864" r="0.296875" fill="#FF4848"/>
<circle cx="19.9258" cy="24.3838" r="0.296875" fill="#FF4848"/>
<circle cx="18.7256" cy="23.8379" r="0.296875" fill="#FF4848"/>
<circle cx="18.3525" cy="22.3345" r="0.296875" fill="#FF4848"/>
<circle cx="18.3525" cy="20.7407" r="0.296875" fill="#FF4848"/>
<circle cx="18.3525" cy="19.0913" r="0.296875" fill="#FF4848"/>
<circle cx="22.7012" cy="17.6909" r="0.296875" fill="#FF4848"/>
<circle cx="30.499" cy="19.7788" r="0.296875" fill="#FF4848"/>
<circle cx="24.0166" cy="17.6909" r="0.296875" fill="#FF4848"/>
<circle cx="27.0713" cy="17.4199" r="0.296875" fill="#FF4848"/>
<circle cx="30.499" cy="17.4199" r="0.296875" fill="#FF4848"/>
<circle cx="30.3086" cy="19.7788" r="0.296875" fill="#FF4848"/>
<circle cx="30.4424" cy="21.4819" r="0.296875" fill="#FF4848"/>
<circle cx="30.4424" cy="22.9814" r="0.296875" fill="#FF4848"/>
<circle cx="29.5215" cy="23.9604" r="0.296875" fill="#FF4848"/>
<circle cx="30.1748" cy="23.9604" r="0.296875" fill="#FF4848"/>
<circle cx="28.6748" cy="24.7212" r="0.296875" transform="rotate(90 28.6748 24.7212)" fill="#FF4848"/>
<circle cx="27.0947" cy="25.2798" r="0.296875" transform="rotate(90 27.0947 25.2798)" fill="#FF4848"/>
<circle cx="24.7188" cy="25.2798" r="0.296875" transform="rotate(90 24.7188 25.2798)" fill="#FF4848"/>
<circle cx="22.3574" cy="25.2798" r="0.296875" transform="rotate(90 22.3574 25.2798)" fill="#FF4848"/>
<circle cx="19.9844" cy="24.8232" r="0.296875" transform="rotate(90 19.9844 24.8232)" fill="#FF4848"/>
<circle cx="29.0625" cy="16.9683" r="0.296875" transform="rotate(90 29.0625 16.9683)" fill="#FF4848"/>
<circle cx="30.2754" cy="16.085" r="0.296875" transform="rotate(90 30.2754 16.085)" fill="#FF4848"/>
<circle cx="30.4277" cy="15.0283" r="0.296875" transform="rotate(90 30.4277 15.0283)" fill="#FF4848"/>
<circle cx="30.4001" cy="13.9002" r="0.296875" transform="rotate(120 30.4001 13.9002)" fill="#FF4848"/>
<circle cx="29.4031" cy="13.1575" r="0.296875" transform="rotate(120 29.4031 13.1575)" fill="#FF4848"/>
<circle cx="28.3855" cy="12.6106" r="0.296875" transform="rotate(120 28.3855 12.6106)" fill="#FF4848"/>
<circle cx="27.2936" cy="12.189" r="0.296875" transform="rotate(108.989 27.2936 12.189)" fill="#FF4848"/>
<circle cx="26.4315" cy="11.986" r="0.296875" transform="rotate(83.2463 26.4315 11.986)" fill="#FF4848"/>
<circle cx="25.3876" cy="11.986" r="0.296875" transform="rotate(83.2463 25.3876 11.986)" fill="#FF4848"/>
<circle cx="31.1044" cy="16.0158" r="0.296875" transform="rotate(83.2463 31.1044 16.0158)" fill="#FF4848"/>
<circle cx="31.1044" cy="17.046" r="0.296875" transform="rotate(83.2463 31.1044 17.046)" fill="#FF4848"/>
<circle cx="31.1044" cy="18.1037" r="0.296875" transform="rotate(83.2463 31.1044 18.1037)" fill="#FF4848"/>
<circle cx="31.1044" cy="19.1066" r="0.296875" transform="rotate(83.2463 31.1044 19.1066)" fill="#FF4848"/>
<circle cx="31.0294" cy="20.1744" r="0.296875" transform="rotate(128.246 31.0294 20.1744)" fill="#FF4848"/>
<circle cx="31.0294" cy="21.3765" r="0.296875" transform="rotate(128.246 31.0294 21.3765)" fill="#FF4848"/>
<circle cx="31.0294" cy="22.5943" r="0.296875" transform="rotate(128.246 31.0294 22.5943)" fill="#FF4848"/>
<circle cx="31.0294" cy="23.8292" r="0.296875" transform="rotate(128.246 31.0294 23.8292)" fill="#FF4848"/>
<circle cx="30.3565" cy="24.6129" r="0.296875" transform="rotate(128.246 30.3565 24.6129)" fill="#FF4848"/>
<circle cx="29.5914" cy="25.0766" r="0.296875" transform="rotate(38.2463 29.5914 25.0766)" fill="#FF4848"/>
<circle cx="28.5933" cy="25.5756" r="0.296875" transform="rotate(38.2463 28.5933 25.5756)" fill="#FF4848"/>
<circle cx="27.5162" cy="25.8745" r="0.296875" transform="rotate(38.2463 27.5162 25.8745)" fill="#FF4848"/>
<circle cx="26.2577" cy="26.0206" r="0.296875" transform="rotate(83.2463 26.2577 26.0206)" fill="#FF4848"/>
<circle cx="24.9588" cy="26.0206" r="0.296875" transform="rotate(83.2463 24.9588 26.0206)" fill="#FF4848"/>
<circle cx="23.6151" cy="26.0206" r="0.296875" transform="rotate(83.2463 23.6151 26.0206)" fill="#FF4848"/>
<circle cx="22.3602" cy="26.0206" r="0.296875" transform="rotate(83.2463 22.3602 26.0206)" fill="#FF4848"/>
<circle cx="21.0897" cy="25.8161" r="0.296875" transform="rotate(83.2463 21.0897 25.8161)" fill="#FF4848"/>
<circle cx="19.9618" cy="25.3004" r="0.296875" transform="rotate(83.2463 19.9618 25.3004)" fill="#FF4848"/>
<circle cx="19.0243" cy="24.6735" r="0.296875" transform="rotate(83.2463 19.0243 24.6735)" fill="#FF4848"/>
<circle cx="18.3846" cy="24.047" r="0.296875" transform="rotate(83.2463 18.3846 24.047)" fill="#FF4848"/>
<circle cx="18.1014" cy="22.9708" r="0.296875" transform="rotate(83.2463 18.1014 22.9708)" fill="#FF4848"/>
<circle cx="18.1014" cy="21.6559" r="0.296875" transform="rotate(83.2463 18.1014 21.6559)" fill="#FF4848"/>
<circle cx="18.1014" cy="20.0929" r="0.296875" transform="rotate(83.2463 18.1014 20.0929)" fill="#FF4848"/>
<circle cx="18.1014" cy="18.588" r="0.296875" transform="rotate(83.2463 18.1014 18.588)" fill="#FF4848"/>
<circle cx="31.1796" cy="15.0651" r="0.296875" transform="rotate(83.2463 31.1796 15.0651)" fill="#FF4848"/>
<circle cx="30.8671" cy="13.9962" r="0.296875" transform="rotate(83.2463 30.8671 13.9962)" fill="#FF4848"/>
<circle cx="22.5967" cy="18.3262" r="0.296875" fill="#FF4848"/>
<circle cx="23.0342" cy="21.1851" r="0.296875" fill="#FF4848"/>
<circle cx="23.0342" cy="23.0376" r="0.296875" fill="#FF4848"/>
<circle cx="19.9697" cy="23.7842" r="0.296875" fill="#FF4848"/>
<circle cx="29.5996" cy="19.2788" r="0.296875" fill="#FF4848"/>
<circle cx="30.0557" cy="20.6055" r="0.296875" fill="#FF4848"/>
<circle cx="30.5869" cy="20.6055" r="0.296875" fill="#FF4848"/>
<circle cx="28.8604" cy="17.9668" r="0.296875" fill="#FF4848"/>
<circle cx="29.9258" cy="17.1909" r="0.296875" fill="#FF4848"/>
<circle cx="25.1543" cy="18.3262" r="0.296875" fill="#FF4848"/>
<circle cx="25.5918" cy="21.1851" r="0.296875" fill="#FF4848"/>
<circle cx="25.5918" cy="23.0376" r="0.296875" fill="#FF4848"/>
<circle cx="22.5273" cy="23.7842" r="0.296875" fill="#FF4848"/>
<circle cx="22.8506" cy="21.4212" r="0.296875" transform="rotate(75 22.8506 21.4212)" fill="#FF4848"/>
<circle cx="22.8506" cy="23.0159" r="0.296875" transform="rotate(75 22.8506 23.0159)" fill="#FF4848"/>
<circle cx="28.9659" cy="23.0159" r="0.296875" transform="rotate(75 28.9659 23.0159)" fill="#FF4848"/>
<circle cx="27.8194" cy="24.5613" r="0.296875" transform="rotate(75 27.8194 24.5613)" fill="#FF4848"/>
<circle cx="24.4659" cy="25.0506" r="0.296875" transform="rotate(75 24.4659 25.0506)" fill="#FF4848"/>
<circle cx="20.7197" cy="19.2788" r="0.296875" fill="#FF4848"/>
<circle cx="22.665" cy="19.2788" r="0.296875" fill="#FF4848"/>
<circle cx="25.3174" cy="19.2788" r="0.296875" fill="#FF4848"/>
<circle cx="27.6543" cy="19.2788" r="0.296875" fill="#FF4848"/>
<circle cx="28.1719" cy="20.9976" r="0.296875" fill="#FF4848"/>
<circle cx="30.2119" cy="19.2788" r="0.296875" fill="#FF4848"/>
<circle cx="30.7432" cy="19.2788" r="0.296875" fill="#FF4848"/>
<circle cx="29.4727" cy="17.9668" r="0.296875" fill="#FF4848"/>
<circle cx="30.5381" cy="17.1909" r="0.296875" fill="#FF4848"/>
<circle cx="25.7666" cy="18.3262" r="0.296875" fill="#FF4848"/>
<circle cx="26.2041" cy="21.1851" r="0.296875" fill="#FF4848"/>
<circle cx="26.2041" cy="23.0376" r="0.296875" fill="#FF4848"/>
<circle cx="23.1396" cy="23.7842" r="0.296875" fill="#FF4848"/>
<circle cx="23.0098" cy="22.0135" r="0.296875" transform="rotate(75 23.0098 22.0135)" fill="#FF4848"/>
<circle cx="23.0098" cy="23.6087" r="0.296875" transform="rotate(75 23.0098 23.6087)" fill="#FF4848"/>
<circle cx="29.125" cy="23.6087" r="0.296875" transform="rotate(75 29.125 23.6087)" fill="#FF4848"/>
<circle cx="27.9786" cy="25.1541" r="0.296875" transform="rotate(75 27.9786 25.1541)" fill="#FF4848"/>
<circle cx="24.625" cy="25.6434" r="0.296875" transform="rotate(75 24.625 25.6434)" fill="#FF4848"/>
<circle cx="20.1074" cy="18.5605" r="0.296875" fill="#FF4848"/>
<circle cx="20.418" cy="18.0454" r="0.296875" fill="#FF4848"/>
<circle cx="22.0527" cy="18.5605" r="0.296875" fill="#FF4848"/>
<circle cx="24.7051" cy="18.5605" r="0.296875" fill="#FF4848"/>
<circle cx="27.042" cy="18.5605" r="0.296875" fill="#FF4848"/>
<circle cx="27.5596" cy="20.2788" r="0.296875" fill="#FF4848"/>
<circle cx="26.3027" cy="17.2485" r="0.296875" fill="#FF4848"/>
<circle cx="22.5967" cy="17.6074" r="0.296875" fill="#FF4848"/>
<circle cx="23.0342" cy="20.4663" r="0.296875" fill="#FF4848"/>
<circle cx="23.0342" cy="22.3188" r="0.296875" fill="#FF4848"/>
<circle cx="19.9697" cy="23.0654" r="0.296875" fill="#FF4848"/>
<circle cx="29.5996" cy="18.5605" r="0.296875" fill="#FF4848"/>
<circle cx="30.665" cy="17.7847" r="0.296875" fill="#FF4848"/>
<circle cx="30.0557" cy="19.8872" r="0.296875" fill="#FF4848"/>
<circle cx="30.5869" cy="19.8872" r="0.296875" fill="#FF4848"/>
<circle cx="28.8604" cy="17.2485" r="0.296875" fill="#FF4848"/>
<circle cx="29.9258" cy="16.4727" r="0.296875" fill="#FF4848"/>
<circle cx="25.1543" cy="17.6074" r="0.296875" fill="#FF4848"/>
<circle cx="25.5918" cy="20.4663" r="0.296875" fill="#FF4848"/>
<circle cx="25.5918" cy="22.3188" r="0.296875" fill="#FF4848"/>
<circle cx="22.5273" cy="23.0654" r="0.296875" fill="#FF4848"/>
<circle cx="23.545" cy="21.2352" r="0.296875" transform="rotate(75 23.545 21.2352)" fill="#FF4848"/>
<circle cx="23.545" cy="22.8304" r="0.296875" transform="rotate(75 23.545 22.8304)" fill="#FF4848"/>
<circle cx="29.6602" cy="22.8304" r="0.296875" transform="rotate(75 29.6602 22.8304)" fill="#FF4848"/>
<circle cx="28.5137" cy="24.3758" r="0.296875" transform="rotate(75 28.5137 24.3758)" fill="#FF4848"/>
<circle cx="25.1602" cy="24.8651" r="0.296875" transform="rotate(75 25.1602 24.8651)" fill="#FF4848"/>
<circle cx="20.7197" cy="18.5605" r="0.296875" fill="#FF4848"/>
<circle cx="22.665" cy="18.5605" r="0.296875" fill="#FF4848"/>
<circle cx="25.3174" cy="18.5605" r="0.296875" fill="#FF4848"/>
<circle cx="27.6543" cy="18.5605" r="0.296875" fill="#FF4848"/>
<circle cx="28.1719" cy="20.2788" r="0.296875" fill="#FF4848"/>
<circle cx="26.915" cy="17.2485" r="0.296875" fill="#FF4848"/>
<circle cx="23.209" cy="17.6074" r="0.296875" fill="#FF4848"/>
<circle cx="23.6465" cy="20.4663" r="0.296875" fill="#FF4848"/>
<circle cx="23.6465" cy="22.3188" r="0.296875" fill="#FF4848"/>
<circle cx="20.582" cy="23.0654" r="0.296875" fill="#FF4848"/>
<circle cx="30.2119" cy="18.5605" r="0.296875" fill="#FF4848"/>
<circle cx="30.7432" cy="18.5605" r="0.296875" fill="#FF4848"/>
<circle cx="29.4727" cy="17.2485" r="0.296875" fill="#FF4848"/>
<circle cx="30.5381" cy="16.4727" r="0.296875" fill="#FF4848"/>
<circle cx="25.7666" cy="17.6074" r="0.296875" fill="#FF4848"/>
<circle cx="26.2041" cy="20.4663" r="0.296875" fill="#FF4848"/>
<circle cx="26.2041" cy="22.3188" r="0.296875" fill="#FF4848"/>
<circle cx="23.1396" cy="23.0654" r="0.296875" fill="#FF4848"/>
<circle cx="23.7032" cy="21.8275" r="0.296875" transform="rotate(75 23.7032 21.8275)" fill="#FF4848"/>
<circle cx="23.7032" cy="23.4222" r="0.296875" transform="rotate(75 23.7032 23.4222)" fill="#FF4848"/>
<circle cx="29.8184" cy="23.4222" r="0.296875" transform="rotate(75 29.8184 23.4222)" fill="#FF4848"/>
<circle cx="28.6719" cy="24.9676" r="0.296875" transform="rotate(75 28.6719 24.9676)" fill="#FF4848"/>
<circle cx="25.3184" cy="25.4569" r="0.296875" transform="rotate(75 25.3184 25.4569)" fill="#FF4848"/>
<circle cx="18.9199" cy="19.2788" r="0.296875" fill="#FF4848"/>
<circle cx="20.8652" cy="19.2788" r="0.296875" fill="#FF4848"/>
<circle cx="23.5176" cy="19.2788" r="0.296875" fill="#FF4848"/>
<circle cx="25.8545" cy="19.2788" r="0.296875" fill="#FF4848"/>
<circle cx="28.4121" cy="19.2788" r="0.296875" fill="#FF4848"/>
<circle cx="27.6729" cy="17.9668" r="0.296875" fill="#FF4848"/>
<circle cx="23.9668" cy="18.3262" r="0.296875" fill="#FF4848"/>
<circle cx="24.4043" cy="21.1851" r="0.296875" fill="#FF4848"/>
<circle cx="24.4043" cy="23.0376" r="0.296875" fill="#FF4848"/>
<circle cx="21.3398" cy="23.7842" r="0.296875" fill="#FF4848"/>
<circle cx="22.544" cy="20.2742" r="0.296875" transform="rotate(75 22.544 20.2742)" fill="#FF4848"/>
<circle cx="22.544" cy="21.8695" r="0.296875" transform="rotate(75 22.544 21.8695)" fill="#FF4848"/>
<circle cx="28.6592" cy="21.8695" r="0.296875" transform="rotate(75 28.6592 21.8695)" fill="#FF4848"/>
<circle cx="27.5127" cy="23.4149" r="0.296875" transform="rotate(75 27.5127 23.4149)" fill="#FF4848"/>
<circle cx="24.1592" cy="23.9041" r="0.296875" transform="rotate(75 24.1592 23.9041)" fill="#FF4848"/>
<circle cx="18.9199" cy="19.9487" r="0.296875" fill="#FF4848"/>
<circle cx="20.8652" cy="19.9487" r="0.296875" fill="#FF4848"/>
<circle cx="23.5176" cy="19.9487" r="0.296875" fill="#FF4848"/>
<circle cx="25.8545" cy="19.9487" r="0.296875" fill="#FF4848"/>
<circle cx="28.4121" cy="19.9487" r="0.296875" fill="#FF4848"/>
<circle cx="21.8965" cy="20.4476" r="0.296875" transform="rotate(75 21.8965 20.4476)" fill="#FF4848"/>
<circle cx="21.8965" cy="22.0423" r="0.296875" transform="rotate(75 21.8965 22.0423)" fill="#FF4848"/>
<circle cx="28.0118" cy="22.0423" r="0.296875" transform="rotate(75 28.0118 22.0423)" fill="#FF4848"/>
<circle cx="26.8653" cy="23.5877" r="0.296875" transform="rotate(75 26.8653 23.5877)" fill="#FF4848"/>
<circle cx="23.5118" cy="24.077" r="0.296875" transform="rotate(75 23.5118 24.077)" fill="#FF4848"/>
<circle cx="19.4736" cy="19.9487" r="0.296875" fill="#FF4848"/>
<circle cx="21.4189" cy="19.9487" r="0.296875" fill="#FF4848"/>
<circle cx="24.0713" cy="19.9487" r="0.296875" fill="#FF4848"/>
<circle cx="26.4082" cy="19.9487" r="0.296875" fill="#FF4848"/>
<circle cx="26.4082" cy="21.1948" r="0.296875" fill="#FF4848"/>
<circle cx="26.4082" cy="25.041" r="0.296875" fill="#FF4848"/>
<circle cx="25.4775" cy="25.3984" r="0.296875" fill="#FF4848"/>
<circle cx="23.2588" cy="25.3984" r="0.296875" fill="#FF4848"/>
<circle cx="21.8936" cy="25.3984" r="0.296875" fill="#FF4848"/>
<circle cx="20.624" cy="25.3984" r="0.296875" fill="#FF4848"/>
<circle cx="20.1641" cy="23.8384" r="0.296875" fill="#FF4848"/>
<circle cx="19.2734" cy="22.0254" r="0.296875" fill="#FF4848"/>
<circle cx="18.9365" cy="23.3501" r="0.296875" fill="#FF4848"/>
<circle cx="19.5137" cy="24.6475" r="0.296875" fill="#FF4848"/>
<circle cx="18.3135" cy="24.1016" r="0.296875" fill="#FF4848"/>
<circle cx="17.9404" cy="22.5981" r="0.296875" fill="#FF4848"/>
<circle cx="17.9404" cy="21.0044" r="0.296875" fill="#FF4848"/>
<circle cx="17.9404" cy="19.355" r="0.296875" fill="#FF4848"/>
<circle cx="30.0869" cy="20.0425" r="0.296875" fill="#FF4848"/>
<circle cx="22.2891" cy="17.9546" r="0.296875" fill="#FF4848"/>
<circle cx="23.6045" cy="17.9546" r="0.296875" fill="#FF4848"/>
<circle cx="26.6592" cy="17.6836" r="0.296875" fill="#FF4848"/>
<circle cx="30.0869" cy="17.6836" r="0.296875" fill="#FF4848"/>
<circle cx="29.8965" cy="20.0425" r="0.296875" fill="#FF4848"/>
<circle cx="30.0303" cy="21.7456" r="0.296875" fill="#FF4848"/>
<circle cx="30.0303" cy="23.2451" r="0.296875" fill="#FF4848"/>
<circle cx="29.1094" cy="24.2241" r="0.296875" fill="#FF4848"/>
<circle cx="29.7627" cy="24.2241" r="0.296875" fill="#FF4848"/>
<circle cx="28.4111" cy="24.3091" r="0.296875" transform="rotate(90 28.4111 24.3091)" fill="#FF4848"/>
<circle cx="26.8311" cy="24.8677" r="0.296875" transform="rotate(90 26.8311 24.8677)" fill="#FF4848"/>
<circle cx="24.4551" cy="24.8677" r="0.296875" transform="rotate(90 24.4551 24.8677)" fill="#FF4848"/>
<circle cx="22.0938" cy="24.8677" r="0.296875" transform="rotate(90 22.0938 24.8677)" fill="#FF4848"/>
<circle cx="19.7207" cy="24.4111" r="0.296875" transform="rotate(90 19.7207 24.4111)" fill="#FF4848"/>
<circle cx="28.7988" cy="16.5562" r="0.296875" transform="rotate(90 28.7988 16.5562)" fill="#FF4848"/>
<circle cx="30.0117" cy="15.6729" r="0.296875" transform="rotate(90 30.0117 15.6729)" fill="#FF4848"/>
<circle cx="30.1641" cy="14.6162" r="0.296875" transform="rotate(90 30.1641 14.6162)" fill="#FF4848"/>
<circle cx="30.3777" cy="13.4119" r="0.296875" transform="rotate(120 30.3777 13.4119)" fill="#FF4848"/>
<circle cx="29.3816" cy="12.6692" r="0.296875" transform="rotate(120 29.3816 12.6692)" fill="#FF4848"/>
<circle cx="28.364" cy="12.1223" r="0.296875" transform="rotate(120 28.364 12.1223)" fill="#FF4848"/>
<circle cx="27.1793" cy="11.7134" r="0.296875" transform="rotate(108.989 27.1793 11.7134)" fill="#FF4848"/>
<circle cx="26.1229" cy="11.6071" r="0.296875" transform="rotate(83.2463 26.1229 11.6071)" fill="#FF4848"/>
<circle cx="25.079" cy="11.6071" r="0.296875" transform="rotate(83.2463 25.079 11.6071)" fill="#FF4848"/>
<circle cx="30.7958" cy="15.6369" r="0.296875" transform="rotate(83.2463 30.7958 15.6369)" fill="#FF4848"/>
<circle cx="30.7958" cy="16.6671" r="0.296875" transform="rotate(83.2463 30.7958 16.6671)" fill="#FF4848"/>
<circle cx="30.7958" cy="17.7247" r="0.296875" transform="rotate(83.2463 30.7958 17.7247)" fill="#FF4848"/>
<circle cx="30.7958" cy="18.7277" r="0.296875" transform="rotate(83.2463 30.7958 18.7277)" fill="#FF4848"/>
<circle cx="31.0792" cy="19.688" r="0.296875" transform="rotate(128.246 31.0792 19.688)" fill="#FF4848"/>
<circle cx="31.0792" cy="20.8902" r="0.296875" transform="rotate(128.246 31.0792 20.8902)" fill="#FF4848"/>
<circle cx="31.0792" cy="22.108" r="0.296875" transform="rotate(128.246 31.0792 22.108)" fill="#FF4848"/>
<circle cx="31.0792" cy="23.3428" r="0.296875" transform="rotate(128.246 31.0792 23.3428)" fill="#FF4848"/>
<circle cx="30.4063" cy="24.1265" r="0.296875" transform="rotate(128.246 30.4063 24.1265)" fill="#FF4848"/>
<circle cx="29.105" cy="25.0268" r="0.296875" transform="rotate(38.2463 29.105 25.0268)" fill="#FF4848"/>
<circle cx="28.107" cy="25.5258" r="0.296875" transform="rotate(38.2463 28.107 25.5258)" fill="#FF4848"/>
<circle cx="27.0298" cy="25.8246" r="0.296875" transform="rotate(38.2463 27.0298 25.8246)" fill="#FF4848"/>
<circle cx="25.9491" cy="25.6417" r="0.296875" transform="rotate(83.2463 25.9491 25.6417)" fill="#FF4848"/>
<circle cx="24.6503" cy="25.6417" r="0.296875" transform="rotate(83.2463 24.6503 25.6417)" fill="#FF4848"/>
<circle cx="23.3065" cy="25.6417" r="0.296875" transform="rotate(83.2463 23.3065 25.6417)" fill="#FF4848"/>
<circle cx="22.0516" cy="25.6417" r="0.296875" transform="rotate(83.2463 22.0516 25.6417)" fill="#FF4848"/>
<circle cx="20.7811" cy="25.4371" r="0.296875" transform="rotate(83.2463 20.7811 25.4371)" fill="#FF4848"/>
<circle cx="19.6532" cy="24.9215" r="0.296875" transform="rotate(83.2463 19.6532 24.9215)" fill="#FF4848"/>
<circle cx="18.7157" cy="24.2946" r="0.296875" transform="rotate(83.2463 18.7157 24.2946)" fill="#FF4848"/>
<circle cx="18.076" cy="23.6681" r="0.296875" transform="rotate(83.2463 18.076 23.6681)" fill="#FF4848"/>
<circle cx="17.7928" cy="22.5919" r="0.296875" transform="rotate(83.2463 17.7928 22.5919)" fill="#FF4848"/>
<circle cx="17.7928" cy="21.277" r="0.296875" transform="rotate(83.2463 17.7928 21.277)" fill="#FF4848"/>
<circle cx="17.7928" cy="19.714" r="0.296875" transform="rotate(83.2463 17.7928 19.714)" fill="#FF4848"/>
<circle cx="17.7928" cy="18.2091" r="0.296875" transform="rotate(83.2463 17.7928 18.2091)" fill="#FF4848"/>
<circle cx="30.871" cy="14.6862" r="0.296875" transform="rotate(83.2463 30.871 14.6862)" fill="#FF4848"/>
<circle cx="30.5585" cy="13.6173" r="0.296875" transform="rotate(83.2463 30.5585 13.6173)" fill="#FF4848"/>
<circle cx="26.9258" cy="21.6675" r="0.296875" fill="#FF4848"/>
<circle cx="28.9658" cy="19.9487" r="0.296875" fill="#FF4848"/>
<circle cx="29.4219" cy="21.2754" r="0.296875" fill="#FF4848"/>
<circle cx="22.0401" cy="20.9832" r="0.296875" transform="rotate(75 22.0401 20.9832)" fill="#FF4848"/>
<circle cx="22.0401" cy="22.5784" r="0.296875" transform="rotate(75 22.0401 22.5784)" fill="#FF4848"/>
<circle cx="28.1553" cy="22.5784" r="0.296875" transform="rotate(75 28.1553 22.5784)" fill="#FF4848"/>
<circle cx="27.0088" cy="24.1238" r="0.296875" transform="rotate(75 27.0088 24.1238)" fill="#FF4848"/>
<circle cx="23.6553" cy="24.6131" r="0.296875" transform="rotate(75 23.6553 24.6131)" fill="#FF4848"/>
<circle cx="19.4736" cy="20.6186" r="0.247009" fill="#FF4848"/>
<circle cx="21.4189" cy="20.6186" r="0.247009" fill="#FF4848"/>
<circle cx="24.0712" cy="20.6186" r="0.247009" fill="#FF4848"/>
<circle cx="26.4081" cy="20.6186" r="0.247009" fill="#FF4848"/>
<circle cx="26.9257" cy="22.3373" r="0.247009" fill="#FF4848"/>
<circle cx="28.9658" cy="20.6186" r="0.247009" fill="#FF4848"/>
<circle cx="29.4218" cy="21.9453" r="0.247009" fill="#FF4848"/>
<circle cx="21.3927" cy="21.1556" r="0.247009" transform="rotate(75 21.3927 21.1556)" fill="#FF4848"/>
<circle cx="21.3927" cy="22.7508" r="0.247009" transform="rotate(75 21.3927 22.7508)" fill="#FF4848"/>
<circle cx="27.508" cy="22.7508" r="0.247009" transform="rotate(75 27.508 22.7508)" fill="#FF4848"/>
<circle cx="26.3615" cy="24.2962" r="0.247009" transform="rotate(75 26.3615 24.2962)" fill="#FF4848"/>
<circle cx="23.008" cy="24.7854" r="0.247009" transform="rotate(75 23.008 24.7854)" fill="#FF4848"/>
<circle cx="19.4736" cy="21.4096" r="0.247009" fill="#FF4848"/>
<circle cx="21.4189" cy="21.4096" r="0.247009" fill="#FF4848"/>
<circle cx="24.0712" cy="21.4096" r="0.247009" fill="#FF4848"/>
<circle cx="26.4081" cy="21.4096" r="0.247009" fill="#FF4848"/>
<circle cx="28.9658" cy="21.4096" r="0.247009" fill="#FF4848"/>
<circle cx="20.629" cy="21.3601" r="0.247009" transform="rotate(75 20.629 21.3601)" fill="#FF4848"/>
<circle cx="20.629" cy="22.9549" r="0.247009" transform="rotate(75 20.629 22.9549)" fill="#FF4848"/>
<circle cx="26.7443" cy="22.9549" r="0.247009" transform="rotate(75 26.7443 22.9549)" fill="#FF4848"/>
<circle cx="25.5978" cy="24.5003" r="0.247009" transform="rotate(75 25.5978 24.5003)" fill="#FF4848"/>
<circle cx="22.2443" cy="24.9895" r="0.247009" transform="rotate(75 22.2443 24.9895)" fill="#FF4848"/>
<circle cx="18.9296" cy="20.6186" r="0.247009" fill="#FF4848"/>
<circle cx="20.8749" cy="20.6186" r="0.247009" fill="#FF4848"/>
<circle cx="23.5273" cy="20.6186" r="0.247009" fill="#FF4848"/>
<circle cx="25.8642" cy="20.6186" r="0.247009" fill="#FF4848"/>
<circle cx="28.4218" cy="20.6186" r="0.247009" fill="#FF4848"/>
<circle cx="21.2521" cy="20.6311" r="0.247009" transform="rotate(75 21.2521 20.6311)" fill="#FF4848"/>
<circle cx="21.2521" cy="22.2264" r="0.247009" transform="rotate(75 21.2521 22.2264)" fill="#FF4848"/>
<circle cx="27.3673" cy="22.2264" r="0.247009" transform="rotate(75 27.3673 22.2264)" fill="#FF4848"/>
<circle cx="26.2208" cy="23.7718" r="0.247009" transform="rotate(75 26.2208 23.7718)" fill="#FF4848"/>
<circle cx="22.8673" cy="24.261" r="0.247009" transform="rotate(75 22.8673 24.261)" fill="#FF4848"/>
<circle cx="18.459" cy="18.9819" r="0.296875" fill="#FF4848"/>
<circle cx="20.4043" cy="18.9819" r="0.296875" fill="#FF4848"/>
<circle cx="23.0566" cy="18.9819" r="0.296875" fill="#FF4848"/>
<circle cx="25.3936" cy="18.9819" r="0.296875" fill="#FF4848"/>
<circle cx="27.9512" cy="18.9819" r="0.296875" fill="#FF4848"/>
<circle cx="27.2119" cy="17.6699" r="0.296875" fill="#FF4848"/>
<circle cx="23.5059" cy="18.0293" r="0.296875" fill="#FF4848"/>
<circle cx="23.9434" cy="20.8882" r="0.296875" fill="#FF4848"/>
<circle cx="23.9434" cy="22.7407" r="0.296875" fill="#FF4848"/>
<circle cx="20.8789" cy="23.4873" r="0.296875" fill="#FF4848"/>
<circle cx="22.711" cy="19.7518" r="0.296875" transform="rotate(75 22.711 19.7518)" fill="#FF4848"/>
<circle cx="22.711" cy="21.347" r="0.296875" transform="rotate(75 22.711 21.347)" fill="#FF4848"/>
<circle cx="28.8262" cy="21.347" r="0.296875" transform="rotate(75 28.8262 21.347)" fill="#FF4848"/>
<circle cx="27.6797" cy="22.8924" r="0.296875" transform="rotate(75 27.6797 22.8924)" fill="#FF4848"/>
<circle cx="24.3262" cy="23.3817" r="0.296875" transform="rotate(75 24.3262 23.3817)" fill="#FF4848"/>
<circle cx="18.459" cy="19.6851" r="0.296875" fill="#FF4848"/>
<circle cx="20.4043" cy="19.6851" r="0.296875" fill="#FF4848"/>
<circle cx="23.0566" cy="19.6851" r="0.296875" fill="#FF4848"/>
<circle cx="25.3936" cy="19.6851" r="0.296875" fill="#FF4848"/>
<circle cx="27.9512" cy="19.6851" r="0.296875" fill="#FF4848"/>
<circle cx="22.0323" cy="19.9339" r="0.296875" transform="rotate(75 22.0323 19.9339)" fill="#FF4848"/>
<circle cx="22.0323" cy="21.5286" r="0.296875" transform="rotate(75 22.0323 21.5286)" fill="#FF4848"/>
<circle cx="28.1475" cy="21.5286" r="0.296875" transform="rotate(75 28.1475 21.5286)" fill="#FF4848"/>
<circle cx="27.001" cy="23.074" r="0.296875" transform="rotate(75 27.001 23.074)" fill="#FF4848"/>
<circle cx="23.6475" cy="23.5633" r="0.296875" transform="rotate(75 23.6475 23.5633)" fill="#FF4848"/>
<circle cx="18.459" cy="20.2788" r="0.296875" fill="#FF4848"/>
<circle cx="20.4043" cy="20.2788" r="0.296875" fill="#FF4848"/>
<circle cx="23.0566" cy="20.2788" r="0.296875" fill="#FF4848"/>
<circle cx="25.3936" cy="20.2788" r="0.296875" fill="#FF4848"/>
<circle cx="27.9512" cy="20.2788" r="0.296875" fill="#FF4848"/>
<circle cx="21.458" cy="20.0877" r="0.296875" transform="rotate(75 21.458 20.0877)" fill="#FF4848"/>
<circle cx="21.458" cy="21.6829" r="0.296875" transform="rotate(75 21.458 21.6829)" fill="#FF4848"/>
<circle cx="27.5733" cy="21.6829" r="0.296875" transform="rotate(75 27.5733 21.6829)" fill="#FF4848"/>
<circle cx="26.4268" cy="23.2283" r="0.296875" transform="rotate(75 26.4268 23.2283)" fill="#FF4848"/>
<circle cx="23.0733" cy="23.7176" r="0.296875" transform="rotate(75 23.0733 23.7176)" fill="#FF4848"/>
<circle cx="18.459" cy="20.8726" r="0.296875" fill="#FF4848"/>
<circle cx="20.4043" cy="20.8726" r="0.296875" fill="#FF4848"/>
<circle cx="23.0566" cy="20.8726" r="0.296875" fill="#FF4848"/>
<circle cx="25.3936" cy="20.8726" r="0.296875" fill="#FF4848"/>
<circle cx="27.9512" cy="20.8726" r="0.296875" fill="#FF4848"/>
<circle cx="20.8848" cy="20.241" r="0.296875" transform="rotate(75 20.8848 20.241)" fill="#FF4848"/>
<circle cx="20.8848" cy="21.8363" r="0.296875" transform="rotate(75 20.8848 21.8363)" fill="#FF4848"/>
<circle cx="27" cy="21.8363" r="0.296875" transform="rotate(75 27 21.8363)" fill="#FF4848"/>
<circle cx="25.8536" cy="23.3817" r="0.296875" transform="rotate(75 25.8536 23.3817)" fill="#FF4848"/>
<circle cx="22.5" cy="23.8709" r="0.296875" transform="rotate(75 22.5 23.8709)" fill="#FF4848"/>
<circle cx="18.459" cy="21.5757" r="0.296875" fill="#FF4848"/>
<circle cx="20.4043" cy="21.5757" r="0.296875" fill="#FF4848"/>
<circle cx="23.0566" cy="21.5757" r="0.296875" fill="#FF4848"/>
<circle cx="25.3936" cy="21.5757" r="0.296875" fill="#FF4848"/>
<circle cx="27.9512" cy="21.5757" r="0.296875" fill="#FF4848"/>
<circle cx="20.2061" cy="20.4232" r="0.296875" transform="rotate(75 20.2061 20.4232)" fill="#FF4848"/>
<circle cx="20.2061" cy="22.0179" r="0.296875" transform="rotate(75 20.2061 22.0179)" fill="#FF4848"/>
<circle cx="26.3213" cy="22.0179" r="0.296875" transform="rotate(75 26.3213 22.0179)" fill="#FF4848"/>
<circle cx="25.1748" cy="23.5633" r="0.296875" transform="rotate(75 25.1748 23.5633)" fill="#FF4848"/>
<circle cx="21.8213" cy="24.0526" r="0.296875" transform="rotate(75 21.8213 24.0526)" fill="#FF4848"/>
<circle cx="18.459" cy="22.2783" r="0.296875" fill="#FF4848"/>
<circle cx="20.4043" cy="22.2783" r="0.296875" fill="#FF4848"/>
<circle cx="23.0566" cy="22.2783" r="0.296875" fill="#FF4848"/>
<circle cx="25.3936" cy="22.2783" r="0.296875" fill="#FF4848"/>
<circle cx="27.9512" cy="22.2783" r="0.296875" fill="#FF4848"/>
<circle cx="19.5274" cy="20.6053" r="0.296875" transform="rotate(75 19.5274 20.6053)" fill="#FF4848"/>
<circle cx="19.5274" cy="22.2005" r="0.296875" transform="rotate(75 19.5274 22.2005)" fill="#FF4848"/>
<circle cx="25.6426" cy="22.2005" r="0.296875" transform="rotate(75 25.6426 22.2005)" fill="#FF4848"/>
<circle cx="24.4961" cy="23.7459" r="0.296875" transform="rotate(75 24.4961 23.7459)" fill="#FF4848"/>
<circle cx="21.1426" cy="24.2352" r="0.296875" transform="rotate(75 21.1426 24.2352)" fill="#FF4848"/>
<circle cx="18.459" cy="22.8721" r="0.296875" fill="#FF4848"/>
<circle cx="20.4043" cy="22.8721" r="0.296875" fill="#FF4848"/>
<circle cx="23.0566" cy="22.8721" r="0.296875" fill="#FF4848"/>
<circle cx="25.3936" cy="22.8721" r="0.296875" fill="#FF4848"/>
<circle cx="27.9512" cy="22.8721" r="0.296875" fill="#FF4848"/>
<circle cx="18.9532" cy="20.7586" r="0.296875" transform="rotate(75 18.9532 20.7586)" fill="#FF4848"/>
<circle cx="18.9532" cy="22.3538" r="0.296875" transform="rotate(75 18.9532 22.3538)" fill="#FF4848"/>
<circle cx="25.0684" cy="22.3538" r="0.296875" transform="rotate(75 25.0684 22.3538)" fill="#FF4848"/>
<circle cx="23.9219" cy="23.8992" r="0.296875" transform="rotate(75 23.9219 23.8992)" fill="#FF4848"/>
<circle cx="20.5684" cy="24.3885" r="0.296875" transform="rotate(75 20.5684 24.3885)" fill="#FF4848"/>
<defs>
<linearGradient id="paint0_linear_941:8" x1="2666.36" y1="4952.6" x2="2035.19" y2="4677.78" gradientUnits="userSpaceOnUse">
<stop stop-color="white" stop-opacity="0"/>
<stop offset="1" stop-color="#FF8F00"/>
</linearGradient>
</defs>
</svg>
