<svg width="36" height="30" viewBox="0 0 36 30" fill="none" xmlns="http://www.w3.org/2000/svg">
<path d="M31.4347 23.9598C31.4347 23.9598 30.0066 26.9999 17.5929 26.9999C5.17926 26.9999 4 23.9598 4 23.9598V5.271H31.4347V23.9598Z" fill="#ED700E"/>
<path d="M28.5496 15.2569C28.5496 13.9745 30.3162 10.5757 31.435 8.55346V6.72852C30.0898 8.92562 27.9151 12.6495 27.4735 15.1179C27.0497 17.4786 30.2019 20.9693 31.435 22.2293V19.3776C30.4978 18.566 28.5496 16.6872 28.5496 15.2569Z" fill="#F9B765"/>
<path d="M10.5439 7.56226C10.9926 6.75802 11.5062 5.99173 12.0796 5.271H11.0124C10.6335 5.81355 10.1582 6.52424 9.7659 7.19234C8.32208 9.60019 5.35823 14.0437 5.24838 18.4155C5.16767 21.5677 7.24595 24.693 8.40952 26.1726C9.06193 26.3229 9.81298 26.4596 10.6672 26.5807C9.41167 24.9553 7.11368 21.5856 6.95226 18.5254C6.73255 14.3038 10.5439 7.56226 10.5439 7.56226Z" fill="#F9B765"/>
<path d="M14.131 18.9335C13.649 15.0819 18.7225 8.19236 18.7225 8.19236C19.5901 6.98171 20.4533 5.87195 20.9308 5.27783H19.7358C19.2874 5.79796 18.514 6.7351 17.5455 8.05112C15.9156 10.1249 12.6558 15.9764 12.7298 19.2743C12.7836 21.6799 15.8348 25.2468 17.4804 27H17.597C18.3443 27 19.058 26.9896 19.7381 26.9687C17.8683 25.2199 14.4807 21.718 14.131 18.9335Z" fill="#F9B765"/>
<path d="M21.3925 19.0455C20.8701 17.1085 26.1701 7.23045 26.1701 7.23045C26.6409 6.38076 27.0668 5.67903 27.291 5.271H26.2463C25.9705 5.71939 25.502 6.48613 25.1253 7.08248C23.6815 9.41411 19.8657 16.7856 19.9688 19.5634C20.0518 21.6574 23.5268 24.9732 25.2307 26.4776C26.0994 26.3443 26.9596 26.1602 27.8067 25.926C26.2149 24.8813 22.1884 22.0004 21.3925 19.0455Z" fill="#F9B765"/>
<g style="mix-blend-mode:multiply" opacity="0.37">
<path d="M7.61402 5.271H4V23.9598C4 23.9598 5.17926 26.9999 17.5929 26.9999C30.0066 26.9999 31.4347 23.9598 31.4347 23.9598V21.0453C13.6067 31.6094 3.30276 20.9669 7.61402 5.271Z" fill="#DB5C11"/>
</g>
<path d="M17.7573 8.55993C25.3536 8.55993 31.5116 7.09144 31.5116 5.27997C31.5116 3.46849 25.3536 2 17.7573 2C10.161 2 4.00293 3.46849 4.00293 5.27997C4.00293 7.09144 10.161 8.55993 17.7573 8.55993Z" fill="#F28C00"/>
<path d="M7.35588 5.12768C6.94112 4.74207 7.21913 4.20849 7.88723 4.4551C7.68993 4.00671 8.27508 4.11208 8.35579 4.2466C8.35579 3.54487 10.3309 2.6593 11.3219 3.36327C11.2053 2.94851 11.4766 3.12114 11.5663 3.36327C11.5932 2.93058 11.7635 3.13908 11.8106 3.33637C12.1985 2.72432 13.4338 2.55169 13.6939 3.11218C13.7746 2.77813 14.001 2.88798 14.0458 3.08303C14.27 2.56962 16.3192 2.30059 16.707 3.05613C16.7429 2.78709 16.9133 2.85883 16.9312 3.00232C17.1128 2.66827 17.1554 2.81399 17.1554 2.97541C17.3796 2.72432 18.3078 2.6324 18.5342 2.99335C18.6508 2.814 18.7786 2.91264 18.7786 3.03819C19.0207 2.69741 20.7336 2.47994 21.0048 3.06509C21.1954 2.82296 21.3748 3.00232 21.3299 3.12114C21.8164 2.89694 22.9262 2.72432 23.5472 3.37224C23.61 3.25566 23.8006 3.28256 23.7714 3.41708C24.1144 3.12114 24.8251 3.24669 24.9081 3.59867C24.9619 3.45295 25.0695 3.5628 25.0516 3.66145C25.4999 3.45295 26.3586 3.46192 26.6927 4.05828C26.881 3.93273 26.9729 4.04034 26.955 4.16589C27.0895 4.08518 27.1523 4.16589 27.1254 4.2735C27.4056 4.16589 27.7284 4.39233 27.6388 4.56272C28.4772 4.56272 28.7597 5.53572 28.1813 5.6097C28.54 5.95944 28.1073 5.8339 27.9907 5.78906C28.1432 6.36524 27.3316 6.68584 27.0805 6.43922C27.1971 6.64548 27.0626 6.502 26.9819 6.43922C26.9639 6.69929 26.603 6.80914 26.52 6.60961C26.3855 7.05799 25.0247 7.58262 24.4642 7.14095C24.2579 7.51087 24.1324 7.26874 24.1234 7.14095C23.9328 7.43913 23.8162 7.34945 23.8162 7.21493C23.3679 7.52881 22.5899 7.79111 22.0586 7.43913C21.8142 7.77318 21.8344 7.57365 21.7873 7.475C21.6438 7.72834 21.4353 7.6566 21.4174 7.5019C21.0923 7.88079 19.4243 8.23278 18.7764 7.76421C18.5858 8.17 18.4602 7.84492 18.4871 7.70144C18.18 7.9615 18.2159 7.74628 18.2629 7.63866C17.6419 8.06239 16.2452 8.04446 16.0546 7.73731C16.0188 8.00859 15.8551 7.88079 15.8663 7.7104C15.6421 8.01755 15.5771 7.80905 15.6578 7.6835C15.4045 7.90769 15.3596 7.6835 15.4336 7.60279C15.057 7.82699 14.696 7.72834 14.2364 7.53777C14.1355 7.77318 13.9741 7.61176 14.0122 7.48397C13.7589 7.78215 12.6424 7.89873 12.2366 7.51087C12.0371 7.89873 12.0124 7.57364 12.0819 7.40326C11.7591 7.60279 11.7501 7.35842 11.8129 7.24184C11.2972 7.49293 10.721 7.54674 10.3691 7.08714C10.2166 7.38532 10.1628 7.06921 10.1987 6.97953C9.94533 7.21494 9.99914 6.97953 10.0529 6.89882C9.38036 7.21493 8.90955 6.9885 8.69208 6.5289C8.53066 6.89882 8.44771 6.60064 8.53066 6.48406C8.28629 6.65444 8.30647 6.48406 8.367 6.41232C8.02398 6.63651 8.14281 6.41231 8.18765 6.32936C7.88947 6.53786 7.57335 6.43025 7.68321 6.26659C7.36485 6.44594 6.26406 5.67023 7.35588 5.12768Z" fill="#FEF0E8"/>
<path d="M25.8344 5.35158C25.8747 6.03538 25.0071 6.51964 24.3838 5.31123C23.8592 6.47928 20.5142 6.35822 19.7699 5.61389C19.808 5.95691 19.669 6.35821 19.3215 5.59371C19.3417 5.91431 19.3619 6.62053 18.9583 5.67442C18.696 6.78195 14.9497 6.47928 14.3444 5.49283C14.3242 5.79325 14.1023 5.94122 13.9409 5.33141C13.3983 6.22819 11.9231 5.77979 12.1473 5.0691C10.69 5.5982 9.23277 4.54673 9.41212 3.30469C8.82249 3.52888 8.35617 3.91001 8.35168 4.25079C8.27097 4.11627 7.6791 4.00866 7.88312 4.45929C7.21053 4.21492 6.93702 4.7485 7.35178 5.13187C6.25995 5.66321 7.35178 6.43893 7.71273 6.28423C7.60287 6.4479 7.91899 6.55551 8.21717 6.34701C8.16336 6.42099 8.0535 6.66312 8.39652 6.42996C8.32478 6.51067 8.31581 6.67209 8.56018 6.5017C8.47723 6.61828 8.56019 6.91646 8.72161 6.54654C8.9458 7.00614 9.39419 7.23258 10.0825 6.91646C10.0287 6.98821 9.97485 7.23258 10.2282 6.99717C10.1923 7.08685 10.2461 7.40297 10.3986 7.10479C10.7506 7.55318 11.3267 7.51058 11.8424 7.25948C11.7796 7.37606 11.7886 7.62044 12.1114 7.4209C12.0397 7.59129 12.0666 7.91637 12.2661 7.52851C12.6719 7.91637 13.7884 7.79979 14.0417 7.50161C13.9969 7.6294 14.1583 7.79082 14.2659 7.55541C14.7143 7.74598 15.0865 7.85359 15.4631 7.62043C15.3824 7.71011 15.4273 7.92534 15.6873 7.70115C15.6066 7.82669 15.6694 8.03519 15.8958 7.72805C15.8846 7.89844 16.0483 8.02398 16.0842 7.75495C16.2814 8.0621 17.6714 8.08003 18.2925 7.6563C18.2387 7.76392 18.2028 7.97914 18.5167 7.71908C18.4898 7.86256 18.6153 8.18764 18.8059 7.78185C19.4538 8.25042 21.1218 7.89844 21.4469 7.51955C21.4648 7.67424 21.6711 7.74374 21.8168 7.49264C21.8616 7.59128 21.8437 7.79082 22.0881 7.45677C22.6194 7.79979 23.3951 7.53748 23.8458 7.23258C23.8458 7.3671 23.9623 7.45677 24.1529 7.15859C24.1529 7.27741 24.2874 7.51954 24.4937 7.15859C25.0542 7.60698 26.415 7.07788 26.5496 6.62725C26.6325 6.82678 26.9979 6.71693 27.0114 6.45686C27.0921 6.51067 27.2356 6.65415 27.11 6.45686C27.3611 6.69899 28.1727 6.38288 28.0203 5.8067C28.1368 5.85154 28.5695 5.97709 28.2108 5.62735C28.2849 5.6233 28.3552 5.59353 28.4096 5.54319C28.464 5.49285 28.4992 5.42508 28.509 5.35158C27.8499 5.84481 26.4083 6.08918 25.8344 5.35158Z" fill="#E5D4C3"/>
</svg>
