<svg width="34" height="22" viewBox="0 0 34 22" fill="none" xmlns="http://www.w3.org/2000/svg">
<path d="M8.59668 10.2397C8.86808 10.2952 9.1437 10.3276 9.42057 10.3365L8.59668 10.2397Z" fill="#B78A58"/>
<path d="M5.48305 9.61142C5.02032 9.79651 4.53908 10.1724 4.522 10.7077C4.50491 11.2046 4.91923 11.6161 5.36345 11.7272C5.80767 11.8382 6.2704 11.7272 6.71462 11.6076C6.20348 12.0233 6.45549 13.0143 7.03782 13.2876C7.62015 13.561 8.31069 13.2948 8.82041 12.8762C8.52141 13.4642 9.21906 14.1675 9.82844 14.0593C10.4378 13.9511 10.8763 13.383 11.2522 12.8548C11.4213 13.151 11.6668 13.3965 11.9631 13.5655C12.2593 13.7345 12.5955 13.821 12.9366 13.8159C13.2796 13.7911 13.61 13.6765 13.8947 13.4835C14.1793 13.2906 14.4082 13.0261 14.5583 12.7167C14.7436 12.9721 14.9965 13.1706 15.2885 13.2901C15.5805 13.4096 15.9001 13.4452 16.2113 13.393C16.5263 13.3212 16.8171 13.1681 17.0546 12.949C17.2922 12.73 17.4682 12.4526 17.5653 12.1443C17.6279 12.842 18.2843 13.403 18.9222 13.3047C19.56 13.2065 20.0527 12.4661 19.9416 11.777C20.1082 12.5131 20.9867 12.8391 21.6402 12.5672C22.2937 12.2953 22.1342 11.9977 22.3991 11.2972C22.7436 11.6275 23.4655 11.6261 23.8456 11.2972C24.2258 10.9683 24.4151 10.4586 24.1802 10.0058C23.9453 9.55304 24.0378 9.26686 23.5623 9.1615C23.9794 9.14584 24.0193 8.98353 24.3767 8.74576C24.7341 8.50798 24.9647 7.97691 24.7568 7.58395C24.4991 7.09417 23.8413 7.15681 23.3331 7.29919C23.8428 6.97884 24.4336 6.44492 24.2443 5.83981C24.1693 5.64149 24.0424 5.46694 23.8769 5.33436C23.3162 4.82177 22.6171 4.48554 21.8666 4.36761C22.2695 4.00597 22.1627 3.25279 21.7783 2.87264C21.3939 2.49249 20.8443 2.39709 20.3246 2.36292C18.9569 2.27489 17.5867 2.49077 16.3124 2.99508C16.1243 3.08705 15.918 3.1357 15.7087 3.13746C15.5072 3.10231 15.3141 3.02988 15.1392 2.9239C14.1681 2.45262 13.0362 2.49676 12.0068 2.80572C10.9774 3.11468 10.0306 3.6785 9.09377 4.23663C7.91488 4.93855 6.60926 5.82272 6.37149 7.26075" fill="white"/>
<path d="M23.3378 7.2485C23.3657 7.24492 23.3939 7.24492 23.4218 7.2485L23.4503 7.22999C23.4783 7.20549 23.5089 7.18402 23.5414 7.16592C23.9928 6.8413 24.4199 6.36717 24.2533 5.84037C24.1855 5.65674 24.0712 5.49386 23.9216 5.36768C23.9206 5.48801 23.9063 5.60787 23.8789 5.72504C23.7904 6.05304 23.6261 6.35569 23.3994 6.60866C23.1726 6.86163 22.8896 7.05786 22.5732 7.18158C22.596 7.20863 22.6145 7.23711 22.6345 7.26558C22.8691 7.27195 23.1038 7.26625 23.3378 7.2485Z" fill="#EDE6E4"/>
<path d="M24.7617 7.59015C24.6978 7.47709 24.6055 7.38267 24.4938 7.31625C24.3822 7.24982 24.2552 7.21369 24.1253 7.21143C24.2023 7.2591 24.2679 7.32316 24.3174 7.39905C24.3668 7.47495 24.3989 7.56081 24.4114 7.65052C24.4239 7.74024 24.4165 7.83161 24.3897 7.91813C24.3629 8.00465 24.3173 8.0842 24.2563 8.15113C23.969 8.48757 23.575 8.71525 23.14 8.7961C23.2042 8.85755 23.2637 8.92371 23.318 8.99401C23.711 9.52366 23.5843 10.3608 22.9521 10.6C22.552 10.751 22.1291 10.61 21.7362 10.348C21.7362 10.3722 21.7362 10.3979 21.7362 10.4221C21.6894 10.6921 21.5572 10.94 21.3591 11.1293C21.161 11.3187 20.9074 11.4396 20.6356 11.4742C20.4633 11.5025 20.2867 11.4865 20.1223 11.4277C19.9579 11.3689 19.8112 11.2693 19.6959 11.1382C19.5772 11.3575 19.4092 11.5463 19.2051 11.6896C19.001 11.8329 18.7664 11.9268 18.5199 11.964C17.808 12.048 17.294 11.6494 16.891 11.1098C16.7828 11.7633 16.3827 12.2958 15.6324 12.3627C15.3596 12.385 15.0854 12.3414 14.8329 12.2356C14.5804 12.1298 14.357 11.9649 14.1816 11.7547C13.3373 12.7727 12.1883 12.5022 11.5362 11.4187C10.6036 12.1007 9.03886 11.6665 8.93065 9.73865C8.88651 8.95129 7.86708 9.85398 8.15611 9.33287C7.95882 9.2294 7.78761 9.08246 7.65541 8.90315C7.52321 8.72384 7.43347 8.51684 7.39296 8.29778C6.92951 8.33098 6.46403 8.32336 6.00192 8.27499L5.48793 9.61193C5.0252 9.79702 4.54396 10.1729 4.52688 10.7082C4.50979 11.2051 4.92411 11.6166 5.36833 11.7277C5.81255 11.8387 6.27529 11.7277 6.71951 11.6081C6.20837 12.0238 6.46038 13.0148 7.04413 13.2881C7.62788 13.5615 8.31557 13.2953 8.82529 12.8767C8.52629 13.4647 9.22395 14.168 9.83333 14.0598C10.4427 13.9516 10.8812 13.3835 11.2571 12.8553C11.4258 13.1516 11.6709 13.3972 11.967 13.5662C12.2631 13.7353 12.5991 13.8217 12.94 13.8164C13.283 13.7916 13.6135 13.677 13.8981 13.484C14.1828 13.2911 14.4117 13.0266 14.5617 12.7172C14.7471 12.9726 15 13.1711 15.292 13.2906C15.584 13.4101 15.9036 13.4457 16.2147 13.3935C16.5298 13.3217 16.8205 13.1686 17.0581 12.9496C17.2956 12.7305 17.4717 12.4531 17.5688 12.1448C17.6314 12.8425 18.2878 13.4035 18.9256 13.3052C19.5635 13.207 20.0561 12.4666 19.9451 11.7775C20.1116 12.5136 20.9901 12.8397 21.6436 12.5677C22.2971 12.2958 22.1377 11.9982 22.4025 11.2977C22.7471 11.628 23.4689 11.6266 23.8491 11.2977C24.2292 10.9688 24.4186 10.4591 24.1837 10.0063C23.9488 9.55356 24.0413 9.26737 23.5657 9.16201C23.9829 9.14635 24.0228 8.98404 24.3801 8.74627C24.7375 8.50849 24.9696 7.98312 24.7617 7.59015Z" fill="#EDE6E4"/>
<path d="M17.3985 0.524819C17.3985 0.524819 14.6762 0.406643 10.2795 2.19207C9.21313 2.61921 4.52176 4.45305 3.68457 6.83362L4.94035 8.14208C5.80601 9.53312 7.09596 9.85062 8.67921 9.74668C9.62175 9.68119 10.5743 9.52315 11.4314 9.09886C12.4409 8.59769 13.2609 7.76192 14.1494 7.04718C16.3563 5.26745 17.1778 4.84174 19.9414 4.67943C20.3685 4.6538 22.7035 4.01025 23.0979 3.82515C23.4923 3.64006 24.0219 2.82851 24.1387 2.38998C24.1387 2.38998 22.947 1.35631 17.3985 0.521973" fill="#FFDA88"/>
<path d="M24.1387 2.39297C24.0376 2.36023 24.2469 2.39297 24.1387 2.39297C21.966 2.33033 17.6078 3.3825 12.2686 7.30931C7.90894 8.29029 3.68457 6.83376 3.68457 6.83376C3.68457 6.83376 4.2071 9.45211 4.68122 10.0914C5.72486 10.4758 8.91272 11.1179 12.5775 10.5185C15.4038 7.782 21.9361 4.98569 24.1373 4.99565C24.1358 4.44465 24.133 2.94683 24.1387 2.39297Z" fill="#FACD00"/>
<path d="M21.7769 6.0764C21.5477 6.62883 20.7318 7.01468 20.2748 6.6687C20.2748 6.6687 19.8477 6.71141 20.1481 6.93921C20.9141 7.51727 21.9364 7.20689 22.3151 6.29424C22.3294 6.2589 22.3366 6.22109 22.3363 6.18297C22.336 6.14485 22.3282 6.10716 22.3133 6.07206C22.2984 6.03696 22.2768 6.00513 22.2496 5.97839C22.2224 5.95166 22.1903 5.93053 22.1549 5.91622C22.1196 5.90192 22.0818 5.89472 22.0436 5.89503C22.0055 5.89534 21.9678 5.90315 21.9327 5.91802C21.8976 5.9329 21.8658 5.95454 21.8391 5.98171C21.8123 6.00889 21.7912 6.04106 21.7769 6.0764Z" fill="#EDE6E4"/>
<path d="M20.3113 8.84543C20.0265 9.39786 19.1466 9.72391 18.701 9.32097C18.701 9.32097 18.2525 9.32097 18.5458 9.58865C19.2933 10.2635 20.3811 10.0371 20.8523 9.12307C20.8737 9.0873 20.8875 9.04753 20.8929 9.00622C20.8983 8.9649 20.8951 8.92292 20.8837 8.88287C20.8722 8.84281 20.8526 8.80554 20.8262 8.77335C20.7997 8.74116 20.7669 8.71474 20.7299 8.69572C20.6928 8.67669 20.6522 8.66548 20.6106 8.66276C20.5691 8.66004 20.5274 8.66588 20.4882 8.67991C20.4489 8.69394 20.413 8.71587 20.3826 8.74434C20.3521 8.77281 20.3279 8.80721 20.3113 8.84543Z" fill="#EDE6E4"/>
<path d="M17.8721 8.22238C17.5873 8.77481 16.7074 9.10086 16.2603 8.69793C16.2603 8.69793 15.8133 8.69793 16.1066 8.9656C16.8526 9.64047 17.9418 9.41409 18.4131 8.50002C18.4345 8.46426 18.4483 8.42449 18.4537 8.38317C18.4591 8.34186 18.4559 8.29988 18.4444 8.25982C18.433 8.21977 18.4134 8.1825 18.3869 8.15031C18.3605 8.11812 18.3277 8.09169 18.2906 8.07267C18.2536 8.05365 18.213 8.04243 18.1714 8.03971C18.1298 8.03699 18.0881 8.04283 18.0489 8.05686C18.0097 8.07089 17.9738 8.09282 17.9433 8.12129C17.9129 8.14976 17.8887 8.18417 17.8721 8.22238Z" fill="#EDE6E4"/>
<path d="M5.72444 5.57964C7.62804 6.4453 10.02 6.58625 12.0375 6.01389C13.1965 5.68499 14.1305 4.97453 15.2012 4.46908C16.0554 4.06331 16.961 3.65895 17.8551 3.33006C18.1399 3.2247 20.9874 2.37896 19.8214 1.85501C19.2604 1.60442 18.4588 1.7824 17.8579 1.67846C16.904 1.5133 15.9358 1.5788 14.9691 1.70836C13.4601 1.93314 11.9801 2.32175 10.5554 2.86732C9.6726 3.19052 8.66028 3.52654 7.93131 4.13449C7.88368 4.18081 7.85303 4.2418 7.84425 4.30764C7.83547 4.37349 7.84908 4.44038 7.8829 4.49756C8.16766 4.96314 8.84823 5.05284 9.35937 5.13114C10.087 5.25582 10.8347 5.18355 11.5249 4.92185C12.7765 4.43207 13.9183 3.69739 15.1513 3.16632C15.5172 3.00828 15.2012 2.49287 14.8381 2.64949C13.9368 3.03676 13.0783 3.50375 12.2012 3.94086C11.7656 4.15727 11.3228 4.40216 10.843 4.51037C10.3133 4.63566 8.75141 4.72252 8.42251 4.19002C8.40543 4.31104 8.38977 4.43207 8.37411 4.55309C9.18282 3.87821 10.3916 3.54505 11.3811 3.20619C12.7504 2.71403 14.1732 2.38616 15.6198 2.22947C16.5993 2.13834 17.4707 2.2551 18.4275 2.31632C18.6496 2.33056 19.3686 2.49145 19.5409 2.40032C19.7468 2.47151 19.7611 2.33625 19.5836 1.99454C19.5341 2.02318 19.4833 2.04931 19.4312 2.07285C19.2974 2.07285 19.0653 2.22947 18.9443 2.27788C17.1304 3.00258 15.3492 3.69454 13.6478 4.6499C11.3897 5.91707 8.44672 6.15485 6.04479 5.06138C5.68457 4.89764 5.3685 5.41448 5.73014 5.57964H5.72444Z" fill="#FACD00"/>
<path d="M12.0678 7.35078C7.7808 8.24207 3.68457 6.83252 3.68457 6.83252C3.68457 6.83252 4.2071 9.45086 4.68122 10.0901C5.72058 10.4731 8.88993 11.1124 12.5377 10.5272C12.313 9.47961 12.1561 8.41859 12.0678 7.35078Z" fill="#EBB411"/>
<path d="M1.85498 17.4404C1.42094 17.6096 0.967514 17.9507 0.95072 18.4377C0.933927 18.8885 1.32276 19.2606 1.73872 19.36C2.15468 19.4595 2.58873 19.3536 3.00598 19.2476C2.52543 19.6261 2.76054 20.5252 3.30697 20.772C3.8534 21.0187 4.50189 20.772 4.98631 20.3948C4.7047 20.9296 5.35836 21.5664 5.92934 21.467C6.50031 21.3675 6.91368 20.8508 7.27409 20.3702C7.43672 20.6415 7.6684 20.8648 7.94549 21.0173C8.22259 21.1698 8.5352 21.2461 8.8514 21.2383C9.17016 21.2174 9.47804 21.1141 9.74498 20.9386C10.0119 20.7632 10.2288 20.5215 10.3744 20.2372C10.5529 20.4702 10.7916 20.6502 11.0647 20.7579C11.3378 20.8655 11.6351 20.8967 11.9246 20.8482C12.2172 20.7856 12.4884 20.6478 12.7115 20.4485C12.9346 20.2491 13.102 19.9951 13.197 19.7114C13.2552 20.3444 13.8688 20.8521 14.4669 20.7603C15.065 20.6686 15.5287 19.9982 15.4267 19.3716C15.5817 20.0408 16.4059 20.3353 17.0182 20.086C17.6305 19.8367 17.4832 19.5693 17.7325 18.9311C18.0568 19.2308 18.7324 19.2283 19.0889 18.9311C19.4455 18.634 19.6302 18.169 19.4067 17.7582C19.1832 17.3474 19.2685 17.0877 18.828 16.9934C19.2155 16.9792 19.2569 16.8307 19.5927 16.6149C19.9286 16.3992 20.1456 15.9161 19.9519 15.5595C19.7103 15.1165 19.0941 15.1797 18.62 15.3012C19.098 15.0105 19.6535 14.5261 19.4778 13.9758C19.4072 13.7944 19.2884 13.6358 19.1341 13.5172C18.6031 13.051 17.9486 12.7482 17.2494 12.6452C17.6279 12.3158 17.5284 11.6325 17.1693 11.2888C16.8102 10.9452 16.2935 10.8587 15.8065 10.829C14.5245 10.7525 13.241 10.9512 12.0421 11.4116C11.8648 11.4954 11.6712 11.5395 11.475 11.5407C11.2872 11.5101 11.1068 11.4448 10.9428 11.3483C10.0386 10.9233 8.97024 10.9607 8.00526 11.2475C7.04028 11.5343 6.15024 12.0458 5.26923 12.5535C4.16215 13.193 2.93622 13.9977 2.71016 15.3038" fill="white"/>
<path d="M18.6082 15.2548C18.6349 15.2529 18.6617 15.2529 18.6883 15.2548L18.7142 15.238C18.7407 15.216 18.7693 15.1966 18.7994 15.1799C19.2231 14.8841 19.6249 14.4526 19.4712 13.9759C19.407 13.8084 19.2996 13.6608 19.1598 13.5483C19.1585 13.6571 19.145 13.7655 19.1198 13.8713C18.9674 14.4965 18.4623 14.9642 17.8926 15.1967C17.9132 15.2199 17.9313 15.2471 17.9507 15.2729C18.1651 15.2819 18.3848 15.2703 18.6082 15.2548Z" fill="#EDE6E4"/>
<path d="M19.9448 15.5622C19.8834 15.4585 19.7961 15.3725 19.6915 15.3128C19.5869 15.253 19.4685 15.2214 19.348 15.2212C19.4197 15.2626 19.4811 15.3198 19.5275 15.3884C19.5739 15.457 19.6041 15.5353 19.6158 15.6173C19.6275 15.6993 19.6204 15.7829 19.595 15.8618C19.5697 15.9406 19.5267 16.0127 19.4694 16.0725C19.1959 16.3802 18.8269 16.5872 18.4218 16.6603C18.4812 16.716 18.5365 16.776 18.5871 16.8398C18.9553 17.3191 18.8351 18.0787 18.2409 18.297C17.8663 18.4352 17.4658 18.3086 17.1015 18.0709C17.1015 18.0942 17.1015 18.1161 17.1015 18.1394C17.0527 18.3877 16.9264 18.6142 16.7407 18.7862C16.555 18.9582 16.3195 19.0669 16.0681 19.0966C15.9076 19.1227 15.7431 19.1086 15.5894 19.0557C15.4357 19.0027 15.2974 18.9125 15.1871 18.793C15.0723 18.9944 14.913 19.1668 14.7214 19.2971C14.5297 19.4275 14.3108 19.5122 14.0813 19.5449C13.4173 19.6237 12.9329 19.262 12.5557 18.7698C12.4523 19.3627 12.0764 19.8471 11.3724 19.9091C11.1185 19.9308 10.863 19.8924 10.6267 19.797C10.3904 19.7016 10.1799 19.552 10.0121 19.3601C9.21895 20.2864 8.14159 20.0435 7.53057 19.0617C6.65602 19.6831 5.18853 19.2917 5.09035 17.5439C5.05031 16.8282 4.09179 17.6511 4.36307 17.177C4.18018 17.0859 4.02072 16.9539 3.89706 16.7913C3.7734 16.6286 3.68886 16.4397 3.64999 16.2391C3.21537 16.2708 2.77884 16.2647 2.34527 16.221L1.86084 17.4366C1.4268 17.6059 0.973373 17.9469 0.95658 18.4339C0.939786 18.8847 1.32862 19.2568 1.74458 19.3563C2.16054 19.4557 2.59458 19.3498 3.01183 19.2439C2.53128 19.6224 2.7664 20.5215 3.31283 20.7682C3.85926 21.0149 4.50775 20.7682 4.99217 20.391C4.71056 20.9258 5.3642 21.5627 5.93518 21.4632C6.50616 21.3637 6.91954 20.847 7.27995 20.3664C7.44257 20.6377 7.67425 20.861 7.95135 21.0135C8.22845 21.166 8.54104 21.2423 8.85724 21.2345C9.176 21.2136 9.48389 21.1103 9.75083 20.9349C10.0178 20.7594 10.2346 20.5177 10.3803 20.2334C10.5588 20.4664 10.7974 20.6464 11.0705 20.7541C11.3437 20.8617 11.6409 20.893 11.9304 20.8444C12.223 20.7818 12.4942 20.644 12.7174 20.4447C12.9405 20.2454 13.1078 19.9913 13.2029 19.7076C13.261 20.3406 13.8746 20.8483 14.4727 20.7566C15.0708 20.6648 15.5346 19.9944 15.4325 19.3679C15.5875 20.037 16.4117 20.3316 17.024 20.0822C17.6364 19.8329 17.4891 19.5655 17.7384 18.9274C18.0626 19.2271 18.7382 19.2245 19.0948 18.9274C19.4513 18.6303 19.6361 18.1652 19.4126 17.7544C19.1891 17.3436 19.2744 17.084 18.8339 16.9897C19.2214 16.9755 19.2627 16.8269 19.5986 16.6112C19.9345 16.3954 20.1386 15.9188 19.9448 15.5622Z" fill="#EDE6E4"/>
<path d="M13.8291 8.56199C11.6976 8.20287 7.40886 8.85265 4.36149 10.4584C3.42881 10.9492 0.452491 12.4762 0.291016 15.3982C1.07643 16.6603 3.2867 17.664 4.72319 17.5646C5.57836 17.5064 6.4413 17.3618 7.22025 16.9768C8.13614 16.5234 8.88022 15.7638 9.6863 15.1153C11.6886 13.5006 12.434 13.1156 14.9414 12.967C15.3289 12.9438 17.4475 12.3599 17.8053 12.192C18.1631 12.024 19.2082 12.5097 19.3141 12.1145C19.3141 12.1145 18.4021 9.51793 13.8291 8.55812" fill="#ED7479"/>
<path d="M0.290351 15.3981C0.290351 15.3981 0.00486529 17.4728 1.10031 17.8771C2.04721 18.2272 4.35825 18.6987 6.47939 18.545C6.47939 18.545 8.27758 18.7568 10.2256 15.8761C12.1737 12.9954 17.3538 13.047 18.9905 13.2705C18.9905 13.2705 19.7023 13.556 19.4659 12.5239C19.4139 12.2938 19.287 12.0876 19.1051 11.9374C18.9232 11.7873 18.6966 11.7019 18.4609 11.6945C16.4909 11.639 10.7359 11.7488 8.53981 14.7949C6.51684 17.6174 0.290351 15.3981 0.290351 15.3981Z" fill="#BE5154"/>
<path d="M1.35156 12.7746C1.35156 12.7746 5.12104 13.0665 8.61667 13.9372C8.61667 13.9372 9.76508 13.9372 9.74829 16.358L9.61911 16.69L10.2353 15.871C10.2353 15.871 10.0893 14.1542 8.82852 13.5186C7.56772 12.8831 6.10799 12.8288 1.64351 12.4258" fill="#AA4951"/>
<path d="M11.8619 14.4288C11.9635 14.3616 12.0682 14.2996 12.1758 14.2428L12.19 14.2363C12.19 14.2363 12.5685 12.0402 10.9396 11.676C9.58575 11.3711 7.99813 11.2548 3.88632 10.6348C3.75714 10.7265 3.62796 10.8143 3.48845 10.9009L3.46777 10.9254C3.46777 10.9254 11.6436 11.9472 11.3697 12.5324C11.3697 12.5324 11.8516 12.0958 11.8619 14.4288Z" fill="#AA4951"/>
<path d="M14.3992 11.9091C13.504 9.90943 9.06144 9.97143 6.62768 9.47021L6.06445 9.71307C7.02426 9.81254 12.8064 10.4649 13.9367 11.8626C13.9367 11.8626 14.372 12.7992 14.1847 13.542C14.2855 13.4748 14.5296 13.4851 14.6369 13.4283C14.6918 12.9098 14.6098 12.3861 14.3992 11.9091Z" fill="#AA4951"/>
<path d="M8.6828 17.7068C8.82361 17.5699 8.96701 17.4343 9.11428 17.3038L9.1414 17.278C9.05743 16.8026 8.75385 15.6348 7.76433 15.1349C6.50353 14.4993 5.05154 14.4437 0.57932 14.042L0.523782 14.1092C0.482444 14.2035 0.44239 14.2991 0.402344 14.3947C1.04825 14.4489 4.40694 14.7641 7.55765 15.5573C7.55765 15.5508 8.61563 15.5573 8.6828 17.7068Z" fill="#AA4951"/>
<path d="M17.4474 11.6083C16.5509 9.60863 12.744 9.15391 10.3115 8.65527C10.1242 8.73537 9.59195 8.80125 9.40723 8.88263C10.367 8.9821 16.2822 9.91607 16.9875 11.5605C16.9875 11.5605 17.4229 12.4984 17.2343 13.2399C17.3363 13.174 17.5805 13.183 17.6877 13.1275C17.7418 12.6088 17.6589 12.085 17.4474 11.6083Z" fill="#AA4951"/>
<path d="M16.6062 14.2353C16.3982 14.7352 15.658 15.0866 15.2434 14.7727C15.2434 14.7727 14.8558 14.8101 15.1284 15.0168C15.8234 15.5413 16.7509 15.2597 17.0945 14.4316C17.1074 14.3996 17.1139 14.3653 17.1135 14.3307C17.1131 14.2962 17.106 14.262 17.0924 14.2302C17.0789 14.1985 17.0592 14.1696 17.0345 14.1455C17.0098 14.1213 16.9806 14.1022 16.9485 14.0893C16.9165 14.0764 16.8822 14.07 16.8476 14.0703C16.8131 14.0707 16.7789 14.0778 16.7472 14.0914C16.7154 14.105 16.6866 14.1246 16.6624 14.1493C16.6382 14.174 16.6191 14.2032 16.6062 14.2353Z" fill="#EDE6E4"/>
<path d="M15.2761 16.7469C15.0177 17.2494 14.2194 17.5439 13.8151 17.1784C13.8151 17.1784 13.4082 17.1784 13.6743 17.4225C14.3525 18.0335 15.3394 17.8281 15.767 16.9988C15.7864 16.9663 15.7989 16.9303 15.8038 16.8928C15.8087 16.8553 15.8058 16.8172 15.7954 16.7809C15.785 16.7445 15.7672 16.7107 15.7432 16.6815C15.7192 16.6523 15.6895 16.6283 15.6559 16.6111C15.6223 16.5938 15.5854 16.5836 15.5477 16.5812C15.51 16.5787 15.4722 16.584 15.4366 16.5967C15.401 16.6094 15.3684 16.6293 15.3408 16.6552C15.3132 16.681 15.2912 16.7122 15.2761 16.7469Z" fill="#EDE6E4"/>
<path d="M13.0615 16.181C12.8031 16.6835 12.0048 16.978 11.5991 16.6124C11.5991 16.6124 11.1935 16.6124 11.4596 16.8566C12.1365 17.4676 13.1248 17.2622 13.5523 16.4329C13.5717 16.4004 13.5843 16.3643 13.5892 16.3269C13.594 16.2894 13.5912 16.2513 13.5808 16.2149C13.5704 16.1786 13.5526 16.1448 13.5286 16.1156C13.5046 16.0864 13.4749 16.0624 13.4412 16.0451C13.4076 16.0279 13.3708 16.0177 13.3331 16.0152C13.2953 16.0128 13.2575 16.0181 13.2219 16.0308C13.1863 16.0435 13.1537 16.0634 13.1261 16.0893C13.0985 16.1151 13.0765 16.1463 13.0615 16.181Z" fill="#EDE6E4"/>
<path d="M6.98964 18.0927C6.76442 17.4306 6.60602 16.7477 6.51684 16.0542C3.89964 16.6833 0.290351 15.3979 0.290351 15.3979C0.290351 15.3979 0.00486532 17.4726 1.10031 17.8769C2.04721 18.227 4.35825 18.6985 6.47939 18.5448C6.69308 18.5552 6.90699 18.5298 7.11236 18.4699C7.07102 18.3446 7.0284 18.218 6.98964 18.0927Z" fill="#A74949"/>
<path d="M16.3556 15.1631C15.939 15.326 15.5062 15.653 15.4887 16.1196C15.4736 16.5513 15.8459 16.9073 16.2439 17.0028C16.6418 17.0982 17.0584 16.9969 17.4587 16.8957C16.9932 17.2587 17.226 18.1198 17.7472 18.356C18.2685 18.5922 18.891 18.356 19.3495 17.9953C19.0795 18.5073 19.7055 19.117 20.2536 19.0216C20.8016 18.9262 21.1972 18.4316 21.5417 17.9743C21.6976 18.2345 21.9198 18.4485 22.1856 18.5947C22.4513 18.7408 22.7511 18.8139 23.0543 18.8063C23.3596 18.786 23.6545 18.6871 23.9102 18.5191C24.1659 18.3511 24.3737 18.1197 24.5135 17.8475C24.6849 18.07 24.9136 18.2417 25.1752 18.3442C25.4367 18.4467 25.7212 18.4761 25.9982 18.4293C26.2785 18.3694 26.5384 18.2374 26.7523 18.0464C26.9661 17.8554 27.1265 17.612 27.2176 17.3402C27.2723 17.9464 27.8622 18.4328 28.4347 18.3455C29.0072 18.2583 29.4517 17.6148 29.3539 17.0144C29.5017 17.6555 30.2918 17.9371 30.8794 17.6997C31.467 17.4624 31.325 17.2064 31.5636 16.592C31.8731 16.8794 32.5212 16.8771 32.8633 16.592C33.2054 16.3069 33.3822 15.8625 33.167 15.4692C32.9517 15.0759 33.0355 14.8269 32.612 14.7361C32.9878 14.7221 33.0239 14.5802 33.345 14.3731C33.6661 14.166 33.8744 13.704 33.6941 13.3619C33.4614 12.9372 32.8714 12.9977 32.4141 13.1152C32.8726 12.836 33.4055 12.3694 33.2368 11.8446C33.1683 11.6715 33.0546 11.52 32.9075 11.4059C32.3987 10.9592 31.7715 10.6691 31.1016 10.5705C31.4635 10.254 31.3693 9.60007 31.0248 9.26962C30.6804 8.93916 30.1859 8.85887 29.7193 8.82978C28.4909 8.75644 27.2609 8.94687 26.1122 9.3883C25.9426 9.47007 25.7571 9.51375 25.5688 9.51629C25.389 9.48715 25.2162 9.42481 25.0592 9.33245C24.1865 8.92519 23.1695 8.96359 22.2445 9.23587C21.3194 9.50815 20.4665 10.0003 19.6229 10.4867C18.5629 11.0988 17.3877 11.8714 17.1713 13.1222" fill="white"/>
<path d="M33.6877 13.3646C33.6287 13.2654 33.5451 13.1832 33.445 13.126C33.3449 13.0687 33.2317 13.0382 33.1164 13.0376C33.3677 13.204 33.5004 13.5612 33.2327 13.8521C32.9711 14.1471 32.6178 14.3455 32.2297 14.4153C32.2867 14.4687 32.3396 14.5262 32.388 14.5875C32.7371 15.0471 32.6207 15.7743 32.0564 15.9838C31.6968 16.1164 31.3175 15.9943 30.9649 15.7674C30.9649 15.7895 30.9649 15.8104 30.9649 15.8325C30.9181 16.0708 30.7969 16.288 30.6187 16.453C30.4406 16.6179 30.2147 16.7221 29.9736 16.7506C29.8199 16.7753 29.6624 16.7617 29.5153 16.711C29.3681 16.6602 29.2357 16.5739 29.13 16.4597C29.0199 16.6524 28.8673 16.8175 28.6838 16.9423C28.5003 17.0671 28.2908 17.1484 28.0711 17.1799C27.4346 17.2544 26.9704 16.9088 26.6085 16.4411C26.5108 17.0089 26.15 17.4732 25.4752 17.5325C25.2319 17.5531 24.9873 17.5162 24.7609 17.4248C24.5345 17.3335 24.3328 17.1902 24.172 17.0066C23.4121 17.8932 22.38 17.6605 21.7948 16.7203C20.9558 17.3149 19.5502 16.9414 19.456 15.2659C19.4176 14.5805 18.4995 15.3682 18.7578 14.9168C18.5827 14.8293 18.4299 14.7029 18.3113 14.5472C18.1927 14.3914 18.1114 14.2106 18.0736 14.0185C17.6573 14.0483 17.2392 14.0425 16.8239 14.001L16.3585 15.1646C15.942 15.3275 15.5091 15.6545 15.4917 16.1211C15.4765 16.5528 15.8489 16.9088 16.2468 17.0042C16.6448 17.0997 17.0613 16.9984 17.4616 16.8972C16.9962 17.2602 17.2289 18.1213 17.7502 18.3575C18.2715 18.5937 18.894 18.3575 19.3524 17.9968C19.0825 18.5087 19.7085 19.1185 20.2565 19.023C20.8046 18.9276 21.2002 18.4331 21.5446 17.9758C21.7006 18.2359 21.9228 18.45 22.1885 18.5962C22.4543 18.7423 22.7541 18.8153 23.0572 18.8078C23.3625 18.7875 23.6574 18.6886 23.9131 18.5206C24.1688 18.3525 24.3766 18.1212 24.5164 17.849C24.6878 18.0715 24.9166 18.2432 25.1781 18.3457C25.4396 18.4481 25.7241 18.4776 26.0011 18.4308C26.2815 18.3708 26.5414 18.2389 26.7552 18.0479C26.969 17.8569 27.1294 17.6135 27.2205 17.3417C27.2752 17.9479 27.8652 18.4343 28.4376 18.347C29.0101 18.2597 29.4546 17.6163 29.3569 17.0159C29.5046 17.657 30.2947 17.9386 30.8823 17.7012C31.4699 17.4638 31.328 17.2079 31.5665 16.5935C31.876 16.8809 32.5241 16.8786 32.8662 16.5935C33.2083 16.3084 33.3852 15.8639 33.1699 15.4706C32.9546 15.0773 33.0384 14.8283 32.6149 14.7376C32.9907 14.7236 33.0268 14.5817 33.3479 14.3745C33.6691 14.1674 33.875 13.7067 33.6877 13.3646Z" fill="#EDE6E4"/>
<path d="M27.8239 6.65747C25.7806 6.30839 21.672 6.93556 18.748 8.47381C17.8543 8.94506 15.0024 10.4077 14.8477 13.2073C15.5993 14.4174 17.7182 15.3785 19.0936 15.2831C19.9081 15.2272 20.7412 15.0888 21.4859 14.7199C22.3644 14.2847 23.0776 13.5563 23.8491 12.9361C25.7678 11.3897 26.4823 11.0197 28.8839 10.8778C29.2551 10.8557 31.2855 10.296 31.6276 10.1389C31.9697 9.98181 32.9716 10.4438 33.074 10.0644C33.074 10.0644 32.2001 7.57669 27.8192 6.65747" fill="#CF6C3A"/>
<path d="M14.8563 13.2072C14.8563 13.2072 14.5829 15.1946 15.6324 15.582C16.5388 15.9172 18.7543 16.3698 20.7859 16.222C20.7859 16.222 22.5092 16.4256 24.379 13.6621C26.2489 10.8986 31.2081 10.951 32.7777 11.1663C32.7777 11.1663 33.4584 11.4385 33.2327 10.4495C33.1828 10.2291 33.061 10.0316 32.8867 9.888C32.7123 9.74436 32.4951 9.66273 32.2693 9.65593C30.3808 9.60124 24.8677 9.70713 22.764 12.6312C20.822 15.333 14.8563 13.2072 14.8563 13.2072Z" fill="#E67B45"/>
<path d="M15.873 10.694C15.873 10.694 19.4801 10.9733 22.8336 11.8134C22.8336 11.8134 23.9343 11.8134 23.918 14.1313L23.7889 14.4501L24.38 13.6658C24.38 13.6658 24.2403 12.0205 23.0314 11.412C21.8224 10.8034 20.4261 10.7511 16.1476 10.3647" fill="#FCD290"/>
<path d="M25.9432 12.2786C26.041 12.2146 26.1399 12.1552 26.2434 12.1005L26.2562 12.0936C26.2562 12.0936 26.6193 9.99214 25.0589 9.64074C23.7615 9.34985 22.2407 9.23814 18.3009 8.64355C18.1764 8.73199 18.0484 8.81576 17.9204 8.89838L17.8994 8.92281C17.8994 8.92281 25.7338 9.90138 25.472 10.4611C25.472 10.4611 25.9328 10.0433 25.9432 12.2786Z" fill="#FCD290"/>
<path d="M28.3755 9.86479C27.5168 7.94953 23.2557 8.01004 20.9286 7.52832L20.3887 7.76104C21.3079 7.85645 26.8477 8.48129 27.931 9.82057C27.931 9.82057 28.3487 10.7177 28.1637 11.4263C28.2603 11.3623 28.4942 11.3716 28.5977 11.3181C28.6513 10.8226 28.5747 10.3216 28.3755 9.86479Z" fill="#FCD290"/>
<path d="M22.8973 15.4189C23.0323 15.2878 23.17 15.159 23.3104 15.0326C23.3185 15.0233 23.3279 15.0163 23.336 15.007C23.2557 14.552 22.9683 13.4327 22.0165 12.9544C20.8087 12.3459 19.4113 12.2924 15.1339 11.9072L15.0792 11.9712C15.0397 12.062 15.0013 12.1539 14.9629 12.2447C15.5761 12.297 18.8027 12.5996 21.8199 13.3547C21.8199 13.3547 22.8333 13.3594 22.8973 15.4189Z" fill="#FCD290"/>
<path d="M31.2931 9.57573C30.4344 7.66048 26.7866 7.22879 24.4559 6.74707C24.2756 6.82387 23.7671 6.8867 23.5879 6.96466C24.5071 7.06008 30.1738 7.95603 30.8498 9.53035C30.8498 9.53035 31.2675 10.4286 31.0825 11.1373C31.1791 11.0733 31.413 11.0826 31.5165 11.0279C31.5697 10.5326 31.4927 10.0321 31.2931 9.57573Z" fill="#FCD290"/>
<path d="M30.4884 12.0922C30.2894 12.5728 29.5808 12.9068 29.1829 12.6077C29.1829 12.6077 28.8105 12.6438 29.0735 12.8404C29.739 13.3431 30.628 13.0731 30.9573 12.2808C30.9737 12.2496 30.9834 12.2153 30.9858 12.1802C30.9882 12.145 30.9832 12.1097 30.9711 12.0766C30.959 12.0435 30.9402 12.0133 30.9157 11.988C30.8913 11.9626 30.8618 11.9426 30.8292 11.9293C30.7965 11.916 30.7615 11.9097 30.7263 11.9108C30.691 11.9118 30.6564 11.9202 30.6247 11.9355C30.5929 11.9507 30.5647 11.9724 30.5418 11.9992C30.5189 12.026 30.5019 12.0573 30.4919 12.0911L30.4884 12.0922Z" fill="#EDE6E4"/>
<path d="M29.2202 14.4999C28.9724 14.9805 28.2079 15.2632 27.8239 14.913C27.8239 14.913 27.4353 14.913 27.6901 15.1457C28.3394 15.7275 29.2854 15.5355 29.695 14.7408C29.7163 14.7099 29.7307 14.6748 29.7374 14.638C29.7441 14.6011 29.7429 14.5632 29.7338 14.5268C29.7247 14.4904 29.708 14.4564 29.6847 14.427C29.6615 14.3976 29.6322 14.3734 29.5989 14.3562C29.5656 14.339 29.5291 14.329 29.4916 14.327C29.4542 14.325 29.4167 14.331 29.3818 14.3446C29.3468 14.3582 29.3152 14.3791 29.2889 14.4059C29.2627 14.4326 29.2424 14.4647 29.2295 14.4999H29.2202Z" fill="#EDE6E4"/>
<path d="M27.0928 13.9581C26.8461 14.4386 26.0805 14.7214 25.6965 14.3712C25.6965 14.3712 25.3067 14.3712 25.5627 14.6039C26.2108 15.1857 27.1579 14.9925 27.5675 14.1978C27.5888 14.1669 27.6033 14.1319 27.61 14.095C27.6167 14.0581 27.6154 14.0202 27.6063 13.9838C27.5973 13.9474 27.5805 13.9134 27.5573 13.884C27.534 13.8546 27.5048 13.8305 27.4715 13.8132C27.4382 13.796 27.4016 13.7861 27.3642 13.7841C27.3267 13.7821 27.2893 13.7881 27.2543 13.8017C27.2194 13.8153 27.1877 13.8361 27.1615 13.8629C27.1352 13.8897 27.115 13.9217 27.1021 13.9569L27.0928 13.9581Z" fill="#EDE6E4"/>
<path d="M21.2397 15.3154C21.0794 14.8271 20.9626 14.3256 20.8906 13.8167C18.3784 14.4637 14.8504 13.207 14.8504 13.207C14.8504 13.207 14.577 15.1944 15.6266 15.5819C16.533 15.917 18.7484 16.3696 20.78 16.2219C21.0225 16.2325 21.2648 16.1977 21.4945 16.1195C21.4002 15.8425 21.3153 15.5644 21.2397 15.3154Z" fill="#C46535"/>
</svg>
