<svg width="17" height="25" viewBox="0 0 17 25" fill="none" xmlns="http://www.w3.org/2000/svg">
<path d="M14.229 25H2.77067C1.33473 25 0.166504 23.8318 0.166504 22.3958V2.60417C0.166504 1.16823 1.33473 0 2.77067 0H14.229C15.6649 0 16.8332 1.16823 16.8332 2.60417V22.3958C16.8332 23.8318 15.6649 25 14.229 25ZM2.77067 1.04167C1.90921 1.04167 1.20817 1.74271 1.20817 2.60417V22.3958C1.20817 23.2573 1.90921 23.9583 2.77067 23.9583H14.229C15.0905 23.9583 15.7915 23.2573 15.7915 22.3958V2.60417C15.7915 1.74271 15.0905 1.04167 14.229 1.04167H2.77067Z" fill="white"/>
<path d="M16.3123 5.20817H0.687337C0.399316 5.20817 0.166504 4.97484 0.166504 4.68734C0.166504 4.39984 0.399316 4.1665 0.687337 4.1665H16.3123C16.6004 4.1665 16.8332 4.39984 16.8332 4.68734C16.8332 4.97484 16.6004 5.20817 16.3123 5.20817Z" fill="white"/>
<path d="M16.3123 20.8332H0.687337C0.399316 20.8332 0.166504 20.5998 0.166504 20.3123C0.166504 20.0248 0.399316 19.7915 0.687337 19.7915H16.3123C16.6004 19.7915 16.8332 20.0248 16.8332 20.3123C16.8332 20.5998 16.6004 20.8332 16.3123 20.8332Z" fill="white"/>
<path d="M8.49967 21.354C7.92467 21.354 7.45801 21.8207 7.45801 22.3957C7.45801 22.9707 7.92467 23.4373 8.49967 23.4373C9.07467 23.4373 9.54134 22.9707 9.54134 22.3957C9.54134 21.8207 9.07467 21.354 8.49967 21.354Z" fill="white"/>
<path d="M11.1042 3.12516H5.89583C5.60781 3.12516 5.375 2.89183 5.375 2.60433C5.375 2.31683 5.60781 2.0835 5.89583 2.0835H11.1042C11.3922 2.0835 11.625 2.31683 11.625 2.60433C11.625 2.89183 11.3922 3.12516 11.1042 3.12516Z" fill="white"/>
</svg>
