<svg width="36" height="30" viewBox="0 0 36 30" fill="none" xmlns="http://www.w3.org/2000/svg">
<path d="M21.5643 7.06755C21.5502 7.27304 21.5677 7.47948 21.6163 7.67962L21.6592 7.62148C21.8681 7.3378 22.0524 7.03679 22.2101 6.72173L22.2376 6.66359C22.4873 6.14748 22.6832 5.60702 22.8221 5.05078C22.6997 5.20992 22.5712 5.35682 22.4396 5.5282C22.0142 6.04846 21.6133 6.53199 21.5643 7.06755Z" fill="#DC5F47"/>
<path d="M14.0092 13.0783C13.9925 13.2836 14.0091 13.4903 14.0582 13.6904L14.101 13.6322C14.3093 13.3481 14.4935 13.0471 14.6519 12.7325L14.6794 12.6743C14.9286 12.158 15.1245 11.6176 15.264 11.0615C15.1416 11.2207 15.013 11.3676 14.8814 11.5389C14.456 12.0592 14.0551 12.5427 14.0092 13.0783Z" fill="#DC5F47"/>
<path d="M14.9884 6.64809C15.0939 7.15003 15.3414 7.61107 15.7015 7.97628C15.7168 7.68861 15.729 7.39175 15.7382 7.08266C15.6445 6.93274 15.583 6.76494 15.5577 6.58994C15.5416 6.25432 15.6055 5.91969 15.7443 5.61369C15.7443 5.2036 15.7107 4.80881 15.677 4.42627C15.6495 4.48136 15.6189 4.5395 15.5944 4.59459C15.2516 5.26481 14.9119 5.97787 14.9884 6.64809Z" fill="#DC5F47"/>
<path d="M6.1902 20.4103C6.17653 20.6156 6.19302 20.8219 6.23917 21.0224L6.28507 20.9642C6.49398 20.6806 6.67828 20.3796 6.83594 20.0645L6.86348 20.0064C7.11028 19.4894 7.30506 18.9491 7.44495 18.3936C7.32559 18.5527 7.194 18.6996 7.06546 18.871C6.64007 19.3882 6.23917 19.8748 6.1902 20.4103Z" fill="#DC5F47"/>
<path d="M7.17302 13.9809C7.2791 14.4826 7.52652 14.9434 7.88607 15.3091C7.88607 15.0214 7.91362 14.7245 7.91974 14.4124C7.82099 14.263 7.75622 14.0937 7.73 13.9166C7.71234 13.5809 7.7764 13.2459 7.91668 12.9403C7.91668 12.5272 7.87996 12.1324 7.84629 11.7529L7.76366 11.9213C7.4362 12.5976 7.09651 13.2953 7.17302 13.9809Z" fill="#DC5F47"/>
<path d="M27.8819 11.3243C27.8819 14.6448 26.6914 15.3487 23.8544 15.3487C21.1491 15.3487 19.8301 14.4306 19.8301 11.3243C19.8301 8.3986 21.2348 7.29688 23.8544 7.29688C26.7373 7.29688 27.8819 8.44145 27.8819 11.3243Z" fill="#E9E9E9"/>
<path d="M27.9834 10.9267C27.9834 14.2503 26.796 14.9542 23.9591 14.9542C21.2507 14.9542 19.9316 14.036 19.9316 10.9267C19.9316 8.00103 21.3394 6.90237 23.9591 6.90237C26.8389 6.89625 27.9834 8.04694 27.9834 10.9267Z" fill="#EF7A52"/>
<path d="M20.4906 9.27714C20.6193 9.14865 20.7834 9.06131 20.9619 9.0262C21.2144 8.96623 21.4471 8.84201 21.6375 8.6656C21.8278 8.48919 21.9693 8.26657 22.0483 8.01934C22.1018 7.84569 22.2002 7.6892 22.3334 7.56563C22.4666 7.44207 22.6301 7.35578 22.8073 7.31546C23.0613 7.26099 23.2947 7.1358 23.4805 6.95434L23.5173 6.91455C23.0164 6.93298 22.5208 7.02263 22.0452 7.1808L22.0054 7.21446C21.8115 7.38752 21.6695 7.61109 21.5954 7.8602C21.5422 8.03374 21.4439 8.19006 21.3106 8.31319C21.1773 8.43632 21.0136 8.52184 20.8364 8.56102C20.6361 8.60859 20.4483 8.69832 20.2855 8.82421C20.1168 9.26056 20.0137 9.7195 19.9795 10.1861C20.0867 10.0491 20.1677 9.89347 20.2182 9.72702C20.2632 9.55371 20.3579 9.39733 20.4906 9.27714V9.27714Z" fill="#DC5F47"/>
<path d="M20.6899 11.3919C20.7588 11.1324 20.8999 10.8979 21.0969 10.7155C21.2822 10.5233 21.5175 10.3866 21.7763 10.3208C22.109 10.2329 22.4116 10.0562 22.6516 9.80967C22.9023 9.57456 23.0834 9.2749 23.1749 8.94359C23.2451 8.68473 23.3861 8.45054 23.5819 8.26725C23.7674 8.07302 24.004 7.93512 24.2644 7.86941C24.5976 7.78287 24.9005 7.60602 25.1396 7.35833C25.2403 7.25774 25.3314 7.14813 25.412 7.03087C25.2376 6.99415 25.0539 6.96966 24.8611 6.94824C24.8435 6.97217 24.8241 6.99468 24.803 7.01557C24.6178 7.20948 24.381 7.34645 24.1205 7.41035C23.7874 7.49892 23.4848 7.67668 23.2453 7.9245C22.9926 8.15976 22.8103 8.4607 22.7189 8.79363C22.6491 9.05112 22.5093 9.28419 22.3149 9.46691C22.1297 9.66082 21.8929 9.79779 21.6325 9.8617C21.2997 9.95098 20.9972 10.1286 20.7572 10.3758C20.5065 10.6109 20.3254 10.9106 20.2339 11.2419C20.1812 11.43 20.0917 11.6058 19.9707 11.7591C19.9921 11.9703 20.0166 12.1692 20.0533 12.3559C20.0901 12.3222 20.1268 12.2977 20.1666 12.261C20.4169 12.0244 20.5979 11.7238 20.6899 11.3919V11.3919Z" fill="#DC5F47"/>
<path d="M21.2096 12.4749C21.2886 12.1758 21.4523 11.9059 21.6809 11.6976C21.8971 11.4755 22.172 11.3195 22.4736 11.2477C22.8442 11.1459 23.1832 10.9524 23.4592 10.6849C23.7352 10.4175 23.9393 10.0848 24.0527 9.71752C24.1428 9.42281 24.3064 9.15584 24.528 8.94171C24.7496 8.72757 25.0221 8.5733 25.3197 8.49338C25.6943 8.39733 26.0358 8.20168 26.3082 7.92721C26.4365 7.80485 26.5505 7.6683 26.6479 7.52018C26.512 7.43057 26.3686 7.35276 26.2194 7.2876C26.1496 7.39848 26.0675 7.50114 25.9746 7.59363C25.7577 7.81636 25.4816 7.97245 25.1789 8.04351C24.8044 8.13956 24.4628 8.3352 24.1904 8.60967C23.9076 8.87276 23.7023 9.20827 23.5967 9.5798C23.516 9.87814 23.3526 10.1476 23.1254 10.3571C22.9095 10.5796 22.6345 10.7357 22.3328 10.807C21.9579 10.9006 21.616 11.0954 21.3443 11.3701C21.0637 11.6345 20.8597 11.9696 20.7537 12.3402C20.6723 12.6399 20.5078 12.9104 20.2793 13.1206V13.1206C20.339 13.2749 20.4106 13.4243 20.4935 13.5674C20.5394 13.5307 20.5792 13.5032 20.6251 13.4603C20.9067 13.1917 21.1089 12.8508 21.2096 12.4749V12.4749Z" fill="#DC5F47"/>
<path d="M22.2293 13.1118C22.3075 12.8308 22.4659 12.5788 22.6852 12.3865C22.8948 12.1832 23.1582 12.0441 23.4442 11.9856C23.8009 11.8976 24.1291 11.7194 24.397 11.4681C24.665 11.2167 24.8638 10.9007 24.9744 10.5503C25.0551 10.2697 25.2144 10.018 25.4334 9.82498C25.6417 9.61927 25.9055 9.47887 26.1924 9.42101C26.5559 9.34256 26.89 9.16332 27.1564 8.90381C27.2902 8.78268 27.4065 8.64365 27.5022 8.49066C27.4157 8.32885 27.3132 8.17609 27.1962 8.03467C27.11 8.23328 26.9803 8.41002 26.8167 8.55187C26.6085 8.75757 26.3447 8.89797 26.0578 8.95583C25.6977 9.04097 25.3658 9.21792 25.0944 9.46946C24.823 9.72099 24.6214 10.0385 24.5092 10.3911C24.4223 10.6703 24.2634 10.9216 24.0485 11.1198C23.8336 11.3181 23.5703 11.4562 23.2851 11.5204C22.9259 11.6057 22.5949 11.7824 22.3241 12.0334C22.0533 12.2843 21.852 12.601 21.7396 12.9527C21.6684 13.1854 21.5467 13.3996 21.3833 13.58C21.2198 13.7604 21.0186 13.9025 20.7939 13.9962C20.9135 14.1239 21.047 14.2378 21.1918 14.3359C21.6688 14.0691 22.0274 13.6318 22.1956 13.1118H22.2293Z" fill="#DC5F47"/>
<path d="M23.4811 13.5556C23.6733 13.37 23.9142 13.2427 24.1758 13.1884C24.5141 13.118 24.8253 12.9524 25.0725 12.711C25.3321 12.4826 25.522 12.1856 25.6203 11.8541C25.6931 11.596 25.8386 11.3644 26.0396 11.1869C26.2328 11.0011 26.4747 10.8738 26.7373 10.8197C27.0748 10.7453 27.3852 10.579 27.634 10.3392C27.7489 10.2348 27.8515 10.1178 27.9401 9.99032C27.9096 9.71552 27.8584 9.4434 27.787 9.17627C27.7687 9.22524 27.7503 9.2742 27.735 9.32011C27.6597 9.57774 27.5133 9.80895 27.3127 9.98727C27.1221 10.1751 26.8805 10.3028 26.618 10.3545C26.2798 10.427 25.969 10.5936 25.7213 10.835C25.4612 11.0642 25.2713 11.3623 25.1735 11.6949C25.0936 11.9489 24.9488 12.1776 24.7534 12.3585C24.5581 12.5394 24.3189 12.6661 24.0595 12.7263C23.7206 12.7974 23.4087 12.9629 23.1598 13.2037C22.9023 13.4333 22.7137 13.73 22.615 14.0606C22.5423 14.3186 22.3967 14.5503 22.1958 14.7277L22.1621 14.7522C22.3454 14.8016 22.5314 14.8404 22.7191 14.8685C22.8755 14.6775 22.9939 14.4583 23.068 14.2228C23.139 13.9655 23.2824 13.7339 23.4811 13.5556V13.5556Z" fill="#DC5F47"/>
<path d="M24.5767 14.0512C24.7642 13.8699 25.0002 13.7466 25.2561 13.6962C25.585 13.6184 25.8883 13.4574 26.137 13.2285C26.3857 12.9997 26.5713 12.7108 26.6761 12.3895C26.7478 12.1376 26.8914 11.9122 27.0893 11.7407C27.2767 11.5586 27.5125 11.4343 27.7687 11.3826L27.9737 11.3245C27.9737 11.1929 27.9737 11.0674 27.9737 10.9266C27.9737 10.8868 27.9737 10.847 27.9737 10.8042C27.8671 10.8542 27.7552 10.8921 27.6401 10.9174C27.308 10.9897 27.0021 11.1516 26.7557 11.3857C26.5018 11.611 26.3154 11.9023 26.2171 12.2273C26.1467 12.479 26.0041 12.7045 25.807 12.8761C25.6195 13.0574 25.3835 13.1807 25.1276 13.2311C24.7987 13.3089 24.4954 13.4699 24.2467 13.6988C23.998 13.9276 23.8124 14.2165 23.7076 14.5378C23.6625 14.6823 23.5965 14.8195 23.5117 14.9449C23.6525 14.9449 23.7994 14.9449 23.9524 14.9449H24.0595C24.0993 14.8561 24.133 14.7704 24.1605 14.6908C24.2361 14.4426 24.3804 14.2209 24.5767 14.0512Z" fill="#DC5F47"/>
<path d="M27.1201 13.9534C27.3697 13.7174 27.5506 13.418 27.6434 13.0873C27.6836 12.9499 27.7411 12.8183 27.8148 12.6956C27.8769 12.4226 27.9188 12.1454 27.9402 11.8662C27.858 11.9279 27.7802 11.9954 27.7076 12.0682C27.4582 12.3038 27.2782 12.6034 27.1874 12.9343C27.1133 13.1908 26.9749 13.4241 26.7853 13.6121C26.5957 13.8001 26.3612 13.9365 26.104 14.0085C25.7719 14.0972 25.4703 14.275 25.2318 14.5226C25.1138 14.6409 25.011 14.7736 24.9258 14.9174C25.1601 14.9001 25.3931 14.8684 25.6235 14.8225C25.8018 14.6532 26.0196 14.5312 26.257 14.4675C26.5864 14.3785 26.885 14.2006 27.1201 13.9534V13.9534Z" fill="#DC5F47"/>
<path d="M31.5918 13.0471C31.5918 16.8695 31.0165 19.4249 29.7556 21.0989C28.0449 23.4003 25.0304 27.1094 20.5746 27.6572C13.2297 28.5753 9.57567 21.5365 9.57567 13.0471C9.57567 9.98677 6.18785 11.2384 7.03557 9.40224C7.64764 8.05874 12.2106 4.67093 12.8349 4.16903C14.6712 2.69088 17.2694 2.05127 20.5746 2.05127C28.4672 2.05127 31.5918 5.17589 31.5918 13.0471Z" fill="#A27223"/>
<path d="M31.2153 8.94385C31.0654 11.1993 30.4533 13.6752 28.3784 13.9139C25.3915 14.2566 26.1719 17.1119 25.2782 19.092C24.677 20.4292 23.741 21.5887 22.5606 22.4584C20.146 24.2487 17.3091 25.2127 14.4844 26.1461C16.1125 27.3702 18.1568 27.9548 20.6051 27.6548C25.0518 27.107 28.0662 23.3979 29.7861 21.0965C31.0348 19.4225 31.6223 16.8671 31.6223 13.0447C31.6295 11.6673 31.4931 10.293 31.2153 8.94385V8.94385Z" fill="#835B1A"/>
<path d="M27.022 17.0139C27.022 26.0879 23.778 28.0098 16.0261 28.0098C8.63537 28.0098 5.03027 25.485 5.03027 17.0139C5.03027 9.02027 8.87713 6.01807 16.0261 6.01807C23.8973 6.01807 27.022 9.14268 27.022 17.0139Z" fill="#414141"/>
<path d="M25.4608 17.0137C25.4608 24.7992 22.6759 26.4488 16.0258 26.4488C9.6847 26.4488 6.59375 24.282 6.59375 17.0137C6.59375 10.1554 9.89281 7.57861 16.0258 7.57861C22.78 7.57861 25.4608 10.2625 25.4608 17.0137Z" fill="white"/>
<path d="M19.9522 17.4086C19.9522 20.7322 18.7648 21.4361 15.9248 21.4361C13.2194 21.4361 11.9004 20.518 11.9004 17.4086C11.9004 14.4829 13.3082 13.3843 15.9248 13.3843C18.8076 13.3843 19.9522 14.5288 19.9522 17.4086Z" fill="#E9E9E9"/>
<path d="M24.1639 10.918C24.6414 14.7679 24.9933 19.1962 23.0592 22.6024C21.3392 25.6291 18.1626 25.4363 14.0434 25.0048C12.0021 24.7906 10.9371 24.1724 9.59667 22.6024C8.54391 21.3783 7.60132 17.9813 6.60059 16.7877C6.60059 16.8673 6.60059 16.9438 6.60059 17.0264C6.60059 24.2948 9.69154 26.4615 16.0326 26.4615C22.6827 26.4615 25.4677 24.812 25.4677 17.0264C25.4615 14.3945 25.0453 12.4053 24.1639 10.918Z" fill="#E9E9E9"/>
<path d="M20.0537 17.0133C20.0537 20.3337 18.8663 21.0376 16.0263 21.0376C13.321 21.0376 12.002 20.1195 12.002 17.0133C12.002 14.0876 13.4097 12.9858 16.0263 12.9858C18.9245 12.9858 20.0537 14.1304 20.0537 17.0133Z" fill="#EF7A52"/>
<path d="M12.5609 15.3611C12.6897 15.2326 12.8537 15.1453 13.0322 15.1102C13.2871 15.0559 13.5216 14.9308 13.7085 14.7491C13.9024 14.576 14.0444 14.3524 14.1186 14.1033C14.1731 13.9305 14.2719 13.775 14.405 13.6521C14.5381 13.5292 14.701 13.4431 14.8776 13.4025C15.1315 13.3461 15.3647 13.22 15.5508 13.0383C15.5646 13.0266 15.577 13.0132 15.5876 12.9985C15.0868 13.0194 14.5913 13.1101 14.1155 13.2678L14.0758 13.3015C13.8816 13.4731 13.7395 13.6958 13.6657 13.9442C13.6164 14.1194 13.5175 14.2767 13.3811 14.3971C13.2523 14.5256 13.0883 14.6129 12.9098 14.6481C12.7074 14.6922 12.5179 14.7823 12.3558 14.9113C12.1882 15.3479 12.0852 15.8067 12.0498 16.2731C12.1571 16.1362 12.238 15.9805 12.2885 15.8141C12.3344 15.6403 12.4289 15.4831 12.5609 15.3611V15.3611Z" fill="#DC5F47"/>
<path d="M12.7612 17.4793C12.836 17.223 12.9751 16.99 13.1652 16.8026C13.3554 16.6151 13.5903 16.4793 13.8476 16.4081C14.1778 16.3138 14.4789 16.138 14.7233 15.8968C14.9677 15.6556 15.1475 15.3568 15.2462 15.0279C15.321 14.7711 15.4605 14.5378 15.6512 14.3503C15.842 14.1627 16.0776 14.0273 16.3357 13.9568C16.669 13.8688 16.9718 13.691 17.2109 13.4427C17.313 13.3434 17.4043 13.2336 17.4833 13.1152C17.3089 13.0816 17.1252 13.054 16.9324 13.0356C16.9141 13.0571 16.8988 13.0785 16.8743 13.103C16.6874 13.2948 16.4513 13.4314 16.1918 13.4978C15.8585 13.5861 15.555 13.7626 15.3135 14.0088C15.0632 14.2455 14.8822 14.546 14.7902 14.878C14.7154 15.1343 14.5763 15.3672 14.3861 15.5547C14.196 15.7422 13.9611 15.8779 13.7038 15.9491C13.3741 16.0434 13.0733 16.2189 12.829 16.4595C12.5846 16.7001 12.4046 16.9981 12.3052 17.3263C12.2525 17.5144 12.163 17.6901 12.042 17.8435C12.0584 18.0488 12.086 18.2532 12.1246 18.4555C12.1613 18.4219 12.1981 18.3974 12.2379 18.3576C12.4899 18.1186 12.671 17.8147 12.7612 17.4793V17.4793Z" fill="#DC5F47"/>
<path d="M13.2809 18.5623C13.3684 18.2667 13.5307 17.9987 13.7521 17.7842C13.9736 17.5698 14.2466 17.4161 14.5449 17.3382C14.9156 17.2367 15.2547 17.0432 15.5308 16.7757C15.8068 16.5082 16.0109 16.1753 16.124 15.808C16.2056 15.5093 16.37 15.2398 16.5984 15.0306C16.8137 14.8075 17.089 14.6512 17.391 14.5808C17.7655 14.4847 18.1071 14.2891 18.3795 14.0146C18.5077 13.8933 18.6216 13.7577 18.7192 13.6106C18.5833 13.52 18.44 13.4412 18.2907 13.375C18.2209 13.4859 18.1387 13.5885 18.0459 13.681C17.8282 13.9034 17.5526 14.0603 17.2502 14.134C16.8795 14.2363 16.5404 14.43 16.264 14.6973C15.9876 14.9647 15.7827 15.2971 15.668 15.6641C15.5873 15.9634 15.424 16.2338 15.1967 16.4445C14.9804 16.6659 14.7054 16.8209 14.4041 16.8913C14.0295 16.9874 13.688 17.183 13.4156 17.4575C13.1339 17.721 12.9297 18.0564 12.8249 18.4276C12.7441 18.7267 12.5796 18.9964 12.3506 19.205V19.205C12.4115 19.3587 12.4831 19.508 12.5648 19.6518C12.6077 19.612 12.6505 19.5845 12.6964 19.5416C12.9762 19.274 13.1782 18.9356 13.2809 18.5623V18.5623Z" fill="#DC5F47"/>
<path d="M14.3002 19.1988C14.3874 18.9198 14.5464 18.6687 14.7612 18.4705C14.9761 18.2723 15.2392 18.134 15.5243 18.0696C15.8867 17.9922 16.2199 17.814 16.4853 17.5554C16.7611 17.3086 16.9643 16.9912 17.0729 16.6373C17.1507 16.3553 17.3092 16.1022 17.5289 15.909C17.7388 15.7055 18.0019 15.5655 18.2878 15.505C18.6512 15.4279 18.9854 15.2497 19.2519 14.9909C19.3849 14.869 19.5012 14.7301 19.5977 14.5777C19.5118 14.4145 19.4092 14.2607 19.2916 14.1187C19.2064 14.3187 19.0766 14.4966 18.9122 14.6389C18.7023 14.8424 18.4392 14.9824 18.1532 15.0429C17.7931 15.128 17.4612 15.305 17.1898 15.5565C16.9184 15.808 16.7168 16.1256 16.6047 16.4782C16.5259 16.7589 16.3675 17.0109 16.1487 17.2035C15.9395 17.4079 15.6761 17.5481 15.3897 17.6075C15.0299 17.6923 14.6983 17.8688 14.4269 18.1198C14.1556 18.3707 13.9538 18.6877 13.8412 19.0397C13.7624 19.3204 13.6041 19.5724 13.3852 19.765C13.244 19.8987 13.0775 20.0027 12.8955 20.071C13.015 20.1996 13.1485 20.3146 13.2934 20.4138C13.4442 20.3293 13.584 20.2265 13.7096 20.1078C13.9863 19.8649 14.1907 19.5504 14.3002 19.1988V19.1988Z" fill="#DC5F47"/>
<path d="M15.5573 19.6425C15.7479 19.4547 15.9894 19.327 16.252 19.2753C16.587 19.1944 16.8956 19.029 17.1485 18.7948C17.4014 18.5607 17.59 18.2657 17.6965 17.9379C17.7767 17.6836 17.9219 17.4546 18.1178 17.2737C18.3138 17.0928 18.5536 16.9663 18.8135 16.9066C19.151 16.8322 19.4614 16.6659 19.7102 16.4261C19.8259 16.3226 19.9286 16.2054 20.0162 16.0772C19.986 15.8024 19.9349 15.5302 19.8632 15.2632C19.8448 15.3121 19.8265 15.3611 19.8112 15.407C19.7301 15.6612 19.5846 15.89 19.3889 16.0713C19.1931 16.2526 18.9538 16.3801 18.6942 16.4414C18.3555 16.515 18.0439 16.6813 17.7944 16.9219C17.5359 17.1506 17.3471 17.4476 17.2497 17.7788C17.1775 18.0362 17.0318 18.267 16.8304 18.4429C16.6378 18.6279 16.3971 18.7552 16.1357 18.8101C15.8001 18.8897 15.4908 19.0546 15.2377 19.289C14.9846 19.5233 14.7963 19.819 14.6912 20.1475C14.6176 20.4043 14.4721 20.6347 14.2719 20.8116L14.2383 20.8361C14.4216 20.8855 14.6075 20.9243 14.7953 20.9524C14.9516 20.7613 15.0701 20.5422 15.1441 20.3066C15.2146 20.0499 15.3582 19.8192 15.5573 19.6425V19.6425Z" fill="#DC5F47"/>
<path d="M16.647 20.1383C16.8337 19.9557 17.07 19.8323 17.3264 19.7833C17.6578 19.7116 17.9629 19.5495 18.2078 19.315C18.4635 19.0912 18.6502 18.7993 18.7464 18.4734C18.8261 18.2259 18.9687 18.0033 19.1602 17.8273C19.3517 17.6514 19.5856 17.5281 19.839 17.4696C19.9033 17.4513 19.9736 17.4329 20.044 17.4084C20.044 17.2799 20.044 17.1514 20.044 17.0137C20.044 16.9708 20.044 16.9341 20.044 16.8882C19.9375 16.9391 19.8256 16.9781 19.7104 17.0045C19.3804 17.0815 19.0759 17.2426 18.8266 17.4722C18.5772 17.7017 18.3915 17.9918 18.2874 18.3143C18.2156 18.5653 18.0732 18.7905 17.8773 18.9631C17.6906 19.145 17.4542 19.2674 17.1979 19.315C16.867 19.3881 16.5623 19.55 16.3165 19.7833C16.0626 20.0086 15.8762 20.2999 15.7779 20.6249C15.7328 20.7684 15.6668 20.9045 15.582 21.0288C15.7228 21.0288 15.8697 21.0288 16.0197 21.0288H16.1298C16.1696 20.9401 16.2033 20.8544 16.2308 20.7748C16.3058 20.5272 16.4503 20.3063 16.647 20.1383V20.1383Z" fill="#DC5F47"/>
<path d="M19.1934 20.056C19.442 19.8185 19.6218 19.5182 19.7137 19.1869C19.7539 19.0495 19.8115 18.9179 19.8851 18.7952C19.9476 18.5223 19.9896 18.245 20.0105 17.9658C19.9371 18.024 19.8606 18.0882 19.778 18.1678C19.5282 18.4044 19.3483 18.7051 19.2577 19.0369C19.1823 19.2928 19.0434 19.5254 18.854 19.7132C18.6646 19.901 18.4308 20.0379 18.1743 20.1111C17.8423 20.1985 17.5406 20.3752 17.3021 20.6222C17.1849 20.7424 17.0822 20.8759 16.9961 21.02C17.2302 21.0012 17.4632 20.9695 17.6939 20.9252C17.8713 20.7548 18.0894 20.6326 18.3273 20.5702C18.6563 20.4782 18.9551 20.3008 19.1934 20.056Z" fill="#DC5F47"/>
</svg>
