<svg width="15" height="15" viewBox="0 0 15 15" fill="none" xmlns="http://www.w3.org/2000/svg">
<path d="M14.0717 3.76148C13.2156 3.76148 12.4258 3.47788 11.7915 2.99946C11.0641 2.45103 10.5414 1.64653 10.3569 0.719287C10.3112 0.490186 10.2865 0.25376 10.2842 0.0114746H7.83879V6.69351L7.83586 10.3536C7.83586 11.3321 7.19865 12.1618 6.31535 12.4536C6.059 12.5382 5.78215 12.5784 5.49387 12.5625C5.1259 12.5423 4.78107 12.4313 4.48137 12.252C3.84357 11.8706 3.41115 11.1786 3.39943 10.387C3.38098 9.14976 4.38117 8.14107 5.6175 8.14107C5.86154 8.14107 6.09592 8.18091 6.31535 8.25327V6.42691V5.77036C6.08391 5.73608 5.84836 5.71821 5.61017 5.71821C4.25695 5.71821 2.99133 6.28071 2.08664 7.29409C1.40285 8.05991 0.992694 9.03696 0.929413 10.0615C0.846503 11.4074 1.33898 12.6868 2.29406 13.6307C2.43439 13.7693 2.58176 13.8979 2.73586 14.0166C3.55471 14.6467 4.55578 14.9883 5.61017 14.9883C5.84836 14.9883 6.08391 14.9708 6.31535 14.9365C7.30031 14.7906 8.2091 14.3397 8.92629 13.6307C9.80754 12.7597 10.2945 11.6034 10.2997 10.3726L10.2871 4.90698C10.7075 5.2313 11.1672 5.49966 11.6606 5.70796C12.4279 6.03169 13.2414 6.19575 14.0787 6.19546V4.41978V3.76089C14.0793 3.76147 14.0723 3.76148 14.0717 3.76148Z" fill="#818498"/>
</svg>
