<svg width="25" height="16" viewBox="0 0 25 16" fill="none" xmlns="http://www.w3.org/2000/svg">
<path d="M24.7359 13.9196C24.6697 13.8013 24.2602 12.8515 22.2896 10.8994C20.2265 8.85525 20.5037 9.18717 22.9885 5.65266C24.5019 3.50007 25.107 2.18551 24.9176 1.62353C24.7375 1.08785 23.6244 1.22917 23.6244 1.22917L19.9232 1.25217C19.9232 1.25217 19.6492 1.21273 19.4444 1.34255C19.2458 1.47072 19.1181 1.76649 19.1181 1.76649C19.1181 1.76649 18.5315 3.43269 17.7494 4.84913C16.1005 7.83811 15.44 7.99585 15.1706 7.81017C14.544 7.37801 14.701 6.07167 14.701 5.14491C14.701 2.24795 15.1121 1.0402 13.8989 0.727991C13.4956 0.62447 13.2 0.555455 12.17 0.543953C10.849 0.529164 9.72977 0.548883 9.09701 0.879165C8.67517 1.09935 8.35032 1.59067 8.54893 1.6186C8.79372 1.65311 9.34796 1.77799 9.64202 2.20523C10.0223 2.7557 10.0084 3.99467 10.0084 3.99467C10.0084 3.99467 10.2271 7.4043 9.49884 7.82825C8.99848 8.11909 8.31337 7.5259 6.84309 4.81298C6.09024 3.42448 5.5206 1.88809 5.5206 1.88809C5.5206 1.88809 5.41129 1.60217 5.21577 1.44936C4.97867 1.26367 4.64613 1.20452 4.64613 1.20452L1.12668 1.22752C1.12668 1.22752 0.598605 1.24396 0.40462 1.48879C0.232188 1.70734 0.390764 2.15757 0.390764 2.15757C0.390764 2.15757 3.14659 9.03764 6.26575 12.5064C9.1278 15.686 12.3763 15.4773 12.3763 15.4773H13.8481C13.8481 15.4773 14.2931 15.4248 14.5194 15.1635C14.7287 14.9236 14.7211 14.4733 14.7211 14.4733C14.7211 14.4733 14.6918 12.3651 15.6094 12.0546C16.5131 11.7489 17.6739 14.0921 18.9041 14.9942C19.834 15.6762 20.5406 15.5266 20.5406 15.5266L23.8307 15.4773C23.8307 15.4773 25.5519 15.364 24.7359 13.9196Z" fill="#7E992D"/>
</svg>
