<svg width="56" height="39" viewBox="0 0 56 39" fill="none" xmlns="http://www.w3.org/2000/svg">
<g filter="url(#filter0_d_1040_160)">
<rect x="4" y="2" width="48" height="31" rx="3" fill="white"/>
</g>
<path fill-rule="evenodd" clip-rule="evenodd" d="M36.3706 8.9L36.8677 11.3298L35.4881 11.327L36.3706 8.9ZM34.45 9.83439L33.052 13.2058L32.8789 13.6513L34.6495 13.6508L34.9967 12.6766L37.1563 12.6811L37.3556 13.6514L38.9228 13.6509L37.5599 7.09961C37.5224 7.10748 36.3298 7.09108 36.0722 7.10814C35.6052 7.13916 35.4675 7.43338 35.3131 7.79876C35.2002 8.06567 34.5294 9.74789 34.45 9.83439Z" fill="#1A1F70"/>
<path fill-rule="evenodd" clip-rule="evenodd" d="M25.9867 7.10577L24.2155 7.10954L22.4719 11.5175C22.3507 11.2769 21.8708 8.3527 21.769 7.82039C21.6196 7.03944 21.0792 7.1059 20.2929 7.1059C19.5647 7.1059 18.8366 7.10471 18.1099 7.10616L18.0781 7.29127C18.1789 7.3535 19.442 7.60209 19.8702 7.94545C20.1651 8.18188 20.352 9.2845 20.478 9.77124C20.5978 10.2346 21.395 13.5091 21.4878 13.6517L23.2635 13.65L25.9867 7.10577Z" fill="#1A1F70"/>
<path fill-rule="evenodd" clip-rule="evenodd" d="M32.9671 11.7707C32.8909 11.4578 33.0222 11.2741 32.8313 10.8485C32.5201 10.1546 31.6884 9.82726 31.0533 9.45718C30.4388 9.09907 30.4452 8.54799 31.2141 8.39403C31.9025 8.25621 32.4346 8.48021 32.984 8.66723L33.2818 7.25821L32.2951 7.02516C31.1534 6.9245 30.11 7.11854 29.4734 7.74045C28.8143 8.38438 28.5474 9.5003 29.3175 10.2479C29.6447 10.5656 29.915 10.728 30.3945 10.9676C30.7248 11.1325 31.3506 11.4245 31.1683 11.9147C31.0116 12.3357 30.3768 12.4124 29.8357 12.3726C29.1727 12.3237 28.9698 12.1411 28.4623 11.9713L28.1636 13.4161C29.1444 13.7278 30.1456 13.9137 31.2289 13.6008C31.9029 13.4062 32.4548 13.0348 32.7524 12.4465C32.8421 12.2693 32.9286 11.8366 32.9671 11.7707Z" fill="#1A1F70"/>
<path fill-rule="evenodd" clip-rule="evenodd" d="M28.3959 7.10547L26.7092 7.10606L25.3184 13.6516L27.0062 13.6514L28.3959 7.10547Z" fill="#1A1F70"/>
<path d="M4 18H52V30C52 31.6569 50.6569 33 49 33H7C5.34315 33 4 31.6569 4 30V18Z" fill="#1A1F70"/>
<path fill-rule="evenodd" clip-rule="evenodd" d="M31.7169 24.5474C32.201 24.4868 32.728 24.5085 32.7189 25.0757C32.71 25.6254 32.207 25.6261 31.7154 25.6289L31.7169 24.5474ZM31.1147 24.1446V27.4915L31.7151 27.4912L31.7158 26.0844C32.1783 26.087 32.4113 26.0716 32.5506 26.4922C32.6548 26.8073 32.7129 27.1734 32.8169 27.4904L33.4355 27.492C33.3799 27.226 33.2606 26.8602 33.188 26.5589C33.0951 26.1725 33.0026 26.0327 32.7254 25.8693C33.0043 25.7166 33.1936 25.6067 33.2886 25.268C33.3968 24.8828 33.2632 24.5416 33.068 24.3469C32.5905 23.8706 31.1748 24.062 31.1147 24.1446Z" fill="#FEFEFE"/>
<path fill-rule="evenodd" clip-rule="evenodd" d="M23.236 24.5855L24.5467 24.5853L24.5468 24.0698L22.6323 24.0794L22.6325 27.4896L24.6214 27.4891L24.6218 26.9749L23.2331 26.9699L23.2366 25.9735L24.4731 25.978L24.47 25.4626L23.2331 25.4565L23.236 24.5855Z" fill="#FEFEFE"/>
<path fill-rule="evenodd" clip-rule="evenodd" d="M34.4483 24.5855L35.7579 24.5842L35.7577 24.0698L33.8438 24.0792L33.844 27.4895L35.8328 27.4891L35.8319 26.9746L34.4444 26.9697L34.448 25.9738L35.6856 25.9686L35.6805 25.4626L34.4444 25.4566L34.4483 24.5855Z" fill="#FEFEFE"/>
<path fill-rule="evenodd" clip-rule="evenodd" d="M20.1346 26.8089L20 27.3357C20.5446 27.5226 21.0893 27.6837 21.6547 27.3651C22.068 27.1323 22.3523 26.4873 21.9741 25.9581C21.657 25.5143 20.9788 25.4893 20.7347 25.1655C20.5346 24.9002 20.766 24.6175 21.0086 24.5565C21.3905 24.4605 21.597 24.6218 21.8733 24.6922L22.0126 24.1768C21.4469 24.024 20.8894 23.8719 20.4018 24.2725C19.956 24.6388 19.9199 25.2902 20.3863 25.6908C20.7401 25.9947 21.5556 26.0574 21.5266 26.5893C21.4892 27.273 20.51 26.9708 20.1346 26.8089Z" fill="#FEFEFE"/>
<path fill-rule="evenodd" clip-rule="evenodd" d="M27.4524 27.3947L27.3578 26.8941C26.378 27.1797 25.5548 26.8974 25.5569 25.7863C25.5578 25.2521 25.752 24.9114 26.0699 24.7027C26.5227 24.4055 26.8925 24.5641 27.3576 24.6609L27.481 24.1611C26.1623 23.6436 24.9489 24.4256 24.9201 25.7511C24.887 27.2725 26.066 27.8129 27.4524 27.3947Z" fill="#FEFEFE"/>
<path fill-rule="evenodd" clip-rule="evenodd" d="M28.3505 27.2873C28.3953 27.1523 28.4531 27.3332 28.4049 27.1938C28.392 27.1564 28.3337 27.2246 28.4065 27.1147C28.5971 26.8272 28.5295 26.8185 28.4525 26.7074C28.4367 26.7749 28.4845 26.7078 28.5024 26.7445L28.5095 26.7629C28.5103 26.7654 28.5114 26.7708 28.512 26.7736C28.5798 27.0619 28.66 26.803 28.6267 26.9675C28.7491 26.9166 28.6388 26.966 28.6895 26.9074C28.7238 26.8678 28.7023 26.9738 28.7191 26.8485C28.689 26.7224 28.5651 26.6104 28.5274 26.3061C28.4972 26.0624 28.501 24.164 28.5254 24.0703L27.9081 24.0734C27.8944 25.081 27.7321 26.7566 28.3505 27.2873Z" fill="#FEFEFE"/>
<path fill-rule="evenodd" clip-rule="evenodd" d="M29.7119 26.7905C29.812 26.7771 29.8277 26.9053 29.9002 26.6809C29.9355 26.5714 29.9286 26.5473 29.9125 26.3584L30.0195 26.2881L29.9964 24.2155L30.3459 24.255C30.4436 24.3691 30.3807 25.4572 30.3809 25.713C30.3814 26.1347 30.3123 26.3631 30.3489 26.5553L30.3617 26.5876C30.3786 26.6558 30.3399 26.678 30.3391 26.68C30.3096 26.7557 30.3216 26.7552 30.3032 26.8408L30.2619 26.6218L30.2191 26.6228L30.1849 26.8616L30.2873 26.8637C30.17 26.9661 30.1993 26.7937 30.176 27.0249C29.9581 26.9546 30.1979 27.0734 30.0399 27.1245C29.9324 27.1592 29.9657 27.158 29.8908 27.1059C29.7917 27.0369 29.8188 27.0882 29.8189 26.9177L29.6994 26.896L29.7061 26.7776C29.6077 26.9149 29.4864 27.0205 29.2396 27.0362C28.9182 27.0565 28.8878 26.9371 28.7192 26.8482C28.7023 26.9735 28.7239 26.8674 28.6896 26.9071C28.6389 26.9657 28.7492 26.9163 28.6268 26.9671C28.6601 26.8027 28.5799 27.0616 28.512 26.7732C28.5114 26.7705 28.5103 26.765 28.5096 26.7626L28.5025 26.7442C28.4846 26.7074 28.4367 26.7745 28.4525 26.707C28.5296 26.8181 28.5972 26.8268 28.4066 27.1143C28.3337 27.2242 28.3921 27.156 28.405 27.1935C28.4531 27.3329 28.3953 27.1519 28.3506 27.287C29.0339 27.8154 30.0163 27.5308 30.3259 26.8608C30.5859 26.2983 30.4647 24.8098 30.4834 24.0698L29.8762 24.0729C29.8644 24.9297 30.0105 26.0749 29.7119 26.7905Z" fill="#FEFEFE"/>
<path fill-rule="evenodd" clip-rule="evenodd" d="M29.7117 26.7909L29.7059 26.778L29.6992 26.8964L29.8187 26.9181C29.8186 27.0886 29.7916 27.0373 29.8906 27.1062C29.9656 27.1583 29.9323 27.1596 30.0397 27.1248C30.1977 27.0737 29.958 26.9549 30.1758 27.0253C30.1991 26.794 30.1698 26.9664 30.2872 26.864L30.1847 26.862L30.2189 26.6231L30.2618 26.6221L30.3031 26.8412C30.3215 26.7555 30.3094 26.756 30.3389 26.6803C30.3397 26.6784 30.3785 26.6561 30.3616 26.588L30.3487 26.5556C30.3121 26.3634 30.3812 26.135 30.3808 25.7133C30.3805 25.4575 30.4434 24.3694 30.3457 24.2553L29.9962 24.2158L30.0193 26.2885L29.9123 26.3587C29.9285 26.5476 29.9354 26.5718 29.9 26.6812C29.8276 26.9057 29.8118 26.7774 29.7117 26.7909Z" fill="#FEFEFE"/>
<path fill-rule="evenodd" clip-rule="evenodd" d="M31.7173 24.5456L31.7158 25.6271C32.2075 25.6243 32.7105 25.6235 32.7193 25.0738C32.7285 24.5067 32.2014 24.485 31.7173 24.5456Z" fill="#1A1F70"/>
<defs>
<filter id="filter0_d_1040_160" x="0" y="0" width="56" height="39" filterUnits="userSpaceOnUse" color-interpolation-filters="sRGB">
<feFlood flood-opacity="0" result="BackgroundImageFix"/>
<feColorMatrix in="SourceAlpha" type="matrix" values="0 0 0 0 0 0 0 0 0 0 0 0 0 0 0 0 0 0 127 0" result="hardAlpha"/>
<feOffset dy="2"/>
<feGaussianBlur stdDeviation="2"/>
<feComposite in2="hardAlpha" operator="out"/>
<feColorMatrix type="matrix" values="0 0 0 0 0 0 0 0 0 0 0 0 0 0 0 0 0 0 0.1 0"/>
<feBlend mode="normal" in2="BackgroundImageFix" result="effect1_dropShadow_1040_160"/>
<feBlend mode="normal" in="SourceGraphic" in2="effect1_dropShadow_1040_160" result="shape"/>
</filter>
</defs>
</svg>
