<svg width="428" height="428" viewBox="0 0 428 428" fill="none" xmlns="http://www.w3.org/2000/svg">
<path d="M214 0.666687C96.368 0.666687 0.666656 96.368 0.666656 214C0.666656 331.632 96.368 427.333 214 427.333C331.632 427.333 427.333 331.632 427.333 214C427.333 96.368 331.632 0.666687 214 0.666687ZM229.147 314.48C221.04 322.373 206.96 322.373 198.853 314.48C194.992 310.427 192.667 304.88 192.667 299.333C192.667 293.787 194.992 288.24 198.853 284.187C202.907 280.347 208.453 278 214 278C219.547 278 225.093 280.347 229.147 284.187C232.987 288.24 235.333 293.787 235.333 299.333C235.333 304.88 232.987 310.427 229.147 314.48ZM235.333 235.333C235.333 247.109 225.797 256.667 214 256.667C202.203 256.667 192.667 247.109 192.667 235.333V128.667C192.667 116.891 202.203 107.333 214 107.333C225.797 107.333 235.333 116.891 235.333 128.667V235.333Z" fill="#FF7979"/>
</svg>
