<svg width="13" height="13" viewBox="0 0 13 13" fill="none" xmlns="http://www.w3.org/2000/svg">
<g clip-path="url(#clip0_998:452)">
<path d="M9.45017 0.260254H7.7452C6.01784 0.260254 4.27491 1.53578 4.27491 4.3854C4.27491 5.86144 4.90052 7.01104 6.04727 7.66482L3.94832 11.4638C3.84884 11.6435 3.84625 11.8471 3.94139 12.0085C4.03427 12.1661 4.20407 12.2603 4.39559 12.2603H5.45725C5.69845 12.2603 5.88655 12.1437 5.9767 11.9394L7.94466 8.09025H8.08828V11.7805C8.08828 12.0406 8.30773 12.2603 8.56746 12.2603H9.49502C9.78628 12.2603 9.98968 12.0569 9.98968 11.7656V0.785329C9.98972 0.476179 9.76787 0.260254 9.45017 0.260254ZM8.08832 6.3804H7.83497C6.85259 6.3804 6.26608 5.5785 6.26608 4.23533C6.26608 2.56519 7.00697 1.97014 7.70035 1.97014H8.08832V6.3804Z" fill="#7E992D"/>
</g>
<defs>
<clipPath id="clip0_998:452">
<rect width="12" height="12" fill="white" transform="translate(0.930908 0.260254)"/>
</clipPath>
</defs>
</svg>
