<svg width="23" height="18" viewBox="0 0 23 18" fill="none" xmlns="http://www.w3.org/2000/svg">
<path d="M22.0639 3.45826C21.8134 2.46398 21.0789 1.68019 20.1475 1.41246C18.4459 0.915527 11.6395 0.915527 11.6395 0.915527C11.6395 0.915527 4.83337 0.915527 3.1318 1.39362C2.21831 1.66107 1.46594 2.46412 1.21537 3.45826C0.767578 5.2743 0.767578 9.04053 0.767578 9.04053C0.767578 9.04053 0.767578 12.8257 1.21537 14.6228C1.4662 15.6169 2.20039 16.4007 3.13194 16.6685C4.85129 17.1655 11.6398 17.1655 11.6398 17.1655C11.6398 17.1655 18.4459 17.1655 20.1475 16.6874C21.079 16.4198 21.8134 15.6361 22.0642 14.6419C22.5119 12.8257 22.5119 9.05965 22.5119 9.05965C22.5119 9.05965 22.5298 5.2743 22.0639 3.45826ZM9.47251 12.5199V5.56116L15.1324 9.04053L9.47251 12.5199Z" fill="#7E992D"/>
</svg>
