<svg width="18" height="21" viewBox="0 0 18 21" fill="none" xmlns="http://www.w3.org/2000/svg">
<path d="M17.9992 19.0457L17.3862 4.8778C17.3754 3.83186 16.5362 2.98341 15.5062 2.98341H12.3902C12.1373 1.31406 10.7124 0 8.99785 0C7.28281 0 5.8575 1.31406 5.60456 2.98341H2.49282C1.46317 2.98341 0.62424 3.83189 0.613438 4.87784L0.000773292 19.0453C0.000265819 19.0573 0 19.0695 0 19.0815C0 20.1393 0.843336 21 1.87997 21H16.1201C17.1567 21 18 20.1396 18 19.0818C18 19.0697 17.9997 19.0578 17.9992 19.0457ZM8.99785 1.634C9.82849 1.634 10.5316 2.20437 10.7573 2.9834H7.23751C7.46329 2.20438 8.16679 1.634 8.99785 1.634ZM16.1201 19.3678H1.87997C1.72518 19.3678 1.60307 19.2485 1.59687 19.095L2.20915 4.93581C2.20967 4.9238 2.20992 4.9097 2.20992 4.89767C2.20992 4.74069 2.33417 4.61566 2.4928 4.61566H5.55804V7.60144C5.55804 8.05265 5.9146 8.41843 6.3555 8.41843C6.79639 8.41843 7.15296 8.05265 7.15296 7.60144V4.61566H10.8261V7.60144C10.8261 8.05265 11.1827 8.41843 11.6236 8.41843C12.0644 8.41843 12.421 8.05265 12.421 7.60144V4.61566H15.5062C15.6652 4.61566 15.7897 4.74049 15.7897 4.89747C15.7897 4.90952 15.7899 4.92249 15.7904 4.93455L16.4031 19.0945C16.3969 19.248 16.2748 19.3678 16.1201 19.3678Z" fill="white"/>
</svg>
