<svg width="12" height="13" viewBox="0 0 12 13" fill="none" xmlns="http://www.w3.org/2000/svg">
<path d="M7.1628 5.93789L8.88927 4.31289L1.20886 0.0953878C1.09626 0.0340671 0.976842 0.00681342 0.857422 0L7.1628 5.93789Z" fill="white"/>
<path d="M0.10236 0.415466C0.037532 0.531294 0 0.660749 0 0.807238V12.1925C0 12.3389 0.040944 12.4718 0.10236 12.5842L6.56127 6.49985L0.10236 0.415466Z" fill="white"/>
<path d="M11.5778 5.78457L9.64319 4.72168L7.75977 6.49657L9.64319 8.27147L11.5778 7.20858C12.1408 6.89857 12.1408 6.09118 11.5778 5.78117V5.78457Z" fill="white"/>
<path d="M7.1628 7.06195L0.857422 12.9998C0.97343 12.993 1.09285 12.9692 1.20886 12.9045L8.88927 8.69036L7.1628 7.06536V7.06195Z" fill="white"/>
</svg>
