<svg width="20" height="20" viewBox="0 0 20 20" fill="none" xmlns="http://www.w3.org/2000/svg">
<path d="M16.6571 20H3.34292C1.50308 20 0 18.4969 0 16.6571V3.34292C0 1.50308 1.50308 0 3.34292 0H16.6571C18.4969 0 20 1.50308 20 3.34292V16.6571C20 18.5051 18.5051 20 16.6571 20Z" fill="#2F2F2F"/>
<path d="M10 15C8.664 15 7.408 14.48 6.464 13.536C5.52 12.592 5 11.336 5 10C5 8.664 5.52 7.408 6.464 6.464C7.408 5.52 8.664 5 10 5C11.336 5 12.592 5.52 13.536 6.464C14.48 7.408 15 8.664 15 10C15 11.336 14.48 12.592 13.536 13.536C12.584 14.48 11.336 15 10 15ZM10 6.064C7.832 6.064 6.064 7.824 6.064 10C6.064 12.168 7.824 13.936 10 13.936C12.168 13.936 13.936 12.176 13.936 10C13.928 7.832 12.168 6.064 10 6.064Z" fill="white"/>
<path d="M16 5C16.5523 5 17 4.55228 17 4C17 3.44772 16.5523 3 16 3C15.4477 3 15 3.44772 15 4C15 4.55228 15.4477 5 16 5Z" fill="white"/>
</svg>
