<svg width="141" height="96" viewBox="0 0 141 96" fill="none" xmlns="http://www.w3.org/2000/svg">
<g clip-path="url(#clip0_365_5319)">
<path d="M64.2989 93.7232C62.7666 92.2054 62 90.3029 62 88.0157C62 85.7285 62.7666 83.8259 64.2989 82.3081C65.8722 80.7694 67.7729 80 70 80C72.2271 80 74.1175 80.7694 75.6703 82.3081C77.2231 83.8259 78 85.7285 78 88.0157C78 90.3029 77.2231 92.2054 75.6703 93.7232C74.1585 95.2411 72.2681 96 70 96C67.7319 96 65.8517 95.2411 64.2989 93.7232ZM70 82.5883C68.5694 82.5883 67.3747 83.1079 66.4141 84.1479C65.4535 85.188 64.9732 86.4769 64.9732 88.0157C64.9732 89.5544 65.4535 90.8433 66.4141 91.8834C67.3542 92.9026 68.5498 93.4117 70 93.4117C71.4502 93.4117 72.6458 92.9026 73.5859 91.8834C74.5465 90.8433 75.0268 89.5544 75.0268 88.0157C75.0268 86.4769 74.5465 85.188 73.5859 84.1479C72.6253 83.1079 71.4306 82.5883 70 82.5883Z" fill="black"/>
<path d="M46.2989 93.7232C44.7666 92.2054 44 90.3029 44 88.0157C44 85.7285 44.7666 83.8259 46.2989 82.3081C47.8722 80.7694 49.7729 80 52 80C54.2271 80 56.1175 80.7694 57.6703 82.3081C59.2231 83.8259 60 85.7285 60 88.0157C60 90.3029 59.2231 92.2054 57.6703 93.7232C56.1585 95.2411 54.2681 96 52 96C49.7319 96 47.8517 95.2411 46.2989 93.7232ZM52 82.5883C50.5694 82.5883 49.3747 83.1079 48.4141 84.1479C47.4535 85.188 46.9732 86.4769 46.9732 88.0157C46.9732 89.5544 47.4535 90.8433 48.4141 91.8834C49.3542 92.9026 50.5488 93.4117 52 93.4117C53.4512 93.4117 54.6458 92.9026 55.5859 91.8834C56.5465 90.8433 57.0268 89.5544 57.0268 88.0157C57.0268 86.4769 56.5465 85.188 55.5859 84.1479C54.6253 83.1079 53.4306 82.5883 52 82.5883Z" fill="black"/>
<path d="M95.9952 74.3258V94.6432C96.0369 95.1857 95.8083 95.5676 95.3093 95.7889C94.8312 96.0303 94.3436 96.0303 93.8446 95.7889C93.3665 95.5676 93.1483 95.1857 93.19 94.6432V93.8289C92.0052 95.2766 90.3422 96 88.2021 96C86.3314 96 84.658 95.2564 83.1828 93.7692C81.7276 92.2821 81 90.4433 81 88.2529C81 86.0626 81.7276 84.2339 83.1828 82.7669C84.658 81.2797 86.3314 80.5362 88.2021 80.5362C90.364 80.5362 92.0261 81.2494 93.19 82.6769V74.3268C93.1483 73.7842 93.3665 73.4023 93.8446 73.1811C94.3436 72.9396 94.8312 72.9396 95.3093 73.1811C95.8083 73.4023 96.0369 73.7842 95.9952 74.3268V74.3258ZM88.6375 83.0377C87.4318 83.0377 86.3408 83.5399 85.3637 84.5451C84.4284 85.5301 83.9607 86.7658 83.9607 88.2529C83.9607 89.7401 84.4284 90.9858 85.3637 91.9911C86.3408 92.9963 87.4318 93.4984 88.6375 93.4984C90.0927 93.4984 91.215 93.0266 92.0042 92.0819C92.7945 91.1373 93.1891 89.8613 93.1891 88.2538C93.1891 86.6464 92.7945 85.3805 92.0042 84.4551C91.215 83.5105 90.0918 83.0386 88.6375 83.0386V83.0377Z" fill="black"/>
<path d="M39.817 83.0986H36.7077V94.6733C36.7473 95.2158 36.5302 95.5977 36.0563 95.8189C35.6022 96.0604 35.1382 96.0604 34.6642 95.8189C34.2101 95.5977 34.0029 95.2158 34.0425 94.6733V83.0986H33.1542C32.8181 83.0986 32.5424 82.9884 32.3253 82.7672C32.1081 82.546 32 82.2651 32 81.9227C32 81.6014 32.1081 81.3297 32.3253 81.1084C32.5622 80.867 32.8388 80.7468 33.1542 80.7468H34.0425V78.7575C34.0425 77.1502 34.6048 75.7934 35.7301 74.6882C36.8753 73.5627 38.2367 73 39.8161 73C40.1522 73 40.4279 73.1203 40.645 73.3617C40.882 73.5829 41 73.8638 41 74.2053C41 74.5468 40.8811 74.8387 40.645 75.0792C40.408 75.3004 40.1314 75.4106 39.8161 75.4106C38.9674 75.4106 38.2367 75.742 37.6249 76.4057C37.0131 77.0492 36.7068 77.8322 36.7068 78.7566V80.7458H39.8161C40.1323 80.7458 40.3981 80.8661 40.6153 81.1075C40.8522 81.3288 40.9703 81.5996 40.9703 81.9218C40.9703 82.2632 40.8513 82.5451 40.6153 82.7663C40.3981 82.9875 40.1314 83.0977 39.8161 83.0977L39.817 83.0986Z" fill="black"/>
<path d="M117.928 93.0159V33.097L101.342 4.27257C101.114 3.72984 101 3.3228 101 3.05144C101 2.19243 101.295 1.46911 101.887 0.881464C102.478 0.293821 103.207 0 104.071 0C105.254 0 106.097 0.474418 106.597 1.42419L121 27.0606L135.403 1.42419C135.903 0.474418 136.745 0 137.929 0C138.793 0 139.521 0.293821 140.113 0.881464C140.705 1.46911 141 2.19243 141 3.05144C141 3.3228 140.886 3.72984 140.658 4.27257L124.072 33.0961V93.0159C124.162 94.2361 123.662 95.0951 122.57 95.5929C121.524 96.1357 120.454 96.1357 119.362 95.5929C118.315 95.0951 117.837 94.2361 117.928 93.0159Z" fill="black"/>
<path fill-rule="evenodd" clip-rule="evenodd" d="M64 69C83.3295 69 99 53.5537 99 34.4995C99 15.4454 83.3295 0 64 0C44.6705 0 29 15.4463 29 34.4995C29 53.5527 44.6696 69 64 69ZM64 62.9282C79.9277 62.9282 92.8396 50.2006 92.8396 34.4995C92.8396 18.7985 79.9277 6.0718 64 6.0718C48.0722 6.0718 35.1594 18.7994 35.1594 34.4995C35.1594 50.1996 48.0713 62.9282 64 62.9282Z" fill="black"/>
<path d="M2.83389 95.9991C2.06938 95.9991 1.41741 95.7065 0.877045 95.1213C0.292038 94.5809 0 93.9277 0 93.1627C0 92.3977 0.292038 91.7222 0.877045 91.137C1.41648 90.5966 2.06845 90.3264 2.83389 90.3264C4.81305 90.3264 6.47693 89.6284 7.82644 88.2326C9.2206 86.8368 9.91814 85.1261 9.91814 83.1004V2.97146C9.82793 1.75548 10.3004 0.900105 11.3346 0.405327C12.4144 -0.135109 13.471 -0.135109 14.5052 0.405327C15.585 0.901037 16.0798 1.75642 15.9896 2.97146V83.1004C15.9896 86.7026 14.7079 89.7412 12.1438 92.2179C9.53496 94.7393 6.43135 96 2.83389 96V95.9991Z" fill="black"/>
</g>
<defs>
<clipPath id="clip0_365_5319">
<rect width="141" height="96" fill="white"/>
</clipPath>
</defs>
</svg>
