<svg width="53" height="53" viewBox="0 0 53 53" fill="none" xmlns="http://www.w3.org/2000/svg">
<path d="M33.0075 21.0634C32.8829 20.9971 32.7616 20.9245 32.6441 20.8457C32.3023 20.6132 31.9889 20.3391 31.7107 20.0296C31.0146 19.2098 30.7547 18.3782 30.6589 17.796H30.6627C30.5827 17.3127 30.6158 17 30.6208 17H27.4504V29.6177C27.4504 29.7872 27.4504 29.9546 27.4434 30.12C27.4434 30.1406 27.4415 30.1596 27.4404 30.1818C27.4404 30.1909 27.4404 30.2004 27.4384 30.2099V30.217C27.405 30.6697 27.264 31.1071 27.0278 31.4905C26.7916 31.874 26.4675 32.1919 26.084 32.4161C25.6842 32.6502 25.2321 32.773 24.7722 32.7724C23.295 32.7724 22.0978 31.5327 22.0978 30.0017C22.0978 28.4707 23.295 27.231 24.7722 27.231C25.0518 27.2307 25.3297 27.276 25.5955 27.3652L25.5994 24.0427C24.7923 23.9354 23.9724 24.0014 23.1913 24.2366C22.4103 24.4718 21.685 24.871 21.0614 25.4091C20.5149 25.8977 20.0555 26.4808 19.7038 27.132C19.57 27.3695 19.065 28.3238 19.0039 29.8726C18.9654 30.7518 19.2219 31.6625 19.3442 32.0389V32.0469C19.4212 32.2685 19.7192 33.0249 20.2049 33.6626C20.5966 34.1741 21.0593 34.6234 21.5782 34.9961V34.9881L21.5859 34.9961C23.1208 36.0695 24.8225 35.9991 24.8225 35.9991C25.1171 35.9868 26.104 35.9991 27.2246 35.4524C28.4676 34.8464 29.1752 33.9436 29.1752 33.9436C29.6273 33.4041 29.9867 32.7893 30.2382 32.1256C30.5251 31.3494 30.6208 30.4185 30.6208 30.0464V23.3524C30.6593 23.3762 31.1715 23.7249 31.1715 23.7249C31.1715 23.7249 31.9095 24.2117 33.061 24.5288C33.887 24.7544 35 24.8019 35 24.8019V21.5625C34.61 21.6061 33.8182 21.4794 33.0075 21.0634Z" fill="#2F2F2F"/>
<circle cx="26.5" cy="26.5" r="26" stroke="#2F2F2F"/>
</svg>
