<svg width="82" height="82" viewBox="0 0 82 82" fill="none" xmlns="http://www.w3.org/2000/svg">
<path d="M41 1C35.7471 1 30.5457 2.03463 25.6927 4.04482C20.8396 6.05501 16.4301 9.00138 12.7157 12.7157C9.00139 16.4301 6.05501 20.8396 4.04482 25.6927C2.03463 30.5457 1 35.7471 1 41C1 46.2529 2.03463 51.4543 4.04482 56.3073C6.05501 61.1604 9.00139 65.5699 12.7157 69.2843C16.4301 72.9986 20.8396 75.945 25.6927 77.9552C30.5457 79.9654 35.7471 81 41 81C46.2529 81 51.4543 79.9654 56.3073 77.9552C61.1604 75.945 65.5699 72.9986 69.2843 69.2843C72.9986 65.5699 75.945 61.1604 77.9552 56.3073C79.9654 51.4543 81 46.2529 81 41C81 35.7471 79.9654 30.5457 77.9552 25.6927C75.945 20.8396 72.9986 16.4301 69.2843 12.7157C65.5699 9.00138 61.1604 6.05501 56.3073 4.04482C51.4543 2.03463 46.2529 1 41 1Z" fill="white"/>
<path d="M40.9999 8.5C32.3804 8.5 24.1139 11.9241 18.0189 18.019C11.924 24.114 8.49989 32.3805 8.49989 41C8.49989 49.6195 11.924 57.886 18.0189 63.981C24.1139 70.0759 32.3804 73.5 40.9999 73.5C49.6194 73.5 57.8859 70.0759 63.9809 63.981C70.0758 57.886 73.4999 49.6195 73.4999 41C73.4999 32.3805 70.0758 24.114 63.9809 18.019C57.8859 11.9241 49.6194 8.5 40.9999 8.5Z" fill="#4FD975"/>
<path d="M41 1C35.7471 1 30.5457 2.03463 25.6927 4.04482C20.8396 6.05501 16.4301 9.00138 12.7157 12.7157C9.00139 16.4301 6.05501 20.8396 4.04482 25.6927C2.03463 30.5457 1 35.7471 1 41C1 46.2529 2.03463 51.4543 4.04482 56.3073C6.05501 61.1604 9.00139 65.5699 12.7157 69.2843C16.4301 72.9986 20.8396 75.945 25.6927 77.9552C30.5457 79.9654 35.7471 81 41 81C46.2529 81 51.4543 79.9654 56.3073 77.9552C61.1604 75.945 65.5699 72.9986 69.2843 69.2843C72.9986 65.5699 75.945 61.1604 77.9552 56.3073C79.9654 51.4543 81 46.2529 81 41C81 35.7471 79.9654 30.5457 77.9552 25.6927C75.945 20.8396 72.9986 16.4301 69.2843 12.7157C65.5699 9.00138 61.1604 6.05501 56.3073 4.04482C51.4543 2.03463 46.2529 1 41 1V1Z" stroke="#65686A" stroke-miterlimit="10"/>
<path d="M22.6667 45.1667L33.9583 55.1667L59.3333 26" stroke="white" stroke-width="3" stroke-miterlimit="10" stroke-linecap="round"/>
</svg>
