
    <svg xmlns="http://www.w3.org/2000/svg" width="117" height="115" viewBox="0 0 117 115" fill="none">
        <path d="M116.335 27.4742C116.028 27.1598 115.601 26.9801 115.163 26.9801H97.4619H94.6984V15.1611C94.6984 15.1582 94.6979 15.1553 94.6979 15.1524C94.6931 6.79645 87.9952 0 79.7631 0C76.4521 0 73.3908 1.10081 70.9119 2.95878C68.4329 1.10081 65.3716 0 62.0607 0C53.8255 0 47.1255 6.8014 47.1255 15.1614C47.1255 15.1629 47.1258 15.1643 47.1258 15.1659V26.9803H26.6594C26.2236 26.9803 25.7943 27.16 25.4868 27.4744C25.177 27.7866 25 28.2224 25 28.6649V84.1162C25 85.0438 25.7434 85.8008 26.6594 85.8008C27.5754 85.8008 28.3189 85.0438 28.3189 84.1162V30.3492H47.1258V39.8949C47.1258 40.8248 47.8692 41.5795 48.7852 41.5795C49.7012 41.5795 50.4446 40.8248 50.4446 39.8949V30.3492H73.6767V39.8949C73.6767 40.8248 74.4201 41.5795 75.3361 41.5795C76.2499 41.5795 76.9956 40.8248 76.9956 39.8949V30.3492H95.8025V54.917V61.6553V111.631H28.3189V90.8545C28.3189 89.9246 27.5754 89.1699 26.6594 89.1699C25.7434 89.1699 25 89.9246 25 90.8545V113.315C25 113.758 25.177 114.194 25.4868 114.506C25.7943 114.82 26.2236 115 26.6594 115H97.4619H115.163C115.587 115 116.012 114.836 116.336 114.507C116.616 114.222 116.775 113.861 116.812 113.489C116.813 113.487 116.813 113.484 116.814 113.481C116.819 113.428 116.822 113.374 116.822 113.32C116.822 113.319 116.822 113.317 116.822 113.315V28.6646C116.822 28.2222 116.645 27.7864 116.335 27.4742ZM64.8286 26.9801H50.4446V15.1611C50.4446 15.1602 50.4444 15.1593 50.4444 15.1582C50.4462 8.65734 55.6564 3.36914 62.0607 3.36914C64.4104 3.36914 66.598 4.08317 68.428 5.30572C66.1867 7.95813 64.8279 11.4009 64.8279 15.1614C64.8279 15.1658 64.8286 15.1701 64.8286 15.1744V26.9801ZM73.6769 15.1611V26.9801H68.1475V15.1611C68.1475 15.1582 68.147 15.1555 68.147 15.1526C68.1492 12.2506 69.1911 9.59239 70.9119 7.53677C72.6337 9.59374 73.676 12.254 73.6769 15.1582C73.6769 15.1591 73.6769 15.1602 73.6769 15.1611ZM91.3795 26.9803H76.9956V15.1659C76.9956 15.1643 76.9958 15.1629 76.9958 15.1614C76.9958 11.4009 75.637 7.95836 73.3957 5.30572C75.2257 4.08317 77.4133 3.36914 79.7631 3.36914C86.1682 3.36914 91.3793 8.65914 91.3793 15.1614C91.3793 15.1629 91.3795 15.1643 91.3795 15.1659V26.9803ZM99.1213 61.6553V54.917V30.3492H104.652V103.633L99.1213 109.248V61.6553ZM101.467 111.631L106.312 106.713L111.156 111.631H101.467ZM113.503 109.248L107.971 103.632V30.3492H113.503V109.248Z" fill="#323232"/>
        <g>
            <path d="M53.8533 74.8527L57.4353 71.1188C58.8491 70.4663 59.4518 69.5402 59.565 67.9872L50.9292 46.7041C49.6743 45.7821 47.3401 44.6687 45.926 45.3207L38.8762 46.9559C31.9012 50.1732 28.3275 59.2009 31.5448 66.1759L32.8891 69.0903C36.1064 76.0653 45.873 78.9357 53.8533 74.8527Z" fill="#BD8606"/>
            <path d="M56.1398 73.5418C48.2496 77.5787 37.6541 74.2954 33.6172 66.4052C29.5803 58.515 34.059 49.8429 41.9492 45.806C51.5855 44.9598 54.4901 46.7832 60.4705 53.7927C63.1285 62.2909 62.0825 67.4031 56.1398 73.5418Z" fill="#FAC038"/>
            <path d="M32.1765 68.269C36.1346 76.0051 45.6146 79.0678 53.3507 75.1097C61.0867 71.1516 64.1494 61.6717 60.1914 53.9356C56.2333 46.1995 46.7533 43.1368 39.0173 47.0949C31.2812 51.0529 28.2185 60.5329 32.1765 68.269Z" stroke="black" stroke-width="0.656716"/>
            <path d="M34.9257 66.8977C38.1347 73.1698 45.8207 75.6529 52.0928 72.4439C58.3085 69.2637 60.4732 61.8486 57.2347 55.5189C53.9921 49.181 46.6799 46.5545 40.4719 49.7307C34.1998 52.9397 31.7168 60.6256 34.9257 66.8977Z" fill="#F5F5F5" stroke="black" stroke-width="3.28358"/>
            <path d="M44.877 67.0028C44.8782 67.0026 43.2572 74.4969 43.2584 74.4968C43.5205 74.4703 44.7872 74.6575 44.8275 74.4065C44.9911 74.5922 46.4432 75.068 46.6768 74.9569C46.9029 74.8492 47.9657 74.6333 47.9391 74.3945C48.1339 74.5251 49.7601 74.5453 49.958 74.3968C50.1524 74.2506 51.2756 73.8414 51.2144 73.6177C51.422 73.714 52.6561 73.3561 52.8295 73.1865C53.0018 73.018 53.7033 72.423 53.6173 72.2104C53.8325 72.281 54.8819 71.7691 55.035 71.5825C55.1868 71.3967 55.6184 70.8827 55.5118 70.6814C55.7313 70.7288 56.619 70.1864 56.7533 69.9876C56.887 69.7889 57.2452 68.8535 57.1222 68.6637C57.3446 68.6913 58.0644 67.9558 58.1806 67.746C58.297 67.5363 58.2455 66.6953 58.1075 66.5168C58.3308 66.5246 59.236 65.3307 59.3338 65.1111C59.4316 64.891 59.2303 63.7125 59.0761 63.5472C59.3004 63.5348 59.653 62.1392 59.7307 61.9114C59.8084 61.6834 59.2889 60.7651 59.1205 60.6147C59.3426 60.5805 59.5303 59.6274 59.5863 59.3926C59.6426 59.1565 59.0204 57.8662 58.8363 57.7333C59.056 57.6757 59.0935 57.0195 59.1001 56.7791C59.1001 56.7791 59.0382 56.4403 58.8325 56.1453C58.5675 55.8483 58.114 55.6603 57.9106 55.5512C58.1248 55.463 57.8873 54.3786 57.8785 54.1308C57.87 53.8791 56.7534 53.162 56.5296 53.0905C56.7298 52.9597 56.1146 52.1321 56.0522 51.8848C55.9869 51.6267 54.8737 51.1103 54.6229 51.1058C54.7885 50.9008 54.0861 50.1442 53.9158 49.9274C53.7357 49.6968 52.6662 49.3636 52.4241 49.5109C52.4458 49.2234 51.535 48.5315 51.2487 48.4737C50.9747 48.4183 49.9736 48.2637 49.8744 48.5176C49.7437 48.2931 48.5402 47.5713 48.2835 47.6504C48.0384 47.7254 47.0771 47.6914 47.0761 47.9378C46.8935 47.784 45.5213 47.3293 45.3079 47.4621C45.0997 47.5919 44.0833 47.8096 44.1283 48.0391C43.927 47.9275 42.8948 47.6554 42.7094 47.8148C42.5257 47.9727 41.6047 48.3463 41.6793 48.5648C41.4671 48.4818 40.2804 48.6021 40.1177 48.7812C39.9554 48.9589 39.1812 49.5926 39.2775 49.7992C39.0599 49.7405 37.8341 50.0409 37.6908 50.2339C37.548 50.4268 36.8958 51.3249 37.0102 51.52C36.7893 51.483 36.0299 51.9229 35.9048 52.1274C35.7795 52.3315 35.6786 53.0107 35.4656 53.4131C35.1657 53.5241 34.7259 53.7741 34.6186 53.9884C34.3064 54.6113 34.652 54.4947 34.2288 55.2945C34.0132 55.702 33.5759 55.8602 33.4275 56.2392C33.2216 56.765 33.4482 57.0431 33.3812 57.523C33.3142 58.003 33.0021 58.4209 32.9344 58.652C32.8669 58.8843 32.9777 59.9947 33.1566 60.3972C33.1574 60.9086 32.7613 61.5542 32.6716 62.0543C32.6285 62.2953 33.0347 63.5332 33.2199 63.8098C33.4301 64.2673 33.3257 65.209 33.3144 65.4547C33.6814 66.3563 34.3617 66.6661 34.4842 67.0609C34.7429 67.4839 34.6134 68.1758 34.8443 68.5456C35.2197 69.1467 36.1791 69.4412 36.3501 70.0299C36.5211 70.6186 36.7031 71.0153 37.177 71.487C37.6119 71.9756 38.4956 71.9008 38.8324 72.1758C39.2302 72.3927 39.4572 73.1034 39.9953 73.3967C40.4633 73.6518 41.2303 73.5743 41.6765 73.726C42.1226 73.8778 42.9783 74.524 43.2584 74.4968C43.259 74.4968 44.8014 67.3542 44.8014 67.3542C44.8024 67.3543 44.8764 67.0028 44.877 67.0028Z" fill="#FFEAAC"/>
            <path d="M45.4579 61.4033L44.0654 74.5088C44.5281 74.5185 44.5566 74.5743 44.6682 74.5172L46.1834 61.0321L45.4579 61.4033Z" fill="#EBC15F"/>
            <path d="M46.0571 60.9913L46.0215 61.6785L55.5949 67.6595C55.8973 68.5258 56.3075 68.9145 55.4457 69.7075C55.0341 70.3449 54.735 70.5855 54.2115 71.1488C53.6973 71.7023 53.3841 71.6455 52.7674 72.1109C52.1676 72.5633 50.8198 73.3417 50.1279 73.6958C49.436 74.0498 46.7043 74.3254 45.9865 74.5471C45.4922 74.6997 45.1728 74.4706 44.7544 74.4098C45.0531 74.6495 45.7717 75.5724 47.9203 74.4731C48.6702 74.3799 49.0885 74.7116 49.8267 74.4836C50.5448 74.2617 50.8871 73.941 51.2628 73.6432C53.2517 73.4705 53.4549 72.6977 53.6469 72.2473C55.0935 71.9093 55.5935 71.1662 55.5298 70.6976C57.1458 70.1403 56.989 69.5585 57.1744 68.6822C57.552 68.5946 57.5914 68.328 57.5917 68.3279L46.0571 60.9913Z" fill="#EBC15F"/>
            <path d="M45.1279 60.8808L45.7239 61.2659L56.0646 55.9289C56.997 56.1089 57.5585 55.9485 57.8183 57.1141C58.1738 57.8039 58.2328 58.1907 58.4636 58.9408C58.6905 59.6777 58.4764 59.9238 58.571 60.7055C58.6628 61.4655 58.6561 63.0509 58.6119 63.8413C58.5677 64.6317 57.3899 67.1748 57.2138 67.9199C57.0925 68.433 56.7211 68.5957 56.4486 68.9323C56.8187 68.7931 58.7973 68.3447 58.1776 66.5141C58.2463 66.3733 59.9913 65.5862 59.1464 63.6596C59.3224 62.9142 59.4922 63.1657 59.5389 62.7194C60.0484 61.4729 59.4632 61.0603 59.1606 60.6596C59.99 59.3904 59.4916 58.5539 58.8537 57.7888C59.3527 57.1815 59.1593 55.9777 58.0341 55.5676C58.1527 55.1905 57.9016 54.3456 57.9016 54.3453L45.1279 60.8808Z" fill="#EBC15F"/>
            <path d="M45.9734 47.4089C45.7256 47.4396 45.0101 47.6614 44.771 47.7424C45.357 47.4426 47.0335 47.9932 46.2908 48.3732L45.4226 60.5766L46.1708 61.1444L47.0999 47.9591C46.3537 47.6016 46.7022 47.3881 45.9734 47.4089Z" fill="#EBC15F"/>
            <path d="M34.8042 53.7922C34.5537 53.9908 34.5401 54.033 34.4739 54.4541L43.5542 60.1593C44.3646 60.6835 44.5518 61.0221 43.6925 61.4617L34.0386 66.4713C34.2525 66.8276 34.3021 66.7112 34.4928 67.0839L46.214 61.087L34.8042 53.7922Z" fill="#EBC15F"/>
            <path d="M50.7399 68.9185C51.2086 69.8347 50.8458 70.9572 49.9298 71.4259C49.0135 71.8947 47.891 71.5321 47.4222 70.6159C46.9534 69.6997 47.3162 68.5772 48.2325 68.1085C49.1485 67.6398 50.2711 68.0023 50.7399 68.9185Z" fill="#EF5350"/>
            <path d="M44.2221 68.9341C44.6908 69.8504 44.3283 70.973 43.4121 71.4417C42.4959 71.9105 41.3734 71.5477 40.9046 70.6314C40.4359 69.7155 40.7984 68.5929 41.7147 68.1241C42.6309 67.6553 43.7534 68.0181 44.2221 68.9341Z" fill="#EF5350"/>
            <path d="M51.8844 60.2083C52.3531 61.1245 51.9904 62.2472 51.0742 62.716C50.1582 63.1846 49.0354 62.8219 48.5667 61.9057C48.098 60.9897 48.4607 59.867 49.3768 59.3983C50.293 58.9295 51.4156 59.2922 51.8844 60.2083Z" fill="#EF5350"/>
            <path d="M40.6676 59.8917C41.1363 60.8079 40.7736 61.9306 39.8574 62.3994C38.9414 62.868 37.8186 62.5053 37.3499 61.5891C36.8812 60.6731 37.2439 59.5504 38.16 59.0818C39.0762 58.613 40.1988 58.9757 40.6676 59.8917Z" fill="#EF5350"/>
            <path d="M41.8228 52.2885C42.2916 53.2047 41.9289 54.3273 41.0127 54.7961C40.0964 55.2649 38.974 54.9021 38.5052 53.9859C38.0365 53.0698 38.399 51.9473 39.3152 51.4785C40.2315 51.0097 41.3542 51.3724 41.8228 52.2885Z" fill="#EF5350"/>
            <path d="M50.1598 50.6136C50.3942 51.0716 50.2127 51.6332 49.7548 51.8675C49.2968 52.1018 48.7352 51.9204 48.5009 51.4624C48.2665 51.0042 48.448 50.4429 48.906 50.2085C49.364 49.9742 49.9254 50.1554 50.1598 50.6136Z" fill="#FF6F00"/>
            <path d="M49.6943 56.2868C49.9286 56.7449 49.7474 57.3063 49.2892 57.5407C48.8312 57.775 48.2699 57.5935 48.0356 57.1355C47.8012 56.6775 47.9824 56.1161 48.4404 55.8818C48.8987 55.6473 49.46 55.8289 49.6943 56.2868Z" fill="#FF6F00"/>
            <path d="M45.2446 49.9888C45.479 50.4471 45.2977 51.0082 44.8395 51.2427C44.3815 51.477 43.8203 51.2957 43.5858 50.8375C43.3515 50.3795 43.5329 49.8183 43.9908 49.5839C44.4491 49.3495 45.0103 49.5308 45.2446 49.9888Z" fill="#FF6F00"/>
            <path d="M44.6875 56.0642C44.9218 56.5222 44.7405 57.0835 44.2823 57.3179C43.8243 57.5522 43.2631 57.3709 43.0287 56.9129C42.7944 56.4546 42.9757 55.8935 43.4336 55.6592C43.8919 55.4247 44.453 55.606 44.6875 56.0642Z" fill="#FF6F00"/>
            <path d="M36.6938 63.3611C36.9282 63.8191 36.7469 64.3803 36.2886 64.6147C35.8307 64.8491 35.2695 64.6678 35.0351 64.2098C34.8007 63.7515 34.982 63.1904 35.44 62.956C35.8982 62.7216 36.4594 62.9029 36.6938 63.3611Z" fill="#FF6F00"/>
            <path d="M43.4704 64.8581C43.7048 65.3164 43.5233 65.8777 43.0653 66.112C42.607 66.3464 42.0459 66.1651 41.8114 65.7069C41.5771 65.2489 41.7584 64.6877 42.2166 64.4533C42.6746 64.219 43.236 64.4001 43.4704 64.8581Z" fill="#FF6F00"/>
            <path d="M56.902 58.003C57.1364 58.4611 56.9549 59.0225 56.4969 59.2568C56.0387 59.4913 55.4775 59.3099 55.2431 58.8517C55.0087 58.3937 55.19 57.8325 55.6483 57.5981C56.1062 57.3637 56.6677 57.5449 56.902 58.003Z" fill="#FF6F00"/>
            <path d="M55.1237 62.7854C55.3581 63.2437 55.1766 63.805 54.7186 64.0393C54.2604 64.2737 53.6992 64.0924 53.4648 63.6342C53.2304 63.1762 53.4117 62.615 53.8699 62.3805C54.328 62.1462 54.8893 62.3274 55.1237 62.7854Z" fill="#FF6F00"/>
            <path d="M36.8411 56.6367C36.4877 56.2627 35.8981 56.2461 35.5241 56.5997C35.1501 56.9531 35.1336 57.5427 35.487 57.9167C35.8406 58.2906 36.4302 58.3072 36.8041 57.9536C37.1781 57.6002 37.1947 57.0106 36.8411 56.6367Z" fill="#FF6F00"/>
            <path d="M39.3183 67.7546C39.5527 68.2127 39.3714 68.774 38.9134 69.0083C38.4552 69.2427 37.894 69.0614 37.6596 68.6032C37.4253 68.1452 37.6064 67.5838 38.0647 67.3493C38.5227 67.115 39.084 67.2965 39.3183 67.7546Z" fill="#FF6F00"/>
            <path d="M54.2663 68.161C54.5006 68.619 54.3192 69.1805 53.8612 69.4148C53.4032 69.6492 52.8417 69.4677 52.6073 69.0098C52.3729 68.5515 52.5544 67.9902 53.0124 67.7559C53.4705 67.5216 54.0318 67.7027 54.2663 68.161Z" fill="#FF6F00"/>
            <path d="M49.1626 64.8111C49.397 65.269 49.2157 65.8305 48.7576 66.0649C48.2995 66.2992 47.7382 66.1177 47.5039 65.6597C47.2694 65.2015 47.4507 64.6403 47.9088 64.406C48.367 64.1715 48.9282 64.3528 49.1626 64.8111Z" fill="#FF6F00"/>
            <path d="M54.2813 53.1473C54.7501 54.0636 54.3874 55.1863 53.4713 55.6549C52.5551 56.1237 51.4324 55.761 50.9637 54.8448C50.495 53.9288 50.8577 52.8061 51.7739 52.3373C52.6899 51.8687 53.8127 52.2314 54.2813 53.1473Z" fill="#EF5350"/>
            <path d="M48.5964 67.968C48.8419 68.1372 49.0503 68.3682 49.1958 68.6526C49.7343 69.7051 49.1686 70.9902 48.022 71.3004C48.568 71.6769 49.2979 71.7493 49.9298 71.4259C50.8461 70.9572 51.2087 69.8348 50.7399 68.9185C50.3318 68.1209 49.428 67.743 48.5964 67.968Z" fill="#D32F2F"/>
            <path d="M42.0788 67.9836C42.3245 68.1531 42.5328 68.384 42.6783 68.6682C43.1469 69.5842 42.7842 70.7069 41.8682 71.1756C41.7498 71.2361 41.6278 71.2827 41.5044 71.3161C42.0505 71.6927 42.7804 71.7651 43.4124 71.4418C44.3286 70.973 44.6911 69.8504 44.2224 68.9342C43.8142 68.1365 42.9104 67.7587 42.0788 67.9836Z" fill="#D32F2F"/>
            <path d="M49.7409 59.2578C49.9866 59.4273 50.1951 59.6581 50.3406 59.9424C50.8093 60.8586 50.4465 61.9811 49.5303 62.4498C49.4119 62.5104 49.2899 62.5568 49.1665 62.5903C49.7126 62.9669 50.4427 63.0392 51.0745 62.716C51.9907 62.2472 52.3534 61.1245 51.8847 60.2083C51.4766 59.4107 50.5725 59.0328 49.7409 59.2578Z" fill="#D32F2F"/>
            <path d="M38.5236 58.9413C38.7693 59.1107 38.9778 59.3415 39.1233 59.6258C39.592 60.542 39.2292 61.6645 38.313 62.1332C38.1946 62.1938 38.0726 62.2403 37.9492 62.2737C38.4953 62.6503 39.2255 62.7226 39.8572 62.3994C40.7734 61.9306 41.1361 60.8079 40.6674 59.8917C40.2593 59.0941 39.3552 58.7163 38.5236 58.9413Z" fill="#D32F2F"/>
            <path d="M39.6789 51.338C39.9246 51.5075 40.1331 51.7382 40.2785 52.0225C40.7473 52.9385 40.3846 54.0612 39.4683 54.53C39.3499 54.5905 39.2279 54.637 39.1045 54.6704C39.6506 55.0471 40.3807 55.1193 41.0125 54.7961C41.9287 54.3274 42.2914 53.2046 41.8226 52.2884C41.4146 51.4908 40.5106 51.1131 39.6789 51.338Z" fill="#D32F2F"/>
            <path d="M52.1374 52.197C52.3831 52.3664 52.5917 52.5972 52.7371 52.8814C53.2058 53.7974 52.843 54.9201 51.9268 55.3889C51.8085 55.4495 51.6867 55.4958 51.563 55.5294C52.1091 55.906 52.8393 55.9783 53.4712 55.6549C54.3873 55.1863 54.75 54.0636 54.2812 53.1474C53.8731 52.3497 52.9693 51.9719 52.1374 52.197Z" fill="#D32F2F"/>
            <path d="M69.662 74.7816L66.2045 70.9322C64.8128 70.2336 64.2408 69.2882 64.1787 67.7323L73.5084 46.7441C74.7929 45.8638 77.1624 44.8277 78.5543 45.5257L85.5466 47.3914C92.4122 50.8359 95.6876 59.976 92.2432 66.8416L90.804 69.7104C87.3595 76.576 77.504 79.1243 69.662 74.7816Z" fill="#385611"/>
            <path d="M67.4197 73.3965C75.1732 77.6902 85.8707 74.7564 90.1644 67.0029C94.4578 59.2495 90.2665 50.4351 82.513 46.1414C72.9096 44.9793 69.9468 46.7065 63.7395 53.5159C60.804 61.9223 61.6817 67.066 67.4197 73.3965Z" fill="#848F40"/>
            <path d="M91.5429 68.9129C87.3331 76.5149 77.7577 79.2648 70.1557 75.055C62.5537 70.8451 59.8037 61.2697 64.0136 53.6677C68.2234 46.0657 77.7988 43.3158 85.4008 47.5257C93.0028 51.7355 95.7529 61.3109 91.5429 68.9129Z" stroke="black" stroke-width="0.656716"/>
            <path d="M88.8406 67.4521C85.4275 73.6156 77.6641 75.8451 71.5008 72.4319C65.3929 69.0495 63.4726 61.5673 66.9171 55.3472C70.3661 49.1193 77.7605 46.7341 83.8609 50.1124C90.0242 53.5255 92.2537 61.2888 88.8406 67.4521Z" fill="#EBEBEB" stroke="black" stroke-width="3.28358"/>
            <path d="M78.8908 67.2306C78.8896 67.2304 80.2638 74.7739 80.2625 74.7738C80.0015 74.7387 78.7293 74.8841 78.6972 74.632C78.5277 74.8122 77.0607 75.2401 76.8309 75.1214C76.6084 75.0063 75.5533 74.7556 75.5877 74.5179C75.3888 74.642 73.7627 74.6088 73.5699 74.4539C73.3803 74.3014 72.2712 73.8555 72.3397 73.634C72.1291 73.7234 70.9074 73.3252 70.7396 73.1499C70.5729 72.976 69.8913 72.3582 69.9842 72.1486C69.7668 72.2121 68.7348 71.666 68.588 71.4745C68.4423 71.2837 68.0279 70.7559 68.1409 70.5582C67.92 70.5984 67.0506 70.0271 66.923 69.824C66.7958 69.621 66.4685 68.6744 66.5976 68.4887C66.3745 68.5091 65.6792 67.7504 65.5699 67.5368C65.4605 67.3233 65.5396 66.4845 65.6834 66.3106C65.4599 66.3112 64.5945 65.0881 64.5038 64.8655C64.4134 64.6422 64.6533 63.471 64.8127 63.3108C64.5889 63.2911 64.2824 61.8847 64.2122 61.6544C64.1421 61.4241 64.6914 60.5232 64.8646 60.3785C64.6437 60.3371 64.4874 59.3783 64.4392 59.1418C64.3907 58.904 65.0548 57.6348 65.2433 57.508C65.0256 57.4432 65.0096 56.7861 65.0109 56.5456C65.0109 56.5456 65.0839 56.2091 65.2991 55.9209C65.5737 55.6329 66.0332 55.4598 66.24 55.3575C66.0289 55.2623 66.3018 54.1862 66.3187 53.9388C66.3356 53.6876 67.475 53.0075 67.7011 52.9434C67.5052 52.8061 68.1473 51.9991 68.2178 51.754C68.2916 51.4982 69.4211 51.0186 69.6719 51.0223C69.5131 50.812 70.24 50.0789 70.4173 49.8678C70.6049 49.6433 71.6847 49.3453 71.9218 49.5005C71.9097 49.2124 72.8426 48.5508 73.1307 48.5023C73.4063 48.456 74.412 48.3343 74.5028 48.5913C74.6407 48.3713 75.8673 47.6894 76.1213 47.7769C76.3639 47.8599 77.3257 47.8574 77.3186 48.1038C77.5062 47.956 78.8926 47.5466 79.1014 47.6863C79.3053 47.8229 80.314 48.0738 80.2616 48.3018C80.4664 48.1968 81.507 47.9588 81.687 48.1241C81.8654 48.288 82.7736 48.6916 82.6919 48.9076C82.9068 48.8316 84.0888 48.9907 84.2456 49.175C84.402 49.358 85.155 50.0167 85.0519 50.2201C85.2714 50.1686 86.4866 50.5091 86.6235 50.7066C86.7598 50.9042 87.3823 51.8232 87.2615 52.0144C87.4834 51.9847 88.228 52.4492 88.3464 52.6578C88.4649 52.8658 88.5434 53.548 88.7431 53.9572C89.0393 54.078 89.4705 54.3423 89.5708 54.56C89.8623 55.1928 89.5207 55.0649 89.9175 55.8782C90.1196 56.2925 90.5515 56.4649 90.6874 56.8486C90.8759 57.3809 90.6403 57.6514 90.6915 58.1333C90.7427 58.6152 91.041 59.0431 91.101 59.2763C91.1609 59.5108 91.0136 60.6168 90.8216 61.0133C90.8041 61.5244 91.1788 62.1827 91.2519 62.6855C91.2871 62.9276 90.8406 64.1516 90.6464 64.4219C90.4213 64.8723 90.4947 65.817 90.498 66.0629C90.1016 66.9519 89.4115 67.2392 89.276 67.6298C89.0036 68.044 89.1104 68.7398 88.8674 69.1019C88.4725 69.6904 87.504 69.9532 87.3138 70.536C87.1235 71.1187 86.9286 71.5092 86.4395 71.9652C85.9887 72.4392 85.1079 72.3355 84.7624 72.5993C84.3576 72.803 84.1075 73.5059 83.56 73.7814C83.0839 74.021 82.3198 73.9183 81.8689 74.0553C81.4181 74.1923 80.5416 74.8101 80.2625 74.7738C80.262 74.7737 78.9548 67.5844 78.9548 67.5844C78.9539 67.5844 78.8914 67.2307 78.8908 67.2306Z" fill="#E4E4E4"/>
            <path d="M80.038 73.496C80.0112 73.6511 79.9004 73.7831 79.7262 73.8872C79.5977 73.9644 79.4338 74.0263 79.2427 74.0716C78.9624 74.1376 78.6239 74.167 78.2523 74.1544C78.0092 74.1458 77.7525 74.1191 77.4884 74.0728C77.4869 74.0726 77.4854 74.0723 77.4839 74.072C76.1733 73.8404 75.1882 73.2089 75.2832 72.66C75.309 72.5114 75.4113 72.3836 75.5729 72.2817C75.6991 72.2023 75.8607 72.1382 76.05 72.0913C76.3266 72.0223 76.6622 71.9904 77.0318 72.0003C77.2735 72.0072 77.5299 72.0318 77.7936 72.0766C77.8069 72.0786 77.8199 72.0809 77.8328 72.0832C79.1455 72.3139 80.1328 72.9468 80.038 73.496Z" fill="#C2C2C2"/>
            <path d="M80.038 73.496C80.0112 73.6511 79.9004 73.7831 79.7262 73.8872C79.5977 73.9644 79.4338 74.0263 79.2427 74.0716C78.9624 74.1376 78.6239 74.167 78.2523 74.1544C78.0092 74.1458 77.7525 74.1191 77.4884 74.0728C77.4869 74.0726 77.4854 74.0723 77.4839 74.072C76.1733 73.8404 75.1882 73.2089 75.2832 72.66C75.309 72.5114 75.4113 72.3836 75.5729 72.2817C75.6991 72.2023 75.8607 72.1382 76.05 72.0913C76.3266 72.0223 76.6622 71.9904 77.0318 72.0003C77.2735 72.0072 77.5299 72.0318 77.7936 72.0766C77.8069 72.0786 77.8199 72.0809 77.8328 72.0832C79.1455 72.3139 80.1328 72.9468 80.038 73.496Z" fill="#C2C2C2"/>
            <path d="M80.038 73.496C80.0112 73.6511 79.9004 73.7831 79.7262 73.8872C79.5977 73.9644 79.4338 74.0263 79.2427 74.0716C78.9624 74.1376 78.6239 74.167 78.2523 74.1544C78.0092 74.1458 77.7525 74.1191 77.4884 74.0728C77.4869 74.0726 77.4854 74.0723 77.4839 74.072C76.1733 73.8404 75.1882 73.2089 75.2832 72.66C75.309 72.5114 75.4113 72.3836 75.5729 72.2817C75.6991 72.2023 75.8607 72.1382 76.05 72.0913C76.3266 72.0223 76.6622 71.9904 77.0318 72.0003C77.2735 72.0072 77.5299 72.0318 77.7936 72.0766C77.8069 72.0786 77.8199 72.0809 77.8328 72.0832C79.1455 72.3139 80.1328 72.9468 80.038 73.496Z" fill="#C2C2C2"/>
            <path d="M79.634 73.5109C79.5852 73.6606 79.4564 73.7752 79.269 73.8531C79.1306 73.9109 78.9595 73.9486 78.7638 73.9659C78.4768 73.9908 78.1375 73.9712 77.7713 73.9052C77.532 73.8618 77.2816 73.7984 77.0269 73.7146C77.0255 73.7142 77.024 73.7137 77.0225 73.7132C75.7583 73.2954 74.8739 72.529 75.047 71.9997C75.0939 71.8565 75.2136 71.7448 75.3882 71.6673C75.5245 71.6068 75.6938 71.5667 75.888 71.5475C76.1718 71.5192 76.5086 71.5358 76.873 71.5989C77.1114 71.6404 77.3617 71.7017 77.6163 71.784C77.6292 71.7879 77.6416 71.792 77.6542 71.7961C78.9205 72.2132 79.8069 72.9813 79.634 73.5109Z" fill="#C2C2C2"/>
            <path d="M79.634 73.5109C79.5852 73.6606 79.4564 73.7752 79.269 73.8531C79.1306 73.9109 78.9595 73.9486 78.7638 73.9659C78.4768 73.9908 78.1375 73.9712 77.7713 73.9052C77.532 73.8618 77.2816 73.7984 77.0269 73.7146C77.0255 73.7142 77.024 73.7137 77.0225 73.7132C75.7583 73.2954 74.8739 72.529 75.047 71.9997C75.0939 71.8565 75.2136 71.7448 75.3882 71.6673C75.5245 71.6068 75.6938 71.5667 75.888 71.5475C76.1718 71.5192 76.5086 71.5358 76.873 71.5989C77.1114 71.6404 77.3617 71.7017 77.6163 71.784C77.6292 71.7879 77.6416 71.792 77.6542 71.7961C78.9205 72.2132 79.8069 72.9813 79.634 73.5109Z" fill="#C2C2C2"/>
            <path d="M79.634 73.5109C79.5852 73.6606 79.4564 73.7752 79.269 73.8531C79.1306 73.9109 78.9595 73.9486 78.7638 73.9659C78.4768 73.9908 78.1375 73.9712 77.7713 73.9052C77.532 73.8618 77.2816 73.7984 77.0269 73.7146C77.0255 73.7142 77.024 73.7137 77.0225 73.7132C75.7583 73.2954 74.8739 72.529 75.047 71.9997C75.0939 71.8565 75.2136 71.7448 75.3882 71.6673C75.5245 71.6068 75.6938 71.5667 75.888 71.5475C76.1718 71.5192 76.5086 71.5358 76.873 71.5989C77.1114 71.6404 77.3617 71.7017 77.6163 71.784C77.6292 71.7879 77.6416 71.792 77.6542 71.7961C78.9205 72.2132 79.8069 72.9813 79.634 73.5109Z" fill="#F3F2F2"/>
            <path d="M86.7601 65.2368C86.8822 65.3532 87.062 65.3963 87.2785 65.3751C87.4386 65.3597 87.6195 65.3089 87.8131 65.2263C88.0968 65.1048 88.4075 64.915 88.7198 64.6679C88.9239 64.5059 89.1282 64.3198 89.3262 64.112C89.3274 64.1109 89.3285 64.1097 89.3296 64.1086C90.3116 63.0759 90.7579 61.9063 90.3255 61.4946C90.2085 61.3832 90.0388 61.3383 89.8344 61.3534C89.6749 61.3652 89.4946 61.4129 89.3015 61.4928C89.0191 61.6094 88.7092 61.7953 88.3971 62.0388C88.1931 62.1984 87.9877 62.3827 87.789 62.5889C87.7788 62.599 87.7691 62.6092 87.7594 62.6194C86.775 63.6525 86.3278 64.8246 86.7601 65.2368Z" fill="#C2C2C2"/>
            <path d="M86.7601 65.2368C86.8822 65.3532 87.062 65.3963 87.2785 65.3751C87.4386 65.3597 87.6195 65.3089 87.8131 65.2263C88.0968 65.1048 88.4075 64.915 88.7198 64.6679C88.9239 64.5059 89.1282 64.3198 89.3262 64.112C89.3274 64.1109 89.3285 64.1097 89.3296 64.1086C90.3116 63.0759 90.7579 61.9063 90.3255 61.4946C90.2085 61.3832 90.0388 61.3383 89.8344 61.3534C89.6749 61.3652 89.4946 61.4129 89.3015 61.4928C89.0191 61.6094 88.7092 61.7953 88.3971 62.0388C88.1931 62.1984 87.9877 62.3827 87.789 62.5889C87.7788 62.599 87.7691 62.6092 87.7594 62.6194C86.775 63.6525 86.3278 64.8246 86.7601 65.2368Z" fill="#C2C2C2"/>
            <path d="M86.7601 65.2368C86.8822 65.3532 87.062 65.3963 87.2785 65.3751C87.4386 65.3597 87.6195 65.3089 87.8131 65.2263C88.0968 65.1048 88.4075 64.915 88.7198 64.6679C88.9239 64.5059 89.1282 64.3198 89.3262 64.112C89.3274 64.1109 89.3285 64.1097 89.3296 64.1086C90.3116 63.0759 90.7579 61.9063 90.3255 61.4946C90.2085 61.3832 90.0388 61.3383 89.8344 61.3534C89.6749 61.3652 89.4946 61.4129 89.3015 61.4928C89.0191 61.6094 88.7092 61.7953 88.3971 62.0388C88.1931 62.1984 87.9877 62.3827 87.789 62.5889C87.7788 62.599 87.7691 62.6092 87.7594 62.6194C86.775 63.6525 86.3278 64.8246 86.7601 65.2368Z" fill="#C2C2C2"/>
            <path d="M87.3677 64.542C87.5053 64.6397 87.6895 64.6565 87.9007 64.6043C88.0569 64.5661 88.2286 64.4898 88.4083 64.3802C88.6716 64.2191 88.9517 63.9866 89.2252 63.697C89.4038 63.5075 89.5792 63.2938 89.7453 63.0598C89.7462 63.0584 89.7472 63.0571 89.7481 63.0558C90.5713 61.8925 90.8446 60.671 90.3575 60.3257C90.2256 60.2323 90.0512 60.2123 89.8512 60.2567C89.6951 60.2913 89.5235 60.3645 89.3439 60.4714C89.0812 60.6274 88.8013 60.8559 88.5275 61.1419C88.3485 61.3291 88.1718 61.541 88.0048 61.7737C87.9962 61.7851 87.9881 61.7967 87.98 61.8082C87.1544 62.9721 86.8806 64.1964 87.3677 64.542Z" fill="#C2C2C2"/>
            <path d="M87.3677 64.542C87.5053 64.6397 87.6895 64.6565 87.9007 64.6043C88.0569 64.5661 88.2286 64.4898 88.4083 64.3802C88.6716 64.2191 88.9517 63.9866 89.2252 63.697C89.4038 63.5075 89.5792 63.2938 89.7453 63.0598C89.7462 63.0584 89.7472 63.0571 89.7481 63.0558C90.5713 61.8925 90.8446 60.671 90.3575 60.3257C90.2256 60.2323 90.0512 60.2123 89.8512 60.2567C89.6951 60.2913 89.5235 60.3645 89.3439 60.4714C89.0812 60.6274 88.8013 60.8559 88.5275 61.1419C88.3485 61.3291 88.1718 61.541 88.0048 61.7737C87.9962 61.7851 87.9881 61.7967 87.98 61.8082C87.1544 62.9721 86.8806 64.1964 87.3677 64.542Z" fill="#C2C2C2"/>
            <path d="M87.3677 64.542C87.5053 64.6397 87.6895 64.6565 87.9007 64.6043C88.0569 64.5661 88.2286 64.4898 88.4083 64.3802C88.6716 64.2191 88.9517 63.9866 89.2252 63.697C89.4038 63.5075 89.5792 63.2938 89.7453 63.0598C89.7462 63.0584 89.7472 63.0571 89.7481 63.0558C90.5713 61.8925 90.8446 60.671 90.3575 60.3257C90.2256 60.2323 90.0512 60.2123 89.8512 60.2567C89.6951 60.2913 89.5235 60.3645 89.3439 60.4714C89.0812 60.6274 88.8013 60.8559 88.5275 61.1419C88.3485 61.3291 88.1718 61.541 88.0048 61.7737C87.9962 61.7851 87.9881 61.7967 87.98 61.8082C87.1544 62.9721 86.8806 64.1964 87.3677 64.542Z" fill="#F3F2F2"/>
            <path d="M84.5658 51.5518C84.3953 51.5984 84.2593 51.7364 84.1612 51.9422C84.0884 52.0942 84.0361 52.2839 84.0055 52.5024C83.961 52.8227 83.9633 53.2042 84.0161 53.6181C84.051 53.8888 84.1075 54.1729 84.1867 54.463C84.1871 54.4647 84.1876 54.4663 84.1881 54.4679C84.5834 55.9078 85.3914 56.941 85.9948 56.7759C86.1581 56.7311 86.2903 56.603 86.3872 56.4115C86.4629 56.262 86.5177 56.0745 86.5504 55.8579C86.5986 55.5414 86.5994 55.1628 86.5498 54.7509C86.517 54.4815 86.4628 54.1976 86.3852 53.9077C86.3817 53.893 86.3777 53.8788 86.3738 53.8646C85.9795 52.4223 85.1696 51.3869 84.5658 51.5518Z" fill="#C2C2C2"/>
            <path d="M84.5658 51.5518C84.3953 51.5984 84.2593 51.7364 84.1612 51.9422C84.0884 52.0942 84.0361 52.2839 84.0055 52.5024C83.961 52.8227 83.9633 53.2042 84.0161 53.6181C84.051 53.8888 84.1075 54.1729 84.1867 54.463C84.1871 54.4647 84.1876 54.4663 84.1881 54.4679C84.5834 55.9078 85.3914 56.941 85.9948 56.7759C86.1581 56.7311 86.2903 56.603 86.3872 56.4115C86.4629 56.262 86.5177 56.0745 86.5504 55.8579C86.5986 55.5414 86.5994 55.1628 86.5498 54.7509C86.517 54.4815 86.4628 54.1976 86.3852 53.9077C86.3817 53.893 86.3777 53.8788 86.3738 53.8646C85.9795 52.4223 85.1696 51.3869 84.5658 51.5518Z" fill="#C2C2C2"/>
            <path d="M84.5658 51.5518C84.3953 51.5984 84.2593 51.7364 84.1612 51.9422C84.0884 52.0942 84.0361 52.2839 84.0055 52.5024C83.961 52.8227 83.9633 53.2042 84.0161 53.6181C84.051 53.8888 84.1075 54.1729 84.1867 54.463C84.1871 54.4647 84.1876 54.4663 84.1881 54.4679C84.5834 55.9078 85.3914 56.941 85.9948 56.7759C86.1581 56.7311 86.2903 56.603 86.3872 56.4115C86.4629 56.262 86.5177 56.0745 86.5504 55.8579C86.5986 55.5414 86.5994 55.1628 86.5498 54.7509C86.517 54.4815 86.4628 54.1976 86.3852 53.9077C86.3817 53.893 86.3777 53.8788 86.3738 53.8646C85.9795 52.4223 85.1696 51.3869 84.5658 51.5518Z" fill="#C2C2C2"/>
            <path d="M84.5911 52.0048C84.429 52.0754 84.3143 52.2316 84.2468 52.4494C84.1966 52.6102 84.1722 52.8056 84.1734 53.0261C84.1754 53.3495 84.2326 53.7267 84.3444 54.1288C84.4179 54.3916 84.5148 54.6646 84.6349 54.9403C84.6355 54.9418 84.6363 54.9434 84.6369 54.945C85.2354 56.3131 86.1836 57.2192 86.757 56.9689C86.9122 56.9011 87.0245 56.7554 87.0929 56.5518C87.1462 56.393 87.1734 56.1995 87.1747 55.9805C87.1768 55.6604 87.1232 55.2856 87.0148 54.8851C86.9436 54.6233 86.849 54.3501 86.7306 54.0743C86.7249 54.0604 86.719 54.0469 86.7131 54.0333C86.1152 52.6629 85.1648 51.7547 84.5911 52.0048Z" fill="#C2C2C2"/>
            <path d="M84.5911 52.0048C84.429 52.0754 84.3143 52.2316 84.2468 52.4494C84.1966 52.6102 84.1722 52.8056 84.1734 53.0261C84.1754 53.3495 84.2326 53.7267 84.3444 54.1288C84.4179 54.3916 84.5148 54.6646 84.6349 54.9403C84.6355 54.9418 84.6363 54.9434 84.6369 54.945C85.2354 56.3131 86.1836 57.2192 86.757 56.9689C86.9122 56.9011 87.0245 56.7554 87.0929 56.5518C87.1462 56.393 87.1734 56.1995 87.1747 55.9805C87.1768 55.6604 87.1232 55.2856 87.0148 54.8851C86.9436 54.6233 86.849 54.3501 86.7306 54.0743C86.7249 54.0604 86.719 54.0469 86.7131 54.0333C86.1152 52.6629 85.1648 51.7547 84.5911 52.0048Z" fill="#C2C2C2"/>
            <path d="M84.5911 52.0048C84.429 52.0754 84.3143 52.2316 84.2468 52.4494C84.1966 52.6102 84.1722 52.8056 84.1734 53.0261C84.1754 53.3495 84.2326 53.7267 84.3444 54.1288C84.4179 54.3916 84.5148 54.6646 84.6349 54.9403C84.6355 54.9418 84.6363 54.9434 84.6369 54.945C85.2354 56.3131 86.1836 57.2192 86.757 56.9689C86.9122 56.9011 87.0245 56.7554 87.0929 56.5518C87.1462 56.393 87.1734 56.1995 87.1747 55.9805C87.1768 55.6604 87.1232 55.2856 87.0148 54.8851C86.9436 54.6233 86.849 54.3501 86.7306 54.0743C86.7249 54.0604 86.719 54.0469 86.7131 54.0333C86.1152 52.6629 85.1648 51.7547 84.5911 52.0048Z" fill="#EBEBEB"/>
            <path d="M67.3952 53.2813C67.464 53.1642 67.5936 53.0912 67.7658 53.0599C67.8931 53.0365 68.0442 53.0359 68.2122 53.0571C68.4585 53.0884 68.7407 53.1668 69.0369 53.2892C69.2304 53.3694 69.4295 53.4684 69.6286 53.5854C69.6297 53.586 69.6309 53.5867 69.632 53.5874C70.6195 54.1697 71.2227 54.976 70.9791 55.3899C70.9131 55.5019 70.7916 55.5741 70.6302 55.6075C70.5042 55.6335 70.3543 55.6364 70.1872 55.6172C69.943 55.5893 69.6623 55.5138 69.3671 55.3942C69.174 55.3158 68.9745 55.2185 68.7753 55.1028C68.7652 55.0972 68.7555 55.0915 68.7457 55.0857C67.7562 54.5037 67.1517 53.6955 67.3952 53.2813Z" fill="#C2C2C2"/>
            <path d="M67.3952 53.2813C67.464 53.1642 67.5936 53.0912 67.7658 53.0599C67.8931 53.0365 68.0442 53.0359 68.2122 53.0571C68.4585 53.0884 68.7407 53.1668 69.0369 53.2892C69.2304 53.3694 69.4295 53.4684 69.6286 53.5854C69.6297 53.586 69.6309 53.5867 69.632 53.5874C70.6195 54.1697 71.2227 54.976 70.9791 55.3899C70.9131 55.5019 70.7916 55.5741 70.6302 55.6075C70.5042 55.6335 70.3543 55.6364 70.1872 55.6172C69.943 55.5893 69.6623 55.5138 69.3671 55.3942C69.174 55.3158 68.9745 55.2185 68.7753 55.1028C68.7652 55.0972 68.7555 55.0915 68.7457 55.0857C67.7562 54.5037 67.1517 53.6955 67.3952 53.2813Z" fill="#C2C2C2"/>
            <path d="M67.3952 53.2813C67.464 53.1642 67.5936 53.0912 67.7658 53.0599C67.8931 53.0365 68.0442 53.0359 68.2122 53.0571C68.4585 53.0884 68.7407 53.1668 69.0369 53.2892C69.2304 53.3694 69.4295 53.4684 69.6286 53.5854C69.6297 53.586 69.6309 53.5867 69.632 53.5874C70.6195 54.1697 71.2227 54.976 70.9791 55.3899C70.9131 55.5019 70.7916 55.5741 70.6302 55.6075C70.5042 55.6335 70.3543 55.6364 70.1872 55.6172C69.943 55.5893 69.6623 55.5138 69.3671 55.3942C69.174 55.3158 68.9745 55.2185 68.7753 55.1028C68.7652 55.0972 68.7555 55.0915 68.7457 55.0857C67.7562 54.5037 67.1517 53.6955 67.3952 53.2813Z" fill="#C2C2C2"/>
            <path d="M67.6231 53.1643C67.708 53.0585 67.8468 53.0049 68.0217 52.9986C68.151 52.9938 68.3006 53.015 68.4639 53.0601C68.7031 53.1266 68.971 53.2448 69.2465 53.4084C69.4265 53.5157 69.6093 53.6423 69.7895 53.7868C69.7905 53.7875 69.7915 53.7884 69.7925 53.7891C70.6859 54.5075 71.1669 55.3923 70.8662 55.7668C70.7847 55.8682 70.6542 55.9221 70.4896 55.932C70.3612 55.9395 70.2124 55.9208 70.0499 55.8777C69.8121 55.815 69.5453 55.6999 69.2703 55.5391C69.0906 55.4337 68.9071 55.3088 68.7267 55.1656C68.7174 55.1586 68.7086 55.1515 68.6998 55.1444C67.8044 54.426 67.3225 53.5392 67.6231 53.1643Z" fill="#C2C2C2"/>
            <path d="M67.6231 53.1643C67.708 53.0585 67.8468 53.0049 68.0217 52.9986C68.151 52.9938 68.3006 53.015 68.4639 53.0601C68.7031 53.1266 68.971 53.2448 69.2465 53.4084C69.4265 53.5157 69.6093 53.6423 69.7895 53.7868C69.7905 53.7875 69.7915 53.7884 69.7925 53.7891C70.6859 54.5075 71.1669 55.3923 70.8662 55.7668C70.7847 55.8682 70.6542 55.9221 70.4896 55.932C70.3612 55.9395 70.2124 55.9208 70.0499 55.8777C69.8121 55.815 69.5453 55.6999 69.2703 55.5391C69.0906 55.4337 68.9071 55.3088 68.7267 55.1656C68.7174 55.1586 68.7086 55.1515 68.6998 55.1444C67.8044 54.426 67.3225 53.5392 67.6231 53.1643Z" fill="#C2C2C2"/>
            <path d="M67.6231 53.1643C67.708 53.0585 67.8468 53.0049 68.0217 52.9986C68.151 52.9938 68.3006 53.015 68.4639 53.0601C68.7031 53.1266 68.971 53.2448 69.2465 53.4084C69.4265 53.5157 69.6093 53.6423 69.7895 53.7868C69.7905 53.7875 69.7915 53.7884 69.7925 53.7891C70.6859 54.5075 71.1669 55.3923 70.8662 55.7668C70.7847 55.8682 70.6542 55.9221 70.4896 55.932C70.3612 55.9395 70.2124 55.9208 70.0499 55.8777C69.8121 55.815 69.5453 55.6999 69.2703 55.5391C69.0906 55.4337 68.9071 55.3088 68.7267 55.1656C68.7174 55.1586 68.7086 55.1515 68.6998 55.1444C67.8044 54.426 67.3225 53.5392 67.6231 53.1643Z" fill="#EBEBEB"/>
            <path d="M67.447 69.1442C67.5359 69.2447 67.6755 69.291 67.8485 69.2887C67.9764 69.2873 68.1232 69.2591 68.2821 69.2067C68.5152 69.1295 68.7741 69 69.0382 68.8251C69.2108 68.7105 69.3852 68.5767 69.5561 68.4254C69.5571 68.4246 69.558 68.4237 69.559 68.4228C70.4066 67.6705 70.8388 66.7737 70.5239 66.4184C70.4386 66.3223 70.3071 66.2752 70.1442 66.2735C70.017 66.2722 69.8709 66.2978 69.7125 66.3482C69.4808 66.4216 69.2229 66.5481 68.9591 66.7201C68.7867 66.8328 68.6116 66.965 68.4403 67.1151C68.4315 67.1224 68.4232 67.1298 68.4148 67.1373C67.5653 67.8897 67.1321 68.7885 67.447 69.1442Z" fill="#C2C2C2"/>
            <path d="M67.447 69.1442C67.5359 69.2447 67.6755 69.291 67.8485 69.2887C67.9764 69.2873 68.1232 69.2591 68.2821 69.2067C68.5152 69.1295 68.7741 69 69.0382 68.8251C69.2108 68.7105 69.3852 68.5767 69.5561 68.4254C69.5571 68.4246 69.558 68.4237 69.559 68.4228C70.4066 67.6705 70.8388 66.7737 70.5239 66.4184C70.4386 66.3223 70.3071 66.2752 70.1442 66.2735C70.017 66.2722 69.8709 66.2978 69.7125 66.3482C69.4808 66.4216 69.2229 66.5481 68.9591 66.7201C68.7867 66.8328 68.6116 66.965 68.4403 67.1151C68.4315 67.1224 68.4232 67.1298 68.4148 67.1373C67.5653 67.8897 67.1321 68.7885 67.447 69.1442Z" fill="#C2C2C2"/>
            <path d="M67.447 69.1442C67.5359 69.2447 67.6755 69.291 67.8485 69.2887C67.9764 69.2873 68.1232 69.2591 68.2821 69.2067C68.5152 69.1295 68.7741 69 69.0382 68.8251C69.2108 68.7105 69.3852 68.5767 69.5561 68.4254C69.5571 68.4246 69.558 68.4237 69.559 68.4228C70.4066 67.6705 70.8388 66.7737 70.5239 66.4184C70.4386 66.3223 70.3071 66.2752 70.1442 66.2735C70.017 66.2722 69.8709 66.2978 69.7125 66.3482C69.4808 66.4216 69.2229 66.5481 68.9591 66.7201C68.7867 66.8328 68.6116 66.965 68.4403 67.1151C68.4315 67.1224 68.4232 67.1298 68.4148 67.1373C67.5653 67.8897 67.1321 68.7885 67.447 69.1442Z" fill="#C2C2C2"/>
            <path d="M67.7049 68.913C67.8074 68.9997 67.9522 69.0253 68.1231 68.9982C68.2495 68.9784 68.3907 68.9294 68.5404 68.8547C68.7599 68.7448 68.9975 68.5793 69.2337 68.3682C69.3879 68.23 69.5413 68.0725 69.6886 67.8981C69.6895 67.8972 69.6903 67.8962 69.6912 67.8952C70.4217 67.0287 70.7203 66.0791 70.3576 65.7727C70.2593 65.6899 70.1224 65.6623 69.9609 65.684C69.8349 65.701 69.694 65.7474 69.5445 65.8201C69.3258 65.926 69.0887 66.0883 68.8525 66.2965C68.6981 66.4328 68.5439 66.5889 68.3959 66.7621C68.3883 66.7706 68.3811 66.7791 68.3739 66.7877C67.6415 67.6546 67.3422 68.6064 67.7049 68.913Z" fill="#C2C2C2"/>
            <path d="M67.7049 68.913C67.8074 68.9997 67.9522 69.0253 68.1231 68.9982C68.2495 68.9784 68.3907 68.9294 68.5404 68.8547C68.7599 68.7448 68.9975 68.5793 69.2337 68.3682C69.3879 68.23 69.5413 68.0725 69.6886 67.8981C69.6895 67.8972 69.6903 67.8962 69.6912 67.8952C70.4217 67.0287 70.7203 66.0791 70.3576 65.7727C70.2593 65.6899 70.1224 65.6623 69.9609 65.684C69.8349 65.701 69.694 65.7474 69.5445 65.8201C69.3258 65.926 69.0887 66.0883 68.8525 66.2965C68.6981 66.4328 68.5439 66.5889 68.3959 66.7621C68.3883 66.7706 68.3811 66.7791 68.3739 66.7877C67.6415 67.6546 67.3422 68.6064 67.7049 68.913Z" fill="#C2C2C2"/>
            <path d="M67.7049 68.913C67.8074 68.9997 67.9522 69.0253 68.1231 68.9982C68.2495 68.9784 68.3907 68.9294 68.5404 68.8547C68.7599 68.7448 68.9975 68.5793 69.2337 68.3682C69.3879 68.23 69.5413 68.0725 69.6886 67.8981C69.6895 67.8972 69.6903 67.8962 69.6912 67.8952C70.4217 67.0287 70.7203 66.0791 70.3576 65.7727C70.2593 65.6899 70.1224 65.6623 69.9609 65.684C69.8349 65.701 69.694 65.7474 69.5445 65.8201C69.3258 65.926 69.0887 66.0883 68.8525 66.2965C68.6981 66.4328 68.5439 66.5889 68.3959 66.7621C68.3883 66.7706 68.3811 66.7791 68.3739 66.7877C67.6415 67.6546 67.3422 68.6064 67.7049 68.913Z" fill="#F3F2F2"/>
            <path d="M84.5658 51.5518C84.3953 51.5984 84.2593 51.7364 84.1612 51.9422C84.0884 52.0942 84.0361 52.2839 84.0055 52.5024C83.961 52.8227 83.9633 53.2042 84.0161 53.6181C84.051 53.8888 84.1075 54.1729 84.1867 54.463C84.1871 54.4647 84.1876 54.4663 84.1881 54.4679C84.5834 55.9078 85.3914 56.941 85.9948 56.7759C86.1581 56.7311 86.2903 56.603 86.3872 56.4115C86.4629 56.262 86.5177 56.0745 86.5504 55.8579C86.5986 55.5414 86.5994 55.1628 86.5498 54.7509C86.517 54.4815 86.4628 54.1976 86.3852 53.9077C86.3817 53.893 86.3777 53.8788 86.3738 53.8646C85.9795 52.4223 85.1696 51.3869 84.5658 51.5518Z" fill="#C2C2C2"/>
            <path d="M84.5658 51.5518C84.3953 51.5984 84.2593 51.7364 84.1612 51.9422C84.0884 52.0942 84.0361 52.2839 84.0055 52.5024C83.961 52.8227 83.9633 53.2042 84.0161 53.6181C84.051 53.8888 84.1075 54.1729 84.1867 54.463C84.1871 54.4647 84.1876 54.4663 84.1881 54.4679C84.5834 55.9078 85.3914 56.941 85.9948 56.7759C86.1581 56.7311 86.2903 56.603 86.3872 56.4115C86.4629 56.262 86.5177 56.0745 86.5504 55.8579C86.5986 55.5414 86.5994 55.1628 86.5498 54.7509C86.517 54.4815 86.4628 54.1976 86.3852 53.9077C86.3817 53.893 86.3777 53.8788 86.3738 53.8646C85.9795 52.4223 85.1696 51.3869 84.5658 51.5518Z" fill="#C2C2C2"/>
            <path d="M84.5658 51.5518C84.3953 51.5984 84.2593 51.7364 84.1612 51.9422C84.0884 52.0942 84.0361 52.2839 84.0055 52.5024C83.961 52.8227 83.9633 53.2042 84.0161 53.6181C84.051 53.8888 84.1075 54.1729 84.1867 54.463C84.1871 54.4647 84.1876 54.4663 84.1881 54.4679C84.5834 55.9078 85.3914 56.941 85.9948 56.7759C86.1581 56.7311 86.2903 56.603 86.3872 56.4115C86.4629 56.262 86.5177 56.0745 86.5504 55.8579C86.5986 55.5414 86.5994 55.1628 86.5498 54.7509C86.517 54.4815 86.4628 54.1976 86.3852 53.9077C86.3817 53.893 86.3777 53.8788 86.3738 53.8646C85.9795 52.4223 85.1696 51.3869 84.5658 51.5518Z" fill="#C2C2C2"/>
            <path d="M84.5911 52.0048C84.429 52.0754 84.3143 52.2316 84.2468 52.4494C84.1966 52.6102 84.1722 52.8056 84.1734 53.0261C84.1754 53.3495 84.2326 53.7267 84.3444 54.1288C84.4179 54.3916 84.5148 54.6646 84.6349 54.9403C84.6355 54.9418 84.6363 54.9434 84.6369 54.945C85.2354 56.3131 86.1836 57.2192 86.757 56.9689C86.9122 56.9011 87.0245 56.7554 87.0929 56.5518C87.1462 56.393 87.1734 56.1995 87.1747 55.9805C87.1768 55.6604 87.1232 55.2856 87.0148 54.8851C86.9436 54.6233 86.849 54.3501 86.7306 54.0743C86.7249 54.0604 86.719 54.0469 86.7131 54.0333C86.1152 52.6629 85.1648 51.7547 84.5911 52.0048Z" fill="#C2C2C2"/>
            <path d="M84.5911 52.0048C84.429 52.0754 84.3143 52.2316 84.2468 52.4494C84.1966 52.6102 84.1722 52.8056 84.1734 53.0261C84.1754 53.3495 84.2326 53.7267 84.3444 54.1288C84.4179 54.3916 84.5148 54.6646 84.6349 54.9403C84.6355 54.9418 84.6363 54.9434 84.6369 54.945C85.2354 56.3131 86.1836 57.2192 86.757 56.9689C86.9122 56.9011 87.0245 56.7554 87.0929 56.5518C87.1462 56.393 87.1734 56.1995 87.1747 55.9805C87.1768 55.6604 87.1232 55.2856 87.0148 54.8851C86.9436 54.6233 86.849 54.3501 86.7306 54.0743C86.7249 54.0604 86.719 54.0469 86.7131 54.0333C86.1152 52.6629 85.1648 51.7547 84.5911 52.0048Z" fill="#C2C2C2"/>
            <path d="M84.5911 52.0048C84.429 52.0754 84.3143 52.2316 84.2468 52.4494C84.1966 52.6102 84.1722 52.8056 84.1734 53.0261C84.1754 53.3495 84.2326 53.7267 84.3444 54.1288C84.4179 54.3916 84.5148 54.6646 84.6349 54.9403C84.6355 54.9418 84.6363 54.9434 84.6369 54.945C85.2354 56.3131 86.1836 57.2192 86.757 56.9689C86.9122 56.9011 87.0245 56.7554 87.0929 56.5518C87.1462 56.393 87.1734 56.1995 87.1747 55.9805C87.1768 55.6604 87.1232 55.2856 87.0148 54.8851C86.9436 54.6233 86.849 54.3501 86.7306 54.0743C86.7249 54.0604 86.719 54.0469 86.7131 54.0333C86.1152 52.6629 85.1648 51.7547 84.5911 52.0048Z" fill="#F3F2F2"/>
            <path d="M80.3952 71.9087C80.455 72.0751 80.6032 72.1999 80.816 72.2816C80.9733 72.3423 81.1665 72.3796 81.3867 72.3931C81.7095 72.4124 82.0896 72.3803 82.4982 72.2953C82.7653 72.2394 83.0441 72.1607 83.3271 72.0591C83.3287 72.0586 83.3303 72.058 83.332 72.0574C84.7366 71.5507 85.7034 70.6644 85.4916 70.0758C85.4342 69.9165 85.2962 69.7947 85.0977 69.713C84.9427 69.6493 84.7514 69.6094 84.533 69.5936C84.2136 69.5703 83.8361 69.5991 83.4294 69.6808C83.1635 69.7346 82.8846 69.8108 82.6017 69.9108C82.5874 69.9155 82.5735 69.9205 82.5596 69.9255C81.1525 70.4314 80.1836 71.3198 80.3952 71.9087Z" fill="#C2C2C2"/>
            <path d="M80.3952 71.9087C80.455 72.0751 80.6032 72.1999 80.816 72.2816C80.9733 72.3423 81.1665 72.3796 81.3867 72.3931C81.7095 72.4124 82.0896 72.3803 82.4982 72.2953C82.7653 72.2394 83.0441 72.1607 83.3271 72.0591C83.3287 72.0586 83.3303 72.058 83.332 72.0574C84.7366 71.5507 85.7034 70.6644 85.4916 70.0758C85.4342 69.9165 85.2962 69.7947 85.0977 69.713C84.9427 69.6493 84.7514 69.6094 84.533 69.5936C84.2136 69.5703 83.8361 69.5991 83.4294 69.6808C83.1635 69.7346 82.8846 69.8108 82.6017 69.9108C82.5874 69.9155 82.5735 69.9205 82.5596 69.9255C81.1525 70.4314 80.1836 71.3198 80.3952 71.9087Z" fill="#C2C2C2"/>
            <path d="M80.3952 71.9087C80.455 72.0751 80.6032 72.1999 80.816 72.2816C80.9733 72.3423 81.1665 72.3796 81.3867 72.3931C81.7095 72.4124 82.0896 72.3803 82.4982 72.2953C82.7653 72.2394 83.0441 72.1607 83.3271 72.0591C83.3287 72.0586 83.3303 72.058 83.332 72.0574C84.7366 71.5507 85.7034 70.6644 85.4916 70.0758C85.4342 69.9165 85.2962 69.7947 85.0977 69.713C84.9427 69.6493 84.7514 69.6094 84.533 69.5936C84.2136 69.5703 83.8361 69.5991 83.4294 69.6808C83.1635 69.7346 82.8846 69.8108 82.6017 69.9108C82.5874 69.9155 82.5735 69.9205 82.5596 69.9255C81.1525 70.4314 80.1836 71.3198 80.3952 71.9087Z" fill="#C2C2C2"/>
            <path d="M80.8448 71.8482C80.928 72.0043 81.0926 72.1064 81.315 72.1567C81.4793 72.1941 81.6759 72.2031 81.8957 72.1848C82.218 72.1575 82.5895 72.071 82.9816 71.9281C83.2379 71.8343 83.5025 71.7164 83.7679 71.5751C83.7694 71.5743 83.7709 71.5735 83.7724 71.5727C85.0895 70.8692 85.9187 69.8529 85.6244 69.3009C85.5447 69.1515 85.3906 69.0509 85.1824 68.9986C85.0199 68.9579 84.8249 68.9458 84.6064 68.9617C84.287 68.9846 83.9177 69.0674 83.5269 69.2068C83.2714 69.2983 83.0064 69.4138 82.7408 69.5535C82.7273 69.5602 82.7143 69.5672 82.7013 69.5741C81.3817 70.2773 80.5506 71.2958 80.8448 71.8482Z" fill="#C2C2C2"/>
            <path d="M80.8448 71.8482C80.928 72.0043 81.0926 72.1064 81.315 72.1567C81.4793 72.1941 81.6759 72.2031 81.8957 72.1848C82.218 72.1575 82.5895 72.071 82.9816 71.9281C83.2379 71.8343 83.5025 71.7164 83.7679 71.5751C83.7694 71.5743 83.7709 71.5735 83.7724 71.5727C85.0895 70.8692 85.9187 69.8529 85.6244 69.3009C85.5447 69.1515 85.3906 69.0509 85.1824 68.9986C85.0199 68.9579 84.8249 68.9458 84.6064 68.9617C84.287 68.9846 83.9177 69.0674 83.5269 69.2068C83.2714 69.2983 83.0064 69.4138 82.7408 69.5535C82.7273 69.5602 82.7143 69.5672 82.7013 69.5741C81.3817 70.2773 80.5506 71.2958 80.8448 71.8482Z" fill="#C2C2C2"/>
            <path d="M80.8448 71.8482C80.928 72.0043 81.0926 72.1064 81.315 72.1567C81.4793 72.1941 81.6759 72.2031 81.8957 72.1848C82.218 72.1575 82.5895 72.071 82.9816 71.9281C83.2379 71.8343 83.5025 71.7164 83.7679 71.5751C83.7694 71.5743 83.7709 71.5735 83.7724 71.5727C85.0895 70.8692 85.9187 69.8529 85.6244 69.3009C85.5447 69.1515 85.3906 69.0509 85.1824 68.9986C85.0199 68.9579 84.8249 68.9458 84.6064 68.9617C84.287 68.9846 83.9177 69.0674 83.5269 69.2068C83.2714 69.2983 83.0064 69.4138 82.7408 69.5535C82.7273 69.5602 82.7143 69.5672 82.7013 69.5741C81.3817 70.2773 80.5506 71.2958 80.8448 71.8482Z" fill="#F3F2F2"/>
            <path d="M73.1529 73.2381C72.9864 73.2975 72.7959 73.2621 72.5977 73.1494C72.4511 73.0664 72.2996 72.9406 72.1496 72.779C71.9298 72.5418 71.7135 72.2276 71.5199 71.8578C71.3938 71.6158 71.2777 71.3504 71.1767 71.0672C71.176 71.0656 71.1755 71.0639 71.1749 71.0623C70.6755 69.6552 70.7472 68.3455 71.3366 68.1358C71.4962 68.0791 71.6778 68.1086 71.867 68.2102C72.0145 68.2895 72.1667 68.412 72.3175 68.5709C72.538 68.803 72.7553 69.113 72.9502 69.4793C73.0774 69.719 73.1954 69.9829 73.2976 70.265C73.303 70.2791 73.308 70.293 73.3129 70.3069C73.8144 71.7155 73.7425 73.0281 73.1529 73.2381Z" fill="#C2C2C2"/>
            <path d="M73.1529 73.2381C72.9864 73.2975 72.7959 73.2621 72.5977 73.1494C72.4511 73.0664 72.2996 72.9406 72.1496 72.779C71.9298 72.5418 71.7135 72.2276 71.5199 71.8578C71.3938 71.6158 71.2777 71.3504 71.1767 71.0672C71.176 71.0656 71.1755 71.0639 71.1749 71.0623C70.6755 69.6552 70.7472 68.3455 71.3366 68.1358C71.4962 68.0791 71.6778 68.1086 71.867 68.2102C72.0145 68.2895 72.1667 68.412 72.3175 68.5709C72.538 68.803 72.7553 69.113 72.9502 69.4793C73.0774 69.719 73.1954 69.9829 73.2976 70.265C73.303 70.2791 73.308 70.293 73.3129 70.3069C73.8144 71.7155 73.7425 73.0281 73.1529 73.2381Z" fill="#C2C2C2"/>
            <path d="M73.1529 73.2381C72.9864 73.2975 72.7959 73.2621 72.5977 73.1494C72.4511 73.0664 72.2996 72.9406 72.1496 72.779C71.9298 72.5418 71.7135 72.2276 71.5199 71.8578C71.3938 71.6158 71.2777 71.3504 71.1767 71.0672C71.176 71.0656 71.1755 71.0639 71.1749 71.0623C70.6755 69.6552 70.7472 68.3455 71.3366 68.1358C71.4962 68.0791 71.6778 68.1086 71.867 68.2102C72.0145 68.2895 72.1667 68.412 72.3175 68.5709C72.538 68.803 72.7553 69.113 72.9502 69.4793C73.0774 69.719 73.1954 69.9829 73.2976 70.265C73.303 70.2791 73.308 70.293 73.3129 70.3069C73.8144 71.7155 73.7425 73.0281 73.1529 73.2381Z" fill="#C2C2C2"/>
            <path d="M72.8021 73.0543C72.6288 73.0891 72.4454 73.0266 72.2655 72.8866C72.1323 72.7833 72.0006 72.6371 71.8753 72.4555C71.692 72.1891 71.5231 71.847 71.3849 71.4532C71.2948 71.1956 71.218 70.9163 71.1589 70.6215C71.1585 70.6199 71.1582 70.6181 71.1578 70.6165C70.8661 69.1521 71.1256 67.8664 71.739 67.7437C71.9051 67.7105 72.0806 67.7658 72.2531 67.8936C72.3877 67.9933 72.5207 68.1365 72.647 68.3154C72.832 68.5768 73.0023 68.9149 73.1425 69.3053C73.2339 69.5608 73.3126 69.839 73.3731 70.1329C73.3765 70.1476 73.3794 70.1621 73.3823 70.1766C73.6759 71.6427 73.4158 72.9313 72.8021 73.0543Z" fill="#C2C2C2"/>
            <path d="M72.8021 73.0543C72.6288 73.0891 72.4454 73.0266 72.2655 72.8866C72.1323 72.7833 72.0006 72.6371 71.8753 72.4555C71.692 72.1891 71.5231 71.847 71.3849 71.4532C71.2948 71.1956 71.218 70.9163 71.1589 70.6215C71.1585 70.6199 71.1582 70.6181 71.1578 70.6165C70.8661 69.1521 71.1256 67.8664 71.739 67.7437C71.9051 67.7105 72.0806 67.7658 72.2531 67.8936C72.3877 67.9933 72.5207 68.1365 72.647 68.3154C72.832 68.5768 73.0023 68.9149 73.1425 69.3053C73.2339 69.5608 73.3126 69.839 73.3731 70.1329C73.3765 70.1476 73.3794 70.1621 73.3823 70.1766C73.6759 71.6427 73.4158 72.9313 72.8021 73.0543Z" fill="#C2C2C2"/>
            <path d="M72.8021 73.0543C72.6288 73.0891 72.4454 73.0266 72.2655 72.8866C72.1323 72.7833 72.0006 72.6371 71.8753 72.4555C71.692 72.1891 71.5231 71.847 71.3849 71.4532C71.2948 71.1956 71.218 70.9163 71.1589 70.6215C71.1585 70.6199 71.1582 70.6181 71.1578 70.6165C70.8661 69.1521 71.1256 67.8664 71.739 67.7437C71.9051 67.7105 72.0806 67.7658 72.2531 67.8936C72.3877 67.9933 72.5207 68.1365 72.647 68.3154C72.832 68.5768 73.0023 68.9149 73.1425 69.3053C73.2339 69.5608 73.3126 69.839 73.3731 70.1329C73.3765 70.1476 73.3794 70.1621 73.3823 70.1766C73.6759 71.6427 73.4158 72.9313 72.8021 73.0543Z" fill="#F3F2F2"/>
            <path d="M72.1305 49.6478C72.2121 49.5087 72.3662 49.422 72.5707 49.3847C72.7219 49.3569 72.9014 49.3562 73.101 49.3814C73.3937 49.4187 73.7289 49.5118 74.0808 49.6571C74.3107 49.7525 74.5472 49.8701 74.7837 50.009C74.7851 50.0098 74.7864 50.0106 74.7877 50.0114C75.9609 50.7032 76.6776 51.6611 76.3881 52.1529C76.3097 52.2859 76.1654 52.3717 75.9737 52.4114C75.824 52.4423 75.6458 52.4457 75.4473 52.4228C75.1572 52.3897 74.8237 52.3 74.473 52.158C74.2437 52.0648 74.0067 51.9492 73.77 51.8118C73.758 51.8052 73.7464 51.7983 73.7348 51.7914C72.5593 51.1 71.8411 50.1399 72.1305 49.6478Z" fill="#C2C2C2"/>
            <path d="M72.1305 49.6478C72.2121 49.5087 72.3662 49.422 72.5707 49.3847C72.7219 49.3569 72.9014 49.3562 73.101 49.3814C73.3937 49.4187 73.7289 49.5118 74.0808 49.6571C74.3107 49.7525 74.5472 49.8701 74.7837 50.009C74.7851 50.0098 74.7864 50.0106 74.7877 50.0114C75.9609 50.7032 76.6776 51.6611 76.3881 52.1529C76.3097 52.2859 76.1654 52.3717 75.9737 52.4114C75.824 52.4423 75.6458 52.4457 75.4473 52.4228C75.1572 52.3897 74.8237 52.3 74.473 52.158C74.2437 52.0648 74.0067 51.9492 73.77 51.8118C73.758 51.8052 73.7464 51.7983 73.7348 51.7914C72.5593 51.1 71.8411 50.1399 72.1305 49.6478Z" fill="#C2C2C2"/>
            <path d="M72.1305 49.6478C72.2121 49.5087 72.3662 49.422 72.5707 49.3847C72.7219 49.3569 72.9014 49.3562 73.101 49.3814C73.3937 49.4187 73.7289 49.5118 74.0808 49.6571C74.3107 49.7525 74.5472 49.8701 74.7837 50.009C74.7851 50.0098 74.7864 50.0106 74.7877 50.0114C75.9609 50.7032 76.6776 51.6611 76.3881 52.1529C76.3097 52.2859 76.1654 52.3717 75.9737 52.4114C75.824 52.4423 75.6458 52.4457 75.4473 52.4228C75.1572 52.3897 74.8237 52.3 74.473 52.158C74.2437 52.0648 74.0067 51.9492 73.77 51.8118C73.758 51.8052 73.7464 51.7983 73.7348 51.7914C72.5593 51.1 71.8411 50.1399 72.1305 49.6478Z" fill="#C2C2C2"/>
            <path d="M71.9864 50.2155C72.0123 50.0842 72.1104 49.9813 72.2627 49.9089C72.3751 49.8552 72.5178 49.818 72.6836 49.7981C72.9268 49.7692 73.2197 49.7777 73.5404 49.8259C73.75 49.8576 73.9713 49.9064 74.1984 49.9729C74.1998 49.9733 74.201 49.9736 74.2023 49.974C75.3299 50.3055 76.1691 50.9495 76.077 51.4141C76.052 51.5398 75.9614 51.6399 75.82 51.7117C75.7096 51.7677 75.5688 51.8068 75.4045 51.8284C75.1644 51.8602 74.874 51.8542 74.5551 51.8085C74.3464 51.7783 74.1255 51.7314 73.8986 51.6662C73.8871 51.6632 73.876 51.6599 73.8648 51.6566C72.7355 51.3258 71.8945 50.6803 71.9864 50.2155Z" fill="#C2C2C2"/>
            <path d="M71.9864 50.2155C72.0123 50.0842 72.1104 49.9813 72.2627 49.9089C72.3751 49.8552 72.5178 49.818 72.6836 49.7981C72.9268 49.7692 73.2197 49.7777 73.5404 49.8259C73.75 49.8576 73.9713 49.9064 74.1984 49.9729C74.1998 49.9733 74.201 49.9736 74.2023 49.974C75.3299 50.3055 76.1691 50.9495 76.077 51.4141C76.052 51.5398 75.9614 51.6399 75.82 51.7117C75.7096 51.7677 75.5688 51.8068 75.4045 51.8284C75.1644 51.8602 74.874 51.8542 74.5551 51.8085C74.3464 51.7783 74.1255 51.7314 73.8986 51.6662C73.8871 51.6632 73.876 51.6599 73.8648 51.6566C72.7355 51.3258 71.8945 50.6803 71.9864 50.2155Z" fill="#C2C2C2"/>
            <path d="M71.9864 50.2155C72.0123 50.0842 72.1104 49.9813 72.2627 49.9089C72.3751 49.8552 72.5178 49.818 72.6836 49.7981C72.9268 49.7692 73.2197 49.7777 73.5404 49.8259C73.75 49.8576 73.9713 49.9064 74.1984 49.9729C74.1998 49.9733 74.201 49.9736 74.2023 49.974C75.3299 50.3055 76.1691 50.9495 76.077 51.4141C76.052 51.5398 75.9614 51.6399 75.82 51.7117C75.7096 51.7677 75.5688 51.8068 75.4045 51.8284C75.1644 51.8602 74.874 51.8542 74.5551 51.8085C74.3464 51.7783 74.1255 51.7314 73.8986 51.6662C73.8871 51.6632 73.876 51.6599 73.8648 51.6566C72.7355 51.3258 71.8945 50.6803 71.9864 50.2155Z" fill="#EBEBEB"/>
            <path d="M65.7324 58.1987C65.8884 58.1581 66.0587 58.2056 66.2297 58.3239C66.3563 58.4111 66.4837 58.5376 66.6071 58.6965C66.7877 58.9297 66.9589 59.2326 67.105 59.5841C67.2003 59.8141 67.2844 60.0645 67.3533 60.33C67.3538 60.3315 67.3542 60.333 67.3546 60.3345C67.6952 61.6532 67.5247 62.8374 66.9723 62.9805C66.8228 63.0191 66.6601 62.9778 66.4964 62.8703C66.3688 62.7863 66.2403 62.6628 66.1161 62.5062C65.9344 62.2777 65.7619 61.9785 65.6143 61.6301C65.518 61.4021 65.4321 61.1528 65.3619 60.8882C65.3581 60.8751 65.3547 60.862 65.3513 60.849C65.0089 59.5289 65.1798 58.3421 65.7324 58.1987Z" fill="#C2C2C2"/>
            <path d="M65.7324 58.1987C65.8884 58.1581 66.0587 58.2056 66.2297 58.3239C66.3563 58.4111 66.4837 58.5376 66.6071 58.6965C66.7877 58.9297 66.9589 59.2326 67.105 59.5841C67.2003 59.8141 67.2844 60.0645 67.3533 60.33C67.3538 60.3315 67.3542 60.333 67.3546 60.3345C67.6952 61.6532 67.5247 62.8374 66.9723 62.9805C66.8228 63.0191 66.6601 62.9778 66.4964 62.8703C66.3688 62.7863 66.2403 62.6628 66.1161 62.5062C65.9344 62.2777 65.7619 61.9785 65.6143 61.6301C65.518 61.4021 65.4321 61.1528 65.3619 60.8882C65.3581 60.8751 65.3547 60.862 65.3513 60.849C65.0089 59.5289 65.1798 58.3421 65.7324 58.1987Z" fill="#C2C2C2"/>
            <path d="M65.7324 58.1987C65.8884 58.1581 66.0587 58.2056 66.2297 58.3239C66.3563 58.4111 66.4837 58.5376 66.6071 58.6965C66.7877 58.9297 66.9589 59.2326 67.105 59.5841C67.2003 59.8141 67.2844 60.0645 67.3533 60.33C67.3538 60.3315 67.3542 60.333 67.3546 60.3345C67.6952 61.6532 67.5247 62.8374 66.9723 62.9805C66.8228 63.0191 66.6601 62.9778 66.4964 62.8703C66.3688 62.7863 66.2403 62.6628 66.1161 62.5062C65.9344 62.2777 65.7619 61.9785 65.6143 61.6301C65.518 61.4021 65.4321 61.1528 65.3619 60.8882C65.3581 60.8751 65.3547 60.862 65.3513 60.849C65.0089 59.5289 65.1798 58.3421 65.7324 58.1987Z" fill="#C2C2C2"/>
            <path d="M65.7019 58.3089C65.8276 58.2629 65.9665 58.2933 66.1074 58.3859C66.2117 58.4541 66.3175 58.5567 66.4207 58.6881C66.5716 58.881 66.7163 59.1357 66.8417 59.4347C66.9235 59.6304 66.9966 59.8449 67.0577 60.0735C67.0581 60.0748 67.0584 60.0762 67.0588 60.0774C67.3609 61.2132 67.2461 62.2649 66.8013 62.4273C66.6809 62.4712 66.5483 62.4457 66.4135 62.3621C66.3083 62.2969 66.2018 62.1969 66.0981 62.0676C65.9462 61.879 65.8006 61.6276 65.6741 61.3313C65.5915 61.1374 65.5169 60.9241 65.4548 60.6964C65.4515 60.6851 65.4485 60.6738 65.4455 60.6626C65.1419 59.5256 65.2569 58.4717 65.7019 58.3089Z" fill="#C2C2C2"/>
            <path d="M65.7019 58.3089C65.8276 58.2629 65.9665 58.2933 66.1074 58.3859C66.2117 58.4541 66.3175 58.5567 66.4207 58.6881C66.5716 58.881 66.7163 59.1357 66.8417 59.4347C66.9235 59.6304 66.9966 59.8449 67.0577 60.0735C67.0581 60.0748 67.0584 60.0762 67.0588 60.0774C67.3609 61.2132 67.2461 62.2649 66.8013 62.4273C66.6809 62.4712 66.5483 62.4457 66.4135 62.3621C66.3083 62.2969 66.2018 62.1969 66.0981 62.0676C65.9462 61.879 65.8006 61.6276 65.6741 61.3313C65.5915 61.1374 65.5169 60.9241 65.4548 60.6964C65.4515 60.6851 65.4485 60.6738 65.4455 60.6626C65.1419 59.5256 65.2569 58.4717 65.7019 58.3089Z" fill="#C2C2C2"/>
            <path d="M65.7019 58.3089C65.8276 58.2629 65.9665 58.2933 66.1074 58.3859C66.2117 58.4541 66.3175 58.5567 66.4207 58.6881C66.5716 58.881 66.7163 59.1357 66.8417 59.4347C66.9235 59.6304 66.9966 59.8449 67.0577 60.0735C67.0581 60.0748 67.0584 60.0762 67.0588 60.0774C67.3609 61.2132 67.2461 62.2649 66.8013 62.4273C66.6809 62.4712 66.5483 62.4457 66.4135 62.3621C66.3083 62.2969 66.2018 62.1969 66.0981 62.0676C65.9462 61.879 65.8006 61.6276 65.6741 61.3313C65.5915 61.1374 65.5169 60.9241 65.4548 60.6964C65.4515 60.6851 65.4485 60.6738 65.4455 60.6626C65.1419 59.5256 65.2569 58.4717 65.7019 58.3089Z" fill="#EBEBEB"/>
            <path d="M86.3087 56.7826C86.3904 56.6436 86.5444 56.5569 86.7489 56.5196C86.9001 56.4918 87.0797 56.4911 87.2793 56.5163C87.5719 56.5535 87.9071 56.6466 88.259 56.792C88.4889 56.8873 88.7255 57.0049 88.962 57.1439C88.9633 57.1447 88.9647 57.1455 88.966 57.1462C90.1392 57.838 90.8558 58.796 90.5664 59.2877C90.4879 59.4208 90.3437 59.5066 90.1519 59.5463C90.0022 59.5772 89.824 59.5805 89.6256 59.5577C89.3354 59.5246 89.002 59.4349 88.6513 59.2929C88.4219 59.1997 88.1849 59.0841 87.9483 58.9467C87.9362 58.94 87.9246 58.9332 87.913 58.9263C86.7375 58.2349 86.0193 57.2747 86.3087 56.7826Z" fill="#C2C2C2"/>
            <path d="M86.3087 56.7826C86.3904 56.6436 86.5444 56.5569 86.7489 56.5196C86.9001 56.4918 87.0797 56.4911 87.2793 56.5163C87.5719 56.5535 87.9071 56.6466 88.259 56.792C88.4889 56.8873 88.7255 57.0049 88.962 57.1439C88.9633 57.1447 88.9647 57.1455 88.966 57.1462C90.1392 57.838 90.8558 58.796 90.5664 59.2877C90.4879 59.4208 90.3437 59.5066 90.1519 59.5463C90.0022 59.5772 89.824 59.5805 89.6256 59.5577C89.3354 59.5246 89.002 59.4349 88.6513 59.2929C88.4219 59.1997 88.1849 59.0841 87.9483 58.9467C87.9362 58.94 87.9246 58.9332 87.913 58.9263C86.7375 58.2349 86.0193 57.2747 86.3087 56.7826Z" fill="#C2C2C2"/>
            <path d="M86.3087 56.7826C86.3904 56.6436 86.5444 56.5569 86.7489 56.5196C86.9001 56.4918 87.0797 56.4911 87.2793 56.5163C87.5719 56.5535 87.9071 56.6466 88.259 56.792C88.4889 56.8873 88.7255 57.0049 88.962 57.1439C88.9633 57.1447 88.9647 57.1455 88.966 57.1462C90.1392 57.838 90.8558 58.796 90.5664 59.2877C90.4879 59.4208 90.3437 59.5066 90.1519 59.5463C90.0022 59.5772 89.824 59.5805 89.6256 59.5577C89.3354 59.5246 89.002 59.4349 88.6513 59.2929C88.4219 59.1997 88.1849 59.0841 87.9483 58.9467C87.9362 58.94 87.9246 58.9332 87.913 58.9263C86.7375 58.2349 86.0193 57.2747 86.3087 56.7826Z" fill="#C2C2C2"/>
            <path d="M86.1641 57.3504C86.19 57.2191 86.2882 57.1162 86.4404 57.0438C86.5529 56.99 86.6955 56.9529 86.8614 56.933C87.1046 56.9041 87.3974 56.9126 87.7182 56.9608C87.9278 56.9925 88.1491 57.0413 88.3762 57.1078C88.3775 57.1081 88.3788 57.1085 88.3801 57.1089C89.5077 57.4404 90.3469 58.0845 90.2548 58.549C90.2298 58.6747 90.1391 58.7748 89.9977 58.8466C89.8874 58.9026 89.7466 58.9417 89.5823 58.9633C89.3422 58.995 89.0517 58.9891 88.7328 58.9434C88.5242 58.9132 88.3032 58.8663 88.0763 58.8011C88.0649 58.7981 88.0538 58.7948 88.0426 58.7915C86.9133 58.4607 86.0722 57.8152 86.1641 57.3504Z" fill="#C2C2C2"/>
            <path d="M86.1641 57.3504C86.19 57.2191 86.2882 57.1162 86.4404 57.0438C86.5529 56.99 86.6955 56.9529 86.8614 56.933C87.1046 56.9041 87.3974 56.9126 87.7182 56.9608C87.9278 56.9925 88.1491 57.0413 88.3762 57.1078C88.3775 57.1081 88.3788 57.1085 88.3801 57.1089C89.5077 57.4404 90.3469 58.0845 90.2548 58.549C90.2298 58.6747 90.1391 58.7748 89.9977 58.8466C89.8874 58.9026 89.7466 58.9417 89.5823 58.9633C89.3422 58.995 89.0517 58.9891 88.7328 58.9434C88.5242 58.9132 88.3032 58.8663 88.0763 58.8011C88.0649 58.7981 88.0538 58.7948 88.0426 58.7915C86.9133 58.4607 86.0722 57.8152 86.1641 57.3504Z" fill="#C2C2C2"/>
            <path d="M86.1641 57.3504C86.19 57.2191 86.2882 57.1162 86.4404 57.0438C86.5529 56.99 86.6955 56.9529 86.8614 56.933C87.1046 56.9041 87.3974 56.9126 87.7182 56.9608C87.9278 56.9925 88.1491 57.0413 88.3762 57.1078C88.3775 57.1081 88.3788 57.1085 88.3801 57.1089C89.5077 57.4404 90.3469 58.0845 90.2548 58.549C90.2298 58.6747 90.1391 58.7748 89.9977 58.8466C89.8874 58.9026 89.7466 58.9417 89.5823 58.9633C89.3422 58.995 89.0517 58.9891 88.7328 58.9434C88.5242 58.9132 88.3032 58.8663 88.0763 58.8011C88.0649 58.7981 88.0538 58.7948 88.0426 58.7915C86.9133 58.4607 86.0722 57.8152 86.1641 57.3504Z" fill="#F3F2F2"/>
            <path d="M77.8401 53.127C77.7062 52.9807 77.6599 52.7683 77.69 52.5145C77.7119 52.3267 77.776 52.1153 77.8777 51.8898C78.0272 51.5593 78.2578 51.1989 78.5557 50.8378C78.7509 50.6019 78.9747 50.3663 79.2235 50.1386C79.2248 50.1372 79.2263 50.136 79.2277 50.1346C80.4647 49.0055 81.8498 48.5092 82.3232 49.0272C82.4514 49.1673 82.5 49.3679 82.4774 49.6077C82.4596 49.7948 82.3993 50.0055 82.3007 50.2305C82.1569 50.5597 81.931 50.9192 81.6373 51.2802C81.4449 51.5161 81.2235 51.753 80.9764 51.9816C80.9643 51.9933 80.952 52.0045 80.9397 52.0156C79.7022 53.1476 78.3141 53.645 77.8401 53.127Z" fill="#C2C2C2"/>
            <path d="M77.8401 53.127C77.7062 52.9807 77.6599 52.7683 77.69 52.5145C77.7119 52.3267 77.776 52.1153 77.8777 51.8898C78.0272 51.5593 78.2578 51.1989 78.5557 50.8378C78.7509 50.6019 78.9747 50.3663 79.2235 50.1386C79.2248 50.1372 79.2263 50.136 79.2277 50.1346C80.4647 49.0055 81.8498 48.5092 82.3232 49.0272C82.4514 49.1673 82.5 49.3679 82.4774 49.6077C82.4596 49.7948 82.3993 50.0055 82.3007 50.2305C82.1569 50.5597 81.931 50.9192 81.6373 51.2802C81.4449 51.5161 81.2235 51.753 80.9764 51.9816C80.9643 51.9933 80.952 52.0045 80.9397 52.0156C79.7022 53.1476 78.3141 53.645 77.8401 53.127Z" fill="#C2C2C2"/>
            <path d="M77.8401 53.127C77.7062 52.9807 77.6599 52.7683 77.69 52.5145C77.7119 52.3267 77.776 52.1153 77.8777 51.8898C78.0272 51.5593 78.2578 51.1989 78.5557 50.8378C78.7509 50.6019 78.9747 50.3663 79.2235 50.1386C79.2248 50.1372 79.2263 50.136 79.2277 50.1346C80.4647 49.0055 81.8498 48.5092 82.3232 49.0272C82.4514 49.1673 82.5 49.3679 82.4774 49.6077C82.4596 49.7948 82.3993 50.0055 82.3007 50.2305C82.1569 50.5597 81.931 50.9192 81.6373 51.2802C81.4449 51.5161 81.2235 51.753 80.9764 51.9816C80.9643 51.9933 80.952 52.0045 80.9397 52.0156C79.7022 53.1476 78.3141 53.645 77.8401 53.127Z" fill="#C2C2C2"/>
            <path d="M78.4614 53.0064C78.3302 52.907 78.2692 52.7432 78.271 52.5359C78.2722 52.3826 78.3078 52.2049 78.3751 52.0107C78.4741 51.7263 78.641 51.407 78.8669 51.0783C79.0149 50.8635 79.188 50.6452 79.3837 50.4298C79.3847 50.4285 79.3859 50.4273 79.3869 50.4261C80.3604 49.3576 81.5242 48.7762 81.9883 49.1281C82.1139 49.2234 82.1758 49.3775 82.1791 49.5725C82.1816 49.7247 82.1491 49.9015 82.0845 50.0947C81.9904 50.3773 81.8275 50.6953 81.6053 51.0233C81.4598 51.2378 81.2889 51.4568 81.0947 51.6727C81.0852 51.6837 81.0756 51.6942 81.066 51.7048C80.0923 52.7756 78.9259 53.3582 78.4614 53.0064Z" fill="#C2C2C2"/>
            <path d="M78.4614 53.0064C78.3302 52.907 78.2692 52.7432 78.271 52.5359C78.2722 52.3826 78.3078 52.2049 78.3751 52.0107C78.4741 51.7263 78.641 51.407 78.8669 51.0783C79.0149 50.8635 79.188 50.6452 79.3837 50.4298C79.3847 50.4285 79.3859 50.4273 79.3869 50.4261C80.3604 49.3576 81.5242 48.7762 81.9883 49.1281C82.1139 49.2234 82.1758 49.3775 82.1791 49.5725C82.1816 49.7247 82.1491 49.9015 82.0845 50.0947C81.9904 50.3773 81.8275 50.6953 81.6053 51.0233C81.4598 51.2378 81.2889 51.4568 81.0947 51.6727C81.0852 51.6837 81.0756 51.6942 81.066 51.7048C80.0923 52.7756 78.9259 53.3582 78.4614 53.0064Z" fill="#C2C2C2"/>
            <path d="M78.4614 53.0064C78.3302 52.907 78.2692 52.7432 78.271 52.5359C78.2722 52.3826 78.3078 52.2049 78.3751 52.0107C78.4741 51.7263 78.641 51.407 78.8669 51.0783C79.0149 50.8635 79.188 50.6452 79.3837 50.4298C79.3847 50.4285 79.3859 50.4273 79.3869 50.4261C80.3604 49.3576 81.5242 48.7762 81.9883 49.1281C82.1139 49.2234 82.1758 49.3775 82.1791 49.5725C82.1816 49.7247 82.1491 49.9015 82.0845 50.0947C81.9904 50.3773 81.8275 50.6953 81.6053 51.0233C81.4598 51.2378 81.2889 51.4568 81.0947 51.6727C81.0852 51.6837 81.0756 51.6942 81.066 51.7048C80.0923 52.7756 78.9259 53.3582 78.4614 53.0064Z" fill="#F3F2F2"/>
            <path d="M84.4193 65.0005C84.26 65.1188 84.1743 65.3185 84.1558 65.5736C84.1419 65.7621 84.1648 65.9818 84.222 66.2225C84.3062 66.5753 84.4644 66.9729 84.6886 67.3839C84.8356 67.6524 85.0106 67.9261 85.2119 68.1968C85.2129 68.1984 85.2141 68.1999 85.2153 68.2015C86.2162 69.5444 87.4823 70.2939 88.0452 69.875C88.1976 69.7615 88.2833 69.5738 88.3065 69.334C88.3244 69.147 88.3051 68.9287 88.2509 68.689C88.172 68.3386 88.0183 67.9428 87.7983 67.5328C87.654 67.2647 87.4814 66.9902 87.282 66.719C87.2723 66.7052 87.2624 66.6919 87.2525 66.6786C86.2515 65.3328 84.9827 64.5817 84.4193 65.0005Z" fill="#C2C2C2"/>
            <path d="M84.4193 65.0005C84.26 65.1188 84.1743 65.3185 84.1558 65.5736C84.1419 65.7621 84.1648 65.9818 84.222 66.2225C84.3062 66.5753 84.4644 66.9729 84.6886 67.3839C84.8356 67.6524 85.0106 67.9261 85.2119 68.1968C85.2129 68.1984 85.2141 68.1999 85.2153 68.2015C86.2162 69.5444 87.4823 70.2939 88.0452 69.875C88.1976 69.7615 88.2833 69.5738 88.3065 69.334C88.3244 69.147 88.3051 68.9287 88.2509 68.689C88.172 68.3386 88.0183 67.9428 87.7983 67.5328C87.654 67.2647 87.4814 66.9902 87.282 66.719C87.2723 66.7052 87.2624 66.6919 87.2525 66.6786C86.2515 65.3328 84.9827 64.5817 84.4193 65.0005Z" fill="#C2C2C2"/>
            <path d="M84.4193 65.0005C84.26 65.1188 84.1743 65.3185 84.1558 65.5736C84.1419 65.7621 84.1648 65.9818 84.222 66.2225C84.3062 66.5753 84.4644 66.9729 84.6886 67.3839C84.8356 67.6524 85.0106 67.9261 85.2119 68.1968C85.2129 68.1984 85.2141 68.1999 85.2153 68.2015C86.2162 69.5444 87.4823 70.2939 88.0452 69.875C88.1976 69.7615 88.2833 69.5738 88.3065 69.334C88.3244 69.147 88.3051 68.9287 88.2509 68.689C88.172 68.3386 88.0183 67.9428 87.7983 67.5328C87.654 67.2647 87.4814 66.9902 87.282 66.719C87.2723 66.7052 87.2624 66.6919 87.2525 66.6786C86.2515 65.3328 84.9827 64.5817 84.4193 65.0005Z" fill="#C2C2C2"/>
            <path d="M85.0065 65.2365C84.8588 65.3092 84.7679 65.4586 84.7306 65.6625C84.7026 65.8132 84.704 65.9944 84.7333 66.1978C84.7767 66.4959 84.8802 66.841 85.0398 67.2065C85.1444 67.4454 85.2729 67.6926 85.4244 67.9412C85.4252 67.9426 85.4261 67.944 85.4269 67.9454C86.1805 69.1788 87.2132 69.97 87.7356 69.7123C87.8769 69.6426 87.9668 69.5029 88.007 69.3121C88.0382 69.1631 88.0398 68.9834 88.013 68.7814C87.9741 68.4861 87.8743 68.1431 87.7183 67.7789C87.6159 67.5408 87.4896 67.2933 87.3398 67.0446C87.3325 67.032 87.3251 67.0198 87.3176 67.0076C86.5643 65.7719 85.5293 64.979 85.0065 65.2365Z" fill="#C2C2C2"/>
            <path d="M85.0065 65.2365C84.8588 65.3092 84.7679 65.4586 84.7306 65.6625C84.7026 65.8132 84.704 65.9944 84.7333 66.1978C84.7767 66.4959 84.8802 66.841 85.0398 67.2065C85.1444 67.4454 85.2729 67.6926 85.4244 67.9412C85.4252 67.9426 85.4261 67.944 85.4269 67.9454C86.1805 69.1788 87.2132 69.97 87.7356 69.7123C87.8769 69.6426 87.9668 69.5029 88.007 69.3121C88.0382 69.1631 88.0398 68.9834 88.013 68.7814C87.9741 68.4861 87.8743 68.1431 87.7183 67.7789C87.6159 67.5408 87.4896 67.2933 87.3398 67.0446C87.3325 67.032 87.3251 67.0198 87.3176 67.0076C86.5643 65.7719 85.5293 64.979 85.0065 65.2365Z" fill="#C2C2C2"/>
            <path d="M85.0065 65.2365C84.8588 65.3092 84.7679 65.4586 84.7306 65.6625C84.7026 65.8132 84.704 65.9944 84.7333 66.1978C84.7767 66.4959 84.8802 66.841 85.0398 67.2065C85.1444 67.4454 85.2729 67.6926 85.4244 67.9412C85.4252 67.9426 85.4261 67.944 85.4269 67.9454C86.1805 69.1788 87.2132 69.97 87.7356 69.7123C87.8769 69.6426 87.9668 69.5029 88.007 69.3121C88.0382 69.1631 88.0398 68.9834 88.013 68.7814C87.9741 68.4861 87.8743 68.1431 87.7183 67.7789C87.6159 67.5408 87.4896 67.2933 87.3398 67.0446C87.3325 67.032 87.3251 67.0198 87.3176 67.0076C86.5643 65.7719 85.5293 64.979 85.0065 65.2365Z" fill="#F3F2F2"/>
            <path d="M86.1459 56.7522L80.9047 53.8497C77.7206 52.0864 74.4469 51.9074 73.5927 53.4498L72.468 55.4808C71.6139 57.0233 73.5027 59.703 76.6868 61.4663L81.928 64.3688C85.1121 66.1321 84.2251 68.0225 85.0792 66.4801L87.4671 61.1331C86.9179 58.5401 86.9374 58.337 86.1459 56.7522Z" fill="#802742"/>
            <path d="M79.921 64.3399L75.7566 62.0338C73.2267 60.6328 70.6673 60.4153 70.0401 61.548L69.214 63.0396C68.5867 64.1724 70.1291 66.2264 72.659 67.6274L76.8234 69.9335C79.7396 70.6885 80.0804 70.5907 81.6077 69.903L83.366 68.9277C83.9933 67.7949 82.4509 65.7409 79.921 64.3399Z" fill="#90AC00"/>
            <path d="M79.4659 60.4335L76.183 58.6156C73.334 57.0379 70.2616 57.1362 69.3207 58.8354L68.6556 60.0363C67.7147 61.7354 68.6876 65.4283 71.5366 67.006L74.8194 68.824C77.6684 70.4017 80.7408 70.3034 81.6818 68.6042L82.9208 66.3668C83.8617 64.6677 82.3149 62.0113 79.4659 60.4335Z" fill="#A4C400"/>
            <path d="M82.5939 54.785L79.3111 52.9671C76.4621 51.3894 72.6957 52.7408 71.6318 54.662L70.825 56.1189C69.7611 58.0401 71.2082 60.8765 74.0573 62.4543L77.3401 64.2722C80.1891 65.85 82.7863 66.6098 83.8502 64.6886L85.8262 61.1204C86.8901 59.1992 85.443 56.3628 82.5939 54.785Z" fill="#BB3960"/>
            <path d="M83.9466 66.5289C83.6621 65.0011 82.3576 61.7503 80.627 60.792C79.6553 60.3413 79.314 60.2748 78.785 59.343C78.231 58.3859 77.6713 57.721 76.8766 56.9526C76.2819 56.3193 75.5525 55.8281 74.7422 55.5151C75.0259 55.7295 75.2943 55.9635 75.5454 56.2154C76.3402 56.9838 77.0244 57.859 77.5783 58.816C78.1075 59.7478 78.9141 60.4909 79.8859 60.9415C81.6165 61.8999 82.3309 64.2639 82.6154 65.7917C82.7048 66.2567 82.7659 66.7269 82.7984 67.1994C81.0871 67.2869 79.2666 66.7607 77.6821 66.1098C80.4112 68.002 84.1296 67.9365 84.1296 67.9365C84.0971 67.464 84.036 66.9939 83.9466 66.5289Z" fill="#DFC49C"/>
            <path d="M83.4747 55.099C84.0174 55.6274 83.9755 55.0233 84.3565 55.5873C84.5833 57.1214 84.8554 59.5783 84.5258 60.5379C84.2745 61.2702 83.6002 62.8172 83.3064 63.2768C82.9805 63.278 82.7796 62.5423 82.4185 62.4627C82.7335 62.0364 83.3668 61.1017 83.6686 60.2052C84.2252 58.5511 84.1595 56.8392 83.4747 55.099Z" fill="#8A1136"/>
            <path d="M77.8579 52.4647C78.2508 52.4274 78.6801 52.4568 79.1348 52.5497C79.1356 52.5504 79.1356 52.5504 79.1356 52.5504C80.5078 54.2739 81.6766 56.4536 81.8055 58.9603C81.868 60.1735 81.8124 60.8972 81.6113 61.55C81.3339 61.4303 81.1244 61.2827 80.8436 61.1248C81.006 60.547 80.9418 59.9727 80.882 58.9532C80.7539 56.7721 79.7173 54.5557 77.8579 52.4647Z" fill="#8A1136"/>
            <path d="M76.159 51.9911C76.3186 51.8163 76.5176 51.9694 76.7305 51.8605C78.0474 54.4441 77.8354 56.7082 77.6269 57.913C77.326 57.5719 77.055 57.2236 76.8179 56.873L76.8171 56.8723C76.9029 55.6913 76.8212 53.9516 75.9961 52.197C76.0457 52.1248 76.0999 52.0557 76.159 51.9911Z" fill="#C12038"/>
            <path d="M84.2725 55.084L79.5929 52.4925C76.4911 50.7792 72.5876 51.9002 70.8676 54.9983L68.7944 58.742C67.0811 61.8439 68.2021 65.7472 71.3002 67.4673L75.9798 70.0588C79.0817 71.7721 82.9851 70.6511 84.7052 67.553L86.7783 63.8093C88.4917 60.7075 87.3706 56.8041 84.2725 55.084ZM76.2764 69.5232L71.5968 66.9317C69.4647 65.7459 67.932 62.8959 69.0906 59.7038C70.6823 61.5526 73.4623 62.6142 74.3291 63.5721C76.6877 66.179 80.1273 68.3343 83.1582 68.4615C81.6913 70.3088 78.3284 70.6561 76.2764 69.5232ZM75.5271 63.7576C74.6754 63.0115 74.8288 62.3462 73.2073 61.7159C71.5858 61.0856 69.7636 60.2055 69.5006 58.9635C69.5006 58.9635 71.1861 55.9199 71.8301 54.9509C72.9374 54.3101 74.9964 55.4503 75.8017 56.2546C78.4586 58.9079 78.257 59.5848 80.771 61.4069C82.9743 62.712 83.9671 65.5774 83.901 67.6379C81.8058 67.9275 79.3085 67.2612 77.413 65.8965L75.5271 63.7576ZM84.5923 66.3894C83.5566 63.6662 83.4123 62.7622 81.5258 61.2517C79.4407 59.5823 78.6915 58.9394 77.8445 57.6122C76.3484 55.2675 74.8859 54.3501 72.5262 54.0824C74.2433 52.0954 77.3671 52.0372 79.2649 53.0848L83.9445 55.6763C86.5263 57.1097 87.7208 60.7336 86.293 63.3184L84.5923 66.3894Z" fill="black"/>
            <path d="M83.1157 68.4737C83.1157 68.4737 79.3256 68.5246 75.1341 64.4478C74.0164 63.3607 74.0761 63.2528 72.8323 62.4924C71.3994 61.6164 70.6731 61.44 69.0571 59.6997L71.8788 54.7987C72.444 54.0368 72.3752 54.022 72.919 54.0849C73.7374 54.1529 75.2395 54.6344 76.4918 55.8843C77.3302 56.6942 78.0486 57.6382 78.6333 58.6467C79.493 59.5527 80.06 60.0816 81.0657 60.8536C82.8907 61.8642 84.2945 64.7097 84.5954 66.3194C84.371 66.9834 83.791 68.0954 83.1157 68.4737Z" fill="#FFE0B2"/>
            <path d="M69.4102 85.4873C68.5341 85.4873 67.8131 85.2855 67.2471 84.8819L67.6596 83.9158C68.1136 84.2554 68.6572 84.4252 69.2903 84.4252C69.5045 84.4252 69.6755 84.3884 69.8035 84.3147C69.9346 84.241 70.0001 84.1465 70.0001 84.0311C70.0001 83.9318 69.9506 83.8501 69.8514 83.786C69.7555 83.7187 69.6308 83.6659 69.4773 83.6274C69.3239 83.5889 69.1544 83.5505 68.9689 83.5121C68.7835 83.4704 68.598 83.4176 68.4125 83.3535C68.2272 83.2862 68.0577 83.2045 67.9042 83.1084C67.7507 83.009 67.6244 82.8712 67.5253 82.695C67.4294 82.5156 67.3798 82.3057 67.3766 82.0655C67.3702 81.6105 67.5493 81.2292 67.9138 80.9216C68.2783 80.614 68.7435 80.4602 69.3095 80.4602C70.0737 80.4602 70.686 80.6444 71.1464 81.0129L70.7532 82.0173C70.5612 81.8731 70.3262 81.753 70.0481 81.6569C69.7732 81.5608 69.5077 81.5127 69.2519 81.5127C69.0761 81.5127 68.9338 81.5496 68.8251 81.6233C68.7163 81.6969 68.662 81.7883 68.662 81.8972C68.662 81.9805 68.7004 82.0542 68.7771 82.1183C68.8539 82.1791 68.953 82.2288 69.0745 82.2673C69.1992 82.3057 69.3399 82.349 69.4966 82.397C69.6564 82.4419 69.8178 82.4867 69.981 82.5317C70.1441 82.5765 70.3039 82.6389 70.4606 82.719C70.6204 82.7992 70.7628 82.8905 70.8875 82.993C71.0122 83.0923 71.1129 83.2237 71.1896 83.3871C71.2695 83.5505 71.3111 83.7364 71.3143 83.9446C71.3143 84.3932 71.1352 84.7632 70.7771 85.0548C70.4222 85.3432 69.9665 85.4873 69.4102 85.4873ZM75.2616 80.5563H76.6477V85.3912H75.2616V84.8194C75.1241 85.0243 74.9371 85.1878 74.7004 85.3096C74.467 85.4281 74.2161 85.4873 73.9474 85.4873C73.3368 85.4873 72.8555 85.2919 72.5038 84.901C72.1552 84.5101 71.981 83.9718 71.981 83.2862V80.5563H73.3671V83.0602C73.3671 83.3903 73.4502 83.6467 73.6165 83.8292C73.786 84.0119 74.0145 84.1032 74.3024 84.1032C74.491 84.1032 74.6717 84.0551 74.8443 83.959C75.0202 83.8597 75.1592 83.7268 75.2616 83.5601V80.5563ZM79.5303 85.4873C78.6541 85.4873 77.9331 85.2855 77.3671 84.8819L77.7797 83.9158C78.2336 84.2554 78.7773 84.4252 79.4103 84.4252C79.6246 84.4252 79.7956 84.3884 79.9235 84.3147C80.0546 84.241 80.1202 84.1465 80.1202 84.0311C80.1202 83.9318 80.0706 83.8501 79.9715 83.786C79.8755 83.7187 79.7508 83.6659 79.5974 83.6274C79.4439 83.5889 79.2745 83.5505 79.089 83.5121C78.9035 83.4704 78.7181 83.4176 78.5326 83.3535C78.3472 83.2862 78.1777 83.2045 78.0242 83.1084C77.8708 83.009 77.7444 82.8712 77.6453 82.695C77.5494 82.5156 77.4998 82.3057 77.4966 82.0655C77.4902 81.6105 77.6693 81.2292 78.0338 80.9216C78.3983 80.614 78.8636 80.4602 79.4295 80.4602C80.1937 80.4602 80.8061 80.6444 81.2665 81.0129L80.8732 82.0173C80.6813 81.8731 80.4463 81.753 80.1682 81.6569C79.8932 81.5608 79.6278 81.5127 79.372 81.5127C79.1961 81.5127 79.0538 81.5496 78.9451 81.6233C78.8364 81.6969 78.782 81.7883 78.782 81.8972C78.782 81.9805 78.8204 82.0542 78.8972 82.1183C78.9739 82.1791 79.073 82.2288 79.1946 82.2673C79.3193 82.3057 79.4599 82.349 79.6166 82.397C79.7765 82.4419 79.9379 82.4867 80.101 82.5317C80.2641 82.5765 80.424 82.6389 80.5806 82.719C80.7405 82.7992 80.8828 82.8905 81.0075 82.993C81.1322 83.0923 81.2329 83.2237 81.3097 83.3871C81.3896 83.5505 81.4312 83.7364 81.4344 83.9446C81.4344 84.3932 81.2553 84.7632 80.8972 85.0548C80.5423 85.3432 80.0866 85.4873 79.5303 85.4873ZM84.8733 80.4602C85.4807 80.4602 85.9588 80.6572 86.3073 81.0513C86.659 81.4422 86.8349 81.9773 86.8349 82.6566V85.3912H85.4487V82.8921C85.4487 82.562 85.3656 82.3042 85.1994 82.1183C85.0331 81.9324 84.8061 81.8395 84.5183 81.8395C84.3265 81.8395 84.1442 81.8892 83.9715 81.9886C83.8021 82.0847 83.6662 82.2144 83.5638 82.3778V85.3912H82.1778V78.4993H83.5638V81.1186C83.7014 80.9168 83.8869 80.7565 84.1202 80.638C84.3537 80.5194 84.6046 80.4602 84.8733 80.4602ZM87.9141 78.4656C88.0803 78.2991 88.2785 78.2157 88.5088 78.2157C88.739 78.2157 88.9372 78.2991 89.1035 78.4656C89.2697 78.6291 89.3529 78.8245 89.3529 79.052C89.3529 79.2827 89.2697 79.4813 89.1035 79.648C88.9372 79.8146 88.739 79.8979 88.5088 79.8979C88.2785 79.8979 88.0803 79.8146 87.9141 79.648C87.7478 79.4813 87.6647 79.2827 87.6647 79.052C87.6647 78.8245 87.7478 78.6291 87.9141 78.4656ZM87.8181 80.5563H89.2042V85.3912H87.8181V80.5563Z" fill="black"/>
            <path d="M37.2781 80.4614C37.6914 80.4614 38.0695 80.5737 38.4123 80.798C38.7584 81.0192 39.0291 81.3222 39.2245 81.7069C39.4231 82.0916 39.5224 82.5132 39.5224 82.9717C39.5224 83.4301 39.4231 83.8532 39.2245 84.2411C39.0291 84.6258 38.7584 84.9304 38.4123 85.1549C38.0695 85.3793 37.6914 85.4914 37.2781 85.4914C36.9737 85.4914 36.6886 85.4305 36.4227 85.3087C36.16 85.1836 35.9693 85.0218 35.8508 84.823V86.9918H34.4619V80.5576H35.8508V81.1299C35.9693 80.9311 36.16 80.7708 36.4227 80.649C36.6886 80.5239 36.9737 80.4614 37.2781 80.4614ZM36.9754 84.1738C37.3118 84.1738 37.5937 84.06 37.8212 83.8324C38.0487 83.6015 38.1624 83.3147 38.1624 82.9717C38.1624 82.6318 38.0471 82.3465 37.8164 82.1157C37.5889 81.8849 37.3086 81.7695 36.9754 81.7695C36.7415 81.7695 36.522 81.8271 36.317 81.9425C36.1119 82.0547 35.9565 82.2006 35.8508 82.3802V83.5631C35.9565 83.7458 36.1103 83.8933 36.3122 84.0056C36.514 84.1178 36.7351 84.1738 36.9754 84.1738ZM40.3923 78.4658C40.5589 78.2991 40.7576 78.2157 40.9883 78.2157C41.2189 78.2157 41.4176 78.2991 41.5841 78.4658C41.7508 78.6293 41.8341 78.8248 41.8341 79.0524C41.8341 79.2832 41.7508 79.482 41.5841 79.6488C41.4176 79.8155 41.2189 79.8988 40.9883 79.8988C40.7576 79.8988 40.5589 79.8155 40.3923 79.6488C40.2257 79.482 40.1425 79.2832 40.1425 79.0524C40.1425 78.8248 40.2257 78.6293 40.3923 78.4658ZM40.2962 80.5576H41.6851V85.3953H40.2962V80.5576ZM46.7649 80.5576V81.5434L44.4244 84.0681H46.7985V85.3953H42.406V84.4094L44.7608 81.88H42.5838V80.5576H46.7649ZM51.7245 80.5576V81.5434L49.3841 84.0681H51.7582V85.3953H47.3656V84.4094L49.7205 81.88H47.5434V80.5576H51.7245ZM55.9777 80.5576H57.3666V85.3953H55.9777V84.823C55.8591 85.0218 55.6669 85.1836 55.401 85.3087C55.1383 85.4305 54.8547 85.4914 54.5504 85.4914C54.1371 85.4914 53.7574 85.3793 53.4114 85.1549C53.0654 84.9304 52.7931 84.6258 52.5943 84.2411C52.3958 83.8532 52.2965 83.4301 52.2965 82.9717C52.2965 82.2728 52.5142 81.6796 52.95 81.1924C53.389 80.7051 53.9224 80.4614 54.5504 80.4614C54.8515 80.4614 55.135 80.5239 55.401 80.649C55.6669 80.774 55.8591 80.9343 55.9777 81.1299V80.5576ZM54.8579 84.1738C55.0918 84.1738 55.3097 84.1178 55.5115 84.0056C55.7166 83.8933 55.872 83.749 55.9777 83.5728V82.3898C55.872 82.207 55.7166 82.0579 55.5115 81.9425C55.3097 81.8271 55.0918 81.7695 54.8579 81.7695C54.5183 81.7695 54.2332 81.8849 54.0025 82.1157C53.7718 82.3433 53.6564 82.6286 53.6564 82.9717C53.6564 83.3147 53.7718 83.6015 54.0025 83.8324C54.2332 84.06 54.5183 84.1738 54.8579 84.1738Z" fill="black"/>
            <path d="M40.9174 64.1208H45.3839V67.653C45.3839 68.288 45.3521 68.8165 45.2931 69.2449C45.2376 69.6481 45.1347 70.0254 44.9857 70.3797C44.8734 70.6329 44.7216 70.798 44.5303 70.9113C44.3337 71.0278 44.0523 71.1108 43.6426 71.1108C43.2443 71.1108 42.9826 71.0051 42.7914 70.8452C42.5899 70.6765 42.3878 70.3805 42.2391 69.8679C42.1638 69.5991 42.0189 69.3097 41.7502 69.0894C41.4718 68.8611 41.146 68.7773 40.8431 68.7773H36.8047C36.4715 68.7773 36.027 68.8777 35.7253 69.2808C35.4498 69.6489 35.4442 70.0763 35.4808 70.3696L35.4829 70.3864L35.4857 70.403C35.8431 72.5877 36.7438 74.3627 38.2343 75.6483L38.2388 75.6522L38.2434 75.656C39.7515 76.9216 41.6405 77.5262 43.8408 77.5262C45.3652 77.5262 46.7166 77.2897 47.8656 76.78L47.8686 76.7787L47.8716 76.7773C49.0314 76.2525 49.9558 75.4936 50.6039 74.4898L50.6061 74.4865L50.6081 74.4832C51.2096 73.5336 51.6352 72.4877 51.8878 71.3522C51.9926 70.9102 52.1384 69.9795 52.1384 67.9935C52.1384 71.1108 53.4712 73.282 54.8682 74.6437L54.8711 74.6465L54.8741 74.6494C56.8727 76.5617 59.2801 77.5262 62.0505 77.5262C64.806 77.5262 67.2048 76.5605 69.2021 74.6494L69.2036 74.6479L69.2052 74.6464C71.2047 72.715 72.2258 70.369 72.2258 67.653C72.2258 64.9375 71.2049 62.5987 69.2037 60.683C67.2071 58.7552 64.8078 57.7799 62.0505 57.7799C59.2776 57.7799 56.8692 58.7545 54.8713 60.6843C53.6148 61.8975 52.202 64.2698 52.1384 67.9935L52.2819 59.585C52.2819 59.1964 52.15 58.8125 51.8494 58.5113C51.5486 58.2099 51.1655 58.0778 50.7777 58.0778H40.9174C40.5296 58.0778 40.1465 58.2099 39.8458 58.5113C39.5451 58.8126 39.4132 59.1965 39.4132 59.585V62.6136C39.4132 63.0022 39.5451 63.3861 39.8458 63.6874C40.1465 63.9887 40.5296 64.1208 40.9174 64.1208ZM64.5041 65.0346L64.507 65.0378L64.51 65.0408C65.2077 65.7668 65.5508 66.6211 65.5508 67.653C65.5508 68.705 65.2054 69.5665 64.51 70.2901C63.8128 71.0155 63.0085 71.359 62.0505 71.359C61.0736 71.359 60.2629 71.0137 59.5691 70.293C58.868 69.5489 58.5254 68.684 58.5254 67.653C58.5254 66.621 58.8685 65.7668 59.5662 65.0408C60.2607 64.3182 61.0722 63.9719 62.0505 63.9719C63.0282 63.9719 63.8282 64.3176 64.5041 65.0346ZM87.8018 60.2193L87.816 60.192L87.8284 60.1638C87.988 59.7981 88.1289 59.2224 87.7787 58.696C87.4678 58.2289 86.9764 58.0778 86.547 58.0778H82.5335C82.1516 58.0778 81.6227 58.1286 81.2322 58.471L81.2102 58.4904L81.1895 58.5111C80.9392 58.7618 80.7539 59.147 80.6074 59.5035C80.4833 59.7742 79.8826 61.1422 78.8119 63.5923L77.0118 59.5255C76.8767 59.1586 76.685 58.7408 76.3775 58.471L76.3773 58.4709C75.9921 58.1332 75.4799 58.0778 75.101 58.0778H71.0627C70.6716 58.0778 70.1858 58.1949 69.8594 58.6311C69.458 59.1672 69.6351 59.7793 69.7815 60.1143L69.7873 60.1279L69.7937 60.1412C69.9831 60.5381 71.8539 64.1231 75.3806 70.8507V75.7211C75.3806 76.1154 75.5258 76.4687 75.773 76.7518L75.7924 76.774L75.8132 76.7949C76.0966 77.0788 76.4628 77.2283 76.86 77.2283H80.7497C81.1376 77.2283 81.5205 77.0961 81.821 76.7951L81.8213 76.7949C82.1219 76.4935 82.2538 76.1097 82.2538 75.7211V70.8498L87.8018 60.2193Z" fill="white"/>
            <path d="M52.1384 67.9935C52.1384 69.9795 51.9926 70.9102 51.8878 71.3522C51.6352 72.4877 51.2096 73.5336 50.6081 74.4832L50.6061 74.4865L50.6039 74.4898C49.9558 75.4936 49.0314 76.2525 47.8716 76.7773L47.8686 76.7787L47.8656 76.78C46.7166 77.2897 45.3652 77.5262 43.8408 77.5262C41.6405 77.5262 39.7515 76.9216 38.2434 75.656L38.2388 75.6522L38.2343 75.6483C36.7438 74.3627 35.8431 72.5877 35.4857 70.403L35.4829 70.3864L35.4808 70.3696C35.4442 70.0763 35.4498 69.6489 35.7253 69.2808C36.027 68.8777 36.4715 68.7773 36.8047 68.7773H40.8431C41.146 68.7773 41.4718 68.8611 41.7502 69.0894C42.0189 69.3097 42.1638 69.5991 42.2391 69.8679C42.3878 70.3805 42.5899 70.6765 42.7914 70.8452C42.9826 71.0051 43.2443 71.1108 43.6426 71.1108C44.0523 71.1108 44.3337 71.0278 44.5303 70.9113C44.7216 70.798 44.8734 70.6329 44.9857 70.3797C45.1347 70.0254 45.2376 69.6481 45.2931 69.2449C45.3521 68.8165 45.3839 68.288 45.3839 67.653V64.1208H40.9174C40.5296 64.1208 40.1465 63.9887 39.8458 63.6874C39.5451 63.3861 39.4132 63.0022 39.4132 62.6136V59.585C39.4132 59.1965 39.5451 58.8126 39.8458 58.5113C40.1465 58.2099 40.5296 58.0778 40.9174 58.0778H50.7777C51.1655 58.0778 51.5486 58.2099 51.8494 58.5113C52.15 58.8125 52.2819 59.1964 52.2819 59.585L52.1384 67.9935ZM52.1384 67.9935C52.1384 71.1108 53.4712 73.282 54.8682 74.6437L54.8711 74.6465L54.8741 74.6494C56.8727 76.5617 59.2801 77.5262 62.0505 77.5262C64.806 77.5262 67.2048 76.5605 69.2021 74.6494L69.2036 74.6479L69.2052 74.6464C71.2047 72.715 72.2258 70.369 72.2258 67.653C72.2258 64.9375 71.2049 62.5987 69.2037 60.683C67.2071 58.7552 64.8078 57.7799 62.0505 57.7799C59.2776 57.7799 56.8692 58.7545 54.8713 60.6843C53.6148 61.8975 52.202 64.2698 52.1384 67.9935ZM64.5041 65.0346L64.507 65.0378L64.51 65.0408C65.2077 65.7668 65.5508 66.6211 65.5508 67.653C65.5508 68.705 65.2054 69.5665 64.51 70.2901C63.8128 71.0155 63.0085 71.359 62.0505 71.359C61.0736 71.359 60.2629 71.0137 59.5691 70.293C58.868 69.5489 58.5254 68.684 58.5254 67.653C58.5254 66.621 58.8685 65.7668 59.5662 65.0408C60.2607 64.3182 61.0722 63.9719 62.0505 63.9719C63.0282 63.9719 63.8282 64.3176 64.5041 65.0346ZM87.8018 60.2193L87.816 60.192L87.8284 60.1638C87.988 59.7981 88.1289 59.2224 87.7787 58.696C87.4678 58.2289 86.9764 58.0778 86.547 58.0778H82.5334C82.1516 58.0778 81.6227 58.1286 81.2322 58.471L81.2102 58.4904L81.1895 58.5111C80.9392 58.7618 80.7539 59.147 80.6074 59.5035C80.4833 59.7742 79.8826 61.1422 78.8119 63.5923L77.0118 59.5255C76.8767 59.1586 76.685 58.7408 76.3775 58.471L76.3773 58.4709C75.9921 58.1332 75.4799 58.0778 75.101 58.0778H71.0627C70.6716 58.0778 70.1858 58.1949 69.8594 58.6311C69.4581 59.1672 69.6351 59.7793 69.7815 60.1143L69.7873 60.1279L69.7937 60.1412C69.9831 60.5381 71.8539 64.1231 75.3806 70.8507V75.7211C75.3806 76.1154 75.5258 76.4687 75.773 76.7518L75.7924 76.774L75.8132 76.7949C76.0966 77.0788 76.4628 77.2283 76.86 77.2283H80.7497C81.1376 77.2283 81.5205 77.0961 81.821 76.7951L81.8213 76.7949C82.1219 76.4935 82.2538 76.1097 82.2538 75.7211V70.8498L87.8018 60.2193Z" stroke="black" stroke-width="1.64179"/>
            <path d="M65.2682 85.3868H64.1629L63.645 84.8355C63.207 85.2755 62.6607 85.4955 62.0063 85.4955C61.4858 85.4955 61.0529 85.3661 60.7077 85.1073C60.3212 84.8122 60.1279 84.3878 60.1279 83.8339C60.1279 83.0937 60.5144 82.5399 61.2874 82.1724C60.8906 81.6962 60.6922 81.2613 60.6922 80.868C60.6922 80.4383 60.8674 80.1019 61.2178 79.8586C61.5219 79.6464 61.88 79.5403 62.2922 79.5403C62.6684 79.5403 62.9905 79.6386 63.2585 79.8353C63.5574 80.0682 63.7068 80.3918 63.7068 80.8059C63.7068 81.1889 63.5883 81.5098 63.3513 81.7687C63.1863 81.955 62.9106 82.1517 62.5242 82.3587L63.645 83.6321C63.8563 83.249 63.9619 82.778 63.9619 82.2189H64.7426C64.7375 82.5606 64.6834 82.9151 64.5803 83.2827C64.4772 83.6502 64.3458 83.9504 64.1861 84.1834L65.2682 85.3868ZM61.7744 82.7314C61.2384 82.9902 60.9705 83.3422 60.9705 83.7874C60.9705 84.0824 61.0761 84.3153 61.2874 84.4861C61.4884 84.6569 61.7409 84.7424 62.0449 84.7424C62.4727 84.7424 62.8411 84.5871 63.1503 84.2765L61.7744 82.7314ZM62.0295 81.823C62.3077 81.6884 62.4932 81.5771 62.586 81.4891C62.7663 81.3235 62.8566 81.1294 62.8566 80.9068C62.8566 80.4927 62.6581 80.2856 62.2613 80.2856C62.0552 80.2856 61.8826 80.3426 61.7434 80.4564C61.6095 80.5651 61.5425 80.7153 61.5425 80.9068C61.5425 81.1708 61.7048 81.4762 62.0295 81.823Z" fill="black"/>
        </g>

    <g xmlns="http://www.w3.org/2000/svg" class="for-active">
        <path xmlns="http://www.w3.org/2000/svg" d="M26.195 6.71869C22.8864 6.71869 19.6101 7.37038 16.5533 8.63655C13.4965 9.90272 10.719 11.7586 8.37946 14.0981C6.03988 16.4377 4.18403 19.2152 2.91786 22.272C1.65169 25.3288 1 28.6051 1 31.9137C1 35.2224 1.65169 38.4987 2.91786 41.5555C4.18403 44.6123 6.03988 47.3897 8.37946 49.7293C10.719 52.0689 13.4965 53.9247 16.5533 55.1909C19.6101 56.4571 22.8864 57.1088 26.195 57.1088C29.5037 57.1088 32.78 56.4571 35.8368 55.1909C38.8936 53.9247 41.671 52.0689 44.0106 49.7293C46.3502 47.3897 48.2061 44.6123 49.4722 41.5555C50.7384 38.4987 51.3901 35.2224 51.3901 31.9137C51.3901 28.6051 50.7384 25.3288 49.4722 22.272C48.2061 19.2152 46.3502 16.4377 44.0106 14.0981C41.671 11.7586 38.8936 9.90272 35.8368 8.63655C32.78 7.37038 29.5037 6.71869 26.195 6.71869Z" fill="white"/>

        <path d="M26.1951 11.4427C20.7659 11.4427 15.559 13.5995 11.7199 17.4386C7.88088 21.2776 5.72412 26.4845 5.72412 31.9137C5.72412 37.343 7.88088 42.5498 11.7199 46.3889C15.559 50.2279 20.7659 52.3847 26.1951 52.3847C31.6243 52.3847 36.8312 50.2279 40.6702 46.3889C44.5093 42.5498 46.6661 37.343 46.6661 31.9137C46.6661 26.4845 44.5093 21.2776 40.6702 17.4386C36.8312 13.5995 31.6243 11.4427 26.1951 11.4427Z" fill="#4FD975"/>
        <path d="M26.195 6.71869C22.8864 6.71869 19.6101 7.37038 16.5533 8.63655C13.4965 9.90272 10.719 11.7586 8.37946 14.0981C6.03988 16.4377 4.18403 19.2152 2.91786 22.272C1.65169 25.3288 1 28.6051 1 31.9137C1 35.2224 1.65169 38.4987 2.91786 41.5555C4.18403 44.6123 6.03988 47.3897 8.37946 49.7293C10.719 52.0689 13.4965 53.9247 16.5533 55.1909C19.6101 56.4571 22.8864 57.1088 26.195 57.1088C29.5037 57.1088 32.78 56.4571 35.8368 55.1909C38.8936 53.9247 41.671 52.0689 44.0106 49.7293C46.3502 47.3897 48.2061 44.6123 49.4722 41.5555C50.7384 38.4987 51.3901 35.2224 51.3901 31.9137C51.3901 28.6051 50.7384 25.3288 49.4722 22.272C48.2061 19.2152 46.3502 16.4377 44.0106 14.0981C41.671 11.7586 38.8936 9.90272 35.8368 8.63655C32.78 7.37038 29.5037 6.71869 26.195 6.71869V6.71869Z" stroke="#65686A" stroke-miterlimit="10"/>
        <path xmlns="http://www.w3.org/2000/svg" d="M14.6472 34.5382L21.7596 40.837L37.7427 22.4656" stroke="white" stroke-width="3" stroke-miterlimit="10" stroke-linecap="round"/>
    </g>

</svg>