<svg width="44" height="44" viewBox="0 0 44 44" fill="none" xmlns="http://www.w3.org/2000/svg">
<path d="M22 1C19.2422 1 16.5115 1.54318 13.9636 2.59853C11.4158 3.65388 9.10079 5.20073 7.15076 7.15076C5.20073 9.10079 3.65388 11.4158 2.59853 13.9636C1.54318 16.5115 1 19.2422 1 22C1 24.7578 1.54318 27.4885 2.59853 30.0364C3.65388 32.5842 5.20073 34.8992 7.15076 36.8492C9.10079 38.7993 11.4158 40.3461 13.9636 41.4015C16.5115 42.4568 19.2422 43 22 43C24.7578 43 27.4885 42.4568 30.0364 41.4015C32.5842 40.3461 34.8992 38.7993 36.8492 36.8492C38.7993 34.8992 40.3461 32.5842 41.4015 30.0364C42.4568 27.4885 43 24.7578 43 22C43 19.2422 42.4568 16.5115 41.4015 13.9636C40.3461 11.4158 38.7993 9.10079 36.8492 7.15076C34.8992 5.20073 32.5842 3.65388 30.0364 2.59853C27.4885 1.54318 24.7578 1 22 1Z" fill="white"/>
<path d="M22 4.9375C17.4747 4.9375 13.1348 6.73515 9.93499 9.93499C6.73515 13.1348 4.9375 17.4747 4.9375 22C4.9375 26.5253 6.73515 30.8652 9.93499 34.065C13.1348 37.2648 17.4747 39.0625 22 39.0625C26.5253 39.0625 30.8652 37.2648 34.065 34.065C37.2648 30.8652 39.0625 26.5253 39.0625 22C39.0625 17.4747 37.2648 13.1348 34.065 9.93499C30.8652 6.73515 26.5253 4.9375 22 4.9375Z" fill="#4FD975"/>
<path d="M22 1C19.2422 1 16.5115 1.54318 13.9636 2.59853C11.4158 3.65388 9.10079 5.20073 7.15076 7.15076C5.20073 9.10079 3.65388 11.4158 2.59853 13.9636C1.54318 16.5115 1 19.2422 1 22C1 24.7578 1.54318 27.4885 2.59853 30.0364C3.65388 32.5842 5.20073 34.8992 7.15076 36.8492C9.10079 38.7993 11.4158 40.3461 13.9636 41.4015C16.5115 42.4568 19.2422 43 22 43C24.7578 43 27.4885 42.4568 30.0364 41.4015C32.5842 40.3461 34.8992 38.7993 36.8492 36.8492C38.7993 34.8992 40.3461 32.5842 41.4015 30.0364C42.4568 27.4885 43 24.7578 43 22C43 19.2422 42.4568 16.5115 41.4015 13.9636C40.3461 11.4158 38.7993 9.10079 36.8492 7.15076C34.8992 5.20073 32.5842 3.65388 30.0364 2.59853C27.4885 1.54318 24.7578 1 22 1V1Z" stroke="#65686A" stroke-miterlimit="10"/>
<path d="M12.375 24.1875L18.3031 29.4375L31.625 14.125" stroke="white" stroke-width="3" stroke-miterlimit="10" stroke-linecap="round"/>
</svg>
