<svg width="280" height="185" viewBox="0 0 280 185" fill="none" xmlns="http://www.w3.org/2000/svg">
<path d="M104.319 131.381L120.051 114.982C126.261 112.116 128.907 108.048 129.405 101.228L91.4761 7.75253C85.9647 3.70285 75.7129 -1.1869 69.5023 1.67632L38.5396 8.85849C7.90516 22.9887 -7.79039 62.6383 6.33997 93.2726L12.2442 106.073C26.3744 136.707 69.2694 149.314 104.319 131.381Z" fill="#BD8606"/>
<path d="M114.362 125.624C79.7085 143.354 33.1732 128.934 15.4431 94.2799C-2.28692 59.626 17.3833 21.5384 52.037 3.80834C94.36 0.0915978 107.117 8.10002 133.383 38.8859C145.057 76.2099 140.463 98.6625 114.362 125.624Z" fill="#FAC038"/>
<path d="M9.11579 102.465C26.4997 136.442 68.1357 149.893 102.113 132.51C136.09 115.126 149.541 73.4897 132.157 39.5128C114.773 5.53593 73.1372 -7.91533 39.1603 9.46832C5.1834 26.8523 -8.26788 68.4883 9.11579 102.465Z" stroke="black" stroke-width="2.7532"/>
<path d="M21.1889 96.4428C35.2828 123.99 69.0398 134.896 96.5866 120.802C123.886 106.834 133.394 74.2672 119.17 46.4671C104.928 18.6312 72.813 7.09535 45.5478 21.0452C18.0007 35.1393 7.09502 68.896 21.1889 96.4428Z" fill="#F5F5F5" stroke="black" stroke-width="13.766"/>
<path d="M64.8957 96.9043C64.9012 96.9038 57.7815 129.819 57.787 129.818C58.9381 129.702 64.5015 130.524 64.6785 129.421C65.3968 130.237 71.7746 132.327 72.8007 131.839C73.7938 131.366 78.4613 130.418 78.3445 129.369C79.2 129.942 86.3426 130.031 87.2115 129.379C88.0655 128.737 92.9987 126.939 92.7297 125.957C93.6413 126.38 99.0615 124.808 99.8231 124.063C100.58 123.323 103.661 120.71 103.283 119.776C104.228 120.086 108.838 117.838 109.51 117.019C110.176 116.202 112.072 113.945 111.604 113.061C112.568 113.269 116.467 110.887 117.056 110.014C117.644 109.141 119.217 105.033 118.677 104.199C119.653 104.32 122.815 101.09 123.325 100.169C123.836 99.2476 123.61 95.5539 123.004 94.7698C123.985 94.8045 127.96 89.5604 128.39 88.596C128.82 87.6293 127.935 82.4533 127.258 81.7273C128.243 81.6731 129.792 75.5436 130.133 74.5429C130.474 73.5418 128.193 69.5084 127.453 68.8479C128.429 68.6978 129.253 64.5119 129.499 63.4805C129.746 62.4434 127.014 56.7765 126.205 56.1928C127.17 55.9398 127.335 53.0577 127.364 52.0019C127.364 52.0019 127.092 50.5141 126.188 49.2181C125.025 47.9139 123.033 47.088 122.139 46.6092C123.08 46.2216 122.037 41.4591 121.999 40.3705C121.961 39.2653 117.057 36.1157 116.074 35.8018C116.953 35.2269 114.251 31.5925 113.977 30.506C113.69 29.3728 108.801 27.1048 107.7 27.0847C108.427 26.1844 105.342 22.8616 104.594 21.9092C103.803 20.8966 99.1058 19.433 98.0428 20.08C98.1378 18.8171 94.1377 15.7784 92.8803 15.5246C91.6769 15.2812 87.28 14.6023 86.8445 15.7173C86.2704 14.7314 80.9846 11.5614 79.8572 11.9088C78.7807 12.2381 74.5586 12.0889 74.5545 13.1712C73.7522 12.4955 67.7255 10.4983 66.7883 11.0818C65.8739 11.6519 61.4099 12.6078 61.6073 13.6161C60.7233 13.1257 56.1899 11.9308 55.3757 12.6307C54.569 13.3242 50.5238 14.9651 50.8517 15.9249C49.9195 15.5604 44.7077 16.0884 43.9929 16.875C43.2801 17.6558 39.8799 20.4388 40.3028 21.3462C39.3469 21.0885 33.9633 22.4078 33.3339 23.2553C32.707 24.1027 29.8423 28.0472 30.3448 28.904C29.3748 28.7415 26.0396 30.6734 25.4897 31.5718C24.9394 32.468 24.4964 35.4513 23.5611 37.2186C22.2437 37.7062 20.3124 38.8042 19.8407 39.7452C18.4699 42.4811 19.9878 41.969 18.1288 45.4818C17.182 47.2714 15.2613 47.966 14.6097 49.6306C13.7052 51.9402 14.7005 53.1613 14.4062 55.2694C14.1119 57.3775 12.7411 59.2128 12.4437 60.2279C12.1475 61.2482 12.6342 66.1247 13.42 67.8928C13.4233 70.1388 11.6836 72.9744 11.2899 75.1709C11.1004 76.2289 12.8845 81.6662 13.6978 82.8806C14.6212 84.8902 14.1625 89.0263 14.1127 90.1053C15.7247 94.0649 18.7125 95.4256 19.2507 97.1595C20.387 99.0174 19.8179 102.056 20.8322 103.68C22.4808 106.321 26.6945 107.614 27.4456 110.199C28.1967 112.785 28.996 114.527 31.0774 116.599C32.9876 118.745 36.8688 118.417 38.3478 119.625C40.0952 120.577 41.0919 123.698 43.4555 124.987C45.511 126.107 48.8796 125.767 50.839 126.433C52.7985 127.099 56.5566 129.937 57.787 129.818C57.7895 129.818 64.5637 98.448 64.5637 98.448C64.5681 98.4483 64.8933 96.9046 64.8957 96.9043Z" fill="#FFEAAC"/>
<path d="M67.4475 72.3114L61.3318 129.871C63.3636 129.913 63.4892 130.158 63.9793 129.908L70.634 70.6812L67.4475 72.3114Z" fill="#EBC15F"/>
<path d="M70.0781 70.5017L69.9215 73.5198L111.968 99.7883C113.296 103.593 115.098 105.3 111.313 108.783C109.505 111.583 108.191 112.639 105.892 115.113C103.634 117.544 102.258 117.295 99.5494 119.339C96.9152 121.326 90.9955 124.745 87.9568 126.3C84.9179 127.854 72.9203 129.065 69.7679 130.039C67.5967 130.709 66.1939 129.703 64.3564 129.436C65.6683 130.489 68.8246 134.542 78.2609 129.714C81.5548 129.304 83.392 130.761 86.6342 129.76C89.7877 128.785 91.2912 127.377 92.9415 126.069C101.677 125.31 102.569 121.916 103.412 119.938C109.766 118.454 111.962 115.19 111.682 113.132C118.78 110.684 118.091 108.129 118.905 104.28C120.564 103.895 120.737 102.724 120.738 102.724L70.0781 70.5017Z" fill="#EBC15F"/>
<path d="M65.9971 70.0163L68.6145 71.7076L114.031 48.2674C118.126 49.0581 120.592 48.3536 121.733 53.4729C123.294 56.5028 123.554 58.2015 124.567 61.496C125.564 64.7323 124.624 65.813 125.039 69.2462C125.442 72.5845 125.413 79.5473 125.219 83.0188C125.025 86.4903 119.852 97.6597 119.078 100.932C118.545 103.185 116.914 103.9 115.717 105.378C117.343 104.767 126.033 102.798 123.311 94.7579C123.613 94.1395 131.277 90.6823 127.566 82.2206C128.339 78.9471 129.085 80.0517 129.29 78.0914C131.528 72.6169 128.958 70.8045 127.629 69.045C131.271 63.4703 129.082 59.7967 126.281 56.4364C128.472 53.7688 127.623 48.4819 122.681 46.6807C123.202 45.0247 122.099 41.3137 122.099 41.3126L65.9971 70.0163Z" fill="#EBC15F"/>
<path d="M69.7104 10.8477C68.622 10.9829 65.4793 11.9567 64.4292 12.3127C67.0029 10.9958 74.366 13.4139 71.104 15.0829L67.2909 68.6805L70.5771 71.1743L74.6579 13.2644C71.3805 11.694 72.911 10.7563 69.7104 10.8477Z" fill="#EBC15F"/>
<path d="M20.6555 38.8837C19.5553 39.7559 19.4956 39.941 19.2048 41.7908L59.0855 66.8479C62.6446 69.1502 63.467 70.6372 59.6926 72.568L17.2927 94.5704C18.2321 96.1351 18.4502 95.6238 19.2877 97.2608L70.7671 70.9224L20.6555 38.8837Z" fill="#EBC15F"/>
<path d="M90.646 105.318C92.7049 109.342 91.1113 114.272 87.0883 116.331C83.064 118.389 78.1338 116.797 76.0747 112.773C74.0159 108.749 75.6094 103.819 79.6335 101.76C83.6567 99.7021 88.5872 101.294 90.646 105.318Z" fill="#EF5350"/>
<path d="M62.0195 105.387C64.0784 109.411 62.4862 114.341 58.4621 116.4C54.4381 118.459 49.5082 116.865 47.4493 112.841C45.3908 108.818 46.983 103.888 51.007 101.829C55.0311 99.7701 59.961 101.363 62.0195 105.387Z" fill="#EF5350"/>
<path d="M95.6727 67.0627C97.7315 71.0868 96.1385 76.0177 92.1144 78.0766C88.0912 80.1349 83.1602 78.5419 81.1014 74.5178C79.0431 70.4945 80.6361 65.5638 84.6593 63.5053C88.6834 61.4464 93.6141 63.0394 95.6727 67.0627Z" fill="#EF5350"/>
<path d="M46.4068 65.672C48.4656 69.6961 46.8726 74.6271 42.8485 76.6859C38.8253 78.7442 33.8943 77.1512 31.8355 73.1271C29.7772 69.1042 31.3702 64.1732 35.3934 62.1149C39.4175 60.0561 44.3482 61.6491 46.4068 65.672Z" fill="#EF5350"/>
<path d="M51.4812 32.2791C53.54 36.3032 51.947 41.2339 47.9229 43.2927C43.8989 45.3515 38.969 43.7583 36.9102 39.7342C34.8519 35.7109 36.4438 30.7805 40.4678 28.7217C44.4919 26.6629 49.4229 28.2558 51.4812 32.2791Z" fill="#EF5350"/>
<path d="M88.0982 24.9231C89.1273 26.9346 88.3305 29.4009 86.319 30.43C84.3076 31.4592 81.8412 30.6624 80.8121 28.6509C79.7824 26.6383 80.5797 24.1731 82.5912 23.144C84.6027 22.1148 87.0685 22.9105 88.0982 24.9231Z" fill="#FF6F00"/>
<path d="M86.0542 49.8401C87.0833 51.8518 86.2877 54.3173 84.2751 55.347C82.2636 56.3761 79.7984 55.5791 78.7692 53.5673C77.7398 51.5558 78.5358 49.0901 80.5472 48.0609C82.5598 47.0312 85.0251 47.8286 86.0542 49.8401Z" fill="#FF6F00"/>
<path d="M66.509 22.179C67.5387 24.1916 66.7425 26.6562 64.7299 27.6859C62.7184 28.7151 60.2535 27.9189 59.2238 25.9063C58.1946 23.8948 58.9911 21.4301 61.0026 20.4007C63.0152 19.3713 65.4799 20.1675 66.509 22.179Z" fill="#FF6F00"/>
<path d="M64.0634 48.8621C65.0926 50.8736 64.2964 53.3385 62.2838 54.3682C60.2723 55.3974 57.8076 54.6009 56.7782 52.5894C55.7488 50.5768 56.545 48.1121 58.5565 47.083C60.5691 46.0533 63.0338 46.8495 64.0634 48.8621Z" fill="#FF6F00"/>
<path d="M28.9545 80.9096C29.9837 82.9214 29.1875 85.386 27.1749 86.4157C25.1634 87.4449 22.6987 86.6486 21.6693 84.6372C20.6399 82.6246 21.4361 80.1599 23.4476 79.1305C25.4602 78.1011 27.9248 78.8973 28.9545 80.9096Z" fill="#FF6F00"/>
<path d="M58.7174 87.4851C59.7471 89.4976 58.9498 91.9629 56.9383 92.992C54.9257 94.0217 52.461 93.2255 51.4313 91.2129C50.4022 89.2014 51.1984 86.7367 53.211 85.707C55.2225 84.6779 57.6882 85.4736 58.7174 87.4851Z" fill="#FF6F00"/>
<path d="M117.709 57.3769C118.739 59.3892 117.941 61.8547 115.93 62.8839C113.917 63.9136 111.452 63.1171 110.423 61.1048C109.394 59.093 110.19 56.6283 112.202 55.5986C114.214 54.5695 116.68 55.3652 117.709 57.3769Z" fill="#FF6F00"/>
<path d="M109.9 78.3816C110.929 80.3942 110.132 82.8594 108.121 83.8885C106.108 84.9182 103.644 84.122 102.614 82.1094C101.584 80.098 102.381 77.633 104.393 76.6033C106.405 75.5742 108.87 76.3701 109.9 78.3816Z" fill="#FF6F00"/>
<path d="M29.602 51.3761C28.05 49.7335 25.4604 49.6609 23.8181 51.2139C22.1755 52.7659 22.1028 55.3556 23.6548 56.9981C25.2079 58.6404 27.7975 58.7131 29.4398 57.16C31.0824 55.608 31.1551 53.0184 29.602 51.3761Z" fill="#FF6F00"/>
<path d="M40.4825 100.206C41.512 102.218 40.7157 104.683 38.7043 105.712C36.6917 106.742 34.227 105.946 33.1973 103.933C32.1682 101.921 32.9638 99.456 34.9764 98.4263C36.9879 97.3971 39.4531 98.1942 40.4825 100.206Z" fill="#FF6F00"/>
<path d="M106.133 101.991C107.162 104.003 106.365 106.469 104.353 107.498C102.342 108.527 99.8757 107.73 98.8465 105.719C97.8168 103.706 98.6142 101.241 100.626 100.212C102.637 99.1828 105.103 99.9785 106.133 101.991Z" fill="#FF6F00"/>
<path d="M83.7186 87.278C84.7478 89.2895 83.9518 91.7552 81.9395 92.7849C79.9278 93.8141 77.4626 93.0168 76.4334 91.0053C75.4037 88.9927 76.1999 86.528 78.2117 85.4989C80.224 84.4692 82.689 85.2654 83.7186 87.278Z" fill="#FF6F00"/>
<path d="M106.2 36.0513C108.258 40.0753 106.665 45.0063 102.642 47.0646C98.6182 49.1234 93.6875 47.5304 91.6286 43.5064C89.5701 39.4834 91.163 34.5524 95.1871 32.4936C99.2104 30.4353 104.141 32.0283 106.2 36.0513Z" fill="#EF5350"/>
<path d="M81.2315 101.143C82.3099 101.886 83.2251 102.901 83.8644 104.15C86.2294 108.772 83.7449 114.417 78.7087 115.779C81.1068 117.433 84.3126 117.751 87.0881 116.331C91.1122 114.272 92.7049 109.342 90.646 105.318C88.8534 101.815 84.8842 100.155 81.2315 101.143Z" fill="#D32F2F"/>
<path d="M52.605 101.212C53.684 101.956 54.5992 102.97 55.2379 104.219C57.2962 108.242 55.7032 113.173 51.68 115.231C51.1601 115.497 50.6244 115.701 50.0823 115.848C52.4809 117.502 55.6867 117.82 58.4622 116.4C62.4862 114.341 64.0784 109.411 62.0196 105.387C60.227 101.883 56.2574 100.224 52.605 101.212Z" fill="#D32F2F"/>
<path d="M86.2574 62.8883C87.3364 63.6325 88.2523 64.6462 88.8911 65.8948C90.9499 69.9188 89.3564 74.8487 85.3323 76.9076C84.8125 77.1735 84.2767 77.3775 83.7346 77.5246C86.1332 79.1787 89.3399 79.4961 92.1145 78.0766C96.1386 76.0177 97.7316 71.0868 95.6728 67.0627C93.8804 63.5595 89.9098 61.9002 86.2574 62.8883Z" fill="#D32F2F"/>
<path d="M36.9915 61.4979C38.0705 62.2421 38.9865 63.2555 39.6252 64.5041C41.684 68.5282 40.0905 73.4581 36.0664 75.5169C35.5466 75.7829 35.0109 75.9871 34.4688 76.1339C36.8673 77.788 40.074 78.1055 42.8487 76.6859C46.8727 74.6271 48.4657 69.6961 46.4069 65.672C44.6146 62.1689 40.6439 60.5098 36.9915 61.4979Z" fill="#D32F2F"/>
<path d="M42.0657 28.1047C43.1447 28.8489 44.0607 29.8623 44.6994 31.1109C46.758 35.1342 45.165 40.0649 41.1409 42.1237C40.6208 42.3897 40.0851 42.5939 39.543 42.7407C41.9416 44.3948 45.1482 44.7123 47.9229 43.2927C51.9469 41.2339 53.5399 36.3029 51.4811 32.2788C49.6888 28.7757 45.7184 27.1166 42.0657 28.1047Z" fill="#D32F2F"/>
<path d="M96.7843 31.8771C97.8632 32.6213 98.7792 33.6347 99.418 34.8833C101.476 38.9063 99.8833 43.8372 95.8592 45.8961C95.3394 46.162 94.8044 46.3658 94.2612 46.5131C96.6598 48.1672 99.8667 48.4846 102.642 47.0645C106.665 45.0062 108.258 40.0753 106.2 36.0512C104.407 32.548 100.438 30.8884 96.7843 31.8771Z" fill="#D32F2F"/>
<path d="M173.751 131.069L158.566 114.162C152.454 111.094 149.942 106.942 149.669 100.108L190.645 7.92844C196.286 4.06213 206.693 -0.488621 212.807 2.5769L243.517 10.7714C273.671 25.8997 288.056 66.0429 272.928 96.1967L266.607 108.796C251.479 138.95 208.194 150.142 173.751 131.069Z" fill="#385611"/>
<path d="M163.903 124.985C197.956 143.843 244.939 130.958 263.797 96.9048C282.654 62.8516 264.246 24.1387 230.192 5.28068C188.014 0.177062 175.001 7.76269 147.739 37.6698C134.847 74.5904 138.701 97.1818 163.903 124.985Z" fill="#848F40"/>
<path d="M269.852 105.293C251.362 138.681 209.307 150.759 175.919 132.269C142.531 113.78 130.454 71.7246 148.943 38.3366C167.433 4.94869 209.488 -7.12889 242.876 11.3606C276.264 29.8502 288.342 71.9053 269.852 105.293Z" stroke="black" stroke-width="2.7532"/>
<path d="M257.983 98.8781C242.993 125.948 208.896 135.74 181.827 120.749C155.001 105.893 146.567 73.0319 161.696 45.7133C176.843 18.36 209.32 7.88442 236.112 22.7217C263.182 37.7122 272.974 71.8086 257.983 98.8781Z" fill="#EBEBEB" stroke="black" stroke-width="13.766"/>
<path d="M214.285 97.9045C214.28 97.904 220.315 131.035 220.31 131.034C219.163 130.88 213.576 131.519 213.435 130.412C212.69 131.203 206.247 133.082 205.238 132.561C204.261 132.056 199.627 130.955 199.778 129.91C198.904 130.456 191.763 130.31 190.916 129.63C190.083 128.96 185.212 127.001 185.513 126.028C184.588 126.421 179.222 124.672 178.485 123.902C177.753 123.138 174.759 120.425 175.167 119.505C174.213 119.783 169.68 117.385 169.035 116.544C168.395 115.706 166.575 113.388 167.072 112.52C166.101 112.696 162.283 110.187 161.722 109.295C161.164 108.404 159.726 104.246 160.293 103.43C159.313 103.52 156.26 100.187 155.78 99.2497C155.299 98.312 155.646 94.628 156.278 93.864C155.296 93.8667 151.495 88.4949 151.097 87.517C150.7 86.5366 151.754 81.3925 152.454 80.6891C151.471 80.6026 150.125 74.4256 149.817 73.414C149.509 72.4025 151.921 68.4459 152.682 67.8102C151.712 67.6285 151.025 63.4175 150.814 62.3787C150.6 61.3341 153.517 55.7597 154.345 55.203C153.389 54.9183 153.319 52.0324 153.324 50.9763C153.324 50.9763 153.645 49.4981 154.59 48.2325C155.796 46.9674 157.814 46.2072 158.723 45.7582C157.795 45.3397 158.994 40.6138 159.068 39.5272C159.142 38.4239 164.147 35.4367 165.14 35.1554C164.28 34.5521 167.1 31.0079 167.409 29.9314C167.733 28.8081 172.694 26.7017 173.795 26.7177C173.098 25.794 176.291 22.5744 177.069 21.6471C177.893 20.6612 182.636 19.3526 183.677 20.034C183.624 18.7687 187.721 15.8629 188.987 15.6501C190.197 15.4467 194.614 14.9123 195.013 16.0411C195.619 15.0747 201.006 12.0795 202.121 12.4638C203.187 12.8284 207.411 12.8176 207.38 13.8996C208.204 13.2507 214.293 11.4526 215.21 12.0663C216.105 12.6662 220.536 13.768 220.305 14.7694C221.205 14.3082 225.775 13.2628 226.566 13.9888C227.349 14.7088 231.338 16.4816 230.979 17.4301C231.923 17.0961 237.115 17.7951 237.803 18.6046C238.49 19.4082 241.797 22.3013 241.345 23.1944C242.308 22.9684 247.646 24.4636 248.247 25.3315C248.846 26.199 251.58 30.2354 251.049 31.0751C252.024 30.9446 255.294 32.9847 255.814 33.9007C256.335 34.8145 256.679 37.8108 257.556 39.6078C258.857 40.1384 260.751 41.2991 261.192 42.2553C262.472 45.0346 260.972 44.4727 262.714 48.045C263.602 49.8646 265.499 50.6217 266.096 52.3069C266.924 54.645 265.889 55.8327 266.114 57.9493C266.339 60.066 267.649 61.9451 267.912 62.9695C268.175 63.9992 267.529 68.8569 266.685 70.5983C266.608 72.843 268.254 75.7342 268.575 77.9425C268.73 79.0061 266.768 84.382 265.915 85.5689C264.927 87.547 265.249 91.6964 265.264 92.7762C263.523 96.6807 260.492 97.9425 259.897 99.6581C258.7 101.477 259.17 104.533 258.102 106.124C256.368 108.708 252.114 109.862 251.279 112.422C250.443 114.981 249.587 116.696 247.439 118.699C245.459 120.781 241.591 120.325 240.073 121.484C238.295 122.379 237.197 125.466 234.792 126.676C232.701 127.728 229.345 127.277 227.365 127.879C225.385 128.48 221.535 131.194 220.31 131.034C220.307 131.034 214.566 99.4584 214.566 99.4584C214.562 99.4584 214.288 97.9051 214.285 97.9045Z" fill="#E4E4E4"/>
<path d="M219.322 125.422C219.205 126.104 218.718 126.683 217.953 127.14C217.389 127.479 216.669 127.752 215.829 127.95C214.598 128.24 213.112 128.369 211.48 128.314C210.412 128.276 209.285 128.159 208.125 127.956C208.118 127.955 208.112 127.953 208.105 127.952C202.349 126.935 198.022 124.161 198.439 121.75C198.553 121.098 199.002 120.537 199.712 120.089C200.266 119.74 200.976 119.459 201.807 119.253C203.022 118.95 204.496 118.81 206.119 118.853C207.181 118.883 208.307 118.992 209.465 119.188C209.524 119.197 209.581 119.207 209.637 119.217C215.403 120.23 219.739 123.01 219.322 125.422Z" fill="#C2C2C2"/>
<path d="M219.322 125.422C219.205 126.104 218.718 126.683 217.953 127.14C217.389 127.479 216.669 127.752 215.829 127.95C214.598 128.24 213.112 128.369 211.48 128.314C210.412 128.276 209.285 128.159 208.125 127.956C208.118 127.955 208.112 127.953 208.105 127.952C202.349 126.935 198.022 124.161 198.439 121.75C198.553 121.098 199.002 120.537 199.712 120.089C200.266 119.74 200.976 119.459 201.807 119.253C203.022 118.95 204.496 118.81 206.119 118.853C207.181 118.883 208.307 118.992 209.465 119.188C209.524 119.197 209.581 119.207 209.637 119.217C215.403 120.23 219.739 123.01 219.322 125.422Z" fill="#C2C2C2"/>
<path d="M219.322 125.422C219.205 126.104 218.718 126.683 217.953 127.14C217.389 127.479 216.669 127.752 215.829 127.95C214.598 128.24 213.112 128.369 211.48 128.314C210.412 128.276 209.285 128.159 208.125 127.956C208.118 127.955 208.112 127.953 208.105 127.952C202.349 126.935 198.022 124.161 198.439 121.75C198.553 121.098 199.002 120.537 199.712 120.089C200.266 119.74 200.976 119.459 201.807 119.253C203.022 118.95 204.496 118.81 206.119 118.853C207.181 118.883 208.307 118.992 209.465 119.188C209.524 119.197 209.581 119.207 209.637 119.217C215.403 120.23 219.739 123.01 219.322 125.422Z" fill="#C2C2C2"/>
<path d="M217.549 125.488C217.334 126.145 216.769 126.649 215.946 126.991C215.338 127.245 214.586 127.411 213.727 127.486C212.466 127.596 210.976 127.51 209.368 127.22C208.317 127.029 207.217 126.751 206.098 126.383C206.092 126.381 206.085 126.379 206.079 126.377C200.527 124.542 196.642 121.176 197.403 118.851C197.609 118.222 198.134 117.731 198.901 117.391C199.5 117.125 200.243 116.949 201.096 116.865C202.342 116.741 203.822 116.813 205.422 117.09C206.469 117.273 207.569 117.542 208.687 117.903C208.743 117.921 208.798 117.939 208.853 117.957C214.415 119.789 218.308 123.162 217.549 125.488Z" fill="#C2C2C2"/>
<path d="M217.549 125.488C217.334 126.145 216.769 126.649 215.946 126.991C215.338 127.245 214.586 127.411 213.727 127.486C212.466 127.596 210.976 127.51 209.368 127.22C208.317 127.029 207.217 126.751 206.098 126.383C206.092 126.381 206.085 126.379 206.079 126.377C200.527 124.542 196.642 121.176 197.403 118.851C197.609 118.222 198.134 117.731 198.901 117.391C199.5 117.125 200.243 116.949 201.096 116.865C202.342 116.741 203.822 116.813 205.422 117.09C206.469 117.273 207.569 117.542 208.687 117.903C208.743 117.921 208.798 117.939 208.853 117.957C214.415 119.789 218.308 123.162 217.549 125.488Z" fill="#C2C2C2"/>
<path d="M217.549 125.488C217.334 126.145 216.769 126.649 215.946 126.991C215.338 127.245 214.586 127.411 213.727 127.486C212.466 127.596 210.976 127.51 209.368 127.22C208.317 127.029 207.217 126.751 206.098 126.383C206.092 126.381 206.085 126.379 206.079 126.377C200.527 124.542 196.642 121.176 197.403 118.851C197.609 118.222 198.134 117.731 198.901 117.391C199.5 117.125 200.243 116.949 201.096 116.865C202.342 116.741 203.822 116.813 205.422 117.09C206.469 117.273 207.569 117.542 208.687 117.903C208.743 117.921 208.798 117.939 208.853 117.957C214.415 119.789 218.308 123.162 217.549 125.488Z" fill="#F3F2F2"/>
<path d="M248.847 89.1483C249.383 89.6595 250.173 89.8489 251.124 89.7559C251.827 89.6882 252.621 89.4649 253.472 89.1023C254.718 88.5687 256.082 87.735 257.454 86.6495C258.35 85.9383 259.247 85.1206 260.117 84.2082C260.122 84.2032 260.127 84.198 260.132 84.1931C264.445 79.6574 266.405 74.5208 264.506 72.7125C263.992 72.2233 263.247 72.0261 262.349 72.0925C261.649 72.1443 260.857 72.3538 260.009 72.7048C258.768 73.2169 257.407 74.0332 256.036 75.1028C255.14 75.8038 254.238 76.613 253.366 77.5185C253.321 77.5631 253.278 77.608 253.236 77.6528C248.912 82.1898 246.948 87.338 248.847 89.1483Z" fill="#C2C2C2"/>
<path d="M248.847 89.1483C249.383 89.6595 250.173 89.8489 251.124 89.7559C251.827 89.6882 252.621 89.4649 253.472 89.1023C254.718 88.5687 256.082 87.735 257.454 86.6495C258.35 85.9383 259.247 85.1206 260.117 84.2082C260.122 84.2032 260.127 84.198 260.132 84.1931C264.445 79.6574 266.405 74.5208 264.506 72.7125C263.992 72.2233 263.247 72.0261 262.349 72.0925C261.649 72.1443 260.857 72.3538 260.009 72.7048C258.768 73.2169 257.407 74.0332 256.036 75.1028C255.14 75.8038 254.238 76.613 253.366 77.5185C253.321 77.5631 253.278 77.608 253.236 77.6528C248.912 82.1898 246.948 87.338 248.847 89.1483Z" fill="#C2C2C2"/>
<path d="M248.847 89.1483C249.383 89.6595 250.173 89.8489 251.124 89.7559C251.827 89.6882 252.621 89.4649 253.472 89.1023C254.718 88.5687 256.082 87.735 257.454 86.6495C258.35 85.9383 259.247 85.1206 260.117 84.2082C260.122 84.2032 260.127 84.198 260.132 84.1931C264.445 79.6574 266.405 74.5208 264.506 72.7125C263.992 72.2233 263.247 72.0261 262.349 72.0925C261.649 72.1443 260.857 72.3538 260.009 72.7048C258.768 73.2169 257.407 74.0332 256.036 75.1028C255.14 75.8038 254.238 76.613 253.366 77.5185C253.321 77.5631 253.278 77.608 253.236 77.6528C248.912 82.1898 246.948 87.338 248.847 89.1483Z" fill="#C2C2C2"/>
<path d="M251.515 86.0969C252.119 86.5259 252.928 86.5996 253.856 86.3706C254.542 86.2026 255.296 85.8673 256.085 85.386C257.242 84.6787 258.472 83.6573 259.673 82.3856C260.457 81.553 261.228 80.6145 261.957 79.5867C261.961 79.5809 261.966 79.5749 261.97 79.5694C265.585 74.4603 266.786 69.0951 264.646 67.5789C264.067 67.1687 263.301 67.0809 262.422 67.2758C261.737 67.4278 260.983 67.7491 260.195 68.2185C259.041 68.9038 257.812 69.9076 256.609 71.1633C255.823 71.9857 255.047 72.9163 254.313 73.9382C254.275 73.9886 254.24 74.0393 254.204 74.0897C250.578 79.2018 249.376 84.5788 251.515 86.0969Z" fill="#C2C2C2"/>
<path d="M251.515 86.0969C252.119 86.5259 252.928 86.5996 253.856 86.3706C254.542 86.2026 255.296 85.8673 256.085 85.386C257.242 84.6787 258.472 83.6573 259.673 82.3856C260.457 81.553 261.228 80.6145 261.957 79.5867C261.961 79.5809 261.966 79.5749 261.97 79.5694C265.585 74.4603 266.786 69.0951 264.646 67.5789C264.067 67.1687 263.301 67.0809 262.422 67.2758C261.737 67.4278 260.983 67.7491 260.195 68.2185C259.041 68.9038 257.812 69.9076 256.609 71.1633C255.823 71.9857 255.047 72.9163 254.313 73.9382C254.275 73.9886 254.24 74.0393 254.204 74.0897C250.578 79.2018 249.376 84.5788 251.515 86.0969Z" fill="#C2C2C2"/>
<path d="M251.515 86.0969C252.119 86.5259 252.928 86.5996 253.856 86.3706C254.542 86.2026 255.296 85.8673 256.085 85.386C257.242 84.6787 258.472 83.6573 259.673 82.3856C260.457 81.553 261.228 80.6145 261.957 79.5867C261.961 79.5809 261.966 79.5749 261.97 79.5694C265.585 74.4603 266.786 69.0951 264.646 67.5789C264.067 67.1687 263.301 67.0809 262.422 67.2758C261.737 67.4278 260.983 67.7491 260.195 68.2185C259.041 68.9038 257.812 69.9076 256.609 71.1633C255.823 71.9857 255.047 72.9163 254.313 73.9382C254.275 73.9886 254.24 74.0393 254.204 74.0897C250.578 79.2018 249.376 84.5788 251.515 86.0969Z" fill="#F3F2F2"/>
<path d="M239.209 29.0432C238.46 29.2478 237.863 29.854 237.432 30.7576C237.112 31.4253 236.883 32.2587 236.749 33.2182C236.553 34.6251 236.563 36.3004 236.795 38.1186C236.948 39.3074 237.196 40.5552 237.544 41.8291C237.546 41.8365 237.548 41.8437 237.55 41.8508C239.286 48.1749 242.835 52.7127 245.485 51.9873C246.203 51.7907 246.783 51.2282 247.209 50.3871C247.541 49.7305 247.782 48.9067 247.926 47.9555C248.137 46.5654 248.141 44.9027 247.923 43.0936C247.779 41.9106 247.541 40.6634 247.2 39.3903C247.185 39.3259 247.167 39.2634 247.15 39.2009C245.418 32.8666 241.861 28.3189 239.209 29.0432Z" fill="#C2C2C2"/>
<path d="M239.209 29.0432C238.46 29.2478 237.863 29.854 237.432 30.7576C237.112 31.4253 236.883 32.2587 236.749 33.2182C236.553 34.6251 236.563 36.3004 236.795 38.1186C236.948 39.3074 237.196 40.5552 237.544 41.8291C237.546 41.8365 237.548 41.8437 237.55 41.8508C239.286 48.1749 242.835 52.7127 245.485 51.9873C246.203 51.7907 246.783 51.2282 247.209 50.3871C247.541 49.7305 247.782 48.9067 247.926 47.9555C248.137 46.5654 248.141 44.9027 247.923 43.0936C247.779 41.9106 247.541 40.6634 247.2 39.3903C247.185 39.3259 247.167 39.2634 247.15 39.2009C245.418 32.8666 241.861 28.3189 239.209 29.0432Z" fill="#C2C2C2"/>
<path d="M239.209 29.0432C238.46 29.2478 237.863 29.854 237.432 30.7576C237.112 31.4253 236.883 32.2587 236.749 33.2182C236.553 34.6251 236.563 36.3004 236.795 38.1186C236.948 39.3074 237.196 40.5552 237.544 41.8291C237.546 41.8365 237.548 41.8437 237.55 41.8508C239.286 48.1749 242.835 52.7127 245.485 51.9873C246.203 51.7907 246.783 51.2282 247.209 50.3871C247.541 49.7305 247.782 48.9067 247.926 47.9555C248.137 46.5654 248.141 44.9027 247.923 43.0936C247.779 41.9106 247.541 40.6634 247.2 39.3903C247.185 39.3259 247.167 39.2634 247.15 39.2009C245.418 32.8666 241.861 28.3189 239.209 29.0432Z" fill="#C2C2C2"/>
<path d="M239.321 31.033C238.609 31.3432 238.105 32.0291 237.809 32.9855C237.588 33.692 237.481 34.5502 237.486 35.5187C237.495 36.9391 237.746 38.5954 238.237 40.3616C238.56 41.516 238.985 42.7148 239.513 43.9256C239.516 43.9325 239.519 43.9394 239.522 43.9463C242.15 49.9548 246.315 53.9346 248.833 52.8352C249.515 52.5376 250.008 51.8975 250.308 51.0035C250.543 50.3062 250.662 49.4562 250.668 48.4943C250.677 47.0882 250.441 45.4421 249.965 43.6833C249.653 42.5333 249.237 41.3335 248.717 40.1224C248.692 40.0612 248.666 40.0018 248.64 39.9423C246.015 33.9233 241.84 29.9347 239.321 31.033Z" fill="#C2C2C2"/>
<path d="M239.321 31.033C238.609 31.3432 238.105 32.0291 237.809 32.9855C237.588 33.692 237.481 34.5502 237.486 35.5187C237.495 36.9391 237.746 38.5954 238.237 40.3616C238.56 41.516 238.985 42.7148 239.513 43.9256C239.516 43.9325 239.519 43.9394 239.522 43.9463C242.15 49.9548 246.315 53.9346 248.833 52.8352C249.515 52.5376 250.008 51.8975 250.308 51.0035C250.543 50.3062 250.662 49.4562 250.668 48.4943C250.677 47.0882 250.441 45.4421 249.965 43.6833C249.653 42.5333 249.237 41.3335 248.717 40.1224C248.692 40.0612 248.666 40.0018 248.64 39.9423C246.015 33.9233 241.84 29.9347 239.321 31.033Z" fill="#C2C2C2"/>
<path d="M239.321 31.033C238.609 31.3432 238.105 32.0291 237.809 32.9855C237.588 33.692 237.481 34.5502 237.486 35.5187C237.495 36.9391 237.746 38.5954 238.237 40.3616C238.56 41.516 238.985 42.7148 239.513 43.9256C239.516 43.9325 239.519 43.9394 239.522 43.9463C242.15 49.9548 246.315 53.9346 248.833 52.8352C249.515 52.5376 250.008 51.8975 250.308 51.0035C250.543 50.3062 250.662 49.4562 250.668 48.4943C250.677 47.0882 250.441 45.4421 249.965 43.6833C249.653 42.5333 249.237 41.3335 248.717 40.1224C248.692 40.0612 248.666 40.0018 248.64 39.9423C246.015 33.9233 241.84 29.9347 239.321 31.033Z" fill="#EBEBEB"/>
<path d="M163.795 36.6396C164.097 36.1256 164.666 35.8048 165.423 35.6672C165.981 35.5645 166.645 35.562 167.383 35.655C168.465 35.7927 169.704 36.1368 171.005 36.6743C171.855 37.0267 172.73 37.4614 173.604 37.9752C173.609 37.9779 173.614 37.9812 173.619 37.984C177.956 40.5414 180.605 44.0828 179.535 45.9008C179.245 46.3928 178.712 46.7097 178.003 46.8564C177.45 46.9707 176.791 46.9833 176.057 46.8988C174.985 46.7763 173.752 46.4448 172.455 45.9198C171.607 45.5751 170.731 45.1481 169.856 44.6398C169.812 44.6153 169.769 44.59 169.726 44.5647C165.38 42.0083 162.725 38.4589 163.795 36.6396Z" fill="#C2C2C2"/>
<path d="M163.795 36.6396C164.097 36.1256 164.666 35.8048 165.423 35.6672C165.981 35.5645 166.645 35.562 167.383 35.655C168.465 35.7927 169.704 36.1368 171.005 36.6743C171.855 37.0267 172.73 37.4614 173.604 37.9752C173.609 37.9779 173.614 37.9812 173.619 37.984C177.956 40.5414 180.605 44.0828 179.535 45.9008C179.245 46.3928 178.712 46.7097 178.003 46.8564C177.45 46.9707 176.791 46.9833 176.057 46.8988C174.985 46.7763 173.752 46.4448 172.455 45.9198C171.607 45.5751 170.731 45.1481 169.856 44.6398C169.812 44.6153 169.769 44.59 169.726 44.5647C165.38 42.0083 162.725 38.4589 163.795 36.6396Z" fill="#C2C2C2"/>
<path d="M163.795 36.6396C164.097 36.1256 164.666 35.8048 165.423 35.6672C165.981 35.5645 166.645 35.562 167.383 35.655C168.465 35.7927 169.704 36.1368 171.005 36.6743C171.855 37.0267 172.73 37.4614 173.604 37.9752C173.609 37.9779 173.614 37.9812 173.619 37.984C177.956 40.5414 180.605 44.0828 179.535 45.9008C179.245 46.3928 178.712 46.7097 178.003 46.8564C177.45 46.9707 176.791 46.9833 176.057 46.8988C174.985 46.7763 173.752 46.4448 172.455 45.9198C171.607 45.5751 170.731 45.1481 169.856 44.6398C169.812 44.6153 169.769 44.59 169.726 44.5647C165.38 42.0083 162.725 38.4589 163.795 36.6396Z" fill="#C2C2C2"/>
<path d="M164.797 36.1259C165.169 35.6608 165.779 35.4254 166.547 35.3979C167.115 35.3767 167.772 35.4698 168.489 35.668C169.54 35.9601 170.717 36.4791 171.927 37.198C172.717 37.669 173.52 38.2252 174.311 38.8595C174.316 38.8628 174.32 38.8667 174.325 38.87C178.248 42.0251 180.361 45.911 179.04 47.556C178.682 48.0012 178.109 48.238 177.386 48.2812C176.822 48.3145 176.169 48.2322 175.455 48.0431C174.411 47.7675 173.239 47.262 172.031 46.5558C171.242 46.093 170.436 45.5443 169.643 44.9154C169.603 44.8846 169.564 44.8535 169.525 44.8221C165.593 41.6669 163.476 37.7723 164.797 36.1259Z" fill="#C2C2C2"/>
<path d="M164.797 36.1259C165.169 35.6608 165.779 35.4254 166.547 35.3979C167.115 35.3767 167.772 35.4698 168.489 35.668C169.54 35.9601 170.717 36.4791 171.927 37.198C172.717 37.669 173.52 38.2252 174.311 38.8595C174.316 38.8628 174.32 38.8667 174.325 38.87C178.248 42.0251 180.361 45.911 179.04 47.556C178.682 48.0012 178.109 48.238 177.386 48.2812C176.822 48.3145 176.169 48.2322 175.455 48.0431C174.411 47.7675 173.239 47.262 172.031 46.5558C171.242 46.093 170.436 45.5443 169.643 44.9154C169.603 44.8846 169.564 44.8535 169.525 44.8221C165.593 41.6669 163.476 37.7723 164.797 36.1259Z" fill="#C2C2C2"/>
<path d="M164.797 36.1259C165.169 35.6608 165.779 35.4254 166.547 35.3979C167.115 35.3767 167.772 35.4698 168.489 35.668C169.54 35.9601 170.717 36.4791 171.927 37.198C172.717 37.669 173.52 38.2252 174.311 38.8595C174.316 38.8628 174.32 38.8667 174.325 38.87C178.248 42.0251 180.361 45.911 179.04 47.556C178.682 48.0012 178.109 48.238 177.386 48.2812C176.822 48.3145 176.169 48.2322 175.455 48.0431C174.411 47.7675 173.239 47.262 172.031 46.5558C171.242 46.093 170.436 45.5443 169.643 44.9154C169.603 44.8846 169.564 44.8535 169.525 44.8221C165.593 41.6669 163.476 37.7723 164.797 36.1259Z" fill="#EBEBEB"/>
<path d="M164.023 106.309C164.414 106.751 165.027 106.954 165.787 106.944C166.349 106.937 166.993 106.814 167.691 106.584C168.715 106.245 169.852 105.676 171.012 104.908C171.77 104.404 172.536 103.816 173.286 103.152C173.291 103.149 173.295 103.145 173.299 103.141C177.022 99.8367 178.92 95.898 177.537 94.3372C177.163 93.9152 176.585 93.7087 175.869 93.701C175.311 93.6952 174.669 93.8078 173.974 94.0291C172.956 94.3515 171.823 94.9069 170.665 95.6623C169.907 96.1574 169.138 96.738 168.386 97.3971C168.347 97.4293 168.311 97.4621 168.274 97.4949C164.543 100.8 162.64 104.747 164.023 106.309Z" fill="#C2C2C2"/>
<path d="M164.023 106.309C164.414 106.751 165.027 106.954 165.787 106.944C166.349 106.937 166.993 106.814 167.691 106.584C168.715 106.245 169.852 105.676 171.012 104.908C171.77 104.404 172.536 103.816 173.286 103.152C173.291 103.149 173.295 103.145 173.299 103.141C177.022 99.8367 178.92 95.898 177.537 94.3372C177.163 93.9152 176.585 93.7087 175.869 93.701C175.311 93.6952 174.669 93.8078 173.974 94.0291C172.956 94.3515 171.823 94.9069 170.665 95.6623C169.907 96.1574 169.138 96.738 168.386 97.3971C168.347 97.4293 168.311 97.4621 168.274 97.4949C164.543 100.8 162.64 104.747 164.023 106.309Z" fill="#C2C2C2"/>
<path d="M164.023 106.309C164.414 106.751 165.027 106.954 165.787 106.944C166.349 106.937 166.993 106.814 167.691 106.584C168.715 106.245 169.852 105.676 171.012 104.908C171.77 104.404 172.536 103.816 173.286 103.152C173.291 103.149 173.295 103.145 173.299 103.141C177.022 99.8367 178.92 95.898 177.537 94.3372C177.163 93.9152 176.585 93.7087 175.869 93.701C175.311 93.6952 174.669 93.8078 173.974 94.0291C172.956 94.3515 171.823 94.9069 170.665 95.6623C169.907 96.1574 169.138 96.738 168.386 97.3971C168.347 97.4293 168.311 97.4621 168.274 97.4949C164.543 100.8 162.64 104.747 164.023 106.309Z" fill="#C2C2C2"/>
<path d="M165.155 105.294C165.605 105.674 166.241 105.787 166.992 105.668C167.547 105.581 168.167 105.366 168.825 105.037C169.789 104.555 170.832 103.828 171.87 102.901C172.547 102.294 173.221 101.602 173.868 100.836C173.872 100.832 173.875 100.828 173.879 100.823C177.087 97.018 178.399 92.8472 176.806 91.5017C176.374 91.1377 175.773 91.0166 175.064 91.1118C174.51 91.1864 173.891 91.3905 173.235 91.7095C172.274 92.1748 171.233 92.8876 170.195 93.802C169.517 94.4008 168.84 95.0861 168.19 95.8468C168.157 95.8842 168.125 95.9217 168.093 95.9594C164.877 99.7668 163.562 103.947 165.155 105.294Z" fill="#C2C2C2"/>
<path d="M165.155 105.294C165.605 105.674 166.241 105.787 166.992 105.668C167.547 105.581 168.167 105.366 168.825 105.037C169.789 104.555 170.832 103.828 171.87 102.901C172.547 102.294 173.221 101.602 173.868 100.836C173.872 100.832 173.875 100.828 173.879 100.823C177.087 97.018 178.399 92.8472 176.806 91.5017C176.374 91.1377 175.773 91.0166 175.064 91.1118C174.51 91.1864 173.891 91.3905 173.235 91.7095C172.274 92.1748 171.233 92.8876 170.195 93.802C169.517 94.4008 168.84 95.0861 168.19 95.8468C168.157 95.8842 168.125 95.9217 168.093 95.9594C164.877 99.7668 163.562 103.947 165.155 105.294Z" fill="#C2C2C2"/>
<path d="M165.155 105.294C165.605 105.674 166.241 105.787 166.992 105.668C167.547 105.581 168.167 105.366 168.825 105.037C169.789 104.555 170.832 103.828 171.87 102.901C172.547 102.294 173.221 101.602 173.868 100.836C173.872 100.832 173.875 100.828 173.879 100.823C177.087 97.018 178.399 92.8472 176.806 91.5017C176.374 91.1377 175.773 91.0166 175.064 91.1118C174.51 91.1864 173.891 91.3905 173.235 91.7095C172.274 92.1748 171.233 92.8876 170.195 93.802C169.517 94.4008 168.84 95.0861 168.19 95.8468C168.157 95.8842 168.125 95.9217 168.093 95.9594C164.877 99.7668 163.562 103.947 165.155 105.294Z" fill="#F3F2F2"/>
<path d="M239.209 29.0432C238.46 29.2478 237.863 29.854 237.432 30.7576C237.112 31.4253 236.883 32.2587 236.749 33.2182C236.553 34.6251 236.563 36.3004 236.795 38.1186C236.948 39.3074 237.196 40.5552 237.544 41.8291C237.546 41.8365 237.548 41.8437 237.55 41.8508C239.286 48.1749 242.835 52.7127 245.485 51.9873C246.203 51.7907 246.783 51.2282 247.209 50.3871C247.541 49.7305 247.782 48.9067 247.926 47.9555C248.137 46.5654 248.141 44.9027 247.923 43.0936C247.779 41.9106 247.541 40.6634 247.2 39.3903C247.185 39.3259 247.167 39.2634 247.15 39.2009C245.418 32.8666 241.861 28.3189 239.209 29.0432Z" fill="#C2C2C2"/>
<path d="M239.209 29.0432C238.46 29.2478 237.863 29.854 237.432 30.7576C237.112 31.4253 236.883 32.2587 236.749 33.2182C236.553 34.6251 236.563 36.3004 236.795 38.1186C236.948 39.3074 237.196 40.5552 237.544 41.8291C237.546 41.8365 237.548 41.8437 237.55 41.8508C239.286 48.1749 242.835 52.7127 245.485 51.9873C246.203 51.7907 246.783 51.2282 247.209 50.3871C247.541 49.7305 247.782 48.9067 247.926 47.9555C248.137 46.5654 248.141 44.9027 247.923 43.0936C247.779 41.9106 247.541 40.6634 247.2 39.3903C247.185 39.3259 247.167 39.2634 247.15 39.2009C245.418 32.8666 241.861 28.3189 239.209 29.0432Z" fill="#C2C2C2"/>
<path d="M239.209 29.0432C238.46 29.2478 237.863 29.854 237.432 30.7576C237.112 31.4253 236.883 32.2587 236.749 33.2182C236.553 34.6251 236.563 36.3004 236.795 38.1186C236.948 39.3074 237.196 40.5552 237.544 41.8291C237.546 41.8365 237.548 41.8437 237.55 41.8508C239.286 48.1749 242.835 52.7127 245.485 51.9873C246.203 51.7907 246.783 51.2282 247.209 50.3871C247.541 49.7305 247.782 48.9067 247.926 47.9555C248.137 46.5654 248.141 44.9027 247.923 43.0936C247.779 41.9106 247.541 40.6634 247.2 39.3903C247.185 39.3259 247.167 39.2634 247.15 39.2009C245.418 32.8666 241.861 28.3189 239.209 29.0432Z" fill="#C2C2C2"/>
<path d="M239.321 31.033C238.609 31.3432 238.105 32.0291 237.809 32.9855C237.588 33.692 237.481 34.5502 237.486 35.5187C237.495 36.9391 237.746 38.5954 238.237 40.3616C238.56 41.516 238.985 42.7148 239.513 43.9256C239.516 43.9325 239.519 43.9394 239.522 43.9463C242.15 49.9548 246.315 53.9346 248.833 52.8352C249.515 52.5376 250.008 51.8975 250.308 51.0035C250.543 50.3062 250.662 49.4562 250.668 48.4943C250.677 47.0882 250.441 45.4421 249.965 43.6833C249.653 42.5333 249.237 41.3335 248.717 40.1224C248.692 40.0612 248.666 40.0018 248.64 39.9423C246.015 33.9233 241.84 29.9347 239.321 31.033Z" fill="#C2C2C2"/>
<path d="M239.321 31.033C238.609 31.3432 238.105 32.0291 237.809 32.9855C237.588 33.692 237.481 34.5502 237.486 35.5187C237.495 36.9391 237.746 38.5954 238.237 40.3616C238.56 41.516 238.985 42.7148 239.513 43.9256C239.516 43.9325 239.519 43.9394 239.522 43.9463C242.15 49.9548 246.315 53.9346 248.833 52.8352C249.515 52.5376 250.008 51.8975 250.308 51.0035C250.543 50.3062 250.662 49.4562 250.668 48.4943C250.677 47.0882 250.441 45.4421 249.965 43.6833C249.653 42.5333 249.237 41.3335 248.717 40.1224C248.692 40.0612 248.666 40.0018 248.64 39.9423C246.015 33.9233 241.84 29.9347 239.321 31.033Z" fill="#C2C2C2"/>
<path d="M239.321 31.033C238.609 31.3432 238.105 32.0291 237.809 32.9855C237.588 33.692 237.481 34.5502 237.486 35.5187C237.495 36.9391 237.746 38.5954 238.237 40.3616C238.56 41.516 238.985 42.7148 239.513 43.9256C239.516 43.9325 239.519 43.9394 239.522 43.9463C242.15 49.9548 246.315 53.9346 248.833 52.8352C249.515 52.5376 250.008 51.8975 250.308 51.0035C250.543 50.3062 250.662 49.4562 250.668 48.4943C250.677 47.0882 250.441 45.4421 249.965 43.6833C249.653 42.5333 249.237 41.3335 248.717 40.1224C248.692 40.0612 248.666 40.0018 248.64 39.9423C246.015 33.9233 241.84 29.9347 239.321 31.033Z" fill="#F3F2F2"/>
<path d="M220.892 118.451C221.154 119.182 221.805 119.73 222.74 120.089C223.431 120.355 224.279 120.519 225.246 120.578C226.664 120.663 228.333 120.522 230.128 120.149C231.301 119.903 232.526 119.558 233.769 119.112C233.776 119.109 233.783 119.107 233.79 119.104C239.959 116.879 244.205 112.986 243.275 110.401C243.023 109.701 242.417 109.166 241.545 108.807C240.864 108.528 240.024 108.352 239.065 108.283C237.662 108.181 236.004 108.307 234.218 108.666C233.05 108.902 231.825 109.237 230.583 109.676C230.52 109.697 230.459 109.719 230.398 109.741C224.218 111.963 219.962 115.864 220.892 118.451Z" fill="#C2C2C2"/>
<path d="M220.892 118.451C221.154 119.182 221.805 119.73 222.74 120.089C223.431 120.355 224.279 120.519 225.246 120.578C226.664 120.663 228.333 120.522 230.128 120.149C231.301 119.903 232.526 119.558 233.769 119.112C233.776 119.109 233.783 119.107 233.79 119.104C239.959 116.879 244.205 112.986 243.275 110.401C243.023 109.701 242.417 109.166 241.545 108.807C240.864 108.528 240.024 108.352 239.065 108.283C237.662 108.181 236.004 108.307 234.218 108.666C233.05 108.902 231.825 109.237 230.583 109.676C230.52 109.697 230.459 109.719 230.398 109.741C224.218 111.963 219.962 115.864 220.892 118.451Z" fill="#C2C2C2"/>
<path d="M220.892 118.451C221.154 119.182 221.805 119.73 222.74 120.089C223.431 120.355 224.279 120.519 225.246 120.578C226.664 120.663 228.333 120.522 230.128 120.149C231.301 119.903 232.526 119.558 233.769 119.112C233.776 119.109 233.783 119.107 233.79 119.104C239.959 116.879 244.205 112.986 243.275 110.401C243.023 109.701 242.417 109.166 241.545 108.807C240.864 108.528 240.024 108.352 239.065 108.283C237.662 108.181 236.004 108.307 234.218 108.666C233.05 108.902 231.825 109.237 230.583 109.676C230.52 109.697 230.459 109.719 230.398 109.741C224.218 111.963 219.962 115.864 220.892 118.451Z" fill="#C2C2C2"/>
<path d="M222.867 118.185C223.232 118.871 223.955 119.319 224.932 119.54C225.653 119.704 226.517 119.744 227.482 119.664C228.898 119.544 230.529 119.164 232.252 118.536C233.377 118.124 234.539 117.606 235.705 116.986C235.712 116.982 235.718 116.978 235.725 116.975C241.51 113.885 245.152 109.422 243.859 106.997C243.509 106.341 242.832 105.9 241.917 105.67C241.204 105.491 240.347 105.438 239.388 105.508C237.985 105.608 236.363 105.972 234.646 106.584C233.524 106.986 232.36 107.493 231.194 108.107C231.135 108.136 231.078 108.167 231.02 108.197C225.225 111.286 221.575 115.759 222.867 118.185Z" fill="#C2C2C2"/>
<path d="M222.867 118.185C223.232 118.871 223.955 119.319 224.932 119.54C225.653 119.704 226.517 119.744 227.482 119.664C228.898 119.544 230.529 119.164 232.252 118.536C233.377 118.124 234.539 117.606 235.705 116.986C235.712 116.982 235.718 116.978 235.725 116.975C241.51 113.885 245.152 109.422 243.859 106.997C243.509 106.341 242.832 105.9 241.917 105.67C241.204 105.491 240.347 105.438 239.388 105.508C237.985 105.608 236.363 105.972 234.646 106.584C233.524 106.986 232.36 107.493 231.194 108.107C231.135 108.136 231.078 108.167 231.02 108.197C225.225 111.286 221.575 115.759 222.867 118.185Z" fill="#C2C2C2"/>
<path d="M222.867 118.185C223.232 118.871 223.955 119.319 224.932 119.54C225.653 119.704 226.517 119.744 227.482 119.664C228.898 119.544 230.529 119.164 232.252 118.536C233.377 118.124 234.539 117.606 235.705 116.986C235.712 116.982 235.718 116.978 235.725 116.975C241.51 113.885 245.152 109.422 243.859 106.997C243.509 106.341 242.832 105.9 241.917 105.67C241.204 105.491 240.347 105.438 239.388 105.508C237.985 105.608 236.363 105.972 234.646 106.584C233.524 106.986 232.36 107.493 231.194 108.107C231.135 108.136 231.078 108.167 231.02 108.197C225.225 111.286 221.575 115.759 222.867 118.185Z" fill="#F3F2F2"/>
<path d="M189.083 124.29C188.351 124.551 187.515 124.395 186.644 123.9C186 123.536 185.335 122.983 184.676 122.273C183.711 121.231 182.761 119.851 181.911 118.227C181.356 117.165 180.847 115.999 180.403 114.755C180.4 114.748 180.398 114.741 180.395 114.734C178.202 108.553 178.517 102.801 181.106 101.88C181.806 101.631 182.604 101.761 183.435 102.207C184.083 102.555 184.751 103.093 185.414 103.791C186.382 104.811 187.336 106.172 188.192 107.781C188.751 108.834 189.269 109.993 189.718 111.232C189.742 111.294 189.764 111.355 189.785 111.416C191.988 117.602 191.672 123.367 189.083 124.29Z" fill="#C2C2C2"/>
<path d="M189.083 124.29C188.351 124.551 187.515 124.395 186.644 123.9C186 123.536 185.335 122.983 184.676 122.273C183.711 121.231 182.761 119.851 181.911 118.227C181.356 117.165 180.847 115.999 180.403 114.755C180.4 114.748 180.398 114.741 180.395 114.734C178.202 108.553 178.517 102.801 181.106 101.88C181.806 101.631 182.604 101.761 183.435 102.207C184.083 102.555 184.751 103.093 185.414 103.791C186.382 104.811 187.336 106.172 188.192 107.781C188.751 108.834 189.269 109.993 189.718 111.232C189.742 111.294 189.764 111.355 189.785 111.416C191.988 117.602 191.672 123.367 189.083 124.29Z" fill="#C2C2C2"/>
<path d="M189.083 124.29C188.351 124.551 187.515 124.395 186.644 123.9C186 123.536 185.335 122.983 184.676 122.273C183.711 121.231 182.761 119.851 181.911 118.227C181.356 117.165 180.847 115.999 180.403 114.755C180.4 114.748 180.398 114.741 180.395 114.734C178.202 108.553 178.517 102.801 181.106 101.88C181.806 101.631 182.604 101.761 183.435 102.207C184.083 102.555 184.751 103.093 185.414 103.791C186.382 104.811 187.336 106.172 188.192 107.781C188.751 108.834 189.269 109.993 189.718 111.232C189.742 111.294 189.764 111.355 189.785 111.416C191.988 117.602 191.672 123.367 189.083 124.29Z" fill="#C2C2C2"/>
<path d="M187.544 123.482C186.782 123.635 185.977 123.361 185.187 122.745C184.602 122.292 184.023 121.65 183.473 120.852C182.668 119.682 181.926 118.18 181.319 116.45C180.923 115.319 180.586 114.092 180.326 112.797C180.325 112.79 180.323 112.783 180.322 112.775C179.041 106.344 180.18 100.697 182.874 100.158C183.604 100.012 184.375 100.255 185.132 100.816C185.723 101.254 186.308 101.883 186.862 102.669C187.675 103.817 188.423 105.302 189.038 107.017C189.44 108.139 189.786 109.361 190.051 110.652C190.066 110.716 190.079 110.78 190.092 110.843C191.381 117.282 190.239 122.942 187.544 123.482Z" fill="#C2C2C2"/>
<path d="M187.544 123.482C186.782 123.635 185.977 123.361 185.187 122.745C184.602 122.292 184.023 121.65 183.473 120.852C182.668 119.682 181.926 118.18 181.319 116.45C180.923 115.319 180.586 114.092 180.326 112.797C180.325 112.79 180.323 112.783 180.322 112.775C179.041 106.344 180.18 100.697 182.874 100.158C183.604 100.012 184.375 100.255 185.132 100.816C185.723 101.254 186.308 101.883 186.862 102.669C187.675 103.817 188.423 105.302 189.038 107.017C189.44 108.139 189.786 109.361 190.051 110.652C190.066 110.716 190.079 110.78 190.092 110.843C191.381 117.282 190.239 122.942 187.544 123.482Z" fill="#C2C2C2"/>
<path d="M187.544 123.482C186.782 123.635 185.977 123.361 185.187 122.745C184.602 122.292 184.023 121.65 183.473 120.852C182.668 119.682 181.926 118.18 181.319 116.45C180.923 115.319 180.586 114.092 180.326 112.797C180.325 112.79 180.323 112.783 180.322 112.775C179.041 106.344 180.18 100.697 182.874 100.158C183.604 100.012 184.375 100.255 185.132 100.816C185.723 101.254 186.308 101.883 186.862 102.669C187.675 103.817 188.423 105.302 189.038 107.017C189.44 108.139 189.786 109.361 190.051 110.652C190.066 110.716 190.079 110.78 190.092 110.843C191.381 117.282 190.239 122.942 187.544 123.482Z" fill="#F3F2F2"/>
<path d="M184.593 20.6808C184.952 20.0701 185.628 19.6891 186.526 19.5256C187.191 19.4033 187.979 19.4003 188.856 19.511C190.141 19.6748 191.613 20.0836 193.159 20.7218C194.168 21.1406 195.207 21.6571 196.246 22.2675C196.252 22.2708 196.258 22.2743 196.264 22.2776C201.416 25.3161 204.564 29.5234 203.292 31.6833C202.948 32.2675 202.314 32.6442 201.472 32.8184C200.815 32.9542 200.032 32.9693 199.161 32.8688C197.886 32.7232 196.422 32.3295 194.881 31.7056C193.874 31.2962 192.833 30.7888 191.794 30.1853C191.741 30.1561 191.69 30.1258 191.639 30.0958C186.476 27.0588 183.322 22.8421 184.593 20.6808Z" fill="#C2C2C2"/>
<path d="M184.593 20.6808C184.952 20.0701 185.628 19.6891 186.526 19.5256C187.191 19.4033 187.979 19.4003 188.856 19.511C190.141 19.6748 191.613 20.0836 193.159 20.7218C194.168 21.1406 195.207 21.6571 196.246 22.2675C196.252 22.2708 196.258 22.2743 196.264 22.2776C201.416 25.3161 204.564 29.5234 203.292 31.6833C202.948 32.2675 202.314 32.6442 201.472 32.8184C200.815 32.9542 200.032 32.9693 199.161 32.8688C197.886 32.7232 196.422 32.3295 194.881 31.7056C193.874 31.2962 192.833 30.7888 191.794 30.1853C191.741 30.1561 191.69 30.1258 191.639 30.0958C186.476 27.0588 183.322 22.8421 184.593 20.6808Z" fill="#C2C2C2"/>
<path d="M184.593 20.6808C184.952 20.0701 185.628 19.6891 186.526 19.5256C187.191 19.4033 187.979 19.4003 188.856 19.511C190.141 19.6748 191.613 20.0836 193.159 20.7218C194.168 21.1406 195.207 21.6571 196.246 22.2675C196.252 22.2708 196.258 22.2743 196.264 22.2776C201.416 25.3161 204.564 29.5234 203.292 31.6833C202.948 32.2675 202.314 32.6442 201.472 32.8184C200.815 32.9542 200.032 32.9693 199.161 32.8688C197.886 32.7232 196.422 32.3295 194.881 31.7056C193.874 31.2962 192.833 30.7888 191.794 30.1853C191.741 30.1561 191.69 30.1258 191.639 30.0958C186.476 27.0588 183.322 22.8421 184.593 20.6808Z" fill="#C2C2C2"/>
<path d="M183.959 23.1745C184.073 22.5978 184.504 22.146 185.173 21.828C185.667 21.592 186.293 21.4287 187.021 21.3415C188.09 21.2145 189.376 21.2517 190.784 21.4634C191.705 21.6027 192.677 21.8172 193.675 22.1091C193.68 22.1107 193.686 22.1124 193.692 22.1137C198.644 23.5699 202.33 26.3985 201.925 28.4389C201.816 28.9909 201.417 29.4306 200.796 29.7458C200.311 29.9917 199.693 30.1638 198.972 30.2585C197.917 30.3981 196.641 30.3716 195.241 30.1709C194.325 30.0385 193.354 29.8323 192.357 29.5462C192.307 29.5328 192.258 29.5184 192.209 29.5041C187.249 28.051 183.556 25.216 183.959 23.1745Z" fill="#C2C2C2"/>
<path d="M183.959 23.1745C184.073 22.5978 184.504 22.146 185.173 21.828C185.667 21.592 186.293 21.4287 187.021 21.3415C188.09 21.2145 189.376 21.2517 190.784 21.4634C191.705 21.6027 192.677 21.8172 193.675 22.1091C193.68 22.1107 193.686 22.1124 193.692 22.1137C198.644 23.5699 202.33 26.3985 201.925 28.4389C201.816 28.9909 201.417 29.4306 200.796 29.7458C200.311 29.9917 199.693 30.1638 198.972 30.2585C197.917 30.3981 196.641 30.3716 195.241 30.1709C194.325 30.0385 193.354 29.8323 192.357 29.5462C192.307 29.5328 192.258 29.5184 192.209 29.5041C187.249 28.051 183.556 25.216 183.959 23.1745Z" fill="#C2C2C2"/>
<path d="M183.959 23.1745C184.073 22.5978 184.504 22.146 185.173 21.828C185.667 21.592 186.293 21.4287 187.021 21.3415C188.09 21.2145 189.376 21.2517 190.784 21.4634C191.705 21.6027 192.677 21.8172 193.675 22.1091C193.68 22.1107 193.686 22.1124 193.692 22.1137C198.644 23.5699 202.33 26.3985 201.925 28.4389C201.816 28.9909 201.417 29.4306 200.796 29.7458C200.311 29.9917 199.693 30.1638 198.972 30.2585C197.917 30.3981 196.641 30.3716 195.241 30.1709C194.325 30.0385 193.354 29.8323 192.357 29.5462C192.307 29.5328 192.258 29.5184 192.209 29.5041C187.249 28.051 183.556 25.216 183.959 23.1745Z" fill="#EBEBEB"/>
<path d="M156.492 58.2367C157.177 58.0586 157.925 58.2673 158.676 58.7868C159.232 59.1698 159.792 59.7251 160.333 60.4233C161.127 61.4475 161.879 62.7779 162.521 64.3216C162.939 65.3317 163.308 66.4316 163.611 67.5976C163.613 67.6042 163.615 67.6108 163.617 67.6174C165.112 73.409 164.364 78.6098 161.937 79.2384C161.281 79.4083 160.566 79.2268 159.848 78.7544C159.287 78.3857 158.723 77.8431 158.177 77.1556C157.379 76.1518 156.622 74.838 155.973 73.3077C155.55 72.3061 155.173 71.2114 154.865 70.0493C154.848 69.9915 154.833 69.9342 154.818 69.877C153.314 64.079 154.065 58.8667 156.492 58.2367Z" fill="#C2C2C2"/>
<path d="M156.492 58.2367C157.177 58.0586 157.925 58.2673 158.676 58.7868C159.232 59.1698 159.792 59.7251 160.333 60.4233C161.127 61.4475 161.879 62.7779 162.521 64.3216C162.939 65.3317 163.308 66.4316 163.611 67.5976C163.613 67.6042 163.615 67.6108 163.617 67.6174C165.112 73.409 164.364 78.6098 161.937 79.2384C161.281 79.4083 160.566 79.2268 159.848 78.7544C159.287 78.3857 158.723 77.8431 158.177 77.1556C157.379 76.1518 156.622 74.838 155.973 73.3077C155.55 72.3061 155.173 71.2114 154.865 70.0493C154.848 69.9915 154.833 69.9342 154.818 69.877C153.314 64.079 154.065 58.8667 156.492 58.2367Z" fill="#C2C2C2"/>
<path d="M156.492 58.2367C157.177 58.0586 157.925 58.2673 158.676 58.7868C159.232 59.1698 159.792 59.7251 160.333 60.4233C161.127 61.4475 161.879 62.7779 162.521 64.3216C162.939 65.3317 163.308 66.4316 163.611 67.5976C163.613 67.6042 163.615 67.6108 163.617 67.6174C165.112 73.409 164.364 78.6098 161.937 79.2384C161.281 79.4083 160.566 79.2268 159.848 78.7544C159.287 78.3857 158.723 77.8431 158.177 77.1556C157.379 76.1518 156.622 74.838 155.973 73.3077C155.55 72.3061 155.173 71.2114 154.865 70.0493C154.848 69.9915 154.833 69.9342 154.818 69.877C153.314 64.079 154.065 58.8667 156.492 58.2367Z" fill="#C2C2C2"/>
<path d="M156.358 58.7208C156.91 58.5187 157.52 58.6525 158.139 59.0589C158.597 59.3584 159.062 59.8091 159.515 60.3862C160.178 61.2333 160.814 62.352 161.364 63.6655C161.723 64.5251 162.044 65.4669 162.313 66.471C162.315 66.4768 162.316 66.4826 162.318 66.4881C163.644 71.4766 163.14 76.0954 161.187 76.809C160.658 77.0017 160.075 76.8897 159.484 76.5226C159.022 76.236 158.554 75.7969 158.098 75.2292C157.431 74.4005 156.792 73.2965 156.236 71.9953C155.873 71.1437 155.546 70.2068 155.273 69.2066C155.258 69.157 155.245 69.1075 155.232 69.0582C153.899 64.0647 154.404 59.4358 156.358 58.7208Z" fill="#C2C2C2"/>
<path d="M156.358 58.7208C156.91 58.5187 157.52 58.6525 158.139 59.0589C158.597 59.3584 159.062 59.8091 159.515 60.3862C160.178 61.2333 160.814 62.352 161.364 63.6655C161.723 64.5251 162.044 65.4669 162.313 66.471C162.315 66.4768 162.316 66.4826 162.318 66.4881C163.644 71.4766 163.14 76.0954 161.187 76.809C160.658 77.0017 160.075 76.8897 159.484 76.5226C159.022 76.236 158.554 75.7969 158.098 75.2292C157.431 74.4005 156.792 73.2965 156.236 71.9953C155.873 71.1437 155.546 70.2068 155.273 69.2066C155.258 69.157 155.245 69.1075 155.232 69.0582C153.899 64.0647 154.404 59.4358 156.358 58.7208Z" fill="#C2C2C2"/>
<path d="M156.358 58.7208C156.91 58.5187 157.52 58.6525 158.139 59.0589C158.597 59.3584 159.062 59.8091 159.515 60.3862C160.178 61.2333 160.814 62.352 161.364 63.6655C161.723 64.5251 162.044 65.4669 162.313 66.471C162.315 66.4768 162.316 66.4826 162.318 66.4881C163.644 71.4766 163.14 76.0954 161.187 76.809C160.658 77.0017 160.075 76.8897 159.484 76.5226C159.022 76.236 158.554 75.7969 158.098 75.2292C157.431 74.4005 156.792 73.2965 156.236 71.9953C155.873 71.1437 155.546 70.2068 155.273 69.2066C155.258 69.157 155.245 69.1075 155.232 69.0582C153.899 64.0647 154.404 59.4358 156.358 58.7208Z" fill="#EBEBEB"/>
<path d="M246.863 52.017C247.222 51.4066 247.898 51.0256 248.796 50.862C249.461 50.7398 250.249 50.7368 251.126 50.8474C252.411 51.011 253.883 51.4198 255.429 52.0583C256.439 52.4768 257.478 52.9936 258.516 53.6039C258.522 53.6072 258.528 53.6108 258.534 53.6141C263.687 56.6526 266.834 60.86 265.563 63.0196C265.218 63.6041 264.585 63.9807 263.742 64.155C263.085 64.2907 262.302 64.3056 261.431 64.2054C260.156 64.0598 258.692 63.6661 257.152 63.0422C256.144 62.6328 255.103 62.1254 254.064 61.5216C254.011 61.4924 253.96 61.4624 253.909 61.4324C248.746 58.3953 245.592 54.1785 246.863 52.017Z" fill="#C2C2C2"/>
<path d="M246.863 52.017C247.222 51.4066 247.898 51.0256 248.796 50.862C249.461 50.7398 250.249 50.7368 251.126 50.8474C252.411 51.011 253.883 51.4198 255.429 52.0583C256.439 52.4768 257.478 52.9936 258.516 53.6039C258.522 53.6072 258.528 53.6108 258.534 53.6141C263.687 56.6526 266.834 60.86 265.563 63.0196C265.218 63.6041 264.585 63.9807 263.742 64.155C263.085 64.2907 262.302 64.3056 261.431 64.2054C260.156 64.0598 258.692 63.6661 257.152 63.0422C256.144 62.6328 255.103 62.1254 254.064 61.5216C254.011 61.4924 253.96 61.4624 253.909 61.4324C248.746 58.3953 245.592 54.1785 246.863 52.017Z" fill="#C2C2C2"/>
<path d="M246.863 52.017C247.222 51.4066 247.898 51.0256 248.796 50.862C249.461 50.7398 250.249 50.7368 251.126 50.8474C252.411 51.011 253.883 51.4198 255.429 52.0583C256.439 52.4768 257.478 52.9936 258.516 53.6039C258.522 53.6072 258.528 53.6108 258.534 53.6141C263.687 56.6526 266.834 60.86 265.563 63.0196C265.218 63.6041 264.585 63.9807 263.742 64.155C263.085 64.2907 262.302 64.3056 261.431 64.2054C260.156 64.0598 258.692 63.6661 257.152 63.0422C256.144 62.6328 255.103 62.1254 254.064 61.5216C254.011 61.4924 253.96 61.4624 253.909 61.4324C248.746 58.3953 245.592 54.1785 246.863 52.017Z" fill="#C2C2C2"/>
<path d="M246.229 54.5111C246.343 53.9343 246.774 53.4825 247.443 53.1645C247.937 52.9283 248.563 52.7653 249.292 52.6778C250.36 52.5511 251.646 52.5883 253.055 52.8C253.976 52.9393 254.947 53.1538 255.945 53.4456C255.95 53.447 255.956 53.4489 255.962 53.4503C260.914 54.9065 264.6 57.7351 264.195 59.7755C264.086 60.3275 263.687 60.7672 263.066 61.0825C262.582 61.3283 261.963 61.5001 261.242 61.5951C260.187 61.7344 258.912 61.7083 257.511 61.5075C256.595 61.3751 255.624 61.1689 254.628 60.8828C254.577 60.8694 254.529 60.855 254.48 60.8404C249.519 59.3876 245.826 56.5526 246.229 54.5111Z" fill="#C2C2C2"/>
<path d="M246.229 54.5111C246.343 53.9343 246.774 53.4825 247.443 53.1645C247.937 52.9283 248.563 52.7653 249.292 52.6778C250.36 52.5511 251.646 52.5883 253.055 52.8C253.976 52.9393 254.947 53.1538 255.945 53.4456C255.95 53.447 255.956 53.4489 255.962 53.4503C260.914 54.9065 264.6 57.7351 264.195 59.7755C264.086 60.3275 263.687 60.7672 263.066 61.0825C262.582 61.3283 261.963 61.5001 261.242 61.5951C260.187 61.7344 258.912 61.7083 257.511 61.5075C256.595 61.3751 255.624 61.1689 254.628 60.8828C254.577 60.8694 254.529 60.855 254.48 60.8404C249.519 59.3876 245.826 56.5526 246.229 54.5111Z" fill="#C2C2C2"/>
<path d="M246.229 54.5111C246.343 53.9343 246.774 53.4825 247.443 53.1645C247.937 52.9283 248.563 52.7653 249.292 52.6778C250.36 52.5511 251.646 52.5883 253.055 52.8C253.976 52.9393 254.947 53.1538 255.945 53.4456C255.95 53.447 255.956 53.4489 255.962 53.4503C260.914 54.9065 264.6 57.7351 264.195 59.7755C264.086 60.3275 263.687 60.7672 263.066 61.0825C262.582 61.3283 261.963 61.5001 261.242 61.5951C260.187 61.7344 258.912 61.7083 257.511 61.5075C256.595 61.3751 255.624 61.1689 254.628 60.8828C254.577 60.8694 254.529 60.855 254.48 60.8404C249.519 59.3876 245.826 56.5526 246.229 54.5111Z" fill="#F3F2F2"/>
<path d="M209.669 35.9617C209.08 35.3191 208.877 34.3863 209.009 33.2713C209.105 32.4464 209.387 31.5183 209.834 30.5277C210.49 29.0763 211.503 27.4932 212.812 25.9073C213.669 24.8713 214.652 23.8366 215.744 22.8364C215.75 22.8304 215.757 22.8248 215.763 22.8191C221.196 17.8597 227.279 15.68 229.359 17.955C229.921 18.5706 230.135 19.4516 230.036 20.5047C229.958 21.3266 229.693 22.2519 229.259 23.2403C228.628 24.6857 227.636 26.265 226.346 27.8505C225.501 28.8866 224.529 29.927 223.443 30.9308C223.39 30.9823 223.336 31.0313 223.282 31.0803C217.847 36.052 211.75 38.2364 209.669 35.9617Z" fill="#C2C2C2"/>
<path d="M209.669 35.9617C209.08 35.3191 208.877 34.3863 209.009 33.2713C209.105 32.4464 209.387 31.5183 209.834 30.5277C210.49 29.0763 211.503 27.4932 212.812 25.9073C213.669 24.8713 214.652 23.8366 215.744 22.8364C215.75 22.8304 215.757 22.8248 215.763 22.8191C221.196 17.8597 227.279 15.68 229.359 17.955C229.921 18.5706 230.135 19.4516 230.036 20.5047C229.958 21.3266 229.693 22.2519 229.259 23.2403C228.628 24.6857 227.636 26.265 226.346 27.8505C225.501 28.8866 224.529 29.927 223.443 30.9308C223.39 30.9823 223.336 31.0313 223.282 31.0803C217.847 36.052 211.75 38.2364 209.669 35.9617Z" fill="#C2C2C2"/>
<path d="M209.669 35.9617C209.08 35.3191 208.877 34.3863 209.009 33.2713C209.105 32.4464 209.387 31.5183 209.834 30.5277C210.49 29.0763 211.503 27.4932 212.812 25.9073C213.669 24.8713 214.652 23.8366 215.744 22.8364C215.75 22.8304 215.757 22.8248 215.763 22.8191C221.196 17.8597 227.279 15.68 229.359 17.955C229.921 18.5706 230.135 19.4516 230.036 20.5047C229.958 21.3266 229.693 22.2519 229.259 23.2403C228.628 24.6857 227.636 26.265 226.346 27.8505C225.501 28.8866 224.529 29.927 223.443 30.9308C223.39 30.9823 223.336 31.0313 223.282 31.0803C217.847 36.052 211.75 38.2364 209.669 35.9617Z" fill="#C2C2C2"/>
<path d="M212.398 35.4323C211.821 34.9959 211.553 34.2763 211.562 33.3658C211.567 32.6926 211.723 31.9121 212.019 31.0594C212.453 29.81 213.187 28.4078 214.179 26.9643C214.829 26.0208 215.589 25.0619 216.448 24.1159C216.453 24.1104 216.458 24.1049 216.463 24.0996C220.738 19.4068 225.85 16.8535 227.888 18.3989C228.44 18.8173 228.712 19.4944 228.726 20.3509C228.737 21.0191 228.594 21.7955 228.31 22.6443C227.897 23.8854 227.182 25.2818 226.206 26.7226C225.567 27.6645 224.816 28.6267 223.963 29.5746C223.922 29.6231 223.879 29.6693 223.837 29.7159C219.561 34.4186 214.438 36.9774 212.398 35.4323Z" fill="#C2C2C2"/>
<path d="M212.398 35.4323C211.821 34.9959 211.553 34.2763 211.562 33.3658C211.567 32.6926 211.723 31.9121 212.019 31.0594C212.453 29.81 213.187 28.4078 214.179 26.9643C214.829 26.0208 215.589 25.0619 216.448 24.1159C216.453 24.1104 216.458 24.1049 216.463 24.0996C220.738 19.4068 225.85 16.8535 227.888 18.3989C228.44 18.8173 228.712 19.4944 228.726 20.3509C228.737 21.0191 228.594 21.7955 228.31 22.6443C227.897 23.8854 227.182 25.2818 226.206 26.7226C225.567 27.6645 224.816 28.6267 223.963 29.5746C223.922 29.6231 223.879 29.6693 223.837 29.7159C219.561 34.4186 214.438 36.9774 212.398 35.4323Z" fill="#C2C2C2"/>
<path d="M212.398 35.4323C211.821 34.9959 211.553 34.2763 211.562 33.3658C211.567 32.6926 211.723 31.9121 212.019 31.0594C212.453 29.81 213.187 28.4078 214.179 26.9643C214.829 26.0208 215.589 25.0619 216.448 24.1159C216.453 24.1104 216.458 24.1049 216.463 24.0996C220.738 19.4068 225.85 16.8535 227.888 18.3989C228.44 18.8173 228.712 19.4944 228.726 20.3509C228.737 21.0191 228.594 21.7955 228.31 22.6443C227.897 23.8854 227.182 25.2818 226.206 26.7226C225.567 27.6645 224.816 28.6267 223.963 29.5746C223.922 29.6231 223.879 29.6693 223.837 29.7159C219.561 34.4186 214.438 36.9774 212.398 35.4323Z" fill="#F3F2F2"/>
<path d="M238.564 88.1106C237.865 88.6301 237.489 89.5073 237.407 90.6275C237.346 91.4554 237.447 92.4201 237.698 93.4774C238.068 95.0269 238.763 96.7732 239.747 98.5782C240.393 99.7577 241.162 100.96 242.045 102.149C242.05 102.155 242.055 102.162 242.06 102.169C246.457 108.067 252.017 111.359 254.49 109.519C255.159 109.021 255.535 108.196 255.637 107.143C255.716 106.322 255.631 105.363 255.393 104.31C255.046 102.772 254.371 101.033 253.405 99.2321C252.771 98.0548 252.013 96.8492 251.138 95.6579C251.095 95.5973 251.051 95.539 251.008 95.4806C246.612 89.57 241.039 86.2709 238.564 88.1106Z" fill="#C2C2C2"/>
<path d="M238.564 88.1106C237.865 88.6301 237.489 89.5073 237.407 90.6275C237.346 91.4554 237.447 92.4201 237.698 93.4774C238.068 95.0269 238.763 96.7732 239.747 98.5782C240.393 99.7577 241.162 100.96 242.045 102.149C242.05 102.155 242.055 102.162 242.06 102.169C246.457 108.067 252.017 111.359 254.49 109.519C255.159 109.021 255.535 108.196 255.637 107.143C255.716 106.322 255.631 105.363 255.393 104.31C255.046 102.772 254.371 101.033 253.405 99.2321C252.771 98.0548 252.013 96.8492 251.138 95.6579C251.095 95.5973 251.051 95.539 251.008 95.4806C246.612 89.57 241.039 86.2709 238.564 88.1106Z" fill="#C2C2C2"/>
<path d="M238.564 88.1106C237.865 88.6301 237.489 89.5073 237.407 90.6275C237.346 91.4554 237.447 92.4201 237.698 93.4774C238.068 95.0269 238.763 96.7732 239.747 98.5782C240.393 99.7577 241.162 100.96 242.045 102.149C242.05 102.155 242.055 102.162 242.06 102.169C246.457 108.067 252.017 111.359 254.49 109.519C255.159 109.021 255.535 108.196 255.637 107.143C255.716 106.322 255.631 105.363 255.393 104.31C255.046 102.772 254.371 101.033 253.405 99.2321C252.771 98.0548 252.013 96.8492 251.138 95.6579C251.095 95.5973 251.051 95.539 251.008 95.4806C246.612 89.57 241.039 86.2709 238.564 88.1106Z" fill="#C2C2C2"/>
<path d="M241.144 89.1469C240.495 89.4662 240.096 90.1223 239.932 91.0179C239.809 91.6798 239.815 92.4758 239.944 93.3689C240.134 94.678 240.589 96.1937 241.29 97.7991C241.749 98.8483 242.314 99.9339 242.979 101.026C242.983 101.032 242.987 101.038 242.99 101.044C246.3 106.461 250.836 109.936 253.13 108.805C253.751 108.498 254.146 107.885 254.322 107.047C254.459 106.393 254.466 105.603 254.348 104.716C254.178 103.419 253.739 101.913 253.054 100.313C252.604 99.2673 252.049 98.1804 251.392 97.0879C251.36 97.0326 251.327 96.9792 251.294 96.9255C247.986 91.4984 243.44 88.0161 241.144 89.1469Z" fill="#C2C2C2"/>
<path d="M241.144 89.1469C240.495 89.4662 240.096 90.1223 239.932 91.0179C239.809 91.6798 239.815 92.4758 239.944 93.3689C240.134 94.678 240.589 96.1937 241.29 97.7991C241.749 98.8483 242.314 99.9339 242.979 101.026C242.983 101.032 242.987 101.038 242.99 101.044C246.3 106.461 250.836 109.936 253.13 108.805C253.751 108.498 254.146 107.885 254.322 107.047C254.459 106.393 254.466 105.603 254.348 104.716C254.178 103.419 253.739 101.913 253.054 100.313C252.604 99.2673 252.049 98.1804 251.392 97.0879C251.36 97.0326 251.327 96.9792 251.294 96.9255C247.986 91.4984 243.44 88.0161 241.144 89.1469Z" fill="#C2C2C2"/>
<path d="M241.144 89.1469C240.495 89.4662 240.096 90.1223 239.932 91.0179C239.809 91.6798 239.815 92.4758 239.944 93.3689C240.134 94.678 240.589 96.1937 241.29 97.7991C241.749 98.8483 242.314 99.9339 242.979 101.026C242.983 101.032 242.987 101.038 242.99 101.044C246.3 106.461 250.836 109.936 253.13 108.805C253.751 108.498 254.146 107.885 254.322 107.047C254.459 106.393 254.466 105.603 254.348 104.716C254.178 103.419 253.739 101.913 253.054 100.313C252.604 99.2673 252.049 98.1804 251.392 97.0879C251.36 97.0326 251.327 96.9792 251.294 96.9255C247.986 91.4984 243.44 88.0161 241.144 89.1469Z" fill="#F3F2F2"/>
<path d="M246.149 51.8835L223.13 39.1359C209.145 31.3914 194.767 30.6051 191.016 37.3794L186.076 46.2997C182.325 53.074 190.62 64.8436 204.605 72.5881L227.624 85.3356C241.609 93.0801 237.713 101.383 241.465 94.6087L251.952 71.1245C249.54 59.7361 249.626 58.8441 246.149 51.8835Z" fill="#802742"/>
<path d="M218.808 85.2087L200.518 75.0803C189.407 68.9271 178.166 67.9718 175.411 72.9468L171.783 79.498C169.028 84.4731 175.802 93.4942 186.913 99.6473L205.203 109.776C218.011 113.092 219.508 112.662 226.216 109.642L233.938 105.358C236.694 100.383 229.919 91.3621 218.808 85.2087Z" fill="#90AC00"/>
<path d="M216.81 68.0519L202.392 60.0676C189.879 53.1381 176.385 53.5701 172.252 61.0326L169.331 66.3072C165.199 73.7697 169.472 89.9888 181.985 96.9183L196.403 104.903C208.916 111.832 222.41 111.4 226.542 103.938L231.984 94.1109C236.117 86.6484 229.323 74.9814 216.81 68.0519Z" fill="#A4C400"/>
<path d="M230.549 43.2439L216.13 35.2594C203.617 28.3301 187.076 34.2655 182.403 42.7035L178.859 49.1022C174.187 57.5402 180.542 69.9978 193.056 76.9273L207.474 84.9116C219.987 91.8411 231.393 95.1786 236.066 86.7406L244.745 71.0691C249.417 62.6311 243.062 50.1734 230.549 43.2439Z" fill="#BB3960"/>
<path d="M236.489 94.8226C235.24 88.1125 229.51 73.8353 221.91 69.6264C217.642 67.6469 216.143 67.3548 213.819 63.2622C211.386 59.0589 208.928 56.1383 205.438 52.7637C202.826 49.9824 199.622 47.8247 196.063 46.4503C197.31 47.3919 198.488 48.4197 199.591 49.5259C203.082 52.9005 206.087 56.7445 208.52 60.9475C210.844 65.0402 214.387 68.3038 218.655 70.2831C226.255 74.4922 229.393 84.8747 230.643 91.5848C231.035 93.6274 231.304 95.6923 231.446 97.7677C223.93 98.152 215.935 95.841 208.976 92.9821C220.962 101.293 237.293 101.005 237.293 101.005C237.15 98.9298 236.882 96.8652 236.489 94.8226Z" fill="#DFC49C"/>
<path d="M234.417 44.623C236.8 46.944 236.616 44.2905 238.29 46.7678C239.286 53.5054 240.481 64.2963 239.033 68.5106C237.93 71.7269 234.968 78.5215 233.677 80.5399C232.246 80.5451 231.364 77.3142 229.778 76.9643C231.161 75.0921 233.943 70.9868 235.269 67.0495C237.713 59.7846 237.425 52.2659 234.417 44.623Z" fill="#8A1136"/>
<path d="M209.748 33.053C211.474 32.8889 213.359 33.0183 215.356 33.4264C215.359 33.4294 215.359 33.4294 215.359 33.4294C221.386 40.999 226.52 50.5724 227.086 61.5816C227.36 66.9099 227.116 70.0885 226.233 72.9556C225.015 72.4298 224.094 71.7817 222.861 71.0881C223.574 68.5505 223.292 66.0283 223.03 61.5503C222.467 51.9711 217.914 42.2366 209.748 33.053Z" fill="#8A1136"/>
<path d="M202.285 30.9727C202.986 30.2051 203.861 30.8772 204.795 30.3989C210.579 41.7462 209.648 51.6902 208.733 56.9816C207.411 55.4836 206.221 53.9536 205.179 52.414L205.176 52.411C205.553 47.2237 205.194 39.583 201.57 31.8768C201.788 31.5597 202.026 31.2565 202.285 30.9727Z" fill="#C12038"/>
<path d="M237.92 44.557L217.367 33.1753C203.744 25.6503 186.601 30.5738 179.046 44.1806L169.941 60.623C162.416 74.2463 167.339 91.3899 180.946 98.9444L201.499 110.326C215.122 117.851 232.266 112.928 239.821 99.3208L248.926 82.8784C256.451 69.2553 251.527 52.1115 237.92 44.557ZM202.802 107.974L182.249 96.5921C172.885 91.3839 166.153 78.8668 171.242 64.8472C178.232 72.9672 190.442 77.6295 194.249 81.8369C204.608 93.2861 219.715 102.752 233.027 103.311C226.584 111.424 211.814 112.95 202.802 107.974ZM199.511 82.6513C195.77 79.3747 196.444 76.4527 189.322 73.6844C182.2 70.9161 174.197 67.0506 173.042 61.5957C173.042 61.5957 180.445 48.2284 183.274 43.9725C188.137 41.1582 197.18 46.1659 200.717 49.6983C212.386 61.3515 211.5 64.3246 222.542 72.3274C232.219 78.059 236.579 90.6441 236.289 99.6936C227.087 100.966 216.119 98.0392 207.794 92.0455L199.511 82.6513ZM239.325 94.2103C234.776 82.2499 234.142 78.2795 225.857 71.6457C216.699 64.3134 213.409 61.4897 209.689 55.6606C203.118 45.3628 196.694 41.3338 186.33 40.1579C193.872 31.4308 207.592 31.1756 215.927 35.7765L236.48 47.1582C247.819 53.4539 253.065 69.3699 246.794 80.7227L239.325 94.2103Z" fill="black"/>
<path d="M232.839 103.365C232.839 103.365 216.193 103.588 197.784 85.6828C192.875 80.9082 193.137 80.4344 187.675 77.0947C181.381 73.2472 178.191 72.4724 171.094 64.8293L183.487 43.3037C185.969 39.9577 185.667 39.8927 188.055 40.1689C191.65 40.4673 198.247 42.5821 203.747 48.0719C207.429 51.6291 210.585 55.7748 213.153 60.2042C216.928 64.1834 219.419 66.5065 223.836 69.8968C231.851 74.3355 238.016 86.8328 239.338 93.9027C238.353 96.8189 235.805 101.703 232.839 103.365Z" fill="#FFE0B2"/>
<path d="M172.644 178.088C168.797 178.088 165.63 177.202 163.144 175.429L164.956 171.186C166.95 172.677 169.337 173.424 172.118 173.424C173.059 173.424 173.81 173.262 174.372 172.938C174.948 172.614 175.236 172.199 175.236 171.693C175.236 171.256 175.018 170.898 174.582 170.616C174.161 170.32 173.613 170.088 172.939 169.92C172.265 169.751 171.521 169.582 170.707 169.413C169.892 169.23 169.077 168.998 168.263 168.716C167.449 168.421 166.704 168.062 166.03 167.64C165.356 167.204 164.801 166.598 164.366 165.824C163.945 165.036 163.727 164.115 163.713 163.059C163.685 161.061 164.471 159.386 166.072 158.035C167.673 156.685 169.716 156.009 172.202 156.009C175.558 156.009 178.248 156.818 180.27 158.437L178.543 162.848C177.7 162.215 176.668 161.687 175.446 161.265C174.239 160.843 173.073 160.632 171.949 160.632C171.177 160.632 170.552 160.794 170.075 161.117C169.597 161.441 169.358 161.842 169.358 162.32C169.358 162.686 169.527 163.01 169.864 163.292C170.201 163.559 170.637 163.777 171.17 163.946C171.718 164.115 172.336 164.305 173.024 164.516C173.726 164.713 174.435 164.91 175.151 165.107C175.868 165.304 176.57 165.578 177.258 165.93C177.96 166.282 178.585 166.683 179.133 167.133C179.68 167.569 180.123 168.147 180.46 168.864C180.811 169.582 180.993 170.398 181.007 171.313C181.007 173.283 180.221 174.908 178.648 176.189C177.089 177.455 175.088 178.088 172.644 178.088ZM198.344 156.431H204.432V177.666H198.344V175.155C197.74 176.055 196.919 176.773 195.879 177.308C194.854 177.828 193.752 178.088 192.572 178.088C189.89 178.088 187.776 177.23 186.232 175.513C184.701 173.796 183.936 171.432 183.936 168.421V156.431H190.023V167.428C190.023 168.878 190.388 170.004 191.118 170.806C191.863 171.608 192.867 172.009 194.131 172.009C194.959 172.009 195.753 171.798 196.511 171.376C197.284 170.94 197.894 170.356 198.344 169.624V156.431ZM217.092 178.088C213.244 178.088 210.077 177.202 207.591 175.429L209.403 171.186C211.397 172.677 213.785 173.424 216.565 173.424C217.506 173.424 218.257 173.262 218.819 172.938C219.395 172.614 219.683 172.199 219.683 171.693C219.683 171.256 219.465 170.898 219.03 170.616C218.608 170.32 218.061 170.088 217.387 169.92C216.713 169.751 215.969 169.582 215.154 169.413C214.339 169.23 213.525 168.998 212.71 168.716C211.896 168.421 211.152 168.062 210.477 167.64C209.803 167.204 209.249 166.598 208.813 165.824C208.392 165.036 208.174 164.115 208.16 163.059C208.132 161.061 208.919 159.386 210.519 158.035C212.12 156.685 214.164 156.009 216.649 156.009C220.006 156.009 222.695 156.818 224.717 158.437L222.99 162.848C222.147 162.215 221.115 161.687 219.893 161.265C218.686 160.843 217.52 160.632 216.397 160.632C215.624 160.632 214.999 160.794 214.522 161.117C214.044 161.441 213.806 161.842 213.806 162.32C213.806 162.686 213.974 163.01 214.311 163.292C214.648 163.559 215.083 163.777 215.617 163.946C216.165 164.115 216.783 164.305 217.471 164.516C218.173 164.713 218.882 164.91 219.599 165.107C220.315 165.304 221.017 165.578 221.705 165.93C222.407 166.282 223.032 166.683 223.58 167.133C224.128 167.569 224.57 168.147 224.907 168.864C225.258 169.582 225.441 170.398 225.455 171.313C225.455 173.283 224.668 174.908 223.095 176.189C221.537 177.455 219.535 178.088 217.092 178.088ZM240.558 156.009C243.226 156.009 245.326 156.874 246.857 158.605C248.401 160.322 249.174 162.672 249.174 165.656V177.666H243.086V166.69C243.086 165.24 242.721 164.108 241.991 163.292C241.26 162.475 240.263 162.067 238.999 162.067C238.157 162.067 237.356 162.285 236.598 162.722C235.854 163.144 235.257 163.714 234.807 164.431V177.666H228.72V147.397H234.807V158.901C235.411 158.014 236.226 157.31 237.251 156.79C238.276 156.269 239.378 156.009 240.558 156.009ZM253.914 147.249C254.644 146.517 255.514 146.151 256.526 146.151C257.537 146.151 258.407 146.517 259.138 147.249C259.868 147.967 260.233 148.825 260.233 149.824C260.233 150.837 259.868 151.71 259.138 152.442C258.407 153.174 257.537 153.539 256.526 153.539C255.514 153.539 254.644 153.174 253.914 152.442C253.183 151.71 252.818 150.837 252.818 149.824C252.818 148.825 253.183 147.967 253.914 147.249ZM253.492 156.431H259.58V177.666H253.492V156.431Z" fill="black"/>
<path d="M31.5207 156.015C33.3359 156.015 34.9964 156.507 36.5018 157.493C38.0218 158.464 39.211 159.795 40.0691 161.485C40.9416 163.174 41.3777 165.026 41.3777 167.039C41.3777 169.053 40.9416 170.911 40.0691 172.615C39.211 174.305 38.0218 175.642 36.5018 176.628C34.9964 177.614 33.3359 178.106 31.5207 178.106C30.1838 178.106 28.9316 177.839 27.7637 177.304C26.6097 176.754 25.7725 176.044 25.2518 175.17V184.696H19.1519V156.437H25.2518V158.95C25.7725 158.077 26.6097 157.373 27.7637 156.838C28.9316 156.289 30.1838 156.015 31.5207 156.015ZM30.1909 172.319C31.6686 172.319 32.9067 171.82 33.9058 170.82C34.905 169.806 35.4044 168.546 35.4044 167.039C35.4044 165.547 34.8978 164.294 33.8846 163.28C32.8855 162.266 31.6545 161.759 30.1909 161.759C29.1637 161.759 28.1998 162.013 27.2992 162.52C26.3987 163.012 25.7163 163.653 25.2518 164.442V169.637C25.7163 170.44 26.3917 171.087 27.2781 171.58C28.1646 172.073 29.1356 172.319 30.1909 172.319ZM45.1983 147.25C45.9299 146.518 46.8026 146.151 47.8158 146.151C48.8287 146.151 49.7012 146.518 50.4327 147.25C51.1645 147.968 51.5307 148.827 51.5307 149.826C51.5307 150.84 51.1645 151.713 50.4327 152.445C49.7012 153.177 48.8287 153.544 47.8158 153.544C46.8026 153.544 45.9299 153.177 45.1983 152.445C44.4665 151.713 44.1009 150.84 44.1009 149.826C44.1009 148.827 44.4665 147.968 45.1983 147.25ZM44.7763 156.437H50.8762V177.684H44.7763V156.437ZM73.1865 156.437V160.767L62.9072 171.855H73.3343V177.684H54.0421V173.354L64.3848 162.245H54.8232V156.437H73.1865ZM94.9692 156.437V160.767L84.6902 171.855H95.1171V177.684H75.8249V173.354L86.1675 162.245H76.606V156.437H94.9692ZM113.649 156.437H119.749V177.684H113.649V175.17C113.128 176.044 112.284 176.754 111.116 177.304C109.963 177.839 108.717 178.106 107.38 178.106C105.565 178.106 103.898 177.614 102.378 176.628C100.858 175.642 99.6623 174.305 98.7896 172.615C97.9173 170.911 97.4812 169.053 97.4812 167.039C97.4812 163.97 98.4377 161.365 100.352 159.225C102.28 157.085 104.622 156.015 107.38 156.015C108.703 156.015 109.948 156.289 111.116 156.838C112.284 157.387 113.128 158.091 113.649 158.95V156.437ZM108.731 172.319C109.758 172.319 110.715 172.073 111.602 171.58C112.502 171.087 113.185 170.454 113.649 169.68V164.484C113.185 163.681 112.502 163.026 111.602 162.52C110.715 162.013 109.758 161.759 108.731 161.759C107.24 161.759 105.987 162.266 104.974 163.28C103.961 164.28 103.454 165.533 103.454 167.039C103.454 168.546 103.961 169.806 104.974 170.82C105.987 171.82 107.24 172.319 108.731 172.319Z" fill="black"/>
<path d="M47.5046 84.2465H67.1216V99.7599C67.1216 102.549 66.9818 104.87 66.7227 106.751C66.479 108.522 66.027 110.179 65.3728 111.735C64.8794 112.847 64.2129 113.573 63.3726 114.07C62.5092 114.582 61.2733 114.946 59.4738 114.946C57.7247 114.946 56.575 114.482 55.7352 113.78C54.8504 113.039 53.9627 111.739 53.3097 109.487C52.9788 108.307 52.3428 107.036 51.1625 106.068C49.9395 105.066 48.5089 104.697 47.1783 104.697H29.442C27.9784 104.697 26.026 105.139 24.701 106.909C23.4912 108.526 23.4666 110.403 23.6274 111.691L23.6365 111.765L23.6485 111.838C25.2183 121.433 29.1743 129.229 35.7206 134.875L35.7404 134.892L35.7605 134.909C42.3842 140.468 50.6807 143.123 60.3444 143.123C67.0396 143.123 72.9747 142.084 78.0213 139.846L78.0345 139.84L78.0477 139.834C83.1417 137.529 87.2012 134.195 90.048 129.787L90.0574 129.772L90.0665 129.758C92.7082 125.587 94.5773 120.994 95.6866 116.007C96.1469 114.065 96.7876 109.978 96.7876 101.255C96.7876 114.946 102.641 124.482 108.777 130.463L108.79 130.475L108.803 130.488C117.58 138.887 128.154 143.123 140.321 143.123C152.423 143.123 162.959 138.882 171.731 130.488L171.738 130.481L171.745 130.475C180.527 121.992 185.012 111.688 185.012 99.7599C185.012 87.8333 180.528 77.5612 171.738 69.1477C162.969 60.6808 152.432 56.3971 140.321 56.3971C128.143 56.3971 117.565 60.6775 108.79 69.1532C103.272 74.4814 97.0668 84.9006 96.7876 101.255L97.4178 64.3252C97.4178 62.6182 96.8383 60.9324 95.5181 59.6095C94.1971 58.2858 92.5144 57.7054 90.8112 57.7054H47.5046C45.8014 57.7054 44.119 58.2858 42.7983 59.6092C41.4776 60.9327 40.8983 62.6187 40.8983 64.3252V77.6267C40.8983 79.3334 41.4776 81.0194 42.7983 82.3429C44.119 83.6661 45.8014 84.2465 47.5046 84.2465ZM151.098 88.2598L151.11 88.2736L151.123 88.2868C154.188 91.4755 155.695 95.2276 155.695 99.7599C155.695 104.38 154.178 108.164 151.123 111.342C148.061 114.528 144.529 116.037 140.321 116.037C136.031 116.037 132.47 114.52 129.423 111.355C126.344 108.086 124.839 104.288 124.839 99.7599C124.839 95.2273 126.346 91.4755 129.41 88.2871C132.461 85.1132 136.025 83.5923 140.321 83.5923C144.616 83.5923 148.129 85.1104 151.098 88.2598ZM253.421 67.1109L253.484 66.9908L253.538 66.8669C254.239 65.261 254.858 62.7324 253.32 60.4206C251.954 58.3692 249.796 57.7054 247.91 57.7054H230.283C228.606 57.7054 226.283 57.9284 224.568 59.4325L224.471 59.5175L224.38 59.6087C223.28 60.7097 222.467 62.4015 221.823 63.9673C221.278 65.1561 218.64 71.1644 213.937 81.925L206.032 64.0639C205.438 62.4524 204.596 60.6172 203.245 59.4325L203.245 59.4319C201.553 57.9488 199.303 57.7054 197.639 57.7054H179.903C178.185 57.7054 176.052 58.2197 174.618 60.1354C172.855 62.4902 173.633 65.1784 174.276 66.6497L174.302 66.7094L174.33 66.7681C175.161 68.5111 183.378 84.2564 198.867 113.804V135.195C198.867 136.927 199.505 138.478 200.591 139.722L200.676 139.819L200.767 139.911C202.012 141.158 203.62 141.814 205.365 141.814H222.448C224.152 141.814 225.834 141.234 227.154 139.912L227.155 139.911C228.475 138.587 229.054 136.902 229.054 135.195V113.8L253.421 67.1109Z" fill="white"/>
<path d="M96.7876 101.255C96.7876 109.978 96.1469 114.065 95.6866 116.007C94.5773 120.994 92.7082 125.587 90.0665 129.758L90.0574 129.772L90.0481 129.787C87.2012 134.195 83.1417 137.529 78.0477 139.834L78.0345 139.84L78.0213 139.846C72.9747 142.084 67.0396 143.123 60.3444 143.123C50.6807 143.123 42.3842 140.468 35.7605 134.909L35.7404 134.892L35.7206 134.875C29.1743 129.229 25.2183 121.433 23.6485 111.838L23.6365 111.765L23.6274 111.691C23.4666 110.403 23.4912 108.526 24.701 106.909C26.026 105.139 27.9784 104.697 29.442 104.697H47.1783C48.5089 104.697 49.9395 105.066 51.1625 106.068C52.3428 107.036 52.9788 108.307 53.3097 109.487C53.9627 111.739 54.8504 113.039 55.7352 113.78C56.575 114.482 57.7247 114.946 59.4738 114.946C61.2733 114.946 62.5092 114.582 63.3726 114.07C64.2129 113.573 64.8794 112.847 65.3728 111.735C66.027 110.179 66.479 108.522 66.7227 106.751C66.9818 104.87 67.1216 102.549 67.1216 99.7599V84.2465H47.5046C45.8014 84.2465 44.119 83.6661 42.7983 82.3429C41.4776 81.0194 40.8983 79.3334 40.8983 77.6267V64.3252C40.8983 62.6187 41.4776 60.9327 42.7983 59.6092C44.119 58.2858 45.8014 57.7054 47.5046 57.7054H90.8112C92.5144 57.7054 94.1971 58.2858 95.5181 59.6095C96.8383 60.9324 97.4178 62.6182 97.4178 64.3252L96.7876 101.255ZM96.7876 101.255C96.7876 114.946 102.641 124.482 108.777 130.463L108.79 130.475L108.803 130.488C117.58 138.887 128.154 143.123 140.321 143.123C152.423 143.123 162.959 138.882 171.731 130.488L171.738 130.481L171.745 130.475C180.527 121.992 185.012 111.688 185.012 99.7599C185.012 87.8333 180.528 77.5612 171.738 69.1477C162.969 60.6808 152.432 56.3971 140.321 56.3971C128.143 56.3971 117.565 60.6775 108.79 69.1532C103.272 74.4814 97.0668 84.9006 96.7876 101.255ZM151.098 88.2598L151.11 88.2736L151.123 88.2868C154.188 91.4755 155.695 95.2276 155.695 99.7599C155.695 104.38 154.178 108.164 151.123 111.342C148.061 114.528 144.529 116.037 140.321 116.037C136.031 116.037 132.47 114.52 129.423 111.355C126.344 108.086 124.839 104.288 124.839 99.7599C124.839 95.2273 126.346 91.4755 129.41 88.2871C132.461 85.1132 136.025 83.5923 140.321 83.5923C144.616 83.5923 148.129 85.1104 151.098 88.2598ZM253.421 67.1109L253.484 66.9908L253.538 66.8669C254.239 65.261 254.858 62.7324 253.32 60.4206C251.954 58.3692 249.796 57.7054 247.91 57.7054H230.282C228.606 57.7054 226.283 57.9284 224.568 59.4325L224.471 59.5175L224.38 59.6087C223.28 60.7097 222.467 62.4015 221.823 63.9673C221.278 65.1561 218.64 71.1644 213.937 81.925L206.032 64.0639C205.438 62.4524 204.596 60.6172 203.245 59.4325L203.245 59.4319C201.553 57.9488 199.303 57.7054 197.639 57.7054H179.903C178.185 57.7054 176.052 58.2197 174.618 60.1354C172.855 62.4902 173.633 65.1784 174.276 66.6497L174.302 66.7094L174.33 66.7681C175.161 68.5111 183.378 84.2564 198.867 113.804V135.195C198.867 136.927 199.505 138.478 200.591 139.722L200.676 139.819L200.767 139.911C202.012 141.158 203.62 141.814 205.365 141.814H222.448C224.152 141.814 225.834 141.234 227.154 139.912L227.155 139.911C228.475 138.587 229.054 136.902 229.054 135.195V113.8L253.421 67.1109Z" stroke="black" stroke-width="6.88299"/>
<path d="M154.454 177.647H149.6L147.325 175.226C145.401 177.158 143.002 178.124 140.128 178.124C137.842 178.124 135.941 177.556 134.424 176.419C132.727 175.123 131.878 173.259 131.878 170.827C131.878 167.576 133.576 165.143 136.97 163.529C135.228 161.438 134.357 159.528 134.357 157.8C134.357 155.913 135.126 154.436 136.665 153.367C138 152.435 139.573 151.969 141.384 151.969C143.036 151.969 144.451 152.401 145.628 153.265C146.94 154.288 147.597 155.709 147.597 157.527C147.597 159.21 147.076 160.619 146.035 161.756C145.311 162.574 144.1 163.438 142.403 164.348L147.325 169.94C148.253 168.258 148.717 166.189 148.717 163.734H152.146C152.123 165.234 151.886 166.791 151.433 168.406C150.98 170.02 150.403 171.338 149.702 172.361L154.454 177.647ZM139.109 165.984C136.755 167.121 135.579 168.667 135.579 170.622C135.579 171.918 136.043 172.941 136.97 173.691C137.853 174.441 138.962 174.817 140.297 174.817C142.176 174.817 143.794 174.134 145.152 172.771L139.109 165.984ZM140.23 161.995C141.452 161.404 142.267 160.915 142.674 160.528C143.466 159.801 143.862 158.948 143.862 157.971C143.862 156.152 142.991 155.243 141.248 155.243C140.343 155.243 139.585 155.493 138.973 155.993C138.385 156.47 138.091 157.13 138.091 157.971C138.091 159.13 138.804 160.471 140.23 161.995Z" fill="black"/>
</svg>
