<svg width="120" height="150" viewBox="0 0 120 150" fill="none" xmlns="http://www.w3.org/2000/svg">
<path d="M119.133 35.8359C118.732 35.4258 118.175 35.1914 117.603 35.1914H94.5155H90.9109V19.7754C90.9109 19.7716 90.9104 19.7678 90.9104 19.764C90.904 8.86494 82.1676 0 71.4301 0C67.1115 0 63.1185 1.43584 59.885 3.85928C56.6516 1.43584 52.6586 0 48.34 0C37.5984 0 28.8594 8.87139 28.8594 19.7757C28.8594 19.7777 28.8597 19.7795 28.8597 19.7815V35.1917H2.16448C1.59594 35.1917 1.03606 35.4261 0.634914 35.8362C0.230878 36.2435 0 36.8118 0 37.389V109.717C0 110.927 0.969686 111.914 2.16448 111.914C3.35927 111.914 4.32895 110.927 4.32895 109.717V39.5859H28.8597V52.0368C28.8597 53.2497 29.8294 54.2341 31.0242 54.2341C32.219 54.2341 33.1887 53.2497 33.1887 52.0368V39.5859H63.4913V52.0368C63.4913 53.2497 64.461 54.2341 65.6558 54.2341C66.8477 54.2341 67.8203 53.2497 67.8203 52.0368V39.5859H92.351V71.6309V80.4199V145.605H4.32895V118.506C4.32895 117.293 3.35927 116.309 2.16448 116.309C0.969686 116.309 0 117.293 0 118.506V147.803C0 148.38 0.230878 148.948 0.634914 149.355C1.03606 149.766 1.59594 150 2.16448 150H94.5155H117.603C118.157 150 118.711 149.786 119.134 149.356C119.499 148.985 119.706 148.514 119.755 148.029C119.756 148.026 119.756 148.022 119.757 148.019C119.764 147.949 119.767 147.879 119.767 147.809C119.767 147.807 119.768 147.805 119.768 147.803V37.3887C119.768 36.8115 119.537 36.2432 119.133 35.8359ZM51.9503 35.1914H33.1887V19.7754C33.1887 19.7742 33.1884 19.773 33.1884 19.7716C33.1907 11.2922 39.9866 4.39453 48.34 4.39453C51.4049 4.39453 54.2583 5.32588 56.6452 6.92051C53.7218 10.3802 51.9495 14.8708 51.9495 19.7757C51.9495 19.7815 51.9503 19.7871 51.9503 19.7927V35.1914ZM63.4916 19.7754V35.1914H56.2793V19.7754C56.2793 19.7716 56.2787 19.7681 56.2787 19.7643C56.2816 15.9791 57.6406 12.5118 59.885 9.83057C62.1309 12.5136 63.4905 15.9835 63.4916 19.7716C63.4916 19.7728 63.4916 19.7742 63.4916 19.7754ZM86.582 35.1917H67.8203V19.7815C67.8203 19.7795 67.8206 19.7777 67.8206 19.7757C67.8206 14.8708 66.0483 10.3805 63.1248 6.92051C65.5118 5.32588 68.3652 4.39453 71.4301 4.39453C79.7847 4.39453 86.5817 11.2945 86.5817 19.7757C86.5817 19.7777 86.582 19.7795 86.582 19.7815V35.1917ZM96.68 80.4199V71.6309V39.5859H103.894V135.173L96.68 142.497V80.4199ZM99.7397 145.605L106.059 139.19L112.378 145.605H99.7397ZM115.439 142.498L108.223 135.173V39.5859H115.439V142.498Z" fill="#323232"/>
<path d="M37.9231 100.025L42.5865 95.1642C44.4272 94.3147 45.2118 93.109 45.3592 91.0871L34.1161 63.3784C32.4824 62.178 29.4434 60.7285 27.6024 61.5773L18.4242 63.7063C9.34327 67.8949 4.69066 79.6481 8.8793 88.729L10.6295 92.5233C14.8181 101.604 27.5334 105.341 37.9231 100.025Z" fill="#BD8606"/>
<path d="M40.9002 98.3189C30.6279 103.575 16.8335 99.3 11.5778 89.0276C6.32211 78.7552 12.1529 67.4649 22.4253 62.2093C34.971 61.1075 38.7525 63.4814 46.5385 72.6073C49.999 83.6711 48.6372 90.3267 40.9002 98.3189Z" fill="#FAC038"/>
<path d="M9.70208 91.454C14.8552 101.526 27.1973 105.513 37.269 100.36C47.3407 95.2069 51.3281 82.8648 46.1751 72.7931C41.022 62.7214 28.6799 58.734 18.6081 63.887C8.53641 69.0401 4.54906 81.3822 9.70208 91.454Z" stroke="black" stroke-width="0.816126"/>
<path d="M13.2809 89.6688C17.4587 97.8345 27.4653 101.067 35.6309 96.8894C43.7232 92.7492 46.5416 83.0953 42.3253 74.8545C38.1036 66.6032 28.5838 63.1836 20.5016 67.3188C12.3358 71.4967 9.10308 81.5031 13.2809 89.6688Z" fill="#F5F5F5" stroke="black" stroke-width="4.08063"/>
<path d="M26.237 89.8056C26.2386 89.8054 24.1281 99.5623 24.1298 99.5622C24.471 99.5277 26.1201 99.7714 26.1726 99.4446C26.3855 99.6864 28.2761 100.306 28.5802 100.161C28.8746 100.021 30.2582 99.7398 30.2236 99.429C30.4772 99.599 32.5944 99.6253 32.852 99.432C33.1052 99.2416 34.5675 98.7088 34.4878 98.4176C34.758 98.5431 36.3647 98.0771 36.5904 97.8562C36.8149 97.6369 37.7281 96.8623 37.6161 96.5855C37.8963 96.6773 39.2626 96.011 39.4618 95.768C39.6595 95.526 40.2214 94.857 40.0826 94.5948C40.3685 94.6566 41.5241 93.9503 41.6989 93.6915C41.873 93.4329 42.3394 92.2151 42.1793 91.968C42.4688 92.0039 43.4059 91.0464 43.5572 90.7732C43.7087 90.5002 43.6417 89.4052 43.462 89.1728C43.7527 89.1831 44.9312 87.6286 45.0586 87.3427C45.1859 87.0562 44.9237 85.5219 44.7231 85.3067C45.0151 85.2906 45.4741 83.4736 45.5753 83.177C45.6764 82.8802 45 81.6846 44.7808 81.4888C45.07 81.4443 45.3144 80.2035 45.3872 79.8978C45.4606 79.5904 44.6506 77.9105 44.4108 77.7375C44.6969 77.6625 44.7457 76.8082 44.7542 76.4952C44.7542 76.4952 44.6737 76.0542 44.4059 75.67C44.0609 75.2834 43.4705 75.0386 43.2056 74.8967C43.4845 74.7817 43.1753 73.37 43.1639 73.0473C43.1527 72.7197 41.6991 71.7861 41.4077 71.693C41.6684 71.5226 40.8674 70.4453 40.7861 70.1232C40.7011 69.7873 39.2518 69.115 38.9254 69.109C39.1409 68.8422 38.2264 67.8572 38.0047 67.5749C37.7702 67.2747 36.3778 66.8409 36.0627 67.0326C36.0909 66.6583 34.9051 65.7575 34.5324 65.6823C34.1757 65.6101 32.8723 65.4089 32.7432 65.7394C32.5731 65.4472 31.0062 64.5075 30.672 64.6105C30.3529 64.7081 29.1013 64.6638 29.1001 64.9847C28.8623 64.7844 27.0758 64.1924 26.798 64.3653C26.527 64.5343 25.2037 64.8177 25.2622 65.1165C25.0001 64.9712 23.6563 64.617 23.415 64.8245C23.1759 65.03 21.9767 65.5164 22.0739 65.8009C21.7976 65.6929 20.2527 65.8494 20.0408 66.0826C19.8295 66.314 18.8216 67.139 18.9469 67.408C18.6636 67.3316 17.0677 67.7227 16.8812 67.9739C16.6953 68.2251 15.8462 69.3943 15.9951 69.6483C15.7076 69.6002 14.7189 70.1728 14.5559 70.4391C14.3928 70.7048 14.2615 71.5891 13.9842 72.113C13.5937 72.2575 13.0212 72.583 12.8814 72.862C12.475 73.673 12.925 73.5212 12.3739 74.5624C12.0933 75.0929 11.5239 75.2988 11.3308 75.7923C11.0627 76.4769 11.3577 76.8389 11.2704 77.4638C11.1832 78.0887 10.7769 78.6327 10.6887 78.9336C10.6009 79.2361 10.7452 80.6816 10.9781 81.2057C10.9791 81.8715 10.4634 82.712 10.3467 83.3631C10.2905 83.6768 10.8194 85.2885 11.0605 85.6485C11.3342 86.2442 11.1982 87.4703 11.1834 87.7901C11.6613 88.9639 12.5469 89.3672 12.7065 89.8812C13.0433 90.4319 12.8746 91.3327 13.1753 91.8142C13.664 92.5968 14.9131 92.9802 15.1357 93.7466C15.3584 94.5131 15.5953 95.0295 16.2123 95.6437C16.7785 96.2798 17.929 96.1824 18.3674 96.5405C18.8854 96.8229 19.1808 97.7481 19.8815 98.13C20.4908 98.462 21.4893 98.3612 22.0702 98.5587C22.651 98.7563 23.765 99.5975 24.1298 99.5622C24.1305 99.5621 26.1386 90.2632 26.1386 90.2632C26.1399 90.2632 26.2363 89.8056 26.237 89.8056Z" fill="#FFEAAC"/>
<path d="M26.9933 82.5155L25.1804 99.5778C25.7827 99.5904 25.8199 99.6631 25.9652 99.5887L27.9379 82.0323L26.9933 82.5155Z" fill="#EBC15F"/>
<path d="M27.7732 81.9791L27.7268 82.8737L40.1906 90.6604C40.5843 91.7883 41.1183 92.2944 39.9963 93.3267C39.4605 94.1566 39.071 94.4698 38.3895 95.2032C37.72 95.9238 37.3123 95.8499 36.5094 96.4558C35.7285 97.0448 33.9737 98.0582 33.073 98.5192C32.1721 98.98 28.6157 99.3389 27.6812 99.6275C27.0376 99.8262 26.6218 99.5279 26.0771 99.4488C26.466 99.7609 27.4016 100.962 30.1988 99.5312C31.1752 99.4099 31.7198 99.8417 32.6809 99.5448C33.6157 99.256 34.0614 98.8384 34.5506 98.4507C37.14 98.2259 37.4044 97.2197 37.6545 96.6334C39.5378 96.1934 40.1887 95.2259 40.1058 94.6158C42.2098 93.8903 42.0056 93.1328 42.247 91.9919C42.7386 91.8779 42.7899 91.5308 42.7902 91.5306L27.7732 81.9791Z" fill="#EBC15F"/>
<path d="M26.5635 81.8352L27.3394 82.3365L40.8021 75.3882C42.016 75.6226 42.747 75.4137 43.0852 76.9312C43.548 77.8294 43.6249 78.3329 43.9253 79.3095C44.2208 80.2689 43.9421 80.5892 44.0652 81.6069C44.1848 82.5965 44.176 84.6604 44.1185 85.6895C44.061 86.7186 42.5275 90.0295 42.2983 90.9995C42.1403 91.6675 41.6567 91.8794 41.302 92.3175C41.7838 92.1363 44.3598 91.5526 43.553 89.1693C43.6425 88.986 45.9143 87.9612 44.8143 85.4529C45.0434 84.4825 45.2646 84.81 45.3253 84.2289C45.9887 82.6061 45.2268 82.0688 44.8329 81.5473C45.9126 79.8948 45.2637 78.8058 44.4333 77.8097C45.0829 77.019 44.8311 75.4518 43.3662 74.9179C43.5206 74.427 43.1938 73.3269 43.1938 73.3266L26.5635 81.8352Z" fill="#EBC15F"/>
<path d="M27.6641 64.2959C27.3415 64.336 26.4099 64.6246 26.0986 64.7302C26.8615 64.3398 29.0442 65.0566 28.0772 65.5514L26.9469 81.4392L27.921 82.1785L29.1307 65.0123C28.1592 64.5468 28.6129 64.2688 27.6641 64.2959Z" fill="#EBC15F"/>
<path d="M13.1228 72.6066C12.7967 72.8651 12.779 72.92 12.6928 73.4683L24.5146 80.896C25.5696 81.5784 25.8133 82.0192 24.6945 82.5916L12.126 89.1137C12.4044 89.5775 12.4691 89.426 12.7173 89.9112L27.9773 82.1038L13.1228 72.6066Z" fill="#EBC15F"/>
<path d="M33.87 92.2996C34.4803 93.4925 34.008 94.9538 32.8154 95.5641C31.6225 96.1744 30.1611 95.7024 29.5507 94.5095C28.9404 93.3167 29.4128 91.8553 30.6056 91.245C31.7982 90.6349 33.2597 91.1068 33.87 92.2996Z" fill="#EF5350"/>
<path d="M25.3844 92.32C25.9947 93.5128 25.5227 94.9743 24.3299 95.5846C23.137 96.1949 21.6757 95.7226 21.0654 94.5297C20.4552 93.3372 20.9271 91.8757 22.12 91.2654C23.3128 90.6551 24.7742 91.1274 25.3844 92.32Z" fill="#EF5350"/>
<path d="M35.3602 80.9597C35.9705 82.1525 35.4983 83.6142 34.3055 84.2245C33.1128 84.8346 31.6512 84.3624 31.0409 83.1696C30.4307 81.977 30.9029 80.5154 32.0955 79.9051C33.2884 79.2948 34.75 79.7671 35.3602 80.9597Z" fill="#EF5350"/>
<path d="M20.7562 80.5474C21.3665 81.7403 20.8943 83.202 19.7014 83.8123C18.5088 84.4224 17.0472 83.9502 16.4369 82.7573C15.8267 81.5648 16.2989 80.1031 17.4915 79.493C18.6844 78.8827 20.146 79.3549 20.7562 80.5474Z" fill="#EF5350"/>
<path d="M22.2606 70.6488C22.8709 71.8416 22.3987 73.3032 21.2058 73.9135C20.013 74.5238 18.5516 74.0516 17.9413 72.8587C17.3312 71.6661 17.8031 70.2046 18.9959 69.5943C20.1888 68.984 21.6504 69.4562 22.2606 70.6488Z" fill="#EF5350"/>
<path d="M33.1147 68.4683C33.4198 69.0645 33.1836 69.7956 32.5874 70.1007C31.9911 70.4057 31.26 70.1696 30.9549 69.5733C30.6497 68.9767 30.8861 68.246 31.4823 67.9409C32.0786 67.6358 32.8095 67.8717 33.1147 68.4683Z" fill="#FF6F00"/>
<path d="M32.509 75.8544C32.814 76.4507 32.5782 77.1816 31.9816 77.4868C31.3853 77.7919 30.6546 77.5556 30.3495 76.9592C30.0444 76.363 30.2803 75.6321 30.8766 75.327C31.4731 75.0218 32.2039 75.2581 32.509 75.8544Z" fill="#FF6F00"/>
<path d="M26.7153 67.6548C27.0205 68.2514 26.7845 68.982 26.1879 69.2872C25.5916 69.5923 24.8609 69.3563 24.5557 68.7597C24.2506 68.1634 24.4868 67.4328 25.083 67.1277C25.6796 66.8225 26.4102 67.0586 26.7153 67.6548Z" fill="#FF6F00"/>
<path d="M25.9902 75.5645C26.2953 76.1607 26.0593 76.8914 25.4627 77.1967C24.8664 77.5017 24.1358 77.2656 23.8307 76.6694C23.5255 76.0728 23.7616 75.3422 24.3578 75.0371C24.9544 74.7319 25.685 74.9679 25.9902 75.5645Z" fill="#FF6F00"/>
<path d="M15.583 85.0643C15.8881 85.6606 15.652 86.3912 15.0555 86.6964C14.4592 87.0015 13.7286 86.7655 13.4235 86.1692C13.1183 85.5726 13.3543 84.842 13.9506 84.5369C14.5472 84.2317 15.2778 84.4678 15.583 85.0643Z" fill="#FF6F00"/>
<path d="M24.4055 87.0134C24.7107 87.61 24.4743 88.3408 23.8781 88.6458C23.2815 88.9511 22.5509 88.715 22.2457 88.1185C21.9406 87.5222 22.1766 86.7916 22.7732 86.4864C23.3695 86.1813 24.1004 86.4172 24.4055 87.0134Z" fill="#FF6F00"/>
<path d="M41.8923 78.0885C42.1975 78.685 41.9612 79.4159 41.3649 79.7209C40.7683 80.0262 40.0377 79.7901 39.7325 79.1935C39.4274 78.5972 39.6634 77.8666 40.26 77.5614C40.8563 77.2563 41.5872 77.4922 41.8923 78.0885Z" fill="#FF6F00"/>
<path d="M39.5774 84.3149C39.8825 84.9115 39.6463 85.6423 39.05 85.9473C38.4534 86.2526 37.7228 86.0165 37.4176 85.4199C37.1124 84.8237 37.3485 84.093 37.945 83.7878C38.5414 83.4827 39.2722 83.7186 39.5774 84.3149Z" fill="#FF6F00"/>
<path d="M15.775 76.3097C15.3149 75.8228 14.5473 75.8012 14.0605 76.2616C13.5736 76.7217 13.552 77.4893 14.0121 77.9762C14.4724 78.463 15.2401 78.4846 15.7269 78.0242C16.2138 77.5642 16.2353 76.7965 15.775 76.3097Z" fill="#FF6F00"/>
<path d="M19.0002 90.7843C19.3054 91.3808 19.0693 92.1114 18.4731 92.4165C17.8765 92.7217 17.1459 92.4857 16.8407 91.8891C16.5356 91.2928 16.7715 90.5619 17.368 90.2567C17.9643 89.9516 18.6951 90.1879 19.0002 90.7843Z" fill="#FF6F00"/>
<path d="M38.4607 91.3134C38.7657 91.9097 38.5296 92.6407 37.9333 92.9458C37.337 93.2509 36.606 93.0147 36.3009 92.4185C35.9957 91.8219 36.232 91.0911 36.8283 90.786C37.4246 90.481 38.1554 90.7168 38.4607 91.3134Z" fill="#FF6F00"/>
<path d="M31.8167 86.9521C32.1218 87.5483 31.8858 88.2792 31.2893 88.5845C30.693 88.8895 29.9622 88.6532 29.6572 88.0569C29.3519 87.4603 29.5879 86.7297 30.1843 86.4247C30.7808 86.1194 31.5115 86.3555 31.8167 86.9521Z" fill="#FF6F00"/>
<path d="M38.4805 71.767C39.0908 72.9598 38.6186 74.4215 37.426 75.0316C36.2332 75.6419 34.7716 75.1697 34.1613 73.9769C33.5511 72.7844 34.0233 71.3227 35.2161 70.7124C36.4087 70.1022 37.8704 70.5745 38.4805 71.767Z" fill="#EF5350"/>
<path d="M31.0794 91.0621C31.399 91.2824 31.6703 91.5831 31.8598 91.9534C32.5609 93.3236 31.8244 94.9968 30.3315 95.4007C31.0424 95.8908 31.9927 95.985 32.8154 95.5641C34.0083 94.9538 34.4804 93.4925 33.8701 92.2996C33.3387 91.2612 32.1621 90.7692 31.0794 91.0621Z" fill="#D32F2F"/>
<path d="M22.5935 91.0825C22.9134 91.3031 23.1846 91.6037 23.374 91.9738C23.9841 93.1663 23.5119 94.628 22.3193 95.2381C22.1652 95.3169 22.0064 95.3775 21.8457 95.421C22.5567 95.9113 23.507 96.0056 24.3297 95.5846C25.5226 94.9743 25.9946 93.5128 25.3843 92.32C24.8529 91.2815 23.6762 90.7896 22.5935 91.0825Z" fill="#D32F2F"/>
<path d="M32.5691 79.7222C32.8889 79.9428 33.1605 80.2433 33.3498 80.6134C33.9601 81.8063 33.4877 83.2676 32.2949 83.8779C32.1408 83.9568 31.982 84.0173 31.8213 84.0608C32.5323 84.5512 33.4828 84.6453 34.3053 84.2245C35.4982 83.6142 35.9704 82.1525 35.3601 80.9596C34.8288 79.9212 33.6518 79.4293 32.5691 79.7222Z" fill="#D32F2F"/>
<path d="M17.9653 79.3101C18.2852 79.5307 18.5567 79.8311 18.7461 80.2012C19.3564 81.3941 18.884 82.8554 17.6911 83.4657C17.537 83.5446 17.3782 83.6051 17.2175 83.6486C17.9285 84.1389 18.8791 84.233 19.7016 83.8122C20.8944 83.2019 21.3666 81.7403 20.7563 80.5474C20.225 79.509 19.048 79.0172 17.9653 79.3101Z" fill="#D32F2F"/>
<path d="M19.4695 69.4114C19.7893 69.632 20.0609 69.9324 20.2502 70.3025C20.8604 71.4951 20.3882 72.9567 19.1954 73.567C19.0412 73.6459 18.8824 73.7064 18.7217 73.7499C19.4327 74.2402 20.3832 74.3343 21.2057 73.9135C22.3986 73.3032 22.8708 71.8416 22.2605 70.6487C21.7292 69.6103 20.5522 69.1185 19.4695 69.4114Z" fill="#D32F2F"/>
<path d="M35.6895 70.5296C36.0094 70.7502 36.2809 71.0507 36.4703 71.4208C37.0804 72.6133 36.6082 74.075 35.4153 74.6853C35.2612 74.7641 35.1027 74.8245 34.9417 74.8682C35.6527 75.3585 36.6033 75.4526 37.426 75.0316C38.6186 74.4215 39.0908 72.9598 38.4805 71.767C37.9492 70.7285 36.7725 70.2366 35.6895 70.5296Z" fill="#D32F2F"/>
<path d="M58.5049 99.9329L54.0036 94.9214C52.1918 94.0119 51.4471 92.781 51.3662 90.7554L63.5127 63.4306C65.1849 62.2845 68.2698 60.9355 70.082 61.8442L79.1854 64.2733C88.1239 68.7577 92.388 80.6573 87.9038 89.5958L86.03 93.3307C81.5456 102.269 68.7146 105.587 58.5049 99.9329Z" fill="#385611"/>
<path d="M55.5854 98.1296C65.6797 103.72 79.607 99.9001 85.197 89.8057C90.7867 79.7114 85.3299 68.2358 75.2356 62.6457C62.7328 61.1329 58.8754 63.3815 50.7941 72.2468C46.9723 83.1911 48.115 89.8878 55.5854 98.1296Z" fill="#848F40"/>
<path d="M86.9919 92.2923C81.5111 102.189 69.0448 105.77 59.1476 100.289C49.2504 94.8079 45.6703 82.3416 51.1511 72.4444C56.6319 62.5473 69.0983 58.9672 78.9955 64.448C88.8926 69.9288 92.473 82.3951 86.9919 92.2923Z" stroke="black" stroke-width="0.816126"/>
<path d="M83.4735 90.3906C79.03 98.4149 68.9227 101.318 60.8986 96.8739C52.9466 92.4702 50.4466 82.7291 54.9311 74.6311C59.4213 66.5228 69.0483 63.4175 76.9904 67.8157C85.0145 72.2593 87.9172 82.3665 83.4735 90.3906Z" fill="#EBEBEB" stroke="black" stroke-width="4.08063"/>
<path d="M70.5201 90.1021C70.5185 90.1019 72.3076 99.9229 72.306 99.9227C71.9662 99.877 70.3099 100.066 70.2682 99.7381C70.0474 99.9728 68.1376 100.53 67.8383 100.375C67.5487 100.225 66.175 99.8991 66.2198 99.5895C65.9608 99.7511 63.8439 99.7079 63.5928 99.5063C63.3459 99.3077 61.902 98.7272 61.9912 98.4388C61.717 98.5552 60.1264 98.0368 59.908 97.8086C59.691 97.5821 58.8036 96.7778 58.9246 96.505C58.6415 96.5876 57.2979 95.8766 57.1067 95.6273C56.9171 95.379 56.3775 94.6918 56.5248 94.4344C56.2371 94.4867 55.1053 93.7429 54.939 93.4785C54.7735 93.2143 54.3473 91.9818 54.5155 91.7401C54.225 91.7665 53.3197 90.7788 53.1775 90.5008C53.0351 90.2228 53.138 89.1308 53.3252 88.9043C53.0343 88.9051 51.9075 87.3128 51.7895 87.0229C51.6717 86.7323 51.9841 85.2074 52.1917 84.9989C51.9003 84.9733 51.5013 83.1422 51.4099 82.8424C51.3186 82.5425 52.0337 81.3697 52.2593 81.1812C51.9717 81.1274 51.7681 79.8791 51.7054 79.5712C51.6422 79.2615 52.5069 77.6091 52.7522 77.4441C52.4688 77.3597 52.448 76.5043 52.4497 76.1912C52.4497 76.1912 52.5448 75.753 52.8249 75.3778C53.1824 75.0028 53.7806 74.7775 54.0499 74.6444C53.775 74.5203 54.1304 73.1195 54.1524 72.7973C54.1743 72.4703 55.6578 71.5848 55.9521 71.5014C55.6971 71.3226 56.5331 70.272 56.6248 69.9529C56.7209 69.6199 58.1914 68.9955 58.5179 69.0002C58.3112 68.7264 59.2576 67.7721 59.4884 67.4972C59.7326 67.2049 61.1385 66.817 61.4471 67.019C61.4313 66.6439 62.6459 65.7826 63.021 65.7195C63.3798 65.6592 64.6891 65.5008 64.8073 65.8354C64.9869 65.5489 66.5838 64.6611 66.9145 64.775C67.2303 64.883 68.4825 64.8799 68.4732 65.2006C68.7175 65.0082 70.5225 64.4752 70.7944 64.6571C71.0598 64.835 72.373 65.1616 72.3048 65.4584C72.5714 65.3217 73.9262 65.0118 74.1606 65.227C74.3928 65.4405 75.5753 65.966 75.4688 66.2471C75.7486 66.1481 77.2876 66.3553 77.4916 66.5953C77.6952 66.8335 78.6756 67.6911 78.5414 67.9558C78.8271 67.8888 80.4092 68.3321 80.5875 68.5893C80.7649 68.8465 81.5753 70.043 81.4181 70.2919C81.707 70.2532 82.6764 70.858 82.8305 71.1295C82.9849 71.4004 83.087 72.2886 83.347 72.8212C83.7326 72.9785 84.2941 73.3226 84.4247 73.606C84.8041 74.4299 84.3594 74.2633 84.876 75.3223C85.1391 75.8616 85.7013 76.0861 85.8783 76.5856C86.1238 77.2787 85.817 77.6308 85.8837 78.2582C85.9503 78.8856 86.3386 79.4426 86.4168 79.7463C86.4948 80.0515 86.3031 81.4915 86.053 82.0077C86.0302 82.6731 86.518 83.5301 86.6133 84.1847C86.6591 84.5 86.0777 86.0936 85.8249 86.4454C85.5318 87.0318 85.6275 88.2618 85.6317 88.5819C85.1156 89.7393 84.2172 90.1133 84.0408 90.6218C83.6862 91.1611 83.8252 92.067 83.5088 92.5384C82.9947 93.3045 81.7338 93.6467 81.4861 94.4054C81.2384 95.1641 80.9847 95.6725 80.3479 96.2662C79.7611 96.8833 78.6143 96.7483 78.1645 97.0917C77.6374 97.3569 77.3118 98.272 76.599 98.6307C75.9791 98.9426 74.9844 98.809 74.3974 98.9873C73.8105 99.1656 72.6694 99.9699 72.306 99.9227C72.3053 99.9226 70.6035 90.5627 70.6035 90.5627C70.6023 90.5627 70.5209 90.1022 70.5201 90.1021Z" fill="#E4E4E4"/>
<path d="M72.0135 98.2591C71.9787 98.4611 71.8344 98.6329 71.6076 98.7684C71.4403 98.8689 71.2269 98.9496 70.9781 99.0085C70.6132 99.0944 70.1726 99.1327 69.6887 99.1163C69.3723 99.1052 69.038 99.0704 68.6942 99.0101C68.6923 99.0098 68.6903 99.0094 68.6884 99.0091C66.982 98.7075 65.6995 97.8854 65.8232 97.1707C65.8568 96.9773 65.99 96.8109 66.2004 96.6782C66.3646 96.5748 66.5751 96.4913 66.8215 96.4303C67.1816 96.3405 67.6186 96.2989 68.0997 96.3119C68.4144 96.3208 68.7483 96.3528 69.0915 96.4112C69.1088 96.4138 69.1257 96.4168 69.1425 96.4198C70.8516 96.7201 72.137 97.5441 72.0135 98.2591Z" fill="#C2C2C2"/>
<path d="M72.0135 98.2591C71.9787 98.4611 71.8344 98.6329 71.6076 98.7684C71.4403 98.8689 71.2269 98.9496 70.9781 99.0085C70.6132 99.0944 70.1726 99.1327 69.6887 99.1163C69.3723 99.1052 69.038 99.0704 68.6942 99.0101C68.6923 99.0098 68.6903 99.0094 68.6884 99.0091C66.982 98.7075 65.6995 97.8854 65.8232 97.1707C65.8568 96.9773 65.99 96.8109 66.2004 96.6782C66.3646 96.5748 66.5751 96.4913 66.8215 96.4303C67.1816 96.3405 67.6186 96.2989 68.0997 96.3119C68.4144 96.3208 68.7483 96.3528 69.0915 96.4112C69.1088 96.4138 69.1257 96.4168 69.1425 96.4198C70.8516 96.7201 72.137 97.5441 72.0135 98.2591Z" fill="#C2C2C2"/>
<path d="M72.0135 98.2591C71.9787 98.4611 71.8344 98.6329 71.6076 98.7684C71.4403 98.8689 71.2269 98.9496 70.9781 99.0085C70.6132 99.0944 70.1726 99.1327 69.6887 99.1163C69.3723 99.1052 69.038 99.0704 68.6942 99.0101C68.6923 99.0098 68.6903 99.0094 68.6884 99.0091C66.982 98.7075 65.6995 97.8854 65.8232 97.1707C65.8568 96.9773 65.99 96.8109 66.2004 96.6782C66.3646 96.5748 66.5751 96.4913 66.8215 96.4303C67.1816 96.3405 67.6186 96.2989 68.0997 96.3119C68.4144 96.3208 68.7483 96.3528 69.0915 96.4112C69.1088 96.4138 69.1257 96.4168 69.1425 96.4198C70.8516 96.7201 72.137 97.5441 72.0135 98.2591Z" fill="#C2C2C2"/>
<path d="M71.4876 98.2787C71.424 98.4735 71.2564 98.6227 71.0124 98.7241C70.8322 98.7993 70.6094 98.8485 70.3546 98.8709C69.981 98.9034 69.5392 98.8779 69.0625 98.792C68.7509 98.7354 68.425 98.6529 68.0934 98.5438C68.0915 98.5433 68.0895 98.5426 68.0877 98.542C66.4418 97.9981 65.2903 97.0003 65.5157 96.3112C65.5768 96.1247 65.7326 95.9793 65.9599 95.8784C66.1374 95.7997 66.3578 95.7474 66.6106 95.7225C66.98 95.6856 67.4186 95.7072 67.893 95.7893C68.2033 95.8434 68.5292 95.9232 68.8607 96.0303C68.8774 96.0354 68.8937 96.0408 68.91 96.0461C70.5587 96.5891 71.7127 97.5891 71.4876 98.2787Z" fill="#C2C2C2"/>
<path d="M71.4876 98.2787C71.424 98.4735 71.2564 98.6227 71.0124 98.7241C70.8322 98.7993 70.6094 98.8485 70.3546 98.8709C69.981 98.9034 69.5392 98.8779 69.0625 98.792C68.7509 98.7354 68.425 98.6529 68.0934 98.5438C68.0915 98.5433 68.0895 98.5426 68.0877 98.542C66.4418 97.9981 65.2903 97.0003 65.5157 96.3112C65.5768 96.1247 65.7326 95.9793 65.9599 95.8784C66.1374 95.7997 66.3578 95.7474 66.6106 95.7225C66.98 95.6856 67.4186 95.7072 67.893 95.7893C68.2033 95.8434 68.5292 95.9232 68.8607 96.0303C68.8774 96.0354 68.8937 96.0408 68.91 96.0461C70.5587 96.5891 71.7127 97.5891 71.4876 98.2787Z" fill="#C2C2C2"/>
<path d="M71.4876 98.2787C71.424 98.4735 71.2564 98.6227 71.0124 98.7241C70.8322 98.7993 70.6094 98.8485 70.3546 98.8709C69.981 98.9034 69.5392 98.8779 69.0625 98.792C68.7509 98.7354 68.425 98.6529 68.0934 98.5438C68.0915 98.5433 68.0895 98.5426 68.0877 98.542C66.4418 97.9981 65.2903 97.0003 65.5157 96.3112C65.5768 96.1247 65.7326 95.9793 65.9599 95.8784C66.1374 95.7997 66.3578 95.7474 66.6106 95.7225C66.98 95.6856 67.4186 95.7072 67.893 95.7893C68.2033 95.8434 68.5292 95.9232 68.8607 96.0303C68.8774 96.0354 68.8937 96.0408 68.91 96.0461C70.5587 96.5891 71.7127 97.5891 71.4876 98.2787Z" fill="#F3F2F2"/>
<path d="M80.7651 87.5064C80.9241 87.658 81.1583 87.7141 81.4402 87.6866C81.6486 87.6665 81.8841 87.6003 82.1362 87.4928C82.5055 87.3347 82.9099 87.0875 83.3166 86.7657C83.5822 86.5549 83.8482 86.3125 84.106 86.0421C84.1076 86.0406 84.109 86.0391 84.1105 86.0376C85.389 84.6931 85.97 83.1704 85.4071 82.6344C85.2547 82.4894 85.0337 82.431 84.7677 82.4506C84.56 82.466 84.3253 82.5281 84.0739 82.6321C83.7062 82.7839 83.3028 83.0259 82.8964 83.343C82.6308 83.5508 82.3634 83.7906 82.1047 84.059C82.0915 84.0723 82.0789 84.0856 82.0662 84.0989C80.7846 85.4438 80.2023 86.9698 80.7651 87.5064Z" fill="#C2C2C2"/>
<path d="M80.7651 87.5064C80.9241 87.658 81.1583 87.7141 81.4402 87.6866C81.6486 87.6665 81.8841 87.6003 82.1362 87.4928C82.5055 87.3347 82.9099 87.0875 83.3166 86.7657C83.5822 86.5549 83.8482 86.3125 84.106 86.0421C84.1076 86.0406 84.109 86.0391 84.1105 86.0376C85.389 84.6931 85.97 83.1704 85.4071 82.6344C85.2547 82.4894 85.0337 82.431 84.7677 82.4506C84.56 82.466 84.3253 82.5281 84.0739 82.6321C83.7062 82.7839 83.3028 83.0259 82.8964 83.343C82.6308 83.5508 82.3634 83.7906 82.1047 84.059C82.0915 84.0723 82.0789 84.0856 82.0662 84.0989C80.7846 85.4438 80.2023 86.9698 80.7651 87.5064Z" fill="#C2C2C2"/>
<path d="M80.7651 87.5064C80.9241 87.658 81.1583 87.7141 81.4402 87.6866C81.6486 87.6665 81.8841 87.6003 82.1362 87.4928C82.5055 87.3347 82.9099 87.0875 83.3166 86.7657C83.5822 86.5549 83.8482 86.3125 84.106 86.0421C84.1076 86.0406 84.109 86.0391 84.1105 86.0376C85.389 84.6931 85.97 83.1704 85.4071 82.6344C85.2547 82.4894 85.0337 82.431 84.7677 82.4506C84.56 82.466 84.3253 82.5281 84.0739 82.6321C83.7062 82.7839 83.3028 83.0259 82.8964 83.343C82.6308 83.5508 82.3634 83.7906 82.1047 84.059C82.0915 84.0723 82.0789 84.0856 82.0662 84.0989C80.7846 85.4438 80.2023 86.9698 80.7651 87.5064Z" fill="#C2C2C2"/>
<path d="M81.5562 86.6019C81.7354 86.7291 81.9752 86.751 82.2501 86.6831C82.4535 86.6333 82.677 86.5339 82.911 86.3912C83.2538 86.1816 83.6184 85.8788 83.9745 85.5018C84.207 85.255 84.4354 84.9768 84.6516 84.6721C84.6529 84.6704 84.6541 84.6686 84.6553 84.667C85.7271 83.1525 86.0829 81.5621 85.4488 81.1127C85.277 80.9911 85.0499 80.965 84.7895 81.0228C84.5863 81.0679 84.3629 81.1631 84.1291 81.3023C83.787 81.5054 83.4227 81.803 83.0662 82.1752C82.8332 82.419 82.6032 82.6948 82.3858 82.9978C82.3745 83.0127 82.364 83.0277 82.3534 83.0426C81.2786 84.558 80.922 86.1519 81.5562 86.6019Z" fill="#C2C2C2"/>
<path d="M81.5562 86.6019C81.7354 86.7291 81.9752 86.751 82.2501 86.6831C82.4535 86.6333 82.677 86.5339 82.911 86.3912C83.2538 86.1816 83.6184 85.8788 83.9745 85.5018C84.207 85.255 84.4354 84.9768 84.6516 84.6721C84.6529 84.6704 84.6541 84.6686 84.6553 84.667C85.7271 83.1525 86.0829 81.5621 85.4488 81.1127C85.277 80.9911 85.0499 80.965 84.7895 81.0228C84.5863 81.0679 84.3629 81.1631 84.1291 81.3023C83.787 81.5054 83.4227 81.803 83.0662 82.1752C82.8332 82.419 82.6032 82.6948 82.3858 82.9978C82.3745 83.0127 82.364 83.0277 82.3534 83.0426C81.2786 84.558 80.922 86.1519 81.5562 86.6019Z" fill="#C2C2C2"/>
<path d="M81.5562 86.6019C81.7354 86.7291 81.9752 86.751 82.2501 86.6831C82.4535 86.6333 82.677 86.5339 82.911 86.3912C83.2538 86.1816 83.6184 85.8788 83.9745 85.5018C84.207 85.255 84.4354 84.9768 84.6516 84.6721C84.6529 84.6704 84.6541 84.6686 84.6553 84.667C85.7271 83.1525 86.0829 81.5621 85.4488 81.1127C85.277 80.9911 85.0499 80.965 84.7895 81.0228C84.5863 81.0679 84.3629 81.1631 84.1291 81.3023C83.787 81.5054 83.4227 81.803 83.0662 82.1752C82.8332 82.419 82.6032 82.6948 82.3858 82.9978C82.3745 83.0127 82.364 83.0277 82.3534 83.0426C81.2786 84.558 80.922 86.1519 81.5562 86.6019Z" fill="#F3F2F2"/>
<path d="M77.9085 69.6896C77.6865 69.7502 77.5095 69.93 77.3817 70.1978C77.287 70.3957 77.2189 70.6428 77.1791 70.9272C77.121 71.3442 77.1241 71.8408 77.1928 72.3798C77.2382 72.7322 77.3118 73.1021 77.415 73.4797C77.4155 73.4819 77.4161 73.484 77.4167 73.4861C77.9314 75.3608 78.9834 76.7059 79.769 76.4909C79.9816 76.4326 80.1536 76.2659 80.2799 76.0165C80.3784 75.8219 80.4497 75.5777 80.4923 75.2957C80.555 74.8837 80.5561 74.3908 80.4915 73.8545C80.4488 73.5038 80.3782 73.1341 80.2772 72.7568C80.2726 72.7377 80.2674 72.7191 80.2624 72.7006C79.749 70.823 78.6946 69.4749 77.9085 69.6896Z" fill="#C2C2C2"/>
<path d="M77.9085 69.6896C77.6865 69.7502 77.5095 69.93 77.3817 70.1978C77.287 70.3957 77.2189 70.6428 77.1791 70.9272C77.121 71.3442 77.1241 71.8408 77.1928 72.3798C77.2382 72.7322 77.3118 73.1021 77.415 73.4797C77.4155 73.4819 77.4161 73.484 77.4167 73.4861C77.9314 75.3608 78.9834 76.7059 79.769 76.4909C79.9816 76.4326 80.1536 76.2659 80.2799 76.0165C80.3784 75.8219 80.4497 75.5777 80.4923 75.2957C80.555 74.8837 80.5561 74.3908 80.4915 73.8545C80.4488 73.5038 80.3782 73.1341 80.2772 72.7568C80.2726 72.7377 80.2674 72.7191 80.2624 72.7006C79.749 70.823 78.6946 69.4749 77.9085 69.6896Z" fill="#C2C2C2"/>
<path d="M77.9085 69.6896C77.6865 69.7502 77.5095 69.93 77.3817 70.1978C77.287 70.3957 77.2189 70.6428 77.1791 70.9272C77.121 71.3442 77.1241 71.8408 77.1928 72.3798C77.2382 72.7322 77.3118 73.1021 77.415 73.4797C77.4155 73.4819 77.4161 73.484 77.4167 73.4861C77.9314 75.3608 78.9834 76.7059 79.769 76.4909C79.9816 76.4326 80.1536 76.2659 80.2799 76.0165C80.3784 75.8219 80.4497 75.5777 80.4923 75.2957C80.555 74.8837 80.5561 74.3908 80.4915 73.8545C80.4488 73.5038 80.3782 73.1341 80.2772 72.7568C80.2726 72.7377 80.2674 72.7191 80.2624 72.7006C79.749 70.823 78.6946 69.4749 77.9085 69.6896Z" fill="#C2C2C2"/>
<path d="M77.9414 70.2794C77.7303 70.3714 77.581 70.5747 77.4932 70.8582C77.4278 71.0676 77.396 71.322 77.3975 71.6091C77.4001 72.0302 77.4746 72.5212 77.6202 73.0447C77.7158 73.3869 77.842 73.7422 77.9983 74.1012C77.9992 74.1032 78.0001 74.1053 78.001 74.1073C78.7801 75.8884 80.0147 77.0681 80.7612 76.7422C80.9632 76.654 81.1094 76.4643 81.1985 76.1993C81.2679 75.9926 81.3033 75.7406 81.305 75.4555C81.3077 75.0387 81.2379 74.5507 81.0968 74.0294C81.004 73.6885 80.881 73.3328 80.7267 72.9738C80.7194 72.9557 80.7117 72.938 80.704 72.9204C79.9256 71.1362 78.6883 69.9539 77.9414 70.2794Z" fill="#C2C2C2"/>
<path d="M77.9414 70.2794C77.7303 70.3714 77.581 70.5747 77.4932 70.8582C77.4278 71.0676 77.396 71.322 77.3975 71.6091C77.4001 72.0302 77.4746 72.5212 77.6202 73.0447C77.7158 73.3869 77.842 73.7422 77.9983 74.1012C77.9992 74.1032 78.0001 74.1053 78.001 74.1073C78.7801 75.8884 80.0147 77.0681 80.7612 76.7422C80.9632 76.654 81.1094 76.4643 81.1985 76.1993C81.2679 75.9926 81.3033 75.7406 81.305 75.4555C81.3077 75.0387 81.2379 74.5507 81.0968 74.0294C81.004 73.6885 80.881 73.3328 80.7267 72.9738C80.7194 72.9557 80.7117 72.938 80.704 72.9204C79.9256 71.1362 78.6883 69.9539 77.9414 70.2794Z" fill="#C2C2C2"/>
<path d="M77.9414 70.2794C77.7303 70.3714 77.581 70.5747 77.4932 70.8582C77.4278 71.0676 77.396 71.322 77.3975 71.6091C77.4001 72.0302 77.4746 72.5212 77.6202 73.0447C77.7158 73.3869 77.842 73.7422 77.9983 74.1012C77.9992 74.1032 78.0001 74.1053 78.001 74.1073C78.7801 75.8884 80.0147 77.0681 80.7612 76.7422C80.9632 76.654 81.1094 76.4643 81.1985 76.1993C81.2679 75.9926 81.3033 75.7406 81.305 75.4555C81.3077 75.0387 81.2379 74.5507 81.0968 74.0294C81.004 73.6885 80.881 73.3328 80.7267 72.9738C80.7194 72.9557 80.7117 72.938 80.704 72.9204C79.9256 71.1362 78.6883 69.9539 77.9414 70.2794Z" fill="#EBEBEB"/>
<path d="M55.5533 71.9414C55.643 71.789 55.8116 71.6939 56.0358 71.6531C56.2015 71.6227 56.3983 71.6219 56.617 71.6495C56.9376 71.6903 57.3051 71.7923 57.6906 71.9517C57.9426 72.0561 58.2018 72.185 58.461 72.3373C58.4625 72.3381 58.464 72.3391 58.4654 72.3399C59.7511 73.098 60.5364 74.1478 60.2192 74.6867C60.1333 74.8325 59.9752 74.9264 59.765 74.9699C59.601 75.0038 59.4058 75.0076 59.1883 74.9825C58.8703 74.9462 58.5049 74.8479 58.1205 74.6923C57.8692 74.5901 57.6095 74.4635 57.3501 74.3129C57.3369 74.3056 57.3242 74.2981 57.3115 74.2906C56.0233 73.5328 55.2363 72.4807 55.5533 71.9414Z" fill="#C2C2C2"/>
<path d="M55.5533 71.9414C55.643 71.789 55.8116 71.6939 56.0358 71.6531C56.2015 71.6227 56.3983 71.6219 56.617 71.6495C56.9376 71.6903 57.3051 71.7923 57.6906 71.9517C57.9426 72.0561 58.2018 72.185 58.461 72.3373C58.4625 72.3381 58.464 72.3391 58.4654 72.3399C59.7511 73.098 60.5364 74.1478 60.2192 74.6867C60.1333 74.8325 59.9752 74.9264 59.765 74.9699C59.601 75.0038 59.4058 75.0076 59.1883 74.9825C58.8703 74.9462 58.5049 74.8479 58.1205 74.6923C57.8692 74.5901 57.6095 74.4635 57.3501 74.3129C57.3369 74.3056 57.3242 74.2981 57.3115 74.2906C56.0233 73.5328 55.2363 72.4807 55.5533 71.9414Z" fill="#C2C2C2"/>
<path d="M55.5533 71.9414C55.643 71.789 55.8116 71.6939 56.0358 71.6531C56.2015 71.6227 56.3983 71.6219 56.617 71.6495C56.9376 71.6903 57.3051 71.7923 57.6906 71.9517C57.9426 72.0561 58.2018 72.185 58.461 72.3373C58.4625 72.3381 58.464 72.3391 58.4654 72.3399C59.7511 73.098 60.5364 74.1478 60.2192 74.6867C60.1333 74.8325 59.9752 74.9264 59.765 74.9699C59.601 75.0038 59.4058 75.0076 59.1883 74.9825C58.8703 74.9462 58.5049 74.8479 58.1205 74.6923C57.8692 74.5901 57.6095 74.4635 57.3501 74.3129C57.3369 74.3056 57.3242 74.2981 57.3115 74.2906C56.0233 73.5328 55.2363 72.4807 55.5533 71.9414Z" fill="#C2C2C2"/>
<path d="M55.8503 71.7891C55.9608 71.6512 56.1415 71.5815 56.3692 71.5733C56.5376 71.567 56.7324 71.5946 56.9449 71.6534C57.2563 71.74 57.6052 71.8938 57.9638 72.1069C58.1982 72.2465 58.4361 72.4114 58.6707 72.5994C58.672 72.6004 58.6734 72.6015 58.6747 72.6025C59.8378 73.5378 60.464 74.6897 60.0725 75.1773C59.9665 75.3093 59.7965 75.3795 59.5822 75.3923C59.4151 75.4022 59.2213 75.3778 59.0097 75.3217C58.7002 75.24 58.3528 75.0902 57.9949 74.8808C57.7609 74.7436 57.522 74.581 57.287 74.3946C57.275 74.3854 57.2635 74.3762 57.252 74.3669C56.0863 73.4316 55.4589 72.2771 55.8503 71.7891Z" fill="#C2C2C2"/>
<path d="M55.8503 71.7891C55.9608 71.6512 56.1415 71.5815 56.3692 71.5733C56.5376 71.567 56.7324 71.5946 56.9449 71.6534C57.2563 71.74 57.6052 71.8938 57.9638 72.1069C58.1982 72.2465 58.4361 72.4114 58.6707 72.5994C58.672 72.6004 58.6734 72.6015 58.6747 72.6025C59.8378 73.5378 60.464 74.6897 60.0725 75.1773C59.9665 75.3093 59.7965 75.3795 59.5822 75.3923C59.4151 75.4022 59.2213 75.3778 59.0097 75.3217C58.7002 75.24 58.3528 75.0902 57.9949 74.8808C57.7609 74.7436 57.522 74.581 57.287 74.3946C57.275 74.3854 57.2635 74.3762 57.252 74.3669C56.0863 73.4316 55.4589 72.2771 55.8503 71.7891Z" fill="#C2C2C2"/>
<path d="M55.8503 71.7891C55.9608 71.6512 56.1415 71.5815 56.3692 71.5733C56.5376 71.567 56.7324 71.5946 56.9449 71.6534C57.2563 71.74 57.6052 71.8938 57.9638 72.1069C58.1982 72.2465 58.4361 72.4114 58.6707 72.5994C58.672 72.6004 58.6734 72.6015 58.6747 72.6025C59.8378 73.5378 60.464 74.6897 60.0725 75.1773C59.9665 75.3093 59.7965 75.3795 59.5822 75.3923C59.4151 75.4022 59.2213 75.3778 59.0097 75.3217C58.7002 75.24 58.3528 75.0902 57.9949 74.8808C57.7609 74.7436 57.522 74.581 57.287 74.3946C57.275 74.3854 57.2635 74.3762 57.252 74.3669C56.0863 73.4316 55.4589 72.2771 55.8503 71.7891Z" fill="#EBEBEB"/>
<path d="M55.6213 92.5934C55.7371 92.7243 55.9189 92.7845 56.1441 92.7816C56.3106 92.7797 56.5017 92.743 56.7086 92.6748C57.012 92.5743 57.349 92.4056 57.693 92.1779C57.9176 92.0288 58.1447 91.8545 58.3672 91.6576C58.3685 91.6565 58.3697 91.6554 58.371 91.6542C59.4745 90.6748 60.0372 89.5073 59.6272 89.0446C59.5162 88.9195 59.345 88.8583 59.1329 88.856C58.9673 88.8543 58.7771 88.8877 58.5709 88.9533C58.2692 89.0488 57.9334 89.2135 57.59 89.4374C57.3655 89.5841 57.1376 89.7563 56.9145 89.9516C56.9031 89.9612 56.8923 89.9709 56.8813 89.9806C55.7753 90.9602 55.2114 92.1304 55.6213 92.5934Z" fill="#C2C2C2"/>
<path d="M55.6213 92.5934C55.7371 92.7243 55.9189 92.7845 56.1441 92.7816C56.3106 92.7797 56.5017 92.743 56.7086 92.6748C57.012 92.5743 57.349 92.4056 57.693 92.1779C57.9176 92.0288 58.1447 91.8545 58.3672 91.6576C58.3685 91.6565 58.3697 91.6554 58.371 91.6542C59.4745 90.6748 60.0372 89.5073 59.6272 89.0446C59.5162 88.9195 59.345 88.8583 59.1329 88.856C58.9673 88.8543 58.7771 88.8877 58.5709 88.9533C58.2692 89.0488 57.9334 89.2135 57.59 89.4374C57.3655 89.5841 57.1376 89.7563 56.9145 89.9516C56.9031 89.9612 56.8923 89.9709 56.8813 89.9806C55.7753 90.9602 55.2114 92.1304 55.6213 92.5934Z" fill="#C2C2C2"/>
<path d="M55.6213 92.5934C55.7371 92.7243 55.9189 92.7845 56.1441 92.7816C56.3106 92.7797 56.5017 92.743 56.7086 92.6748C57.012 92.5743 57.349 92.4056 57.693 92.1779C57.9176 92.0288 58.1447 91.8545 58.3672 91.6576C58.3685 91.6565 58.3697 91.6554 58.371 91.6542C59.4745 90.6748 60.0372 89.5073 59.6272 89.0446C59.5162 88.9195 59.345 88.8583 59.1329 88.856C58.9673 88.8543 58.7771 88.8877 58.5709 88.9533C58.2692 89.0488 57.9334 89.2135 57.59 89.4374C57.3655 89.5841 57.1376 89.7563 56.9145 89.9516C56.9031 89.9612 56.8923 89.9709 56.8813 89.9806C55.7753 90.9602 55.2114 92.1304 55.6213 92.5934Z" fill="#C2C2C2"/>
<path d="M55.9568 92.2925C56.0902 92.4052 56.2788 92.4386 56.5012 92.4034C56.6658 92.3776 56.8496 92.3138 57.0445 92.2165C57.3303 92.0734 57.6396 91.858 57.9471 91.5832C58.1479 91.4032 58.3476 91.1981 58.5394 90.9711C58.5406 90.9699 58.5416 90.9686 58.5427 90.9673C59.4938 89.8393 59.8826 88.6029 59.4103 88.2041C59.2824 88.0962 59.1042 88.0603 58.8939 88.0885C58.7298 88.1106 58.5464 88.1711 58.3518 88.2657C58.0671 88.4036 57.7584 88.6149 57.4508 88.8859C57.2499 89.0635 57.049 89.2666 56.8563 89.4921C56.8465 89.5032 56.8371 89.5143 56.8277 89.5255C55.8742 90.6541 55.4845 91.8932 55.9568 92.2925Z" fill="#C2C2C2"/>
<path d="M55.9568 92.2925C56.0902 92.4052 56.2788 92.4386 56.5012 92.4034C56.6658 92.3776 56.8496 92.3138 57.0445 92.2165C57.3303 92.0734 57.6396 91.858 57.9471 91.5832C58.1479 91.4032 58.3476 91.1981 58.5394 90.9711C58.5406 90.9699 58.5416 90.9686 58.5427 90.9673C59.4938 89.8393 59.8826 88.6029 59.4103 88.2041C59.2824 88.0962 59.1042 88.0603 58.8939 88.0885C58.7298 88.1106 58.5464 88.1711 58.3518 88.2657C58.0671 88.4036 57.7584 88.6149 57.4508 88.8859C57.2499 89.0635 57.049 89.2666 56.8563 89.4921C56.8465 89.5032 56.8371 89.5143 56.8277 89.5255C55.8742 90.6541 55.4845 91.8932 55.9568 92.2925Z" fill="#C2C2C2"/>
<path d="M55.9568 92.2925C56.0902 92.4052 56.2788 92.4386 56.5012 92.4034C56.6658 92.3776 56.8496 92.3138 57.0445 92.2165C57.3303 92.0734 57.6396 91.858 57.9471 91.5832C58.1479 91.4032 58.3476 91.1981 58.5394 90.9711C58.5406 90.9699 58.5416 90.9686 58.5427 90.9673C59.4938 89.8393 59.8826 88.6029 59.4103 88.2041C59.2824 88.0962 59.1042 88.0603 58.8939 88.0885C58.7298 88.1106 58.5464 88.1711 58.3518 88.2657C58.0671 88.4036 57.7584 88.6149 57.4508 88.8859C57.2499 89.0635 57.049 89.2666 56.8563 89.4921C56.8465 89.5032 56.8371 89.5143 56.8277 89.5255C55.8742 90.6541 55.4845 91.8932 55.9568 92.2925Z" fill="#F3F2F2"/>
<path d="M77.9085 69.6896C77.6865 69.7502 77.5095 69.93 77.3817 70.1978C77.287 70.3957 77.2189 70.6428 77.1791 70.9272C77.121 71.3442 77.1241 71.8408 77.1928 72.3798C77.2382 72.7322 77.3118 73.1021 77.415 73.4797C77.4155 73.4819 77.4161 73.484 77.4167 73.4861C77.9314 75.3608 78.9834 76.7059 79.769 76.4909C79.9816 76.4326 80.1536 76.2659 80.2799 76.0165C80.3784 75.8219 80.4497 75.5777 80.4923 75.2957C80.555 74.8837 80.5561 74.3908 80.4915 73.8545C80.4488 73.5038 80.3782 73.1341 80.2772 72.7568C80.2726 72.7377 80.2674 72.7191 80.2624 72.7006C79.749 70.823 78.6946 69.4749 77.9085 69.6896Z" fill="#C2C2C2"/>
<path d="M77.9085 69.6896C77.6865 69.7502 77.5095 69.93 77.3817 70.1978C77.287 70.3957 77.2189 70.6428 77.1791 70.9272C77.121 71.3442 77.1241 71.8408 77.1928 72.3798C77.2382 72.7322 77.3118 73.1021 77.415 73.4797C77.4155 73.4819 77.4161 73.484 77.4167 73.4861C77.9314 75.3608 78.9834 76.7059 79.769 76.4909C79.9816 76.4326 80.1536 76.2659 80.2799 76.0165C80.3784 75.8219 80.4497 75.5777 80.4923 75.2957C80.555 74.8837 80.5561 74.3908 80.4915 73.8545C80.4488 73.5038 80.3782 73.1341 80.2772 72.7568C80.2726 72.7377 80.2674 72.7191 80.2624 72.7006C79.749 70.823 78.6946 69.4749 77.9085 69.6896Z" fill="#C2C2C2"/>
<path d="M77.9085 69.6896C77.6865 69.7502 77.5095 69.93 77.3817 70.1978C77.287 70.3957 77.2189 70.6428 77.1791 70.9272C77.121 71.3442 77.1241 71.8408 77.1928 72.3798C77.2382 72.7322 77.3118 73.1021 77.415 73.4797C77.4155 73.4819 77.4161 73.484 77.4167 73.4861C77.9314 75.3608 78.9834 76.7059 79.769 76.4909C79.9816 76.4326 80.1536 76.2659 80.2799 76.0165C80.3784 75.8219 80.4497 75.5777 80.4923 75.2957C80.555 74.8837 80.5561 74.3908 80.4915 73.8545C80.4488 73.5038 80.3782 73.1341 80.2772 72.7568C80.2726 72.7377 80.2674 72.7191 80.2624 72.7006C79.749 70.823 78.6946 69.4749 77.9085 69.6896Z" fill="#C2C2C2"/>
<path d="M77.9414 70.2794C77.7303 70.3714 77.581 70.5747 77.4932 70.8582C77.4278 71.0676 77.396 71.322 77.3975 71.6091C77.4001 72.0302 77.4746 72.5212 77.6202 73.0447C77.7158 73.3869 77.842 73.7422 77.9983 74.1012C77.9992 74.1032 78.0001 74.1053 78.001 74.1073C78.7801 75.8884 80.0147 77.0681 80.7612 76.7422C80.9632 76.654 81.1094 76.4643 81.1985 76.1993C81.2679 75.9926 81.3033 75.7406 81.305 75.4555C81.3077 75.0387 81.2379 74.5507 81.0968 74.0294C81.004 73.6885 80.881 73.3328 80.7267 72.9738C80.7194 72.9557 80.7117 72.938 80.704 72.9204C79.9256 71.1362 78.6883 69.9539 77.9414 70.2794Z" fill="#C2C2C2"/>
<path d="M77.9414 70.2794C77.7303 70.3714 77.581 70.5747 77.4932 70.8582C77.4278 71.0676 77.396 71.322 77.3975 71.6091C77.4001 72.0302 77.4746 72.5212 77.6202 73.0447C77.7158 73.3869 77.842 73.7422 77.9983 74.1012C77.9992 74.1032 78.0001 74.1053 78.001 74.1073C78.7801 75.8884 80.0147 77.0681 80.7612 76.7422C80.9632 76.654 81.1094 76.4643 81.1985 76.1993C81.2679 75.9926 81.3033 75.7406 81.305 75.4555C81.3077 75.0387 81.2379 74.5507 81.0968 74.0294C81.004 73.6885 80.881 73.3328 80.7267 72.9738C80.7194 72.9557 80.7117 72.938 80.704 72.9204C79.9256 71.1362 78.6883 69.9539 77.9414 70.2794Z" fill="#C2C2C2"/>
<path d="M77.9414 70.2794C77.7303 70.3714 77.581 70.5747 77.4932 70.8582C77.4278 71.0676 77.396 71.322 77.3975 71.6091C77.4001 72.0302 77.4746 72.5212 77.6202 73.0447C77.7158 73.3869 77.842 73.7422 77.9983 74.1012C77.9992 74.1032 78.0001 74.1053 78.001 74.1073C78.7801 75.8884 80.0147 77.0681 80.7612 76.7422C80.9632 76.654 81.1094 76.4643 81.1985 76.1993C81.2679 75.9926 81.3033 75.7406 81.305 75.4555C81.3077 75.0387 81.2379 74.5507 81.0968 74.0294C81.004 73.6885 80.881 73.3328 80.7267 72.9738C80.7194 72.9557 80.7117 72.938 80.704 72.9204C79.9256 71.1362 78.6883 69.9539 77.9414 70.2794Z" fill="#F3F2F2"/>
<path d="M72.4787 96.1926C72.5565 96.4093 72.7495 96.5717 73.0266 96.6782C73.2312 96.7572 73.4829 96.8057 73.7695 96.8233C74.1898 96.8484 74.6846 96.8066 75.2166 96.6959C75.5644 96.6231 75.9273 96.5207 76.2958 96.3884C76.2978 96.3878 76.3 96.387 76.3021 96.3862C78.1308 95.7266 79.3895 94.5726 79.1137 93.8063C79.039 93.5989 78.8593 93.4404 78.6009 93.334C78.3991 93.2511 78.1501 93.1991 77.8657 93.1786C77.45 93.1482 76.9585 93.1857 76.429 93.2921C76.0827 93.3621 75.7196 93.4613 75.3513 93.5915C75.3327 93.5976 75.3146 93.6041 75.2965 93.6107C73.4647 94.2694 72.2032 95.4259 72.4787 96.1926Z" fill="#C2C2C2"/>
<path d="M72.4787 96.1926C72.5565 96.4093 72.7495 96.5717 73.0266 96.6782C73.2312 96.7572 73.4829 96.8057 73.7695 96.8233C74.1898 96.8484 74.6846 96.8066 75.2166 96.6959C75.5644 96.6231 75.9273 96.5207 76.2958 96.3884C76.2978 96.3878 76.3 96.387 76.3021 96.3862C78.1308 95.7266 79.3895 94.5726 79.1137 93.8063C79.039 93.5989 78.8593 93.4404 78.6009 93.334C78.3991 93.2511 78.1501 93.1991 77.8657 93.1786C77.45 93.1482 76.9585 93.1857 76.429 93.2921C76.0827 93.3621 75.7196 93.4613 75.3513 93.5915C75.3327 93.5976 75.3146 93.6041 75.2965 93.6107C73.4647 94.2694 72.2032 95.4259 72.4787 96.1926Z" fill="#C2C2C2"/>
<path d="M72.4787 96.1926C72.5565 96.4093 72.7495 96.5717 73.0266 96.6782C73.2312 96.7572 73.4829 96.8057 73.7695 96.8233C74.1898 96.8484 74.6846 96.8066 75.2166 96.6959C75.5644 96.6231 75.9273 96.5207 76.2958 96.3884C76.2978 96.3878 76.3 96.387 76.3021 96.3862C78.1308 95.7266 79.3895 94.5726 79.1137 93.8063C79.039 93.5989 78.8593 93.4404 78.6009 93.334C78.3991 93.2511 78.1501 93.1991 77.8657 93.1786C77.45 93.1482 76.9585 93.1857 76.429 93.2921C76.0827 93.3621 75.7196 93.4613 75.3513 93.5915C75.3327 93.5976 75.3146 93.6041 75.2965 93.6107C73.4647 94.2694 72.2032 95.4259 72.4787 96.1926Z" fill="#C2C2C2"/>
<path d="M73.0641 96.1138C73.1723 96.317 73.3867 96.45 73.6762 96.5154C73.8901 96.5641 74.1461 96.5759 74.4323 96.5521C74.8518 96.5165 75.3355 96.4038 75.846 96.2178C76.1797 96.0957 76.5242 95.9422 76.8697 95.7582C76.8717 95.7572 76.8736 95.7561 76.8756 95.7551C78.5904 94.8392 79.6699 93.5161 79.2868 92.7974C79.1829 92.6029 78.9823 92.472 78.7112 92.4039C78.4997 92.3508 78.2458 92.3351 77.9614 92.3559C77.5455 92.3857 77.0647 92.4935 76.5559 92.6749C76.2233 92.794 75.8783 92.9445 75.5325 93.1263C75.5149 93.135 75.4981 93.1441 75.4811 93.1531C73.7631 94.0686 72.6811 95.3946 73.0641 96.1138Z" fill="#C2C2C2"/>
<path d="M73.0641 96.1138C73.1723 96.317 73.3867 96.45 73.6762 96.5154C73.8901 96.5641 74.1461 96.5759 74.4323 96.5521C74.8518 96.5165 75.3355 96.4038 75.846 96.2178C76.1797 96.0957 76.5242 95.9422 76.8697 95.7582C76.8717 95.7572 76.8736 95.7561 76.8756 95.7551C78.5904 94.8392 79.6699 93.5161 79.2868 92.7974C79.1829 92.6029 78.9823 92.472 78.7112 92.4039C78.4997 92.3508 78.2458 92.3351 77.9614 92.3559C77.5455 92.3857 77.0647 92.4935 76.5559 92.6749C76.2233 92.794 75.8783 92.9445 75.5325 93.1263C75.5149 93.135 75.4981 93.1441 75.4811 93.1531C73.7631 94.0686 72.6811 95.3946 73.0641 96.1138Z" fill="#C2C2C2"/>
<path d="M73.0641 96.1138C73.1723 96.317 73.3867 96.45 73.6762 96.5154C73.8901 96.5641 74.1461 96.5759 74.4323 96.5521C74.8518 96.5165 75.3355 96.4038 75.846 96.2178C76.1797 96.0957 76.5242 95.9422 76.8697 95.7582C76.8717 95.7572 76.8736 95.7561 76.8756 95.7551C78.5904 94.8392 79.6699 93.5161 79.2868 92.7974C79.1829 92.6029 78.9823 92.472 78.7112 92.4039C78.4997 92.3508 78.2458 92.3351 77.9614 92.3559C77.5455 92.3857 77.0647 92.4935 76.5559 92.6749C76.2233 92.794 75.8783 92.9445 75.5325 93.1263C75.5149 93.135 75.4981 93.1441 75.4811 93.1531C73.7631 94.0686 72.6811 95.3946 73.0641 96.1138Z" fill="#F3F2F2"/>
<path d="M63.0494 97.9234C62.8325 98.0007 62.5846 97.9546 62.3265 97.8079C62.1356 97.6999 61.9385 97.5361 61.7431 97.3256C61.4569 97.0168 61.1753 96.6077 60.9234 96.1263C60.7591 95.8113 60.6079 95.4657 60.4765 95.097C60.4756 95.095 60.4749 95.0927 60.4742 95.0907C59.824 93.2587 59.9173 91.5535 60.6847 91.2806C60.8924 91.2068 61.1289 91.2451 61.3752 91.3774C61.5672 91.4807 61.7654 91.6402 61.9617 91.8471C62.2488 92.1492 62.5317 92.5528 62.7854 93.0297C62.951 93.3417 63.1046 93.6853 63.2377 94.0527C63.2448 94.071 63.2512 94.0891 63.2576 94.1072C63.9106 95.941 63.8169 97.6499 63.0494 97.9234Z" fill="#C2C2C2"/>
<path d="M63.0494 97.9234C62.8325 98.0007 62.5846 97.9546 62.3265 97.8079C62.1356 97.6999 61.9385 97.5361 61.7431 97.3256C61.4569 97.0168 61.1753 96.6077 60.9234 96.1263C60.7591 95.8113 60.6079 95.4657 60.4765 95.097C60.4756 95.095 60.4749 95.0927 60.4742 95.0907C59.824 93.2587 59.9173 91.5535 60.6847 91.2806C60.8924 91.2068 61.1289 91.2451 61.3752 91.3774C61.5672 91.4807 61.7654 91.6402 61.9617 91.8471C62.2488 92.1492 62.5317 92.5528 62.7854 93.0297C62.951 93.3417 63.1046 93.6853 63.2377 94.0527C63.2448 94.071 63.2512 94.0891 63.2576 94.1072C63.9106 95.941 63.8169 97.6499 63.0494 97.9234Z" fill="#C2C2C2"/>
<path d="M63.0494 97.9234C62.8325 98.0007 62.5846 97.9546 62.3265 97.8079C62.1356 97.6999 61.9385 97.5361 61.7431 97.3256C61.4569 97.0168 61.1753 96.6077 60.9234 96.1263C60.7591 95.8113 60.6079 95.4657 60.4765 95.097C60.4756 95.095 60.4749 95.0927 60.4742 95.0907C59.824 93.2587 59.9173 91.5535 60.6847 91.2806C60.8924 91.2068 61.1289 91.2451 61.3752 91.3774C61.5672 91.4807 61.7654 91.6402 61.9617 91.8471C62.2488 92.1492 62.5317 92.5528 62.7854 93.0297C62.951 93.3417 63.1046 93.6853 63.2377 94.0527C63.2448 94.071 63.2512 94.0891 63.2576 94.1072C63.9106 95.941 63.8169 97.6499 63.0494 97.9234Z" fill="#C2C2C2"/>
<path d="M62.5933 97.684C62.3676 97.7293 62.1288 97.6479 61.8946 97.4656C61.7212 97.3312 61.5497 97.1408 61.3866 96.9045C61.1479 96.5576 60.9281 96.1122 60.7481 95.5996C60.6308 95.2642 60.5309 94.9005 60.4539 94.5167C60.4534 94.5146 60.453 94.5123 60.4525 94.5102C60.0727 92.6036 60.4105 90.9298 61.2092 90.77C61.4254 90.7269 61.6539 90.7989 61.8785 90.9652C62.0537 91.095 62.2269 91.2814 62.3914 91.5144C62.6321 91.8547 62.8539 92.2948 63.0363 92.8032C63.1553 93.1358 63.2578 93.498 63.3367 93.8806C63.3411 93.8997 63.3448 93.9186 63.3486 93.9374C63.7308 95.8462 63.3923 97.5238 62.5933 97.684Z" fill="#C2C2C2"/>
<path d="M62.5933 97.684C62.3676 97.7293 62.1288 97.6479 61.8946 97.4656C61.7212 97.3312 61.5497 97.1408 61.3866 96.9045C61.1479 96.5576 60.9281 96.1122 60.7481 95.5996C60.6308 95.2642 60.5309 94.9005 60.4539 94.5167C60.4534 94.5146 60.453 94.5123 60.4525 94.5102C60.0727 92.6036 60.4105 90.9298 61.2092 90.77C61.4254 90.7269 61.6539 90.7989 61.8785 90.9652C62.0537 91.095 62.2269 91.2814 62.3914 91.5144C62.6321 91.8547 62.8539 92.2948 63.0363 92.8032C63.1553 93.1358 63.2578 93.498 63.3367 93.8806C63.3411 93.8997 63.3448 93.9186 63.3486 93.9374C63.7308 95.8462 63.3923 97.5238 62.5933 97.684Z" fill="#C2C2C2"/>
<path d="M62.5933 97.684C62.3676 97.7293 62.1288 97.6479 61.8946 97.4656C61.7212 97.3312 61.5497 97.1408 61.3866 96.9045C61.1479 96.5576 60.9281 96.1122 60.7481 95.5996C60.6308 95.2642 60.5309 94.9005 60.4539 94.5167C60.4534 94.5146 60.453 94.5123 60.4525 94.5102C60.0727 92.6036 60.4105 90.9298 61.2092 90.77C61.4254 90.7269 61.6539 90.7989 61.8785 90.9652C62.0537 91.095 62.2269 91.2814 62.3914 91.5144C62.6321 91.8547 62.8539 92.2948 63.0363 92.8032C63.1553 93.1358 63.2578 93.498 63.3367 93.8806C63.3411 93.8997 63.3448 93.9186 63.3486 93.9374C63.7308 95.8462 63.3923 97.5238 62.5933 97.684Z" fill="#F3F2F2"/>
<path d="M61.7187 67.2107C61.825 67.0297 62.0255 66.9168 62.2918 66.8683C62.4887 66.832 62.7224 66.8312 62.9823 66.864C63.3632 66.9125 63.7997 67.0337 64.2578 67.2229C64.5571 67.347 64.8651 67.5001 65.173 67.6811C65.1747 67.682 65.1765 67.6831 65.1782 67.6841C66.7056 68.5848 67.6386 69.8319 67.2617 70.4722C67.1597 70.6454 66.9718 70.757 66.7222 70.8087C66.5273 70.8489 66.2953 70.8534 66.0369 70.8236C65.6592 70.7804 65.2251 70.6637 64.7684 70.4788C64.4699 70.3574 64.1613 70.207 63.8531 70.0281C63.8376 70.0195 63.8225 70.0105 63.8074 70.0016C62.277 69.1014 61.3419 67.8514 61.7187 67.2107Z" fill="#C2C2C2"/>
<path d="M61.7187 67.2107C61.825 67.0297 62.0255 66.9168 62.2918 66.8683C62.4887 66.832 62.7224 66.8312 62.9823 66.864C63.3632 66.9125 63.7997 67.0337 64.2578 67.2229C64.5571 67.347 64.8651 67.5001 65.173 67.6811C65.1747 67.682 65.1765 67.6831 65.1782 67.6841C66.7056 68.5848 67.6386 69.8319 67.2617 70.4722C67.1597 70.6454 66.9718 70.757 66.7222 70.8087C66.5273 70.8489 66.2953 70.8534 66.0369 70.8236C65.6592 70.7804 65.2251 70.6637 64.7684 70.4788C64.4699 70.3574 64.1613 70.207 63.8531 70.0281C63.8376 70.0195 63.8225 70.0105 63.8074 70.0016C62.277 69.1014 61.3419 67.8514 61.7187 67.2107Z" fill="#C2C2C2"/>
<path d="M61.7187 67.2107C61.825 67.0297 62.0255 66.9168 62.2918 66.8683C62.4887 66.832 62.7224 66.8312 62.9823 66.864C63.3632 66.9125 63.7997 67.0337 64.2578 67.2229C64.5571 67.347 64.8651 67.5001 65.173 67.6811C65.1747 67.682 65.1765 67.6831 65.1782 67.6841C66.7056 68.5848 67.6386 69.8319 67.2617 70.4722C67.1597 70.6454 66.9718 70.757 66.7222 70.8087C66.5273 70.8489 66.2953 70.8534 66.0369 70.8236C65.6592 70.7804 65.2251 70.6637 64.7684 70.4788C64.4699 70.3574 64.1613 70.207 63.8531 70.0281C63.8376 70.0195 63.8225 70.0105 63.8074 70.0016C62.277 69.1014 61.3419 67.8514 61.7187 67.2107Z" fill="#C2C2C2"/>
<path d="M61.5307 67.95C61.5645 67.779 61.6922 67.6451 61.8904 67.5508C62.0368 67.4809 62.2225 67.4325 62.4384 67.4066C62.7551 67.369 63.1363 67.38 63.5538 67.4427C63.8268 67.484 64.1149 67.5476 64.4106 67.6341C64.4123 67.6346 64.414 67.6351 64.4157 67.6355C65.8837 68.0672 66.9763 68.9056 66.8563 69.5105C66.8238 69.6741 66.7058 69.8044 66.5217 69.8979C66.378 69.9708 66.1947 70.0218 65.9808 70.0498C65.6682 70.0912 65.2901 70.0834 64.8749 70.0239C64.6033 69.9846 64.3156 69.9235 64.0202 69.8387C64.0053 69.8347 63.9908 69.8305 63.9763 69.8262C62.506 69.3955 61.411 68.5551 61.5307 67.95Z" fill="#C2C2C2"/>
<path d="M61.5307 67.95C61.5645 67.779 61.6922 67.6451 61.8904 67.5508C62.0368 67.4809 62.2225 67.4325 62.4384 67.4066C62.7551 67.369 63.1363 67.38 63.5538 67.4427C63.8268 67.484 64.1149 67.5476 64.4106 67.6341C64.4123 67.6346 64.414 67.6351 64.4157 67.6355C65.8837 68.0672 66.9763 68.9056 66.8563 69.5105C66.8238 69.6741 66.7058 69.8044 66.5217 69.8979C66.378 69.9708 66.1947 70.0218 65.9808 70.0498C65.6682 70.0912 65.2901 70.0834 64.8749 70.0239C64.6033 69.9846 64.3156 69.9235 64.0202 69.8387C64.0053 69.8347 63.9908 69.8305 63.9763 69.8262C62.506 69.3955 61.411 68.5551 61.5307 67.95Z" fill="#C2C2C2"/>
<path d="M61.5307 67.95C61.5645 67.779 61.6922 67.6451 61.8904 67.5508C62.0368 67.4809 62.2225 67.4325 62.4384 67.4066C62.7551 67.369 63.1363 67.38 63.5538 67.4427C63.8268 67.484 64.1149 67.5476 64.4106 67.6341C64.4123 67.6346 64.414 67.6351 64.4157 67.6355C65.8837 68.0672 66.9763 68.9056 66.8563 69.5105C66.8238 69.6741 66.7058 69.8044 66.5217 69.8979C66.378 69.9708 66.1947 70.0218 65.9808 70.0498C65.6682 70.0912 65.2901 70.0834 64.8749 70.0239C64.6033 69.9846 64.3156 69.9235 64.0202 69.8387C64.0053 69.8347 63.9908 69.8305 63.9763 69.8262C62.506 69.3955 61.411 68.5551 61.5307 67.95Z" fill="#EBEBEB"/>
<path d="M53.3888 78.3434C53.5919 78.2906 53.8136 78.3525 54.0362 78.5065C54.201 78.62 54.3669 78.7846 54.5275 78.9916C54.7627 79.2952 54.9856 79.6895 55.1759 80.1471C55.2998 80.4466 55.4093 80.7726 55.4991 81.1182C55.4997 81.1202 55.5002 81.1221 55.5008 81.1241C55.9442 82.8409 55.7222 84.3826 55.003 84.5689C54.8084 84.6192 54.5966 84.5655 54.3835 84.4254C54.2173 84.3161 54.0501 84.1553 53.8883 83.9515C53.6517 83.6539 53.4272 83.2645 53.235 82.8109C53.1097 82.514 52.9978 82.1895 52.9064 81.845C52.9015 81.8278 52.8971 81.8109 52.8927 81.7939C52.4469 80.0752 52.6694 78.5301 53.3888 78.3434Z" fill="#C2C2C2"/>
<path d="M53.3888 78.3434C53.5919 78.2906 53.8136 78.3525 54.0362 78.5065C54.201 78.62 54.3669 78.7846 54.5275 78.9916C54.7627 79.2952 54.9856 79.6895 55.1759 80.1471C55.2998 80.4466 55.4093 80.7726 55.4991 81.1182C55.4997 81.1202 55.5002 81.1221 55.5008 81.1241C55.9442 82.8409 55.7222 84.3826 55.003 84.5689C54.8084 84.6192 54.5966 84.5655 54.3835 84.4254C54.2173 84.3161 54.0501 84.1553 53.8883 83.9515C53.6517 83.6539 53.4272 83.2645 53.235 82.8109C53.1097 82.514 52.9978 82.1895 52.9064 81.845C52.9015 81.8278 52.8971 81.8109 52.8927 81.7939C52.4469 80.0752 52.6694 78.5301 53.3888 78.3434Z" fill="#C2C2C2"/>
<path d="M53.3888 78.3434C53.5919 78.2906 53.8136 78.3525 54.0362 78.5065C54.201 78.62 54.3669 78.7846 54.5275 78.9916C54.7627 79.2952 54.9856 79.6895 55.1759 80.1471C55.2998 80.4466 55.4093 80.7726 55.4991 81.1182C55.4997 81.1202 55.5002 81.1221 55.5008 81.1241C55.9442 82.8409 55.7222 84.3826 55.003 84.5689C54.8084 84.6192 54.5966 84.5655 54.3835 84.4254C54.2173 84.3161 54.0501 84.1553 53.8883 83.9515C53.6517 83.6539 53.4272 83.2645 53.235 82.8109C53.1097 82.514 52.9978 82.1895 52.9064 81.845C52.9015 81.8278 52.8971 81.8109 52.8927 81.7939C52.4469 80.0752 52.6694 78.5301 53.3888 78.3434Z" fill="#C2C2C2"/>
<path d="M53.3491 78.4869C53.5127 78.427 53.6935 78.4666 53.877 78.5871C54.0128 78.6759 54.1506 78.8095 54.2848 78.9805C54.4814 79.2317 54.6698 79.5633 54.833 79.9526C54.9394 80.2074 55.0346 80.4866 55.1143 80.7843C55.1147 80.786 55.1152 80.7877 55.1156 80.7893C55.5089 82.2681 55.3595 83.6372 54.7804 83.8487C54.6237 83.9059 54.451 83.8726 54.2755 83.7639C54.1386 83.6789 53.9999 83.5487 53.8649 83.3804C53.6672 83.1348 53.4776 82.8075 53.3128 82.4218C53.2053 82.1694 53.1082 81.8917 53.0273 81.5952C53.023 81.5805 53.0192 81.5658 53.0153 81.5512C52.62 80.071 52.7698 78.6988 53.3491 78.4869Z" fill="#C2C2C2"/>
<path d="M53.3491 78.4869C53.5127 78.427 53.6935 78.4666 53.877 78.5871C54.0128 78.6759 54.1506 78.8095 54.2848 78.9805C54.4814 79.2317 54.6698 79.5633 54.833 79.9526C54.9394 80.2074 55.0346 80.4866 55.1143 80.7843C55.1147 80.786 55.1152 80.7877 55.1156 80.7893C55.5089 82.2681 55.3595 83.6372 54.7804 83.8487C54.6237 83.9059 54.451 83.8726 54.2755 83.7639C54.1386 83.6789 53.9999 83.5487 53.8649 83.3804C53.6672 83.1348 53.4776 82.8075 53.3128 82.4218C53.2053 82.1694 53.1082 81.8917 53.0273 81.5952C53.023 81.5805 53.0192 81.5658 53.0153 81.5512C52.62 80.071 52.7698 78.6988 53.3491 78.4869Z" fill="#C2C2C2"/>
<path d="M53.3491 78.4869C53.5127 78.427 53.6935 78.4666 53.877 78.5871C54.0128 78.6759 54.1506 78.8095 54.2848 78.9805C54.4814 79.2317 54.6698 79.5633 54.833 79.9526C54.9394 80.2074 55.0346 80.4866 55.1143 80.7843C55.1147 80.786 55.1152 80.7877 55.1156 80.7893C55.5089 82.2681 55.3595 83.6372 54.7804 83.8487C54.6237 83.9059 54.451 83.8726 54.2755 83.7639C54.1386 83.6789 53.9999 83.5487 53.8649 83.3804C53.6672 83.1348 53.4776 82.8075 53.3128 82.4218C53.2053 82.1694 53.1082 81.8917 53.0273 81.5952C53.023 81.5805 53.0192 81.5658 53.0153 81.5512C52.62 80.071 52.7698 78.6988 53.3491 78.4869Z" fill="#EBEBEB"/>
<path d="M80.1771 76.4997C80.2836 76.3187 80.484 76.2058 80.7503 76.1573C80.9472 76.1211 81.1809 76.1202 81.4408 76.153C81.8217 76.2015 82.2582 76.3227 82.7163 76.5119C83.0156 76.636 83.3236 76.7892 83.6315 76.9701C83.6332 76.9711 83.635 76.9721 83.6368 76.9731C85.1642 77.8738 86.0971 79.121 85.7203 79.7612C85.6182 79.9344 85.4304 80.0461 85.1807 80.0977C84.9858 80.138 84.7538 80.1424 84.4954 80.1127C84.1177 80.0695 83.6836 79.9528 83.227 79.7679C82.9284 79.6465 82.6198 79.4961 82.3117 79.3171C82.2961 79.3085 82.281 79.2996 82.2659 79.2907C80.7355 78.3904 79.8004 77.1404 80.1771 76.4997Z" fill="#C2C2C2"/>
<path d="M80.1771 76.4997C80.2836 76.3187 80.484 76.2058 80.7503 76.1573C80.9472 76.1211 81.1809 76.1202 81.4408 76.153C81.8217 76.2015 82.2582 76.3227 82.7163 76.5119C83.0156 76.636 83.3236 76.7892 83.6315 76.9701C83.6332 76.9711 83.635 76.9721 83.6368 76.9731C85.1642 77.8738 86.0971 79.121 85.7203 79.7612C85.6182 79.9344 85.4304 80.0461 85.1807 80.0977C84.9858 80.138 84.7538 80.1424 84.4954 80.1127C84.1177 80.0695 83.6836 79.9528 83.227 79.7679C82.9284 79.6465 82.6198 79.4961 82.3117 79.3171C82.2961 79.3085 82.281 79.2996 82.2659 79.2907C80.7355 78.3904 79.8004 77.1404 80.1771 76.4997Z" fill="#C2C2C2"/>
<path d="M80.1771 76.4997C80.2836 76.3187 80.484 76.2058 80.7503 76.1573C80.9472 76.1211 81.1809 76.1202 81.4408 76.153C81.8217 76.2015 82.2582 76.3227 82.7163 76.5119C83.0156 76.636 83.3236 76.7892 83.6315 76.9701C83.6332 76.9711 83.635 76.9721 83.6368 76.9731C85.1642 77.8738 86.0971 79.121 85.7203 79.7612C85.6182 79.9344 85.4304 80.0461 85.1807 80.0977C84.9858 80.138 84.7538 80.1424 84.4954 80.1127C84.1177 80.0695 83.6836 79.9528 83.227 79.7679C82.9284 79.6465 82.6198 79.4961 82.3117 79.3171C82.2961 79.3085 82.281 79.2996 82.2659 79.2907C80.7355 78.3904 79.8004 77.1404 80.1771 76.4997Z" fill="#C2C2C2"/>
<path d="M79.9894 77.239C80.0232 77.068 80.1509 76.9341 80.3492 76.8398C80.4956 76.7698 80.6812 76.7215 80.8972 76.6956C81.2138 76.658 81.5951 76.669 82.0127 76.7318C82.2857 76.7731 82.5737 76.8367 82.8694 76.9232C82.8711 76.9236 82.8728 76.9241 82.8744 76.9246C84.3425 77.3562 85.435 78.1947 85.3151 78.7995C85.2826 78.9632 85.1645 79.0935 84.9804 79.1869C84.8368 79.2598 84.6535 79.3107 84.4396 79.3389C84.127 79.3802 83.7489 79.3724 83.3336 79.313C83.0621 79.2737 82.7744 79.2126 82.479 79.1278C82.4641 79.1238 82.4496 79.1195 82.4351 79.1152C80.9648 78.6845 79.8698 77.8442 79.9894 77.239Z" fill="#C2C2C2"/>
<path d="M79.9894 77.239C80.0232 77.068 80.1509 76.9341 80.3492 76.8398C80.4956 76.7698 80.6812 76.7215 80.8972 76.6956C81.2138 76.658 81.5951 76.669 82.0127 76.7318C82.2857 76.7731 82.5737 76.8367 82.8694 76.9232C82.8711 76.9236 82.8728 76.9241 82.8744 76.9246C84.3425 77.3562 85.435 78.1947 85.3151 78.7995C85.2826 78.9632 85.1645 79.0935 84.9804 79.1869C84.8368 79.2598 84.6535 79.3107 84.4396 79.3389C84.127 79.3802 83.7489 79.3724 83.3336 79.313C83.0621 79.2737 82.7744 79.2126 82.479 79.1278C82.4641 79.1238 82.4496 79.1195 82.4351 79.1152C80.9648 78.6845 79.8698 77.8442 79.9894 77.239Z" fill="#C2C2C2"/>
<path d="M79.9894 77.239C80.0232 77.068 80.1509 76.9341 80.3492 76.8398C80.4956 76.7698 80.6812 76.7215 80.8972 76.6956C81.2138 76.658 81.5951 76.669 82.0127 76.7318C82.2857 76.7731 82.5737 76.8367 82.8694 76.9232C82.8711 76.9236 82.8728 76.9241 82.8744 76.9246C84.3425 77.3562 85.435 78.1947 85.3151 78.7995C85.2826 78.9632 85.1645 79.0935 84.9804 79.1869C84.8368 79.2598 84.6535 79.3107 84.4396 79.3389C84.127 79.3802 83.7489 79.3724 83.3336 79.313C83.0621 79.2737 82.7744 79.2126 82.479 79.1278C82.4641 79.1238 82.4496 79.1195 82.4351 79.1152C80.9648 78.6845 79.8698 77.8442 79.9894 77.239Z" fill="#F3F2F2"/>
<path d="M69.1517 71.7404C68.9774 71.55 68.9171 71.2735 68.9563 70.9429C68.9848 70.6984 69.0683 70.4233 69.2007 70.1297C69.3954 69.6994 69.6955 69.2301 70.0834 68.76C70.3375 68.4529 70.6289 68.1462 70.9528 67.8497C70.9546 67.8479 70.9564 67.8463 70.9582 67.8446C72.5688 66.3745 74.372 65.7284 74.9884 66.4027C75.1552 66.5852 75.2186 66.8464 75.1891 67.1585C75.166 67.4022 75.0874 67.6765 74.9591 67.9695C74.7718 68.3979 74.4778 68.866 74.0954 69.3361C73.845 69.6432 73.5567 69.9516 73.235 70.2491C73.2192 70.2644 73.2032 70.2789 73.1872 70.2935C71.576 71.7672 69.7688 72.4147 69.1517 71.7404Z" fill="#C2C2C2"/>
<path d="M69.1517 71.7404C68.9774 71.55 68.9171 71.2735 68.9563 70.9429C68.9848 70.6984 69.0683 70.4233 69.2007 70.1297C69.3954 69.6994 69.6955 69.2301 70.0834 68.76C70.3375 68.4529 70.6289 68.1462 70.9528 67.8497C70.9546 67.8479 70.9564 67.8463 70.9582 67.8446C72.5688 66.3745 74.372 65.7284 74.9884 66.4027C75.1552 66.5852 75.2186 66.8464 75.1891 67.1585C75.166 67.4022 75.0874 67.6765 74.9591 67.9695C74.7718 68.3979 74.4778 68.866 74.0954 69.3361C73.845 69.6432 73.5567 69.9516 73.235 70.2491C73.2192 70.2644 73.2032 70.2789 73.1872 70.2935C71.576 71.7672 69.7688 72.4147 69.1517 71.7404Z" fill="#C2C2C2"/>
<path d="M69.1517 71.7404C68.9774 71.55 68.9171 71.2735 68.9563 70.9429C68.9848 70.6984 69.0683 70.4233 69.2007 70.1297C69.3954 69.6994 69.6955 69.2301 70.0834 68.76C70.3375 68.4529 70.6289 68.1462 70.9528 67.8497C70.9546 67.8479 70.9564 67.8463 70.9582 67.8446C72.5688 66.3745 74.372 65.7284 74.9884 66.4027C75.1552 66.5852 75.2186 66.8464 75.1891 67.1585C75.166 67.4022 75.0874 67.6765 74.9591 67.9695C74.7718 68.3979 74.4778 68.866 74.0954 69.3361C73.845 69.6432 73.5567 69.9516 73.235 70.2491C73.2192 70.2644 73.2032 70.2789 73.1872 70.2935C71.576 71.7672 69.7688 72.4147 69.1517 71.7404Z" fill="#C2C2C2"/>
<path d="M69.9608 71.5835C69.7899 71.4541 69.7105 71.2408 69.7129 70.9709C69.7144 70.7714 69.7608 70.54 69.8484 70.2872C69.9773 69.9169 70.1946 69.5012 70.4888 69.0733C70.6814 68.7937 70.9067 68.5094 71.1615 68.229C71.1629 68.2273 71.1643 68.2257 71.1657 68.2242C72.4331 66.8331 73.9483 66.0762 74.5526 66.5343C74.716 66.6583 74.7967 66.859 74.8009 67.1129C74.8042 67.311 74.7618 67.5411 74.6778 67.7928C74.5553 68.1607 74.3432 68.5746 74.0539 69.0017C73.8644 69.2809 73.6419 69.5661 73.3891 69.8471C73.3768 69.8615 73.3642 69.8752 73.3517 69.889C72.0841 71.283 70.5656 72.0415 69.9608 71.5835Z" fill="#C2C2C2"/>
<path d="M69.9608 71.5835C69.7899 71.4541 69.7105 71.2408 69.7129 70.9709C69.7144 70.7714 69.7608 70.54 69.8484 70.2872C69.9773 69.9169 70.1946 69.5012 70.4888 69.0733C70.6814 68.7937 70.9067 68.5094 71.1615 68.229C71.1629 68.2273 71.1643 68.2257 71.1657 68.2242C72.4331 66.8331 73.9483 66.0762 74.5526 66.5343C74.716 66.6583 74.7967 66.859 74.8009 67.1129C74.8042 67.311 74.7618 67.5411 74.6778 67.7928C74.5553 68.1607 74.3432 68.5746 74.0539 69.0017C73.8644 69.2809 73.6419 69.5661 73.3891 69.8471C73.3768 69.8615 73.3642 69.8752 73.3517 69.889C72.0841 71.283 70.5656 72.0415 69.9608 71.5835Z" fill="#C2C2C2"/>
<path d="M69.9608 71.5835C69.7899 71.4541 69.7105 71.2408 69.7129 70.9709C69.7144 70.7714 69.7608 70.54 69.8484 70.2872C69.9773 69.9169 70.1946 69.5012 70.4888 69.0733C70.6814 68.7937 70.9067 68.5094 71.1615 68.229C71.1629 68.2273 71.1643 68.2257 71.1657 68.2242C72.4331 66.8331 73.9483 66.0762 74.5526 66.5343C74.716 66.6583 74.7967 66.859 74.8009 67.1129C74.8042 67.311 74.7618 67.5411 74.6778 67.7928C74.5553 68.1607 74.3432 68.5746 74.0539 69.0017C73.8644 69.2809 73.6419 69.5661 73.3891 69.8471C73.3768 69.8615 73.3642 69.8752 73.3517 69.889C72.0841 71.283 70.5656 72.0415 69.9608 71.5835Z" fill="#F3F2F2"/>
<path d="M77.7173 87.1989C77.51 87.3529 77.3984 87.6129 77.3743 87.945C77.3561 88.1904 77.3859 88.4763 77.4604 88.7897C77.5701 89.249 77.776 89.7667 78.068 90.3018C78.2593 90.6514 78.4872 91.0077 78.7492 91.3601C78.7506 91.3622 78.7521 91.3642 78.7536 91.3662C80.0568 93.1146 81.7051 94.0904 82.438 93.545C82.6363 93.3972 82.748 93.1528 82.7781 92.8407C82.8015 92.5972 82.7763 92.3129 82.7058 92.0009C82.603 91.5448 82.4029 91.0294 82.1164 90.4956C81.9286 90.1466 81.7039 89.7892 81.4444 89.4361C81.4317 89.4181 81.4188 89.4008 81.4059 89.3835C80.1027 87.6315 78.4508 86.6535 77.7173 87.1989Z" fill="#C2C2C2"/>
<path d="M77.7173 87.1989C77.51 87.3529 77.3984 87.6129 77.3743 87.945C77.3561 88.1904 77.3859 88.4763 77.4604 88.7897C77.5701 89.249 77.776 89.7667 78.068 90.3018C78.2593 90.6514 78.4872 91.0077 78.7492 91.3601C78.7506 91.3622 78.7521 91.3642 78.7536 91.3662C80.0568 93.1146 81.7051 94.0904 82.438 93.545C82.6363 93.3972 82.748 93.1528 82.7781 92.8407C82.8015 92.5972 82.7763 92.3129 82.7058 92.0009C82.603 91.5448 82.4029 91.0294 82.1164 90.4956C81.9286 90.1466 81.7039 89.7892 81.4444 89.4361C81.4317 89.4181 81.4188 89.4008 81.4059 89.3835C80.1027 87.6315 78.4508 86.6535 77.7173 87.1989Z" fill="#C2C2C2"/>
<path d="M77.7173 87.1989C77.51 87.3529 77.3984 87.6129 77.3743 87.945C77.3561 88.1904 77.3859 88.4763 77.4604 88.7897C77.5701 89.249 77.776 89.7667 78.068 90.3018C78.2593 90.6514 78.4872 91.0077 78.7492 91.3601C78.7506 91.3622 78.7521 91.3642 78.7536 91.3662C80.0568 93.1146 81.7051 94.0904 82.438 93.545C82.6363 93.3972 82.748 93.1528 82.7781 92.8407C82.8015 92.5972 82.7763 92.3129 82.7058 92.0009C82.603 91.5448 82.4029 91.0294 82.1164 90.4956C81.9286 90.1466 81.7039 89.7892 81.4444 89.4361C81.4317 89.4181 81.4188 89.4008 81.4059 89.3835C80.1027 87.6315 78.4508 86.6535 77.7173 87.1989Z" fill="#C2C2C2"/>
<path d="M78.4819 87.506C78.2896 87.6007 78.1713 87.7952 78.1226 88.0607C78.0862 88.2569 78.088 88.4928 78.1262 88.7576C78.1826 89.1456 78.3174 89.5949 78.5252 90.0708C78.6614 90.3818 78.8288 90.7036 79.0259 91.0273C79.027 91.0291 79.0281 91.031 79.0292 91.0328C80.0103 92.6386 81.3548 93.6686 82.0349 93.3332C82.2189 93.2423 82.336 93.0605 82.3882 92.8121C82.4289 92.6182 82.431 92.3842 82.396 92.1212C82.3454 91.7368 82.2155 91.2902 82.0124 90.816C81.8791 90.506 81.7146 90.1838 81.5196 89.86C81.5101 89.8436 81.5004 89.8278 81.4907 89.8118C80.51 88.2031 79.1625 87.1709 78.4819 87.506Z" fill="#C2C2C2"/>
<path d="M78.4819 87.506C78.2896 87.6007 78.1713 87.7952 78.1226 88.0607C78.0862 88.2569 78.088 88.4928 78.1262 88.7576C78.1826 89.1456 78.3174 89.5949 78.5252 90.0708C78.6614 90.3818 78.8288 90.7036 79.0259 91.0273C79.027 91.0291 79.0281 91.031 79.0292 91.0328C80.0103 92.6386 81.3548 93.6686 82.0349 93.3332C82.2189 93.2423 82.336 93.0605 82.3882 92.8121C82.4289 92.6182 82.431 92.3842 82.396 92.1212C82.3454 91.7368 82.2155 91.2902 82.0124 90.816C81.8791 90.506 81.7146 90.1838 81.5196 89.86C81.5101 89.8436 81.5004 89.8278 81.4907 89.8118C80.51 88.2031 79.1625 87.1709 78.4819 87.506Z" fill="#C2C2C2"/>
<path d="M78.4819 87.506C78.2896 87.6007 78.1713 87.7952 78.1226 88.0607C78.0862 88.2569 78.088 88.4928 78.1262 88.7576C78.1826 89.1456 78.3174 89.5949 78.5252 90.0708C78.6614 90.3818 78.8288 90.7036 79.0259 91.0273C79.027 91.0291 79.0281 91.031 79.0292 91.0328C80.0103 92.6386 81.3548 93.6686 82.0349 93.3332C82.2189 93.2423 82.336 93.0605 82.3882 92.8121C82.4289 92.6182 82.431 92.3842 82.396 92.1212C82.3454 91.7368 82.2155 91.2902 82.0124 90.816C81.8791 90.506 81.7146 90.1838 81.5196 89.86C81.5101 89.8436 81.5004 89.8278 81.4907 89.8118C80.51 88.2031 79.1625 87.1709 78.4819 87.506Z" fill="#F3F2F2"/>
<path d="M79.9656 76.4601L73.142 72.6814C68.9966 70.3857 64.7345 70.1526 63.6225 72.1607L62.1582 74.8049C61.0461 76.813 63.5052 80.3018 67.6506 82.5975L74.4743 86.3763C78.6197 88.672 77.465 91.1331 78.5769 89.1251L81.6857 82.1637C80.9707 78.7879 80.9961 78.5234 79.9656 76.4601Z" fill="#802742"/>
<path d="M71.8611 86.3387L66.4395 83.3363C63.1457 81.5123 59.8136 81.2291 58.997 82.7039L57.9215 84.6459C57.1049 86.1206 59.1128 88.7947 62.4066 90.6187L67.8283 93.6211C71.6249 94.6041 72.0686 94.4767 74.057 93.5814L76.3462 92.3116C77.1629 90.8368 75.1548 88.1627 71.8611 86.3387Z" fill="#90AC00"/>
<path d="M71.2686 81.2529L66.9947 78.8861C63.2855 76.832 59.2855 76.9601 58.0605 79.1722L57.1946 80.7357C55.9696 82.9478 57.2362 87.7556 60.9455 89.8097L65.2193 92.1765C68.9286 94.2306 72.9285 94.1025 74.1536 91.8904L75.7667 88.9775C76.9917 86.7654 74.9778 83.307 71.2686 81.2529Z" fill="#A4C400"/>
<path d="M75.3413 73.8991L71.0673 71.5322C67.3581 69.4782 62.4546 71.2376 61.0695 73.7389L60.0192 75.6356C58.634 78.1369 60.5181 81.8297 64.2273 83.8838L68.5012 86.2506C72.2104 88.3047 75.5917 89.294 76.9768 86.7927L79.5494 82.1473C80.9345 79.646 79.0505 75.9532 75.3413 73.8991Z" fill="#BB3960"/>
<path d="M77.1023 89.1885C76.7319 87.1994 75.0335 82.9672 72.7804 81.7196C71.5153 81.1328 71.0711 81.0462 70.3823 79.8331C69.661 78.5871 68.9324 77.7213 67.8977 76.721C67.1235 75.8966 66.1738 75.257 65.1189 74.8496C65.4883 75.1287 65.8377 75.4333 66.1646 75.7613C67.1994 76.7616 68.0901 77.9011 68.8113 79.147C69.5002 80.3601 70.5504 81.3276 71.8155 81.9143C74.0686 83.162 74.9988 86.2397 75.3692 88.2287C75.4856 88.8342 75.5651 89.4463 75.6074 90.0615C73.3794 90.1754 71.0093 89.4904 68.9464 88.6429C72.4995 91.1064 77.3405 91.0212 77.3405 91.0212C77.2982 90.406 77.2186 89.794 77.1023 89.1885Z" fill="#DFC49C"/>
<path d="M76.488 74.3079C77.1945 74.9959 77.1399 74.2093 77.636 74.9437C77.9312 76.9409 78.2855 80.1396 77.8564 81.3888C77.5293 82.3422 76.6514 84.3564 76.2688 84.9547C75.8445 84.9562 75.583 83.9985 75.1128 83.8948C75.5229 83.3398 76.3475 82.1229 76.7404 80.9557C77.465 78.8022 77.3795 76.5735 76.488 74.3079Z" fill="#8A1136"/>
<path d="M69.1753 70.8782C69.6868 70.8296 70.2457 70.8679 70.8377 70.9889C70.8387 70.9898 70.8387 70.9898 70.8387 70.9898C72.6252 73.2336 74.147 76.0715 74.3148 79.3349C74.396 80.9144 74.3237 81.8566 74.0619 82.7065C73.7008 82.5506 73.428 82.3585 73.0624 82.1529C73.2739 81.4007 73.1902 80.653 73.1124 79.3256C72.9456 76.4861 71.5961 73.6005 69.1753 70.8782Z" fill="#8A1136"/>
<path d="M66.9633 70.2615C67.171 70.034 67.4302 70.2332 67.7073 70.0915C69.4218 73.4551 69.1459 76.4028 68.8744 77.9713C68.4826 77.5273 68.1298 77.0737 67.8211 76.6174L67.8201 76.6165C67.9318 75.0788 67.8254 72.8139 66.7512 70.5296C66.8159 70.4355 66.8864 70.3457 66.9633 70.2615Z" fill="#C12038"/>
<path d="M77.5264 74.2883L71.4339 70.9145C67.3956 68.6838 62.3137 70.1433 60.0743 74.1767L57.3753 79.0507C55.1446 83.0891 56.6041 88.1709 60.6376 90.4103L66.73 93.7842C70.7684 96.0148 75.8503 94.5554 78.0897 90.5219L80.7888 85.6479C83.0194 81.6096 81.5599 76.5277 77.5264 74.2883ZM67.1162 93.0869L61.0237 89.713C58.2479 88.1691 56.2525 84.4587 57.7609 80.3029C59.8331 82.7099 63.4525 84.0919 64.5809 85.3391C67.6517 88.733 72.1297 91.5391 76.0757 91.7047C74.1659 94.1097 69.7876 94.5619 67.1162 93.0869ZM66.1407 85.5806C65.0317 84.6093 65.2315 83.7431 63.1205 82.9225C61.0094 82.1019 58.6371 80.9561 58.2946 79.3391C58.2946 79.3391 60.489 75.3766 61.3275 74.1151C62.7691 73.2808 65.4497 74.7653 66.4982 75.8123C69.9572 79.2667 69.6947 80.148 72.9677 82.5203C75.8363 84.2193 77.1288 87.9499 77.0427 90.6324C74.315 91.0095 71.0637 90.142 68.5959 88.3653L66.1407 85.5806ZM77.9428 89.007C76.5944 85.4616 76.4065 84.2846 73.9504 82.3182C71.2358 80.1447 70.2604 79.3077 69.1577 77.5798C67.2099 74.5272 65.3058 73.3329 62.2336 72.9843C64.4692 70.3974 68.5362 70.3217 71.0069 71.6855L77.0994 75.0594C80.4606 76.9256 82.0157 81.6436 80.1569 85.0089L77.9428 89.007Z" fill="black"/>
<path d="M76.0204 91.7206C76.0204 91.7206 71.086 91.7868 65.629 86.4792C64.1738 85.0639 64.2516 84.9234 62.6322 83.9334C60.7667 82.7929 59.8211 82.5633 57.7173 80.2976L61.3908 73.9168C62.1267 72.925 62.0371 72.9057 62.7451 72.9876C63.8106 73.076 65.7662 73.7029 67.3966 75.3303C68.4881 76.3847 69.4235 77.6136 70.1847 78.9266C71.3039 80.1061 72.0421 80.7948 73.3514 81.7998C75.7275 83.1155 77.555 86.8201 77.9468 88.9158C77.6547 89.7803 76.8996 91.228 76.0204 91.7206Z" fill="#FFE0B2"/>
<path d="M58.1768 113.871C57.0362 113.871 56.0975 113.608 55.3606 113.083L55.8977 111.825C56.4888 112.267 57.1965 112.488 58.0207 112.488C58.2996 112.488 58.5223 112.44 58.6888 112.344C58.8595 112.248 58.9449 112.125 58.9449 111.975C58.9449 111.846 58.8804 111.739 58.7513 111.656C58.6264 111.568 58.464 111.499 58.2642 111.449C58.0644 111.399 57.8438 111.349 57.6023 111.299C57.3609 111.245 57.1194 111.176 56.8779 111.093C56.6366 111.005 56.4159 110.899 56.2161 110.774C56.0163 110.644 55.8519 110.465 55.7228 110.235C55.5979 110.002 55.5335 109.729 55.5293 109.416C55.5209 108.823 55.754 108.327 56.2286 107.927C56.7032 107.526 57.3089 107.326 58.0457 107.326C59.0406 107.326 59.8378 107.566 60.4372 108.045L59.9253 109.353C59.6754 109.165 59.3694 109.009 59.0073 108.884C58.6493 108.759 58.3038 108.696 57.9707 108.696C57.7418 108.696 57.5565 108.744 57.415 108.84C57.2734 108.936 57.2027 109.055 57.2027 109.197C57.2027 109.305 57.2527 109.401 57.3526 109.485C57.4525 109.564 57.5816 109.629 57.7398 109.679C57.9021 109.729 58.0852 109.785 58.2893 109.847C58.4974 109.906 58.7075 109.964 58.9199 110.023C59.1322 110.081 59.3404 110.162 59.5443 110.267C59.7524 110.371 59.9378 110.49 60.1001 110.623C60.2624 110.753 60.3936 110.924 60.4935 111.136C60.5975 111.349 60.6516 111.591 60.6558 111.862C60.6558 112.446 60.4226 112.928 59.9564 113.308C59.4944 113.683 58.9011 113.871 58.1768 113.871ZM65.7948 107.451H67.5994V113.746H65.7948V113.001C65.6158 113.268 65.3723 113.481 65.0642 113.639C64.7603 113.794 64.4336 113.871 64.0839 113.871C63.2888 113.871 62.6622 113.616 62.2044 113.107C61.7506 112.599 61.5238 111.898 61.5238 111.005V107.451H63.3283V110.711C63.3283 111.141 63.4366 111.474 63.653 111.712C63.8737 111.95 64.1712 112.069 64.546 112.069C64.7916 112.069 65.0268 112.006 65.2515 111.881C65.4806 111.752 65.6616 111.579 65.7948 111.362V107.451ZM71.3523 113.871C70.2116 113.871 69.2729 113.608 68.536 113.083L69.0731 111.825C69.6642 112.267 70.3719 112.488 71.1961 112.488C71.4751 112.488 71.6977 112.44 71.8642 112.344C72.0349 112.248 72.1203 112.125 72.1203 111.975C72.1203 111.846 72.0558 111.739 71.9267 111.656C71.8018 111.568 71.6394 111.499 71.4397 111.449C71.2399 111.399 71.0193 111.349 70.7778 111.299C70.5363 111.245 70.2949 111.176 70.0534 111.093C69.812 111.005 69.5914 110.899 69.3915 110.774C69.1917 110.644 69.0273 110.465 68.8982 110.235C68.7734 110.002 68.7088 109.729 68.7047 109.416C68.6963 108.823 68.9295 108.327 69.404 107.927C69.8786 107.526 70.4843 107.326 71.2211 107.326C72.216 107.326 73.0132 107.566 73.6127 108.045L73.1006 109.353C72.8508 109.165 72.5449 109.009 72.1827 108.884C71.8247 108.759 71.4792 108.696 71.1462 108.696C70.9173 108.696 70.732 108.744 70.5904 108.84C70.4489 108.936 70.3781 109.055 70.3781 109.197C70.3781 109.305 70.4281 109.401 70.528 109.485C70.6279 109.564 70.7569 109.629 70.9152 109.679C71.0775 109.729 71.2606 109.785 71.4646 109.847C71.6728 109.906 71.883 109.964 72.0953 110.023C72.3076 110.081 72.5158 110.162 72.7198 110.267C72.9279 110.371 73.1131 110.49 73.2755 110.623C73.4379 110.753 73.569 110.924 73.6689 111.136C73.773 111.349 73.8271 111.591 73.8312 111.862C73.8312 112.446 73.5981 112.928 73.1319 113.308C72.6698 113.683 72.0766 113.871 71.3523 113.871ZM78.3084 107.326C79.0992 107.326 79.7217 107.582 80.1754 108.096C80.6333 108.604 80.8623 109.301 80.8623 110.185V113.746H79.0576V110.492C79.0576 110.062 78.9494 109.727 78.733 109.485C78.5165 109.243 78.2209 109.122 77.8462 109.122C77.5965 109.122 77.3592 109.186 77.1344 109.316C76.9138 109.441 76.7369 109.61 76.6036 109.823V113.746H74.7991V104.773H76.6036V108.183C76.7827 107.92 77.0242 107.712 77.328 107.557C77.6319 107.403 77.9586 107.326 78.3084 107.326ZM82.2673 104.729C82.4837 104.512 82.7418 104.404 83.0415 104.404C83.3412 104.404 83.5993 104.512 83.8158 104.729C84.0322 104.942 84.1405 105.196 84.1405 105.493C84.1405 105.793 84.0322 106.052 83.8158 106.268C83.5993 106.485 83.3412 106.594 83.0415 106.594C82.7418 106.594 82.4837 106.485 82.2673 106.268C82.0508 106.052 81.9425 105.793 81.9425 105.493C81.9425 105.196 82.0508 104.942 82.2673 104.729ZM82.1423 107.451H83.947V113.746H82.1423V107.451Z" fill="black"/>
<path d="M16.3437 107.328C16.8818 107.328 17.374 107.474 17.8203 107.766C18.2709 108.054 18.6233 108.448 18.8777 108.949C19.1364 109.45 19.2656 109.999 19.2656 110.596C19.2656 111.192 19.1364 111.743 18.8777 112.248C18.6233 112.749 18.2709 113.146 17.8203 113.438C17.374 113.73 16.8818 113.876 16.3437 113.876C15.9474 113.876 15.5762 113.797 15.23 113.638C14.888 113.475 14.6398 113.265 14.4855 113.006V115.83H12.6772V107.453H14.4855V108.198C14.6398 107.939 14.888 107.73 15.23 107.572C15.5762 107.409 15.9474 107.328 16.3437 107.328ZM15.9495 112.161C16.3876 112.161 16.7546 112.013 17.0507 111.716C17.3469 111.416 17.495 111.042 17.495 110.596C17.495 110.153 17.3448 109.782 17.0445 109.481C16.7483 109.181 16.3834 109.03 15.9495 109.03C15.645 109.03 15.3593 109.106 15.0924 109.256C14.8254 109.402 14.6231 109.592 14.4855 109.826V111.366C14.6231 111.604 14.8233 111.796 15.0861 111.942C15.3489 112.088 15.6367 112.161 15.9495 112.161ZM20.3982 104.729C20.615 104.512 20.8737 104.404 21.1741 104.404C21.4743 104.404 21.7329 104.512 21.9498 104.729C22.1667 104.942 22.2753 105.197 22.2753 105.493C22.2753 105.794 22.1667 106.052 21.9498 106.27C21.7329 106.487 21.4743 106.595 21.1741 106.595C20.8737 106.595 20.615 106.487 20.3982 106.27C20.1812 106.052 20.0729 105.794 20.0729 105.493C20.0729 105.197 20.1812 104.942 20.3982 104.729ZM20.2731 107.453H22.0813V113.751H20.2731V107.453ZM28.6947 107.453V108.736L25.6476 112.023H28.7385V113.751H23.0197V112.467L26.0856 109.174H23.2513V107.453H28.6947ZM35.1517 107.453V108.736L32.1047 112.023H35.1955V113.751H29.4767V112.467L32.5426 109.174H29.7083V107.453H35.1517ZM40.6889 107.453H42.4972V113.751H40.6889V113.006C40.5346 113.265 40.2844 113.475 39.9381 113.638C39.5961 113.797 39.2269 113.876 38.8307 113.876C38.2926 113.876 37.7984 113.73 37.3479 113.438C36.8974 113.146 36.5428 112.749 36.2841 112.248C36.0256 111.743 35.8963 111.192 35.8963 110.596C35.8963 109.686 36.1798 108.914 36.7472 108.279C37.3187 107.645 38.0132 107.328 38.8307 107.328C39.2228 107.328 39.5919 107.409 39.9381 107.572C40.2844 107.734 40.5346 107.943 40.6889 108.198V107.453ZM39.2311 112.161C39.5356 112.161 39.8193 112.088 40.0821 111.942C40.349 111.796 40.5513 111.608 40.6889 111.378V109.838C40.5513 109.6 40.349 109.406 40.0821 109.256C39.8193 109.106 39.5356 109.03 39.2311 109.03C38.789 109.03 38.4177 109.181 38.1174 109.481C37.8171 109.778 37.6669 110.149 37.6669 110.596C37.6669 111.042 37.8171 111.416 38.1174 111.716C38.4177 112.013 38.789 112.161 39.2311 112.161Z" fill="black"/>
<path d="M21.0816 86.0534H26.8967V90.652C26.8967 91.4787 26.8552 92.1668 26.7784 92.7245C26.7062 93.2494 26.5722 93.7407 26.3783 94.2019C26.232 94.5316 26.0344 94.7466 25.7854 94.894C25.5294 95.0457 25.1631 95.1537 24.6296 95.1537C24.1112 95.1537 23.7703 95.0162 23.5214 94.808C23.2591 94.5884 22.996 94.2029 22.8024 93.5356C22.7043 93.1857 22.5158 92.8089 22.1659 92.522C21.8034 92.2248 21.3793 92.1157 20.9849 92.1157H15.7273C15.2935 92.1157 14.7148 92.2465 14.322 92.7713C13.9634 93.2504 13.9561 93.8069 14.0037 94.1887L14.0064 94.2106L14.01 94.2323C14.4753 97.0766 15.648 99.3874 17.5885 101.061L17.5944 101.066L17.6003 101.071C19.5638 102.719 22.0231 103.506 24.8877 103.506C26.8724 103.506 28.6317 103.198 30.1276 102.535L30.1316 102.533L30.1355 102.531C31.6455 101.848 32.8488 100.86 33.6927 99.553L33.6955 99.5486L33.6982 99.5444C34.4813 98.308 35.0353 96.9464 35.3641 95.4681C35.5006 94.8926 35.6905 93.6809 35.6905 91.0953C35.6905 95.1537 37.4256 97.9804 39.2444 99.7532L39.2483 99.757L39.2521 99.7607C41.8541 102.25 44.9884 103.506 48.5952 103.506C52.1825 103.506 55.3056 102.249 57.9059 99.7607L57.9079 99.7588L57.91 99.7568C60.5131 97.2423 61.8426 94.188 61.8426 90.652C61.8426 87.1167 60.5135 84.0717 57.908 81.5777C55.3086 79.0679 52.185 77.7981 48.5952 77.7981C44.9851 77.7981 41.8496 79.0669 39.2484 81.5793C37.6126 83.1588 35.7733 86.2473 35.6905 91.0953L35.8773 80.1482C35.8773 79.6422 35.7055 79.1425 35.3142 78.7503C34.9226 78.3579 34.4238 78.1859 33.9189 78.1859H21.0816C20.5768 78.1859 20.078 78.3579 19.6865 78.7502C19.295 79.1426 19.1233 79.6423 19.1233 80.1482V84.0911C19.1233 84.597 19.295 85.0968 19.6865 85.4892C20.078 85.8814 20.5768 86.0534 21.0816 86.0534ZM51.7896 87.2431L51.7933 87.2472L51.7972 87.2511C52.7055 88.1963 53.1523 89.3085 53.1523 90.652C53.1523 92.0216 52.7026 93.1433 51.7972 94.0853C50.8896 95.0297 49.8424 95.4769 48.5952 95.4769C47.3233 95.4769 46.2679 95.0274 45.3645 94.0891C44.4519 93.1203 44.0058 91.9942 44.0058 90.652C44.0058 89.3085 44.4525 88.1963 45.3608 87.2512C46.2651 86.3103 47.3215 85.8595 48.5952 85.8595C49.8681 85.8595 50.9095 86.3095 51.7896 87.2431ZM82.1211 80.9739L82.1397 80.9384L82.1557 80.9016C82.3636 80.4256 82.547 79.6761 82.0911 78.9908C81.6864 78.3827 81.0465 78.1859 80.4875 78.1859H75.2623C74.7651 78.1859 74.0765 78.252 73.5681 78.6978L73.5394 78.7231L73.5125 78.7501C73.1866 79.0764 72.9454 79.578 72.7546 80.0421C72.5931 80.3945 71.811 82.1755 70.4171 85.3653L68.0736 80.0707C67.8976 79.5931 67.648 79.049 67.2477 78.6978L67.2475 78.6977C66.746 78.258 66.079 78.1859 65.5858 78.1859H60.3283C59.8191 78.1859 59.1867 78.3383 58.7617 78.9062C58.2392 79.6042 58.4696 80.4011 58.6602 80.8372L58.6679 80.8549L58.6762 80.8723C58.9228 81.389 61.3583 86.0564 65.9498 94.8151V101.156C65.9498 101.669 66.1389 102.129 66.4607 102.498L66.486 102.527L66.513 102.554C66.8819 102.924 67.3587 103.118 67.8759 103.118H72.9399C73.4449 103.118 73.9435 102.946 74.3347 102.554L74.335 102.554C74.7265 102.162 74.8982 101.662 74.8982 101.156V94.814L82.1211 80.9739Z" fill="white"/>
<path d="M35.6905 91.0953C35.6905 93.6809 35.5006 94.8926 35.3641 95.4681C35.0353 96.9464 34.4813 98.308 33.6982 99.5444L33.6955 99.5486L33.6927 99.553C32.8488 100.86 31.6455 101.848 30.1355 102.531L30.1316 102.533L30.1276 102.535C28.6317 103.198 26.8724 103.506 24.8877 103.506C22.0231 103.506 19.5638 102.719 17.6003 101.071L17.5944 101.066L17.5885 101.061C15.648 99.3874 14.4753 97.0766 14.01 94.2323L14.0064 94.2106L14.0037 94.1887C13.9561 93.8069 13.9634 93.2504 14.322 92.7713C14.7148 92.2465 15.2935 92.1157 15.7273 92.1157H20.9849C21.3793 92.1157 21.8034 92.2248 22.1659 92.522C22.5158 92.8089 22.7043 93.1857 22.8024 93.5356C22.996 94.2029 23.2591 94.5884 23.5214 94.808C23.7703 95.0162 24.1112 95.1537 24.6296 95.1537C25.1631 95.1537 25.5294 95.0457 25.7854 94.894C26.0344 94.7466 26.232 94.5316 26.3783 94.2019C26.5722 93.7407 26.7062 93.2494 26.7784 92.7245C26.8552 92.1668 26.8967 91.4787 26.8967 90.652V86.0534H21.0816C20.5768 86.0534 20.078 85.8814 19.6865 85.4892C19.295 85.0968 19.1233 84.597 19.1233 84.0911V80.1482C19.1233 79.6423 19.295 79.1426 19.6865 78.7502C20.078 78.3579 20.5768 78.1859 21.0816 78.1859H33.9189C34.4238 78.1859 34.9226 78.3579 35.3142 78.7503C35.7055 79.1425 35.8773 79.6422 35.8773 80.1482L35.6905 91.0953ZM35.6905 91.0953C35.6905 95.1537 37.4256 97.9804 39.2444 99.7532L39.2483 99.757L39.2521 99.7607C41.8541 102.25 44.9884 103.506 48.5952 103.506C52.1825 103.506 55.3056 102.249 57.9059 99.7607L57.9079 99.7588L57.9099 99.7568C60.5131 97.2423 61.8426 94.188 61.8426 90.652C61.8426 87.1167 60.5135 84.0717 57.908 81.5777C55.3086 79.0679 52.185 77.7981 48.5952 77.7981C44.9851 77.7981 41.8496 79.0669 39.2484 81.5793C37.6126 83.1588 35.7733 86.2473 35.6905 91.0953ZM51.7896 87.2431L51.7933 87.2472L51.7972 87.2511C52.7055 88.1963 53.1523 89.3085 53.1523 90.652C53.1523 92.0216 52.7026 93.1433 51.7972 94.0853C50.8896 95.0297 49.8424 95.4769 48.5952 95.4769C47.3233 95.4769 46.2679 95.0274 45.3645 94.0891C44.4519 93.1203 44.0058 91.9942 44.0058 90.652C44.0058 89.3085 44.4525 88.1963 45.3608 87.2512C46.2651 86.3103 47.3215 85.8595 48.5952 85.8595C49.8681 85.8595 50.9095 86.3095 51.7896 87.2431ZM82.1211 80.9739L82.1397 80.9384L82.1557 80.9016C82.3636 80.4256 82.547 79.6761 82.0911 78.9908C81.6864 78.3827 81.0465 78.1859 80.4875 78.1859H75.2622C74.7652 78.1859 74.0765 78.252 73.5681 78.6978L73.5394 78.7231L73.5125 78.7501C73.1866 79.0764 72.9454 79.578 72.7546 80.0421C72.5931 80.3945 71.811 82.1755 70.4171 85.3653L68.0736 80.0707C67.8976 79.5931 67.648 79.049 67.2477 78.6978L67.2475 78.6977C66.746 78.258 66.079 78.1859 65.5858 78.1859H60.3283C59.8191 78.1859 59.1867 78.3383 58.7617 78.9062C58.2392 79.6042 58.4696 80.4011 58.6602 80.8372L58.6679 80.8549L58.6762 80.8723C58.9228 81.389 61.3583 86.0564 65.9498 94.8151V101.156C65.9498 101.669 66.1389 102.129 66.4607 102.498L66.486 102.527L66.513 102.554C66.8819 102.924 67.3587 103.118 67.8759 103.118H72.9399C73.4449 103.118 73.9435 102.946 74.3347 102.554L74.335 102.554C74.7265 102.162 74.8982 101.662 74.8982 101.156V94.814L82.1211 80.9739Z" stroke="black" stroke-width="2.04031"/>
<path d="M52.7848 113.74H51.3457L50.6714 113.022C50.1012 113.595 49.39 113.882 48.538 113.882C47.8603 113.882 47.2968 113.713 46.8473 113.376C46.3441 112.992 46.0925 112.439 46.0925 111.718C46.0925 110.755 46.5957 110.034 47.602 109.555C47.0854 108.935 46.8272 108.369 46.8272 107.857C46.8272 107.298 47.0552 106.859 47.5114 106.543C47.9073 106.266 48.3736 106.128 48.9103 106.128C49.4 106.128 49.8194 106.256 50.1683 106.512C50.5574 106.816 50.752 107.237 50.752 107.776C50.752 108.275 50.5976 108.693 50.289 109.029C50.0743 109.272 49.7154 109.528 49.2123 109.798L50.6714 111.456C50.9465 110.957 51.084 110.344 51.084 109.616H52.1004C52.0937 110.061 52.0233 110.522 51.8891 111.001C51.7549 111.479 51.5838 111.87 51.3759 112.173L52.7848 113.74ZM48.2361 110.283C47.5383 110.62 47.1895 111.078 47.1895 111.658C47.1895 112.042 47.327 112.345 47.602 112.567C47.8637 112.79 48.1924 112.901 48.5882 112.901C49.1452 112.901 49.6248 112.699 50.0274 112.294L48.2361 110.283ZM48.5682 109.1C48.9304 108.925 49.1719 108.78 49.2927 108.666C49.5275 108.45 49.645 108.197 49.645 107.907C49.645 107.368 49.3867 107.099 48.8701 107.099C48.6017 107.099 48.3769 107.173 48.1958 107.321C48.0214 107.463 47.9341 107.658 47.9341 107.907C47.9341 108.251 48.1455 108.649 48.5682 109.1Z" fill="black"/>
</svg>
