<svg width="11" height="13" viewBox="0 0 11 13" fill="none" xmlns="http://www.w3.org/2000/svg">
<path d="M5.58221 3.73533C5.06871 3.73533 4.27409 3.15142 3.43721 3.172C2.33221 3.18662 1.31929 3.81279 0.750002 4.80458C-0.396707 6.79521 0.454252 9.73537 1.57279 11.3533C2.1215 12.1409 2.76879 13.0271 3.62679 12.9995C4.45013 12.9642 4.75888 12.4648 5.75825 12.4648C6.75004 12.4648 7.03117 12.9995 7.90325 12.9783C8.78996 12.9642 9.35275 12.1767 9.89442 11.3815C10.5206 10.4672 10.7806 9.58046 10.7947 9.53171C10.7735 9.52467 9.07109 8.87033 9.0505 6.90083C9.03642 5.25417 10.3938 4.46658 10.4572 4.43137C9.68317 3.29929 8.49475 3.17254 8.07929 3.14437C6.99596 3.05987 6.08867 3.73479 5.58221 3.73479V3.73533ZM7.41196 2.07458C7.86859 1.52642 8.17029 0.759958 8.08634 0C7.43254 0.0281667 6.64442 0.436042 6.17317 0.98475C5.75067 1.47008 5.38559 2.25117 5.48363 2.9965C6.20838 3.05283 6.95425 2.62383 7.41142 2.07512" fill="white"/>
</svg>
