<svg width="14" height="14" viewBox="0 0 14 14" fill="none" xmlns="http://www.w3.org/2000/svg">
<mask id="mask0_311_3037" style="mask-type:alpha" maskUnits="userSpaceOnUse" x="0" y="0" width="14" height="14">
<rect width="14" height="14" fill="#D9D9D9"/>
</mask>
<g mask="url(#mask0_311_3037)">
<path fill-rule="evenodd" clip-rule="evenodd" d="M0.647115 11.9392C0.451853 12.1344 0.451853 12.451 0.647115 12.6463C0.842377 12.8415 1.15896 12.8415 1.35422 12.6463L7.00067 6.99982L12.6679 12.6671C12.8632 12.8623 13.1798 12.8623 13.375 12.6671C13.5703 12.4718 13.5703 12.1552 13.375 11.96L7.70777 6.29271L12.6679 1.33256C12.8632 1.1373 12.8632 0.820713 12.6679 0.625451C12.4727 0.430189 12.1561 0.430189 11.9608 0.625451L7.00067 5.58561L2.06133 0.646267C1.86607 0.451005 1.54948 0.451005 1.35422 0.646267C1.15896 0.841529 1.15896 1.15811 1.35422 1.35337L6.29356 6.29271L0.647115 11.9392Z" fill="#A8A8A8"/>
</g>
</svg>
