<svg width="48" height="31" viewBox="0 0 48 31" fill="none" xmlns="http://www.w3.org/2000/svg">
<g clip-path="url(#clip0_342_5824)">
<path d="M45 0H3C1.34315 0 0 1.34315 0 3V28C0 29.6569 1.34315 31 3 31H45C46.6569 31 48 29.6569 48 28V3C48 1.34315 46.6569 0 45 0Z" fill="white"/>
<path d="M33.0095 25.85H32.9695V25.95H32.9495V25.85H32.9095V25.83H32.9995V25.85H33.0095ZM33.1495 25.95H33.1295V25.85L33.0995 25.94H33.0795L33.0495 25.85V25.95H33.0295V25.83H33.0595L33.0895 25.92L33.1195 25.83H33.1495V25.95ZM15.3295 25.95H15.0695V22.96H15.3295V25.95ZM17.2995 22.96C17.5295 22.96 17.7495 22.99 17.9695 23.06C18.1595 23.12 18.3295 23.22 18.4795 23.36C18.6195 23.49 18.7295 23.65 18.7995 23.83C18.9495 24.23 18.9495 24.67 18.7995 25.07C18.7295 25.25 18.6195 25.41 18.4795 25.54C18.3295 25.67 18.1595 25.78 17.9695 25.84C17.7595 25.91 17.5295 25.95 17.2995 25.94H16.2195V22.95H17.2995V22.96ZM16.4795 23.21V25.71H17.2995C17.4895 25.71 17.6895 25.68 17.8695 25.62C18.0195 25.57 18.1695 25.48 18.2895 25.37C18.3995 25.26 18.4895 25.13 18.5495 24.98C18.6595 24.65 18.6595 24.29 18.5495 23.95C18.4995 23.8 18.4095 23.67 18.2895 23.56C18.1695 23.45 18.0295 23.36 17.8695 23.31C17.6895 23.25 17.4895 23.22 17.2995 23.22H16.4795V23.21ZM22.0595 22.92C22.1795 22.92 22.3095 22.93 22.4295 22.96C22.5495 22.99 22.6595 23.03 22.7695 23.08C22.8695 23.13 22.9695 23.2 23.0495 23.27C23.1295 23.34 23.2095 23.43 23.2595 23.53L23.0495 23.68C22.9995 23.6 22.9395 23.53 22.8695 23.47C22.7995 23.41 22.7195 23.35 22.6395 23.31C22.5495 23.27 22.4595 23.23 22.3695 23.21C22.2695 23.19 22.1695 23.17 22.0695 23.17C21.8995 23.17 21.7295 23.2 21.5795 23.26C21.4295 23.32 21.2995 23.41 21.1795 23.52C21.0695 23.64 20.9795 23.77 20.9195 23.92C20.7895 24.26 20.7895 24.63 20.9195 24.96C20.9795 25.11 21.0695 25.25 21.1795 25.36C21.2895 25.47 21.4295 25.56 21.5795 25.62C21.7395 25.68 21.8995 25.71 22.0695 25.71C22.1695 25.71 22.2695 25.7 22.3695 25.68C22.5595 25.64 22.7295 25.55 22.8795 25.42C22.9495 25.36 23.0095 25.29 23.0595 25.21L23.2695 25.37C23.2095 25.46 23.1395 25.55 23.0495 25.62C22.9695 25.69 22.8695 25.76 22.7695 25.81C22.6695 25.86 22.5595 25.9 22.4395 25.93C22.1195 26 21.7795 25.98 21.4695 25.86C21.2895 25.79 21.1295 25.68 20.9895 25.55C20.8495 25.41 20.7395 25.25 20.6695 25.07C20.5195 24.67 20.5195 24.23 20.6695 23.83C20.7395 23.65 20.8495 23.48 20.9895 23.35C21.1295 23.21 21.2895 23.11 21.4695 23.04C21.6595 22.97 21.8595 22.93 22.0595 22.93V22.92ZM24.1295 24.29C24.1695 24.23 24.2095 24.17 24.2695 24.12C24.3195 24.07 24.3795 24.03 24.4395 24C24.4995 23.97 24.5695 23.95 24.6295 23.93C24.6995 23.92 24.7595 23.91 24.8295 23.91C24.9495 23.91 25.0595 23.93 25.1695 23.97C25.2695 24 25.3595 24.06 25.4395 24.13C25.5095 24.2 25.5695 24.29 25.6095 24.38C25.6495 24.49 25.6695 24.61 25.6695 24.72V25.95H25.4295V24.79C25.4295 24.7 25.4195 24.6 25.3895 24.52C25.3595 24.44 25.3195 24.37 25.2595 24.31C25.1995 24.25 25.1295 24.21 25.0595 24.18C24.9695 24.15 24.8795 24.13 24.7895 24.14C24.6995 24.14 24.6095 24.16 24.5295 24.19C24.4495 24.22 24.3795 24.27 24.3195 24.33C24.2595 24.39 24.2095 24.46 24.1795 24.54C24.1395 24.63 24.1295 24.72 24.1295 24.81V25.96H23.8895V22.88H24.1295V24.29ZM27.2595 23.91C27.3895 23.91 27.5095 23.93 27.6295 23.99C27.7395 24.04 27.8395 24.11 27.9195 24.2C28.0095 24.29 28.0695 24.4 28.1195 24.52C28.1695 24.65 28.1895 24.79 28.1895 24.93V25.03H26.5195C26.5195 25.14 26.5495 25.24 26.5995 25.34C26.6395 25.43 26.6995 25.51 26.7695 25.57C26.8395 25.63 26.9195 25.68 27.0095 25.71C27.0995 25.74 27.1995 25.76 27.2995 25.76C27.4295 25.76 27.5595 25.74 27.6695 25.68C27.7795 25.63 27.8795 25.56 27.9695 25.47L28.0995 25.64C28.0395 25.7 27.9795 25.75 27.9095 25.8C27.8495 25.84 27.7795 25.88 27.7095 25.9C27.6395 25.93 27.5695 25.94 27.4995 25.95C27.4295 25.96 27.3595 25.97 27.2895 25.97C27.1495 25.97 27.0195 25.95 26.8895 25.89C26.7695 25.84 26.6595 25.77 26.5695 25.68C26.4795 25.59 26.4095 25.48 26.3595 25.35C26.3095 25.22 26.2795 25.07 26.2895 24.93C26.2895 24.79 26.3095 24.65 26.3595 24.51C26.3995 24.39 26.4695 24.27 26.5595 24.17C26.6495 24.08 26.7595 24 26.8695 23.95C26.9895 23.9 27.1295 23.87 27.2595 23.87V23.91ZM27.2595 24.13C27.1595 24.13 27.0695 24.15 26.9795 24.18C26.8995 24.21 26.8195 24.26 26.7595 24.33C26.6995 24.39 26.6395 24.47 26.5995 24.55C26.5595 24.64 26.5295 24.73 26.5195 24.83H27.9395C27.9395 24.73 27.9095 24.63 27.8695 24.54C27.8295 24.46 27.7795 24.38 27.7195 24.32C27.6595 24.26 27.5795 24.21 27.4995 24.17C27.4195 24.14 27.3295 24.12 27.2395 24.12L27.2595 24.13ZM29.6695 23.91C29.8095 23.91 29.9495 23.94 30.0795 23.99C30.1995 24.04 30.3095 24.12 30.3995 24.22L30.2395 24.39C30.1695 24.31 30.0795 24.25 29.9795 24.21C29.8795 24.17 29.7695 24.14 29.6595 24.15C29.5595 24.15 29.4495 24.17 29.3595 24.21C29.2695 24.25 29.1895 24.31 29.1195 24.38C29.0495 24.45 28.9895 24.54 28.9495 24.64C28.8695 24.85 28.8695 25.08 28.9495 25.29C28.9895 25.38 29.0395 25.47 29.1095 25.54C29.1795 25.61 29.2595 25.67 29.3595 25.71C29.4595 25.75 29.5595 25.77 29.6595 25.77C29.7695 25.77 29.8795 25.75 29.9895 25.7C30.0895 25.66 30.1795 25.59 30.2495 25.52L30.3995 25.69C30.3095 25.79 30.1995 25.87 30.0795 25.92C29.9495 25.97 29.8095 26 29.6695 26C29.5295 26 29.3895 25.97 29.2595 25.92C29.1395 25.87 29.0295 25.8 28.9395 25.7C28.8495 25.61 28.7795 25.49 28.7295 25.37C28.6295 25.1 28.6295 24.81 28.7295 24.55C28.7795 24.43 28.8495 24.31 28.9395 24.22C29.0295 24.13 29.1395 24.05 29.2595 24C29.3895 23.94 29.5295 23.9 29.6795 23.9L29.6695 23.91ZM31.2095 24.8H31.5295L32.3795 23.94H32.6795L31.7295 24.89L32.6895 25.95H32.3795L31.5295 25.01H31.2095V25.95H30.9595V22.87H31.1995V24.79L31.2095 24.8ZM17.5795 21.43V20.4C17.5795 20.31 17.5795 20.23 17.5395 20.15C17.5095 20.07 17.4595 20 17.3995 19.93C17.3395 19.86 17.2695 19.82 17.1895 19.79C17.1095 19.76 17.0195 19.75 16.9395 19.75C16.8295 19.75 16.7195 19.77 16.6195 19.82C16.5195 19.87 16.4395 19.95 16.3795 20.04C16.3195 19.95 16.2495 19.87 16.1495 19.82C16.0595 19.77 15.9495 19.74 15.8395 19.75C15.7495 19.75 15.6495 19.77 15.5695 19.81C15.4895 19.85 15.4195 19.92 15.3695 20V19.8H15.0195V21.44H15.3795V20.53C15.3795 20.47 15.3795 20.42 15.3895 20.36C15.4095 20.31 15.4395 20.26 15.4695 20.22C15.4995 20.18 15.5495 20.15 15.6095 20.12C15.6595 20.1 15.7195 20.09 15.7695 20.09C15.9995 20.09 16.1195 20.24 16.1195 20.52V21.43H16.4795V20.52C16.4795 20.46 16.4795 20.41 16.4895 20.35C16.5095 20.3 16.5395 20.25 16.5695 20.21C16.6095 20.17 16.6495 20.14 16.7095 20.11C16.7595 20.09 16.8195 20.08 16.8695 20.08C17.1095 20.08 17.2295 20.23 17.2295 20.51V21.42H17.5895L17.5795 21.43ZM22.8295 19.79H22.2495V19.29H21.8895V19.79H21.5595V20.11H21.8895V20.86C21.8895 21.24 22.0395 21.47 22.4495 21.47C22.6095 21.47 22.7595 21.43 22.8895 21.34L22.7895 21.04C22.6995 21.1 22.5895 21.14 22.4795 21.15C22.3095 21.15 22.2495 21.04 22.2495 20.88V20.13H22.8195V19.81L22.8295 19.79ZM25.8295 19.75C25.7395 19.75 25.6595 19.77 25.5795 19.81C25.4995 19.85 25.4395 19.91 25.3995 19.99V19.79H25.0495V21.43H25.3995V20.51C25.3995 20.24 25.5095 20.09 25.7395 20.09C25.8195 20.09 25.8895 20.1 25.9595 20.13L26.0695 19.79C25.9895 19.76 25.9095 19.75 25.8195 19.75H25.8295ZM21.2895 19.93C21.0895 19.81 20.8595 19.75 20.6295 19.76C20.2195 19.76 19.9495 19.96 19.9495 20.28C19.9495 20.55 20.1495 20.71 20.5095 20.76L20.6795 20.78C20.8695 20.81 20.9595 20.86 20.9595 20.95C20.9595 21.08 20.8295 21.15 20.5895 21.15C20.3995 21.15 20.2095 21.1 20.0495 20.98L19.8795 21.26C20.0795 21.4 20.3295 21.48 20.5795 21.47C21.0495 21.47 21.3195 21.25 21.3195 20.94C21.3195 20.63 21.1095 20.5 20.7595 20.45L20.5895 20.43C20.4395 20.41 20.3195 20.38 20.3195 20.27C20.3195 20.16 20.4295 20.08 20.6295 20.08C20.8095 20.08 20.9795 20.13 21.1395 20.22L21.2995 19.93H21.2895ZM30.7095 19.76C30.6195 19.76 30.5395 19.78 30.4595 19.82C30.3795 19.86 30.3195 19.92 30.2795 20V19.8H29.9295V21.44H30.2795V20.52C30.2795 20.25 30.3995 20.1 30.6195 20.1C30.6995 20.1 30.7695 20.11 30.8395 20.14L30.9495 19.8C30.8695 19.77 30.7795 19.76 30.6995 19.76H30.7095ZM26.1795 20.62C26.1795 20.73 26.1995 20.85 26.2395 20.96C26.2795 21.07 26.3495 21.16 26.4295 21.24C26.5095 21.32 26.6095 21.38 26.7095 21.42C26.8195 21.46 26.9295 21.48 27.0395 21.47C27.2495 21.48 27.4595 21.41 27.6195 21.28L27.4495 20.99C27.3295 21.08 27.1795 21.14 27.0295 21.14C26.8995 21.13 26.7795 21.07 26.6895 20.97C26.5995 20.87 26.5495 20.75 26.5495 20.61C26.5495 20.47 26.5995 20.35 26.6895 20.25C26.7795 20.15 26.8995 20.09 27.0295 20.08C27.1795 20.08 27.3295 20.13 27.4495 20.23L27.6195 19.94C27.4595 19.8 27.2495 19.73 27.0395 19.75C26.9295 19.75 26.8095 19.76 26.7095 19.8C26.5995 19.84 26.5095 19.9 26.4295 19.98C26.3495 20.06 26.2895 20.16 26.2395 20.26C26.1995 20.37 26.1795 20.48 26.1795 20.6V20.62ZM29.4795 20.62V19.8H29.1295V20C29.0695 19.92 28.9895 19.86 28.8995 19.82C28.8095 19.78 28.7095 19.76 28.6195 19.76C28.3995 19.76 28.1795 19.85 28.0195 20.01C27.8595 20.17 27.7695 20.39 27.7695 20.61C27.7695 20.83 27.8595 21.05 28.0195 21.21C28.1795 21.37 28.3895 21.46 28.6195 21.46C28.7195 21.46 28.8095 21.44 28.8995 21.4C28.9895 21.36 29.0695 21.3 29.1295 21.22V21.42H29.4795V20.61V20.62ZM28.1695 20.62C28.1695 20.52 28.2095 20.43 28.2695 20.35C28.3295 20.27 28.3995 20.21 28.4895 20.18C28.5795 20.15 28.6795 20.14 28.7695 20.16C28.8595 20.18 28.9495 20.23 29.0095 20.3C29.0795 20.37 29.1195 20.46 29.1395 20.55C29.1595 20.64 29.1395 20.74 29.1095 20.83C29.0695 20.92 29.0095 20.99 28.9295 21.05C28.8495 21.1 28.7595 21.13 28.6595 21.13C28.5895 21.13 28.5295 21.12 28.4595 21.09C28.3995 21.06 28.3395 21.02 28.2995 20.98C28.2495 20.93 28.2195 20.87 28.1995 20.81C28.1795 20.75 28.1695 20.68 28.1695 20.61V20.62ZM23.9195 19.76C23.6995 19.76 23.4795 19.86 23.3295 20.02C23.1695 20.18 23.0895 20.4 23.0895 20.63C23.0895 20.86 23.1895 21.07 23.3495 21.23C23.5095 21.39 23.7295 21.48 23.9495 21.47C24.1895 21.47 24.4295 21.4 24.6095 21.24L24.4395 20.98C24.3095 21.09 24.1395 21.15 23.9695 21.15C23.8495 21.16 23.7395 21.12 23.6495 21.05C23.5595 20.98 23.4995 20.87 23.4895 20.75H24.6895V20.61C24.6895 20.1 24.3795 19.75 23.9195 19.75V19.76ZM23.9195 20.08C23.9695 20.08 24.0195 20.08 24.0695 20.11C24.1195 20.13 24.1595 20.16 24.1995 20.2C24.2395 20.24 24.2695 20.28 24.2895 20.33C24.3095 20.38 24.3195 20.43 24.3195 20.48H23.4695C23.4695 20.37 23.5195 20.27 23.5995 20.19C23.6795 20.12 23.7895 20.08 23.8895 20.08H23.9195ZM32.7395 20.62V19.15H32.3895V20.01C32.3295 19.93 32.2495 19.87 32.1595 19.83C32.0695 19.79 31.9795 19.77 31.8795 19.77C31.6595 19.77 31.4395 19.86 31.2795 20.02C31.1195 20.18 31.0295 20.4 31.0295 20.62C31.0295 20.84 31.1195 21.06 31.2795 21.22C31.4395 21.38 31.6495 21.47 31.8795 21.47C31.9795 21.47 32.0695 21.45 32.1595 21.41C32.2495 21.37 32.3295 21.31 32.3895 21.23V21.43H32.7395V20.62ZM31.4295 20.62C31.4295 20.52 31.4695 20.43 31.5295 20.35C31.5895 20.27 31.6595 20.21 31.7495 20.18C31.8395 20.15 31.9395 20.14 32.0295 20.16C32.1195 20.18 32.2095 20.23 32.2695 20.3C32.3395 20.37 32.3795 20.46 32.3995 20.55C32.4195 20.64 32.3995 20.74 32.3695 20.83C32.3295 20.92 32.2695 20.99 32.1895 21.05C32.1095 21.1 32.0195 21.13 31.9195 21.13C31.8495 21.13 31.7895 21.12 31.7195 21.09C31.6595 21.06 31.5995 21.02 31.5595 20.98C31.5095 20.93 31.4795 20.87 31.4595 20.81C31.4395 20.75 31.4295 20.68 31.4295 20.61V20.62ZM19.5495 20.62V19.8H19.1995V20C19.1395 19.92 19.0595 19.86 18.9695 19.82C18.8795 19.78 18.7895 19.76 18.6895 19.76C18.4695 19.76 18.2495 19.85 18.0895 20.01C17.9295 20.17 17.8395 20.39 17.8395 20.61C17.8395 20.83 17.9295 21.05 18.0895 21.21C18.2495 21.37 18.4595 21.46 18.6895 21.46C18.7895 21.46 18.8795 21.44 18.9695 21.4C19.0595 21.36 19.1395 21.3 19.1995 21.22V21.42H19.5495V20.61V20.62ZM18.2395 20.62C18.2395 20.52 18.2795 20.43 18.3395 20.35C18.3995 20.27 18.4795 20.21 18.5595 20.18C18.6495 20.15 18.7495 20.14 18.8395 20.16C18.9295 20.18 19.0195 20.23 19.0795 20.3C19.1495 20.37 19.1895 20.46 19.2095 20.55C19.2295 20.64 19.2095 20.74 19.1795 20.83C19.1395 20.92 19.0795 20.99 18.9995 21.05C18.9195 21.1 18.8295 21.13 18.7295 21.13C18.6595 21.13 18.5995 21.12 18.5295 21.09C18.4695 21.06 18.4095 21.02 18.3695 20.98C18.3195 20.93 18.2895 20.87 18.2695 20.81C18.2495 20.75 18.2395 20.68 18.2395 20.61V20.62ZM33.3195 21.2C33.3195 21.2 33.3595 21.2 33.3795 21.21C33.3995 21.21 33.4195 21.23 33.4295 21.24C33.4395 21.25 33.4595 21.27 33.4695 21.29C33.4695 21.31 33.4795 21.33 33.4795 21.35C33.4795 21.37 33.4795 21.39 33.4695 21.41C33.4695 21.43 33.4495 21.45 33.4295 21.46C33.4095 21.47 33.3995 21.49 33.3795 21.49C33.3595 21.49 33.3395 21.5 33.3195 21.5C33.2895 21.5 33.2595 21.5 33.2295 21.47C33.1995 21.45 33.1795 21.43 33.1695 21.4C33.1695 21.38 33.1595 21.36 33.1595 21.34C33.1595 21.32 33.1595 21.3 33.1695 21.28C33.1695 21.26 33.1895 21.24 33.2095 21.23C33.2295 21.22 33.2395 21.2 33.2595 21.2C33.2795 21.2 33.2995 21.19 33.3195 21.19V21.2ZM33.3195 21.49C33.3195 21.49 33.3495 21.49 33.3695 21.48C33.3795 21.48 33.3995 21.46 33.4095 21.45C33.4295 21.43 33.4395 21.4 33.4395 21.36C33.4395 21.32 33.4295 21.3 33.4095 21.27C33.3995 21.26 33.3895 21.25 33.3695 21.24C33.3495 21.24 33.3395 21.23 33.3195 21.23C33.2995 21.23 33.2895 21.23 33.2695 21.24C33.2495 21.24 33.2395 21.26 33.2295 21.27C33.2095 21.29 33.1995 21.32 33.1995 21.36C33.1995 21.4 33.2095 21.42 33.2295 21.45C33.2395 21.46 33.2595 21.47 33.2695 21.48C33.2895 21.48 33.2995 21.49 33.3195 21.49ZM33.3295 21.28C33.3295 21.28 33.3595 21.28 33.3695 21.29C33.3695 21.29 33.3695 21.29 33.3795 21.31C33.3795 21.31 33.3795 21.32 33.3795 21.33C33.3795 21.33 33.3795 21.34 33.3795 21.35V21.36C33.3795 21.36 33.3595 21.37 33.3395 21.38L33.3895 21.44H33.3495L33.2995 21.38H33.2795V21.44H33.2495V21.29H33.3195L33.3295 21.28ZM33.2895 21.31V21.35H33.3295C33.3295 21.35 33.3395 21.35 33.3495 21.35V21.33V21.31H33.3295H33.2895Z" fill="black"/>
<path d="M26.5195 7.32001H21.1895V17H26.5195V7.32001Z" fill="#FF5F00"/>
<path d="M21.5298 12.16C21.5298 11.23 21.7398 10.31 22.1398 9.46999C22.5398 8.62999 23.1298 7.89999 23.8598 7.31999C22.9598 6.60999 21.8798 6.15999 20.7498 6.03999C19.6098 5.91999 18.4698 6.11999 17.4398 6.61999C16.4098 7.11999 15.5498 7.90999 14.9398 8.88999C14.3298 9.86999 14.0098 11 14.0098 12.16C14.0098 13.32 14.3298 14.45 14.9398 15.43C15.5498 16.41 16.4098 17.2 17.4398 17.7C18.4698 18.2 19.6198 18.41 20.7498 18.28C21.8898 18.16 22.9598 17.71 23.8598 17C23.1298 16.42 22.5498 15.69 22.1498 14.85C21.7498 14.01 21.5398 13.09 21.5398 12.16H21.5298Z" fill="#EB001B"/>
<path d="M33.7094 12.16C33.7094 13.32 33.3894 14.45 32.7794 15.43C32.1694 16.41 31.3094 17.2 30.2794 17.7C29.2494 18.2 28.0994 18.41 26.9694 18.28C25.8394 18.15 24.7494 17.71 23.8594 17C24.5894 16.42 25.1694 15.69 25.5694 14.85C25.9694 14.01 26.1794 13.09 26.1794 12.16C26.1794 11.23 25.9694 10.31 25.5694 9.46999C25.1694 8.62999 24.5794 7.89999 23.8594 7.31999C24.7594 6.60999 25.8394 6.15999 26.9694 6.03999C28.0994 5.91999 29.2494 6.11999 30.2794 6.61999C31.3094 7.11999 32.1694 7.90999 32.7794 8.88999C33.3894 9.86999 33.7094 11 33.7094 12.16Z" fill="#F79E1B"/>
</g>
<defs>
<clipPath id="clip0_342_5824">
<rect width="48" height="31" fill="white"/>
</clipPath>
</defs>
</svg>
