<svg width="48" height="31" viewBox="0 0 48 31" fill="none" xmlns="http://www.w3.org/2000/svg">
<g clip-path="url(#clip0_342_5830)">
<path d="M45 0H3C1.34315 0 0 1.34315 0 3V28C0 29.6569 1.34315 31 3 31H45C46.6569 31 48 29.6569 48 28V3C48 1.34315 46.6569 0 45 0Z" fill="white"/>
<path fill-rule="evenodd" clip-rule="evenodd" d="M38.0597 13.33C38.0597 17.93 34.3397 21.66 29.7397 21.66C25.1397 21.66 21.4297 17.93 21.4297 13.33C21.4297 8.73 25.1497 5 29.7397 5C34.3297 5 38.0597 8.73 38.0597 13.33Z" fill="#F79F1A"/>
<path fill-rule="evenodd" clip-rule="evenodd" d="M27.7999 13.33C27.7999 17.93 24.0799 21.66 19.4799 21.66C14.8799 21.66 11.1699 17.93 11.1699 13.33C11.1699 8.73 14.8899 5 19.4799 5C24.0699 5 27.7999 8.73 27.7999 13.33Z" fill="#EA001B"/>
<path fill-rule="evenodd" clip-rule="evenodd" d="M24.6099 6.77002C22.6699 8.30002 21.4199 10.66 21.4199 13.33C21.4199 16 22.6699 18.36 24.6099 19.89C26.5499 18.36 27.7999 15.99 27.7999 13.33C27.7999 10.67 26.5499 8.30002 24.6099 6.77002Z" fill="#FF5F01"/>
<path d="M16.7506 24.14C16.9906 24.14 17.1706 24.21 17.3106 24.35C17.4506 24.49 17.5206 24.69 17.5206 24.96V26.03H17.0806V25.01C17.0806 24.85 17.0406 24.72 16.9706 24.64C16.9006 24.56 16.7906 24.51 16.6606 24.51C16.5106 24.51 16.3906 24.56 16.3106 24.66C16.2206 24.76 16.1806 24.89 16.1806 25.07V26.02H15.7406V25C15.7406 24.84 15.7006 24.71 15.6306 24.63C15.5606 24.55 15.4506 24.5 15.3206 24.5C15.1706 24.5 15.0506 24.55 14.9606 24.64C14.8706 24.74 14.8306 24.88 14.8306 25.06V26.01H14.3906V24.14H14.8106V24.38C14.8806 24.3 14.9706 24.23 15.0706 24.19C15.1806 24.15 15.2906 24.12 15.4206 24.12C15.5606 24.12 15.6806 24.15 15.7906 24.2C15.9006 24.25 15.9906 24.33 16.0506 24.43C16.1306 24.33 16.2306 24.26 16.3506 24.2C16.4706 24.14 16.6106 24.12 16.7506 24.12V24.14ZM18.8306 24.14C19.1106 24.14 19.3206 24.21 19.4606 24.34C19.6106 24.47 19.6806 24.67 19.6806 24.94V26.04H19.2706V25.81C19.2206 25.89 19.1406 25.96 19.0406 26C18.9406 26.04 18.8206 26.06 18.6806 26.06C18.5406 26.06 18.4206 26.04 18.3106 25.99C18.2006 25.94 18.1206 25.87 18.0606 25.79C18.0006 25.7 17.9806 25.61 17.9806 25.5C17.9806 25.33 18.0406 25.2 18.1706 25.1C18.3006 25 18.4906 24.95 18.7606 24.95H19.2406V24.92C19.2406 24.79 19.2006 24.69 19.1206 24.62C19.0406 24.55 18.9306 24.51 18.7706 24.51C18.6606 24.51 18.5606 24.53 18.4606 24.56C18.3606 24.59 18.2706 24.64 18.2006 24.7L18.0306 24.38C18.1306 24.31 18.2506 24.25 18.3806 24.21C18.5206 24.17 18.6606 24.15 18.8206 24.15L18.8306 24.14ZM18.7706 25.74C18.8806 25.74 18.9806 25.72 19.0606 25.67C19.1506 25.62 19.2106 25.55 19.2406 25.45V25.23H18.7906C18.5406 25.23 18.4106 25.31 18.4106 25.48C18.4106 25.56 18.4406 25.62 18.5006 25.67C18.5606 25.72 18.6506 25.74 18.7606 25.74H18.7706ZM20.8606 26.06C20.7106 26.06 20.5606 26.04 20.4106 26C20.2606 25.96 20.1506 25.91 20.0606 25.85L20.2306 25.52C20.3106 25.58 20.4106 25.62 20.5306 25.66C20.6506 25.69 20.7706 25.71 20.8806 25.71C21.1406 25.71 21.2706 25.64 21.2706 25.5C21.2706 25.43 21.2406 25.39 21.1706 25.36C21.1006 25.33 21.0006 25.31 20.8506 25.29C20.7006 25.27 20.5706 25.24 20.4706 25.21C20.3706 25.18 20.2906 25.13 20.2206 25.05C20.1506 24.97 20.1106 24.87 20.1106 24.73C20.1106 24.55 20.1806 24.41 20.3306 24.31C20.4806 24.2 20.6806 24.15 20.9306 24.15C21.0606 24.15 21.1906 24.17 21.3206 24.2C21.4506 24.23 21.5506 24.27 21.6406 24.32L21.4706 24.65C21.3106 24.56 21.1306 24.51 20.9306 24.51C20.8006 24.51 20.7006 24.53 20.6406 24.57C20.5706 24.61 20.5406 24.66 20.5406 24.72C20.5406 24.79 20.5806 24.84 20.6506 24.87C20.7206 24.9 20.8306 24.93 20.9806 24.95C21.1306 24.97 21.2506 25 21.3506 25.03C21.4506 25.06 21.5306 25.11 21.6006 25.18C21.6706 25.25 21.7106 25.36 21.7106 25.49C21.7106 25.67 21.6306 25.81 21.4806 25.91C21.3306 26.02 21.1206 26.07 20.8606 26.07V26.06ZM23.2506 25.93C23.2006 25.97 23.1406 26 23.0606 26.02C22.9906 26.04 22.9106 26.05 22.8306 26.05C22.6206 26.05 22.4706 26 22.3506 25.89C22.2406 25.78 22.1806 25.63 22.1806 25.42V24.52H21.8706V24.17H22.1806V23.74H22.6206V24.17H23.1206V24.52H22.6206V25.41C22.6206 25.5 22.6406 25.57 22.6906 25.62C22.7306 25.67 22.8006 25.69 22.8806 25.69C22.9806 25.69 23.0606 25.66 23.1306 25.61L23.2506 25.92V25.93ZM25.3506 25.11C25.3506 25.11 25.3506 25.18 25.3506 25.24H23.8806C23.9106 25.38 23.9706 25.49 24.0806 25.57C24.1906 25.65 24.3306 25.69 24.4906 25.69C24.7006 25.69 24.8706 25.62 25.0006 25.49L25.2406 25.76C25.1606 25.86 25.0506 25.94 24.9206 25.99C24.7906 26.04 24.6506 26.07 24.4806 26.07C24.2706 26.07 24.0906 26.03 23.9406 25.95C23.7806 25.87 23.6606 25.75 23.5706 25.61C23.4906 25.46 23.4406 25.3 23.4406 25.11C23.4406 24.92 23.4806 24.76 23.5606 24.62C23.6406 24.47 23.7606 24.36 23.9106 24.28C24.0606 24.2 24.2206 24.16 24.4106 24.16C24.6006 24.16 24.7606 24.2 24.9006 24.28C25.0506 24.36 25.1606 24.47 25.2406 24.62C25.3206 24.77 25.3606 24.93 25.3606 25.13L25.3506 25.11ZM24.4006 24.49C24.2606 24.49 24.1406 24.53 24.0406 24.62C23.9406 24.7 23.8906 24.81 23.8606 24.95H24.9206C24.9006 24.81 24.8406 24.7 24.7506 24.62C24.6506 24.54 24.5306 24.49 24.3906 24.49H24.4006ZM26.2206 24.43C26.3506 24.23 26.5706 24.14 26.8906 24.14V24.56C26.8906 24.56 26.8206 24.55 26.7906 24.55C26.6206 24.55 26.4906 24.6 26.3906 24.7C26.2906 24.8 26.2506 24.94 26.2506 25.13V26.04H25.8106V24.17H26.2306V24.44L26.2206 24.43ZM28.1406 26.06C27.9506 26.06 27.7706 26.02 27.6206 25.94C27.4706 25.86 27.3506 25.74 27.2606 25.6C27.1706 25.45 27.1306 25.29 27.1306 25.1C27.1306 24.91 27.1706 24.75 27.2606 24.61C27.3506 24.46 27.4706 24.35 27.6206 24.27C27.7706 24.19 27.9506 24.15 28.1506 24.15C28.3306 24.15 28.5006 24.19 28.6306 24.26C28.7706 24.33 28.8806 24.44 28.9506 24.58L28.6106 24.78C28.5606 24.69 28.4906 24.63 28.4106 24.59C28.3306 24.55 28.2406 24.52 28.1506 24.52C27.9906 24.52 27.8506 24.57 27.7406 24.68C27.6306 24.79 27.5806 24.93 27.5806 25.1C27.5806 25.27 27.6306 25.42 27.7406 25.53C27.8506 25.64 27.9806 25.69 28.1506 25.69C28.2506 25.69 28.3306 25.67 28.4106 25.63C28.4906 25.59 28.5606 25.52 28.6106 25.43L28.9506 25.63C28.8806 25.77 28.7706 25.88 28.6306 25.96C28.4906 26.03 28.3306 26.07 28.1506 26.07L28.1406 26.06ZM30.0706 24.14C30.3506 24.14 30.5606 24.21 30.7006 24.34C30.8506 24.47 30.9206 24.67 30.9206 24.94V26.04H30.5106V25.81C30.4606 25.89 30.3806 25.96 30.2806 26C30.1806 26.04 30.0606 26.06 29.9206 26.06C29.7806 26.06 29.6606 26.04 29.5506 25.99C29.4406 25.94 29.3606 25.87 29.3006 25.79C29.2406 25.7 29.2206 25.61 29.2206 25.5C29.2206 25.33 29.2806 25.2 29.4106 25.1C29.5406 25 29.7306 24.95 30.0006 24.95H30.4806V24.92C30.4806 24.79 30.4406 24.69 30.3606 24.62C30.2806 24.55 30.1706 24.51 30.0106 24.51C29.9006 24.51 29.8006 24.53 29.7006 24.56C29.6006 24.59 29.5106 24.64 29.4406 24.7L29.2706 24.38C29.3706 24.31 29.4906 24.25 29.6206 24.21C29.7606 24.17 29.9006 24.15 30.0606 24.15L30.0706 24.14ZM30.0106 25.74C30.1206 25.74 30.2206 25.72 30.3006 25.67C30.3906 25.62 30.4506 25.55 30.4806 25.45V25.23H30.0306C29.7806 25.23 29.6506 25.31 29.6506 25.48C29.6506 25.56 29.6806 25.62 29.7406 25.67C29.8006 25.72 29.8906 25.74 30.0006 25.74H30.0106ZM31.9406 24.43C32.0706 24.23 32.2906 24.14 32.6106 24.14V24.56C32.6106 24.56 32.5406 24.55 32.5106 24.55C32.3406 24.55 32.2106 24.6 32.1106 24.7C32.0106 24.8 31.9706 24.94 31.9706 25.13V26.04H31.5306V24.17H31.9506V24.44L31.9406 24.43ZM34.8306 23.43V26.03H34.4106V25.79C34.3406 25.88 34.2506 25.95 34.1406 25.99C34.0306 26.03 33.9206 26.06 33.7906 26.06C33.6106 26.06 33.4506 26.02 33.3006 25.94C33.1606 25.86 33.0406 25.75 32.9606 25.6C32.8806 25.45 32.8406 25.28 32.8406 25.09C32.8406 24.9 32.8806 24.73 32.9606 24.59C33.0406 24.44 33.1506 24.33 33.3006 24.25C33.4506 24.17 33.6106 24.13 33.7906 24.13C33.9106 24.13 34.0306 24.15 34.1306 24.19C34.2306 24.23 34.3206 24.3 34.3906 24.38V23.42H34.8306V23.43ZM33.8406 25.68C33.9506 25.68 34.0406 25.66 34.1206 25.61C34.2006 25.56 34.2706 25.49 34.3206 25.4C34.3706 25.31 34.3906 25.21 34.3906 25.09C34.3906 24.97 34.3706 24.87 34.3206 24.78C34.2706 24.69 34.2006 24.62 34.1206 24.58C34.0406 24.53 33.9406 24.51 33.8406 24.51C33.7406 24.51 33.6406 24.53 33.5606 24.58C33.4806 24.63 33.4106 24.69 33.3606 24.78C33.3106 24.87 33.2906 24.97 33.2906 25.09C33.2906 25.21 33.3106 25.31 33.3606 25.4C33.4106 25.49 33.4806 25.56 33.5606 25.61C33.6406 25.66 33.7406 25.68 33.8406 25.68Z" fill="black"/>
</g>
<defs>
<clipPath id="clip0_342_5830">
<rect width="48" height="31" fill="white"/>
</clipPath>
</defs>
</svg>
