<svg width="48" height="31" viewBox="0 0 48 31" fill="none" xmlns="http://www.w3.org/2000/svg">
<g clip-path="url(#clip0_342_5849)">
<path d="M45 0H3C1.34315 0 0 1.34315 0 3V28C0 29.6569 1.34315 31 3 31H45C46.6569 31 48 29.6569 48 28V3C48 1.34315 46.6569 0 45 0Z" fill="white"/>
<path d="M31.96 5H15.35C14.05 5 13 6.05 13 7.35V23.96C13 25.26 14.05 26.31 15.35 26.31H31.96C33.26 26.31 34.31 25.26 34.31 23.96V7.35C34.31 6.05 33.26 5 31.96 5Z" fill="#1428A0"/>
<path d="M20.6801 16.15C20.5501 16.15 20.4201 16.17 20.2901 16.21C20.1401 16.26 20.0101 16.35 19.9201 16.48V16.21H19.3301V19.88H19.9101V18.61C20.0101 18.73 20.1401 18.82 20.2901 18.87C20.4201 18.91 20.5601 18.94 20.7001 18.94C20.8801 18.94 21.0501 18.91 21.2101 18.84C21.3801 18.77 21.5201 18.67 21.6501 18.53C21.7701 18.4 21.8701 18.25 21.9301 18.08C22.0301 17.82 22.0601 17.54 22.0101 17.27C21.9601 17 21.8301 16.75 21.6301 16.55C21.5101 16.42 21.3601 16.32 21.1901 16.25C21.0201 16.18 20.8501 16.15 20.6701 16.15H20.6801ZM21.2201 18.17C21.1501 18.24 21.0601 18.3 20.9701 18.34C20.8801 18.38 20.7701 18.4 20.6701 18.4C20.5601 18.4 20.4601 18.39 20.3601 18.35C20.2601 18.31 20.1701 18.25 20.1001 18.18C19.9501 18 19.8701 17.76 19.8901 17.52C19.8801 17.29 19.9601 17.06 20.1101 16.89C20.2601 16.74 20.4601 16.66 20.6701 16.66C20.8801 16.66 21.0801 16.74 21.2301 16.89C21.3901 17.07 21.4701 17.3 21.4601 17.54C21.4601 17.65 21.4401 17.77 21.4001 17.87C21.3601 17.98 21.3001 18.07 21.2201 18.16V18.17Z" fill="white"/>
<path d="M26.9009 18.1L26.0809 16.22H25.4609L26.6109 18.73L26.1109 19.89H26.7209L28.2809 16.22H27.6509L26.9009 18.1Z" fill="white"/>
<path d="M24.5093 16.48C24.4193 16.35 24.2893 16.26 24.1393 16.21C24.0193 16.17 23.8793 16.15 23.7493 16.15C23.5693 16.15 23.3893 16.18 23.2293 16.25C23.0593 16.32 22.9093 16.42 22.7893 16.55C22.5993 16.75 22.4693 17 22.4093 17.27C22.3493 17.54 22.3793 17.82 22.4893 18.08C22.5493 18.25 22.6493 18.4 22.7693 18.53C22.8893 18.66 23.0393 18.76 23.2093 18.84C23.3693 18.91 23.5493 18.95 23.7193 18.94C23.8593 18.94 23.9993 18.92 24.1293 18.87C24.2793 18.83 24.4093 18.73 24.5093 18.61V18.89H25.0893V16.22H24.4993V16.49L24.5093 16.48ZM24.3393 18.18C24.2693 18.26 24.1793 18.31 24.0793 18.35C23.9793 18.39 23.8793 18.41 23.7693 18.4C23.6693 18.4 23.5693 18.38 23.4693 18.34C23.3793 18.3 23.2893 18.24 23.2193 18.17C23.0593 18 22.9793 17.78 22.9793 17.55C22.9793 17.31 23.0493 17.08 23.2093 16.9C23.2793 16.83 23.3693 16.77 23.4593 16.73C23.5593 16.69 23.6593 16.67 23.7593 16.67C23.8593 16.67 23.9693 16.68 24.0593 16.72C24.1593 16.76 24.2393 16.82 24.3193 16.89C24.4693 17.06 24.5493 17.29 24.5393 17.52C24.5493 17.76 24.4793 17.99 24.3293 18.18H24.3393Z" fill="white"/>
<path d="M28.8798 14.49H28.8698L28.3498 12.71H27.5098V14.95H28.0698L28.0398 13.11H28.0498L28.6098 14.95H29.4198V12.71H28.8598L28.8898 14.49H28.8798Z" fill="white"/>
<path d="M19.1605 12.72H18.1505L17.7305 14.98H18.3405L18.6505 12.93H18.6605L18.9605 14.98H19.5705L19.1505 12.72H19.1605Z" fill="white"/>
<path d="M20.6093 12.95H20.6193L20.9993 14.98H21.5793L21.9593 12.95H21.9693L21.9893 14.98H22.5593L22.5093 12.72H21.5793L21.2993 14.45H21.2893L21.0093 12.72H20.0793L20.0293 14.98H20.5993V12.95H20.6093Z" fill="white"/>
<path d="M26.8598 14.49C26.8598 14.49 26.8598 14.38 26.8598 14.34V12.72H26.2798V14.39C26.2798 14.39 26.2798 14.45 26.2798 14.48C26.2698 14.53 26.2398 14.57 26.1998 14.6C26.1598 14.63 26.1098 14.64 26.0598 14.64C26.0098 14.64 25.9598 14.62 25.9198 14.6C25.8798 14.57 25.8498 14.53 25.8398 14.48C25.8398 14.45 25.8398 14.42 25.8398 14.39V12.72H25.2598V14.34C25.2598 14.34 25.2598 14.47 25.2598 14.49C25.2998 14.91 25.6298 15.05 26.0498 15.05C26.4698 15.05 26.7998 14.91 26.8398 14.49H26.8598Z" fill="white"/>
<path d="M16.3192 13.3C16.3192 13.3 16.3192 13.22 16.3192 13.18C16.3192 13.13 16.3492 13.09 16.3892 13.06C16.4292 13.03 16.4792 13.02 16.5192 13.02C16.5492 13.02 16.5792 13.02 16.5992 13.02C16.6292 13.02 16.6492 13.04 16.6692 13.06C16.6892 13.08 16.7092 13.1 16.7192 13.13C16.7292 13.16 16.7292 13.18 16.7292 13.21V13.35H17.2992V13.19C17.2992 12.7 16.8492 12.62 16.5292 12.62C16.1292 12.62 15.7992 12.75 15.7392 13.12C15.7192 13.22 15.7192 13.32 15.7392 13.42C15.8392 13.88 16.6492 14.02 16.7592 14.31C16.7792 14.36 16.7792 14.42 16.7592 14.48C16.7492 14.53 16.7192 14.57 16.6792 14.6C16.6392 14.63 16.5892 14.64 16.5392 14.63C16.5092 14.63 16.4792 14.63 16.4492 14.63C16.4192 14.63 16.3992 14.61 16.3792 14.59C16.3592 14.57 16.3392 14.55 16.3292 14.52C16.3192 14.49 16.3092 14.46 16.3092 14.44V14.22H15.6992V14.39C15.6992 14.9 16.0992 15.05 16.5192 15.05C16.9392 15.05 17.2692 14.91 17.3292 14.53C17.3492 14.41 17.3492 14.28 17.3292 14.16C17.2292 13.68 16.3692 13.55 16.3092 13.28" fill="white"/>
<path d="M23.9294 15.05C24.3394 15.05 24.6694 14.91 24.7294 14.54C24.7494 14.42 24.7494 14.29 24.7294 14.17C24.6394 13.7 23.7794 13.56 23.7194 13.3C23.7194 13.26 23.7194 13.22 23.7194 13.18C23.7194 13.13 23.7494 13.09 23.7894 13.06C23.8294 13.03 23.8794 13.02 23.9194 13.03C23.9494 13.03 23.9794 13.03 23.9994 13.03C24.0294 13.03 24.0494 13.05 24.0694 13.07C24.0894 13.09 24.1094 13.11 24.1194 13.14C24.1294 13.17 24.1294 13.19 24.1294 13.22V13.36H24.6894V13.2C24.6894 12.71 24.2494 12.64 23.9294 12.64C23.5294 12.64 23.1994 12.77 23.1394 13.14C23.1194 13.24 23.1194 13.34 23.1394 13.44C23.2394 13.9 24.0394 14.03 24.1494 14.32C24.1694 14.37 24.1694 14.43 24.1494 14.48C24.1294 14.55 24.0794 14.63 23.9294 14.63C23.8994 14.63 23.8694 14.63 23.8494 14.63C23.8294 14.63 23.7994 14.61 23.7794 14.59C23.7594 14.57 23.7394 14.55 23.7294 14.52C23.7194 14.49 23.7094 14.47 23.7094 14.44V14.22H23.1094V14.39C23.1094 14.89 23.4994 15.04 23.9294 15.04" fill="white"/>
<path d="M30.81 13.71V14.04H31.04V14.37C31.04 14.37 31.04 14.43 31.04 14.46C31.03 14.51 31 14.56 30.96 14.59C30.92 14.62 30.86 14.63 30.81 14.63C30.76 14.63 30.7 14.63 30.66 14.59C30.62 14.56 30.59 14.51 30.57 14.46C30.57 14.43 30.57 14.4 30.57 14.37V13.34C30.57 13.34 30.57 13.27 30.57 13.23C30.58 13.18 30.61 13.14 30.65 13.11C30.69 13.08 30.74 13.07 30.79 13.07C30.84 13.07 30.89 13.07 30.94 13.11C30.98 13.14 31.01 13.18 31.02 13.24C31.02 13.27 31.02 13.3 31.02 13.33V13.46H31.59V13.39C31.59 13.39 31.59 13.29 31.59 13.24C31.55 12.81 31.2 12.68 30.79 12.68C30.38 12.68 30.04 12.81 30 13.24C30 13.29 30 13.34 30 13.39V14.34C30 14.34 30 14.44 30 14.49C30.04 14.9 30.39 15.05 30.8 15.05C31.21 15.05 31.56 14.9 31.6 14.49C31.6 14.41 31.6 14.38 31.6 14.34V13.73H30.8L30.81 13.71Z" fill="white"/>
</g>
<defs>
<clipPath id="clip0_342_5849">
<rect width="48" height="31" fill="white"/>
</clipPath>
</defs>
</svg>
