<svg width="16" height="19" viewBox="0 0 16 19" fill="none" xmlns="http://www.w3.org/2000/svg">
<path d="M14.0075 4.06342C13.8829 3.99714 13.7616 3.92449 13.6441 3.84572C13.3023 3.61317 12.9889 3.33914 12.7107 3.02956C12.0146 2.20983 11.7547 1.37822 11.6589 0.795981H11.6627C11.5827 0.312693 11.6158 0 11.6208 0H8.45036V12.6177C8.45036 12.7872 8.45036 12.9546 8.44344 13.12C8.44344 13.1406 8.44152 13.1596 8.44036 13.1818C8.44036 13.1909 8.44036 13.2004 8.43844 13.2099V13.217C8.40502 13.6697 8.26402 14.1071 8.02783 14.4905C7.79165 14.874 7.46752 15.1919 7.08396 15.4161C6.68421 15.6502 6.23208 15.773 5.77217 15.7724C4.295 15.7724 3.09781 14.5327 3.09781 13.0017C3.09781 11.4707 4.295 10.231 5.77217 10.231C6.05179 10.2307 6.32968 10.276 6.59555 10.3652L6.59939 7.04271C5.7923 6.93541 4.97237 7.00143 4.19131 7.2366C3.41025 7.47176 2.68502 7.87098 2.06138 8.40906C1.51492 8.89773 1.05551 9.4808 0.70382 10.132C0.569987 10.3695 0.0650366 11.3238 0.00388879 12.8726C-0.0345689 13.7518 0.221944 14.6625 0.34424 15.0389V15.0469C0.421155 15.2685 0.719203 16.0249 1.20492 16.6626C1.59659 17.1741 2.05933 17.6234 2.57825 17.9961V17.9881L2.58594 17.9961C4.12079 19.0695 5.82255 18.9991 5.82255 18.9991C6.11713 18.9868 7.10396 18.9991 8.22462 18.4524C9.46757 17.8464 10.1752 16.9436 10.1752 16.9436C10.6273 16.4041 10.9867 15.7893 11.2382 15.1256C11.5251 14.3494 11.6208 13.4185 11.6208 13.0464V6.35241C11.6593 6.37616 12.1715 6.72487 12.1715 6.72487C12.1715 6.72487 12.9095 7.21172 14.061 7.52877C14.887 7.75438 16 7.80188 16 7.80188V4.56254C15.61 4.60608 14.8182 4.47942 14.0075 4.06342Z" fill="#2F2F2F"/>
</svg>
