<svg width="62" height="45" viewBox="0 0 62 45" fill="none" xmlns="http://www.w3.org/2000/svg">
<g clip-path="url(#clip0_311_3802)" filter="url(#filter0_d_311_3802)">
<path d="M52 5H10C8.34315 5 7 6.34315 7 8V33C7 34.6569 8.34315 36 10 36H52C53.6569 36 55 34.6569 55 33V8C55 6.34315 53.6569 5 52 5Z" fill="white"/>
<g clip-path="url(#clip1_311_3802)">
<path fill-rule="evenodd" clip-rule="evenodd" d="M30.6914 19.1532C30.6713 20.9646 32.2946 21.9754 33.517 22.5758C34.7796 23.1963 35.2004 23.5866 35.1904 24.137C35.1904 24.9777 34.1884 25.358 33.2565 25.368C31.6333 25.398 30.6914 24.9276 29.9399 24.5774L29.3587 27.3295C30.1102 27.6798 31.503 27.98 32.9559 28C36.3527 28 38.5671 26.3087 38.5872 23.6967C38.5972 20.3741 34.0281 20.194 34.0581 18.7129C34.0681 18.2625 34.499 17.7821 35.4309 17.662C35.8918 17.602 37.1743 17.552 38.6172 18.2225L39.1884 15.5604C38.4068 15.2702 37.4048 15 36.1623 15C32.9659 15 30.7214 16.7113 30.7014 19.1532H30.6914ZM44.6293 15.2302C44.008 15.2302 43.487 15.5905 43.2565 16.1509L38.4068 27.8099H41.8036L42.4749 25.9284H46.6232L47.014 27.8099H50L47.3948 15.2302H44.6393H44.6293ZM45.1002 18.6328L46.0822 23.3564H43.3968L45.1002 18.6328ZM26.5731 15.2302L23.8978 27.8099H27.1343L29.8096 15.2302H26.5832H26.5731ZM21.7936 15.2302L18.4269 23.7968L17.0641 16.5112C16.9038 15.7005 16.2725 15.2302 15.5711 15.2302H10.0802L10 15.5905C11.1323 15.8406 12.4148 16.2309 13.1864 16.6613C13.6573 16.9215 13.7976 17.1517 13.9579 17.7621L16.5331 27.7998H19.9499L25.1904 15.2302H21.7936Z" fill="url(#paint0_linear_311_3802)"/>
</g>
</g>
<defs>
<filter id="filter0_d_311_3802" x="0" y="0" width="62" height="45" filterUnits="userSpaceOnUse" color-interpolation-filters="sRGB">
<feFlood flood-opacity="0" result="BackgroundImageFix"/>
<feColorMatrix in="SourceAlpha" type="matrix" values="0 0 0 0 0 0 0 0 0 0 0 0 0 0 0 0 0 0 127 0" result="hardAlpha"/>
<feOffset dy="2"/>
<feGaussianBlur stdDeviation="3.5"/>
<feComposite in2="hardAlpha" operator="out"/>
<feColorMatrix type="matrix" values="0 0 0 0 0 0 0 0 0 0 0 0 0 0 0 0 0 0 0.1 0"/>
<feBlend mode="normal" in2="BackgroundImageFix" result="effect1_dropShadow_311_3802"/>
<feBlend mode="normal" in="SourceGraphic" in2="effect1_dropShadow_311_3802" result="shape"/>
</filter>
<linearGradient id="paint0_linear_311_3802" x1="24.5391" y1="29.261" x2="35.8232" y2="13.3456" gradientUnits="userSpaceOnUse">
<stop stop-color="#222357"/>
<stop offset="1" stop-color="#254AA5"/>
</linearGradient>
<clipPath id="clip0_311_3802">
<rect width="48" height="31" fill="white" transform="translate(7 5)"/>
</clipPath>
<clipPath id="clip1_311_3802">
<rect width="40" height="13" fill="white" transform="translate(10 15)"/>
</clipPath>
</defs>
</svg>
