<svg width="53" height="53" viewBox="0 0 53 53" fill="none" xmlns="http://www.w3.org/2000/svg">
<circle cx="26.5" cy="26.5" r="26" stroke="#2F2F2F"/>
<path d="M33.6571 36H20.3429C18.5031 36 17 34.4969 17 32.6571V19.3429C17 17.5031 18.5031 16 20.3429 16H33.6571C35.4969 16 37 17.5031 37 19.3429V32.6571C37 34.5051 35.5051 36 33.6571 36Z" fill="#2F2F2F"/>
<path d="M27 31C25.664 31 24.408 30.48 23.464 29.536C22.52 28.592 22 27.336 22 26C22 24.664 22.52 23.408 23.464 22.464C24.408 21.52 25.664 21 27 21C28.336 21 29.592 21.52 30.536 22.464C31.48 23.408 32 24.664 32 26C32 27.336 31.48 28.592 30.536 29.536C29.584 30.48 28.336 31 27 31ZM27 22.064C24.832 22.064 23.064 23.824 23.064 26C23.064 28.168 24.824 29.936 27 29.936C29.168 29.936 30.936 28.176 30.936 26C30.928 23.832 29.168 22.064 27 22.064Z" fill="white"/>
<path d="M33 21C33.5523 21 34 20.5523 34 20C34 19.4477 33.5523 19 33 19C32.4477 19 32 19.4477 32 20C32 20.5523 32.4477 21 33 21Z" fill="white"/>
</svg>
