<svg width="53" height="53" viewBox="0 0 53 53" fill="none" xmlns="http://www.w3.org/2000/svg">
<circle cx="26.5" cy="26.5" r="26" stroke="#2F2F2F"/>
<path fill-rule="evenodd" clip-rule="evenodd" d="M36.5411 21.7448C36.6801 21.3155 36.5411 21 35.8794 21H33.6914C33.135 21 32.8786 21.2725 32.7395 21.5731C32.7395 21.5731 31.6268 24.0848 30.0505 25.7163C29.5406 26.1886 29.3087 26.3388 29.0306 26.3388C28.8915 26.3388 28.6902 26.1885 28.6902 25.7592V21.7448C28.6902 21.2296 28.5287 21 28.0651 21H24.6268C24.2791 21 24.07 21.2391 24.07 21.4658C24.07 21.9542 24.8581 22.0668 24.9393 23.4408V26.4247C24.9393 27.0789 24.8118 27.1976 24.5336 27.1976C23.7919 27.1976 21.9876 24.6746 20.9174 21.7878C20.7077 21.2267 20.4974 21 19.9382 21H17.7502C17.125 21 17 21.2725 17 21.5731C17 22.1098 17.7418 24.7717 20.4539 28.2924C22.2619 30.6967 24.8093 32 27.1274 32C28.5182 32 28.6902 31.7105 28.6902 31.2119V29.3947C28.6902 28.8158 28.822 28.7002 29.2624 28.7002C29.5869 28.7002 30.1433 28.8505 31.4414 30.0098C32.9249 31.3837 33.1695 32 34.004 32H36.192C36.8171 32 37.1297 31.7105 36.9494 31.1393C36.752 30.5699 36.0437 29.7439 35.1039 28.7646C34.5939 28.2065 33.8289 27.6054 33.5971 27.3048C33.2726 26.9185 33.3653 26.7467 33.5971 26.4032C33.5971 26.4032 36.2629 22.9255 36.5411 21.7448Z" fill="#2F2F2F"/>
</svg>
