<svg xmlns="http://www.w3.org/2000/svg" width="0" height="0"><defs><symbol id="alfa" fill="none" viewBox="0 0 48 31"><g fill="currentColor" clip-path="url(#clip0_342_5800)"><path d="M45 0H3C1.34315 0 0 1.34315 0 3v25c0 1.6569 1.34315 3 3 3h42c1.6569 0 3-1.3431 3-3V3c0-1.65685-1.3431-3-3-3"/><path d="M30.11 26H17v-2.73h13.11zM21.6991 14.49l1.84-5.48h.07l1.74 5.48h-3.65m4.26-6.49c-.37-1.12-.8-2-2.28-2s-1.94.88-2.33 2l-4.06 11.56h2.69l.94-2.75h5.18l.87 2.75h2.86z"/></g><defs><clipPath id="clip0_342_5800"><path fill="currentColor" d="M0 0h48v31H0z"/></clipPath></defs></symbol><symbol id="app-store" fill="none" viewBox="0 0 11 13"><path fill="currentColor" d="M5.58221 3.73533c-.5135 0-1.30812-.58391-2.145-.56333-1.105.01462-2.11792.64079-2.6872 1.63258-1.14672 1.99063-.29576 4.93079.82278 6.54872.54871.7876 1.196 1.6738 2.054 1.6462.82334-.0353 1.13209-.5347 2.13146-.5347.99179 0 1.27292.5347 2.145.5135.88671-.0141 1.4495-.8016 1.99117-1.5968.62618-.9143.88618-1.80104.90028-1.84979-.0212-.00704-1.72361-.66138-1.7442-2.63088-.01408-1.64666 1.3433-2.43425 1.4067-2.46946-.77403-1.13208-1.96245-1.25883-2.37791-1.287-1.08333-.0845-1.99062.59042-2.49708.59042zm1.82975-1.66075C7.86859 1.52642 8.17029.75996 8.08634 0c-.6538.02817-1.44192.43604-1.91317.98475-.4225.48533-.78758 1.26642-.68954 2.01175.72475.05633 1.47062-.37267 1.92779-.92138"/></symbol><symbol id="apple-pay" fill="none" viewBox="0 0 48 31"><g fill="currentColor" clip-path="url(#clip0_342_5846)"><path d="M45 0H3C1.34315 0 0 1.34315 0 3v25c0 1.6569 1.34315 3 3 3h42c1.6569 0 3-1.3431 3-3V3c0-1.65685-1.3431-3-3-3"/><path d="M13.3995 10.8c-.41.47-1.07.85-1.72.79-.08-.64.24-1.32.62-1.74001.41-.49 1.13-.83 1.71-.86.07.67-.2 1.32001-.6 1.80001zm.59.92c-.95-.05-1.76.53-2.22.53s-1.15-.5-1.90005-.49c-.98.01-1.89.55-2.39 1.41-1.03 1.72-.27 4.26.72 5.66.49.69 1.07 1.45 1.83005 1.43.72-.03 1.01-.46 1.89-.46s1.13.46 1.9.45c.79-.01 1.29-.69 1.78-1.39.55-.79.78-1.55.79-1.59-.01-.01-1.53-.58-1.55-2.28-.01-1.43 1.2-2.1 1.25-2.14-.68-.99-1.75-1.09-2.12-1.12zm5.49-1.93001V20.17h1.65v-3.55h2.29c2.09 0 3.56-1.4 3.56-3.42s-1.4401-3.41001-3.5101-3.41001h-3.9999zm1.65 1.36001h1.91c1.44 0 2.2599.75 2.2599 2.06s-.8199 2.06-2.2599 2.06h-1.9v-4.12zm8.87 9.1c1.04 0 1.9999-.51 2.4399-1.33h.0301v1.25h1.53V15c0-1.5-1.2301-2.46-3.1201-2.46-1.76 0-3.0599.98-3.0999 2.32h1.49c.12-.64.73-1.06 1.57-1.06 1.01 0 1.5799.46 1.5799 1.31v.57l-2.0599.12c-1.92.11-2.96.88-2.96 2.21s1.07 2.24 2.61 2.24zm.44-1.23c-.88 0-1.44-.41-1.44-1.05s.5399-1.03 1.57-1.09l1.84-.11v.59c0 .97-.85 1.67-1.97 1.67zM36.0494 23c1.6101 0 2.3701-.6 3.0401-2.42l2.91-7.94h-1.68l-1.9501 6.13h-.0299l-1.95-6.13h-1.73l2.7999 7.56-.1499.46c-.25.78-.6601 1.08-1.3901 1.08-.13 0-.3799-.01-.4899-.03v1.25c.1.03.51.04.63.04z"/></g><defs><clipPath id="clip0_342_5846"><path fill="currentColor" d="M0 0h48v31H0z"/></clipPath></defs></symbol><symbol id="basket-logo" fill="none" viewBox="0 0 18 21"><path fill="currentColor" d="m17.9992 19.0457-.613-14.1679c-.0108-1.04594-.85-1.89439-1.88-1.89439h-3.116C12.1373 1.31406 10.7124 0 8.99785 0 7.28281 0 5.8575 1.31406 5.60456 2.98341H2.49282c-1.02965 0-1.86858.84848-1.87938 1.89443L.00077 19.0453A.9.9 0 0 0 0 19.0815C0 20.1393.84334 21 1.87997 21H16.1201C17.1567 21 18 20.1396 18 19.0818c0-.0121-.0003-.024-.0008-.0361M8.99785 1.634c.83064 0 1.53375.57037 1.75945 1.3494H7.23751c.22578-.77902.92928-1.3494 1.76034-1.3494m7.12225 17.7338H1.87997c-.15479 0-.2769-.1193-.2831-.2728l.61228-14.15919a.9.9 0 0 0 .00077-.03814c0-.15698.12425-.28201.28288-.28201h3.06524v2.98578c0 .45121.35656.81699.79746.81699s.79746-.36578.79746-.81699V4.61566h3.67314v2.98578c0 .45121.3566.81699.7975.81699.4408 0 .7974-.36578.7974-.81699V4.61566h3.0852c.159 0 .2835.12483.2835.28181 0 .01205.0002.02502.0007.03708l.6127 14.15995c-.0062.1535-.1283.2733-.283.2733"/></symbol><symbol id="belcard" fill="none" viewBox="0 0 48 31"><g fill="currentColor" clip-path="url(#clip0_342_5836)"><path d="M45 0H3C1.34315 0 0 1.34315 0 3v25c0 1.6569 1.34315 3 3 3h42c1.6569 0 3-1.3431 3-3V3c0-1.65685-1.3431-3-3-3"/><path d="M15.2691 25.57c-.06-.02-.08-.05-.11-.1-.02-.04-.02-.2-.01-1.45v-1.4l.03-.05s.05-.06.08-.08l.05-.03h.95c.94 0 .95 0 .97.02s.02.04.02.28c0 .23 0 .26-.02.27s-.15.02-.71.02h-.69v.53h.45c.48.01.53.02.7.08.24.08.44.25.54.46.06.14.08.24.08.45 0 .23-.01.29-.09.44-.1.2-.24.34-.45.45-.23.12-.2.11-1.03.12-.59 0-.73 0-.77-.01zm1.37-.62c.06-.02.09-.04.14-.09s.07-.08.09-.14c.05-.17.02-.33-.09-.44-.05-.05-.07-.06-.14-.08s-.1-.02-.44-.02h-.36v.79c0 .01.09.01.36.01.33 0 .36 0 .43-.02zm1.74.62c-.24-.05-.4-.17-.49-.35-.1-.2-.11-.29-.1-1.29 0-.85 0-.84.07-1.01.03-.09.13-.23.19-.28.03-.03.1-.07.15-.09.18-.09.14-.08.99-.09.75 0 .76 0 .78.02s.02.04.02.28 0 .25-.02.28c-.02.02-.04.02-.62.02-.38 0-.62 0-.66.01-.09.02-.14.05-.17.11-.02.04-.03.07-.03.26 0 .17 0 .21.01.22 0 0 .31 0 .66.01h.66c.03.02.04.08.04.28 0 .22 0 .27-.06.28h-1.31v.27c0 .15 0 .29.01.32.01.06.04.1.11.13l.06.03h.67c.59 0 .67 0 .69.03.02.02.02.04.02.28s0 .26-.02.28-.04.02-.79.02c-.59 0-.78 0-.84-.02zm1.76 0s-.02-.05-.03-.23c0-.22 0-.3.03-.32 0 0 .05-.02.08-.02.12-.02.19-.07.26-.2.1-.19.14-.49.2-1.58.02-.27.03-.5.04-.53.02-.11.08-.19.16-.21.03 0 .34-.01.95 0h.9l.05.03s.06.05.08.08l.03.05v2.93l-.02.02s-.06.02-.32.02c-.24 0-.3 0-.32-.02s-.02-.05-.03-1.26v-1.25h-.85v.04s-.02.11-.02.18c-.01.27-.06.88-.09 1.05-.06.43-.13.68-.28.9-.16.25-.37.35-.68.35-.11 0-.13 0-.15-.02zm3.16 0s-.02-.19-.02-1.53c0-1.19 0-1.51.01-1.54v-.03h.34c.29 0 .32 0 .34.01.01.02.01.15.01.6v.58h.26c.25 0 .26 0 .33-.04.09-.04.18-.13.22-.22.02-.03.07-.23.13-.43.05-.2.11-.4.12-.43.02-.06.1367-.09.35-.09h.3c.05.02.05.04-.08.52-.08.31-.14.5-.16.56-.07.15-.14.24-.28.35l-.03.02.1.05c.16.08.26.2.31.37.03.1.32 1.18.32 1.2 0 .01 0 .03-.02.04-.02.02-.06.02-.32.02-.3 0-.3 0-.32-.03-.02-.02-.07-.17-.17-.54-.08-.28-.16-.54-.18-.58-.05-.1-.09-.15-.18-.19-.1-.05-.18-.06-.45-.06h-.23v.67c0 .59 0 .67-.02.7s-.02.03-.33.03-.32 0-.33-.03zm2.65 0s-.02-.03-.02-.04c0-.03.94-2.86.97-2.92s.06-.09.12-.12c.04-.02.06-.02.33-.02s.28 0 .33.03c.03.02.06.05.08.08.04.06.99 2.91.99 2.96 0 .02 0 .04-.01.05s-.1.01-.34.01c-.29 0-.33 0-.35-.02s-.05-.1-.11-.32l-.09-.3h-.5c-.47 0-.5 0-.51.01 0 .01-.05.13-.09.27-.09.3-.1.31-.13.33-.04.03-.64.02-.67 0m1.72-1.21s-.04-.13-.08-.28-.12-.4-.16-.57-.08-.3-.09-.3c0 0-.05.15-.1.33s-.12.43-.16.56-.07.25-.07.26c0 .02.03.02.33.02.22 0 .33 0 .33-.01zm1.28 1.2s-.02-.03-.02-1.46c0-1.05 0-1.45.01-1.48.02-.07.08-.13.15-.15.04 0 .25-.01.69-.01.71 0 .77 0 .95.07.15.05.22.1.34.23.09.09.12.13.16.22.09.18.12.39.1.59-.06.48-.33.78-.82.88-.07.01-.18.02-.49.02h-.41V25c0 .51 0 .57-.04.59h-.61l-.02-.03zm1.31-1.67c.23-.03.35-.15.37-.37 0-.13-.02-.23-.1-.31s-.15-.12-.29-.13c-.13-.01-.56-.01-.59 0-.02 0-.02.04-.02.41 0 .31 0 .41.01.41.03.01.52 0 .62 0zm2.02 1.69-.03-.06c0-.03-.01-.56-.01-1.26v-1.21h-.8l-.03-.03-.03-.03v-.25c0-.23 0-.25.02-.27l.02-.02h2.39l.02.03s.02.05.02.26c0 .24 0 .27-.05.3-.02 0-.16.01-.44.01h-.41v1.25c0 1.23 0 1.25-.03 1.27s-.61.02-.64 0zm-9.14-4.05s-.12-.09-.3-.27c-.48-.47-2.14-2.14-2.16-2.17-.01-.02-.02-.06-.02-.09 0-.06.03-.11.11-.2.04-.04.04-.05.02-.09-.03-.1-.08-.2-.15-.27-.12-.11.05-.1-1.52-.11-1.47 0-1.43 0-1.49-.06-.07-.07-.06.07-.07-1.78v-1.73c.01-.05.06-.11.1-.13.02 0 .08-.02.13-.03.05 0 .1-.01.1-.01.05-.06.11-.22.12-.3 0-.07-.02-.17-.05-.22-.01-.02-.45-.47-.97-.99s-.96-.97-.98-1c-.04-.05-.04-.14 0-.19.03-.05 2.36-2.39002 2.42-2.43002.04-.03.12-.03.17-.01.02 0 .06.03.09.06.11.1.11.09.21.05.05-.02.12-.06.15-.08.07-.05.15-.17.16-.23 0-.03 0-.65.01-1.39 0-1.32 0-1.35.03-1.4.01-.03.04-.06.06-.08.04-.03.05-.03.32-.04h1.72c1.33 0 1.44 0 1.47.02.08.04.12.12.12.22v.09c0 .04.01.05.1.09.13.06.19.08.29.06.06 0 .09-.02.12-.05.03-.02.48-.46 1-.99.68-.68.97-.95 1-.97.06-.03.1-.03.15 0 .05.02 2.41 2.37 2.44 2.43.03.05.03.12 0 .17-.01.02-.05.07-.08.11s-.06.08-.06.09c0 .03.05.16.09.21.04.06.11.12.17.16.04.02.1.02 1.45.03 1.3 0 1.41 0 1.44.03.05.03.09.08.1.13V11.57l-.03.05c-.04.07-.09.1-.22.11-.06 0-.12.01-.12.01-.02 0-.08.12-.1.19-.03.09-.03.23 0 .28.01.02.47.49 1.01 1.03.99 1 1.03 1.03 1.03 1.11s-.02.11-1.23 1.32c-.84.84-1.2 1.19-1.23 1.21-.09.04-.15.02-.26-.07-.04-.03-.08-.06-.1-.07-.08-.02-.31.11-.37.21l-.03.06v1.4c-.01.77-.02 1.42-.02 1.43-.01.04-.06.1-.1.12-.03.02-.14.02-1.75.02h-1.71l-.05-.03c-.06-.04-.08-.09-.09-.18-.01-.15 0-.14-.13-.19-.17-.08-.29-.09-.38-.02-.02.02-.32.3-.66.64-.95.95-1.3 1.29-1.34 1.31-.05.03-.1.03-.15.02zm-.12-4.14c.04-.28.08-.61.1-.72l.03-.2.14-.14c.17-.17.27-.25.35-.29.03-.02.1-.05.14-.08.15-.09.25-.14.35-.17.08-.03.12-.03.21-.03.21 0 .3.03.61.24.06.04.17.1.25.14l.15.07.22.21c.12.11.42.41.68.66s.46.45.46.45-.02-.04-.41-.54c-.14-.18-.31-.4-.37-.47l-.11-.14v-.29c.02-.28.02-.3.06-.45.08-.32.14-.43.27-.56.14-.14.29-.22.54-.26.16-.03.31-.07.43-.12.08-.03.09-.03.4-.04.18 0 .58-.01.9-.01h.62c.03 0 .03 0-.02-.02-.03 0-.19-.02-.37-.04-.47-.05-.91-.1-.93-.11-.03 0-.45-.46-.5-.54-.13-.2-.22-.36-.25-.47-.03-.1-.03-.28 0-.39.02-.09.12-.28.23-.44.05-.07.11-.18.15-.25.06-.13.07-.14.26-.34.11-.12.41-.42.66-.67s.46-.46.46-.47-.01 0-.17.12c-.09.07-.33.26-.53.42l-.37.29h-.08s-.22 0-.38-.01c-.28-.01-.3-.01-.46-.05-.3-.08-.47-.17-.59-.33-.07-.1-.08-.11-.12-.21-.04-.11-.05-.13-.09-.33-.02-.1-.05-.21-.06-.24-.03-.08-.04-.35-.05-1.32002 0-.41-.01-.74-.02-.72 0 .02-.04.27-.07.56s-.07.58-.07.66l-.02.13-.15.14002c-.25.24-.36.33-.45.38-.04.02-.11.06-.14.08-.26.17-.48.22-.71.16-.07-.02-.27-.12-.34-.16-.02-.02-.11-.07-.19-.12s-.18-.11-.21-.13c-.06-.05-.51-.48002-1.05-1.00002-.2-.2-.37-.36-.37-.35s.08.11.18.24.29.37.43.55l.25.32V10.17c0 .31-.01.42-.08.65-.1.33-.14.42-.26.56-.13.14-.3.22-.61.28-.11.02-.22.05-.24.06-.05.02-.48.04-.9.04-.48 0-1.13.02-1.09.03.02 0 .25.03.51.06s.53.05.62.06l.15.02.05.05s.12.13.21.22c.12.13.17.19.2.26.02.05.04.09.04.09s.03.06.07.12c.17.28.2.35.21.53 0 .09 0 .14-.01.2-.03.1-.12.28-.21.41-.04.06-.1.16-.14.22-.09.16-.23.32-1.05 1.14-.19.19-.34.35-.34.35 0 .01.03 0 .55-.43l.49-.39h.13c.26 0 .5.02.57.05.04.01.13.04.2.06.4.11.55.21.69.47.05.1.07.15.12.39.02.11.06.25.08.32l.04.12v.32c.02.17.02.58.02.9 0 .52 0 .68.02.66 0 0 .04-.24.07-.52z"/><path d="M15.3199 25.56c-.07-.01-.1-.04-.13-.1-.02-.04-.02-.07-.02-1.43 0-1.11 0-1.39.02-1.42.02-.06.06-.1.11-.13.04-.02.1-.02.99-.02s.95 0 .95.02V23c0 .02-.05.02-.7.02h-.7v.03s-.03.48-.02.52c0 .02.01.02.43.03.23 0 .46.01.5.02.28.04.5.15.64.31.22.26.28.76.12 1.09-.11.22-.31.39-.54.48-.1333.0466-.4433.0733-.93.08h-.72zm1.36-.6c.1-.05.15-.1.2-.2.03-.07.04-.08.04-.2 0-.11 0-.13-.03-.18-.04-.08-.11-.15-.2-.19l-.07-.03h-.38c-.36 0-.39 0-.4.01-.02.03-.02.78 0 .81.01.02.02.02.39.02h.38l.08-.04zm1.8.6c-.34-.04-.56-.21-.64-.5-.04-.15-.04-.25-.04-1.1 0-.84 0-.85.03-.94.04-.14.1-.24.18-.33.06-.07.1-.09.18-.13.18-.09.18-.09 1.01-.09.61 0 .73 0 .74.02 0 .01.01.09.01.27v.25h-.03s-.17.03-.65.03c-.65 0-.66 0-.73.06-.07.05-.09.11-.09.33v.25h.66c.64 0 .66 0 .68.02s.02.04.02.25 0 .23-.02.25-.08.02-.67.02c-.56 0-.65 0-.66.02-.01.01-.01.09-.01.31 0 .29 0 .29.03.35.02.04.04.07.08.09l.05.03h.68c.54.01.68.01.7.03.01.01.02.08.02.26v.24l-.03.03-.03.03h-.7c-.38 0-.74 0-.79-.01zm1.7 0s-.04-.06-.04-.29c0-.21 0-.23.02-.25s.04-.02.07-.02c.07 0 .13-.03.19-.09.17-.18.21-.43.29-1.75.03-.58.04-.62.15-.67.05-.02.09-.02.95-.02s.91 0 .95.02c.05.03.08.05.11.11.02.04.02.13.02 1.47v1.49h-.32c-.27 0-.31 0-.32-.02s-.02-.23-.02-1.26v-1.24h-.88v.1c-.01.06-.03.29-.05.52-.05.63-.08.88-.15 1.14-.07.24-.17.44-.31.58-.13.12-.27.18-.5.19h-.15zm3.15-.01s-.02-.17-.02-1.53c0-.93 0-1.52.01-1.53 0-.01.06-.02.3-.02h.32c.02.01.02.02.03.6v.59h.26c.24 0 .26 0 .33-.03.14-.06.23-.16.28-.33.02-.06.08-.27.13-.46s.1-.36.11-.37c0-.01.08-.01.3-.01.25 0 .29 0 .31.02.01.01 0 .09-.1.46-.06.24-.13.48-.14.53-.05.15-.17.31-.29.39-.04.03-.05.06-.02.07 0 0 .05.03.1.05.14.07.23.18.29.37.04.12.31 1.15.31 1.18 0 .05-.03.05-.33.05-.24 0-.28 0-.3-.02 0 0-.08-.24-.16-.52-.08-.27-.15-.53-.17-.56-.06-.15-.15-.23-.29-.28-.06-.02-.53-.03-.59-.02h-.03v.69c0 .66 0 .68-.02.7-.01 0-.13.01-.31.01-.25 0-.29 0-.31-.02zm2.65 0s-.02-.03-.02-.04c0-.05.95-2.88.98-2.94.06-.09.08-.1.38-.1h.3c.06.02.11.06.14.11.04.08.98 2.92.97 2.94 0 .01-.02.02-.03.03-.05.01-.58 0-.62 0-.02 0-.04-.02-.04-.03s-.05-.15-.09-.3c-.05-.15-.09-.29-.1-.3s-.09-.02-.52-.02c-.47 0-.5 0-.51.02 0 .01-.05.15-.1.3-.06.18-.1.29-.11.3-.02.02-.04.02-.32.03h-.32zm1.7-1.18s0-.06-.07-.31c-.05-.16-.12-.43-.17-.59-.07-.28-.09-.33-.12-.3 0 0-.05.16-.1.33-.05.18-.12.43-.16.57-.07.25-.08.28-.07.3.01.01.66 0 .68 0zm1.3 1.18s-.03-.02-.03-.04v-1.48c0-1.43 0-1.45.03-1.49.01-.02.04-.05.06-.06.04-.02.04-.03.72-.03.65 0 .69 0 .8.02.38.08.64.32.74.67.03.12.04.4 0 .51-.1.39-.34.63-.74.72-.09.02-.15.02-.5.03-.22 0-.41 0-.43.01h-.03v.54c0 .45 0 .54-.02.56s-.03.02-.3.02h-.31zm1.36-1.67c.13-.03.22-.12.27-.23.08-.2.01-.44-.15-.54-.1-.07-.15-.07-.52-.07h-.34v.85c0 .02.66.02.74 0zm1.96 1.67s-.03-.02-.04-.03c0-.02-.01-.41-.01-1.26 0-1.12 0-1.24-.02-1.24h-.82l-.02-.03s-.02-.07-.02-.25c0-.14 0-.24.01-.25.01-.02.04-.02 1.21-.02.91 0 1.2 0 1.21.01 0 0 .01.08.01.26 0 .22 0 .24-.02.26s-.07.02-.43.02c-.31 0-.42 0-.43.01s-.01.31-.01 1.26c0 1.14 0 1.25-.02 1.26-.01.01-.08.02-.3.02h-.3zm-9.19-4.07s-.31-.29-1.01-1c-.53-.54-.99-1.01-1.03-1.06l-.07-.09h.04s.09.02.15.03c.06 0 .12.02.14.02h.11c.03 0 .05.01.06.01 0 0 .07 0 .14.02.07.01.18.03.23.04.05 0 .14.02.2.03s.17.02.23.03c.07 0 .13.02.15.03.01 0 .1.02.19.03.16.02.33.04.67.1.09.02.19.03.21.03s.1.01.16.02c.07.01.14.02.16.03q.165.015.21.03c.02 0 .04.01.06.01.29.03.31.03.51.07.06.01.12.02.14.03h.04l-.18.2c-.1.1-.44.45-.75.77-.57.57-.62.62-.69.62-.01 0-.04 0-.07-.02zm4.06-1.54c-.44 0-.81-.01-.81-.02-.01-.01.05-.07.08-.08.01 0 .05-.03.07-.05.03-.02.08-.06.11-.08l.13-.09.08-.06s.03-.03.06-.05.08-.06.12-.09.08-.06.1-.07c.02 0 .04-.03.04-.04 0-.02.04-.04.16-.12.02-.01.06-.04.08-.06s.08-.06.13-.1c.05-.03.11-.08.13-.1.1-.07.2-.15.24-.17.02-.01.06-.04.08-.07.03-.02.05-.04.06-.04s.04-.02.07-.05.06-.05.07-.05.04-.02.07-.05.09-.07.13-.09.06-.05.06-.05.02-.02.05-.03.07-.04.1-.07.05-.04.06-.04.05-.03.1-.07.09-.07.1-.07.03-.02.06-.05c.03-.02.06-.05.07-.05.02 0 .05-.03.11-.09.01-.01.03-.02.03-.02l.08-.06c.04-.03.09-.07.12-.09.03-.01.06-.04.07-.05.02-.02.02-.02.03.07 0 .05.01.54.01 1.09 0 .97 0 1-.02 1.04-.01.02-.04.05-.07.07l-.05.03h-.67c-.37 0-1.03 0-1.48-.01zm-1.37-.19v-.16c0-.17-.02-.46-.03-.49 0-.01-.02-.02-.04-.03-.03 0-.02-.02.19-.23.46-.47.87-.86.87-.85 0 0-.01.05-.38.71-.12.22-.31.55-.41.73s-.18.32-.19.32zm-5.07-.9s.07-.09.17-.19c.09-.1.19-.2.21-.24.05-.06.05-.07.03-.12 0-.02.03-.02.76-.02.57 0 .77 0 .76.01 0 0-.05.03-.11.04-.31.09-1.77.51-1.79.51h-.03zm-3.09-.6s-.05-.05-.06-.08c-.02-.05-.02-.06-.02-1.22 0-.64.01-1.34.01-1.55v-.38l.03.03s.04.06.06.1c.02.03.05.08.06.1.03.03.12.17.18.27.02.03.05.08.07.1.02.03.04.06.05.07 0 .02.04.07.08.13.04.05.09.13.11.17s.06.08.07.1c.02.02.04.06.06.1s.05.08.07.1.03.04.03.05.03.05.09.13c0 0 .02.03.03.05 0 .02.04.07.06.1.03.03.06.08.08.11s.05.07.07.1l.04.06c0 .01.02.04.08.12.02.02.03.05.04.06 0 .01.03.05.05.08s.05.06.05.06.02.04.05.08.06.09.07.11.04.07.07.11l.11.16s.08.12.11.16c.06.08.16.23.19.29.01.02.04.05.05.07q.06.06 0 .06c-.02 0-.49.01-1.04.01h-1.01l-.04-.02zm12.21-1.65c-.25-.24-.31-.28-.34-.26-.01 0-.03.02-.03.03 0 0 0-.04-.01-.12-.01-.17 0-1.42.02-1.41.01.01.56 1.86.57 1.91v.03s-.1-.08-.21-.19zm.71-.12s.01-.08.02-.14c0-.06.02-.16.03-.21 0-.06.02-.15.03-.21 0-.06.03-.16.04-.23s.02-.15.02-.18 0-.09.02-.13c0-.04.02-.13.03-.19 0-.07.02-.13.02-.14s.01-.04.02-.06c0-.02 0-.08.02-.12 0-.04.02-.11.02-.16.01-.11.04-.27.08-.52.02-.11.04-.23.04-.28 0-.04.01-.1.02-.13 0-.03.02-.1.03-.15 0-.06.03-.17.04-.24.02-.12.03-.19.04-.31 0-.03.02-.15.05-.28v-.04l.05.03c.18.15 1.48 1.44 1.51 1.49.03.06.03.11-.01.17-.02.03-.19.2-.38.39-1.4 1.39-1.56 1.54-1.67 1.63-.07.06-.07.06-.07.03zm-11.82-1.31c-.41-.22-.8-.44-.87-.47s-.12-.07-.12-.07c0-.02.06-.02.33-.03.32 0 .34-.01.36-.06v-.03l.08.06c.1.09 1 1 1 1.01h-.01s-.35-.18-.76-.41zm-1.35-1.77c-.09-.08-.44-.43-.78-.76-.57-.57-.61-.61-.62-.66-.02-.1-.04-.08.98-1.08.52-.52 1-.98002 1.05-1.03002l.1-.09v.04s0 .12-.02.22002c-.02.1-.03.2-.03.22v.05l-.02.16c-.03.21-.05.37-.07.5-.01.06-.03.16-.03.21-.01.1-.04.31-.05.37 0 .02-.01.08-.02.14-.04.24-.06.33-.07.46 0 .08-.02.17-.03.2 0 .03-.02.09-.02.14s-.02.14-.03.2c-.01.07-.02.14-.02.16s0 .08-.02.13c0 .05-.02.13-.03.19 0 .06-.02.12-.02.14s-.01.06-.02.09c-.01.12-.02.17-.03.17 0 0-.08-.07-.17-.15zm12.44-2.02c-.43-.42-.66-.66-.65-.67 0 0 .29.15 1.55.83.12.07.22.12.21.13 0 0-.15.01-.33.02-.17 0-.33.02-.35.02s-.03.02-.03.04-.07-.04-.4-.37m-10.75-.35c-.07-.23-.2-.66-.28-.96-.09-.30002-.16-.54002-.16-.55002 0-.02.03-.01.06.02.05.06.35.34.41.38s.06.05.08.03l.03.08002v1.28c0 .08-.01.14-.02.14s-.06-.19-.13-.42zm12.02.1s-.05-.07-.13-.19c-.05-.06-.1-.13-.11-.15s-.05-.07-.09-.12-.1-.14-.14-.19c-.04-.06-.08-.11-.09-.13-.01-.01-.04-.05-.06-.08s-.05-.07-.06-.09c-.05-.06-.14-.18002-.18-.24002-.02-.03-.06-.09-.09-.12q-.045-.06-.06-.09c0-.01-.01-.02-.02-.02s-.03-.03-.05-.06-.05-.07-.06-.08-.03-.04-.04-.06c0-.02-.04-.06-.07-.09s-.06-.07-.07-.09-.04-.05-.05-.07c-.02-.02-.09-.12-.16-.22s-.14-.2-.16-.22c-.04-.06-.17-.24-.19-.27 0-.01-.04-.05-.07-.09s-.05-.07-.05-.08-.02-.03-.04-.06c-.04-.05-.05-.06-.12-.16-.02-.03-.04-.06-.05-.06s-.02-.02-.03-.03l-.02-.03h.27c.15-.01.64-.02 1.1-.02.78 0 .83 0 .87.02.02.01.05.04.06.06.02.04.02.04.02 1.49 0 1.36002-.01 1.59002-.03 1.55002zm-11.85-2.56002s-.01-.53-.01-1.09v-1.01l.02-.04s.04-.05.06-.06c.03-.02.05-.02 1.13-.02 1.21 0 1.93.01 1.92.03 0 0-.1.08-.17.12-.01 0-.04.03-.06.04-.11.09-.18.14-.19.14l-.04.02c-.01.01-.06.05-.1.07s-.1.07-.12.09-.05.04-.05.04-.04.02-.07.05-.07.06-.09.06c-.03.01-.2.14-.28.21-.03.02-.09.07-.14.11s-.12.09-.14.11c-.03.02-.08.06-.11.08-.04.02-.07.05-.07.05s-.02.02-.04.03-.06.04-.09.06-.05.04-.06.04-.02.01-.04.03c-.04.04-.13.1-.18.13-.02.01-.05.03-.06.05-.01.01-.04.04-.07.05-.03.02-.08.05-.11.08-.04.03-.07.06-.08.06s-.04.03-.08.06l-.08.06-.06.04c-.03.02-.06.05-.08.06-.03.02-.22.16-.25.19 0 0-.05.04-.08.06-.04.02-.07.05-.08.06-.02.03-.03.02-.04-.06zm2.61-.21s.07-.15.16-.31.32-.57.5-.91c.19-.34.34-.61.34-.61.02-.02.03.05.03.16 0 .16.02.51.03.53 0 0 .02.02.03.02.02 0-.08.11-.51.55l-.56.56c-.01 0-.02.01-.02 0zm4.18-.36s-.01-.01 0-.02c0 0 .11-.04.24-.07.32-.09 1.66-.48 1.68-.48.04-.01 0 .05-.13.18-.22.23-.3.33-.3.36 0 .02 0 .03-.02.03-.04.01-1.45 0-1.47 0m1.56-1.07s-.05 0-.08-.01c-.03 0-.2-.03-.39-.06s-.37-.06-.42-.06c-.04 0-.11-.01-.14-.02-.25-.05-.37-.07-.66-.1-.09-.01-.23-.03-.3-.05-.26-.05-.32-.06-.38-.06-.03 0-.1-.01-.14-.02l-.19-.03c-.07 0-.12-.02-.13-.02s-.03 0-.06-.01c-.03 0-.1-.01-.16-.02s-.13-.02-.16-.02c-.11 0-.47-.07-.48-.08s.24-.28.84-.88c.36-.36.67-.67.69-.68.04-.02.11-.02.15 0 .05.03 1.85 1.84 2.04 2.05l.07.08h-.04s-.05 0-.07-.01z"/></g><defs><clipPath id="clip0_342_5836"><path fill="currentColor" d="M0 0h48v31H0z"/></clipPath></defs></symbol><symbol id="belcard2" fill="none" viewBox="0 0 48 31"><g fill="currentColor" clip-path="url(#clip0_342_5840)"><path d="M45 0H3C1.34315 0 0 1.34315 0 3v25c0 1.6569 1.34315 3 3 3h42c1.6569 0 3-1.3431 3-3V3c0-1.65685-1.3431-3-3-3"/><path fill-rule="evenodd" d="M5.85945 10.95h6.41005c.51 0 .92.41.92.92v6.41c0 .51-.41.92-.92.92H5.85945c-.51 0-.92-.41-.92-.92v-6.41c0-.51.41-.92.92-.92" clip-rule="evenodd"/><path fill-rule="evenodd" d="M10.5207 17.08h-.98001s-.05-.02-.05-.05v-.24l-.74.74s-.05.02-.07 0l-.7-.7s-.02-.05 0-.07l.17-.17h-1.05s-.05-.02-.05-.05v-.98s.02-.05.05-.05h.24l-.74-.74s-.02-.05 0-.07l.7-.7s.05-.02.07 0l.17.17v-1.05s.02-.05.05-.05h.98s.05.02.05.05v.24l.74-.74s.05-.02.07 0l.70001.7s.02.05 0 .07l-.17001.17h1.05001s.05.02.05.05v.98s-.02.05-.05.05h-.24l.74.74s.02.05 0 .07l-.7.7s-.05.02-.07 0l-.17-.17v1.05s-.02.05-.05.05m-.13-2.74-.38.31h-.47001s-.05-.02-.05-.05v-.98l-.06.49-.33.33s-.05.02-.07 0l-.39-.39-.31-.31.31.38v.47s-.02.05-.05.05h-.98l.49.06.33.33s.02.05 0 .07l-.7.7.38-.31h.47s.05.02.05.05v.98l.06-.49.33-.33s.05-.02.07 0l.7.7-.31-.38v-.47s.02-.05.05-.05h.98001l-.49-.06-.33001-.33s-.02-.05 0-.07l.39001-.39z" clip-rule="evenodd"/><path d="M17.5898 14.25c.01.38-.29.66-.68.66h-1.01v-1.3h1.02c.36 0 .66.25.67.63zm25.04-2.38v3.86c0 .07-.06.11-.13.11h-.81c-.06 0-.13-.05-.13-.11v-3.86h-1.27c-.06 0-.11-.06-.11-.13v-.66c0-.07.05-.13.11-.13h3.62c.07 0 .11.06.11.13v.66c0 .06-.05.13-.11.13h-1.29zm-20.24 3.81v-.64s-.04-.12-.12-.12h-1.89c-.12 0-.34-.08-.34-.37v-.93h2.01c.08 0 .12-.07.12-.11v-.65c0-.07-.05-.12-.13-.12h-2v-.52c0-.22.18-.34.34-.34h1.89c.09 0 .12-.07.12-.12v-.68c0-.07-.05-.12-.13-.12h-1.96c-.74-.01-1.32.61-1.32 1.29v2.31c0 .71.6 1.28 1.29 1.28h2c.07 0 .12-.05.12-.12zm8.02-2.44v-.03c.15-.09.28-.21.37-.35.1-.15.17-.32.22-.51l.32-1.24c.01-.06-.03-.14-.12-.14h-.76s-.05 0-.08.02c-.03.01-.05.04-.06.08l-.31 1.17c-.04.14-.09.26-.15.34s-.13.15-.21.19c-.07.04-.15.07-.23.08s-.15.02-.22.02h-.55v-1.78c0-.07-.06-.12-.12-.12h-.82c-.07 0-.13.05-.13.11v4.66c0 .06.06.11.13.11h.81c.07 0 .13-.05.13-.11v-2.07h.56c.16 0 .3.01.41.05.11.03.2.09.28.17.07.08.13.21.18.37l.43 1.51c.02.06.07.08.11.08h.81c.1 0 .13-.09.12-.14l-.43-1.62c-.03-.1-.06-.2-.09-.28-.03-.09-.07-.16-.12-.23s-.11-.13-.19-.18-.18-.1-.3-.14zm2.93.72.26-.88.26-.99h.04l.26.99.26.88h-1.09zm1.34.86.27.91c.02.08.07.11.12.11h.88c.08 0 .14-.07.12-.15l-1.44-4.35c-.07-.21-.17-.38-.42-.38h-.63c-.12 0-.23.04-.32.15-.04.06-.08.13-.11.23l-1.44 4.34c-.03.1.05.16.11.16h.85s.08 0 .12-.07c0-.02.02-.04.02-.06l.27-.88h1.6zm4.34-2.31c0 .34-.27.64-.64.64h-.95v-1.28h.91c.41-.01.68.3.68.64m-1.59 3.18v-1.63h1.16c.8 0 1.55-.65 1.54-1.58 0-.22-.06-.43-.14-.61-.19-.43-.54-.72-.96-.84-.17-.05-.35-.07-.54-.07h-1.77c-.19 0-.35.13-.35.33v4.43c0 .07.05.12.12.12h.82s.08-.03.1-.06c.01-.02.01-.05.01-.08zm-22.24.15h1.83c.9.03 1.64-.6 1.67-1.53 0-.08 0-.18-.02-.28-.16-.77-.77-1.29-1.54-1.29h-1.23v-.87h2.1c.08 0 .13-.06.13-.13v-.62c0-.08-.03-.16-.13-.15h-2.79c-.29 0-.37.21-.37.34v4.2c0 .19.15.34.34.34zm8.35-4.42-.06 1.06c-.02.36-.04.67-.07.94-.04.44-.08 1.5-.65 1.5h-.02c-.05 0-.12.04-.12.11v.68c0 .07.05.13.12.13h.05c.43 0 .81-.05 1.13-.54.1-.15.19-.33.26-.52.06-.2.12-.42.15-.66.04-.24.07-.51.09-.8s.05-.61.07-.95l.03-.49h1.36v3.85c0 .06.06.12.13.12h.81c.08 0 .13-.06.13-.13v-4.41c0-.18-.15-.34-.37-.34h-2.67c-.21 0-.33.18-.34.33 0 .04-.01.09-.02.14z"/><path fill-rule="evenodd" d="m16.3901 17.5-.32.53-.6.97s-.04.06-.06.08-.03.04-.05.05-.04.02-.07.02h-.23c-.09 0-.15-.02-.18-.07-.03-.04-.05-.1-.05-.18v-2.18s.02-.07.07-.07h.38s.05 0 .06.01c0 0 .01.03.01.05v1.6h.02l.3-.5.61-1.01s.04-.06.06-.08.03-.04.05-.05.04-.02.06-.02h.24q.135 0 .18.06c.03.04.05.1.05.19v2.17s-.02.07-.07.07h-.38s-.05 0-.06-.01c0 0-.01-.03-.01-.05v-1.59h-.02zm1.56 1.59s0 .05-.02.06c-.01 0-.03.01-.07.01h-.35c-.05 0-.08-.02-.08-.07v-1.73s.03-.07.08-.07h.35s.06 0 .07.01c.01 0 .02.03.02.06v.61h.66v-.61s.03-.07.08-.07h.36s.06 0 .06.01c0 0 .01.03.01.06v1.73s0 .05-.01.06c0 0-.03.01-.06.01h-.36c-.05 0-.08-.02-.08-.07v-.71h-.66zm2.53-1.37v1.37s0 .05-.02.06c-.01 0-.03.01-.07.01h-.35c-.05 0-.08-.02-.08-.07v-1.37h-.5s-.07-.03-.07-.08v-.26s0-.06.01-.07c0-.01.03-.02.06-.02h1.53s.05 0 .06.02c0 .01.01.03.01.07v.26c0 .05-.02.08-.07.08zm1.56-.47c.28 0 .48.07.62.21s.21.34.21.59c0 .12-.02.21-.07.25-.05.05-.11.07-.2.07h-.91c0 .08.01.14.04.19q.03.075.09.12c.04.03.08.05.13.06s.11.02.17.02c.07 0 .14 0 .21-.02s.14-.04.2-.06c.03 0 .05-.01.06 0q.015 0 .03.03l.11.26s.01.04 0 .05c0 .01-.02.02-.04.04-.09.06-.19.1-.31.12s-.22.04-.32.04c-.31 0-.54-.08-.69-.23s-.22-.4-.22-.73q0-.24.06-.42c.04-.12.1-.23.18-.31.08-.09.17-.15.28-.19s.23-.07.36-.07zm.01.43c-.1 0-.18.03-.24.1s-.1.16-.11.26h.66c0-.05 0-.1-.02-.15-.01-.04-.03-.08-.05-.12-.02-.03-.06-.06-.1-.08s-.09-.03-.16-.03zm1.71 2.15s0 .04-.01.05c0 0-.03.01-.06.01h-.37s-.04 0-.06-.01c-.01 0-.02-.02-.02-.05v-2.31s0-.05.01-.06c0-.02.03-.03.06-.05.11-.05.24-.09.38-.11s.28-.03.4-.03c.17 0 .31.03.42.08s.21.12.28.21.12.19.15.31.05.24.05.38-.02.26-.05.37c-.03.12-.08.22-.15.31s-.16.16-.26.21c-.11.05-.23.08-.37.08h-.2c-.06 0-.13-.02-.2-.03v.67zm.7-1.61c0-.1 0-.18-.03-.24-.02-.07-.05-.12-.08-.16-.04-.04-.08-.07-.14-.09-.05-.02-.11-.02-.18-.02-.03 0-.08 0-.13.01-.05 0-.1.02-.14.03v.97c.06.02.12.03.17.03h.13c.12 0 .22-.04.29-.12s.11-.22.11-.41m1.44.87s0 .05-.02.06c-.01 0-.03.01-.07.01h-.35c-.05 0-.08-.02-.08-.07v-1.73s.03-.07.08-.07h.35s.06 0 .07.01c.01 0 .02.03.02.06v.61h.66v-.61s.03-.07.08-.07h.36s.06 0 .06.01c0 0 .01.03.01.06v1.73s0 .05-.01.06c0 0-.03.01-.06.01h-.36c-.05 0-.08-.02-.08-.07v-.71h-.66zm2.45-1.84c.28 0 .48.07.62.21s.21.34.21.59c0 .12-.02.21-.07.25-.05.05-.11.07-.2.07h-.91c0 .08.01.14.04.19q.03.075.09.12c.04.03.08.05.13.06s.11.02.17.02c.07 0 .14 0 .21-.02s.14-.04.2-.06c.03 0 .05-.01.06 0q.015 0 .03.03l.11.26s.01.04 0 .05c0 .01-.02.02-.04.04-.09.06-.19.1-.31.12s-.22.04-.32.04c-.31 0-.54-.08-.69-.23s-.22-.4-.22-.73q0-.24.06-.42c.04-.12.1-.23.18-.31.08-.09.17-.15.28-.19s.23-.07.36-.07zm.01.43c-.1 0-.18.03-.24.1s-.1.16-.11.26h.66c0-.05 0-.1-.02-.15-.01-.04-.03-.08-.05-.12-.02-.03-.06-.06-.1-.08s-.09-.03-.16-.03zm2.09.04v1.37s0 .05-.02.06c-.01 0-.03.01-.07.01h-.35c-.05 0-.08-.02-.08-.07v-1.37h-.5s-.07-.03-.07-.08v-.26s0-.06.01-.07c0-.01.03-.02.06-.02h1.53s.05 0 .06.02c0 .01.01.03.01.07v.26c0 .05-.02.08-.07.08zm2.93 1.38s0 .04-.01.05c0 0-.03.01-.06.01h-.39s-.07-.02-.07-.07v-1.95h-.96v1.95s0 .04-.01.05c0 0-.03.01-.06.01h-.39s-.07-.02-.07-.07V16.9c0-.08.02-.14.05-.18q.045-.06.18-.06h1.59c.09 0 .14.02.18.06.03.04.05.1.05.18v2.18zm2.08-.16s0 .06-.01.08c0 .02-.03.04-.06.06q-.075.045-.18.06c-.06.02-.13.03-.19.04-.07 0-.13.02-.2.02h-.19c-.16 0-.29-.02-.4-.05-.1-.03-.19-.07-.25-.13-.06-.05-.11-.12-.13-.19-.03-.07-.04-.15-.04-.23 0-.09.02-.18.05-.25.03-.08.08-.14.14-.2s.14-.1.23-.13.2-.05.33-.05h.39v-.06s0-.07-.01-.1c0-.03-.02-.06-.04-.08s-.05-.04-.09-.05-.09-.02-.16-.02h-.12c-.04 0-.09 0-.13.01-.05 0-.09.01-.13.02-.04 0-.08.02-.11.03h-.06c-.01 0-.02-.02-.02-.05l-.06-.25v-.06c0-.01.02-.02.04-.03.11-.04.22-.07.34-.08.12-.02.23-.02.35-.02.26 0 .45.05.57.17.12.11.18.27.18.49v1.03zm-.51-.61h-.39c-.04 0-.07.02-.1.03-.03.02-.06.04-.08.08-.02.03-.03.08-.03.13 0 .08.03.14.08.17.06.03.13.05.23.05h.14c.03 0 .06 0 .08-.01.03 0 .05-.01.08-.02v-.43zm1.49 1.51s0 .04-.01.05c0 0-.03.01-.06.01h-.37s-.04 0-.06-.01c-.01 0-.02-.02-.02-.05v-2.31s0-.05.01-.06c0-.02.03-.03.06-.05.11-.05.24-.09.38-.11s.28-.03.4-.03c.17 0 .31.03.42.08s.21.12.28.21.12.19.15.31.05.24.05.38-.02.26-.05.37c-.03.12-.08.22-.15.31s-.16.16-.26.21c-.11.05-.23.08-.37.08h-.2c-.06 0-.13-.02-.2-.03v.67zm.7-1.61c0-.1 0-.18-.03-.24-.02-.07-.05-.12-.08-.16-.04-.04-.08-.07-.14-.09-.05-.02-.11-.02-.18-.02-.03 0-.08 0-.13.01-.05 0-.1.02-.14.03v.97c.06.02.12.03.17.03h.13c.12 0 .22-.04.29-.12.08-.08.11-.22.11-.41m2.65 0c0 .31-.07.55-.22.72s-.38.26-.68.26-.53-.09-.67-.26q-.21-.255-.21-.72c0-.15.02-.29.06-.41s.1-.22.18-.31c.08-.08.17-.15.28-.19s.23-.07.37-.07c.3 0 .52.09.67.26s.23.41.23.71zm-.54.01c0-.08 0-.15-.02-.22-.01-.07-.03-.12-.06-.17s-.07-.08-.11-.11-.1-.04-.17-.04c-.13 0-.22.05-.28.14q-.09.15-.09.39c0 .18.03.31.08.4.06.09.15.14.28.14.07 0 .12-.01.17-.04s.08-.07.11-.11c.03-.05.05-.1.06-.17.01-.06.02-.13.02-.21zm2.37-.93c.08 0 .14.02.17.05s.04.09.04.17v1.58s0 .05-.02.05c-.01 0-.03.01-.07.01h-.36s-.06 0-.07-.02c-.01-.01-.02-.03-.02-.05v-1.37h-.44v.18c-.02.21-.04.38-.06.53s-.05.28-.1.38c-.04.11-.11.19-.19.26s-.19.12-.33.16c-.03.01-.06.01-.07 0-.01 0-.03-.02-.04-.05l-.1-.24s-.02-.05-.01-.07c0-.01.02-.03.05-.04.06-.03.12-.06.15-.1.04-.04.07-.09.1-.15.02-.07.04-.15.06-.26.01-.11.03-.25.04-.43l.02-.39c0-.08.02-.13.06-.16.03-.03.09-.05.17-.05h.99zm.9 1.86q-.135 0-.18-.06c-.03-.04-.04-.09-.04-.15v-1.59s.03-.07.08-.07h.36s.06 0 .07.01c.01 0 .02.03.02.06v.51h.44c.17 0 .31.02.41.07s.18.11.23.18.08.14.1.21c.01.07.02.13.02.18 0 .09-.02.18-.05.26-.04.08-.08.15-.15.2-.06.06-.14.1-.22.13s-.18.05-.28.05h-.79zm.96-.65c0-.07-.02-.12-.06-.17s-.1-.07-.19-.07h-.42v.48h.42s.09 0 .12-.02.06-.04.08-.06.03-.05.04-.08c0-.03.01-.05.01-.08" clip-rule="evenodd"/></g><defs><clipPath id="clip0_342_5840"><path fill="currentColor" d="M0 0h48v31H0z"/></clipPath></defs></symbol><symbol id="facebook-logo" fill="none" viewBox="0 0 11 20"><path fill="currentColor" d="M6.79559 11.6272V20H3.08371v-8.3728H0V8.23225h3.08371V6.99704C3.08371 2.41124 4.93251 0 8.84426 0 10.0435 0 10.3433.1997 11 .36243V3.7204c-.7352-.13313-.9422-.2071-1.70604-.2071-.90655 0-1.39195.26628-1.83452.79142-.44257.52515-.66385 1.43492-.66385 2.73669v1.19823H11L9.87216 11.6346H6.79559z"/></symbol><symbol id="google-play" fill="none" viewBox="0 0 12 13"><path fill="currentColor" d="m7.1628 5.93789 1.72647-1.625L1.20886.09539C1.09626.03407.97684.0068.85742 0zM.10236.41547C.03753.53129 0 .66075 0 .80724V12.1925c0 .1464.04094.2793.10236.3917l6.45891-6.08435zM11.5778 5.78457 9.64319 4.72168 7.75977 6.49657l1.88342 1.7749 1.93461-1.06289c.563-.31001.563-1.1174 0-1.42741zM7.1628 7.06195.85742 12.9998c.11601-.0068.23543-.0306.35144-.0953l7.68041-4.21414-1.72647-1.625z"/></symbol><symbol id="instagram-logo" viewBox="0 0 50 50"><path fill="currentColor" d="M16 3C8.83 3 3 8.83 3 16v18c0 7.17 5.83 13 13 13h18c7.17 0 13-5.83 13-13V16c0-7.17-5.83-13-13-13zm21 8c1.1 0 2 .9 2 2s-.9 2-2 2-2-.9-2-2 .9-2 2-2m-12 3c6.07 0 11 4.93 11 11s-4.93 11-11 11-11-4.93-11-11 4.93-11 11-11m0 2c-4.96 0-9 4.04-9 9s4.04 9 9 9 9-4.04 9-9-4.04-9-9-9"/></symbol><symbol id="logo" fill="none" viewBox="0 0 141 96"><g fill="currentColor" clip-path="url(#clip0_365_5319)"><path d="M64.2989 93.7232C62.7666 92.2054 62 90.3029 62 88.0157s.7666-4.1898 2.2989-5.7076C65.8722 80.7694 67.7729 80 70 80s4.1175.7694 5.6703 2.3081C77.2231 83.8259 78 85.7285 78 88.0157s-.7769 4.1897-2.3297 5.7075C74.1585 95.2411 72.2681 96 70 96s-4.1483-.7589-5.7011-2.2768M70 82.5883c-1.4306 0-2.6253.5196-3.5859 1.5596-.9606 1.0401-1.4409 2.329-1.4409 3.8678 0 1.5387.4803 2.8276 1.4409 3.8677.9401 1.0192 2.1357 1.5283 3.5859 1.5283s2.6458-.5091 3.5859-1.5283c.9606-1.0401 1.4409-2.329 1.4409-3.8677 0-1.5388-.4803-2.8277-1.4409-3.8678-.9606-1.04-2.1553-1.5596-3.5859-1.5596M46.2989 93.7232C44.7666 92.2054 44 90.3029 44 88.0157s.7666-4.1898 2.2989-5.7076C47.8722 80.7694 49.7729 80 52 80s4.1175.7694 5.6703 2.3081C59.2231 83.8259 60 85.7285 60 88.0157s-.7769 4.1897-2.3297 5.7075C56.1585 95.2411 54.2681 96 52 96s-4.1483-.7589-5.7011-2.2768M52 82.5883c-1.4306 0-2.6253.5196-3.5859 1.5596-.9606 1.0401-1.4409 2.329-1.4409 3.8678 0 1.5387.4803 2.8276 1.4409 3.8677.9401 1.0192 2.1347 1.5283 3.5859 1.5283s2.6458-.5091 3.5859-1.5283c.9606-1.0401 1.4409-2.329 1.4409-3.8677 0-1.5388-.4803-2.8277-1.4409-3.8678-.9606-1.04-2.1553-1.5596-3.5859-1.5596M95.9952 74.3258v20.3174c.0417.5425-.1869.9244-.6859 1.1457-.4781.2414-.9657.2414-1.4647 0q-.71715-.33195-.6546-1.1457v-.8143C92.0052 95.2766 90.3422 96 88.2021 96c-1.8707 0-3.5441-.7436-5.0193-2.2308C81.7276 92.2821 81 90.4433 81 88.2529c0-2.1903.7276-4.019 2.1828-5.486 1.4752-1.4872 3.1486-2.2307 5.0193-2.2307 2.1619 0 3.824.7132 4.9879 2.1407v-8.3501q-.06255-.8139.6546-1.1457c.499-.2415.9866-.2415 1.4647 0 .499.2212.7276.6031.6859 1.1457zm-7.3577 8.7119c-1.2057 0-2.2967.5022-3.2738 1.5074-.9353.985-1.403 2.2207-1.403 3.7078 0 1.4872.4677 2.7329 1.403 3.7382.9771 1.0052 2.0681 1.5073 3.2738 1.5073 1.4552 0 2.5775-.4718 3.3667-1.4165.7903-.9446 1.1849-2.2206 1.1849-3.8281 0-1.6074-.3946-2.8733-1.1849-3.7987-.7892-.9446-1.9124-1.4165-3.3667-1.4165zM39.817 83.0986h-3.1093v11.5747c.0396.5425-.1775.9244-.6514 1.1456-.4541.2415-.9181.2415-1.3921 0-.4541-.2212-.6613-.6031-.6217-1.1456V83.0986h-.8883c-.3361 0-.6118-.1102-.8289-.3314-.2172-.2212-.3253-.5021-.3253-.8445 0-.3213.1081-.593.3253-.8143.2369-.2414.5135-.3616.8289-.3616h.8883v-1.9893c0-1.6073.5623-2.9641 1.6876-4.0693C36.8753 73.5627 38.2367 73 39.8161 73c.3361 0 .6118.1203.8289.3617.237.2212.355.5021.355.8436s-.1189.6334-.355.8739c-.237.2212-.5136.3314-.8289.3314-.8487 0-1.5794.3314-2.1912.9951-.6118.6435-.9181 1.4265-.9181 2.3509v1.9892h3.1093c.3162 0 .582.1203.7992.3617.2369.2213.355.4921.355.8143 0 .3414-.119.6233-.355.8445-.2172.2212-.4839.3314-.7992.3314zM117.928 93.0159V33.097L101.342 4.27257Q101 3.45847 101 3.05144c0-.85901.295-1.58233.887-2.16998C102.478.29382 103.207 0 104.071 0c1.183 0 2.026.47442 2.526 1.42419L121 27.0606l14.403-25.63641C135.903.47442 136.745 0 137.929 0q1.296 0 2.184.88146c.592.58765.887 1.31097.887 2.16998q0 .40704-.342 1.22113L124.072 33.0961v59.9198c.09 1.2202-.41 2.0792-1.502 2.577-1.046.5428-2.116.5428-3.208 0q-1.5705-.7467-1.434-2.577"/><path fill-rule="evenodd" d="M64 69c19.3295 0 35-15.4463 35-34.5005C99 15.4454 83.3295 0 64 0S29 15.4463 29 34.4995 44.6696 69 64 69m0-6.0718c15.9277 0 28.8396-12.7276 28.8396-28.4287 0-15.701-12.9119-28.4277-28.8396-28.4277-15.9278 0-28.8406 12.7276-28.8406 28.4277S48.0713 62.9282 64 62.9282" clip-rule="evenodd"/><path d="M2.83389 95.9991c-.76451 0-1.41648-.2926-1.95684-.8778C.29203 94.5809 0 93.9277 0 93.1627s.29204-1.4405.87705-2.0257c.53943-.5404 1.1914-.8106 1.95684-.8106 1.97916 0 3.64304-.698 4.99255-2.0938 1.39416-1.3958 2.0917-3.1065 2.0917-5.1322V2.97146C9.82793 1.75548 10.3004.90011 11.3346.40533c1.0798-.54044 2.1364-.54044 3.1706 0q1.6197.74356 1.4844 2.56613V83.1004c0 3.6022-1.2817 6.6408-3.8458 9.1175C9.53496 94.7393 6.43135 96 2.83389 96z"/></g><defs><clipPath id="clip0_365_5319"><path fill="currentColor" d="M0 0h141v96H0z"/></clipPath></defs></symbol><symbol id="mc" fill="none" viewBox="0 0 48 31"><g fill="currentColor" clip-path="url(#clip0_342_5824)"><path d="M45 0H3C1.34315 0 0 1.34315 0 3v25c0 1.6569 1.34315 3 3 3h42c1.6569 0 3-1.3431 3-3V3c0-1.65685-1.3431-3-3-3"/><path d="M33.0095 25.85h-.04v.1h-.02v-.1h-.04v-.02h.09v.02zm.14.1h-.02v-.1l-.03.09h-.02l-.03-.09v.1h-.02v-.12h.03l.03.09.03-.09h.03zm-17.82 0h-.26v-2.99h.26zm1.97-2.99c.23 0 .45.03.67.1q.285.09.51.3c.14.13.25.29.32.47.15.4.15.84 0 1.24-.07.18-.18.34-.32.47-.15.13-.32.24-.51.3-.21.07-.44.11-.67.1h-1.08v-2.99h1.08zm-.82.25v2.5h.82c.19 0 .39-.03.57-.09.15-.05.3-.14.42-.25.11-.11.2-.24.26-.39.11-.33.11-.69 0-1.03-.05-.15-.14-.28-.26-.39s-.26-.2-.42-.25c-.18-.06-.38-.09-.57-.09h-.82zm5.58-.29c.12 0 .25.01.37.04s.23.07.34.12c.1.05.2.12.28.19s.16.16.21.26l-.21.15q-.075-.12-.18-.21c-.07-.06-.15-.12-.23-.16-.09-.04-.18-.08-.27-.1-.1-.02-.2-.04-.3-.04-.17 0-.34.03-.49.09s-.28.15-.4.26c-.11.12-.2.25-.26.4-.13.34-.13.71 0 1.04.06.15.15.29.26.4s.25.2.4.26c.16.06.32.09.49.09q.15 0 .3-.03c.19-.04.36-.13.51-.26q.105-.09.18-.21l.21.16c-.06.09-.13.18-.22.25-.08.07-.18.14-.28.19q-.15.075-.33.12c-.32.07-.66.05-.97-.07-.18-.07-.34-.18-.48-.31-.14-.14-.25-.3-.32-.48-.15-.4-.15-.84 0-1.24.07-.18.18-.35.32-.48.14-.14.3-.24.48-.31.19-.07.39-.11.59-.11zm2.07 1.37c.04-.06.08-.12.14-.17.05-.05.11-.09.17-.12s.13-.05.19-.07c.07-.01.13-.02.2-.02.12 0 .23.02.34.06.1.03.19.09.27.16.07.07.13.16.17.25.04.11.06.23.06.34v1.23h-.24v-1.16c0-.09-.01-.19-.04-.27s-.07-.15-.13-.21-.13-.1-.2-.13c-.09-.03-.18-.05-.27-.04-.09 0-.18.02-.26.05s-.15.08-.21.14-.11.13-.14.21c-.04.09-.05.18-.05.27v1.15h-.24v-3.08h.24zm3.13-.38c.13 0 .25.02.37.08.11.05.21.12.29.21.09.09.15.2.2.32.05.13.07.27.07.41v.1h-1.67c0 .11.03.21.08.31.04.09.1.17.17.23s.15.11.24.14.19.05.29.05c.13 0 .26-.02.37-.08q.165-.075.3-.21l.13.17c-.06.06-.12.11-.19.16-.06.04-.13.08-.2.1-.07.03-.14.04-.21.05s-.14.02-.21.02c-.14 0-.27-.02-.4-.08-.12-.05-.23-.12-.32-.21q-.135-.135-.21-.33c-.05-.13-.08-.28-.07-.42 0-.14.02-.28.07-.42.04-.12.11-.24.2-.34.09-.09.2-.17.31-.22.12-.05.26-.08.39-.08zm0 .22c-.1 0-.19.02-.28.05-.08.03-.16.08-.22.15-.06.06-.12.14-.16.22-.04.09-.07.18-.08.28h1.42c0-.1-.03-.2-.07-.29-.04-.08-.09-.16-.15-.22s-.14-.11-.22-.15c-.08-.03-.17-.05-.26-.05zm2.41-.22c.14 0 .28.03.41.08.12.05.23.13.32.23l-.16.17c-.07-.08-.16-.14-.26-.18s-.21-.07-.32-.06c-.1 0-.21.02-.3.06s-.17.1-.24.17-.13.16-.17.26c-.08.21-.08.44 0 .65.04.09.09.18.16.25s.15.13.25.17q.15.06.3.06c.11 0 .22-.02.33-.07.1-.04.19-.11.26-.18l.15.17c-.09.1-.2.18-.32.23-.13.05-.27.08-.41.08s-.28-.03-.41-.08c-.12-.05-.23-.12-.32-.22-.09-.09-.16-.21-.21-.33-.1-.27-.1-.56 0-.82.05-.12.12-.24.21-.33s.2-.17.32-.22c.13-.06.27-.1.42-.1zm1.54.89h.32l.85-.86h.3l-.95.95.96 1.06h-.31l-.85-.94h-.32v.94h-.25v-3.08h.24v1.92zm-13.63-3.37V20.4c0-.09 0-.17-.04-.25-.03-.08-.08-.15-.14-.22s-.13-.11-.21-.14-.17-.04-.25-.04c-.11 0-.22.02-.32.07s-.18.13-.24.22c-.06-.09-.13-.17-.23-.22-.09-.05-.2-.08-.31-.07-.09 0-.19.02-.27.06s-.15.11-.2.19v-.2h-.35v1.64h.36v-.91c0-.06 0-.11.01-.17.02-.05.05-.1.08-.14s.08-.07.14-.1c.05-.02.11-.03.16-.03.23 0 .35.15.35.43v.91h.36v-.91c0-.06 0-.11.01-.17.02-.05.05-.1.08-.14.04-.04.08-.07.14-.1.05-.02.11-.03.16-.03.24 0 .36.15.36.43v.91h.36zm5.25-1.64h-.58v-.5h-.36v.5h-.33v.32h.33v.75c0 .38.15.61.56.61.16 0 .31-.04.44-.13l-.1-.3c-.09.06-.2.1-.31.11-.17 0-.23-.11-.23-.27v-.75h.57v-.32zm3-.04c-.09 0-.17.02-.25.06q-.12.06-.18.18v-.2h-.35v1.64h.35v-.92c0-.27.11-.42.34-.42.08 0 .15.01.22.04l.11-.34c-.08-.03-.16-.04-.25-.04zm-4.54.18c-.2-.12-.43-.18-.66-.17-.41 0-.68.2-.68.52 0 .27.2.43.56.48l.17.02c.19.03.28.08.28.17 0 .13-.13.2-.37.2-.19 0-.38-.05-.54-.17l-.17.28c.2.14.45.22.7.21.47 0 .74-.22.74-.53s-.21-.44-.56-.49l-.17-.02c-.15-.02-.27-.05-.27-.16s.11-.19.31-.19c.18 0 .35.05.51.14l.16-.29zm9.42-.17c-.09 0-.17.02-.25.06q-.12.06-.18.18v-.2h-.35v1.64h.35v-.92c0-.27.12-.42.34-.42.08 0 .15.01.22.04l.11-.34c-.08-.03-.17-.04-.25-.04zm-4.53.86c0 .11.02.23.06.34s.11.2.19.28.18.14.28.18c.11.04.22.06.33.05.21.01.42-.06.58-.19l-.17-.29c-.12.09-.27.15-.42.15-.13-.01-.25-.07-.34-.17s-.14-.22-.14-.36.05-.26.14-.36.21-.16.34-.17c.15 0 .3.05.42.15l.17-.29c-.16-.14-.37-.21-.58-.19-.11 0-.23.01-.33.05-.11.04-.2.1-.28.18s-.14.18-.19.28c-.04.11-.06.22-.06.34zm3.3 0v-.82h-.35v.2c-.06-.08-.14-.14-.23-.18s-.19-.06-.28-.06c-.22 0-.44.09-.6.25s-.25.38-.25.6.09.44.25.6.37.25.6.25c.1 0 .19-.02.28-.06s.17-.1.23-.18v.2h.35v-.81zm-1.31 0c0-.1.04-.19.1-.27s.13-.14.22-.17.19-.04.28-.02.18.07.24.14c.07.07.11.16.13.25s0 .19-.03.28c-.04.09-.1.16-.18.22-.08.05-.17.08-.27.08-.07 0-.13-.01-.2-.04-.06-.03-.12-.07-.16-.11-.05-.05-.08-.11-.1-.17s-.03-.13-.03-.2zm-4.25-.86c-.22 0-.44.1-.59.26-.16.16-.24.38-.24.61s.1.44.26.6.38.25.6.24c.24 0 .48-.07.66-.23l-.17-.26c-.13.11-.3.17-.47.17-.12.01-.23-.03-.32-.1s-.15-.18-.16-.3h1.2v-.14c0-.51-.31-.86-.77-.86zm0 .32c.05 0 .1 0 .15.03.05.02.09.05.13.09s.07.08.09.13q.03.075.03.15h-.85c0-.11.05-.21.13-.29.08-.07.19-.11.29-.11zm8.82.54v-1.47h-.35v.86c-.06-.08-.14-.14-.23-.18s-.18-.06-.28-.06c-.22 0-.44.09-.6.25s-.25.38-.25.6.09.44.25.6.37.25.6.25c.1 0 .19-.02.28-.06s.17-.1.23-.18v.2h.35zm-1.31 0c0-.1.04-.19.1-.27s.13-.14.22-.17.19-.04.28-.02.18.07.24.14c.07.07.11.16.13.25s0 .19-.03.28c-.04.09-.1.16-.18.22-.08.05-.17.08-.27.08-.07 0-.13-.01-.2-.04-.06-.03-.12-.07-.16-.11-.05-.05-.08-.11-.1-.17s-.03-.13-.03-.2zm-11.88 0v-.82h-.35v.2c-.06-.08-.14-.14-.23-.18s-.18-.06-.28-.06c-.22 0-.44.09-.6.25s-.25.38-.25.6.09.44.25.6.37.25.6.25c.1 0 .19-.02.28-.06s.17-.1.23-.18v.2h.35v-.81zm-1.31 0c0-.1.04-.19.1-.27s.14-.14.22-.17c.09-.03.19-.04.28-.02s.18.07.24.14c.07.07.11.16.13.25s0 .19-.03.28c-.04.09-.1.16-.18.22-.08.05-.17.08-.27.08-.07 0-.13-.01-.2-.04-.06-.03-.12-.07-.16-.11-.05-.05-.08-.11-.1-.17s-.03-.13-.03-.2zm15.08.58s.04 0 .06.01c.02 0 .04.02.05.03s.03.03.04.05c0 .02.01.04.01.06s0 .04-.01.06c0 .02-.02.04-.04.05s-.03.03-.05.03-.04.01-.06.01c-.03 0-.06 0-.09-.03-.03-.02-.05-.04-.06-.07 0-.02-.01-.04-.01-.06s0-.04.01-.06c0-.02.02-.04.04-.05s.03-.03.05-.03.04-.01.06-.01zm0 .29s.03 0 .05-.01c.01 0 .03-.02.04-.03q.03-.03.03-.09c0-.04-.01-.06-.03-.09-.01-.01-.02-.02-.04-.03-.02 0-.03-.01-.05-.01s-.03 0-.05.01c-.02 0-.03.02-.04.03q-.03.03-.03.09c0 .04.01.06.03.09.01.01.03.02.04.03.02 0 .03.01.05.01m.01-.21s.03 0 .04.01l.01.02v.05l-.04.02.05.06h-.04l-.05-.06h-.02v.06h-.03v-.15h.07zm-.04.03v.04h.06v-.04h-.06M26.5195 7.32001h-5.33V17h5.33z"/><path d="M21.5298 12.16c0-.93.21-1.85.61-2.69001s.99-1.57 1.72-2.15c-.9-.71-1.98-1.16-3.11-1.28-1.14-.12-2.28.08-3.31.58s-1.89 1.29-2.5 2.27-.93 2.11001-.93 3.27001.32 2.29.93 3.27 1.47 1.77 2.5 2.27 2.18.71 3.31.58c1.14-.12 2.21-.57 3.11-1.28-.73-.58-1.31-1.31-1.71-2.15s-.61-1.76-.61-2.69z"/><path d="M33.7094 12.16c0 1.16-.32 2.29-.93 3.27s-1.47 1.77-2.5 2.27-2.18.71-3.31.58-2.22-.57-3.11-1.28c.73-.58 1.31-1.31 1.71-2.15s.61-1.76.61-2.69-.21-1.85-.61-2.69001-.99-1.57-1.71-2.15c.9-.71 1.98-1.16 3.11-1.28s2.28.08 3.31.58 1.89 1.29 2.5 2.27.93 2.11001.93 3.27001"/></g><defs><clipPath id="clip0_342_5824"><path fill="currentColor" d="M0 0h48v31H0z"/></clipPath></defs></symbol><symbol id="mc2" fill="none" viewBox="0 0 48 31"><g fill="currentColor" clip-path="url(#clip0_342_5830)"><path d="M45 0H3C1.34315 0 0 1.34315 0 3v25c0 1.6569 1.34315 3 3 3h42c1.6569 0 3-1.3431 3-3V3c0-1.65685-1.3431-3-3-3"/><path fill-rule="evenodd" d="M38.0597 13.33c0 4.6-3.72 8.33-8.32 8.33s-8.31-3.73-8.31-8.33 3.72-8.33 8.31-8.33 8.32 3.73 8.32 8.33" clip-rule="evenodd"/><path fill-rule="evenodd" d="M27.7999 13.33c0 4.6-3.72 8.33-8.32 8.33s-8.31-3.73-8.31-8.33 3.72-8.33 8.31-8.33 8.32 3.73 8.32 8.33" clip-rule="evenodd"/><path fill-rule="evenodd" d="M24.6099 6.77002c-1.94 1.53-3.19 3.88998-3.19 6.55998s1.25 5.03 3.19 6.56c1.94-1.53 3.19-3.9 3.19-6.56s-1.25-5.02998-3.19-6.55998" clip-rule="evenodd"/><path d="M16.7506 24.14c.24 0 .42.07.56.21s.21.34.21.61v1.07h-.44v-1.02c0-.16-.04-.29-.11-.37s-.18-.13-.31-.13c-.15 0-.27.05-.35.15-.09.1-.13.23-.13.41v.95h-.44V25c0-.16-.04-.29-.11-.37s-.18-.13-.31-.13c-.15 0-.27.05-.36.14-.09.1-.13.24-.13.42v.95h-.44v-1.87h.42v.24c.07-.08.16-.15.26-.19.11-.04.22-.07.35-.07.14 0 .26.03.37.08s.2.13.26.23c.08-.1.18-.17.3-.23s.26-.08.4-.08zm2.08 0c.28 0 .49.07.63.2.15.13.22.33.22.6v1.1h-.41v-.23c-.05.08-.13.15-.23.19q-.15.06-.36.06c-.14 0-.26-.02-.37-.07s-.19-.12-.25-.2c-.06-.09-.08-.18-.08-.29 0-.17.06-.3.19-.4s.32-.15.59-.15h.48v-.03q0-.195-.12-.3c-.08-.07-.19-.11-.35-.11-.11 0-.21.02-.31.05s-.19.08-.26.14l-.17-.32c.1-.07.22-.13.35-.17.14-.04.28-.06.44-.06zm-.06 1.6c.11 0 .21-.02.29-.07.09-.05.15-.12.18-.22v-.22h-.45c-.25 0-.38.08-.38.25 0 .08.03.14.09.19s.15.07.26.07zm2.09.32q-.225 0-.45-.06c-.15-.04-.26-.09-.35-.15l.17-.33c.08.06.18.1.3.14.12.03.24.05.35.05q.39 0 .39-.21c0-.07-.03-.11-.1-.14s-.17-.05-.32-.07-.28-.05-.38-.08-.18-.08-.25-.16-.11-.18-.11-.32c0-.18.07-.32.22-.42.15-.11.35-.16.6-.16.13 0 .26.02.39.05s.23.07.32.12l-.17.33c-.16-.09-.34-.14-.54-.14-.13 0-.23.02-.29.06-.07.04-.1.09-.1.15 0 .07.04.12.11.15s.18.06.33.08.27.05.37.08.18.08.25.15.11.18.11.31c0 .18-.08.32-.23.42-.15.11-.36.16-.62.16zm2.39-.13c-.05.04-.11.07-.19.09-.07.02-.15.03-.23.03-.21 0-.36-.05-.48-.16-.11-.11-.17-.26-.17-.47v-.9h-.31v-.35h.31v-.43h.44v.43h.5v.35h-.5v.89c0 .09.02.16.07.21.04.05.11.07.19.07.1 0 .18-.03.25-.08l.12.31zm2.1-.82v.13h-1.47c.03.14.09.25.2.33s.25.12.41.12c.21 0 .38-.07.51-.2l.24.27c-.08.1-.19.18-.32.23s-.27.08-.44.08q-.315 0-.54-.12c-.16-.08-.28-.2-.37-.34-.08-.15-.13-.31-.13-.5s.04-.35.12-.49c.08-.15.2-.26.35-.34s.31-.12.5-.12.35.04.49.12c.15.08.26.19.34.34s.12.31.12.51zm-.95-.62c-.14 0-.26.04-.36.13-.1.08-.15.19-.18.33h1.06c-.02-.14-.08-.25-.17-.33-.1-.08-.22-.13-.36-.13zm1.82-.06c.13-.2.35-.29.67-.29v.42s-.07-.01-.1-.01c-.17 0-.3.05-.4.15s-.14.24-.14.43v.91h-.44v-1.87h.42v.27zm1.92 1.63c-.19 0-.37-.04-.52-.12s-.27-.2-.36-.34c-.09-.15-.13-.31-.13-.5s.04-.35.13-.49c.09-.15.21-.26.36-.34s.33-.12.53-.12c.18 0 .35.04.48.11.14.07.25.18.32.32l-.34.2c-.05-.09-.12-.15-.2-.19s-.17-.07-.26-.07c-.16 0-.3.05-.41.16s-.16.25-.16.42.05.32.16.43.24.16.41.16c.1 0 .18-.02.26-.06s.15-.11.2-.2l.34.2c-.07.14-.18.25-.32.33-.14.07-.3.11-.48.11zm1.93-1.92c.28 0 .49.07.63.2.15.13.22.33.22.6v1.1h-.41v-.23c-.05.08-.13.15-.23.19q-.15.06-.36.06c-.14 0-.26-.02-.37-.07s-.19-.12-.25-.2c-.06-.09-.08-.18-.08-.29 0-.17.06-.3.19-.4s.32-.15.59-.15h.48v-.03q0-.195-.12-.3c-.08-.07-.19-.11-.35-.11-.11 0-.21.02-.31.05s-.19.08-.26.14l-.17-.32c.1-.07.22-.13.35-.17.14-.04.28-.06.44-.06zm-.06 1.6c.11 0 .21-.02.29-.07.09-.05.15-.12.18-.22v-.22h-.45c-.25 0-.38.08-.38.25 0 .08.03.14.09.19s.15.07.26.07zm1.93-1.31c.13-.2.35-.29.67-.29v.42s-.07-.01-.1-.01c-.17 0-.3.05-.4.15s-.14.24-.14.43v.91h-.44v-1.87h.42v.27zm2.89-1v2.6h-.42v-.24c-.07.09-.16.16-.27.2s-.22.07-.35.07c-.18 0-.34-.04-.49-.12-.14-.08-.26-.19-.34-.34q-.12-.225-.12-.51c0-.19.04-.36.12-.5.08-.15.19-.26.34-.34s.31-.12.49-.12c.12 0 .24.02.34.06s.19.11.26.19v-.96h.44zm-.99 2.25c.11 0 .2-.02.28-.07s.15-.12.2-.21.07-.19.07-.31-.02-.22-.07-.31-.12-.16-.2-.2c-.08-.05-.18-.07-.28-.07s-.2.02-.28.07-.15.11-.2.2-.07.19-.07.31.02.22.07.31.12.16.2.21.18.07.28.07"/></g><defs><clipPath id="clip0_342_5830"><path fill="currentColor" d="M0 0h48v31H0z"/></clipPath></defs></symbol><symbol id="samsung-pay" fill="none" viewBox="0 0 48 31"><g fill="currentColor" clip-path="url(#clip0_342_5849)"><path d="M45 0H3C1.34315 0 0 1.34315 0 3v25c0 1.6569 1.34315 3 3 3h42c1.6569 0 3-1.3431 3-3V3c0-1.65685-1.3431-3-3-3"/><path d="M31.96 5H15.35C14.05 5 13 6.05 13 7.35v16.61c0 1.3 1.05 2.35 2.35 2.35h16.61c1.3 0 2.35-1.05 2.35-2.35V7.35c0-1.3-1.05-2.35-2.35-2.35"/><path d="M20.6801 16.15q-.195 0-.39.06c-.15.05-.28.14-.37.27v-.27h-.59v3.67h.58v-1.27c.1.12.23.21.38.26.13.04.27.07.41.07.18 0 .35-.03.51-.1.17-.07.31-.17.44-.31.12-.13.22-.28.28-.45.1-.26.13-.54.08-.81s-.18-.52-.38-.72c-.12-.13-.27-.23-.44-.3s-.34-.1-.52-.1zm.54 2.02c-.07.07-.16.13-.25.17s-.2.06-.3.06c-.11 0-.21-.01-.31-.05s-.19-.1-.26-.17c-.15-.18-.23-.42-.21-.66-.01-.23.07-.46.22-.63.15-.15.35-.23.56-.23s.41.08.56.23c.16.18.24.41.23.65 0 .11-.02.23-.06.33-.04.11-.1.2-.18.29zM26.9009 18.1l-.82-1.88h-.62l1.15 2.51-.5 1.16h.61l1.56-3.67h-.63zM24.5093 16.48c-.09-.13-.22-.22-.37-.27-.12-.04-.26-.06-.39-.06-.18 0-.36.03-.52.1-.17.07-.32.17-.44.3-.19.2-.32.45-.38.72s-.03.55.08.81c.06.17.16.32.28.45s.27.23.44.31c.16.07.34.11.51.1.14 0 .28-.02.41-.07.15-.04.28-.14.38-.26v.28h.58v-2.67h-.59v.27zm-.17 1.7c-.07.08-.16.13-.26.17s-.2.06-.31.05q-.15 0-.3-.06c-.09-.04-.18-.1-.25-.17-.16-.17-.24-.39-.24-.62 0-.24.07-.47.23-.65.07-.07.16-.13.25-.17q.15-.06.3-.06c.1 0 .21.01.3.05.1.04.18.1.26.17.15.17.23.4.22.63.01.24-.06.47-.21.66zM28.8798 14.49h-.01l-.52-1.78h-.84v2.24h.56l-.03-1.84h.01l.56 1.84h.81v-2.24h-.56l.03 1.78zM19.1605 12.72h-1.01l-.42 2.26h.61l.31-2.05h.01l.3 2.05h.61l-.42-2.26zM20.6093 12.95h.01l.38 2.03h.58l.38-2.03h.01l.02 2.03h.57l-.05-2.26h-.93l-.28 1.73h-.01l-.28-1.73h-.93l-.05 2.26h.57v-2.03zM26.8598 14.49v-1.77h-.58v1.76c-.01.05-.04.09-.08.12s-.09.04-.14.04-.1-.02-.14-.04c-.04-.03-.07-.07-.08-.12v-1.76h-.58v1.77c.04.42.37.56.79.56s.75-.14.79-.56zM16.3192 13.3v-.12c0-.05.03-.09.07-.12s.09-.04.13-.04h.08c.03 0 .05.02.07.04s.04.04.05.07.01.05.01.08v.14h.57v-.16c0-.49-.45-.57-.77-.57-.4 0-.73.13-.79.5q-.03.15 0 .3c.1.46.91.6 1.02.89.02.05.02.11 0 .17-.01.05-.04.09-.08.12s-.09.04-.14.03h-.09c-.03 0-.05-.02-.07-.04s-.04-.04-.05-.07-.02-.06-.02-.08v-.22h-.61v.17c0 .51.4.66.82.66s.75-.14.81-.52c.02-.12.02-.25 0-.37-.1-.48-.96-.61-1.02-.88M23.9294 15.05c.41 0 .74-.14.8-.51.02-.12.02-.25 0-.37-.09-.47-.95-.61-1.01-.87v-.12c0-.05.03-.09.07-.12s.09-.04.13-.03h.08c.03 0 .05.02.07.04s.04.04.05.07.01.05.01.08v.14h.56v-.16c0-.49-.44-.56-.76-.56-.4 0-.73.13-.79.5q-.03.15 0 .3c.1.46.9.59 1.01.88.02.05.02.11 0 .16-.02.07-.07.15-.22.15h-.08c-.02 0-.05-.02-.07-.04s-.04-.04-.05-.07-.02-.05-.02-.08v-.22h-.6v.17c0 .5.39.65.82.65M30.81 13.71v.33h.23v.42000000000000004c-.01.05-.04.1-.08.13s-.1.04-.15.04-.11 0-.15-.04c-.04-.03-.07-.08-.09-.13v-1.2300000000000002c.01-.05.04-.09.08-.12s.09-.04.14-.04.1 0 .15.04c.04.03.07.07.08.13v.22h.57v-.22c-.04-.43-.39-.56-.8-.56s-.75.13-.79.56v1.2499999999999998c.04.41.39.56.8.56s.76-.15.8-.56v-.76h-.8z"/></g><defs><clipPath id="clip0_342_5849"><path fill="currentColor" d="M0 0h48v31H0z"/></clipPath></defs></symbol><symbol id="tiktok-logo" fill="none" viewBox="0 0 16 19"><path fill="currentColor" d="M14.0075 4.06342a4.17 4.17 0 0 1-.3634-.2177c-.3418-.23255-.6552-.50658-.9334-.81616-.6961-.81973-.956-1.65134-1.0518-2.23358h.0038C11.5827.3127 11.6158 0 11.6208 0H8.45036v12.6177c0 .1695 0 .3369-.00692.5023 0 .0206-.00192.0396-.00308.0618 0 .0091 0 .0186-.00192.0281v.0071c-.03342.4527-.17442.8901-.41061 1.2735-.23618.3835-.56031.7014-.94387.9256-.39975.2341-.85188.3569-1.31179.3563-1.47717 0-2.67436-1.2397-2.67436-2.7707S4.295 10.231 5.77217 10.231c.27962-.0003.55751.045.82338.1342l.00384-3.32249c-.80709-.1073-1.62702-.04128-2.40808.19389s-1.50629.63438-2.12993 1.17246C1.51492 8.89773 1.05551 9.4808.70382 10.132c-.13383.2375-.63878 1.1918-.69993 2.7406-.03846.8792.21805 1.7899.34035 2.1663v.008c.07692.2216.37496.978.86068 1.6157.39167.5115.85441.9608 1.37333 1.3335v-.008l.00769.008c1.53485 1.0734 3.23661 1.003 3.23661 1.003.29458-.0123 1.28141 0 2.40207-.5467 1.24295-.606 1.95058-1.5088 1.95058-1.5088.4521-.5395.8115-1.1543 1.063-1.818.2869-.7762.3826-1.7071.3826-2.0792V6.35241c.0385.02375.5507.37246.5507.37246s.738.48685 1.8895.8039c.826.22561 1.939.27311 1.939.27311V4.56254c-.39.04354-1.1818-.08312-1.9925-.49912"/></symbol><symbol id="visa-seq" fill="none" viewBox="0 0 48 31"><g fill="currentColor" clip-path="url(#clip0_342_5808)"><path d="M45 0H3C1.34315 0 0 1.34315 0 3v25c0 1.6569 1.34315 3 3 3h42c1.6569 0 3-1.3431 3-3V3c0-1.65685-1.3431-3-3-3"/><path fill-rule="evenodd" d="m32.3709 6.89998.5 2.43h-1.38zm-1.92.93-1.4 3.37002-.17.45h1.77l.35-.97h2.16l.2.97h1.57l-1.36-6.55002h-1.49c-.47.03-.6.33-.76.69-.11.27-.78 1.95-.86 2.04zM21.9898 5.11002h-1.77l-1.74 4.41c-.12-.24-.6-3.16-.7-3.7-.15-.78-.69-.71-1.48-.71h-2.18l-.03.19c.1.06 1.36.31 1.79.65.29.24.48 1.34.61 1.83.12.46.92 3.73998 1.01 3.87998h1.78l2.72-6.54998zM28.9702 9.77002c-.08-.31.06-.5-.14-.92-.31-.69-1.14-1.02-1.78-1.39-.61-.36-.61-.91.16-1.06.69-.14 1.22.09 1.77.27l.3-1.41-.99-.23c-1.14-.1-2.19.09-2.82.72-.66.64-.93 1.76-.16 2.51.33.32.6.48 1.08.72.33.16.96.46.77.95-.16.41998-.79.49998-1.33.45998-.66-.05-.87-.23-1.37-.39998l-.3 1.43998c.98.31 1.98.5 3.07.18.67-.19 1.23-.57 1.52-1.15.09-.18.18-.60998.21-.67998zM24.4003 5.10999h-1.69l-1.39 6.55001h1.69z" clip-rule="evenodd"/><path d="M0 16h48v12c0 1.66-1.34 3-3 3H3c-1.66 0-3-1.34-3-3z"/><path fill-rule="evenodd" d="M27.7191 22.55c.48-.06 1.01-.04 1 .53 0 .55-.51.55-1 .55zm-.6-.4v3.35h.6v-1.41c.46 0 .7-.01.84.41.1.32.16.68.27 1h.62c-.06-.26-.17-.63-.25-.93-.09-.39-.19-.53-.46-.69.28-.15.47-.26.56-.6.11-.39-.03-.73-.22-.92-.48-.48-1.89-.28-1.95-.2zM19.2406 22.59h1.31v-.52h-1.91v3.42h1.99v-.51h-1.39v-1h1.24v-.51h-1.24zM30.4496 22.59h1.31v-.52h-1.91v3.42h1.99v-.51h-1.39v-1h1.24v-.51h-1.24zM16.13 24.81l-.13.53c.54.19 1.09.35 1.65.03.41-.23.7-.88.32-1.41-.32-.44-1-.47-1.24-.79-.2-.27.03-.55.27-.61.38-.1.59.07.86.14l.14-.52c-.57-.15-1.12-.3-1.61.1-.45.37-.48 1.02-.02 1.42.35.3 1.17.37 1.14.9-.04.68-1.02.38-1.39.22zM23.4505 25.39l-.09-.5c-.98.29-1.8 0-1.8-1.11 0-.53.2-.87.51-1.08.45-.3.82-.14 1.29-.04l.12-.5c-1.32-.52-2.53.26-2.56 1.59-.03 1.52 1.15 2.06 2.53 1.64M24.35 25.29c.04-.14.1.05.05-.09-.01-.04-.07.03 0-.08.19-.29.12-.3.05-.41-.02.07.03 0 .05.04v.02c.07.3.15.04.11.2.12-.05.01 0 .06-.06.03-.04.01.07.03-.06-.03-.13-.15-.24-.19-.54-.03-.24-.03-2.14 0-2.24h-.62c-.01 1.01-.18 2.69.44 3.22z" clip-rule="evenodd"/><path fill-rule="evenodd" d="M25.7091 24.79c.1-.01.12.11.19-.11.04-.11.03-.13.01-.32l.11-.07-.02-2.07.35.04c.1.11.03 1.2.03 1.46 0 .42-.07.65-.03.84v.03c.03.07 0 .09 0 .09-.03.08-.02.08-.04.16l-.04-.22h-.04l-.03.24h.1c-.12.1-.09-.07-.11.16-.22-.07.02.05-.14.1-.11.03-.07.03-.15-.02-.1-.07-.07-.02-.07-.19l-.12-.02v-.12c-.09.14-.21.24-.46.26-.32.02-.35-.1-.52-.19-.02.13 0 .02-.03.06-.05.06.06 0-.06.06.03-.16-.05.09-.11-.19v-.03s-.07.03-.06-.04c.08.11.14.12-.05.41-.07.11-.01.04 0 .08.05.14 0-.04-.05.09.68.53 1.67.24 1.98-.43.26-.56.14-2.05.16-2.79h-.61c-.01.86.13 2.01-.16 2.72z" clip-rule="evenodd"/><path fill-rule="evenodd" d="M25.7092 24.79v.11l.11.02c0 .17-.03.12.07.19.07.05.04.05.15.02.16-.05-.08-.17.14-.1.02-.23 0-.06.11-.16h-.1l.03-.24h.04l.04.22c.02-.09 0-.09.04-.16 0 0 .04-.02.02-.09v-.03c-.05-.19.02-.42.02-.84 0-.26.06-1.34-.04-1.46l-.35-.04.02 2.07-.11.07c.02.19.02.21-.01.32-.07.22-.09.1-.19.11zM27.7207 22.55v1.08c.49 0 .99 0 1-.55 0-.57-.52-.59-1-.53" clip-rule="evenodd"/></g><defs><clipPath id="clip0_342_5808"><path fill="currentColor" d="M0 0h48v31H0z"/></clipPath></defs></symbol><symbol id="visa" fill="none" viewBox="0 0 48 31"><g clip-path="url(#clip0_342_5804)"><path fill="currentColor" d="M45 0H3C1.34315 0 0 1.34315 0 3v25c0 1.6569 1.34315 3 3 3h42c1.6569 0 3-1.3431 3-3V3c0-1.65685-1.3431-3-3-3"/><g clip-path="url(#clip1_342_5804)"><path fill="currentColor" fill-rule="evenodd" d="M23.6914 14.15c-.0201 1.81 1.6032 2.82 2.8256 3.42 1.2626.62 1.6834 1.01 1.6734 1.56 0 .84-1.002 1.22-1.9339 1.23-1.6232.03-2.5651-.44-3.3166-.79l-.5812 2.75c.7515.35 2.1443.65 3.5972.67 3.3968 0 5.6112-1.69 5.6313-4.3.01-3.32-4.5591-3.5-4.5291-4.98.01-.45.4409-.93 1.3728-1.05.4609-.06 1.7434-.11 3.1863.56l.5712-2.66c-.7816-.29-1.7836-.56-3.0261-.56-3.1964 0-5.4409 1.71-5.4609 4.15zm13.9379-3.92c-.6213 0-1.1423.36-1.3728.92L31.4068 22.8h3.3968l.6713-1.88h4.1483l.3908 1.88H43l-2.6052-12.57h-2.7655m.4709 3.4.982 4.72h-2.6854zm-18.5271-3.4L16.8978 22.8h3.2365l2.6753-12.57h-3.2365m-4.7795 0-3.3667 8.56-1.3628-7.28c-.16029-.81-.79155-1.28-1.49296-1.28H3.08016L3 10.59c1.13226.25 2.41483.64 3.18637 1.07.47094.26.61123.49.77155 1.1l2.57515 10.03h3.41683l5.2405-12.56z" clip-rule="evenodd"/></g></g><defs><clipPath id="clip0_342_5804"><path fill="currentColor" d="M0 0h48v31H0z"/></clipPath><clipPath id="clip1_342_5804"><path fill="currentColor" d="M3 10h40v13H3z"/></clipPath><linearGradient id="paint0_linear_342_5804" x1="17.539" x2="28.812" y1="24.25" y2="8.339" gradientUnits="userSpaceOnUse"><stop stop-color="currentColor"/><stop offset="1" stop-color="currentColor"/></linearGradient></defs></symbol><symbol id="visa2" fill="none" viewBox="0 0 62 45"><g clip-path="url(#clip0_311_3802)" filter="url(#filter0_d_311_3802)"><path fill="currentColor" d="M52 5H10C8.34315 5 7 6.34315 7 8v25c0 1.6569 1.34315 3 3 3h42c1.6569 0 3-1.3431 3-3V8c0-1.65685-1.3431-3-3-3"/><g clip-path="url(#clip1_311_3802)"><path fill="currentColor" fill-rule="evenodd" d="M30.6914 19.1532c-.0201 1.8114 1.6032 2.8222 2.8256 3.4226 1.2626.6205 1.6834 1.0108 1.6734 1.5612 0 .8407-1.002 1.221-1.9339 1.231-1.6232.03-2.5651-.4404-3.3166-.7906l-.5812 2.7521c.7515.3503 2.1443.6505 3.5972.6705 3.3968 0 5.6112-1.6913 5.6313-4.3033.01-3.3226-4.5591-3.5027-4.5291-4.9838.01-.4504.4409-.9308 1.3728-1.0509.4609-.06 1.7434-.11 3.1863.5605l.5712-2.6621C38.4068 15.2702 37.4048 15 36.1623 15c-3.1964 0-5.4409 1.7113-5.4609 4.1532zm13.9379-3.923c-.6213 0-1.1423.3603-1.3728.9207l-4.8497 11.659h3.3968l.6713-1.8815h4.1483l.3908 1.8815H50l-2.6052-12.5797h-2.7655m.4709 3.4026.982 4.7236h-2.6854zm-18.5271-3.4026-2.6753 12.5797h3.2365l2.6753-12.5797h-3.2365m-4.7795 0-3.3667 8.5666-1.3628-7.2856c-.1603-.8107-.7916-1.281-1.493-1.281h-5.4909L10 15.5905c1.1323.2501 2.4148.6404 3.1864 1.0708.4709.2602.6112.4904.7715 1.1008l2.5752 10.0377h3.4168l5.2405-12.5696z" clip-rule="evenodd"/></g></g><defs><clipPath id="clip0_311_3802"><path fill="currentColor" d="M7 5h48v31H7z"/></clipPath><clipPath id="clip1_311_3802"><path fill="currentColor" d="M10 15h40v13H10z"/></clipPath><linearGradient id="paint0_linear_311_3802" x1="24.539" x2="35.823" y1="29.261" y2="13.346" gradientUnits="userSpaceOnUse"><stop stop-color="currentColor"/><stop offset="1" stop-color="currentColor"/></linearGradient><filter id="filter0_d_311_3802" width="62" height="45" x="0" y="0" color-interpolation-filters="sRGB" filterUnits="userSpaceOnUse"><feFlood flood-opacity="0" result="BackgroundImageFix"/><feColorMatrix in="SourceAlpha" result="hardAlpha" values="0 0 0 0 0 0 0 0 0 0 0 0 0 0 0 0 0 0 127 0"/><feOffset dy="2"/><feGaussianBlur stdDeviation="3.5"/><feComposite in2="hardAlpha" operator="out"/><feColorMatrix values="0 0 0 0 0 0 0 0 0 0 0 0 0 0 0 0 0 0 0.1 0"/><feBlend in2="BackgroundImageFix" result="effect1_dropShadow_311_3802"/><feBlend in="SourceGraphic" in2="effect1_dropShadow_311_3802" result="shape"/></filter></defs></symbol><symbol id="vk-logo" fill="none" viewBox="0 0 20 11"><path fill="currentColor" fill-rule="evenodd" d="M19.5411.74485c.139-.42936 0-.74485-.6617-.74485h-2.188c-.5564 0-.8128.27254-.9519.57307 0 0-1.1127 2.5117-2.689 4.14321-.5099.47227-.7418.62254-1.0199.62254-.1391 0-.3404-.15027-.3404-.57959V.74485C11.6902.22962 11.5287 0 11.0651 0H7.62678c-.34767 0-.55675.23913-.55675.46576 0 .48842.78808.60106.86932 1.97499v2.98397c0 .65423-.12758.77284-.40575.77284-.74174 0-2.54604-2.52292-3.61616-5.4098C3.70773.22667 3.49738 0 2.93819 0h-2.188C.12503 0 0 .27254 0 .57307c0 .5367.74178 3.19867 3.45387 6.7193C5.26191 9.69668 7.80932 11 10.1274 11c1.3908 0 1.5628-.2895 1.5628-.7881V8.39474c0-.57895.1318-.69449.5722-.69449.3245 0 .8809.15026 2.179 1.3095C15.9249 10.3837 16.1695 11 17.004 11h2.188c.6251 0 .9377-.2895.7574-.8607-.1974-.56938-.9057-1.39544-1.8455-2.37466-.51-.55814-1.275-1.1592-1.5068-1.4598-.3245-.38637-.2318-.55815 0-.90159 0 0 2.6658-3.47772 2.944-4.6584" clip-rule="evenodd"/></symbol></defs></svg>