<svg xmlns="http://www.w3.org/2000/svg" width="0" height="0"><defs><symbol id="icon-cross" fill="none" viewBox="0 0 14 14"><mask id="mask0_311_3037" width="14" height="14" x="0" y="0" maskUnits="userSpaceOnUse" style="mask-type:alpha"><path fill="currentColor" d="M0 0h14v14H0z"/></mask><g mask="url(#mask0_311_3037)"><path fill="currentColor" fill-rule="evenodd" d="M.64712 11.9392c-.19527.1952-.19527.5118 0 .7071.19526.1952.51184.1952.7071 0l5.64645-5.64648 5.66723 5.66728c.1953.1952.5119.1952.7071 0 .1953-.1953.1953-.5119 0-.7071L7.70777 6.29271l4.96013-4.96015c.1953-.19526.1953-.51185 0-.7071-.1952-.19527-.5118-.19527-.7071 0L7.00067 5.5856 2.06133.64627c-.19526-.19527-.51185-.19527-.70711 0-.19526.19526-.19526.51184 0 .7071l4.93934 4.93934z" clip-rule="evenodd"/></g></symbol><symbol id="icon-minus" fill="none" viewBox="0 0 13 1"><path stroke="currentColor" stroke-linecap="round" d="M.5.5h12"/></symbol><symbol id="icon-plus" fill="none" viewBox="0 0 13 13"><path stroke="currentColor" stroke-linecap="round" d="M6.5 12.5V.5M.5 6.5h12"/></symbol></defs></svg>