<svg width="48" height="31" viewBox="0 0 48 31" fill="none" xmlns="http://www.w3.org/2000/svg">
<g clip-path="url(#clip0_342_5800)">
<path d="M45 0H3C1.34315 0 0 1.34315 0 3V28C0 29.6569 1.34315 31 3 31H45C46.6569 31 48 29.6569 48 28V3C48 1.34315 46.6569 0 45 0Z" fill="white"/>
<path d="M30.11 26H17V23.27H30.11V26Z" fill="#EF3124"/>
<path d="M21.6991 14.49L23.5391 9.01H23.6091L25.3491 14.49H21.7091H21.6991ZM25.9591 8C25.5891 6.88 25.1591 6 23.6791 6C22.1991 6 21.7391 6.88 21.3491 8L17.2891 19.56H19.9791L20.9191 16.81H26.0991L26.9691 19.56H29.8291L25.9591 8Z" fill="#EF3124"/>
</g>
<defs>
<clipPath id="clip0_342_5800">
<rect width="48" height="31" fill="white"/>
</clipPath>
</defs>
</svg>
