<svg width="48" height="31" viewBox="0 0 48 31" fill="none" xmlns="http://www.w3.org/2000/svg">
<g clip-path="url(#clip0_342_5846)">
<path d="M45 0H3C1.34315 0 0 1.34315 0 3V28C0 29.6569 1.34315 31 3 31H45C46.6569 31 48 29.6569 48 28V3C48 1.34315 46.6569 0 45 0Z" fill="white"/>
<path d="M13.3995 10.8C12.9895 11.27 12.3295 11.65 11.6795 11.59C11.5995 10.95 11.9195 10.27 12.2995 9.84999C12.7095 9.35999 13.4295 9.01999 14.0095 8.98999C14.0795 9.65999 13.8095 10.31 13.4095 10.79L13.3995 10.8ZM13.9895 11.72C13.0395 11.67 12.2295 12.25 11.7695 12.25C11.3095 12.25 10.6195 11.75 9.86945 11.76C8.88945 11.77 7.97945 12.31 7.47945 13.17C6.44945 14.89 7.20945 17.43 8.19945 18.83C8.68945 19.52 9.26945 20.28 10.0295 20.26C10.7495 20.23 11.0395 19.8 11.9195 19.8C12.7995 19.8 13.0495 20.26 13.8195 20.25C14.6095 20.24 15.1095 19.56 15.5995 18.86C16.1495 18.07 16.3795 17.31 16.3895 17.27C16.3795 17.26 14.8595 16.69 14.8395 14.99C14.8295 13.56 16.0395 12.89 16.0895 12.85C15.4095 11.86 14.3395 11.76 13.9695 11.73L13.9895 11.72ZM19.4795 9.78999V20.17H21.1295V16.62H23.4195C25.5095 16.62 26.9795 15.22 26.9795 13.2C26.9795 11.18 25.5394 9.78999 23.4694 9.78999H19.4695H19.4795ZM21.1295 11.15H23.0395C24.4795 11.15 25.2994 11.9 25.2994 13.21C25.2994 14.52 24.4795 15.27 23.0395 15.27H21.1395V11.15H21.1295ZM29.9995 20.25C31.0395 20.25 31.9994 19.74 32.4394 18.92H32.4695V20.17H33.9995V15C33.9995 13.5 32.7694 12.54 30.8794 12.54C29.1194 12.54 27.8195 13.52 27.7795 14.86H29.2695C29.3895 14.22 29.9995 13.8 30.8395 13.8C31.8495 13.8 32.4194 14.26 32.4194 15.11V15.68L30.3595 15.8C28.4395 15.91 27.3995 16.68 27.3995 18.01C27.3995 19.34 28.4695 20.25 30.0095 20.25H29.9995ZM30.4395 19.02C29.5595 19.02 28.9995 18.61 28.9995 17.97C28.9995 17.33 29.5394 16.94 30.5695 16.88L32.4095 16.77V17.36C32.4095 18.33 31.5595 19.03 30.4395 19.03V19.02ZM36.0494 23C37.6595 23 38.4195 22.4 39.0895 20.58L41.9995 12.64H40.3195L38.3694 18.77H38.3395L36.3895 12.64H34.6595L37.4594 20.2L37.3095 20.66C37.0595 21.44 36.6494 21.74 35.9194 21.74C35.7894 21.74 35.5395 21.73 35.4295 21.71V22.96C35.5295 22.99 35.9395 23 36.0595 23H36.0494Z" fill="black"/>
</g>
<defs>
<clipPath id="clip0_342_5846">
<rect width="48" height="31" fill="white"/>
</clipPath>
</defs>
</svg>
