<svg width="48" height="31" viewBox="0 0 48 31" fill="none" xmlns="http://www.w3.org/2000/svg">
<g clip-path="url(#clip0_342_5840)">
<path d="M45 0H3C1.34315 0 0 1.34315 0 3V28C0 29.6569 1.34315 31 3 31H45C46.6569 31 48 29.6569 48 28V3C48 1.34315 46.6569 0 45 0Z" fill="white"/>
<path fill-rule="evenodd" clip-rule="evenodd" d="M5.85945 10.95H12.2695C12.7795 10.95 13.1895 11.36 13.1895 11.87V18.28C13.1895 18.79 12.7795 19.2 12.2695 19.2H5.85945C5.34945 19.2 4.93945 18.79 4.93945 18.28V11.87C4.93945 11.36 5.34945 10.95 5.85945 10.95Z" fill="#024978"/>
<path fill-rule="evenodd" clip-rule="evenodd" d="M10.5207 17.08H9.54069C9.54069 17.08 9.49069 17.06 9.49069 17.03V16.79L8.75069 17.53C8.75069 17.53 8.70069 17.55 8.68069 17.53L7.98069 16.83C7.98069 16.83 7.96069 16.78 7.98069 16.76L8.15069 16.59H7.10069C7.10069 16.59 7.05069 16.57 7.05069 16.54V15.56C7.05069 15.56 7.07069 15.51 7.10069 15.51H7.34069L6.60069 14.77C6.60069 14.77 6.58069 14.72 6.60069 14.7L7.30069 14C7.30069 14 7.35069 13.98 7.37069 14L7.54069 14.17V13.12C7.54069 13.12 7.56069 13.07 7.59069 13.07H8.57069C8.57069 13.07 8.62069 13.09 8.62069 13.12V13.36L9.36069 12.62C9.36069 12.62 9.41069 12.6 9.43069 12.62L10.1307 13.32C10.1307 13.32 10.1507 13.37 10.1307 13.39L9.96069 13.56H11.0107C11.0107 13.56 11.0607 13.58 11.0607 13.61V14.59C11.0607 14.59 11.0407 14.64 11.0107 14.64H10.7707L11.5107 15.38C11.5107 15.38 11.5307 15.43 11.5107 15.45L10.8107 16.15C10.8107 16.15 10.7607 16.17 10.7407 16.15L10.5707 15.98V17.03C10.5707 17.03 10.5507 17.08 10.5207 17.08ZM10.3907 14.34L10.0107 14.65H9.54069C9.54069 14.65 9.49069 14.63 9.49069 14.6V13.62L9.43069 14.11L9.10069 14.44C9.10069 14.44 9.05069 14.46 9.03069 14.44L8.64069 14.05L8.33069 13.74L8.64069 14.12V14.59C8.64069 14.59 8.62069 14.64 8.59069 14.64H7.61069L8.10069 14.7L8.43069 15.03C8.43069 15.03 8.45069 15.08 8.43069 15.1L7.73069 15.8L8.11069 15.49H8.58069C8.58069 15.49 8.63069 15.51 8.63069 15.54V16.52L8.69069 16.03L9.02069 15.7C9.02069 15.7 9.07069 15.68 9.09069 15.7L9.79069 16.4L9.48069 16.02V15.55C9.48069 15.55 9.50069 15.5 9.53069 15.5H10.5107L10.0207 15.44L9.69069 15.11C9.69069 15.11 9.67069 15.06 9.69069 15.04L10.0807 14.65L10.3907 14.34Z" fill="#FEFEFE"/>
<path d="M17.5898 14.25C17.5998 14.63 17.2998 14.91 16.9098 14.91H15.8998V13.61H16.9198C17.2798 13.61 17.5798 13.86 17.5898 14.24V14.25ZM42.6298 11.87V15.73C42.6298 15.8 42.5698 15.84 42.4998 15.84H41.6898C41.6298 15.84 41.5598 15.79 41.5598 15.73V11.87H40.2898C40.2298 11.87 40.1798 11.81 40.1798 11.74V11.08C40.1798 11.01 40.2298 10.95 40.2898 10.95H43.9098C43.9798 10.95 44.0198 11.01 44.0198 11.08V11.74C44.0198 11.8 43.9698 11.87 43.9098 11.87H42.6198H42.6298ZM22.3898 15.68V15.04C22.3898 15.04 22.3498 14.92 22.2698 14.92H20.3798C20.2598 14.92 20.0398 14.84 20.0398 14.55V13.62H22.0498C22.1298 13.62 22.1698 13.55 22.1698 13.51V12.86C22.1698 12.79 22.1198 12.74 22.0398 12.74H20.0398V12.22C20.0398 12 20.2198 11.88 20.3798 11.88H22.2698C22.3598 11.88 22.3898 11.81 22.3898 11.76V11.08C22.3898 11.01 22.3398 10.96 22.2598 10.96H20.2998C19.5598 10.95 18.9798 11.57 18.9798 12.25V14.56C18.9798 15.27 19.5798 15.84 20.2698 15.84H22.2698C22.3398 15.84 22.3898 15.79 22.3898 15.72C22.3898 15.71 22.3898 15.69 22.3898 15.68ZM30.4098 13.24V13.21C30.5598 13.12 30.6898 13 30.7798 12.86C30.8798 12.71 30.9498 12.54 30.9998 12.35L31.3198 11.11C31.3298 11.05 31.2898 10.97 31.1998 10.97H30.4398C30.4398 10.97 30.3898 10.97 30.3598 10.99C30.3298 11 30.3098 11.03 30.2998 11.07L29.9898 12.24C29.9498 12.38 29.8998 12.5 29.8398 12.58C29.7798 12.66 29.7098 12.73 29.6298 12.77C29.5598 12.81 29.4798 12.84 29.3998 12.85C29.3198 12.86 29.2498 12.87 29.1798 12.87H28.6298V11.09C28.6298 11.02 28.5698 10.97 28.5098 10.97H27.6898C27.6198 10.97 27.5598 11.02 27.5598 11.08V15.74C27.5598 15.8 27.6198 15.85 27.6898 15.85H28.4998C28.5698 15.85 28.6298 15.8 28.6298 15.74V13.67H29.1898C29.3498 13.67 29.4898 13.68 29.5998 13.72C29.7098 13.75 29.7998 13.81 29.8798 13.89C29.9498 13.97 30.0098 14.1 30.0598 14.26L30.4898 15.77C30.5098 15.83 30.5598 15.85 30.5998 15.85H31.4098C31.5098 15.85 31.5398 15.76 31.5298 15.71L31.0998 14.09C31.0698 13.99 31.0398 13.89 31.0098 13.81C30.9798 13.72 30.9398 13.65 30.8898 13.58C30.8398 13.51 30.7798 13.45 30.6998 13.4C30.6198 13.35 30.5198 13.3 30.3998 13.26L30.4098 13.24ZM33.3398 13.96L33.5998 13.08L33.8598 12.09H33.8998L34.1598 13.08L34.4198 13.96H33.3298H33.3398ZM34.6798 14.82L34.9498 15.73C34.9698 15.81 35.0198 15.84 35.0698 15.84H35.9498C36.0298 15.84 36.0898 15.77 36.0698 15.69L34.6298 11.34C34.5598 11.13 34.4598 10.96 34.2098 10.96H33.5798C33.4598 10.96 33.3498 11 33.2598 11.11C33.2198 11.17 33.1798 11.24 33.1498 11.34L31.7098 15.68C31.6798 15.78 31.7598 15.84 31.8198 15.84H32.6698C32.6698 15.84 32.7498 15.84 32.7898 15.77C32.7898 15.75 32.8098 15.73 32.8098 15.71L33.0798 14.83H34.6798V14.82ZM39.0198 12.51C39.0198 12.85 38.7498 13.15 38.3798 13.15H37.4298V11.87H38.3398C38.7498 11.86 39.0198 12.17 39.0198 12.51ZM37.4298 15.69V14.06H38.5898C39.3898 14.06 40.1398 13.41 40.1298 12.48C40.1298 12.26 40.0698 12.05 39.9898 11.87C39.7998 11.44 39.4498 11.15 39.0298 11.03C38.8598 10.98 38.6798 10.96 38.4898 10.96H36.7198C36.5298 10.96 36.3698 11.09 36.3698 11.29C36.3698 11.32 36.3698 11.35 36.3698 11.38V15.72C36.3698 15.79 36.4198 15.84 36.4898 15.84H37.3098C37.3098 15.84 37.3898 15.81 37.4098 15.78C37.4198 15.76 37.4198 15.73 37.4198 15.7L37.4298 15.69ZM15.1898 15.84H17.0198C17.9198 15.87 18.6598 15.24 18.6898 14.31C18.6898 14.23 18.6898 14.13 18.6698 14.03C18.5098 13.26 17.8998 12.74 17.1298 12.74H15.8998V11.87H17.9998C18.0798 11.87 18.1298 11.81 18.1298 11.74V11.12C18.1298 11.04 18.0998 10.96 17.9998 10.97H15.2098C14.9198 10.97 14.8398 11.18 14.8398 11.31V15.51C14.8398 15.7 14.9898 15.85 15.1798 15.85L15.1898 15.84ZM23.5398 11.42L23.4798 12.48C23.4598 12.84 23.4398 13.15 23.4098 13.42C23.3698 13.86 23.3298 14.92 22.7598 14.92C22.7598 14.92 22.7498 14.92 22.7398 14.92C22.6898 14.92 22.6198 14.96 22.6198 15.03V15.71C22.6198 15.78 22.6698 15.84 22.7398 15.84H22.7898C23.2198 15.84 23.5998 15.79 23.9198 15.3C24.0198 15.15 24.1098 14.97 24.1798 14.78C24.2398 14.58 24.2998 14.36 24.3298 14.12C24.3698 13.88 24.3998 13.61 24.4198 13.32C24.4398 13.03 24.4698 12.71 24.4898 12.37L24.5198 11.88H25.8798V15.73C25.8798 15.79 25.9398 15.85 26.0098 15.85H26.8198C26.8998 15.85 26.9498 15.79 26.9498 15.72V11.31C26.9498 11.13 26.7998 10.97 26.5798 10.97H23.9098C23.6998 10.97 23.5798 11.15 23.5698 11.3C23.5698 11.34 23.5598 11.39 23.5498 11.44L23.5398 11.42Z" fill="#024978"/>
<path fill-rule="evenodd" clip-rule="evenodd" d="M16.3901 17.5L16.0701 18.03L15.4701 19C15.4701 19 15.4301 19.06 15.4101 19.08C15.3901 19.1 15.3801 19.12 15.3601 19.13C15.3401 19.14 15.3201 19.15 15.2901 19.15C15.2701 19.15 15.2301 19.15 15.2001 19.15H15.0601C14.9701 19.15 14.9101 19.13 14.8801 19.08C14.8501 19.04 14.8301 18.98 14.8301 18.9V16.72C14.8301 16.72 14.8501 16.65 14.9001 16.65H15.2801C15.2801 16.65 15.3301 16.65 15.3401 16.66C15.3401 16.66 15.3501 16.69 15.3501 16.71V18.31H15.3701L15.6701 17.81L16.2801 16.8C16.2801 16.8 16.3201 16.74 16.3401 16.72C16.3601 16.7 16.3701 16.68 16.3901 16.67C16.4101 16.66 16.4301 16.65 16.4501 16.65C16.4701 16.65 16.5001 16.65 16.5401 16.65H16.6901C16.7801 16.65 16.8401 16.67 16.8701 16.71C16.9001 16.75 16.9201 16.81 16.9201 16.9V19.07C16.9201 19.07 16.9001 19.14 16.8501 19.14H16.4701C16.4701 19.14 16.4201 19.14 16.4101 19.13C16.4101 19.13 16.4001 19.1 16.4001 19.08V17.49H16.3801L16.3901 17.5ZM17.9501 19.09C17.9501 19.09 17.9501 19.14 17.9301 19.15C17.9201 19.15 17.9001 19.16 17.8601 19.16H17.5101C17.4601 19.16 17.4301 19.14 17.4301 19.09V17.36C17.4301 17.36 17.4601 17.29 17.5101 17.29H17.8601C17.8601 17.29 17.9201 17.29 17.9301 17.3C17.9401 17.3 17.9501 17.33 17.9501 17.36V17.97H18.6101V17.36C18.6101 17.36 18.6401 17.29 18.6901 17.29H19.0501C19.0501 17.29 19.1101 17.29 19.1101 17.3C19.1101 17.3 19.1201 17.33 19.1201 17.36V19.09C19.1201 19.09 19.1201 19.14 19.1101 19.15C19.1101 19.15 19.0801 19.16 19.0501 19.16H18.6901C18.6401 19.16 18.6101 19.14 18.6101 19.09V18.38H17.9501V19.09ZM20.4801 17.72V19.09C20.4801 19.09 20.4801 19.14 20.4601 19.15C20.4501 19.15 20.4301 19.16 20.3901 19.16H20.0401C19.9901 19.16 19.9601 19.14 19.9601 19.09V17.72H19.4601C19.4601 17.72 19.3901 17.69 19.3901 17.64V17.38C19.3901 17.38 19.3901 17.32 19.4001 17.31C19.4001 17.3 19.4301 17.29 19.4601 17.29H20.9901C20.9901 17.29 21.0401 17.29 21.0501 17.31C21.0501 17.32 21.0601 17.34 21.0601 17.38V17.64C21.0601 17.69 21.0401 17.72 20.9901 17.72H20.4801ZM22.0401 17.25C22.3201 17.25 22.5201 17.32 22.6601 17.46C22.8001 17.6 22.8701 17.8 22.8701 18.05C22.8701 18.17 22.8501 18.26 22.8001 18.3C22.7501 18.35 22.6901 18.37 22.6001 18.37H21.6901C21.6901 18.45 21.7001 18.51 21.7301 18.56C21.7501 18.61 21.7801 18.65 21.8201 18.68C21.8601 18.71 21.9001 18.73 21.9501 18.74C22.0001 18.75 22.0601 18.76 22.1201 18.76C22.1901 18.76 22.2601 18.76 22.3301 18.74C22.4001 18.72 22.4701 18.7 22.5301 18.68C22.5601 18.68 22.5801 18.67 22.5901 18.68C22.6001 18.68 22.6101 18.69 22.6201 18.71L22.7301 18.97C22.7301 18.97 22.7401 19.01 22.7301 19.02C22.7301 19.03 22.7101 19.04 22.6901 19.06C22.6001 19.12 22.5001 19.16 22.3801 19.18C22.2601 19.2 22.1601 19.22 22.0601 19.22C21.7501 19.22 21.5201 19.14 21.3701 18.99C21.2201 18.84 21.1501 18.59 21.1501 18.26C21.1501 18.1 21.1701 17.96 21.2101 17.84C21.2501 17.72 21.3101 17.61 21.3901 17.53C21.4701 17.44 21.5601 17.38 21.6701 17.34C21.7801 17.3 21.9001 17.27 22.0301 17.27L22.0401 17.25ZM22.0501 17.68C21.9501 17.68 21.8701 17.71 21.8101 17.78C21.7501 17.85 21.7101 17.94 21.7001 18.04H22.3601C22.3601 17.99 22.3601 17.94 22.3401 17.89C22.3301 17.85 22.3101 17.81 22.2901 17.77C22.2701 17.74 22.2301 17.71 22.1901 17.69C22.1501 17.67 22.1001 17.66 22.0301 17.66L22.0501 17.68ZM23.7601 19.83C23.7601 19.83 23.7601 19.87 23.7501 19.88C23.7501 19.88 23.7201 19.89 23.6901 19.89H23.3201C23.3201 19.89 23.2801 19.89 23.2601 19.88C23.2501 19.88 23.2401 19.86 23.2401 19.83V17.52C23.2401 17.52 23.2401 17.47 23.2501 17.46C23.2501 17.44 23.2801 17.43 23.3101 17.41C23.4201 17.36 23.5501 17.32 23.6901 17.3C23.8301 17.28 23.9701 17.27 24.0901 17.27C24.2601 17.27 24.4001 17.3 24.5101 17.35C24.6201 17.4 24.7201 17.47 24.7901 17.56C24.8601 17.65 24.9101 17.75 24.9401 17.87C24.9701 17.99 24.9901 18.11 24.9901 18.25C24.9901 18.39 24.9701 18.51 24.9401 18.62C24.9101 18.74 24.8601 18.84 24.7901 18.93C24.7201 19.02 24.6301 19.09 24.5301 19.14C24.4201 19.19 24.3001 19.22 24.1601 19.22C24.0901 19.22 24.0201 19.22 23.9601 19.22C23.9001 19.22 23.8301 19.2 23.7601 19.19V19.86V19.83ZM24.4601 18.22C24.4601 18.12 24.4601 18.04 24.4301 17.98C24.4101 17.91 24.3801 17.86 24.3501 17.82C24.3101 17.78 24.2701 17.75 24.2101 17.73C24.1601 17.71 24.1001 17.71 24.0301 17.71C24.0001 17.71 23.9501 17.71 23.9001 17.72C23.8501 17.72 23.8001 17.74 23.7601 17.75V18.72C23.8201 18.74 23.8801 18.75 23.9301 18.75C23.9801 18.75 24.0201 18.75 24.0601 18.75C24.1801 18.75 24.2801 18.71 24.3501 18.63C24.4201 18.55 24.4601 18.41 24.4601 18.22ZM25.9001 19.09C25.9001 19.09 25.9001 19.14 25.8801 19.15C25.8701 19.15 25.8501 19.16 25.8101 19.16H25.4601C25.4101 19.16 25.3801 19.14 25.3801 19.09V17.36C25.3801 17.36 25.4101 17.29 25.4601 17.29H25.8101C25.8101 17.29 25.8701 17.29 25.8801 17.3C25.8901 17.3 25.9001 17.33 25.9001 17.36V17.97H26.5601V17.36C26.5601 17.36 26.5901 17.29 26.6401 17.29H27.0001C27.0001 17.29 27.0601 17.29 27.0601 17.3C27.0601 17.3 27.0701 17.33 27.0701 17.36V19.09C27.0701 19.09 27.0701 19.14 27.0601 19.15C27.0601 19.15 27.0301 19.16 27.0001 19.16H26.6401C26.5901 19.16 26.5601 19.14 26.5601 19.09V18.38H25.9001V19.09ZM28.3501 17.25C28.6301 17.25 28.8301 17.32 28.9701 17.46C29.1101 17.6 29.1801 17.8 29.1801 18.05C29.1801 18.17 29.1601 18.26 29.1101 18.3C29.0601 18.35 29.0001 18.37 28.9101 18.37H28.0001C28.0001 18.45 28.0101 18.51 28.0401 18.56C28.0601 18.61 28.0901 18.65 28.1301 18.68C28.1701 18.71 28.2101 18.73 28.2601 18.74C28.3101 18.75 28.3701 18.76 28.4301 18.76C28.5001 18.76 28.5701 18.76 28.6401 18.74C28.7101 18.72 28.7801 18.7 28.8401 18.68C28.8701 18.68 28.8901 18.67 28.9001 18.68C28.9101 18.68 28.9201 18.69 28.9301 18.71L29.0401 18.97C29.0401 18.97 29.0501 19.01 29.0401 19.02C29.0401 19.03 29.0201 19.04 29.0001 19.06C28.9101 19.12 28.8101 19.16 28.6901 19.18C28.5701 19.2 28.4701 19.22 28.3701 19.22C28.0601 19.22 27.8301 19.14 27.6801 18.99C27.5301 18.84 27.4601 18.59 27.4601 18.26C27.4601 18.1 27.4801 17.96 27.5201 17.84C27.5601 17.72 27.6201 17.61 27.7001 17.53C27.7801 17.44 27.8701 17.38 27.9801 17.34C28.0901 17.3 28.2101 17.27 28.3401 17.27L28.3501 17.25ZM28.3601 17.68C28.2601 17.68 28.1801 17.71 28.1201 17.78C28.0601 17.85 28.0201 17.94 28.0101 18.04H28.6701C28.6701 17.99 28.6701 17.94 28.6501 17.89C28.6401 17.85 28.6201 17.81 28.6001 17.77C28.5801 17.74 28.5401 17.71 28.5001 17.69C28.4601 17.67 28.4101 17.66 28.3401 17.66L28.3601 17.68ZM30.4501 17.72V19.09C30.4501 19.09 30.4501 19.14 30.4301 19.15C30.4201 19.15 30.4001 19.16 30.3601 19.16H30.0101C29.9601 19.16 29.9301 19.14 29.9301 19.09V17.72H29.4301C29.4301 17.72 29.3601 17.69 29.3601 17.64V17.38C29.3601 17.38 29.3601 17.32 29.3701 17.31C29.3701 17.3 29.4001 17.29 29.4301 17.29H30.9601C30.9601 17.29 31.0101 17.29 31.0201 17.31C31.0201 17.32 31.0301 17.34 31.0301 17.38V17.64C31.0301 17.69 31.0101 17.72 30.9601 17.72H30.4501ZM33.3801 19.1C33.3801 19.1 33.3801 19.14 33.3701 19.15C33.3701 19.15 33.3401 19.16 33.3101 19.16H32.9201C32.9201 19.16 32.8501 19.14 32.8501 19.09V17.14H31.8901V19.09C31.8901 19.09 31.8901 19.13 31.8801 19.14C31.8801 19.14 31.8501 19.15 31.8201 19.15H31.4301C31.4301 19.15 31.3601 19.13 31.3601 19.08V16.9C31.3601 16.82 31.3801 16.76 31.4101 16.72C31.4401 16.68 31.5001 16.66 31.5901 16.66H33.1801C33.2701 16.66 33.3201 16.68 33.3601 16.72C33.3901 16.76 33.4101 16.82 33.4101 16.9V19.08L33.3801 19.1ZM35.4601 18.94C35.4601 18.94 35.4601 19 35.4501 19.02C35.4501 19.04 35.4201 19.06 35.3901 19.08C35.3401 19.11 35.2801 19.13 35.2101 19.14C35.1501 19.16 35.0801 19.17 35.0201 19.18C34.9501 19.18 34.8901 19.2 34.8201 19.2C34.7501 19.2 34.6901 19.2 34.6301 19.2C34.4701 19.2 34.3401 19.18 34.2301 19.15C34.1301 19.12 34.0401 19.08 33.9801 19.02C33.9201 18.97 33.8701 18.9 33.8501 18.83C33.8201 18.76 33.8101 18.68 33.8101 18.6C33.8101 18.51 33.8301 18.42 33.8601 18.35C33.8901 18.27 33.9401 18.21 34.0001 18.15C34.0601 18.09 34.1401 18.05 34.2301 18.02C34.3201 17.99 34.4301 17.97 34.5601 17.97H34.9501V17.91C34.9501 17.91 34.9501 17.84 34.9401 17.81C34.9401 17.78 34.9201 17.75 34.9001 17.73C34.8801 17.71 34.8501 17.69 34.8101 17.68C34.7701 17.67 34.7201 17.66 34.6501 17.66C34.6101 17.66 34.5701 17.66 34.5301 17.66C34.4901 17.66 34.4401 17.66 34.4001 17.67C34.3501 17.67 34.3101 17.68 34.2701 17.69C34.2301 17.69 34.1901 17.71 34.1601 17.72C34.1301 17.72 34.1101 17.72 34.1001 17.72C34.0901 17.72 34.0801 17.7 34.0801 17.67L34.0201 17.42C34.0201 17.42 34.0201 17.38 34.0201 17.36C34.0201 17.35 34.0401 17.34 34.0601 17.33C34.1701 17.29 34.2801 17.26 34.4001 17.25C34.5201 17.23 34.6301 17.23 34.7501 17.23C35.0101 17.23 35.2001 17.28 35.3201 17.4C35.4401 17.51 35.5001 17.67 35.5001 17.89V18.92L35.4601 18.94ZM34.9501 18.33H34.6701C34.6701 18.33 34.6001 18.33 34.5601 18.33C34.5201 18.33 34.4901 18.35 34.4601 18.36C34.4301 18.38 34.4001 18.4 34.3801 18.44C34.3601 18.47 34.3501 18.52 34.3501 18.57C34.3501 18.65 34.3801 18.71 34.4301 18.74C34.4901 18.77 34.5601 18.79 34.6601 18.79C34.6701 18.79 34.6901 18.79 34.7201 18.79C34.7401 18.79 34.7701 18.79 34.8001 18.79C34.8301 18.79 34.8601 18.79 34.8801 18.78C34.9101 18.78 34.9301 18.77 34.9601 18.76V18.33H34.9501ZM36.4401 19.84C36.4401 19.84 36.4401 19.88 36.4301 19.89C36.4301 19.89 36.4001 19.9 36.3701 19.9H36.0001C36.0001 19.9 35.9601 19.9 35.9401 19.89C35.9301 19.89 35.9201 19.87 35.9201 19.84V17.53C35.9201 17.53 35.9201 17.48 35.9301 17.47C35.9301 17.45 35.9601 17.44 35.9901 17.42C36.1001 17.37 36.2301 17.33 36.3701 17.31C36.5101 17.29 36.6501 17.28 36.7701 17.28C36.9401 17.28 37.0801 17.31 37.1901 17.36C37.3001 17.41 37.4001 17.48 37.4701 17.57C37.5401 17.66 37.5901 17.76 37.6201 17.88C37.6501 18 37.6701 18.12 37.6701 18.26C37.6701 18.4 37.6501 18.52 37.6201 18.63C37.5901 18.75 37.5401 18.85 37.4701 18.94C37.4001 19.03 37.3101 19.1 37.2101 19.15C37.1001 19.2 36.9801 19.23 36.8401 19.23C36.7701 19.23 36.7001 19.23 36.6401 19.23C36.5801 19.23 36.5101 19.21 36.4401 19.2V19.87V19.84ZM37.1401 18.23C37.1401 18.13 37.1401 18.05 37.1101 17.99C37.0901 17.92 37.0601 17.87 37.0301 17.83C36.9901 17.79 36.9501 17.76 36.8901 17.74C36.8401 17.72 36.7801 17.72 36.7101 17.72C36.6801 17.72 36.6301 17.72 36.5801 17.73C36.5301 17.73 36.4801 17.75 36.4401 17.76V18.73C36.5001 18.75 36.5601 18.76 36.6101 18.76C36.6601 18.76 36.7001 18.76 36.7401 18.76C36.8601 18.76 36.9601 18.72 37.0301 18.64C37.1101 18.56 37.1401 18.42 37.1401 18.23ZM39.7901 18.23C39.7901 18.54 39.7201 18.78 39.5701 18.95C39.4201 19.12 39.1901 19.21 38.8901 19.21C38.5901 19.21 38.3601 19.12 38.2201 18.95C38.0801 18.78 38.0101 18.54 38.0101 18.23C38.0101 18.08 38.0301 17.94 38.0701 17.82C38.1101 17.7 38.1701 17.6 38.2501 17.51C38.3301 17.43 38.4201 17.36 38.5301 17.32C38.6401 17.28 38.7601 17.25 38.9001 17.25C39.2001 17.25 39.4201 17.34 39.5701 17.51C39.7201 17.68 39.8001 17.92 39.8001 18.22L39.7901 18.23ZM39.2501 18.24C39.2501 18.16 39.2501 18.09 39.2301 18.02C39.2201 17.95 39.2001 17.9 39.1701 17.85C39.1401 17.8 39.1001 17.77 39.0601 17.74C39.0201 17.71 38.9601 17.7 38.8901 17.7C38.7601 17.7 38.6701 17.75 38.6101 17.84C38.5501 17.94 38.5201 18.07 38.5201 18.23C38.5201 18.41 38.5501 18.54 38.6001 18.63C38.6601 18.72 38.7501 18.77 38.8801 18.77C38.9501 18.77 39.0001 18.76 39.0501 18.73C39.1001 18.7 39.1301 18.66 39.1601 18.62C39.1901 18.57 39.2101 18.52 39.2201 18.45C39.2301 18.39 39.2401 18.32 39.2401 18.24H39.2501ZM41.6201 17.31C41.7001 17.31 41.7601 17.33 41.7901 17.36C41.8201 17.39 41.8301 17.45 41.8301 17.53V19.11C41.8301 19.11 41.8301 19.16 41.8101 19.16C41.8001 19.16 41.7801 19.17 41.7401 19.17H41.3801C41.3801 19.17 41.3201 19.17 41.3101 19.15C41.3001 19.14 41.2901 19.12 41.2901 19.1V17.73H40.8501V17.91C40.8301 18.12 40.8101 18.29 40.7901 18.44C40.7701 18.59 40.7401 18.72 40.6901 18.82C40.6501 18.93 40.5801 19.01 40.5001 19.08C40.4201 19.15 40.3101 19.2 40.1701 19.24C40.1401 19.25 40.1101 19.25 40.1001 19.24C40.0901 19.24 40.0701 19.22 40.0601 19.19L39.9601 18.95C39.9601 18.95 39.9401 18.9 39.9501 18.88C39.9501 18.87 39.9701 18.85 40.0001 18.84C40.0601 18.81 40.1201 18.78 40.1501 18.74C40.1901 18.7 40.2201 18.65 40.2501 18.59C40.2701 18.52 40.2901 18.44 40.3101 18.33C40.3201 18.22 40.3401 18.08 40.3501 17.9L40.3701 17.51C40.3701 17.43 40.3901 17.38 40.4301 17.35C40.4601 17.32 40.5201 17.3 40.6001 17.3H41.5901L41.6201 17.31ZM42.5201 19.17C42.4301 19.17 42.3701 19.15 42.3401 19.11C42.3101 19.07 42.3001 19.02 42.3001 18.96V17.37C42.3001 17.37 42.3301 17.3 42.3801 17.3H42.7401C42.7401 17.3 42.8001 17.3 42.8101 17.31C42.8201 17.31 42.8301 17.34 42.8301 17.37V17.88H43.2701C43.4401 17.88 43.5801 17.9 43.6801 17.95C43.7801 18 43.8601 18.06 43.9101 18.13C43.9601 18.2 43.9901 18.27 44.0101 18.34C44.0201 18.41 44.0301 18.47 44.0301 18.52C44.0301 18.61 44.0101 18.7 43.9801 18.78C43.9401 18.86 43.9001 18.93 43.8301 18.98C43.7701 19.04 43.6901 19.08 43.6101 19.11C43.5301 19.14 43.4301 19.16 43.3301 19.16H42.5401L42.5201 19.17ZM43.4801 18.52C43.4801 18.45 43.4601 18.4 43.4201 18.35C43.3801 18.3 43.3201 18.28 43.2301 18.28H42.8101V18.76H43.2301C43.2301 18.76 43.3201 18.76 43.3501 18.74C43.3801 18.72 43.4101 18.7 43.4301 18.68C43.4501 18.66 43.4601 18.63 43.4701 18.6C43.4701 18.57 43.4801 18.55 43.4801 18.52Z" fill="#024978"/>
</g>
<defs>
<clipPath id="clip0_342_5840">
<rect width="48" height="31" fill="white"/>
</clipPath>
</defs>
</svg>
