<svg width="48" height="31" viewBox="0 0 48 31" fill="none" xmlns="http://www.w3.org/2000/svg">
<g clip-path="url(#clip0_342_5836)">
<path d="M45 0H3C1.34315 0 0 1.34315 0 3V28C0 29.6569 1.34315 31 3 31H45C46.6569 31 48 29.6569 48 28V3C48 1.34315 46.6569 0 45 0Z" fill="white"/>
<path d="M15.2691 25.57C15.2091 25.55 15.1891 25.52 15.1591 25.47C15.1391 25.43 15.1391 25.27 15.1491 24.02V22.62L15.1791 22.57C15.1791 22.57 15.2291 22.51 15.2591 22.49L15.3091 22.46H16.2591C17.1991 22.46 17.2091 22.46 17.2291 22.48C17.2491 22.5 17.2491 22.52 17.2491 22.76C17.2491 22.99 17.2491 23.02 17.2291 23.03C17.2091 23.04 17.0791 23.05 16.5191 23.05H15.8291V23.58H16.2791C16.7591 23.59 16.8091 23.6 16.9791 23.66C17.2191 23.74 17.4191 23.91 17.5191 24.12C17.5791 24.26 17.5991 24.36 17.5991 24.57C17.5991 24.8 17.5891 24.86 17.5091 25.01C17.4091 25.21 17.2691 25.35 17.0591 25.46C16.8291 25.58 16.8591 25.57 16.0291 25.58C15.4391 25.58 15.2991 25.58 15.2591 25.57H15.2691ZM16.6391 24.95C16.6991 24.93 16.7291 24.91 16.7791 24.86C16.8291 24.81 16.8491 24.78 16.8691 24.72C16.9191 24.55 16.8891 24.39 16.7791 24.28C16.7291 24.23 16.7091 24.22 16.6391 24.2C16.5691 24.18 16.5391 24.18 16.1991 24.18H15.8391V24.57C15.8391 24.78 15.8391 24.96 15.8391 24.97C15.8391 24.98 15.9291 24.98 16.1991 24.98C16.5291 24.98 16.5591 24.98 16.6291 24.96L16.6391 24.95ZM18.3791 25.57C18.1391 25.52 17.9791 25.4 17.8891 25.22C17.7891 25.02 17.7791 24.93 17.7891 23.93C17.7891 23.08 17.7891 23.09 17.8591 22.92C17.8891 22.83 17.9891 22.69 18.0491 22.64C18.0791 22.61 18.1491 22.57 18.1991 22.55C18.3791 22.46 18.3391 22.47 19.1891 22.46C19.9391 22.46 19.9491 22.46 19.9691 22.48C19.9891 22.5 19.9891 22.52 19.9891 22.76C19.9891 23 19.9891 23.01 19.9691 23.04C19.9491 23.06 19.9291 23.06 19.3491 23.06C18.9691 23.06 18.7291 23.06 18.6891 23.07C18.5991 23.09 18.5491 23.12 18.5191 23.18C18.4991 23.22 18.4891 23.25 18.4891 23.44C18.4891 23.61 18.4891 23.65 18.4991 23.66C18.4991 23.66 18.8091 23.66 19.1591 23.67C19.5091 23.67 19.8091 23.67 19.8191 23.67C19.8491 23.69 19.8591 23.75 19.8591 23.95C19.8591 24.17 19.8591 24.22 19.7991 24.23C19.7891 24.23 19.4891 24.23 19.1291 24.23H18.4891V24.5C18.4891 24.65 18.4891 24.79 18.4991 24.82C18.5091 24.88 18.5391 24.92 18.6091 24.95L18.6691 24.98H19.3391C19.9291 24.98 20.0091 24.98 20.0291 25.01C20.0491 25.03 20.0491 25.05 20.0491 25.29C20.0491 25.53 20.0491 25.55 20.0291 25.57C20.0091 25.59 19.9891 25.59 19.2391 25.59C18.6491 25.59 18.4591 25.59 18.3991 25.57H18.3791ZM20.1391 25.57C20.1391 25.57 20.1191 25.52 20.1091 25.34C20.1091 25.12 20.1091 25.04 20.1391 25.02C20.1391 25.02 20.1891 25 20.2191 25C20.3391 24.98 20.4091 24.93 20.4791 24.8C20.5791 24.61 20.6191 24.31 20.6791 23.22C20.6991 22.95 20.7091 22.72 20.7191 22.69C20.7391 22.58 20.7991 22.5 20.8791 22.48C20.9091 22.48 21.2191 22.47 21.8291 22.48H22.7291L22.7791 22.51C22.7791 22.51 22.8391 22.56 22.8591 22.59L22.8891 22.64V25.57L22.8691 25.59C22.8691 25.59 22.8091 25.61 22.5491 25.61C22.3091 25.61 22.2491 25.61 22.2291 25.59C22.2091 25.57 22.2091 25.54 22.1991 24.33V23.08H21.3491V23.12C21.3491 23.12 21.3291 23.23 21.3291 23.3C21.3191 23.57 21.2691 24.18 21.2391 24.35C21.1791 24.78 21.1091 25.03 20.9591 25.25C20.7991 25.5 20.5891 25.6 20.2791 25.6C20.1691 25.6 20.1491 25.6 20.1291 25.58L20.1391 25.57ZM23.2991 25.57C23.2991 25.57 23.2791 25.38 23.2791 24.04C23.2791 22.85 23.2791 22.53 23.2891 22.5V22.47H23.6291C23.9191 22.47 23.9491 22.47 23.9691 22.48C23.9791 22.5 23.9791 22.63 23.9791 23.08V23.66H24.2391C24.4891 23.66 24.4991 23.66 24.5691 23.62C24.6591 23.58 24.7491 23.49 24.7891 23.4C24.8091 23.37 24.8591 23.17 24.9191 22.97C24.9691 22.77 25.0291 22.57 25.0391 22.54C25.0591 22.48 25.1758 22.45 25.3891 22.45C25.5391 22.45 25.6791 22.45 25.6891 22.45C25.7391 22.47 25.7391 22.49 25.6091 22.97C25.5291 23.28 25.4691 23.47 25.4491 23.53C25.3791 23.68 25.3091 23.77 25.1691 23.88L25.1391 23.9L25.2391 23.95C25.3991 24.03 25.4991 24.15 25.5491 24.32C25.5791 24.42 25.8691 25.5 25.8691 25.52C25.8691 25.53 25.8691 25.55 25.8491 25.56C25.8291 25.58 25.7891 25.58 25.5291 25.58C25.2291 25.58 25.2291 25.58 25.2091 25.55C25.1891 25.53 25.1391 25.38 25.0391 25.01C24.9591 24.73 24.8791 24.47 24.8591 24.43C24.8091 24.33 24.7691 24.28 24.6791 24.24C24.5791 24.19 24.4991 24.18 24.2291 24.18H23.9991V24.85C23.9991 25.44 23.9991 25.52 23.9791 25.55C23.9591 25.58 23.9591 25.58 23.6491 25.58C23.3391 25.58 23.3291 25.58 23.3191 25.55L23.2991 25.57ZM25.9491 25.57C25.9491 25.57 25.9291 25.54 25.9291 25.53C25.9291 25.5 26.8691 22.67 26.8991 22.61C26.9291 22.55 26.9591 22.52 27.0191 22.49C27.0591 22.47 27.0791 22.47 27.3491 22.47C27.6191 22.47 27.6291 22.47 27.6791 22.5C27.7091 22.52 27.7391 22.55 27.7591 22.58C27.7991 22.64 28.7491 25.49 28.7491 25.54C28.7491 25.56 28.7491 25.58 28.7391 25.59C28.7291 25.6 28.6391 25.6 28.3991 25.6C28.1091 25.6 28.0691 25.6 28.0491 25.58C28.0291 25.56 27.9991 25.48 27.9391 25.26L27.8491 24.96H27.3491C26.8791 24.96 26.8491 24.96 26.8391 24.97C26.8391 24.98 26.7891 25.1 26.7491 25.24C26.6591 25.54 26.6491 25.55 26.6191 25.57C26.5791 25.6 25.9791 25.59 25.9491 25.57ZM27.6691 24.36C27.6691 24.36 27.6291 24.23 27.5891 24.08C27.5491 23.93 27.4691 23.68 27.4291 23.51C27.3891 23.34 27.3491 23.21 27.3391 23.21C27.3391 23.21 27.2891 23.36 27.2391 23.54C27.1891 23.72 27.1191 23.97 27.0791 24.1C27.0391 24.23 27.0091 24.35 27.0091 24.36C27.0091 24.38 27.0391 24.38 27.3391 24.38C27.5591 24.38 27.6691 24.38 27.6691 24.37V24.36ZM28.9491 25.56C28.9491 25.56 28.9291 25.53 28.9291 24.1C28.9291 23.05 28.9291 22.65 28.9391 22.62C28.9591 22.55 29.0191 22.49 29.0891 22.47C29.1291 22.47 29.3391 22.46 29.7791 22.46C30.4891 22.46 30.5491 22.46 30.7291 22.53C30.8791 22.58 30.9491 22.63 31.0691 22.76C31.1591 22.85 31.1891 22.89 31.2291 22.98C31.3191 23.16 31.3491 23.37 31.3291 23.57C31.2691 24.05 30.9991 24.35 30.5091 24.45C30.4391 24.46 30.3291 24.47 30.0191 24.47H29.6091V25C29.6091 25.51 29.6091 25.57 29.5691 25.59C29.5691 25.59 29.4191 25.59 29.2591 25.59H28.9591L28.9391 25.56H28.9491ZM30.2591 23.89C30.4891 23.86 30.6091 23.74 30.6291 23.52C30.6291 23.39 30.6091 23.29 30.5291 23.21C30.4491 23.13 30.3791 23.09 30.2391 23.08C30.1091 23.07 29.6791 23.07 29.6491 23.08C29.6291 23.08 29.6291 23.12 29.6291 23.49C29.6291 23.8 29.6291 23.9 29.6391 23.9C29.6691 23.91 30.1591 23.9 30.2591 23.9V23.89ZM32.2791 25.58C32.2791 25.58 32.2591 25.54 32.2491 25.52C32.2491 25.49 32.2391 24.96 32.2391 24.26V23.05H31.4391L31.4091 23.02L31.3791 22.99V22.74C31.3791 22.51 31.3791 22.49 31.3991 22.47L31.4191 22.45H33.8091L33.8291 22.48C33.8291 22.48 33.8491 22.53 33.8491 22.74C33.8491 22.98 33.8491 23.01 33.7991 23.04C33.7791 23.04 33.6391 23.05 33.3591 23.05H32.9491V24.3C32.9491 25.53 32.9491 25.55 32.9191 25.57C32.8891 25.59 32.3091 25.59 32.2791 25.57V25.58ZM23.1391 21.53C23.1391 21.53 23.0191 21.44 22.8391 21.26C22.3591 20.79 20.6991 19.12 20.6791 19.09C20.6691 19.07 20.6591 19.03 20.6591 19C20.6591 18.94 20.6891 18.89 20.7691 18.8C20.8091 18.76 20.8091 18.75 20.7891 18.71C20.7591 18.61 20.7091 18.51 20.6391 18.44C20.5191 18.33 20.6891 18.34 19.1191 18.33C17.6491 18.33 17.6891 18.33 17.6291 18.27C17.5591 18.2 17.5691 18.34 17.5591 16.49C17.5591 15.35 17.5591 14.79 17.5591 14.76C17.5691 14.71 17.6191 14.65 17.6591 14.63C17.6791 14.63 17.7391 14.61 17.7891 14.6C17.8391 14.6 17.8891 14.59 17.8891 14.59C17.9391 14.53 17.9991 14.37 18.0091 14.29C18.0091 14.22 17.9891 14.12 17.9591 14.07C17.9491 14.05 17.5091 13.6 16.9891 13.08C16.4691 12.56 16.0291 12.11 16.0091 12.08C15.9691 12.03 15.9691 11.94 16.0091 11.89C16.0391 11.84 18.3691 9.49998 18.4291 9.45998C18.4691 9.42998 18.5491 9.42998 18.5991 9.44998C18.6191 9.44998 18.6591 9.47998 18.6891 9.50998C18.7991 9.60998 18.7991 9.59998 18.8991 9.55998C18.9491 9.53998 19.0191 9.49998 19.0491 9.47998C19.1191 9.42998 19.1991 9.30998 19.2091 9.24998C19.2091 9.21998 19.2091 8.59998 19.2191 7.85998C19.2191 6.53998 19.2191 6.50998 19.2491 6.45998C19.2591 6.42998 19.2891 6.39998 19.3091 6.37998C19.3491 6.34998 19.3591 6.34998 19.6291 6.33998C19.7891 6.33998 20.5591 6.33998 21.3491 6.33998C22.6791 6.33998 22.7891 6.33998 22.8191 6.35998C22.8991 6.39998 22.9391 6.47998 22.9391 6.57998C22.9391 6.60998 22.9391 6.64998 22.9391 6.66998C22.9391 6.70998 22.9491 6.71998 23.0391 6.75998C23.1691 6.81998 23.2291 6.83998 23.3291 6.81998C23.3891 6.81998 23.4191 6.79998 23.4491 6.76998C23.4791 6.74998 23.9291 6.30998 24.4491 5.77998C25.1291 5.09998 25.4191 4.82998 25.4491 4.80998C25.5091 4.77998 25.5491 4.77998 25.5991 4.80998C25.6491 4.82998 28.0091 7.17998 28.0391 7.23998C28.0691 7.28998 28.0691 7.35998 28.0391 7.40998C28.0291 7.42998 27.9891 7.47998 27.9591 7.51998C27.9291 7.55998 27.8991 7.59998 27.8991 7.60998C27.8991 7.63998 27.9491 7.76998 27.9891 7.81998C28.0291 7.87998 28.0991 7.93998 28.1591 7.97998C28.1991 7.99998 28.2591 7.99998 29.6091 8.00998C30.9091 8.00998 31.0191 8.00998 31.0491 8.03998C31.0991 8.06998 31.1391 8.11998 31.1491 8.16998C31.1491 8.18998 31.1491 8.96998 31.1491 9.88998V11.57L31.1191 11.62C31.0791 11.69 31.0291 11.72 30.8991 11.73C30.8391 11.73 30.7791 11.74 30.7791 11.74C30.7591 11.74 30.6991 11.86 30.6791 11.93C30.6491 12.02 30.6491 12.16 30.6791 12.21C30.6891 12.23 31.1491 12.7 31.6891 13.24C32.6791 14.24 32.7191 14.27 32.7191 14.35C32.7191 14.43 32.6991 14.46 31.4891 15.67C30.6491 16.51 30.2891 16.86 30.2591 16.88C30.1691 16.92 30.1091 16.9 29.9991 16.81C29.9591 16.78 29.9191 16.75 29.8991 16.74C29.8191 16.72 29.5891 16.85 29.5291 16.95L29.4991 17.01V18.41C29.4891 19.18 29.4791 19.83 29.4791 19.84C29.4691 19.88 29.4191 19.94 29.3791 19.96C29.3491 19.98 29.2391 19.98 27.6291 19.98H25.9191L25.8691 19.95C25.8091 19.91 25.7891 19.86 25.7791 19.77C25.7691 19.62 25.7791 19.63 25.6491 19.58C25.4791 19.5 25.3591 19.49 25.2691 19.56C25.2491 19.58 24.9491 19.86 24.6091 20.2C23.6591 21.15 23.3091 21.49 23.2691 21.51C23.2191 21.54 23.1691 21.54 23.1191 21.53H23.1391ZM23.0191 17.39C23.0591 17.11 23.0991 16.78 23.1191 16.67L23.1491 16.47L23.2891 16.33C23.4591 16.16 23.5591 16.08 23.6391 16.04C23.6691 16.02 23.7391 15.99 23.7791 15.96C23.9291 15.87 24.0291 15.82 24.1291 15.79C24.2091 15.76 24.2491 15.76 24.3391 15.76C24.5491 15.76 24.6391 15.79 24.9491 16C25.0091 16.04 25.1191 16.1 25.1991 16.14L25.3491 16.21L25.5691 16.42C25.6891 16.53 25.9891 16.83 26.2491 17.08C26.5091 17.33 26.7091 17.53 26.7091 17.53C26.7091 17.53 26.6891 17.49 26.2991 16.99C26.1591 16.81 25.9891 16.59 25.9291 16.52L25.8191 16.38V16.09C25.8391 15.81 25.8391 15.79 25.8791 15.64C25.9591 15.32 26.0191 15.21 26.1491 15.08C26.2891 14.94 26.4391 14.86 26.6891 14.82C26.8491 14.79 26.9991 14.75 27.1191 14.7C27.1991 14.67 27.2091 14.67 27.5191 14.66C27.6991 14.66 28.0991 14.65 28.4191 14.65C28.7391 14.65 29.0191 14.65 29.0391 14.65C29.0691 14.65 29.0691 14.65 29.0191 14.63C28.9891 14.63 28.8291 14.61 28.6491 14.59C28.1791 14.54 27.7391 14.49 27.7191 14.48C27.6891 14.48 27.2691 14.02 27.2191 13.94C27.0891 13.74 26.9991 13.58 26.9691 13.47C26.9391 13.37 26.9391 13.19 26.9691 13.08C26.9891 12.99 27.0891 12.8 27.1991 12.64C27.2491 12.57 27.3091 12.46 27.3491 12.39C27.4091 12.26 27.4191 12.25 27.6091 12.05C27.7191 11.93 28.0191 11.63 28.2691 11.38C28.5191 11.13 28.7291 10.92 28.7291 10.91C28.7291 10.9 28.7191 10.91 28.5591 11.03C28.4691 11.1 28.2291 11.29 28.0291 11.45L27.6591 11.74H27.5791C27.5791 11.74 27.3591 11.74 27.1991 11.73C26.9191 11.72 26.8991 11.72 26.7391 11.68C26.4391 11.6 26.2691 11.51 26.1491 11.35C26.0791 11.25 26.0691 11.24 26.0291 11.14C25.9891 11.03 25.9791 11.01 25.9391 10.81C25.9191 10.71 25.8891 10.6 25.8791 10.57C25.8491 10.49 25.8391 10.22 25.8291 9.24998C25.8291 8.83998 25.8191 8.50998 25.8091 8.52998C25.8091 8.54998 25.7691 8.79998 25.7391 9.08998C25.7091 9.37998 25.6691 9.66998 25.6691 9.74998L25.6491 9.87998L25.4991 10.02C25.2491 10.26 25.1391 10.35 25.0491 10.4C25.0091 10.42 24.9391 10.46 24.9091 10.48C24.6491 10.65 24.4291 10.7 24.1991 10.64C24.1291 10.62 23.9291 10.52 23.8591 10.48C23.8391 10.46 23.7491 10.41 23.6691 10.36C23.5891 10.31 23.4891 10.25 23.4591 10.23C23.3991 10.18 22.9491 9.74998 22.4091 9.22998C22.2091 9.02998 22.0391 8.86998 22.0391 8.87998C22.0391 8.88998 22.1191 8.98998 22.2191 9.11998C22.3191 9.24998 22.5091 9.48998 22.6491 9.66998L22.8991 9.98998V10.17C22.8991 10.48 22.8891 10.59 22.8191 10.82C22.7191 11.15 22.6791 11.24 22.5591 11.38C22.4291 11.52 22.2591 11.6 21.9491 11.66C21.8391 11.68 21.7291 11.71 21.7091 11.72C21.6591 11.74 21.2291 11.76 20.8091 11.76C20.3291 11.76 19.6791 11.78 19.7191 11.79C19.7391 11.79 19.9691 11.82 20.2291 11.85C20.4891 11.88 20.7591 11.9 20.8491 11.91L20.9991 11.93L21.0491 11.98C21.0491 11.98 21.1691 12.11 21.2591 12.2C21.3791 12.33 21.4291 12.39 21.4591 12.46C21.4791 12.51 21.4991 12.55 21.4991 12.55C21.4991 12.55 21.5291 12.61 21.5691 12.67C21.7391 12.95 21.7691 13.02 21.7791 13.2C21.7791 13.29 21.7791 13.34 21.7691 13.4C21.7391 13.5 21.6491 13.68 21.5591 13.81C21.5191 13.87 21.4591 13.97 21.4191 14.03C21.3291 14.19 21.1891 14.35 20.3691 15.17C20.1791 15.36 20.0291 15.52 20.0291 15.52C20.0291 15.53 20.0591 15.52 20.5791 15.09L21.0691 14.7H21.1991C21.4591 14.7 21.6991 14.72 21.7691 14.75C21.8091 14.76 21.8991 14.79 21.9691 14.81C22.3691 14.92 22.5191 15.02 22.6591 15.28C22.7091 15.38 22.7291 15.43 22.7791 15.67C22.7991 15.78 22.8391 15.92 22.8591 15.99L22.8991 16.11V16.43C22.9191 16.6 22.9191 17.01 22.9191 17.33C22.9191 17.85 22.9191 18.01 22.9391 17.99C22.9391 17.99 22.9791 17.75 23.0091 17.47L23.0191 17.39Z" fill="#6CC5EE"/>
<path d="M15.3199 25.56C15.2499 25.55 15.2199 25.52 15.1899 25.46C15.1699 25.42 15.1699 25.39 15.1699 24.03C15.1699 22.92 15.1699 22.64 15.1899 22.61C15.2099 22.55 15.2499 22.51 15.2999 22.48C15.3399 22.46 15.3999 22.46 16.2899 22.46C17.1799 22.46 17.2399 22.46 17.2399 22.48C17.2399 22.49 17.2399 22.61 17.2399 22.74C17.2399 22.87 17.2399 22.98 17.2399 23C17.2399 23.02 17.1899 23.02 16.5399 23.02H15.8399V23.05C15.8399 23.05 15.8099 23.53 15.8199 23.57C15.8199 23.59 15.8299 23.59 16.2499 23.6C16.4799 23.6 16.7099 23.61 16.7499 23.62C17.0299 23.66 17.2499 23.77 17.3899 23.93C17.6099 24.19 17.6699 24.69 17.5099 25.02C17.3999 25.24 17.1999 25.41 16.9699 25.5C16.8366 25.5466 16.5266 25.5733 16.0399 25.58C15.6699 25.58 15.3499 25.58 15.3199 25.58V25.56ZM16.6799 24.96C16.7799 24.91 16.8299 24.86 16.8799 24.76C16.9099 24.69 16.9199 24.68 16.9199 24.56C16.9199 24.45 16.9199 24.43 16.8899 24.38C16.8499 24.3 16.7799 24.23 16.6899 24.19L16.6199 24.16H16.2399C15.8799 24.16 15.8499 24.16 15.8399 24.17C15.8199 24.2 15.8199 24.95 15.8399 24.98C15.8499 25 15.8599 25 16.2299 25H16.6099L16.6899 24.96H16.6799ZM18.4799 25.56C18.1399 25.52 17.9199 25.35 17.8399 25.06C17.7999 24.91 17.7999 24.81 17.7999 23.96C17.7999 23.12 17.7999 23.11 17.8299 23.02C17.8699 22.88 17.9299 22.78 18.0099 22.69C18.0699 22.62 18.1099 22.6 18.1899 22.56C18.3699 22.47 18.3699 22.47 19.1999 22.47C19.8099 22.47 19.9299 22.47 19.9399 22.49C19.9399 22.5 19.9499 22.58 19.9499 22.76V23.01H19.9199C19.9199 23.01 19.7499 23.04 19.2699 23.04C18.6199 23.04 18.6099 23.04 18.5399 23.1C18.4699 23.15 18.4499 23.21 18.4499 23.43C18.4499 23.54 18.4499 23.64 18.4499 23.65V23.68H19.1099C19.7499 23.68 19.7699 23.68 19.7899 23.7C19.8099 23.72 19.8099 23.74 19.8099 23.95C19.8099 24.16 19.8099 24.18 19.7899 24.2C19.7699 24.22 19.7099 24.22 19.1199 24.22C18.5599 24.22 18.4699 24.22 18.4599 24.24C18.4499 24.25 18.4499 24.33 18.4499 24.55C18.4499 24.84 18.4499 24.84 18.4799 24.9C18.4999 24.94 18.5199 24.97 18.5599 24.99L18.6099 25.02H19.2899C19.8299 25.03 19.9699 25.03 19.9899 25.05C19.9999 25.06 20.0099 25.13 20.0099 25.31V25.55L19.9799 25.58L19.9499 25.61H19.2499C18.8699 25.61 18.5099 25.61 18.4599 25.6L18.4799 25.56ZM20.1799 25.56C20.1799 25.56 20.1399 25.5 20.1399 25.27C20.1399 25.06 20.1399 25.04 20.1599 25.02C20.1799 25 20.1999 25 20.2299 25C20.2999 25 20.3599 24.97 20.4199 24.91C20.5899 24.73 20.6299 24.48 20.7099 23.16C20.7399 22.58 20.7499 22.54 20.8599 22.49C20.9099 22.47 20.9499 22.47 21.8099 22.47C22.6699 22.47 22.7199 22.47 22.7599 22.49C22.8099 22.52 22.8399 22.54 22.8699 22.6C22.8899 22.64 22.8899 22.73 22.8899 24.07C22.8899 25 22.8899 25.51 22.8899 25.53V25.56H22.5699C22.2999 25.56 22.2599 25.56 22.2499 25.54C22.2399 25.52 22.2299 25.31 22.2299 24.28V23.04H21.3499V23.14C21.3399 23.2 21.3199 23.43 21.2999 23.66C21.2499 24.29 21.2199 24.54 21.1499 24.8C21.0799 25.04 20.9799 25.24 20.8399 25.38C20.7099 25.5 20.5699 25.56 20.3399 25.57C20.2699 25.57 20.1999 25.57 20.1899 25.57L20.1799 25.56ZM23.3299 25.55C23.3299 25.55 23.3099 25.38 23.3099 24.02C23.3099 23.09 23.3099 22.5 23.3199 22.49C23.3199 22.48 23.3799 22.47 23.6199 22.47C23.8099 22.47 23.9199 22.47 23.9399 22.47C23.9599 22.48 23.9599 22.49 23.9699 23.07V23.66H24.2299C24.4699 23.66 24.4899 23.66 24.5599 23.63C24.6999 23.57 24.7899 23.47 24.8399 23.3C24.8599 23.24 24.9199 23.03 24.9699 22.84C25.0199 22.65 25.0699 22.48 25.0799 22.47C25.0799 22.46 25.1599 22.46 25.3799 22.46C25.6299 22.46 25.6699 22.46 25.6899 22.48C25.6999 22.49 25.6899 22.57 25.5899 22.94C25.5299 23.18 25.4599 23.42 25.4499 23.47C25.3999 23.62 25.2799 23.78 25.1599 23.86C25.1199 23.89 25.1099 23.92 25.1399 23.93C25.1399 23.93 25.1899 23.96 25.2399 23.98C25.3799 24.05 25.4699 24.16 25.5299 24.35C25.5699 24.47 25.8399 25.5 25.8399 25.53C25.8399 25.58 25.8099 25.58 25.5099 25.58C25.2699 25.58 25.2299 25.58 25.2099 25.56C25.2099 25.56 25.1299 25.32 25.0499 25.04C24.9699 24.77 24.8999 24.51 24.8799 24.48C24.8199 24.33 24.7299 24.25 24.5899 24.2C24.5299 24.18 24.0599 24.17 23.9999 24.18H23.9699V24.87C23.9699 25.53 23.9699 25.55 23.9499 25.57C23.9399 25.57 23.8199 25.58 23.6399 25.58C23.3899 25.58 23.3499 25.58 23.3299 25.56V25.55ZM25.9799 25.55C25.9799 25.55 25.9599 25.52 25.9599 25.51C25.9599 25.46 26.9099 22.63 26.9399 22.57C26.9999 22.48 27.0199 22.47 27.3199 22.47C27.4799 22.47 27.5899 22.47 27.6199 22.47C27.6799 22.49 27.7299 22.53 27.7599 22.58C27.7999 22.66 28.7399 25.5 28.7299 25.52C28.7299 25.53 28.7099 25.54 28.6999 25.55C28.6499 25.56 28.1199 25.55 28.0799 25.55C28.0599 25.55 28.0399 25.53 28.0399 25.52C28.0399 25.51 27.9899 25.37 27.9499 25.22C27.8999 25.07 27.8599 24.93 27.8499 24.92C27.8399 24.91 27.7599 24.9 27.3299 24.9C26.8599 24.9 26.8299 24.9 26.8199 24.92C26.8199 24.93 26.7699 25.07 26.7199 25.22C26.6599 25.4 26.6199 25.51 26.6099 25.52C26.5899 25.54 26.5699 25.54 26.2899 25.55C26.0999 25.55 25.9899 25.55 25.9699 25.55H25.9799ZM27.6799 24.37C27.6799 24.37 27.6799 24.31 27.6099 24.06C27.5599 23.9 27.4899 23.63 27.4399 23.47C27.3699 23.19 27.3499 23.14 27.3199 23.17C27.3199 23.17 27.2699 23.33 27.2199 23.5C27.1699 23.68 27.0999 23.93 27.0599 24.07C26.9899 24.32 26.9799 24.35 26.9899 24.37C26.9999 24.38 27.6499 24.37 27.6699 24.37H27.6799ZM28.9799 25.55C28.9799 25.55 28.9499 25.53 28.9499 25.51C28.9499 25.5 28.9499 24.83 28.9499 24.03C28.9499 22.6 28.9499 22.58 28.9799 22.54C28.9899 22.52 29.0199 22.49 29.0399 22.48C29.0799 22.46 29.0799 22.45 29.7599 22.45C30.4099 22.45 30.4499 22.45 30.5599 22.47C30.9399 22.55 31.1999 22.79 31.2999 23.14C31.3299 23.26 31.3399 23.54 31.2999 23.65C31.1999 24.04 30.9599 24.28 30.5599 24.37C30.4699 24.39 30.4099 24.39 30.0599 24.4C29.8399 24.4 29.6499 24.4 29.6299 24.41H29.5999V24.95C29.5999 25.4 29.5999 25.49 29.5799 25.51C29.5599 25.53 29.5499 25.53 29.2799 25.53C29.1299 25.53 28.9899 25.53 28.9699 25.53L28.9799 25.55ZM30.3399 23.88C30.4699 23.85 30.5599 23.76 30.6099 23.65C30.6899 23.45 30.6199 23.21 30.4599 23.11C30.3599 23.04 30.3099 23.04 29.9399 23.04H29.5999V23.46C29.5999 23.69 29.5999 23.88 29.5999 23.89C29.5999 23.91 30.2599 23.91 30.3399 23.89V23.88ZM32.2999 25.55C32.2999 25.55 32.2699 25.53 32.2599 25.52C32.2599 25.5 32.2499 25.11 32.2499 24.26C32.2499 23.14 32.2499 23.02 32.2299 23.02C32.2299 23.02 32.0299 23.02 31.8099 23.02H31.4099L31.3899 22.99C31.3899 22.99 31.3699 22.92 31.3699 22.74C31.3699 22.6 31.3699 22.5 31.3799 22.49C31.3899 22.47 31.4199 22.47 32.5899 22.47C33.4999 22.47 33.7899 22.47 33.7999 22.48C33.7999 22.48 33.8099 22.56 33.8099 22.74C33.8099 22.96 33.8099 22.98 33.7899 23C33.7699 23.02 33.7199 23.02 33.3599 23.02C33.0499 23.02 32.9399 23.02 32.9299 23.03C32.9199 23.04 32.9199 23.34 32.9199 24.29C32.9199 25.43 32.9199 25.54 32.8999 25.55C32.8899 25.56 32.8199 25.57 32.5999 25.57C32.4499 25.57 32.3099 25.57 32.2999 25.57V25.55ZM23.1099 21.48C23.1099 21.48 22.7999 21.19 22.0999 20.48C21.5699 19.94 21.1099 19.47 21.0699 19.42L20.9999 19.33H21.0399C21.0399 19.33 21.1299 19.35 21.1899 19.36C21.2499 19.36 21.3099 19.38 21.3299 19.38C21.3399 19.38 21.3599 19.38 21.3699 19.38C21.3799 19.38 21.4099 19.38 21.4399 19.38C21.4699 19.38 21.4899 19.39 21.4999 19.39C21.4999 19.39 21.5699 19.39 21.6399 19.41C21.7099 19.42 21.8199 19.44 21.8699 19.45C21.9199 19.45 22.0099 19.47 22.0699 19.48C22.1299 19.49 22.2399 19.5 22.2999 19.51C22.3699 19.51 22.4299 19.53 22.4499 19.54C22.4599 19.54 22.5499 19.56 22.6399 19.57C22.7999 19.59 22.9699 19.61 23.3099 19.67C23.3999 19.69 23.4999 19.7 23.5199 19.7C23.5399 19.7 23.6199 19.71 23.6799 19.72C23.7499 19.73 23.8199 19.74 23.8399 19.75C23.9499 19.76 24.0199 19.77 24.0499 19.78C24.0699 19.78 24.0899 19.79 24.1099 19.79C24.3999 19.82 24.4199 19.82 24.6199 19.86C24.6799 19.87 24.7399 19.88 24.7599 19.89H24.7999L24.6199 20.09C24.5199 20.19 24.1799 20.54 23.8699 20.86C23.2999 21.43 23.2499 21.48 23.1799 21.48C23.1699 21.48 23.1399 21.48 23.1099 21.46V21.48ZM27.1699 19.94C26.7299 19.94 26.3599 19.93 26.3599 19.92C26.3499 19.91 26.4099 19.85 26.4399 19.84C26.4499 19.84 26.4899 19.81 26.5099 19.79C26.5399 19.77 26.5899 19.73 26.6199 19.71L26.7499 19.62L26.8299 19.56C26.8299 19.56 26.8599 19.53 26.8899 19.51C26.9199 19.49 26.9699 19.45 27.0099 19.42C27.0499 19.39 27.0899 19.36 27.1099 19.35C27.1299 19.35 27.1499 19.32 27.1499 19.31C27.1499 19.29 27.1899 19.27 27.3099 19.19C27.3299 19.18 27.3699 19.15 27.3899 19.13C27.4099 19.11 27.4699 19.07 27.5199 19.03C27.5699 19 27.6299 18.95 27.6499 18.93C27.7499 18.86 27.8499 18.78 27.8899 18.76C27.9099 18.75 27.9499 18.72 27.9699 18.69C27.9999 18.67 28.0199 18.65 28.0299 18.65C28.0399 18.65 28.0699 18.63 28.0999 18.6C28.1299 18.57 28.1599 18.55 28.1699 18.55C28.1799 18.55 28.2099 18.53 28.2399 18.5C28.2699 18.47 28.3299 18.43 28.3699 18.41C28.4099 18.39 28.4299 18.36 28.4299 18.36C28.4299 18.36 28.4499 18.34 28.4799 18.33C28.5099 18.32 28.5499 18.29 28.5799 18.26C28.6099 18.23 28.6299 18.22 28.6399 18.22C28.6499 18.22 28.6899 18.19 28.7399 18.15C28.7899 18.11 28.8299 18.08 28.8399 18.08C28.8499 18.08 28.8699 18.06 28.8999 18.03C28.9299 18.01 28.9599 17.98 28.9699 17.98C28.9899 17.98 29.0199 17.95 29.0799 17.89C29.0899 17.88 29.1099 17.87 29.1099 17.87C29.1099 17.87 29.1499 17.84 29.1899 17.81C29.2299 17.78 29.2799 17.74 29.3099 17.72C29.3399 17.71 29.3699 17.68 29.3799 17.67C29.3999 17.65 29.3999 17.65 29.4099 17.74C29.4099 17.79 29.4199 18.28 29.4199 18.83C29.4199 19.8 29.4199 19.83 29.3999 19.87C29.3899 19.89 29.3599 19.92 29.3299 19.94L29.2799 19.97H28.6099C28.2399 19.97 27.5799 19.97 27.1299 19.96L27.1699 19.94ZM25.7999 19.75C25.7999 19.75 25.7999 19.67 25.7999 19.59C25.7999 19.42 25.7799 19.13 25.7699 19.1C25.7699 19.09 25.7499 19.08 25.7299 19.07C25.6999 19.07 25.7099 19.05 25.9199 18.84C26.3799 18.37 26.7899 17.98 26.7899 17.99C26.7899 17.99 26.7799 18.04 26.4099 18.7C26.2899 18.92 26.0999 19.25 25.9999 19.43C25.8999 19.61 25.8199 19.75 25.8099 19.75C25.7999 19.75 25.7999 19.75 25.7999 19.75ZM20.7299 18.85C20.7299 18.85 20.7999 18.76 20.8999 18.66C20.9899 18.56 21.0899 18.46 21.1099 18.42C21.1599 18.36 21.1599 18.35 21.1399 18.3C21.1399 18.28 21.1699 18.28 21.8999 18.28C22.4699 18.28 22.6699 18.28 22.6599 18.29C22.6599 18.29 22.6099 18.32 22.5499 18.33C22.2399 18.42 20.7799 18.84 20.7599 18.84C20.7399 18.84 20.7299 18.84 20.7299 18.84V18.85ZM17.6399 18.25C17.6399 18.25 17.5899 18.2 17.5799 18.17C17.5599 18.12 17.5599 18.11 17.5599 16.95C17.5599 16.31 17.5699 15.61 17.5699 15.4V15.02L17.5999 15.05C17.5999 15.05 17.6399 15.11 17.6599 15.15C17.6799 15.18 17.7099 15.23 17.7199 15.25C17.7499 15.28 17.8399 15.42 17.8999 15.52C17.9199 15.55 17.9499 15.6 17.9699 15.62C17.9899 15.65 18.0099 15.68 18.0199 15.69C18.0199 15.71 18.0599 15.76 18.0999 15.82C18.1399 15.87 18.1899 15.95 18.2099 15.99C18.2299 16.03 18.2699 16.07 18.2799 16.09C18.2999 16.11 18.3199 16.15 18.3399 16.19C18.3599 16.23 18.3899 16.27 18.4099 16.29C18.4299 16.31 18.4399 16.33 18.4399 16.34C18.4399 16.35 18.4699 16.39 18.5299 16.47C18.5299 16.47 18.5499 16.5 18.5599 16.52C18.5599 16.54 18.5999 16.59 18.6199 16.62C18.6499 16.65 18.6799 16.7 18.6999 16.73C18.7199 16.76 18.7499 16.8 18.7699 16.83C18.7899 16.86 18.8099 16.89 18.8099 16.89C18.8099 16.9 18.8299 16.93 18.8899 17.01C18.9099 17.03 18.9199 17.06 18.9299 17.07C18.9299 17.08 18.9599 17.12 18.9799 17.15C18.9999 17.18 19.0299 17.21 19.0299 17.21C19.0299 17.21 19.0499 17.25 19.0799 17.29C19.1099 17.33 19.1399 17.38 19.1499 17.4C19.1599 17.42 19.1899 17.47 19.2199 17.51L19.3299 17.67C19.3299 17.67 19.4099 17.79 19.4399 17.83C19.4999 17.91 19.5999 18.06 19.6299 18.12C19.6399 18.14 19.6699 18.17 19.6799 18.19C19.7199 18.23 19.7199 18.25 19.6799 18.25C19.6599 18.25 19.1899 18.26 18.6399 18.26H17.6299L17.5899 18.24L17.6399 18.25ZM29.8499 16.6C29.5999 16.36 29.5399 16.32 29.5099 16.34C29.4999 16.34 29.4799 16.36 29.4799 16.37C29.4799 16.37 29.4799 16.33 29.4699 16.25C29.4599 16.08 29.4699 14.83 29.4899 14.84C29.4999 14.85 30.0499 16.7 30.0599 16.75C30.0599 16.77 30.0599 16.78 30.0599 16.78C30.0599 16.78 29.9599 16.7 29.8499 16.59V16.6ZM30.5599 16.48C30.5599 16.48 30.5699 16.4 30.5799 16.34C30.5799 16.28 30.5999 16.18 30.6099 16.13C30.6099 16.07 30.6299 15.98 30.6399 15.92C30.6399 15.86 30.6699 15.76 30.6799 15.69C30.6899 15.62 30.6999 15.54 30.6999 15.51C30.6999 15.48 30.6999 15.42 30.7199 15.38C30.7199 15.34 30.7399 15.25 30.7499 15.19C30.7499 15.12 30.7699 15.06 30.7699 15.05C30.7699 15.04 30.7799 15.01 30.7899 14.99C30.7899 14.97 30.7899 14.91 30.8099 14.87C30.8099 14.83 30.8299 14.76 30.8299 14.71C30.8399 14.6 30.8699 14.44 30.9099 14.19C30.9299 14.08 30.9499 13.96 30.9499 13.91C30.9499 13.87 30.9599 13.81 30.9699 13.78C30.9699 13.75 30.9899 13.68 30.9999 13.63C30.9999 13.57 31.0299 13.46 31.0399 13.39C31.0599 13.27 31.0699 13.2 31.0799 13.08C31.0799 13.05 31.0999 12.93 31.1299 12.8V12.76L31.1799 12.79C31.3599 12.94 32.6599 14.23 32.6899 14.28C32.7199 14.34 32.7199 14.39 32.6799 14.45C32.6599 14.48 32.4899 14.65 32.2999 14.84C30.8999 16.23 30.7399 16.38 30.6299 16.47C30.5599 16.53 30.5599 16.53 30.5599 16.5V16.48ZM18.7399 15.17C18.3299 14.95 17.9399 14.73 17.8699 14.7C17.7999 14.67 17.7499 14.63 17.7499 14.63C17.7499 14.61 17.8099 14.61 18.0799 14.6C18.3999 14.6 18.4199 14.59 18.4399 14.54V14.51L18.5199 14.57C18.6199 14.66 19.5199 15.57 19.5199 15.58C19.5199 15.58 19.5199 15.58 19.5099 15.58C19.5099 15.58 19.1599 15.4 18.7499 15.17H18.7399ZM17.3899 13.4C17.2999 13.32 16.9499 12.97 16.6099 12.64C16.0399 12.07 15.9999 12.03 15.9899 11.98C15.9699 11.88 15.9499 11.9 16.9699 10.9C17.4899 10.38 17.9699 9.91998 18.0199 9.86998L18.1199 9.77998V9.81998C18.1199 9.81998 18.1199 9.93998 18.0999 10.04C18.0799 10.14 18.0699 10.24 18.0699 10.26C18.0699 10.28 18.0699 10.3 18.0699 10.31C18.0699 10.31 18.0599 10.39 18.0499 10.47C18.0199 10.68 17.9999 10.84 17.9799 10.97C17.9699 11.03 17.9499 11.13 17.9499 11.18C17.9399 11.28 17.9099 11.49 17.8999 11.55C17.8999 11.57 17.8899 11.63 17.8799 11.69C17.8399 11.93 17.8199 12.02 17.8099 12.15C17.8099 12.23 17.7899 12.32 17.7799 12.35C17.7799 12.38 17.7599 12.44 17.7599 12.49C17.7599 12.54 17.7399 12.63 17.7299 12.69C17.7199 12.76 17.7099 12.83 17.7099 12.85C17.7099 12.87 17.7099 12.93 17.6899 12.98C17.6899 13.03 17.6699 13.11 17.6599 13.17C17.6599 13.23 17.6399 13.29 17.6399 13.31C17.6399 13.33 17.6299 13.37 17.6199 13.4C17.6099 13.52 17.5999 13.57 17.5899 13.57C17.5899 13.57 17.5099 13.5 17.4199 13.42L17.3899 13.4ZM29.8299 11.38C29.3999 10.96 29.1699 10.72 29.1799 10.71C29.1799 10.71 29.4699 10.86 30.7299 11.54C30.8499 11.61 30.9499 11.66 30.9399 11.67C30.9399 11.67 30.7899 11.68 30.6099 11.69C30.4399 11.69 30.2799 11.71 30.2599 11.71C30.2399 11.71 30.2299 11.73 30.2299 11.75C30.2299 11.77 30.1599 11.71 29.8299 11.38ZM19.0799 11.03C19.0099 10.8 18.8799 10.37 18.7999 10.07C18.7099 9.76998 18.6399 9.52998 18.6399 9.51998C18.6399 9.49998 18.6699 9.50998 18.6999 9.53998C18.7499 9.59998 19.0499 9.87998 19.1099 9.91998C19.1699 9.95998 19.1699 9.96998 19.1899 9.94998C19.1899 9.94998 19.1999 9.97665 19.2199 10.03C19.2199 10.15 19.2199 11.13 19.2199 11.31C19.2199 11.39 19.2099 11.45 19.1999 11.45C19.1899 11.45 19.1399 11.26 19.0699 11.03H19.0799ZM31.0999 11.13C31.0999 11.13 31.0499 11.06 30.9699 10.94C30.9199 10.88 30.8699 10.81 30.8599 10.79C30.8499 10.77 30.8099 10.72 30.7699 10.67C30.7299 10.62 30.6699 10.53 30.6299 10.48C30.5899 10.42 30.5499 10.37 30.5399 10.35C30.5299 10.34 30.4999 10.3 30.4799 10.27C30.4599 10.24 30.4299 10.2 30.4199 10.18C30.3699 10.12 30.2799 9.99998 30.2399 9.93998C30.2199 9.90998 30.1799 9.84998 30.1499 9.81998C30.1199 9.77998 30.0999 9.74998 30.0899 9.72998C30.0899 9.71998 30.0799 9.70998 30.0699 9.70998C30.0599 9.70998 30.0399 9.67998 30.0199 9.64998C29.9999 9.61998 29.9699 9.57998 29.9599 9.56998C29.9499 9.55998 29.9299 9.52998 29.9199 9.50998C29.9199 9.48998 29.8799 9.44998 29.8499 9.41998C29.8199 9.38998 29.7899 9.34998 29.7799 9.32998C29.7699 9.30998 29.7399 9.27998 29.7299 9.25998C29.7099 9.23998 29.6399 9.13998 29.5699 9.03998C29.4999 8.93998 29.4299 8.83998 29.4099 8.81998C29.3699 8.75998 29.2399 8.57998 29.2199 8.54998C29.2199 8.53998 29.1799 8.49998 29.1499 8.45998C29.1199 8.41998 29.0999 8.38998 29.0999 8.37998C29.0999 8.36998 29.0799 8.34998 29.0599 8.31998C29.0199 8.26998 29.0099 8.25998 28.9399 8.15998C28.9199 8.12998 28.8999 8.09998 28.8899 8.09998C28.8799 8.09998 28.8699 8.07998 28.8599 8.06998L28.8399 8.03998H29.1099C29.2599 8.02998 29.7499 8.01998 30.2099 8.01998C30.9899 8.01998 31.0399 8.01998 31.0799 8.03998C31.0999 8.04998 31.1299 8.07998 31.1399 8.09998C31.1599 8.13998 31.1599 8.13998 31.1599 9.58998C31.1599 10.95 31.1499 11.18 31.1299 11.14L31.0999 11.13ZM19.2499 8.56998C19.2499 8.56998 19.2399 8.03998 19.2399 7.47998V6.46998L19.2599 6.42998C19.2599 6.42998 19.2999 6.37998 19.3199 6.36998C19.3499 6.34998 19.3699 6.34998 20.4499 6.34998C21.6599 6.34998 22.3799 6.35998 22.3699 6.37998C22.3699 6.37998 22.2699 6.45998 22.1999 6.49998C22.1899 6.49998 22.1599 6.52998 22.1399 6.53998C22.0299 6.62998 21.9599 6.67998 21.9499 6.67998C21.9499 6.67998 21.9299 6.68998 21.9099 6.69998C21.8999 6.70998 21.8499 6.74998 21.8099 6.76998C21.7699 6.78998 21.7099 6.83998 21.6899 6.85998C21.6699 6.87998 21.6399 6.89998 21.6399 6.89998C21.6399 6.89998 21.5999 6.91998 21.5699 6.94998C21.5399 6.97998 21.4999 7.00998 21.4799 7.00998C21.4499 7.01998 21.2799 7.14998 21.1999 7.21998C21.1699 7.23998 21.1099 7.28998 21.0599 7.32998C21.0099 7.36998 20.9399 7.41998 20.9199 7.43998C20.8899 7.45998 20.8399 7.49998 20.8099 7.51998C20.7699 7.53998 20.7399 7.56998 20.7399 7.56998C20.7399 7.56998 20.7199 7.58998 20.6999 7.59998C20.6799 7.60998 20.6399 7.63998 20.6099 7.65998C20.5799 7.67998 20.5599 7.69998 20.5499 7.69998C20.5399 7.69998 20.5299 7.70998 20.5099 7.72998C20.4699 7.76998 20.3799 7.82998 20.3299 7.85998C20.3099 7.86998 20.2799 7.88998 20.2699 7.90998C20.2599 7.91998 20.2299 7.94998 20.1999 7.95998C20.1699 7.97998 20.1199 8.00998 20.0899 8.03998C20.0499 8.06998 20.0199 8.09998 20.0099 8.09998C19.9999 8.09998 19.9699 8.12998 19.9299 8.15998C19.8899 8.18998 19.8499 8.21998 19.8499 8.21998C19.8499 8.21998 19.8199 8.23998 19.7899 8.25998C19.7599 8.27998 19.7299 8.30998 19.7099 8.31998C19.6799 8.33998 19.4899 8.47998 19.4599 8.50998C19.4599 8.50998 19.4099 8.54998 19.3799 8.56998C19.3399 8.58998 19.3099 8.61998 19.2999 8.62998C19.2799 8.65998 19.2699 8.64998 19.2599 8.56998H19.2499ZM21.8599 8.35998C21.8599 8.35998 21.9299 8.20998 22.0199 8.04998C22.1099 7.88998 22.3399 7.47998 22.5199 7.13998C22.7099 6.79998 22.8599 6.52998 22.8599 6.52998C22.8799 6.50998 22.8899 6.57998 22.8899 6.68998C22.8899 6.84998 22.9099 7.19998 22.9199 7.21998C22.9199 7.21998 22.9399 7.23998 22.9499 7.23998C22.9699 7.23998 22.8699 7.34998 22.4399 7.78998C22.1399 8.08998 21.8899 8.33998 21.8799 8.34998C21.8699 8.34998 21.8599 8.35998 21.8599 8.34998V8.35998ZM26.0399 7.99998C26.0399 7.99998 26.0299 7.98998 26.0399 7.97998C26.0399 7.97998 26.1499 7.93998 26.2799 7.90998C26.5999 7.81998 27.9399 7.42998 27.9599 7.42998C27.9999 7.41998 27.9599 7.47998 27.8299 7.60998C27.6099 7.83998 27.5299 7.93998 27.5299 7.96998C27.5299 7.98998 27.5299 7.99998 27.5099 7.99998C27.4699 8.00998 26.0599 7.99998 26.0399 7.99998ZM27.5999 6.92998C27.5999 6.92998 27.5499 6.92998 27.5199 6.91998C27.4899 6.91998 27.3199 6.88998 27.1299 6.85998C26.9399 6.82998 26.7599 6.79998 26.7099 6.79998C26.6699 6.79998 26.5999 6.78998 26.5699 6.77998C26.3199 6.72998 26.1999 6.70998 25.9099 6.67998C25.8199 6.66998 25.6799 6.64998 25.6099 6.62998C25.3499 6.57998 25.2899 6.56998 25.2299 6.56998C25.1999 6.56998 25.1299 6.55998 25.0899 6.54998L24.8999 6.51998C24.8299 6.51998 24.7799 6.49998 24.7699 6.49998C24.7599 6.49998 24.7399 6.49998 24.7099 6.48998C24.6799 6.48998 24.6099 6.47998 24.5499 6.46998C24.4899 6.45998 24.4199 6.44998 24.3899 6.44998C24.2799 6.44998 23.9199 6.37998 23.9099 6.36998C23.8999 6.35998 24.1499 6.08998 24.7499 5.48998C25.1099 5.12998 25.4199 4.81998 25.4399 4.80998C25.4799 4.78998 25.5499 4.78998 25.5899 4.80998C25.6399 4.83998 27.4399 6.64998 27.6299 6.85998L27.6999 6.93998H27.6599C27.6599 6.93998 27.6099 6.93998 27.5899 6.92998H27.5999Z" fill="#0164A0"/>
</g>
<defs>
<clipPath id="clip0_342_5836">
<rect width="48" height="31" fill="white"/>
</clipPath>
</defs>
</svg>
