<svg width="48" height="31" viewBox="0 0 48 31" fill="none" xmlns="http://www.w3.org/2000/svg">
<g clip-path="url(#clip0_342_5804)">
<path d="M45 0H3C1.34315 0 0 1.34315 0 3V28C0 29.6569 1.34315 31 3 31H45C46.6569 31 48 29.6569 48 28V3C48 1.34315 46.6569 0 45 0Z" fill="white"/>
<g clip-path="url(#clip1_342_5804)">
<path fill-rule="evenodd" clip-rule="evenodd" d="M23.6914 14.15C23.6713 15.96 25.2946 16.97 26.517 17.57C27.7796 18.19 28.2004 18.58 28.1904 19.13C28.1904 19.97 27.1884 20.35 26.2565 20.36C24.6333 20.39 23.6914 19.92 22.9399 19.57L22.3587 22.32C23.1102 22.67 24.503 22.97 25.9559 22.99C29.3527 22.99 31.5671 21.3 31.5872 18.69C31.5972 15.37 27.0281 15.19 27.0581 13.71C27.0681 13.26 27.499 12.78 28.4309 12.66C28.8918 12.6 30.1743 12.55 31.6172 13.22L32.1884 10.56C31.4068 10.27 30.4048 10 29.1623 10C25.9659 10 23.7214 11.71 23.7014 14.15H23.6914ZM37.6293 10.23C37.008 10.23 36.487 10.59 36.2565 11.15L31.4068 22.8H34.8036L35.4749 20.92H39.6232L40.014 22.8H43L40.3948 10.23H37.6393H37.6293ZM38.1002 13.63L39.0822 18.35H36.3968L38.1002 13.63ZM19.5731 10.23L16.8978 22.8H20.1343L22.8096 10.23H19.5832H19.5731ZM14.7936 10.23L11.4269 18.79L10.0641 11.51C9.90381 10.7 9.27255 10.23 8.57114 10.23H3.08016L3 10.59C4.13226 10.84 5.41483 11.23 6.18637 11.66C6.65731 11.92 6.7976 12.15 6.95792 12.76L9.53307 22.79H12.9499L18.1904 10.23H14.7936Z" fill="url(#paint0_linear_342_5804)"/>
</g>
</g>
<defs>
<linearGradient id="paint0_linear_342_5804" x1="17.5391" y1="24.25" x2="28.8116" y2="8.33869" gradientUnits="userSpaceOnUse">
<stop stop-color="#222357"/>
<stop offset="1" stop-color="#254AA5"/>
</linearGradient>
<clipPath id="clip0_342_5804">
<rect width="48" height="31" fill="white"/>
</clipPath>
<clipPath id="clip1_342_5804">
<rect width="40" height="13" fill="white" transform="translate(3 10)"/>
</clipPath>
</defs>
</svg>
