<svg width="48" height="31" viewBox="0 0 48 31" fill="none" xmlns="http://www.w3.org/2000/svg">
<g clip-path="url(#clip0_342_5808)">
<path d="M45 0H3C1.34315 0 0 1.34315 0 3V28C0 29.6569 1.34315 31 3 31H45C46.6569 31 48 29.6569 48 28V3C48 1.34315 46.6569 0 45 0Z" fill="white"/>
<path fill-rule="evenodd" clip-rule="evenodd" d="M32.3709 6.89998L32.8709 9.32998H31.4909L32.3709 6.89998ZM30.4509 7.82998L29.0509 11.2L28.8809 11.65H30.6509L31.0009 10.68H33.1609L33.3609 11.65H34.9309L33.5709 5.09998C33.5709 5.09998 32.3409 5.09998 32.0809 5.09998C31.6109 5.12998 31.4809 5.42998 31.3209 5.78998C31.2109 6.05998 30.5409 7.73998 30.4609 7.82998H30.4509Z" fill="#1A1F70"/>
<path fill-rule="evenodd" clip-rule="evenodd" d="M21.9898 5.11002H20.2198L18.4798 9.52002C18.3598 9.28002 17.8798 6.36002 17.7798 5.82002C17.6298 5.04002 17.0898 5.11002 16.2998 5.11002C15.5698 5.11002 14.8398 5.11002 14.1198 5.11002L14.0898 5.30002C14.1898 5.36002 15.4498 5.61002 15.8798 5.95002C16.1698 6.19002 16.3598 7.29002 16.4898 7.78002C16.6098 8.24002 17.4098 11.52 17.4998 11.66H19.2798L21.9998 5.11002H21.9898Z" fill="#1A1F70"/>
<path fill-rule="evenodd" clip-rule="evenodd" d="M28.9702 9.77002C28.8902 9.46002 29.0302 9.27002 28.8302 8.85002C28.5202 8.16002 27.6902 7.83002 27.0502 7.46002C26.4402 7.10002 26.4402 6.55002 27.2102 6.40002C27.9002 6.26002 28.4302 6.49002 28.9802 6.67002L29.2802 5.26002L28.2902 5.03002C27.1502 4.93002 26.1002 5.12002 25.4702 5.75002C24.8102 6.39002 24.5402 7.51002 25.3102 8.26002C25.6402 8.58002 25.9102 8.74002 26.3902 8.98002C26.7202 9.14002 27.3502 9.44002 27.1602 9.93002C27.0002 10.35 26.3702 10.43 25.8302 10.39C25.1702 10.34 24.9602 10.16 24.4602 9.99002L24.1602 11.43C25.1402 11.74 26.1402 11.93 27.2302 11.61C27.9002 11.42 28.4602 11.04 28.7502 10.46C28.8402 10.28 28.9302 9.85002 28.9602 9.78002L28.9702 9.77002Z" fill="#1A1F70"/>
<path fill-rule="evenodd" clip-rule="evenodd" d="M24.4003 5.10999H22.7103L21.3203 11.66H23.0103L24.4003 5.10999Z" fill="#1A1F70"/>
<path d="M0 16H48V28C48 29.66 46.66 31 45 31H3C1.34 31 0 29.66 0 28V16Z" fill="#1A1F70"/>
<path fill-rule="evenodd" clip-rule="evenodd" d="M27.7191 22.55C28.1991 22.49 28.7291 22.51 28.7191 23.08C28.7191 23.63 28.2091 23.63 27.7191 23.63V22.55ZM27.1191 22.15V25.5H27.7191V24.09C28.1791 24.09 28.4191 24.08 28.5591 24.5C28.6591 24.82 28.7191 25.18 28.8291 25.5H29.4491C29.3891 25.24 29.2791 24.87 29.1991 24.57C29.1091 24.18 29.0091 24.04 28.7391 23.88C29.0191 23.73 29.2091 23.62 29.2991 23.28C29.4091 22.89 29.2691 22.55 29.0791 22.36C28.5991 21.88 27.1891 22.08 27.1291 22.16L27.1191 22.15Z" fill="#FEFEFE"/>
<path fill-rule="evenodd" clip-rule="evenodd" d="M19.2406 22.59H20.5506V22.07H18.6406V25.49H20.6306V24.98H19.2406V23.98H20.4806V23.47H19.2406V22.59Z" fill="#FEFEFE"/>
<path fill-rule="evenodd" clip-rule="evenodd" d="M30.4496 22.59H31.7596V22.07H29.8496V25.49H31.8396V24.98H30.4496V23.98H31.6896V23.47H30.4496V22.59Z" fill="#FEFEFE"/>
<path fill-rule="evenodd" clip-rule="evenodd" d="M16.13 24.81L16 25.34C16.54 25.53 17.09 25.69 17.65 25.37C18.06 25.14 18.35 24.49 17.97 23.96C17.65 23.52 16.97 23.49 16.73 23.17C16.53 22.9 16.76 22.62 17 22.56C17.38 22.46 17.59 22.63 17.86 22.7L18 22.18C17.43 22.03 16.88 21.88 16.39 22.28C15.94 22.65 15.91 23.3 16.37 23.7C16.72 24 17.54 24.07 17.51 24.6C17.47 25.28 16.49 24.98 16.12 24.82L16.13 24.81Z" fill="#FEFEFE"/>
<path fill-rule="evenodd" clip-rule="evenodd" d="M23.4505 25.39L23.3605 24.89C22.3805 25.18 21.5605 24.89 21.5605 23.78C21.5605 23.25 21.7605 22.91 22.0705 22.7C22.5205 22.4 22.8905 22.56 23.3605 22.66L23.4805 22.16C22.1605 21.64 20.9505 22.42 20.9205 23.75C20.8905 25.27 22.0705 25.81 23.4505 25.39Z" fill="#FEFEFE"/>
<path fill-rule="evenodd" clip-rule="evenodd" d="M24.35 25.29C24.39 25.15 24.45 25.34 24.4 25.2C24.39 25.16 24.33 25.23 24.4 25.12C24.59 24.83 24.52 24.82 24.45 24.71C24.43 24.78 24.48 24.71 24.5 24.75V24.77C24.57 25.07 24.65 24.81 24.61 24.97C24.73 24.92 24.62 24.97 24.67 24.91C24.7 24.87 24.68 24.98 24.7 24.85C24.67 24.72 24.55 24.61 24.51 24.31C24.48 24.07 24.48 22.17 24.51 22.07H23.89C23.88 23.08 23.71 24.76 24.33 25.29H24.35Z" fill="#FEFEFE"/>
<path fill-rule="evenodd" clip-rule="evenodd" d="M25.7091 24.79C25.8091 24.78 25.8291 24.9 25.8991 24.68C25.9391 24.57 25.9291 24.55 25.9091 24.36L26.0191 24.29L25.9991 22.22L26.3491 22.26C26.4491 22.37 26.3791 23.46 26.3791 23.72C26.3791 24.14 26.3091 24.37 26.3491 24.56V24.59C26.3791 24.66 26.3491 24.68 26.3491 24.68C26.3191 24.76 26.3291 24.76 26.3091 24.84L26.2691 24.62H26.2291L26.1991 24.86H26.2991C26.1791 24.96 26.2091 24.79 26.1891 25.02C25.9691 24.95 26.2091 25.07 26.0491 25.12C25.9391 25.15 25.9791 25.15 25.8991 25.1C25.7991 25.03 25.8291 25.08 25.8291 24.91L25.7091 24.89V24.77C25.6191 24.91 25.4991 25.01 25.2491 25.03C24.9291 25.05 24.8991 24.93 24.7291 24.84C24.7091 24.97 24.7291 24.86 24.6991 24.9C24.6491 24.96 24.7591 24.9 24.6391 24.96C24.6691 24.8 24.5891 25.05 24.5291 24.77V24.74C24.5291 24.74 24.4591 24.77 24.4691 24.7C24.5491 24.81 24.6091 24.82 24.4191 25.11C24.3491 25.22 24.4091 25.15 24.4191 25.19C24.4691 25.33 24.4191 25.15 24.3691 25.28C25.0491 25.81 26.0391 25.52 26.3491 24.85C26.6091 24.29 26.4891 22.8 26.5091 22.06H25.8991C25.8891 22.92 26.0291 24.07 25.7391 24.78L25.7091 24.79Z" fill="#FEFEFE"/>
<path fill-rule="evenodd" clip-rule="evenodd" d="M25.7092 24.79V24.9L25.8192 24.92C25.8192 25.09 25.7892 25.04 25.8892 25.11C25.9592 25.16 25.9292 25.16 26.0392 25.13C26.1992 25.08 25.9592 24.96 26.1792 25.03C26.1992 24.8 26.1792 24.97 26.2892 24.87H26.1892L26.2192 24.63H26.2592L26.2992 24.85C26.3192 24.76 26.2992 24.76 26.3392 24.69C26.3392 24.69 26.3792 24.67 26.3592 24.6V24.57C26.3092 24.38 26.3792 24.15 26.3792 23.73C26.3792 23.47 26.4392 22.39 26.3392 22.27L25.9892 22.23L26.0092 24.3L25.8992 24.37C25.9192 24.56 25.9192 24.58 25.8892 24.69C25.8192 24.91 25.7992 24.79 25.6992 24.8L25.7092 24.79Z" fill="#FEFEFE"/>
<path fill-rule="evenodd" clip-rule="evenodd" d="M27.7207 22.55V23.63C28.2107 23.63 28.7107 23.63 28.7207 23.08C28.7207 22.51 28.2007 22.49 27.7207 22.55Z" fill="#1A1F70"/>
</g>
<defs>
<clipPath id="clip0_342_5808">
<rect width="48" height="31" fill="white"/>
</clipPath>
</defs>
</svg>
